<svg id="Grupo_1003025" data-name="Grupo 1003025" xmlns="http://www.w3.org/2000/svg" xmlns:xlink="http://www.w3.org/1999/xlink" width="200" height="200" viewBox="0 0 200 200">
  <defs>
    <clipPath id="clip-path">
      <rect id="Rect치ngulo_353117" data-name="Rect치ngulo 353117" width="200" height="200" fill="none"/>
    </clipPath>
  </defs>
  <g id="Grupo_1003024" data-name="Grupo 1003024" clip-path="url(#clip-path)">
    <circle id="Elipse_5690" data-name="Elipse 5690" cx="97.5" cy="97.5" r="97.5" transform="translate(3 3)" fill="none" stroke="#06d1d1" stroke-miterlimit="10" stroke-width="8"/>
    <rect id="Rect치ngulo_353116" data-name="Rect치ngulo 353116" width="74" height="38" transform="translate(63 81)" fill="#b20d0d"/>
    <path id="Trazado_715008" data-name="Trazado 715008" d="M21.029,149.515A3.515,3.515,0,1,1,17.515,146a3.515,3.515,0,0,1,3.515,3.515" transform="translate(-4.159 -43.373)" fill="#ffc403"/>
    <path id="Trazado_715009" data-name="Trazado 715009" d="M22.029,118.515A3.515,3.515,0,1,1,18.515,115a3.515,3.515,0,0,1,3.515,3.515" transform="translate(-4.456 -34.164)" fill="#ffc403"/>
    <path id="Trazado_715010" data-name="Trazado 715010" d="M31.029,92.515A3.515,3.515,0,1,1,27.515,89a3.515,3.515,0,0,1,3.515,3.515" transform="translate(-7.13 -26.44)" fill="#ffc403"/>
    <path id="Trazado_715011" data-name="Trazado 715011" d="M45.029,68.515A3.515,3.515,0,1,1,41.515,65a3.515,3.515,0,0,1,3.515,3.515" transform="translate(-11.289 -19.31)" fill="#ffc403"/>
    <path id="Trazado_715012" data-name="Trazado 715012" d="M65.029,45.515A3.515,3.515,0,1,1,61.515,42a3.515,3.515,0,0,1,3.515,3.515" transform="translate(-17.23 -12.477)" fill="#ffc403"/>
    <path id="Trazado_715013" data-name="Trazado 715013" d="M121.029,17.515A3.515,3.515,0,1,1,117.515,14a3.515,3.515,0,0,1,3.515,3.515" transform="translate(-33.867 -4.159)" fill="#ffc403"/>
    <path id="Trazado_715014" data-name="Trazado 715014" d="M192.029,27.515A3.515,3.515,0,1,1,188.515,24a3.515,3.515,0,0,1,3.515,3.515" transform="translate(-54.959 -7.13)" fill="#ffc403"/>
    <path id="Trazado_715015" data-name="Trazado 715015" d="M217.029,40.515A3.515,3.515,0,1,1,213.515,37a3.515,3.515,0,0,1,3.515,3.515" transform="translate(-62.386 -10.992)" fill="#ffc403"/>
    <path id="Trazado_715016" data-name="Trazado 715016" d="M241.029,63.515A3.515,3.515,0,1,1,237.515,60a3.515,3.515,0,0,1,3.515,3.515" transform="translate(-69.516 -17.825)" fill="#ffc403"/>
    <path id="Trazado_715017" data-name="Trazado 715017" d="M256.029,87.515A3.515,3.515,0,1,1,252.515,84a3.515,3.515,0,0,1,3.515,3.515" transform="translate(-73.972 -24.954)" fill="#ffc403"/>
    <path id="Trazado_715018" data-name="Trazado 715018" d="M266.029,113.515A3.515,3.515,0,1,1,262.515,110a3.515,3.515,0,0,1,3.515,3.515" transform="translate(-76.943 -32.678)" fill="#ffc403"/>
    <path id="Trazado_715019" data-name="Trazado 715019" d="M266.029,139.515A3.515,3.515,0,1,1,262.515,136a3.515,3.515,0,0,1,3.515,3.515" transform="translate(-76.943 -40.402)" fill="#ffc403"/>
    <path id="Trazado_715020" data-name="Trazado 715020" d="M266.029,168.515A3.515,3.515,0,1,1,262.515,165a3.515,3.515,0,0,1,3.515,3.515" transform="translate(-76.943 -49.018)" fill="#ffc403"/>
    <path id="Trazado_715021" data-name="Trazado 715021" d="M256.029,197.515A3.515,3.515,0,1,1,252.515,194a3.515,3.515,0,0,1,3.515,3.515" transform="translate(-73.972 -57.633)" fill="#ffc403"/>
    <path id="Trazado_715022" data-name="Trazado 715022" d="M241.029,218.515A3.515,3.515,0,1,1,237.515,215a3.515,3.515,0,0,1,3.515,3.515" transform="translate(-69.516 -63.871)" fill="#ffc403"/>
    <path id="Trazado_715023" data-name="Trazado 715023" d="M222.029,236.515A3.515,3.515,0,1,1,218.515,233a3.515,3.515,0,0,1,3.515,3.515" transform="translate(-63.871 -69.219)" fill="#ffc403"/>
    <path id="Trazado_715024" data-name="Trazado 715024" d="M197.029,254.515A3.515,3.515,0,1,1,193.515,251a3.515,3.515,0,0,1,3.515,3.515" transform="translate(-56.445 -74.566)" fill="#ffc403"/>
    <path id="Trazado_715025" data-name="Trazado 715025" d="M171.029,264.515A3.515,3.515,0,1,1,167.515,261a3.515,3.515,0,0,1,3.515,3.515" transform="translate(-48.721 -77.537)" fill="#ffc403"/>
    <path id="Trazado_715026" data-name="Trazado 715026" d="M139.029,264.515A3.515,3.515,0,1,1,135.515,261a3.515,3.515,0,0,1,3.515,3.515" transform="translate(-39.214 -77.537)" fill="#ffc403"/>
    <path id="Trazado_715027" data-name="Trazado 715027" d="M106.029,257.515A3.515,3.515,0,1,1,102.515,254a3.515,3.515,0,0,1,3.515,3.515" transform="translate(-29.411 -75.457)" fill="#ffc403"/>
    <path id="Trazado_715028" data-name="Trazado 715028" d="M79.029,246.515A3.515,3.515,0,1,1,75.515,243a3.515,3.515,0,0,1,3.515,3.515" transform="translate(-21.389 -72.19)" fill="#ffc403"/>
    <path id="Trazado_715029" data-name="Trazado 715029" d="M60.029,228.515A3.515,3.515,0,1,1,56.515,225a3.515,3.515,0,0,1,3.515,3.515" transform="translate(-15.745 -66.842)" fill="#ffc403"/>
    <path id="Trazado_715030" data-name="Trazado 715030" d="M41.029,208.515A3.515,3.515,0,1,1,37.515,205a3.515,3.515,0,0,1,3.515,3.515" transform="translate(-10.101 -60.901)" fill="#ffc403"/>
    <path id="Trazado_715031" data-name="Trazado 715031" d="M31.029,187.515A3.515,3.515,0,1,1,27.515,184a3.515,3.515,0,0,1,3.515,3.515" transform="translate(-7.13 -54.662)" fill="#ffc403"/>
    <path id="Trazado_715032" data-name="Trazado 715032" d="M26.029,168.515A3.515,3.515,0,1,1,22.515,165a3.515,3.515,0,0,1,3.515,3.515" transform="translate(-5.644 -49.018)" fill="#ffc403"/>
    <path id="Trazado_715033" data-name="Trazado 715033" d="M157.029,16.515A3.515,3.515,0,1,1,153.515,13a3.515,3.515,0,0,1,3.515,3.515" transform="translate(-44.561 -3.862)" fill="#ffc403"/>
    <path id="Trazado_715034" data-name="Trazado 715034" d="M92.029,27.515A3.515,3.515,0,1,1,88.515,24a3.515,3.515,0,0,1,3.515,3.515" transform="translate(-25.251 -7.13)" fill="#ffc403"/>
  </g>
</svg>
