<svg xmlns="http://www.w3.org/2000/svg" xmlns:xlink="http://www.w3.org/1999/xlink" width="217" height="217" viewBox="0 0 217 217">
  <defs>
    <clipPath id="clip-path">
      <rect id="Rect치ngulo_353123" data-name="Rect치ngulo 353123" width="217" height="217" transform="translate(0 0)" fill="none"/>
    </clipPath>
  </defs>
  <g id="Grupo_1003033" data-name="Grupo 1003033" transform="translate(0 0.018)">
    <g id="Grupo_1003032" data-name="Grupo 1003032" transform="translate(0 -0.017)" clip-path="url(#clip-path)">
      <circle id="Elipse_5692" data-name="Elipse 5692" cx="104.5" cy="104.5" r="104.5" transform="translate(4 4)" fill="none" stroke="#06d1d1" stroke-miterlimit="10" stroke-width="8"/>
      <rect id="Rect치ngulo_353122" data-name="Rect치ngulo 353122" width="81" height="41" transform="translate(68 88)" fill="#b20d0d"/>
      <path id="Trazado_715062" data-name="Trazado 715062" d="M21.613,149.807A3.807,3.807,0,1,1,17.807,146a3.807,3.807,0,0,1,3.807,3.807" transform="translate(-3.341 -34.825)" fill="#ffc403"/>
      <path id="Trazado_715063" data-name="Trazado 715063" d="M22.613,118.807A3.807,3.807,0,1,1,18.807,115a3.807,3.807,0,0,1,3.807,3.807" transform="translate(-3.58 -27.426)" fill="#ffc403"/>
      <path id="Trazado_715064" data-name="Trazado 715064" d="M31.613,92.807A3.807,3.807,0,1,1,27.807,89a3.807,3.807,0,0,1,3.807,3.807" transform="translate(-5.728 -21.221)" fill="#ffc403"/>
      <path id="Trazado_715065" data-name="Trazado 715065" d="M45.613,68.807A3.807,3.807,0,1,1,41.807,65a3.807,3.807,0,0,1,3.807,3.807" transform="translate(-9.069 -15.493)" fill="#ffc403"/>
      <path id="Trazado_715066" data-name="Trazado 715066" d="M65.613,45.807A3.807,3.807,0,1,1,61.807,42a3.807,3.807,0,0,1,3.807,3.807" transform="translate(-13.842 -10.004)" fill="#ffc403"/>
      <path id="Trazado_715067" data-name="Trazado 715067" d="M65.613,68.807A3.807,3.807,0,1,1,61.807,65a3.807,3.807,0,0,1,3.807,3.807" transform="translate(-13.842 -15.493)" fill="#ffc403"/>
      <path id="Trazado_715068" data-name="Trazado 715068" d="M54.613,55.807A3.807,3.807,0,1,1,50.807,52a3.807,3.807,0,0,1,3.807,3.807" transform="translate(-11.217 -12.39)" fill="#ffc403"/>
      <path id="Trazado_715069" data-name="Trazado 715069" d="M79.613,55.807A3.807,3.807,0,1,1,75.807,52a3.807,3.807,0,0,1,3.807,3.807" transform="translate(-17.184 -12.39)" fill="#ffc403"/>
      <path id="Trazado_715070" data-name="Trazado 715070" d="M79.613,70.807A3.807,3.807,0,1,1,75.807,67a3.807,3.807,0,0,1,3.807,3.807" transform="translate(-17.184 -15.97)" fill="#ffc403"/>
      <path id="Trazado_715071" data-name="Trazado 715071" d="M65.613,82.807A3.807,3.807,0,1,1,61.807,79a3.807,3.807,0,0,1,3.807,3.807" transform="translate(-13.842 -18.834)" fill="#ffc403"/>
      <path id="Trazado_715072" data-name="Trazado 715072" d="M55.613,103.807A3.807,3.807,0,1,1,51.807,100a3.807,3.807,0,0,1,3.807,3.807" transform="translate(-11.456 -23.846)" fill="#ffc403"/>
      <path id="Trazado_715073" data-name="Trazado 715073" d="M36.613,142.807A3.807,3.807,0,1,1,32.807,139a3.807,3.807,0,0,1,3.807,3.807" transform="translate(-6.921 -33.154)" fill="#ffc403"/>
      <path id="Trazado_715074" data-name="Trazado 715074" d="M44.613,124.807A3.807,3.807,0,1,1,40.807,121a3.807,3.807,0,0,1,3.807,3.807" transform="translate(-8.831 -28.858)" fill="#ffc403"/>
      <path id="Trazado_715075" data-name="Trazado 715075" d="M46.613,136.807A3.807,3.807,0,1,1,42.807,133a3.807,3.807,0,0,1,3.807,3.807" transform="translate(-9.308 -31.722)" fill="#ffc403"/>
      <path id="Trazado_715076" data-name="Trazado 715076" d="M16.613,133.807A3.807,3.807,0,1,1,12.807,130a3.807,3.807,0,0,1,3.807,3.807" transform="translate(-2.148 -31.006)" fill="#ffc403"/>
      <path id="Trazado_715077" data-name="Trazado 715077" d="M22.613,102.807A3.807,3.807,0,1,1,18.807,99a3.807,3.807,0,0,1,3.807,3.807" transform="translate(-3.58 -23.608)" fill="#ffc403"/>
      <path id="Trazado_715078" data-name="Trazado 715078" d="M36.613,78.807A3.807,3.807,0,1,1,32.807,75a3.807,3.807,0,0,1,3.807,3.807" transform="translate(-6.921 -17.88)" fill="#ffc403"/>
      <path id="Trazado_715079" data-name="Trazado 715079" d="M54.613,117.807A3.807,3.807,0,1,1,50.807,114a3.807,3.807,0,0,1,3.807,3.807" transform="translate(-11.217 -27.188)" fill="#ffc403"/>
      <path id="Trazado_715080" data-name="Trazado 715080" d="M66.613,56.807A3.807,3.807,0,1,1,62.807,53a3.807,3.807,0,0,1,3.807,3.807" transform="translate(-14.081 -12.629)" fill="#ffc403"/>
      <path id="Trazado_715081" data-name="Trazado 715081" d="M60.613,92.807A3.807,3.807,0,1,1,56.807,89a3.807,3.807,0,0,1,3.807,3.807" transform="translate(-12.649 -21.221)" fill="#ffc403"/>
      <path id="Trazado_715082" data-name="Trazado 715082" d="M84.613,32.807A3.807,3.807,0,1,1,80.807,29a3.807,3.807,0,0,1,3.807,3.807" transform="translate(-18.377 -6.901)" fill="#ffc403"/>
      <path id="Trazado_715083" data-name="Trazado 715083" d="M77.613,83.807A3.807,3.807,0,1,1,73.807,80a3.807,3.807,0,0,1,3.807,3.807" transform="translate(-16.706 -19.073)" fill="#ffc403"/>
      <path id="Trazado_715084" data-name="Trazado 715084" d="M55.613,73.807A3.807,3.807,0,1,1,51.807,70a3.807,3.807,0,0,1,3.807,3.807" transform="translate(-11.456 -16.686)" fill="#ffc403"/>
      <path id="Trazado_715085" data-name="Trazado 715085" d="M40.613,108.807A3.807,3.807,0,1,1,36.807,105a3.807,3.807,0,0,1,3.807,3.807" transform="translate(-7.876 -25.04)" fill="#ffc403"/>
      <path id="Trazado_715086" data-name="Trazado 715086" d="M31.613,130.807A3.807,3.807,0,1,1,27.807,127a3.807,3.807,0,0,1,3.807,3.807" transform="translate(-5.728 -30.29)" fill="#ffc403"/>
      <path id="Trazado_715087" data-name="Trazado 715087" d="M77.613,40.807A3.807,3.807,0,1,1,73.807,37a3.807,3.807,0,0,1,3.807,3.807" transform="translate(-16.706 -8.81)" fill="#ffc403"/>
      <path id="Trazado_715088" data-name="Trazado 715088" d="M49.613,87.807A3.807,3.807,0,1,1,45.807,84a3.807,3.807,0,0,1,3.807,3.807" transform="translate(-10.024 -20.028)" fill="#ffc403"/>
    </g>
  </g>
</svg>
