<svg xmlns="http://www.w3.org/2000/svg" xmlns:xlink="http://www.w3.org/1999/xlink" width="129" height="129" viewBox="0 0 129 129">
  <defs>
    <clipPath id="clip-path">
      <rect id="Rectángulo_353253" data-name="Rectángulo 353253" width="123.328" height="123.111" fill="none"/>
    </clipPath>
  </defs>
  <g id="Grupo_1003261" data-name="Grupo 1003261" transform="translate(-8896 6310)">
    <circle id="Elipse_5711" data-name="Elipse 5711" cx="64.5" cy="64.5" r="64.5" transform="translate(8896 -6310)" fill="#ffc403"/>
    <g id="Grupo_1003128" data-name="Grupo 1003128" transform="translate(8901.672 -6307.432)">
      <g id="Grupo_1003127" data-name="Grupo 1003127" clip-path="url(#clip-path)">
        <path id="Trazado_715452" data-name="Trazado 715452" d="M74.821,34.493c1.288-.343,1.592-1.2,1.575-2.478-.067-5.114-.053-10.229-.022-15.343a16.413,16.413,0,1,1,32.822,0c.033,5.114.047,10.229-.022,15.343-.017,1.281.3,2.13,1.576,2.477A28.625,28.625,0,0,1,119.9,45.612l1.533,5.7q.079,4.09.159,8.18.012,3.235.024,6.47c-.123,3.309.074,6.657-1.186,9.83-1.01.8-1.12,2.052-1.571,3.126-1.839,4.39-4.7,5.872-9.617,4.724v4.519q.029,3.2.059,6.394-.011,5.043-.022,10.087a17.779,17.779,0,0,0-.052,2.806c.23,1.725.645,3.161,2.93,3.456a5.99,5.99,0,0,1,5.231,6.5,6.094,6.094,0,0,1-6.145,5.673q-18.433.081-36.867,0a6.136,6.136,0,0,1-1.774-12.036c3.605-1.125,3.775-1.352,3.761-5.069,0-.426-.027-.852-.041-1.278q.008-3.329.014-6.657l-.052-9.823v-4.55a7.545,7.545,0,0,1-6.47-.623c-2.027-1.261-2.757-3.335-3.6-5.36-.259-.622-.536-1.235-.805-1.853-.732-2.08-1.627-4.123-1.454-6.408l.057-9.983q.058-4.063.115-8.127l1.537-5.7a28.664,28.664,0,0,1,9.155-11.112m30.274,41.47c0-9.658.049-19.316-.046-28.973-.017-1.722.628-1.937,2.069-1.9,1.328.038,2.187,0,2.134,1.834-.144,4.953-.063,9.913-.034,14.87,0,.741-.432,1.843,1.044,1.8,2.291-.069,4.966.579,6.742-.4,1.254-.693.288-3.634.391-5.568.059-1.108.043-2.223,0-3.333a20.03,20.03,0,0,0-8.844-16.234,6.159,6.159,0,0,0-3.811-1.155q-11.924.085-23.849,0a6.459,6.459,0,0,0-4.029,1.28C70.3,42.906,67.882,49.43,68.123,57.319c.2,6.568.04,6.518,6.622,6.321,1.429-.043,1.663-.534,1.648-1.79-.062-4.785.019-9.573-.05-14.358-.022-1.532-.012-2.46,2.06-2.448,2,.011,2.108.814,2.1,2.408q-.071,25.64-.023,51.279c0,2.551-.895,5.981.394,7.42,1.478,1.65,4.987.254,7.582.564,2.05.244,2.334-.612,2.315-2.419-.092-8.717.007-17.435-.083-26.152-.018-1.736.337-2.3,2.2-2.317,1.891-.013,1.986.792,1.977,2.265-.049,8.8.033,17.606-.071,26.408-.022,1.831.484,2.364,2.266,2.217a34.072,34.072,0,0,1,5.892,0c1.9.175,2.2-.588,2.183-2.3-.082-9.486-.04-18.973-.039-28.46M82.222,118.991h2.3c6.358,0,6.28,0,6.262-6.344,0-1.7-.592-1.963-2.053-1.891-2.211.11-4.434.107-6.644,0-1.564-.074-2.673.178-3.434,1.8a4.346,4.346,0,0,1-3.779,2.282c-1.451.118-2.635.571-2.543,2.192.1,1.793,1.5,2,2.988,1.971,2.3-.037,4.6-.01,6.9-.01m21.2,0c2.382,0,4.764-.021,7.145.008,1.45.017,2.625-.417,2.67-2.031.041-1.456-.987-1.992-2.356-2.1a4.879,4.879,0,0,1-4.28-2.783,2.137,2.137,0,0,0-2.418-1.306c-1.016.065-2.041.013-3.062.013-6.547,0-6.547,0-6.284,6.528a1.411,1.411,0,0,1,0,.255c-.162,1.125.337,1.472,1.44,1.441,2.38-.068,4.763-.021,7.145-.021M95.466,24.552c-1.354-2.49-.348-3.787,1.926-4.3,1.234-.276,1.586-.894,1.585-2.121,0-2.224-.092-4.313-2.466-5.423-2.019-.945-7.284-.473-8.6.75-1.6,1.486-1.258,3.421-1.287,5.281-.026,1.7,1.489,1.4,2.386,1.738,2.149.82,1.734,2.393,1.287,4.072Zm9.567-5.365c.316-9.306-4.754-15.277-12.625-15.078-6.579.166-13.177,6.032-11.772,15.049,1.421-.33,1.928-1.109,1.948-2.671a8.07,8.07,0,0,1,8.271-8.269q1.922-.047,3.847,0a8.074,8.074,0,0,1,8.283,8.259c.022,1.553.51,2.35,2.047,2.71m4.17,53.687c0,1.36,0,2.721,0,4.081a2.788,2.788,0,0,0,2.281,2.967,2.726,2.726,0,0,0,3.251-1.847,57.839,57.839,0,0,0,2.533-6.379c.959-3.177.257-3.993-3.009-3.993-5.06,0-5.06,0-5.057,5.171m-32.854.185c.021-5.359.021-5.359-5.365-5.356a9.591,9.591,0,0,1-1.274-.009c-1.213-.164-1.566.305-1.583,1.541-.05,3.569,1.826,6.471,3.164,9.545a2.308,2.308,0,0,0,2.86,1.135,2.7,2.7,0,0,0,2.178-2.522c.091-1.439.021-2.889.021-4.334M98.4,32.826c-1.291-1.567-.442-3.777-2.475-4.037a25.61,25.61,0,0,0-6.364.008c-1.688.211-1.556,2.1-1.758,3.248-.244,1.4,1.193.721,1.841.743,2.712.09,5.429.038,8.756.038m-15.524-.706c.2.018.51-.128.672-.62.74-2.259,1.476-4.519,2.254-6.765.284-.822-.157-1.015-.8-1.236-.745-.258-1.246-.326-1.535.629-.639,2.111-1.313,4.217-2.1,6.279-.511,1.347.439,1.372,1.5,1.713m18.412-8.833c-.981.334-1.963.331-1.449,1.689.781,2.062,1.455,4.168,2.1,6.279.285.943.764.871,1.529.653.885-.253,1.024-.66.732-1.482-.739-2.079-1.412-4.182-2.1-6.279-.167-.506-.308-1.007-.806-.86" transform="translate(-31.121 0)" fill="#020202"/>
        <path id="Trazado_715453" data-name="Trazado 715453" d="M156.235,38.7c-1.59-.025-1.933-.648-1.928-2.359.015-5.527,2.367-8.908,7.7-10.688,3.359-1.121,6.459-3.055,9.612-4.744a3.921,3.921,0,0,1,4.066-.082c4.762,2.475,9.572,4.859,14.394,7.217a3.58,3.58,0,0,1,2.219,3.1c1.234,9.648,2.579,19.282,3.9,28.919.3,2.169-.531,3.2-2.794,3.184-7.263-.044-14.526-.081-21.787.032-1.715.027-2.26-.539-2.1-2.1-.161-1.585.427-2.2,2.132-2.1,2.81.157,5.635,0,8.452.063,1.194.028,1.644-.239,1.52-1.568-.469-5.014-.745-10.046-1.231-15.057a6.61,6.61,0,0,0-6.6-5.946,6.723,6.723,0,0,0-6.8,6.029,13.343,13.343,0,0,0-.214,2.292c.083,1.7-.746,2.241-2.3,2.009-1.383-.018-2.339-.37-1.882-2.1a14.126,14.126,0,0,0,.263-2.289,10.867,10.867,0,0,1,21.67-.038c.438,4.935.813,9.876,1.153,14.819.092,1.329.482,2.076,1.972,1.843a5.852,5.852,0,0,1,1.791,0c1.918.3,2.492-.334,2.193-2.333-1-6.669-2.088-13.343-2.619-20.056-.311-3.924-1.917-6.078-5.509-7.434-3.332-1.258-6.4-4.167-9.686-4.326-3.41-.166-6.494,3.071-9.911,4.338-3.583,1.329-5.678,3.439-5.427,7.425.1,1.629-.639,2.3-2.257,1.955" transform="translate(-75.11 -9.88)" fill="#070605"/>
        <path id="Trazado_715454" data-name="Trazado 715454" d="M31,61.124c.156,1.562-.389,2.127-2.1,2.1-7.175-.113-14.353-.035-21.53-.054-2.717-.008-3.368-.769-3.01-3.414C5.646,50.2,6.988,40.654,8.213,31.09A3.565,3.565,0,0,1,10.438,28c4.9-2.39,9.768-4.845,14.624-7.322a3.383,3.383,0,0,1,3.375-.067Q35.831,24.4,43.29,28.061a3.22,3.22,0,0,1,2.084,2.909,32.664,32.664,0,0,0,.775,5.313c.417,1.748-.284,2.34-1.872,2.367-1.292.151-2.354.111-2.247-1.706.054-.918-.328-1.855-.346-2.786a3.485,3.485,0,0,0-2.338-3.508c-3.73-1.677-7.353-3.595-11-5.459a2.759,2.759,0,0,0-2.859-.1c-3.928,2.054-7.913,4-11.9,5.933a2.488,2.488,0,0,0-1.549,2.122C11,41.185,9.923,49.223,8.87,57.265c-.066.5-.2,1.4-.029,1.471,1.62.686,3.352.286,5.037.283,1.16,0,.84-1.137.9-1.785.444-5.021.754-10.053,1.226-15.07a10.79,10.79,0,0,1,13.721-9.335c5.1,1.434,7.534,5.1,8.218,11.915.175,1.744-.529,2.079-1.912,2.1-1.554.232-2.384-.309-2.3-2.009a13.452,13.452,0,0,0-.214-2.292,6.725,6.725,0,0,0-6.8-6.029,6.608,6.608,0,0,0-6.595,5.946c-.487,5.012-.762,10.044-1.232,15.058-.125,1.331.328,1.594,1.52,1.567,2.817-.065,5.643.093,8.453-.064,1.7-.094,2.292.518,2.132,2.1" transform="translate(-2.074 -9.83)" fill="#070605"/>
        <path id="Trazado_715455" data-name="Trazado 715455" d="M200.164,184.059c.324,4.285.324,4.285-3.787,4.285-11.7,0-23.4-.041-35.105.046-1.7.012-2.272-.515-2.1-2.09-.479-1.081,1.368-2.166.219-3.061-1.549-1.208-1.222-2.256-.218-3.482,1.787-1.215,2.892.032,3.749,1.248,2.384,3.385,5.592,3.771,9.645,2.935-3.966-3.943-7.658-7.681-11.442-11.324-.862-.83-2.317-1.136-1.917-2.793-.285-1.723.544-2.037,2.124-2.028,12.046.064,24.094.1,36.139-.024,2.323-.025,3.246.564,2.825,2.88a11.282,11.282,0,0,0-.09,1.274h-9.6c2.965,2.872,5.357,5.209,7.775,7.521.8.763,1.528,1.467.174,2.359l-.244.5a.383.383,0,0,1,0,.259c-1.311.873-2.249.415-3.263-.659-2.394-2.535-5.148-4.765-7.315-7.473-2.458-3.072-5.422-2.627-9-2.3,3.969,3.97,7.636,7.625,11.283,11.3a2.626,2.626,0,0,0,2.05.819c2.636-.056,5.273-.078,7.909-.113Zm-33.738-11.878c3.377,3.358,6.751,6.272,9.574,9.648,2.538,3.036,5.459,2.511,9.032,2.2-3.17-3.119-6.292-5.7-8.794-8.787-2.605-3.212-5.668-3.847-9.812-3.061" transform="translate(-77.063 -81.662)" fill="#010000"/>
        <path id="Trazado_715456" data-name="Trazado 715456" d="M41.189,186.366c.286,1.726-.549,2.034-2.126,2.026-12.045-.064-24.091-.1-36.135.024-2.316.024-3.252-.555-2.827-2.877a11.146,11.146,0,0,0,.089-1.273H9.612c-2.712-2.69-4.866-5.044-7.26-7.119C.89,175.879.973,174.882,2.1,173.619a2.183,2.183,0,0,1,3.1.5c2.312,2.515,5.06,4.664,7.154,7.335,2.469,3.149,5.515,3.029,9.216,2.622-3.993-4.026-7.759-7.822-11.522-11.619a2.4,2.4,0,0,0-1.916-.513q-3.844.047-7.688.1l-.218.063c-.311-4.264-.311-4.264,3.809-4.264,11.7,0,23.395.042,35.092-.046,1.705-.013,2.262.527,2.1,2.093-.147,1.468-1.185,3.012.765,4.22.8.492-.075,1.112-.53,1.554l-.242.5.01.25c-1.778,1.247-2.886.006-3.747-1.213-2.384-3.377-5.586-3.8-9.566-2.953,3.975,3.976,7.687,7.817,11.572,11.475.859.809,2,1.193,1.7,2.65m-7.179-2.386c-3.471-3.431-6.927-6.392-9.811-9.833-2.526-3.015-5.4-2.073-8.949-2.137,3.379,3.336,6.546,5.992,9.118,9.134s5.594,3.624,9.642,2.836" transform="translate(0 -81.675)" fill="#010000"/>
        <path id="Trazado_715457" data-name="Trazado 715457" d="M40.293,51.147c1.383-.018,2.087-.353,1.912-2.1-.684-6.817-3.114-10.481-8.218-11.915a10.79,10.79,0,0,0-13.721,9.335c-.472,5.017-.782,10.049-1.226,15.069-.057.649.263,1.783-.9,1.786-1.685,0-3.417.4-5.037-.283-.169-.072-.036-.968.029-1.472,1.053-8.041,2.127-16.079,3.168-24.122a2.486,2.486,0,0,1,1.548-2.121c3.992-1.929,7.976-3.879,11.905-5.934a2.76,2.76,0,0,1,2.858.1c3.644,1.864,7.266,3.783,11,5.46a3.484,3.484,0,0,1,2.338,3.508c.018.932.4,1.868.346,2.786-.107,1.817.955,1.857,2.247,1.706.748,1.825-.286,4.12,1.5,5.671a28.669,28.669,0,0,0-9.156,11.114q-.3-4.3-.59-8.594" transform="translate(-6.339 -14.135)" fill="#ecdb9a"/>
        <path id="Trazado_715458" data-name="Trazado 715458" d="M156.645,43.135c1.618.347,2.359-.326,2.257-1.955-.251-3.986,1.844-6.1,5.427-7.425,3.417-1.267,6.5-4.5,9.911-4.338,3.284.16,6.354,3.068,9.686,4.326,3.592,1.357,5.2,3.51,5.509,7.434.531,6.713,1.619,13.387,2.619,20.056.3,2-.274,2.636-2.193,2.333a5.852,5.852,0,0,0-1.791,0c-1.49.232-1.88-.514-1.972-1.843-.34-4.943-.715-9.884-1.153-14.819a10.867,10.867,0,0,0-21.67.038,14.133,14.133,0,0,1-.263,2.289c-.458,1.726.5,2.078,1.881,2.1q-.3,4.3-.592,8.6A28.626,28.626,0,0,0,155.148,48.8c1.775-1.553.758-3.843,1.5-5.67" transform="translate(-75.519 -14.315)" fill="#ecdb9a"/>
        <path id="Trazado_715459" data-name="Trazado 715459" d="M.322,116.152c-.312-4.264-.312-4.264,3.792-4.264,7.582,0,15.165.045,22.746-.037,1.588-.017,2.393.323,2.114,2.03.028,1.436-1.176,2.993.692,4.249.751.505-.322,1.313-.358,2.023-1.543,1.422-2.749.911-3.826-.628-2.4-3.429-5.617-4.378-9.765-3.172,3.769,3.75,7.4,7.343,11,10.973a2.4,2.4,0,0,0,2.206.976c1.685-.306,2.3.465,2.137,2.057.153,1.544-.371,2.114-2.083,2.092-8.323-.106-16.649-.048-24.973-.048-3.928,0-3.928,0-3.719-4.091H9.71c-2.712-2.69-4.866-5.044-7.26-7.119-1.462-1.267-1.378-2.264-.252-3.528a2.183,2.183,0,0,1,3.1.5c2.312,2.514,5.06,4.664,7.154,7.335,2.469,3.15,5.515,3.029,9.217,2.622-3.994-4.026-7.759-7.822-11.522-11.62a2.4,2.4,0,0,0-1.917-.513q-3.844.047-7.688.1Z" transform="translate(-0.098 -54.444)" fill="#010000"/>
        <path id="Trazado_715460" data-name="Trazado 715460" d="M210.649,128.107c.324,4.285.324,4.285-3.772,4.285-8.27,0-16.54-.041-24.809.036-1.583.015-2.4-.312-2.119-2.027-.533-2.373,1.475-2.019,3.133-2.337-1.853-1.441-2.581-2.746-.653-4.194,1.3-1.772,2.109-.2,2.7.576,2.552,3.323,5.675,4.847,10.115,3.5-3.905-3.9-7.655-7.8-11.628-11.468-.863-.8-1.856-1.19-1.655-2.553-.147-1.537.363-2.121,2.082-2.1,7.642.112,15.286.049,22.93.049,3.924,0,3.924,0,3.714,4.094h-9.6c2.964,2.871,5.357,5.209,7.775,7.52.8.763,1.528,1.467.174,2.36l-.244.5a.384.384,0,0,1,0,.259c-1.311.872-2.249.414-3.263-.66-2.394-2.535-5.148-4.765-7.315-7.473-2.458-3.072-5.422-2.627-9-2.3,3.969,3.97,7.636,7.625,11.284,11.3a2.625,2.625,0,0,0,2.05.819c2.636-.056,5.273-.077,7.909-.112Z" transform="translate(-87.548 -54.433)" fill="#010000"/>
        <path id="Trazado_715461" data-name="Trazado 715461" d="M49.884,62.317q.295,4.3.59,8.594-.768,2.851-1.536,5.7L44.85,76.6c.161-1.586-.427-2.2-2.132-2.1-2.81.157-5.635,0-8.453.063-1.192.027-1.645-.236-1.52-1.567.47-5.014.745-10.046,1.232-15.058a6.607,6.607,0,0,1,6.595-5.946,6.724,6.724,0,0,1,6.8,6.029,13.4,13.4,0,0,1,.214,2.292c-.083,1.7.747,2.241,2.3,2.009" transform="translate(-15.93 -25.304)" fill="#efbf33"/>
        <path id="Trazado_715462" data-name="Trazado 715462" d="M172.982,70.916q.3-4.3.592-8.6c1.554.232,2.383-.309,2.3-2.009a13.408,13.408,0,0,1,.215-2.292,6.722,6.722,0,0,1,6.8-6.029,6.609,6.609,0,0,1,6.6,5.946c.487,5.011.762,10.043,1.232,15.057.124,1.329-.325,1.6-1.52,1.568-2.817-.066-5.643.094-8.452-.063-1.7-.095-2.292.519-2.132,2.1l-4.093.015-1.533-5.7" transform="translate(-84.2 -25.304)" fill="#efbf33"/>
        <path id="Trazado_715463" data-name="Trazado 715463" d="M45.778,134.155c.161-1.592-.451-2.362-2.137-2.057a2.4,2.4,0,0,1-2.206-.976c-3.6-3.63-7.233-7.222-11-10.973,4.148-1.205,7.366-.257,9.764,3.172,1.077,1.539,2.282,2.051,3.827.629a18.211,18.211,0,0,0,3.625,3.708c-.174,2.285.721,4.328,1.454,6.408l-3.325.089" transform="translate(-14.813 -58.24)" fill="#e9bb32"/>
        <path id="Trazado_715464" data-name="Trazado 715464" d="M180.218,115.911c-.2,1.363.792,1.756,1.655,2.553,3.973,3.666,7.722,7.573,11.628,11.468-4.44,1.348-7.563-.176-10.115-3.5-.592-.772-1.4-2.349-2.7-.578-2.006-.471-2.688-2.613-4.384-3.476q-.012-3.236-.024-6.47l3.94,0" transform="translate(-85.804 -56.419)" fill="#ecbd32"/>
        <path id="Trazado_715465" data-name="Trazado 715465" d="M67.665,190.227c.3-1.457-.84-1.841-1.7-2.649-3.885-3.658-7.6-7.5-11.572-11.475,3.98-.845,7.182-.424,9.566,2.953.86,1.219,1.968,2.46,3.747,1.215,1.568.812,2.278,2.661,3.988,3.3q-.007,3.328-.014,6.657l-4.017,0" transform="translate(-26.477 -85.536)" fill="#304051"/>
        <path id="Trazado_715466" data-name="Trazado 715466" d="M156.232,171.767c-.4,1.657,1.055,1.963,1.917,2.793,3.784,3.643,7.475,7.382,11.442,11.324-4.053.836-7.261.451-9.645-2.935-.856-1.216-1.961-2.463-3.749-1.249l-3.923-3.541q-.03-3.2-.06-6.394l4.018,0" transform="translate(-74.091 -83.608)" fill="#2d3d51"/>
        <path id="Trazado_715467" data-name="Trazado 715467" d="M2.277,121.686c-1.126,1.263-1.209,2.261.253,3.528,2.395,2.076,4.548,4.429,7.26,7.119H.367q.017-6.081.034-12.162l.219-.061a3.9,3.9,0,0,0,1.657,1.576" transform="translate(-0.179 -58.464)" fill="#e9bb32"/>
        <path id="Trazado_715468" data-name="Trazado 715468" d="M228.923,130.538a.384.384,0,0,0,0-.259l.244-.5c1.354-.893.624-1.6-.174-2.359-2.418-2.311-4.811-4.649-7.775-7.521h9.6q-.018,6.07-.038,12.138l-.193.078a3.872,3.872,0,0,0-1.663-1.578" transform="translate(-107.678 -58.362)" fill="#ecbd32"/>
        <path id="Trazado_715469" data-name="Trazado 715469" d="M2.277,177.648c-1.126,1.263-1.209,2.261.253,3.528,2.394,2.076,4.548,4.429,7.26,7.119H.367q.017-6.081.034-12.162l.219-.061a3.9,3.9,0,0,0,1.657,1.576" transform="translate(-0.179 -85.704)" fill="#e9bb32"/>
        <path id="Trazado_715470" data-name="Trazado 715470" d="M228.923,186.5a.384.384,0,0,0,0-.259l.244-.5c1.354-.893.624-1.6-.174-2.359-2.418-2.311-4.811-4.649-7.775-7.521h9.6q-.018,6.07-.038,12.138l-.193.077a3.871,3.871,0,0,0-1.663-1.578" transform="translate(-107.678 -85.602)" fill="#ecbd32"/>
        <path id="Trazado_715471" data-name="Trazado 715471" d="M152.309,184.223l3.923,3.541c-1,1.227-1.331,2.276.218,3.483,1.149.9-.7,1.98-.219,3.062h-3.944q.012-5.043.023-10.087" transform="translate(-74.126 -89.672)" fill="#e9bb32"/>
        <path id="Trazado_715472" data-name="Trazado 715472" d="M83.931,181.694c-1.711-.639-2.419-2.488-3.988-3.3l-.011-.252.242-.5c.455-.442,1.325-1.061.53-1.554-1.95-1.209-.912-2.752-.766-4.22h3.941l.052,9.823" transform="translate(-38.713 -83.659)" fill="#ecbd32"/>
        <path id="Trazado_715473" data-name="Trazado 715473" d="M175.2,128.515c1.7.862,2.378,3.005,4.384,3.476-1.929,1.449-1.2,2.755.651,4.2-1.658.319-3.666-.036-3.133,2.337l-3.088-.18c1.26-3.172,1.062-6.52,1.186-9.829" transform="translate(-84.702 -62.555)" fill="#304051"/>
        <path id="Trazado_715474" data-name="Trazado 715474" d="M59.885,125.787a18.225,18.225,0,0,1-3.625-3.708c.034-.71,1.108-1.519.357-2.024-1.868-1.256-.664-2.813-.692-4.249l4.018,0q-.028,4.992-.057,9.983" transform="translate(-27.048 -56.368)" fill="#2d3d51"/>
        <path id="Trazado_715475" data-name="Trazado 715475" d="M109.051,110.958c0,9.487-.044,18.974.039,28.46.015,1.708-.283,2.471-2.183,2.3a34.065,34.065,0,0,0-5.892,0c-1.783.147-2.288-.386-2.266-2.217.1-8.8.022-17.606.071-26.408.009-1.474-.086-2.278-1.977-2.265-1.861.012-2.216.581-2.2,2.317.091,8.717-.009,17.435.083,26.152.019,1.807-.265,2.663-2.314,2.419-2.595-.309-6.1,1.087-7.582-.564-1.289-1.439-.392-4.869-.394-7.42q-.018-25.64.023-51.279c.005-1.594-.1-2.4-2.1-2.408-2.071-.012-2.082.916-2.06,2.448.069,4.785-.011,9.573.05,14.358.017,1.255-.217,1.747-1.647,1.79-6.582.2-6.421.247-6.622-6.321-.241-7.889,2.18-14.413,8.735-19.139a6.456,6.456,0,0,1,4.029-1.28q11.923.1,23.848,0a6.158,6.158,0,0,1,3.811,1.155,20.032,20.032,0,0,1,8.844,16.234c.047,1.109.063,2.224,0,3.332-.1,1.934.863,4.875-.39,5.568-1.777.983-4.452.335-6.742.4-1.477.044-1.04-1.058-1.045-1.8-.029-4.957-.109-9.917.034-14.87.053-1.831-.805-1.8-2.134-1.834-1.442-.042-2.086.173-2.069,1.9.094,9.657.046,19.315.046,28.973" transform="translate(-35.077 -34.995)" fill="#8dcfea"/>
        <path id="Trazado_715476" data-name="Trazado 715476" d="M90.179,224.021c-2.3,0-4.6-.028-6.9.01-1.483.025-2.886-.178-2.988-1.971-.092-1.62,1.092-2.074,2.543-2.191a4.347,4.347,0,0,0,3.779-2.282c.761-1.62,1.87-1.872,3.434-1.8,2.211.1,4.434.108,6.644,0,1.461-.072,2.048.2,2.053,1.891.018,6.344.1,6.344-6.262,6.344h-2.3" transform="translate(-39.078 -105.03)" fill="#c5d5e1"/>
        <path id="Trazado_715477" data-name="Trazado 715477" d="M132.655,224.034c-2.382,0-4.765-.047-7.145.021-1.1.031-1.6-.317-1.44-1.441a1.46,1.46,0,0,0,0-.255c-.263-6.527-.263-6.527,6.284-6.527,1.02,0,2.045.051,3.062-.014a2.138,2.138,0,0,1,2.418,1.306,4.88,4.88,0,0,0,4.28,2.783c1.369.112,2.4.649,2.357,2.1-.045,1.614-1.22,2.048-2.67,2.031-2.381-.028-4.763-.008-7.145-.008" transform="translate(-60.353 -105.045)" fill="#a8b4be"/>
        <path id="Trazado_715478" data-name="Trazado 715478" d="M116.976,36.132H111.81c.447-1.678.862-3.252-1.287-4.072-.9-.342-2.412-.04-2.386-1.738.029-1.859-.309-3.794,1.287-5.281,1.313-1.223,6.579-1.695,8.6-.75,2.373,1.11,2.464,3.2,2.466,5.423,0,1.228-.352,1.846-1.585,2.121-2.275.509-3.28,1.806-1.926,4.3" transform="translate(-52.631 -11.581)" fill="#c4d3df"/>
        <path id="Trazado_715479" data-name="Trazado 715479" d="M120.69,23.078c-1.537-.36-2.025-1.157-2.047-2.71a8.075,8.075,0,0,0-8.283-8.259q-1.922-.046-3.847,0a8.069,8.069,0,0,0-8.271,8.269c-.021,1.562-.527,2.342-1.95,2.67-1.4-9.016,5.2-14.882,11.774-15.048,7.871-.2,12.941,5.771,12.625,15.078" transform="translate(-46.777 -3.892)" fill="#89c9e3"/>
        <path id="Trazado_715480" data-name="Trazado 715480" d="M152.132,137.081c0-5.172,0-5.172,5.059-5.171,3.265,0,3.967.816,3.009,3.993a58.04,58.04,0,0,1-2.533,6.379,2.726,2.726,0,0,1-3.251,1.847,2.787,2.787,0,0,1-2.28-2.967c0-1.36,0-2.721,0-4.081" transform="translate(-74.051 -64.208)" fill="#c5d5e1"/>
        <path id="Trazado_715481" data-name="Trazado 715481" d="M80.323,137.228c0,1.445.071,2.895-.021,4.334a2.7,2.7,0,0,1-2.178,2.522,2.308,2.308,0,0,1-2.86-1.135c-1.338-3.074-3.214-5.975-3.164-9.545.017-1.235.371-1.7,1.583-1.541a9.594,9.594,0,0,0,1.274.009c5.385,0,5.385,0,5.365,5.356" transform="translate(-35.095 -64.17)" fill="#c5d5e1"/>
        <path id="Trazado_715482" data-name="Trazado 715482" d="M121.006,59.944c-3.326,0-6.043.052-8.755-.037-.648-.022-2.086.656-1.842-.743.2-1.153.07-3.036,1.758-3.248a25.635,25.635,0,0,1,6.364-.008c2.033.26,1.185,2.47,2.475,4.036" transform="translate(-53.729 -27.119)" fill="#efbf33"/>
        <path id="Trazado_715483" data-name="Trazado 715483" d="M99.276,54.247c-1.062-.341-2.012-.366-1.5-1.713.783-2.062,1.456-4.168,2.1-6.279.289-.956.79-.887,1.535-.629.639.221,1.08.414.8,1.236-.778,2.246-1.514,4.506-2.254,6.765-.162.492-.477.638-.672.62" transform="translate(-47.523 -22.128)" fill="#2d3d51"/>
        <path id="Trazado_715484" data-name="Trazado 715484" d="M135.2,45.345c.5-.147.639.354.806.86.689,2.1,1.363,4.2,2.1,6.279.293.823.153,1.229-.732,1.482-.765.218-1.244.29-1.529-.653-.64-2.111-1.314-4.217-2.1-6.279-.514-1.358.468-1.355,1.449-1.689" transform="translate(-65.036 -22.059)" fill="#2d3d51"/>
        <path id="Trazado_715485" data-name="Trazado 715485" d="M217.665,186.476a3.871,3.871,0,0,1,1.663,1.578c-2.636.035-5.272.056-7.908.113a2.627,2.627,0,0,1-2.05-.819c-3.648-3.674-7.314-7.329-11.284-11.3,3.579-.332,6.543-.777,9,2.3,2.166,2.707,4.92,4.937,7.315,7.472,1.014,1.074,1.952,1.532,3.263.66" transform="translate(-96.419 -85.578)" fill="#2f3e50"/>
        <path id="Trazado_715486" data-name="Trazado 715486" d="M174.113,176.077c4.143-.786,7.206-.151,9.812,3.062,2.5,3.086,5.624,5.668,8.794,8.787-3.573.311-6.494.836-9.032-2.2-2.822-3.376-6.2-6.291-9.574-9.648" transform="translate(-84.75 -85.558)" fill="#e9bb32"/>
        <path id="Trazado_715487" data-name="Trazado 715487" d="M236.472,195.112l-.244.5.244-.5" transform="translate(-114.985 -94.972)" fill="#2f3e50"/>
        <path id="Trazado_715488" data-name="Trazado 715488" d="M2.518,177.55a3.9,3.9,0,0,1-1.657-1.576q3.843-.051,7.688-.1a2.394,2.394,0,0,1,1.916.513c3.763,3.8,7.529,7.593,11.522,11.619-3.7.407-6.748.528-9.217-2.622-2.094-2.671-4.841-4.82-7.154-7.335a2.183,2.183,0,0,0-3.1-.5" transform="translate(-0.419 -85.606)" fill="#2d3d51"/>
        <path id="Trazado_715489" data-name="Trazado 715489" d="M48.472,187.892c-4.048.788-7.064.315-9.642-2.836s-5.739-5.8-9.118-9.134c3.544.064,6.423-.879,8.949,2.137,2.883,3.441,6.34,6.4,9.811,9.833" transform="translate(-14.462 -85.586)" fill="#e9bb32"/>
        <path id="Trazado_715490" data-name="Trazado 715490" d="M80.554,183.124q-.122.247-.242.5l.242-.5" transform="translate(-39.092 -89.137)" fill="#304051"/>
        <path id="Trazado_715491" data-name="Trazado 715491" d="M2.518,121.588a3.9,3.9,0,0,1-1.657-1.576q3.843-.051,7.688-.1a2.394,2.394,0,0,1,1.916.513c3.763,3.8,7.529,7.593,11.522,11.619-3.7.407-6.748.528-9.217-2.622-2.094-2.671-4.841-4.82-7.154-7.335a2.183,2.183,0,0,0-3.1-.5" transform="translate(-0.419 -58.366)" fill="#2d3d51"/>
        <path id="Trazado_715492" data-name="Trazado 715492" d="M217.665,130.514a3.872,3.872,0,0,1,1.663,1.578c-2.636.035-5.272.056-7.908.113a2.63,2.63,0,0,1-2.05-.819c-3.648-3.675-7.314-7.329-11.284-11.3,3.579-.333,6.543-.777,9,2.3,2.166,2.706,4.92,4.936,7.315,7.472,1.014,1.074,1.952,1.532,3.263.66" transform="translate(-96.419 -58.339)" fill="#2f3e50"/>
        <path id="Trazado_715493" data-name="Trazado 715493" d="M236.472,139.151l-.244.5.244-.5" transform="translate(-114.985 -67.733)" fill="#2f3e50"/>
      </g>
    </g>
  </g>
</svg>
