<svg xmlns="http://www.w3.org/2000/svg" xmlns:xlink="http://www.w3.org/1999/xlink" width="129" height="129" viewBox="0 0 129 129">
  <defs>
    <clipPath id="clip-path">
      <rect id="Rectángulo_353257" data-name="Rectángulo 353257" width="127.865" height="117.952" fill="none"/>
    </clipPath>
  </defs>
  <g id="Grupo_1003264" data-name="Grupo 1003264" transform="translate(-388 -675)">
    <circle id="Elipse_5694" data-name="Elipse 5694" cx="64.5" cy="64.5" r="64.5" transform="translate(388 675)" fill="#b20d0d"/>
    <g id="Grupo_1003134" data-name="Grupo 1003134" transform="translate(389.135 680.523)">
      <g id="Grupo_1003133" data-name="Grupo 1003133" clip-path="url(#clip-path)">
        <path id="Trazado_715519" data-name="Trazado 715519" d="M10.934,105.3l0-3.33c1.905-.485,1.646-2.02,1.646-3.417,0-16.139.038-32.278-.044-48.415-.01-1.969.51-2.48,2.475-2.473,21.8.071,43.591.043,65.387.05,1.161,0,2.322.072,3.483.11,0,4.656.021,9.312,0,13.968-.006.948.338,2.047-.785,2.69-1.19-1.79-2.915-2.188-4.965-2.183q-27.943.063-55.886.027c-4,0-5.4,1.381-5.4,5.368q-.016,19.461,0,38.921c0,4.033,1.358,5.426,5.359,5.429,18.628.014,37.257-.011,55.886.03,2.15,0,3.913-.513,5.147-2.355,1.369,1.627.259,3.613.778,5.363a12.632,12.632,0,0,0-7.8,7.85,5.525,5.525,0,0,1-5.549,3.85,9.237,9.237,0,0,0-5.332,1.837,9.438,9.438,0,0,0-3.808,6.237c-.471,2.752-1.891,3.25-4.446,3.215-10.735-.147-21.473-.045-32.21-.068-7.762-.017-12.246-4.49-12.278-12.225-.024-5.826-.035-11.652.016-17.478.012-1.388-.291-2.453-1.665-3" transform="translate(-5.465 -23.837)" fill="#f3eeee"/>
        <path id="Trazado_715520" data-name="Trazado 715520" d="M78.41,23.991c-1.161-.038-2.322-.11-3.483-.11-21.8-.007-43.592.021-65.387-.05-1.964-.006-2.484.5-2.474,2.473.081,16.138.046,32.277.043,48.416,0,1.4.259,2.932-1.646,3.417-2.139-.2-2.05-1.735-2.048-3.3.014-16.144,0-32.288.028-48.432,0-1.5.074-2.731-2.008-2.707A1.546,1.546,0,0,1,0,21.951c.023-1.068.709-1.9,1.675-1.813,2.066.18,1.762-1.1,1.754-2.342-.017-2.746-.06-5.494.018-8.238A9.721,9.721,0,0,1,12.575.076C15.9-.083,19.231.063,22.559.016a2.227,2.227,0,0,1,2.465,1.943c-.412,1.622-1.641,1.924-3.075,1.92-2.577-.007-5.154-.013-7.731,0-4.709.029-7.01,2.267-7.132,7-.06,2.326.094,4.661-.047,6.98-.108,1.786.56,2.238,2.268,2.218,7.231-.083,14.464-.027,21.7-.037q23.689-.031,47.379-.078c.83.021,1.661.022,2.49.069,1.047.059,1.5-.382,1.489-1.454-.039-2.908.125-5.827-.069-8.723A5.848,5.848,0,0,0,76.4,4.06c-1.074-.06-2.147-.173-3.221-.173q-20.519-.018-41.038-.012c-1.576,0-3.268.177-3.779-1.929C28.633.426,29.616.009,31.059.012c15.136.029,30.272-.03,45.407.052a9.6,9.6,0,0,1,9.492,9.346c.111,2.907.078,5.821.022,8.731-.024,1.226.037,2.063,1.646,1.971a1.673,1.673,0,0,1,1.783,1.714,1.692,1.692,0,0,1-1.779,1.965c-1.559-.011-1.652.768-1.65,2.011q.045,31.436-.021,62.872c-.008,2.4,1.022,2.176,2.54,1.519a6.431,6.431,0,0,0,2.948-2.917c2.21-3.8,5.568-5.447,9.562-4.8,3.644.593,6.344,3.468,7.182,7.652.081.407.129.82.183,1.232.8,6.14,1.048,6.416,6.961,7.834,1.67.4,3.377.769,2.936,3.143-1.97,2.117-4.089.347-6.049.073-3.623-.5-5.921-2.85-6.845-6.378a54.534,54.534,0,0,1-.948-5.392,4.938,4.938,0,0,0-3.619-4.3,4.508,4.508,0,0,0-5.128,1.52c-1.822,2.8-3.664,5.551-7.257,6.352a27.715,27.715,0,0,1-5.709.252c-3.991.062-6.859,1.81-8.282,5.583-1.539,4.08-4.4,6.37-8.741,6.64-3.3.2-5,1.981-5.994,5.016-.687,2.1-.178,2.493,1.871,2.485,15.871-.064,31.743-.028,47.615-.041,3.071,0,6.141-.079,9.212-.122,5.1.4,5.1.4,3.331-4.312a14.831,14.831,0,0,0-1-2.254,2.519,2.519,0,0,1,.186-2.985,2.36,2.36,0,0,1,3.355,1.586c1.195,3.092,2.409,6.181,3.455,9.325.489,1.469-.314,2.393-1.869,2.537-.577.053-1.164.013-1.746.013q-52.4,0-104.807,0c-9.684,0-15.86-6.185-15.875-15.887-.008-5.906.036-11.812-.027-17.717-.017-1.576.483-2.557,2.07-2.867,1.374.547,1.677,1.612,1.665,3-.051,5.826-.04,11.652-.016,17.478.032,7.734,4.515,12.208,12.278,12.225,10.737.022,21.475-.079,32.21.068,2.555.035,3.975-.463,4.446-3.215a9.438,9.438,0,0,1,3.809-6.237,9.235,9.235,0,0,1,5.332-1.837A5.525,5.525,0,0,0,70.74,99.1a12.632,12.632,0,0,1,7.8-7.85c3.8-.736,3.8-.736,3.8-4.7,0-20.1-.033-40.2.05-60.307.008-2.028-.611-2.682-2.5-2.387-.488.076-.986.093-1.479.137" transform="translate(0 0)" fill="#060606"/>
        <path id="Trazado_715521" data-name="Trazado 715521" d="M35.389,3.892C35.9,6,37.593,5.82,39.168,5.821q20.519.009,41.038.011c1.073,0,2.147.113,3.221.173a14.482,14.482,0,0,1,2.051,8.716c-.18,2.384-.053,4.79-.062,7.187q-23.689.04-47.379.079c-7.232.009-14.465-.046-21.7.036-1.708.019-2.376-.431-2.268-2.218.141-2.319-.013-4.654.047-6.98.122-4.731,2.423-6.969,7.132-7,2.577-.016,5.154-.01,7.731,0,1.434,0,2.662-.3,3.075-1.92l3.332-.014m16.243,11.07q-14.344,0-28.688-.01c-1.369,0-2.688.22-2.74,1.817-.05,1.558,1.2,2.025,2.588,2.046.415.006.831,0,1.247,0q27.69,0,55.381,0a14.42,14.42,0,0,0,1.99-.07A1.91,1.91,0,0,0,83.3,16.793a1.832,1.832,0,0,0-1.982-1.817c-.58-.03-1.163-.014-1.745-.014H51.632m.346-6.042q-14.1,0-28.208,0a17.766,17.766,0,0,0-1.993.068,1.564,1.564,0,0,0-1.441,1.733,1.555,1.555,0,0,0,1.421,1.745,14.47,14.47,0,0,0,1.743.065q28.208,0,56.415,0a10.776,10.776,0,0,0,1.988-.1,1.65,1.65,0,0,0,1.378-1.572,1.643,1.643,0,0,0-1.361-1.823,10.511,10.511,0,0,0-2.235-.116q-13.854-.009-27.708,0" transform="translate(-7.032 -1.946)" fill="#5e747d"/>
        <path id="Trazado_715522" data-name="Trazado 715522" d="M191.385,173.971a4.509,4.509,0,0,1,5.128-1.52,4.937,4.937,0,0,1,3.619,4.3,54.324,54.324,0,0,0,.948,5.392c.924,3.528,3.222,5.873,6.845,6.378,1.96.273,4.079,2.043,6.049-.074a9.246,9.246,0,0,1,2.643,2.134,2.517,2.517,0,0,0-.186,2.984,14.863,14.863,0,0,1,1,2.254c1.773,4.709,1.768,4.712-3.331,4.312-.374-5.075-4.835-9.456-10.361-10.062a6.852,6.852,0,0,1-5.437-3.448,11.307,11.307,0,0,1-1.195-4.748c-.666-5.2-2.029-7.13-5.722-7.906" transform="translate(-95.705 -86.109)" fill="#e2a22e"/>
        <path id="Trazado_715523" data-name="Trazado 715523" d="M89.126,124.36c-1.233,1.842-3,2.36-5.147,2.355-18.629-.041-37.258-.015-55.887-.03-4,0-5.356-1.4-5.359-5.429q-.013-19.461,0-38.921c0-3.987,1.4-5.367,5.4-5.368q27.943-.008,55.886-.027c2.05-.005,3.775.393,4.965,2.183a21.01,21.01,0,0,1,.41,2.937q.042,19.791.007,39.583a26.315,26.315,0,0,1-.276,2.717m-42.355-1.494H50.5c-1.067-1.943-2-3.682-2.97-5.4a4.072,4.072,0,0,0-4.789-2.211c-3.56-.047-7.119-.121-10.679-.135-6.015-.022-5.972-.008-5.686,6.15.061,1.314.481,1.695,1.752,1.68,6.215-.07,12.432-.065,18.648-.087M82.229,80.836a2.106,2.106,0,0,0-.482-.118q-26.69-.019-53.38-.048c-1.491,0-2.007.485-2,2.023q.1,13.344-.006,26.689c-.014,1.661.491,2.1,2.108,2.069,5.07-.1,10.143-.026,15.215-.036a7.629,7.629,0,0,1,6.979,4.024q1.768,3,3.341,6.12a2.244,2.244,0,0,0,2.321,1.4c8.646-.072,17.292-.071,25.938-.093,3.5.186,3.5.186,3.5-3.283q0-17.908,0-35.815c0-3.367,0-3.367-3.536-2.932" transform="translate(-11.365 -38.475)" fill="#050504"/>
        <path id="Trazado_715524" data-name="Trazado 715524" d="M155.4,109.678a26.328,26.328,0,0,0,.276-2.717q.027-19.791-.006-39.583a21.011,21.011,0,0,0-.41-2.937c1.123-.642.78-1.742.785-2.69.026-4.656.007-9.312,0-13.968.493-.044.991-.061,1.479-.137,1.889-.295,2.508.358,2.5,2.387-.082,20.1-.05,40.2-.05,60.307,0,3.964,0,3.964-3.8,4.7-.518-1.75.592-3.736-.778-5.363" transform="translate(-77.642 -23.793)" fill="#e1d9d6"/>
        <path id="Trazado_715525" data-name="Trazado 715525" d="M155.1,175.748c3.694.777,5.056,2.708,5.722,7.906a11.315,11.315,0,0,0,1.195,4.748,6.853,6.853,0,0,0,5.437,3.448c5.526.606,9.988,4.987,10.361,10.062-3.071.043-6.141.12-9.212.122-15.871.012-31.743-.023-47.615.041-2.05.008-2.559-.385-1.871-2.485.993-3.034,2.7-4.811,5.994-5.015,4.343-.27,7.2-2.56,8.74-6.64,1.423-3.772,4.29-5.521,8.282-5.583a27.756,27.756,0,0,0,5.709-.252c3.593-.8,5.434-3.555,7.257-6.352m-12.242,9.913a5.42,5.42,0,0,0-5.532,4.717c-.108,1.181.1,2.227,1.469,2.472a1.7,1.7,0,0,0,2.162-1.517c.19-.947.553-1.853,1.652-1.906,1.232-.058,1.625.824,1.868,1.913a1.753,1.753,0,0,0,2.436,1.448c1.232-.412,1.44-1.461,1.211-2.655a5.481,5.481,0,0,0-5.267-4.473m21.966,7.594a5.456,5.456,0,0,0-5.375,4.615c-.168,1.192.1,2.2,1.407,2.525a1.718,1.718,0,0,0,2.252-1.406c.249-1.065.6-2,1.819-1.98,1.243.021,1.524,1.066,1.776,2.07a1.69,1.69,0,0,0,2.291,1.3c1.068-.257,1.338-1.1,1.32-2.111a5.425,5.425,0,0,0-5.491-5.01" transform="translate(-59.425 -87.886)" fill="#e6ae4c"/>
        <path id="Trazado_715526" data-name="Trazado 715526" d="M154.8,24.023c.01-2.4-.117-4.8.062-7.187a14.476,14.476,0,0,0-2.05-8.717,5.849,5.849,0,0,1,5.9,5.8c.194,2.9.029,5.815.069,8.723.014,1.072-.442,1.514-1.489,1.454-.828-.047-1.66-.047-2.49-.069" transform="translate(-76.416 -4.061)" fill="#455656"/>
        <path id="Trazado_715527" data-name="Trazado 715527" d="M57.774,26.024h27.94c.581,0,1.164-.016,1.745.014a1.831,1.831,0,0,1,1.981,1.817,1.909,1.909,0,0,1-1.888,1.954,14.42,14.42,0,0,1-1.99.07q-27.691,0-55.381,0c-.416,0-.832,0-1.247,0-1.392-.021-2.638-.488-2.588-2.046.051-1.6,1.371-1.82,2.739-1.817q14.345.028,28.689.01" transform="translate(-13.174 -13.009)" fill="#060808"/>
        <path id="Trazado_715528" data-name="Trazado 715528" d="M58.254,13.947q13.854,0,27.708,0a10.511,10.511,0,0,1,2.235.116,1.736,1.736,0,0,1-.017,3.4,10.776,10.776,0,0,1-1.988.1q-28.207.007-56.415,0a14.471,14.471,0,0,1-1.743-.065,1.555,1.555,0,0,1-1.421-1.745,1.564,1.564,0,0,1,1.441-1.733,17.766,17.766,0,0,1,1.993-.068q14.1-.005,28.208,0" transform="translate(-13.308 -6.974)"/>
        <path id="Trazado_715529" data-name="Trazado 715529" d="M85.9,126.6c-8.646.022-17.292.022-25.938.093a2.243,2.243,0,0,1-2.321-1.4c-1.05-2.073-2.162-4.118-3.341-6.121a7.628,7.628,0,0,0-6.979-4.023c-5.072.009-10.145-.061-15.215.036-1.617.031-2.123-.407-2.108-2.069q.118-13.344.007-26.689c-.011-1.537.5-2.026,2-2.022q26.69.058,53.38.049a2.053,2.053,0,0,1,.483.118q.018,21.014.036,42.029m-26.4-17.843q6.361,0,12.721,0c1.4,0,2.856.005,2.79-1.93-.06-1.764-1.457-1.729-2.746-1.729q-12.6,0-25.194,0c-1.32,0-2.657.058-2.673,1.81s1.286,1.858,2.629,1.853c4.157-.016,8.315-.005,12.472-.005M66.276,94.76c-.172-1.516-1.2-2.067-2.6-1.95-1.547.129-2.342-.28-2.14-2.023.157-1.356-.2-2.618-1.909-2.557-1.525.055-1.87,1.232-1.729,2.5.18,1.62-.385,2.26-2.055,2.086-1.367-.142-2.627.316-2.6,1.941s1.311,2,2.671,1.865c1.477-.143,2.171.282,1.982,1.9-.155,1.324.081,2.645,1.79,2.676,1.727.032,1.978-1.283,1.848-2.614-.147-1.525.394-2.124,1.94-1.955,1.359.148,2.49-.232,2.8-1.863m9.671,28.409c1.91,0,3.82-.025,5.73.009,1.323.024,2.424-.381,2.489-1.814s-1-1.99-2.326-1.994q-5.729-.017-11.459.006c-1.221.005-2.214.534-2.242,1.828-.031,1.43.974,1.977,2.328,1.968,1.827-.012,3.654,0,5.48,0m.212-5.856v.012q2.87,0,5.74,0c1.232,0,2.206-.436,2.223-1.794.016-1.317-.841-1.883-2.129-1.879q-5.865.017-11.729,0c-1.305,0-2.127.631-2.108,1.908.017,1.162.847,1.744,2.015,1.749,2,.009,3.993,0,5.989,0" transform="translate(-15.003 -42.206)" fill="#e6ae4c"/>
        <path id="Trazado_715530" data-name="Trazado 715530" d="M141.785,126.563q-.018-21.015-.037-42.03c3.534-.435,3.536-.435,3.536,2.932q0,17.908,0,35.815c0,3.469,0,3.469-3.5,3.283" transform="translate(-70.884 -42.173)" fill="#d2972d"/>
        <path id="Trazado_715531" data-name="Trazado 715531" d="M50.321,161.057c-6.216.021-12.432.016-18.648.087-1.27.014-1.691-.365-1.752-1.68-.286-6.157-.329-6.172,5.686-6.149,3.56.013,7.12.087,10.68.134l4.034,7.608" transform="translate(-14.914 -76.666)" fill="#feefae"/>
        <path id="Trazado_715532" data-name="Trazado 715532" d="M66.787,161.062l-4.034-7.608a4.072,4.072,0,0,1,4.789,2.211c.973,1.714,1.9,3.454,2.97,5.4Z" transform="translate(-31.381 -76.671)" fill="#dec677"/>
        <path id="Trazado_715533" data-name="Trazado 715533" d="M161.34,195.575a5.481,5.481,0,0,1,5.267,4.473c.228,1.194.021,2.243-1.211,2.655a1.753,1.753,0,0,1-2.436-1.448c-.243-1.089-.636-1.972-1.868-1.913-1.1.052-1.462.959-1.652,1.906a1.7,1.7,0,0,1-2.162,1.516c-1.371-.245-1.577-1.291-1.469-2.472a5.419,5.419,0,0,1,5.532-4.717" transform="translate(-77.902 -97.8)" fill="#0a0703"/>
        <path id="Trazado_715534" data-name="Trazado 715534" d="M205.415,210.766a5.425,5.425,0,0,1,5.491,5.01c.018,1.013-.252,1.854-1.32,2.111a1.69,1.69,0,0,1-2.291-1.3c-.252-1-.533-2.049-1.776-2.07-1.224-.021-1.57.914-1.819,1.98a1.718,1.718,0,0,1-2.252,1.406c-1.307-.326-1.575-1.333-1.407-2.525a5.456,5.456,0,0,1,5.375-4.615" transform="translate(-100.011 -105.397)" fill="#0a0703"/>
        <path id="Trazado_715535" data-name="Trazado 715535" d="M73.916,129.456c-4.157,0-8.315-.01-12.472.005-1.342.006-2.643-.11-2.628-1.853s1.352-1.811,2.672-1.81q12.6.011,25.194,0c1.289,0,2.686-.035,2.746,1.729.066,1.935-1.395,1.933-2.79,1.93q-6.361-.014-12.722,0" transform="translate(-29.412 -62.908)"/>
        <path id="Trazado_715536" data-name="Trazado 715536" d="M89.524,98.589c-.31,1.631-1.44,2.012-2.8,1.863-1.547-.168-2.088.431-1.94,1.955.129,1.332-.122,2.646-1.848,2.615-1.71-.031-1.945-1.352-1.79-2.676.189-1.613-.5-2.038-1.982-1.9-1.36.132-2.64-.244-2.671-1.865s1.228-2.083,2.6-1.941c1.669.173,2.235-.466,2.055-2.086-.14-1.267.2-2.444,1.729-2.5,1.7-.061,2.066,1.2,1.909,2.557-.2,1.743.592,2.152,2.14,2.023,1.4-.117,2.431.434,2.6,1.95" transform="translate(-38.251 -46.035)" fill="#0a0703"/>
        <path id="Trazado_715537" data-name="Trazado 715537" d="M114.092,158.141c-1.827,0-3.654-.009-5.481,0-1.354.009-2.358-.537-2.327-1.968.027-1.294,1.021-1.823,2.242-1.828q5.729-.024,11.459-.006c1.326,0,2.392.55,2.326,1.994s-1.167,1.838-2.489,1.814c-1.909-.034-3.82-.009-5.73-.009" transform="translate(-53.149 -77.178)" fill="#0a0703"/>
        <path id="Trazado_715538" data-name="Trazado 715538" d="M114.322,146.572c-2,0-3.993.006-5.989,0-1.167,0-2-.586-2.015-1.749-.019-1.276.8-1.912,2.108-1.908q5.865.016,11.729,0c1.287,0,2.145.562,2.129,1.879-.017,1.358-.99,1.8-2.223,1.794q-2.87-.005-5.74,0v-.012" transform="translate(-53.166 -71.465)"/>
      </g>
    </g>
  </g>
</svg>
