<svg xmlns="http://www.w3.org/2000/svg" xmlns:xlink="http://www.w3.org/1999/xlink" width="129" height="129" viewBox="0 0 129 129">
  <defs>
    <clipPath id="clip-path">
      <rect id="Rectángulo_353198" data-name="Rectángulo 353198" width="90.109" height="116.727" fill="none"/>
    </clipPath>
  </defs>
  <g id="Grupo_1003248" data-name="Grupo 1003248" transform="translate(-8871 10439)">
    <circle id="Elipse_5698" data-name="Elipse 5698" cx="64.5" cy="64.5" r="64.5" transform="translate(8871 -10439)" fill="#06d1d1"/>
    <g id="Grupo_1003063" data-name="Grupo 1003063" transform="translate(8882 -10433.24)">
      <g id="Grupo_1003062" data-name="Grupo 1003062" clip-path="url(#clip-path)">
        <path id="Trazado_715278" data-name="Trazado 715278" d="M.894,89.53c-1.455-1.474-1.061-2.5.663-3.454A72.13,72.13,0,0,0,13.6,77.811,19.122,19.122,0,0,0,19.84,67.94c2.716-10.038,4.838-20.245,8.4-30.046a69.505,69.505,0,0,1,6.446-13.634C39.1,17.3,43.216,14.2,51.152,11.888,50.627,10.6,50.026,9.355,49.6,8.05c-.734-2.258-1.259-4.649.768-6.477A5.89,5.89,0,0,1,57.557.922C60,2.345,62.171,2.933,64.981,1.968,67.219,1.2,69.2,2.812,70,5.615c.52,1.819.893,3.036,3.356,3.295,3.124.329,4.485,6.246,2.406,9.2a8.562,8.562,0,0,1-3.026,2.511c-.44.241-1.273.215-1.154,1.047.116.815.759.921,1.465,1.026a31.93,31.93,0,0,1,4.127.81A18,18,0,0,1,85.1,28.4c.545.557,1.006,1.139.727,1.964a1.554,1.554,0,0,1-1.767,1.065c-2.156-.252-3.492.844-4.774,2.414a10.666,10.666,0,0,1-5.192,3.259c-1.655.517-2.455,1.11-1.271,2.822a5.51,5.51,0,0,1,.572,1.631c1.18,4.147.572,5.967-2.867,8.553,6.376,9.282,12.158,18.9,16.123,29.5,2.453,6.554,4.222,13.272,3.136,20.359-.245,1.6.267,4.183-2.986,3.692-.965-.146-.759,1.094-.867,1.746a28.792,28.792,0,0,1-3.261,9.821c-.849,1.477-1.842,2.178-3.263.616a5.708,5.708,0,0,1,.4-1.648c2.013-3.331,2.775-7.036,3.4-10.8.189-1.143.234-2.135-1.191-2.728-1.246,3.074-3.092,5.645-6.3,6.942-2.016.816-2.767.308-2.765-1.819a22.53,22.53,0,0,0-.146-3.455c-.219-1.415-.517-2.324-2.223-.839-3.78,3.29-8.446,4.375-13.348,4.469-2.162.041-2.546-.737-1.6-2.781a10.24,10.24,0,0,0,.742-6.108c-1.01.63-1.768,1.107-2.529,1.577A15.621,15.621,0,0,1,44.4,101.03c-2.212-.149-2.757-.871-1.85-2.786.824-1.741.721-3.487.553-5.5-.649.33-1.154.567-1.64.836A21.4,21.4,0,0,1,34.436,95.9a3.1,3.1,0,0,1-3.3-1.21c-.761-1.114.175-1.8.677-2.624a11.493,11.493,0,0,0,1.353-5.106C29.692,89.3,26.1,89.389,22.442,89.042c-.962-.091-1.83-.46-2.015-1.518s.675-1.389,1.438-1.74c2.28-1.051,2.98-3.021,3.316-5.495l-3.333.912a12.3,12.3,0,0,1-2.936-.2c-2.545-.8-4.4-.007-6.5,1.591C8.853,85.295,5.251,88.081.894,89.53M25.808,76.175l-.006.07c2.564-.61,3.177-.108,2.881,2.469A21.18,21.18,0,0,1,26.347,86.1a10.176,10.176,0,0,0,6.958-3.2c.628-.617,1.181-1.517,2.282-1.007,1.136.525,1.04,1.573.964,2.576a43.075,43.075,0,0,1-1.414,8.153,13.563,13.563,0,0,0,7.413-3.664c.576-.571,1.045-1.342,2.049-1.088,1.123.284,1.234,1.289,1.363,2.154a17.254,17.254,0,0,1,.248,5.923c-.451,2.265.489,2.253,2.238,1.777a16.533,16.533,0,0,0,7.695-4.757c.592-.619,1.2-1.208,2.139-.9.956.318,1.1,1.218,1.12,2.031a62.511,62.511,0,0,1-.039,6.934c-.122,1.391.123,1.8,1.5,1.527,4.1-.8,7.821-2.179,9.958-6.134.37-.686.761-1.341,1.629-1.3.984.046,1.308.854,1.663,1.621a33.822,33.822,0,0,1,2.118,6.957c2.451-1.821,3.115-4.2,3.323-6.795.085-1.056-.12-2.346,1.23-2.681,1.408-.35,1.679.95,2.215,1.861a22.457,22.457,0,0,0,1.965,2.844c.382.466.811,1.227,1.563.941.645-.246.364-1.019.419-1.552A29.528,29.528,0,0,0,86.063,88C82.6,74.389,75.437,62.641,67.6,51.228a2.841,2.841,0,0,0-1.777-1.221c-2.776-.669-4.1-2.6-4.5-5.287a11.463,11.463,0,0,1,2.647-9.49c1.686-1.938,2.943-3.7,2.647-6.427a4.945,4.945,0,0,1,1.44-3.864c1.153-1.165.839-2.154.136-3.281A6.7,6.7,0,0,0,66,19.037c-5.616-5.724-16.909-5.527-23.494.424a36.773,36.773,0,0,0-8.207,11.7c-3.671,7.632-5.8,15.78-8.07,23.9-2.135,7.642-2.816,15.8-7.87,22.666a8.522,8.522,0,0,0,6.917-1.016c.3-.054.578-.131.532-.531M54.473,3.155q-1.839.008-2.31,1.093c-.979,2.263,2.235,7.582,4.7,7.8a18.975,18.975,0,0,1,11.631,4.929c.646.6.906,1.888,2.321,1.187,1.465-.725,2.881-1.505,3-3.295.083-1.227-.3-3.093-1.485-3.056-3.809.116-4.4-2.451-5.12-5.169-.405-1.531-1.337-2.178-2.976-1.5a6.654,6.654,0,0,1-6.788-.921,4.755,4.755,0,0,0-2.976-1.071M70.921,44.507c-.261-2.877-1.825-5.271-2.9-7.847-.336-.8-.763-.635-1.317-.18-1.892,1.553-3.166,6.8-2.1,8.976.82,1.667,2.3,2.048,3.977,1.737,1.43-.266,2.435-1.031,2.338-2.686m9.693-15.746c-2.347-2.123-4.8-2.585-7.262-3.078-2.1-.422-2.993.772-3.581,2.5-.317.929-.159,1.432.935,1.346,3.148-.247,6.3-.488,9.907-.767m-4.037,3.306c-2.084.162-3.643.288-5.2.4-.775.058-1.581.058-1.257,1.238.255.929.729,1.505,1.776,1.091a11.29,11.29,0,0,0,4.684-2.732" transform="translate(0 0)"/>
        <path id="Trazado_715279" data-name="Trazado 715279" d="M29.321,162.45l3.333-.912c-.335,2.474-1.035,4.444-3.316,5.495-.763.351-1.621.694-1.438,1.74s1.053,1.426,2.015,1.518c3.657.347,7.251.256,10.723-2.086a11.491,11.491,0,0,1-1.353,5.106c-.5.827-1.438,1.51-.677,2.624a3.1,3.1,0,0,0,3.3,1.21,21.4,21.4,0,0,0,7.027-2.317c.486-.27.991-.506,1.64-.836.168,2.015.271,3.761-.553,5.5-.906,1.915-.361,2.637,1.851,2.786a15.62,15.62,0,0,0,9.454-2.378c.761-.47,1.519-.946,2.529-1.577a10.24,10.24,0,0,1-.742,6.108c-.95,2.044-.566,2.822,1.6,2.781,4.9-.094,9.568-1.179,13.348-4.469,1.706-1.485,2-.576,2.223.839a22.53,22.53,0,0,1,.146,3.455c0,2.127.749,2.634,2.765,1.819,3.205-1.3,5.051-3.868,6.3-6.941,1.424.593,1.38,1.585,1.191,2.728-.622,3.764-1.384,7.47-3.4,10.8a5.708,5.708,0,0,0-.4,1.648l-72.021-23.4c3.14-2.109,6.374-4.095,9.386-6.373,1.855-1.4,4.147-2.459,5.076-4.869" transform="translate(-7.474 -81.249)" fill="#b9744f"/>
        <path id="Trazado_715280" data-name="Trazado 715280" d="M22.749,162.846c-.929,2.41-3.221,3.465-5.076,4.869-3.012,2.279-6.246,4.264-9.386,6.373-1.691-.508-3.394-.98-5.066-1.542-.643-.216-1.481-.367-1.425-1.371,4.357-1.449,7.959-4.235,11.52-6.943,2.1-1.6,3.953-2.393,6.5-1.591a12.323,12.323,0,0,0,2.936.2" transform="translate(-0.902 -81.645)" fill="#8b5139"/>
        <path id="Trazado_715281" data-name="Trazado 715281" d="M92.059,37.675a6.7,6.7,0,0,1,2.2,2.621c.7,1.128,1.018,2.117-.135,3.281a4.946,4.946,0,0,0-1.441,3.864c.3,2.723-.96,4.488-2.646,6.427a11.462,11.462,0,0,0-2.647,9.49c.4,2.684,1.721,4.618,4.5,5.287a2.844,2.844,0,0,1,1.777,1.221c7.835,11.412,15,23.161,18.462,36.767a29.526,29.526,0,0,1,.886,10.323c-.054.532.227,1.307-.419,1.552-.752.286-1.18-.475-1.562-.941a22.364,22.364,0,0,1-1.965-2.843c-.535-.911-.807-2.211-2.215-1.861-1.35.335-1.145,1.625-1.23,2.681-.208,2.6-.872,4.973-3.323,6.794a33.8,33.8,0,0,0-2.118-6.957c-.354-.768-.679-1.575-1.663-1.622-.868-.041-1.258.614-1.629,1.3-2.136,3.955-5.86,5.335-9.957,6.134-1.382.27-1.627-.136-1.5-1.528a62.384,62.384,0,0,0,.039-6.933c-.019-.814-.164-1.714-1.12-2.032-.936-.311-1.546.278-2.139.9a16.534,16.534,0,0,1-7.694,4.757c-1.75.476-2.689.489-2.238-1.777a17.264,17.264,0,0,0-.248-5.922c-.13-.865-.24-1.87-1.363-2.154-1-.253-1.473.517-2.049,1.088a13.557,13.557,0,0,1-7.413,3.663,43.112,43.112,0,0,0,1.415-8.152c.076-1,.171-2.051-.965-2.576-1.1-.509-1.654.391-2.282,1.007a10.175,10.175,0,0,1-6.958,3.2,21.194,21.194,0,0,0,2.337-7.383c.3-2.577-.317-3.079-2.882-2.469a4.814,4.814,0,0,1-.006-1.222q2.325-9.122,4.7-18.232c.179-.687.309-1.5,1.3-1.541,1.7.3,2.074-.862,2.421-2.137A111.2,111.2,0,0,1,66.6,53.571c.511-1.089.607-2.041-.459-2.842a3.08,3.08,0,0,1,1.2-2.218c2.331,0,3.037-.839,2.851-3.381,2.137-4.027,5.749-6.159,9.9-7.434,3.948-1.212,7.969-.4,11.958-.02m-5.681,1.757a3.842,3.842,0,0,0-3.755,3.784,3.9,3.9,0,0,0,3.964,3.838,3.8,3.8,0,0,0,3.583-3.928,3.715,3.715,0,0,0-3.792-3.694" transform="translate(-26.059 -18.638)" fill="#f3d9bb"/>
        <path id="Trazado_715282" data-name="Trazado 715282" d="M50.375,70.3c-.989.043-1.118.854-1.3,1.541q-2.38,9.109-4.7,18.232a4.792,4.792,0,0,0,.007,1.222l.006-.069-.532.531a8.519,8.519,0,0,1-6.916,1.016c5.053-6.861,5.734-15.023,7.869-22.666,2.267-8.115,4.4-16.264,8.07-23.9a36.767,36.767,0,0,1,8.208-11.7c6.584-5.951,17.877-6.149,23.493-.424-3.989-.382-8.009-1.191-11.958.02-4.155,1.275-7.766,3.407-9.9,7.435-.887-.614-1.73-.807-2.514.184s-1.367,2.01-.337,3.2a3.078,3.078,0,0,0-1.2,2.218c-1.518-.266-1.95.829-2.441,1.9a124.957,124.957,0,0,0-6.429,18.578,2.378,2.378,0,0,0,.583,2.676" transform="translate(-18.579 -15.046)" fill="#cdb59b"/>
        <path id="Trazado_715283" data-name="Trazado 715283" d="M107.076,6.346a4.757,4.757,0,0,1,2.976,1.072,6.652,6.652,0,0,0,6.788.921c1.639-.68,2.571-.033,2.976,1.5.719,2.717,1.312,5.284,5.12,5.168,1.183-.036,1.568,1.829,1.485,3.057-.121,1.79-1.538,2.57-3,3.295-1.415.7-1.674-.588-2.32-1.187a18.973,18.973,0,0,0-11.631-4.929c-2.466-.219-5.68-5.537-4.7-7.8q.47-1.085,2.31-1.094" transform="translate(-52.604 -3.191)" fill="#c05454"/>
        <path id="Trazado_715284" data-name="Trazado 715284" d="M135.905,81.036c.1,1.658-.908,2.422-2.338,2.688-1.674.312-3.157-.07-3.977-1.737-1.069-2.174.2-7.423,2.1-8.976.555-.455.982-.624,1.318.18,1.076,2.575,2.639,4.97,2.9,7.845" transform="translate(-64.984 -36.53)" fill="#bd5354"/>
        <path id="Trazado_715285" data-name="Trazado 715285" d="M151.072,54.666c-3.612.279-6.76.52-9.908.767-1.094.085-1.252-.417-.935-1.346.588-1.727,1.476-2.921,3.581-2.5,2.458.493,4.914.955,7.262,3.078" transform="translate(-70.459 -25.904)" fill="#e3b663"/>
        <path id="Trazado_715286" data-name="Trazado 715286" d="M147.457,64.518a11.29,11.29,0,0,1-4.684,2.732c-1.047.414-1.521-.162-1.776-1.091-.324-1.179.482-1.18,1.257-1.238,1.56-.116,3.118-.242,5.2-.4" transform="translate(-70.88 -32.451)" fill="#bc9558"/>
        <path id="Trazado_715287" data-name="Trazado 715287" d="M50.854,153.793l.532-.531c.046.4-.232.477-.532.531" transform="translate(-25.578 -77.086)" fill="#f3d9bb"/>
        <path id="Trazado_715288" data-name="Trazado 715288" d="M63.218,87.684a2.378,2.378,0,0,1-.583-2.676A124.956,124.956,0,0,1,69.064,66.43c.492-1.076.923-2.171,2.441-1.9,1.066.8.97,1.753.459,2.842a111.246,111.246,0,0,0-6.325,18.18c-.346,1.275-.718,2.437-2.421,2.137" transform="translate(-31.422 -32.434)"/>
        <path id="Trazado_715289" data-name="Trazado 715289" d="M117.56,41.838a3.715,3.715,0,0,1,3.792,3.694,3.8,3.8,0,0,1-3.583,3.928,3.9,3.9,0,0,1-3.964-3.838,3.842,3.842,0,0,1,3.755-3.784" transform="translate(-57.241 -21.043)"/>
        <path id="Trazado_715290" data-name="Trazado 715290" d="M82.507,56.167c-1.03-1.187-.458-2.193.337-3.2s1.627-.8,2.515-.184c.185,2.541-.521,3.379-2.852,3.381" transform="translate(-41.219 -26.293)"/>
      </g>
    </g>
  </g>
</svg>
