<svg xmlns="http://www.w3.org/2000/svg" xmlns:xlink="http://www.w3.org/1999/xlink" width="129" height="129" viewBox="0 0 129 129">
  <defs>
    <clipPath id="clip-path">
      <rect id="Rectángulo_353247" data-name="Rectángulo 353247" width="114.485" height="114.488" fill="none"/>
    </clipPath>
  </defs>
  <g id="Grupo_1003258" data-name="Grupo 1003258" transform="translate(-736 -5408)">
    <circle id="Elipse_5708" data-name="Elipse 5708" cx="64.5" cy="64.5" r="64.5" transform="translate(736 5408)" fill="#ffc403"/>
    <g id="Grupo_1003120" data-name="Grupo 1003120" transform="translate(742.757 5414.88)">
      <g id="Grupo_1003119" data-name="Grupo 1003119" clip-path="url(#clip-path)">
        <path id="Trazado_715386" data-name="Trazado 715386" d="M7.819,31.234A13.382,13.382,0,0,1,1.876,18.881c.154-2.984-.334-5.991.394-8.957a12.9,12.9,0,0,1,25.437,2.569c.042,1.229.012,2.46.019,3.69a3.991,3.991,0,0,0,1.092,2.9c1.632,1.914.866,4.552.493,6.841-.5,3.079-2.484,5.2-5.543,6.711,5.777,4.385,6.2,10.535,5.767,16.9-.126,1.861.491,2.34,2.255,2.213,2.142-.155,4.3-.053,6.456-.033,3.206.029,5.1,1.3,5.92,4.377.313,1.177.854,1.17,1.726,1.165,3.46-.019,6.922.059,10.379-.033,2.088-.055,2.956.779,2.857,2.863-.1,1.995-.024,4-.021,6,0,1.524-.763,2.2-2.273,2.262-1.662.067-3.858-.747-4.829.364-.811.929-.269,3.064-.274,4.666,0,1.49-.642,2.33-2.19,2.334-2.23.006-4.46,0-6.689,0-1.539,0-2.233-.808-2.21-2.308q.015-.923,0-1.845c-.028-1.72.628-3.695-2.553-3.306-2.945.36-2.98.076-2.98,3.092,0,2.383-.06,4.769.018,7.15.064,1.946-.7,2.846-2.706,2.775-2.227-.078-4.461.038-6.688-.042-1.073-.038-1.48.354-1.645,1.378q-1.593,9.89-3.279,19.765A2.261,2.261,0,0,0,21.957,105a8.949,8.949,0,0,1,3.9,7c.134,1.6-.571,2.484-2.245,2.484-5.844,0-11.687-.017-17.53.008-2.012.008-2.386-1.162-2.375-2.859.083-11.85-1.1-23.644-1.617-35.467-.049-1.1.075-2.248-1.369-2.8-.762-.293-.7-1.273-.7-2.06C.037,62.149-.066,53,.077,43.851c.088-5.594,3-9.7,7.742-12.617M40.377,62.777c-3.683.006-7.367,0-11.049.025-.711,0-1.666-.261-1.573,1.022.081,1.126.962.79,1.567.792,8.143.021,16.285-.027,24.428.05,1.571.015,1.854-.61,1.6-1.906.281-1.294.012-1.949-1.564-1.858a61.178,61.178,0,0,1-7.344,0,7.707,7.707,0,0,0-6.065,1.873M14.382,33.39A10.786,10.786,0,0,0,3.762,43.9c-.11,8.2,0,16.4-.069,24.6-.014,1.55.589,1.874,1.9,1.6.92.023,1.84.079,2.759.063,2.057-.036,4.734.654,6-.375,1.345-1.093.29-3.88.443-5.92a4.029,4.029,0,0,0,0-.46c-.071-1.755.8-2.517,2.521-2.476,1.708.041,3.417.009,5.126.009a1.174,1.174,0,0,0-.609-1.03c-3.3-2.15-5.571-5.468-9.7-6.885C9.333,52.062,7.019,49,5.654,45.87c-.566-3.716.889-6.457,4.042-8.379,4.572-1.165,10.77,1.648,12.183,6.166.738,2.36,2.221,3.525,3.835,5.129C26.6,38.962,22.2,33.1,14.382,33.39m16.96,42.3c.024-.768.064-1.535.067-2.3.012-4.89.01-4.928-4.771-5.039-1.68-.039-2.68-.622-2.6-2.412.045-1.025-.418-1.372-1.377-1.3-.765.055-1.535.051-2.3.073-1.126-.188-1.916-.09-1.881,1.422.076,3.281.06,6.566,0,9.848-.02,1.191.4,1.612,1.592,1.591,3.282-.056,6.567-.072,9.848,0,1.511.035,1.61-.755,1.421-1.881M8.824,103.317c2.074.028,4.152-.008,6.222.106,1.376.076,1.969-.248,2.195-1.8.854-5.847,1.9-11.667,2.91-17.492.494-2.853.526-2.883-2.358-2.87-1.616.007-2.877-.19-3.022-2.244-.119-1.7.933-4.021-.526-4.938-1.275-.8-3.432-.2-5.2-.212-.537,0-1.074.043-1.61.067-1.482-.361-1.843.256-1.745,1.692.357,5.206.593,10.421.9,15.631.211,3.6.488,7.2.678,10.8.058,1.1.45,1.566,1.558,1.257M22.9,9.253c-1.593-3.733-5.791-6.088-9.2-5.415-4.788.947-8,4.435-8.113,8.91-.063,2.453-.027,4.908,0,7.362.006.586-.292,1.4.294,1.709.789.418,1.167-.487,1.62-.921a19.259,19.259,0,0,0,5.023-9.14,3.018,3.018,0,0,1,3.5-2.538c2.209.144,4.436.033,6.879.033m-6.155,41.42q4.62,3.966,9.236,7.937a2.068,2.068,0,0,0,1.466.5c3.684-.016,7.367-.007,11.051-.012,1.262,0,2.134-.59,2.1-1.893s-.949-1.814-2.2-1.8a29.435,29.435,0,0,0-4.369.037c-5.107.83-8.914-.96-12.125-4.988-2.336-2.93-2.6-2.718-5.161.224M14.608,29.582c.558-.4,2.358.628,1.862-1.1a42.038,42.038,0,0,1-1.63-6.669c-.1-.827-.846-1.068-1.415-1.373-.82-.441-1,.453-1.344.874a20.8,20.8,0,0,1-3.725,3.741c-.88.65-.752,1.129-.051,1.8a9.7,9.7,0,0,0,6.3,2.729M21.6,110.77c-.878-2.269-2.015-3.533-3.673-3.606-3.14-.138-6.29-.051-9.436-.053-1.389,0-1.047,1.062-1.046,1.826s-.346,1.829,1.042,1.831c4.34,0,8.679,0,13.113,0M20.419,18.487c.84,0,1.679,0,2.519,0,.533,0,.947.034,1.122-.743.827-3.657-.022-4.8-3.723-4.8-.687,0-1.374,0-2.061,0-1.861,0-3.7,1.706-3.316,3.489.3,1.39,1.738,1.95,3.168,2.044.76.05,1.526.009,2.29.008M9.274,44.078c.016,1.165,2.715,4.688,3.631,4.739.4.022,4.5-3.959,4.539-4.408.08-.987-3.518-3.779-4.842-3.758a3.45,3.45,0,0,0-3.328,3.427m9.393-21.9a11.919,11.919,0,0,0,1.1,4.416c.482.989.588,2.554,1.876,2.623,1.424.077,2.492-1.039,3.289-2.23a6.546,6.546,0,0,0,.957-3.725c.006-.759-.21-1.11-1.028-1.1-2.048.036-4.1.012-6.2.012M48,70.2c.24-1.336-.19-1.934-1.673-1.912-1.382.02-2.047.252-2.033,1.862.013,1.541.538,1.917,1.989,1.908,1.42-.008,1.989-.465,1.717-1.858" transform="translate(0 0)" fill="#030202"/>
        <path id="Trazado_715387" data-name="Trazado 715387" d="M190.409,99.9q.008,18.5.015,37a10.254,10.254,0,0,1-8.726-5.141c-1.716-2.89-2.079-3.013-4.68-.983a18.209,18.209,0,0,1-10.5,4.19,8.471,8.471,0,0,1-9.287-8.366c-.345-5.831-4.978-9.219-10.687-7.943-2,.446-3.562,1.707-5.407,2.409,1.152-4.73,4.516-7.074,8.96-8.145.878-.212,1.59-.316,1.935-1.27a11.736,11.736,0,0,1,18.723-5.356c.819.7,1.418.628,2.1-.23a6.488,6.488,0,0,1,5.192-2.448c.685-.012,1.406.1,1.958-.453,2.906-2.884,6.545-3.424,10.4-3.267M164.591,111c-2,0-4,.105-5.992-.032-1.682-.116-1.369.935-1.385,1.9-.017,1-.219,1.929,1.424,1.867,3.453-.13,6.915-.024,10.373-.047,1.378-.009,2.825.024,2.9,1.8.072,1.613-1.216,1.8-2.554,1.953a7.371,7.371,0,0,0-6.492,5.953c-.077.5-.521,1.4.559,1.345,1.275-.06,2.862.765,3.448-1.445.441-1.661,1.993-2.1,3.656-2.248a5.522,5.522,0,0,0-.409-11.031c-1.843-.052-3.688-.009-5.533-.01" transform="translate(-75.958 -53.751)" fill="#dadbdd"/>
        <path id="Trazado_715388" data-name="Trazado 715388" d="M189.733,89.124c-3.859-.157-7.5.382-10.4,3.267-.552.549-1.273.44-1.958.453a6.488,6.488,0,0,0-5.192,2.448c-.687.858-1.286.932-2.1.23a11.735,11.735,0,0,0-18.722,5.356c-.345.954-1.058,1.058-1.935,1.27-4.443,1.07-7.808,3.414-8.957,8.144a.639.639,0,0,1-.02.078c-1.063-2.682-.239-5.486-.534-8.217,1.148.04,1.852-.109,2.063-1.632.425-3.063,2.094-5.9,5.06-6.589,3.822-.887,5.747-2.9,7.634-6.245,2.853-5.056,9.758-5.41,14.734-1.453.852.678,1.987,1.78,2.761.728a7.969,7.969,0,0,1,7.256-3.512c.185.008.408-.213.568-.372,2.718-2.7,6.116-3.325,9.758-3.207q0,4.627-.006,9.254" transform="translate(-75.282 -42.979)" fill="#c0c1c3"/>
        <path id="Trazado_715389" data-name="Trazado 715389" d="M139.589,142.722s.023-.079.02-.078c1.841-.7,3.407-1.962,5.4-2.408,5.709-1.276,10.342,2.112,10.687,7.943a8.472,8.472,0,0,0,9.287,8.366,18.21,18.21,0,0,0,10.5-4.19c2.6-2.03,2.964-1.907,4.679.983a10.255,10.255,0,0,0,8.727,5.141c.087,4.169-.081,4.316-4.074,3.042a11.772,11.772,0,0,1-6.369-4.295c-1.046-1.514-1.711-1.179-2.986-.373-4.407,2.789-9.183,4.241-14.423,2.97a12.038,12.038,0,0,1-9.019-10.7c-.431-5.1-3.969-6.931-8.464-4.357-.6.342-1.154.752-1.73,1.131-1.578,1.04-3.095.382-3.51-1.513-.232-1.064,1.046-.958,1.267-1.666" transform="translate(-74.43 -75.331)" fill="#070707"/>
        <path id="Trazado_715390" data-name="Trazado 715390" d="M187.652,75.448c-3.643-.118-7.041.506-9.759,3.207-.16.159-.383.38-.568.372a7.967,7.967,0,0,0-7.256,3.513c-.774,1.052-1.909-.051-2.761-.729-4.975-3.957-11.881-3.6-14.733,1.453-1.887,3.345-3.812,5.358-7.634,6.245-2.966.688-4.635,3.526-5.059,6.589-.212,1.523-.915,1.671-2.063,1.631-1.447.149-2.059-.352-1.737-1.915,1.125-5.452,4.2-9.114,9.624-10.634a3.09,3.09,0,0,0,2.363-1.789c3.451-7.378,11.815-10.046,19.067-6.118,1.186.642,2.113,1.121,3.094-.167a1.05,1.05,0,0,1,.572-.369c4.349-.884,7.961-3.676,12.246-4.72a6.643,6.643,0,0,1,.68-.126c4.031-.545,4.031-.544,3.926,3.556" transform="translate(-73.194 -38.557)" fill="#060606"/>
        <path id="Trazado_715391" data-name="Trazado 715391" d="M157.35,201.851c-2.151,0-4.3.029-6.453-.007a5.544,5.544,0,0,1-5.736-5.127,5.47,5.47,0,0,1,4.926-5.9c1.276-.17,2.405-.444,2.383-1.894-.024-1.6-1.257-1.873-2.619-1.851-2.227.034-4.456.052-6.683,0a7.306,7.306,0,0,1-7.024-5.586c-.143-.579-.667-1.619.253-1.69,1.053-.081,2.679-.911,3.216.57.955,2.633,2.827,3.146,5.26,3.04,1.917-.084,3.841-.054,5.76-.007a5.528,5.528,0,0,1,.743,11.016c-1.052.15-2.141.238-2.394,1.372-.379,1.7.667,2.365,2.236,2.367,4.148.007,8.3.087,12.443-.04,1.6-.049,1.807.527,1.859,1.934.058,1.6-.526,1.909-1.951,1.833-2.068-.111-4.146-.029-6.22-.029" transform="translate(-73.123 -96.602)" fill="#030202"/>
        <path id="Trazado_715392" data-name="Trazado 715392" d="M149.864,50.535c-1.231,0-2.461,0-3.692,0-3.753.015-5.3,1.071-6.506,4.573-.66,1.922-2.2.906-3.236.859-1.127-.05-.485-1.207-.348-1.834a9.137,9.137,0,0,1,8.9-7.29c2.922-.051,5.845-.026,8.768-.005,1.326.01,2.386-.435,2.362-1.879s-1.118-1.779-2.425-1.825c-4.794-.173-7.314-1.826-8.3-5.423-.172-.627-.891-1.73.25-1.85,1.016-.107,2.615-.968,3.19.616.908,2.5,2.693,3.033,5.067,3,3.573-.048,6.014,2.31,5.984,5.567s-2.481,5.456-6.091,5.489c-1.307.012-2.615,0-3.923,0" transform="translate(-73.075 -19.123)" fill="#060606"/>
        <path id="Trazado_715393" data-name="Trazado 715393" d="M211.511,221.659c.348,1.475-.183,2-1.729,1.917-1.284-.066-2.046-.072-1.988-1.765.052-1.5.282-2.1,1.955-2.039,1.455.053,2.144.351,1.762,1.887" transform="translate(-111.834 -118.28)" fill="#030202"/>
        <path id="Trazado_715394" data-name="Trazado 715394" d="M16.1,159.79c.537-.024,1.074-.069,1.61-.066,1.768.007,3.925-.59,5.2.212,1.46.917.407,3.239.526,4.938.145,2.054,1.406,2.251,3.022,2.244,2.884-.013,2.852.017,2.358,2.87-1.008,5.824-2.055,11.644-2.91,17.491-.226,1.547-.819,1.872-2.2,1.8-2.069-.114-4.147-.078-6.221-.106-.019-2.595.063-5.2-.077-7.784-.388-7.2-.869-14.4-1.313-21.6" transform="translate(-8.664 -85.852)" fill="#4099d5"/>
        <path id="Trazado_715395" data-name="Trazado 715395" d="M12.175,99.324c1.364,3.135,3.678,6.2,6.487,7.16,4.125,1.417,6.393,4.735,9.7,6.885a1.172,1.172,0,0,1,.61,1.03c-1.709,0-3.418.032-5.125-.009-1.726-.042-2.593.721-2.521,2.476a4.029,4.029,0,0,1,0,.46c-.151,2.04.9,4.827-.442,5.92-1.267,1.03-3.944.339-6,.375-.919.016-1.839-.04-2.759-.063q.029-12.117.059-24.234" transform="translate(-6.521 -53.456)" fill="#dd563c"/>
        <path id="Trazado_715396" data-name="Trazado 715396" d="M29.325,13.593c-2.444,0-4.67.111-6.879-.033a3.019,3.019,0,0,0-3.5,2.538,19.261,19.261,0,0,1-5.023,9.14c-.453.434-.83,1.34-1.62.921-.586-.311-.287-1.123-.294-1.709-.026-2.454-.062-4.909,0-7.362.115-4.475,3.325-7.963,8.113-8.91,3.408-.674,7.606,1.682,9.2,5.415" transform="translate(-6.427 -4.34)" fill="#2f2f2f"/>
        <path id="Trazado_715397" data-name="Trazado 715397" d="M44.034,140.03c.768-.022,1.537-.018,2.3-.073.958-.069,1.421.278,1.377,1.3-.079,1.79.921,2.374,2.6,2.413,4.781.111,4.783.149,4.77,5.039,0,.768-.043,1.535-.066,2.3-3.057.006-6.115-.04-9.17.04-1.4.036-1.892-.458-1.855-1.854.08-3.055.035-6.113.04-9.17" transform="translate(-23.677 -75.32)" fill="#5a5b5d"/>
        <path id="Trazado_715398" data-name="Trazado 715398" d="M36.256,107.03c2.559-2.942,2.825-3.154,5.161-.223,3.211,4.028,7.017,5.818,12.125,4.988a29.436,29.436,0,0,1,4.369-.037c1.25-.012,2.164.5,2.2,1.8s-.838,1.892-2.1,1.893c-3.684.005-7.368,0-11.051.012a2.07,2.07,0,0,1-1.466-.5q-4.606-3.983-9.236-7.938" transform="translate(-19.513 -56.357)" fill="#f6dcd1"/>
        <path id="Trazado_715399" data-name="Trazado 715399" d="M25.681,72.292C33.5,72,37.9,77.865,37.012,87.688c-1.613-1.6-3.1-2.769-3.835-5.129C31.764,78.041,25.566,75.228,21,76.392c.025-1.072.91-1.436,1.561-2.059.932-.892,2.478-.777,3.125-2.042" transform="translate(-11.3 -38.902)" fill="#dd563c"/>
        <path id="Trazado_715400" data-name="Trazado 715400" d="M18.685,72.3c-.647,1.264-2.193,1.15-3.125,2.042-.651.623-1.536.986-1.561,2.059-3.152,1.923-4.608,4.664-4.042,8.378Q9.928,96.9,9.9,109.016c-1.314.273-1.916-.051-1.9-1.6.073-8.2-.041-16.4.069-24.6A10.786,10.786,0,0,1,18.685,72.3" transform="translate(-4.303 -38.914)" fill="#ad3a26"/>
        <path id="Trazado_715401" data-name="Trazado 715401" d="M14.047,159.991c.444,7.2.925,14.394,1.313,21.6.139,2.588.058,5.189.077,7.784-1.108.309-1.5-.157-1.558-1.257-.19-3.6-.467-7.2-.678-10.8-.306-5.21-.542-10.425-.9-15.631-.1-1.435.263-2.053,1.745-1.692" transform="translate(-6.613 -86.053)" fill="#2e76b7"/>
        <path id="Trazado_715402" data-name="Trazado 715402" d="M87.688,135.9c.253,1.3-.03,1.921-1.6,1.906-8.142-.077-16.285-.029-24.428-.05-.6,0-1.487.334-1.567-.792-.092-1.284.862-1.018,1.573-1.022,3.683-.023,7.366-.019,11.049-.025l14.973-.017" transform="translate(-32.338 -73.144)" fill="#76777b"/>
        <path id="Trazado_715403" data-name="Trazado 715403" d="M23.624,53.267a9.7,9.7,0,0,1-6.3-2.729c-.7-.668-.829-1.147.051-1.8A20.773,20.773,0,0,0,21.1,45c.341-.421.524-1.314,1.344-.874.568.306,1.318.547,1.415,1.373a42.038,42.038,0,0,0,1.63,6.669c.5,1.726-1.3.7-1.862,1.1" transform="translate(-9.016 -23.685)" fill="#f6dcd1"/>
        <path id="Trazado_715404" data-name="Trazado 715404" d="M30.227,235.572c-4.434,0-8.774,0-13.114,0-1.389,0-1.041-1.067-1.042-1.831s-.342-1.827,1.047-1.826c3.146,0,6.3-.085,9.436.052,1.658.073,2.794,1.337,3.673,3.606" transform="translate(-8.629 -124.803)" fill="#5a5b5d"/>
        <path id="Trazado_715405" data-name="Trazado 715405" d="M37.794,33.573c-.763,0-1.529.042-2.289-.009-1.431-.095-2.869-.654-3.168-2.044-.384-1.783,1.454-3.485,3.315-3.489.687,0,1.374,0,2.061,0,3.7,0,4.549,1.141,3.722,4.8-.175.777-.589.742-1.122.743-.84,0-1.679,0-2.519,0" transform="translate(-17.376 -15.086)" fill="#f6dcd1"/>
        <path id="Trazado_715406" data-name="Trazado 715406" d="M20.08,91.455a3.449,3.449,0,0,1,3.328-3.427c1.324-.022,4.922,2.771,4.842,3.758-.036.449-4.136,4.43-4.539,4.408-.916-.05-3.615-3.573-3.631-4.739" transform="translate(-10.807 -47.377)" fill="#ad3a26"/>
        <path id="Trazado_715407" data-name="Trazado 715407" d="M41.89,140.043c-.006,3.057.04,6.115-.04,9.17-.036,1.4.459,1.891,1.855,1.854,3.055-.08,6.113-.034,9.17-.04.188,1.126.09,1.916-1.422,1.881-3.282-.076-6.566-.06-9.849,0-1.191.02-1.612-.4-1.591-1.591.056-3.282.072-6.567,0-9.848-.035-1.512.755-1.61,1.881-1.422" transform="translate(-21.532 -75.333)" fill="#4b4b4c"/>
        <path id="Trazado_715408" data-name="Trazado 715408" d="M40.422,48.007c2.1,0,4.148.024,6.2-.012.818-.014,1.034.337,1.028,1.1a6.543,6.543,0,0,1-.957,3.725c-.8,1.191-1.865,2.307-3.289,2.23-1.287-.07-1.394-1.635-1.876-2.623a11.916,11.916,0,0,1-1.1-4.415" transform="translate(-21.755 -25.83)" fill="#adaeb2"/>
        <path id="Trazado_715409" data-name="Trazado 715409" d="M102.406,133.71l-14.973.017a7.707,7.707,0,0,1,6.065-1.873,61.18,61.18,0,0,0,7.344,0c1.575-.091,1.845.564,1.564,1.858" transform="translate(-47.057 -70.95)" fill="#adaeb2"/>
        <path id="Trazado_715410" data-name="Trazado 715410" d="M99.612,149.788c.272,1.393-.3,1.85-1.717,1.858-1.451.009-1.976-.367-1.989-1.908-.014-1.611.651-1.842,2.033-1.862,1.483-.022,1.913.575,1.673,1.912" transform="translate(-51.617 -79.587)" fill="#5a5b5d"/>
        <path id="Trazado_715411" data-name="Trazado 715411" d="M183.314,123.925c1.844,0,3.69-.042,5.533.01a5.522,5.522,0,0,1,.409,11.031c-1.663.152-3.215.587-3.656,2.248-.586,2.209-2.173,1.385-3.448,1.445-1.08.051-.636-.849-.559-1.345a7.372,7.372,0,0,1,6.491-5.954c1.337-.149,2.625-.34,2.554-1.953-.079-1.771-1.526-1.8-2.9-1.8-3.458.024-6.92-.083-10.373.048-1.643.062-1.44-.863-1.424-1.867.016-.964-.3-2.015,1.385-1.9,1.989.138,3.994.032,5.992.033" transform="translate(-94.68 -66.674)" fill="#030202"/>
      </g>
    </g>
  </g>
</svg>
