<svg xmlns="http://www.w3.org/2000/svg" xmlns:xlink="http://www.w3.org/1999/xlink" width="129" height="129" viewBox="0 0 129 129">
  <defs>
    <clipPath id="clip-path">
      <rect id="Rectángulo_353258" data-name="Rectángulo 353258" width="107.811" height="121.962" fill="none"/>
    </clipPath>
  </defs>
  <g id="Grupo_1003265" data-name="Grupo 1003265" transform="translate(-736 -675)">
    <circle id="Elipse_5695" data-name="Elipse 5695" cx="64.5" cy="64.5" r="64.5" transform="translate(736 675)" fill="#06d1d1"/>
    <g id="Grupo_1003136" data-name="Grupo 1003136" transform="translate(746.095 675)">
      <g id="Grupo_1003135" data-name="Grupo 1003135" clip-path="url(#clip-path)">
        <path id="Trazado_715539" data-name="Trazado 715539" d="M21.646,119.465c.086,1.716-.741,2.418-2.441,2.4-4.044-.049-8.091.04-12.134-.034a6.868,6.868,0,0,1-7.035-7.106C-.027,103.382.016,92.042,0,80.7a4.814,4.814,0,0,1,.651-2.488c.316-.547.549-1.148.9-1.668a22.42,22.42,0,0,0,4.08-15.939c-.448-3.66.441-4.34,4.206-4.178,1.911.082,2.572-.67,3.063-2.351,1.974-6.753,4.16-13.444,6.085-20.21.581-2.042,1.508-2.843,3.638-2.8,6.755.139,5.38-.589,7.236,5.271,1.862,5.878,3.634,11.784,5.429,17.683a2.574,2.574,0,0,0,.925,1.688c0-8.179-.012-16.239,0-24.3.018-8.987,5.487-14.577,14.458-14.6,1.81,0,2.3-.474,2.21-2.249-.152-3.006-.088-6.026-.025-9.038C52.935,2.135,55.016.045,58.4.03q13.562-.061,27.124,0C89.04.041,91.1,2.122,91.17,5.668c.059,2.933.14,5.876-.03,8.8-.11,1.9.5,2.337,2.342,2.335,7.1-.006,12.267,3.892,13.95,10.255a15.493,15.493,0,0,1,.37,4.01q.009,38.185,0,76.37c-.006,8.795-5.642,14.4-14.419,14.408-14.2.008-28.394.068-42.59-.043-3.639-.029-7.234-.5-10.921-.047-3.517.429-7.128.047-10.7.112-1.713.032-2.781-.476-2.753-2.367a2.982,2.982,0,0,1,2.843-1.252c3.138-.01,6.276-.106,9.414-.168,4.642.564,5.872-.511,5.873-5.149,0-7.9-.3-15.817.1-23.7a30.282,30.282,0,0,0-4.1-16.841c-1.794-3.226-3.689-4.477-7.111-3.78-4.192-.03-8.384-.081-12.575-.083-3.637,0-7.274.053-10.912.083q-2.652,4.867-5.3,9.736a7.113,7.113,0,0,0-1.162,3.527c.054,10.682.018,21.364.038,32.047.006,3.047,1.26,4.3,4.334,4.333,3.64.042,7.28.021,10.92.006,1.141,0,2.237.027,2.868,1.2m7.518-63.237c3.156.29,3.158.29,2.263-2.634q-2.565-8.382-5.134-16.763c-.753-2.46-1.17-2.64-3.8-1.621q-3.08,9.838-6.169,19.673c-.372,1.178.016,1.531,1.2,1.5,3.88-.092,7.761-.11,11.642-.158M80.095,3.8c-7.056-.026-14.112-.031-21.168-.092-1.806-.016-2.622.751-2.6,2.558.038,2.854.073,5.711-.017,8.562-.046,1.437.41,1.937,1.883,1.921,7.294-.081,14.588-.069,21.882-.09,1.968.018,3.937,0,5.9.067,1.153.039,1.741-.293,1.715-1.582-.061-3.07-.017-6.141-.025-9.212,0-1.575-.8-2.261-2.381-2.194-1.729.072-3.463.046-5.194.063M96.678,106.4q-23.524-.048-47.048-.116c-1.171,0-1.459.42-1.472,1.522-.037,2.845.446,5.744-.251,8.518-.425,1.691.2,1.913,1.512,1.911l42.532-.092c6.946,1.006,12.539-3.616,12.413-10.2-.022-1.136-.207-1.8-1.543-1.72-2.044.119-4.094.123-6.142.175M91.968,20.522c-14.348-.023-28.7-.127-43.042-.023-4.952.036-8.781,4.3-9.217,9.493-.155,1.836.346,2.421,2.285,2.394,8.244-.115,16.49-.035,24.735-.062,1.465,0,2.739.111,2.941,1.94-.429,1.635-1.716,1.6-3.028,1.6q-12.49-.017-24.981-.011c-1.061,0-2-.15-1.977,1.5.083,5.867.034,11.736.03,17.6,0,.638-.082,1.31.764,1.5,1.909.44,2.281,1.878,2.034,3.477-.976,6.3.755,11.888,4.3,17.035.09.13.143.283.231.414a8.046,8.046,0,0,1,1.168,4.734c-.038,6.738.029,13.477.056,20.215-.069.346.073.465.407.378l48.055-.014a51.659,51.659,0,0,1,5.215.121c2.076.245,2.414-.6,2.407-2.5-.072-19.24-.044-38.48-.044-57.72,0-7.308,0-7.308-7.6-6.612-6.454-.043-12.908-.1-19.363-.12-1.321,0-2.565-.02-3.013-1.6.237-1.784,1.471-1.943,2.948-1.941,6.482.01,12.965-.04,19.447-.068,1.894.03,3.8-.038,5.679.119,1.631.136,1.974-.524,1.926-2.02-.169-5.277-4.4-10.941-12.362-9.83M24.277,59.987v-.013c-4.437,0-8.877.1-13.309-.048-1.776-.059-2.031.743-1.788,2.082.206,1.135-.983,2.952,1.686,2.919q13.19-.164,26.384-.017c2.373.026,1.641-1.493,1.764-2.693.145-1.415.035-2.351-1.9-2.28-4.273.156-8.555.049-12.834.049" transform="translate(0 0)" fill="#050505"/>
        <path id="Trazado_715540" data-name="Trazado 715540" d="M42.514,193.459c-3.138.062-6.276.157-9.414.168a2.982,2.982,0,0,0-2.844,1.252l-4.776-.036c-.631-1.177-1.728-1.209-2.868-1.2-3.64.015-7.281.036-10.921-.007-3.074-.036-4.329-1.286-4.334-4.333-.02-10.682.017-21.365-.038-32.047a7.11,7.11,0,0,1,1.162-3.527q2.64-4.874,5.3-9.737c3.637-.03,7.274-.084,10.911-.082,4.192,0,8.384.053,12.576.083a11.236,11.236,0,0,0,1.538,3.183c2.592,4.472,4.708,8.942,4.3,14.48-.476,6.388-.056,12.839-.13,19.261-.048,4.183.413,8.39-.458,12.545m-1.89-24.747A12.723,12.723,0,1,0,28.02,181.5a12.74,12.74,0,0,0,12.6-12.784" transform="translate(-3.833 -75.378)" fill="#f6f4f5"/>
        <path id="Trazado_715541" data-name="Trazado 715541" d="M91.914,140.018c-.028-6.738-.094-13.477-.056-20.215a8.046,8.046,0,0,0-1.168-4.734c-.088-.131-.141-.285-.231-.414-3.542-5.146-5.273-10.733-4.3-17.035.248-1.6-.124-3.037-2.034-3.477-.846-.2-.764-.867-.764-1.5,0-5.868.053-11.737-.03-17.6-.023-1.651.916-1.5,1.977-1.5q12.49.014,24.981.011c1.311,0,2.6.038,3.028-1.6l4.66,0c.448,1.583,1.693,1.6,3.014,1.6,6.454.021,12.908.077,19.363.12q.01,33.355.02,66.711l-48.055.014-.407-.378m37.62-27.37a12.992,12.992,0,0,0-1.037-5.335c-2.562-6.643-6.728-12.346-10.768-18.105-1.272-1.814-3.067-1.592-4.461.41a130.207,130.207,0,0,0-8.306,13,28.368,28.368,0,0,0-2.662,6.323c-1.335,5.275-.31,10.028,3.893,13.6,4.725,4.011,10.212,4.542,15.8,2.034,5.036-2.26,7.409-6.445,7.54-11.919" transform="translate(-43.65 -37.685)" fill="#f7f5f6"/>
        <path id="Trazado_715542" data-name="Trazado 715542" d="M117.979,56.759l-4.66,0c-.2-1.83-1.476-1.945-2.941-1.94-8.245.027-16.491-.054-24.735.061-1.939.027-2.44-.558-2.285-2.394.437-5.188,4.265-9.457,9.217-9.493,14.347-.1,28.695,0,43.042.023,3.343,3.2,5.37,6.929,4.758,11.73-6.483.028-12.965.079-19.448.068-1.477,0-2.712.157-2.948,1.941" transform="translate(-43.649 -22.498)" fill="#a6e7a5"/>
        <path id="Trazado_715543" data-name="Trazado 715543" d="M144.5,235.047l-42.532.092c-1.317,0-1.937-.22-1.512-1.911.7-2.773.214-5.673.25-8.517.014-1.1.3-1.527,1.473-1.522q23.523.094,47.047.116a11.236,11.236,0,0,1-1.828,8.332c-.864,1.21-1.927,2.279-2.9,3.411" transform="translate(-52.55 -116.906)" fill="#a6e7a5"/>
        <path id="Trazado_715544" data-name="Trazado 715544" d="M203.1,141.958q-.01-33.356-.02-66.711c7.6-.7,7.6-.7,7.6,6.613,0,19.24-.029,38.48.044,57.72.007,1.9-.33,2.745-2.407,2.5a51.806,51.806,0,0,0-5.215-.121" transform="translate(-106.373 -39.263)" fill="#d8d5e6"/>
        <path id="Trazado_715545" data-name="Trazado 715545" d="M142.013,20.733c-7.294.021-14.589.009-21.882.09-1.473.016-1.929-.484-1.883-1.921.09-2.852.055-5.709.017-8.563-.024-1.806.793-2.573,2.6-2.557,7.056.061,14.112.066,21.169.092q-.009,6.429-.018,12.858" transform="translate(-61.936 -4.076)" fill="#375d7c"/>
        <path id="Trazado_715546" data-name="Trazado 715546" d="M75.457,193.344c.871-4.154.41-8.362.458-12.544.074-6.423-.346-12.874.13-19.261.413-5.539-1.7-10.008-4.3-14.48a11.246,11.246,0,0,1-1.538-3.183c3.422-.7,5.317.554,7.111,3.781a30.276,30.276,0,0,1,4.1,16.841c-.392,7.882-.093,15.8-.1,23.7,0,4.638-1.232,5.713-5.873,5.149" transform="translate(-36.777 -75.264)" fill="#dbd8ea"/>
        <path id="Trazado_715547" data-name="Trazado 715547" d="M34.275,125.9c4.279,0,8.561.108,12.834-.049,1.937-.071,2.047.864,1.9,2.28-.123,1.2.61,2.719-1.764,2.693q-13.191-.147-26.384.017c-2.669.033-1.48-1.784-1.686-2.919-.244-1.34.012-2.141,1.788-2.082,4.432.146,8.872.048,13.309.048Z" transform="translate(-9.998 -65.912)" fill="#73caf3"/>
        <path id="Trazado_715548" data-name="Trazado 715548" d="M46.966,94.957c-3.881.047-7.763.066-11.642.158-1.185.028-1.573-.325-1.2-1.5q3.107-9.83,6.169-19.673c.588.4.611,1.093.789,1.667,1.985,6.443,3.93,12.9,5.886,19.351" transform="translate(-17.802 -38.729)" fill="#afe1f6"/>
        <path id="Trazado_715549" data-name="Trazado 715549" d="M168.158,20.76q.009-6.429.018-12.858c1.731-.017,3.465.01,5.194-.063,1.578-.066,2.376.619,2.38,2.194.009,3.071-.036,6.142.026,9.212.026,1.289-.561,1.621-1.715,1.582-1.966-.066-3.935-.049-5.9-.067" transform="translate(-88.081 -4.104)" fill="#294961"/>
        <path id="Trazado_715550" data-name="Trazado 715550" d="M193.092,234.976c.973-1.132,2.036-2.2,2.9-3.411a11.236,11.236,0,0,0,1.828-8.332c2.048-.052,4.1-.057,6.142-.175,1.337-.078,1.522.583,1.544,1.719.126,6.583-5.466,11.2-12.413,10.2" transform="translate(-101.141 -116.834)" fill="#70b78e"/>
        <path id="Trazado_715551" data-name="Trazado 715551" d="M197.886,54.669c.611-4.8-1.415-8.533-4.758-11.73,7.966-1.111,12.193,4.552,12.362,9.83.048,1.5-.295,2.155-1.926,2.02-1.883-.157-3.785-.089-5.679-.119" transform="translate(-101.16 -22.418)" fill="#7ed5a7"/>
        <path id="Trazado_715552" data-name="Trazado 715552" d="M53.9,94.315c-1.956-6.453-3.9-12.908-5.886-19.351-.177-.574-.2-1.269-.789-1.667,2.633-1.019,3.051-.84,3.8,1.621Q53.6,83.3,56.164,91.681c.895,2.924.893,2.924-2.263,2.634" transform="translate(-24.737 -38.086)" fill="#73caf3"/>
        <path id="Trazado_715553" data-name="Trazado 715553" d="M101.333,214.892l.407.378c-.334.088-.476-.032-.407-.378" transform="translate(-53.069 -112.56)" fill="#d8d5e6"/>
        <path id="Trazado_715554" data-name="Trazado 715554" d="M49.27,182.06a12.723,12.723,0,1,1-12.713-12.67A12.744,12.744,0,0,1,49.27,182.06m-10.354,8.685.012.039a8.921,8.921,0,0,0-.14-17.369,4.7,4.7,0,0,0-1.095-.38,8.9,8.9,0,0,0-8.88,4.237,8.478,8.478,0,0,0,.08,9.8,8.6,8.6,0,0,0,9.406,3.915l.618-.236" transform="translate(-12.479 -88.726)" fill="#050505"/>
        <path id="Trazado_715555" data-name="Trazado 715555" d="M149.791,130.273c-.13,5.474-2.5,9.66-7.54,11.919-5.588,2.508-11.076,1.977-15.8-2.034-4.2-3.567-5.228-8.321-3.893-13.6a28.359,28.359,0,0,1,2.662-6.323,130.1,130.1,0,0,1,8.306-13c1.394-2,3.188-2.224,4.461-.41,4.041,5.76,8.206,11.462,10.768,18.1a12.992,12.992,0,0,1,1.037,5.335m-15.7-17.4c-3.1,4.4-6.125,8.855-7.866,14-1.32,3.9-.765,7.472,2.447,10.358A10.958,10.958,0,0,0,142,138.285c3.83-2.509,5.194-7.117,3.442-11.936-1.8-4.938-4.783-9.221-7.657-13.557-1.871-2.822-1.892-2.808-3.686.082" transform="translate(-63.908 -55.311)" fill="#060708"/>
        <path id="Trazado_715556" data-name="Trazado 715556" d="M42.116,194.935a8.6,8.6,0,0,1-9.407-3.915,8.477,8.477,0,0,1-.079-9.8,8.9,8.9,0,0,1,8.88-4.237,4.708,4.708,0,0,1,1.1.38,18.1,18.1,0,0,1,1.176,1.473c1.4,2.164,2.933,4.3,2.26,7.124a1.961,1.961,0,0,0-2.231-1.682c-1.384.087-1.8-.48-1.691-1.781a1.681,1.681,0,0,0-1.8-2.009,1.61,1.61,0,0,0-1.657,1.9c.115,1.462-.465,1.961-1.895,1.912a1.716,1.716,0,0,0-1.983,1.857,1.64,1.64,0,0,0,1.9,1.671c1.6-.161,2.1.486,1.98,2a1.584,1.584,0,0,0,1.491,1.809c.908.117,1.855-.415,1.791-1.159-.208-2.4,1.233-2.724,3.032-2.891.33-.031.625-.454.935-.7a8.951,8.951,0,0,1-.393,3.008c-.5,1.88-2.161,3.049-2.779,4.832l-.013-.04-.617.237" transform="translate(-16.296 -92.68)" fill="#e45165"/>
        <path id="Trazado_715557" data-name="Trazado 715557" d="M55.387,195.209c.618-1.783,2.275-2.952,2.779-4.832a8.958,8.958,0,0,0,.394-3.008l-.01.019c.065-.034.185-.069.184-.1a1.717,1.717,0,0,0-.076-.349c.008-.168.016-.335.024-.5.674-2.826-.858-4.959-2.26-7.123a18.1,18.1,0,0,0-1.176-1.473,8.921,8.921,0,0,1,.14,17.369" transform="translate(-28.938 -93.152)" fill="#dd374d"/>
        <path id="Trazado_715558" data-name="Trazado 715558" d="M54.22,214.469l.617-.237-.617.237" transform="translate(-28.4 -112.214)" fill="#dd374d"/>
        <path id="Trazado_715559" data-name="Trazado 715559" d="M132.588,145.24c-3.212-2.887-3.766-6.461-2.447-10.359,1.741-5.143,4.763-9.6,7.865-14,2.448,2.457,3.552,5.623,4.814,8.755,2.911,7.222-2.447,15.125-10.233,15.6" transform="translate(-67.819 -63.318)" fill="#afe1f6"/>
        <path id="Trazado_715560" data-name="Trazado 715560" d="M136.012,142.838c7.786-.477,13.145-8.38,10.233-15.6-1.262-3.131-2.367-6.3-4.814-8.755,1.794-2.891,1.816-2.9,3.687-.083,2.875,4.336,5.862,8.619,7.657,13.557,1.752,4.818.388,9.426-3.442,11.936a10.959,10.959,0,0,1-13.32-1.053" transform="translate(-71.243 -60.916)" fill="#73caf3"/>
        <path id="Trazado_715561" data-name="Trazado 715561" d="M50.078,189.873c-.008.168-.016.335-.023.5a.909.909,0,0,0-.109.45l.01-.019c-.311.242-.605.665-.936.7-1.8.168-3.241.49-3.032,2.891.065.743-.883,1.275-1.791,1.158a1.584,1.584,0,0,1-1.491-1.809c.115-1.518-.38-2.165-1.98-2a1.64,1.64,0,0,1-1.9-1.672,1.716,1.716,0,0,1,1.983-1.857c1.43.05,2.01-.45,1.895-1.911a1.61,1.61,0,0,1,1.657-1.9,1.682,1.682,0,0,1,1.8,2.009c-.108,1.3.307,1.869,1.691,1.781a1.961,1.961,0,0,1,2.231,1.681" transform="translate(-20.334 -96.589)" fill="#050505"/>
        <path id="Trazado_715562" data-name="Trazado 715562" d="M62.183,197.4a.907.907,0,0,1,.109-.45,1.7,1.7,0,0,1,.075.349c0,.032-.12.067-.184.1" transform="translate(-32.571 -103.161)" fill="#e45165"/>
      </g>
    </g>
  </g>
</svg>
