<svg xmlns="http://www.w3.org/2000/svg" xmlns:xlink="http://www.w3.org/1999/xlink" width="134.479" height="129" viewBox="0 0 134.479 129">
  <defs>
    <clipPath id="clip-path">
      <rect id="Rectángulo_353259" data-name="Rectángulo 353259" width="127.505" height="128.578" fill="none"/>
    </clipPath>
  </defs>
  <g id="Grupo_1003266" data-name="Grupo 1003266" transform="translate(-1090 -675)">
    <circle id="Elipse_5696" data-name="Elipse 5696" cx="64.5" cy="64.5" r="64.5" transform="translate(1090 675)" fill="#ffc403"/>
    <g id="Grupo_1003138" data-name="Grupo 1003138" transform="translate(1096.975 675.422)">
      <g id="Grupo_1003137" data-name="Grupo 1003137" clip-path="url(#clip-path)">
        <path id="Trazado_715563" data-name="Trazado 715563" d="M1.96,98.6A2.092,2.092,0,0,1,.019,96.152c.016-.25,0-.5,0-.752C.167,80.271-1.508,84.86,9.4,71.72c.723-.87,1.722-1.567,1.606-2.964-.135-1.633.579-3.655-2.423-3.3-1.135.134-1.642-.927-1.629-2.092q.033-3.134,0-6.27A1.957,1.957,0,0,1,9.08,54.857c6.1-.042,12.207-.034,18.31-.01A2.041,2.041,0,0,1,29.664,57.2c-.033,1.588-.09,3.182.014,4.764.147,2.227-.23,3.807-3.019,3.668-1.063-.053-1.682,3.323-.654,4.612,2.6,3.264,5.383,6.388,8.059,9.6.576.69.88.432,1.332-.108q3.864-4.61,7.779-9.178c.892-1.037.33-2.242.522-3.356.343-1.993-1.138-1.521-2.191-1.666a1.919,1.919,0,0,1-1.825-2.257c.2-2.556-.533-5.163.434-7.677.355-.922-.45-1.361-.908-1.895-2.448-2.856-4.937-5.676-7.4-8.522-2.778-3.216-2.759-5.953.253-8.99.908-.915.777-1.4.016-2.21-1.2-1.276-2.361-2.6-3.442-3.98a5.324,5.324,0,0,1-.047-7.118c1.008-1.183.6-1.748-.179-2.631q-7.028-8.009-14-16.069C13.5,3.126,12.14,2.036,13.734.605,15.307-.807,16.255.55,17.2,1.644c4.6,5.3,9.221,10.59,13.8,15.91.849.986,1.347,1.8,2.938.708,2.1-1.447,4.8-.866,6.665.9a13.477,13.477,0,0,1,1.511,1.674c1.639,2.185,2.939,4.315,6.224,1.644,1.991-1.619,4.84-.39,7.007,2.1q13.914,15.98,27.8,31.984C88.033,62.183,92.94,67.774,97.76,73.44c1,1.169,1.723,1.569,2.845.256a13.451,13.451,0,0,1,1.868-1.669,5.488,5.488,0,0,1,8.023.661,5.651,5.651,0,0,1-.308,8.087c-.835.816-1.8,1.5-2.631,2.321a2.175,2.175,0,0,1-3.126.25c-.81-1.342-.332-2.336.789-3.239a25.4,25.4,0,0,0,2.581-2.369,1.772,1.772,0,0,0-.194-2.672,1.7,1.7,0,0,0-2.463-.284c-.6.457-1.168.945-1.732,1.44Q89.557,88.36,75.7,100.5c-1.213,1.06-2.365,2.155-.934,3.735,1.382,1.525,2.522.369,3.617-.591q9.136-8.016,18.271-16.033c1.077-.951,2.089-1.715,3.5-.673,1.247,2.238-.563,3.225-1.884,4.252-1.464,1.137-1.729,1.933-.325,3.473,4.339,4.756,8.548,9.634,12.672,14.579,1.1,1.313,1.712,1.027,2.71.076,1.451-1.383,2.952-2.722,4.515-3.976a5.8,5.8,0,0,1,8.125.53,5.65,5.65,0,0,1-.384,8.116q-7.425,6.748-15.094,13.225c-2.5,2.124-5.629,1.7-7.81-.776s-2.2-5.612.106-7.877c1.608-1.581,3.331-3.053,5.083-4.474.909-.736,1.041-1.208.2-2.155q-6.817-7.7-13.486-15.529c-.812-.953-1.261-.878-2.127-.1q-5.881,5.279-11.876,10.43c-3.176,2.747-6.378,2.658-8.776-.173-2.357-2.782-1.995-5.8,1.026-8.545,2.71-2.462,2.714-2.465.393-5.163-1.143-1.328-2.3-2.642-3.475-3.985-.819.643-.425,1.45-.427,2.121-.031,9.954-.014,19.908-.025,29.863-.006,5.147-2.536,7.675-7.687,7.684-7.027.013-14.054-.052-21.079.035-2.193.027-4.039-1.51-5.814-1.556-1.754-.046-3.632,1.589-5.845,1.56-7.109-.1-14.22-.021-21.33-.041-4.825-.013-7.491-2.635-7.52-7.388C0,116.71.054,112.276,0,107.843c-.018-1.5.279-2.655,1.964-2.96,1.826.4,2.037,1.774,1.888,3.275-.135,1.355.252,1.876,1.737,1.852,6.327-.106,12.656-.087,18.984-.113,2.245.03,4.491.022,6.733.1,1.047.039,1.475-.263,1.464-1.388-.049-4.91-.041-9.82-.007-14.729.008-1.081-.4-1.467-1.468-1.427-2.242.084-4.487.086-6.73.123-5.91-.032-11.824.052-17.727-.154-2.361-.083-3.368.465-3,2.954.213,1.45.05,2.909-1.877,3.219M67.352,51.692l-.582-.5.032.026c-1.053-1.762.065-2.789,1.319-3.694,1.023-.738,1.1-1.343.2-2.3-4.438-4.693-2.373-4.71-7.4-.482a1.819,1.819,0,0,0-.275.4c-1.2.647-2.323,2.332-3.806.645-1.514-1.722.228-2.579,1.191-3.6a3.073,3.073,0,0,0,.275-.4c4.4-3.177,4.333-3.121.844-7.147-1.085-1.252-1.764-1.168-2.734-.074a2.786,2.786,0,0,1-3.134.995l.036.05-.575-.534.05.037c-.719-1.624.162-2.615,1.315-3.59.456-.385,1.394-.578.826-1.7-2.335-4.608-4.76-5-8.319-1.228-3.856,3.318-7.672,6.684-11.587,9.932-1.787,1.483-1.7,2.745-.221,4.382q4.706,5.2,9.21,10.584a3.433,3.433,0,0,0,2.987,1.362c4.176-.075,8.354.011,12.53-.044,1.977-.026,2.968.729,2.888,2.8-.075,1.918-.021,3.842-.024,5.763a1.929,1.929,0,0,1-1.661,2.146c-1,.2-2.58-.456-2.372,1.585.124,1.212-.285,2.476.691,3.575,2.218,2.5,4.376,5.048,6.524,7.606.578.688.992.905,1.776.2,4.142-3.748,8.334-7.442,12.509-11.154.708-.561,1.381-1.174,2.131-1.673,1.9-1.265,2.337-2.289.444-4.268-3.981-4.159-3.833-4.3-8.052-.136-1.305.907-2.7,2.2-3.958.095-.874-1.464.685-2.186,1.371-3.143.33-.242.68-.46.987-.728,3.58-3.134,3.5-3.069.35-6.748-1.157-1.352-1.907-1.225-2.928-.077a2.721,2.721,0,0,1-2.894.992ZM24.6,113.95c-6.428-.049-12.855-.08-19.282-.162-1.044-.014-1.505.258-1.467,1.391.074,2.17.014,4.344.033,6.516a2.686,2.686,0,0,0,2.94,3c5.758,0,11.517-.075,17.275-.122,1.906.044,3.815.152,5.719.113a2.686,2.686,0,0,0,2.913-3c.011-2.162-.042-4.327.029-6.487.036-1.1-.373-1.451-1.44-1.4-2.238.1-4.48.108-6.72.154M57.23,124.578c1.744.051,3.489.152,5.233.139,2.038-.016,3.048-1.191,3.107-3.153.062-2.084-.037-4.174.041-6.256.047-1.257-.512-1.579-1.643-1.533-2.245.092-4.493.11-6.739.159-4.427-.043-8.856-.151-13.282-.1-2.387.026-5.748-1.094-6.906.443-1.219,1.617-.386,4.791-.424,7.285a2.764,2.764,0,0,0,3.069,3.141c5.848,0,11.7-.075,17.545-.121m-41.2-52A3,3,0,0,0,12.566,73.8c-2.233,2.813-4.588,5.533-6.965,8.227a7.769,7.769,0,0,0-1.793,5.321c-.019,1.068.369,1.463,1.463,1.451,6.435-.07,12.87-.084,19.3-.118,1.577.038,3.153.1,4.731.109,3.665.017,4.4-1.057,3.04-4.557a7.791,7.791,0,0,0-1.285-2.11c-2.391-2.878-4.84-5.708-7.246-8.574a2.365,2.365,0,0,0-2.058-1.127c-1.9.109-3.814.113-5.721.16m32.629,0a2.813,2.813,0,0,0-3.259,1.143c-2.306,2.866-4.731,5.636-7.136,8.422a7.5,7.5,0,0,0-1.708,5.1c-.012,1.2.365,1.579,1.577,1.563,6.355-.085,12.71-.091,19.065-.124,1.578.038,3.157.1,4.735.108,3.91.016,4.666-1.177,3.063-4.862a6.9,6.9,0,0,0-1.073-1.667c-2.475-2.922-4.987-5.812-7.465-8.731a2.386,2.386,0,0,0-2.072-1.109c-1.906.11-3.818.112-5.728.159m8.55,37.32c2.253.03,4.51-.009,6.759.114,1.392.076,1.663-.517,1.648-1.76q-.086-7.017,0-14.035c.013-1.232-.265-1.854-1.661-1.776-2.248.125-4.5.1-6.756.133-6.339-.03-12.679-.02-19.017-.122-1.449-.024-1.6.618-1.59,1.794.045,4.672.054,9.345-.006,14.017-.015,1.221.2,1.764,1.607,1.742,6.339-.1,12.679-.082,19.019-.107m50.15,14.739c.342.027.8-.34,1.245-.727q6.949-6.094,13.9-12.19c1.084-.947,1.579-2.025.564-3.231-1.042-1.236-2.188-.847-3.255.1q-3.651,3.225-7.315,6.437-3.379,2.966-6.765,5.925a1.935,1.935,0,0,0-.649,2.445,2.142,2.142,0,0,0,2.279,1.246M73.353,87.151c.849,1.011,1.636,1.975,2.452,2.911,2.661,3.055,2.665,3.052,5.625.425,4.816-4.273,4.8-4.253.333-8.857-.736-.759-1.176-.9-1.994-.147-2.074,1.914-4.226,3.743-6.416,5.667m22.83-9.778c-.852-1-1.648-1.955-2.464-2.89-2.572-2.944-2.575-2.942-5.475-.39-4.848,4.266-4.848,4.265-.4,8.865a1.544,1.544,0,0,1,.163.19c.464.674.917.816,1.6.188,1.911-1.747,3.879-3.432,5.818-5.149.235-.208.431-.461.756-.814M36.457,21.252a8.678,8.678,0,0,0-1.021.45c-4.91,2.858-5.071,4.317-1.6,8.675,1.579,1.984,2.533,2.246,4.478.393,4.343-4.138,4.445-4.021.158-8.413a2.993,2.993,0,0,0-2.014-1.106M70.682,84.308c.588-.44.928-.66,1.23-.924,5.215-4.556,10.413-9.133,15.652-13.664.9-.776.975-1.323.145-2.225-.749-.813-1.243-.806-2.039-.1-5.247,4.648-10.526,9.26-15.793,13.886-.429.378-.988.733-.442,1.426.408.518.81,1.04,1.247,1.6M18.09,61.779c2.088,0,4.178-.048,6.263.019,1.145.037,1.65-.271,1.633-1.528-.015-1.181-.378-1.613-1.584-1.6q-6.137.081-12.276,0c-1.292-.019-1.493.575-1.5,1.675s.363,1.48,1.449,1.448c2-.06,4.008-.017,6.013-.017m32.979,0c2.083,0,4.166-.048,6.246.019,1.112.036,1.416-.4,1.408-1.457s-.133-1.7-1.46-1.677c-4.08.069-8.163.063-12.243,0-1.229-.018-1.54.444-1.557,1.6-.017,1.236.453,1.572,1.609,1.53,2-.072,4-.02,6-.02M18.246,68.75c.669,0,1.34-.043,2,.01,1.093.086,1.695-.168,1.7-1.472s-.38-1.824-1.714-1.745c-1.5.089-3.006.022-4.51.034-1.144.009-1.031.85-1.03,1.6s-.123,1.584,1.044,1.568c.835-.012,1.671,0,2.506,0m32.523,0c.945,0,1.694-.043,2.436.011,1.027.073,1.545-.25,1.477-1.383-.055-.935.1-1.864-1.326-1.8-1.489.064-2.985.063-4.474,0-1.153-.048-1.353.539-1.36,1.52-.024,3.059,2.359.987,3.246,1.655" transform="translate(0 0)" fill="#070807"/>
        <path id="Trazado_715564" data-name="Trazado 715564" d="M3.9,190.167c1.927-.31,2.09-1.77,1.877-3.219-.366-2.489.64-3.036,3-2.954,5.9.206,11.818.122,17.728.154l.014,7.171c-3.919.033-7.838.082-11.756.087-1.434,0-2.832.071-2.757,1.985.069,1.787,1.474,1.705,2.757,1.713q5.879.038,11.756.1,0,3.132-.006,6.264c-6.328.026-12.657.006-18.984.113-1.485.025-1.872-.5-1.737-1.851.149-1.5-.062-2.875-1.888-3.275q0-3.143-.006-6.285" transform="translate(-1.941 -91.569)" fill="#fce76e"/>
        <path id="Trazado_715565" data-name="Trazado 715565" d="M173.58,160.625c-1.413-1.042-2.424-.279-3.5.673q-9.11,8.045-18.271,16.033c-1.095.96-2.234,2.117-3.617.591-1.431-1.579-.279-2.675.934-3.735q13.867-12.124,27.709-24.278c.565-.495,1.137-.983,1.732-1.44a1.7,1.7,0,0,1,2.463.285,1.771,1.771,0,0,1,.194,2.671,25.391,25.391,0,0,1-2.581,2.369c-1.121.9-1.6,1.9-.789,3.239l-4.274,3.591" transform="translate(-73.423 -73.688)" fill="#b4bdc6"/>
        <path id="Trazado_715566" data-name="Trazado 715566" d="M91.688,70.124a3.059,3.059,0,0,1-.275.4c-.963,1.021-2.705,1.878-1.191,3.6,1.483,1.687,2.6,0,3.806-.645.392.4.761.833,1.18,1.208,1.729,1.549,2.71,3.864,4.974,4.864l-.032-.026.582.5-.035-.045c-.133.756.472,1.16.772,1.726.968,1.831,3.072,2.772,3.715,4.835-.687.958-2.245,1.68-1.371,3.143,1.254,2.1,2.652.812,3.957-.094a20.3,20.3,0,0,1,5.478,6.076c-4.175,3.713-8.366,7.406-12.509,11.154-.785.71-1.2.492-1.776-.2-2.148-2.558-4.307-5.108-6.524-7.606-.976-1.1-.567-2.364-.69-3.576-.208-2.041,1.375-1.382,2.371-1.585a1.929,1.929,0,0,0,1.661-2.147c0-1.921-.051-3.845.024-5.763.08-2.072-.911-2.826-2.888-2.8-4.176.055-8.354-.031-12.53.044A3.433,3.433,0,0,1,77.4,81.832q-4.516-5.368-9.21-10.584c-1.481-1.638-1.567-2.9.221-4.382,3.914-3.248,7.73-6.614,11.587-9.933,1.818,2.4,3.405,5.021,6.178,6.517l-.049-.037.575.534-.036-.049c.89,2.709,2.938,4.483,5.024,6.227" transform="translate(-33.382 -28.335)" fill="#f9e56d"/>
        <path id="Trazado_715567" data-name="Trazado 715567" d="M93.465,201.5c-6.34.025-12.68.008-19.019.107-1.41.022-1.622-.521-1.607-1.742.059-4.672.05-9.345.005-14.017-.011-1.177.141-1.818,1.591-1.794,6.338.1,12.678.092,19.017.122q0,3.59.01,7.179c-3.917.031-7.834.092-11.751.076-1.4-.006-2.656.235-2.666,1.868-.01,1.668,1.293,1.85,2.667,1.848,3.917-.005,7.834.051,11.751.083q0,3.135,0,6.27" transform="translate(-36.251 -91.604)" fill="#9fe1f6"/>
        <path id="Trazado_715568" data-name="Trazado 715568" d="M93.429,160.455c-6.355.034-12.71.039-19.065.125-1.213.017-1.59-.364-1.578-1.563a7.505,7.505,0,0,1,1.708-5.1c2.4-2.785,4.83-5.556,7.135-8.422a2.814,2.814,0,0,1,3.259-1.143,15.985,15.985,0,0,0,2.429,3.424c3.059,3.72,7.242,6.93,6.111,12.678" transform="translate(-36.225 -71.773)" fill="#f3f5f8"/>
        <path id="Trazado_715569" data-name="Trazado 715569" d="M28.347,160.451c-6.435.033-12.87.048-19.3.118-1.094.012-1.482-.382-1.463-1.451A7.768,7.768,0,0,1,9.372,153.8c2.378-2.694,4.732-5.414,6.966-8.228a3,3,0,0,1,3.468-1.219c.764,2.387,2.683,3.93,4.271,5.682,2.7,2.983,5.038,6.045,4.27,10.418" transform="translate(-3.772 -71.769)" fill="#f3f5f8"/>
        <path id="Trazado_715570" data-name="Trazado 715570" d="M93.269,237c-5.849.046-11.7.121-17.545.121a2.765,2.765,0,0,1-3.069-3.141c.038-2.494-.795-5.668.424-7.285,1.158-1.537,4.518-.417,6.906-.443,4.426-.048,8.855.06,13.282.1q0,5.322,0,10.645" transform="translate(-36.039 -112.417)" fill="#f4f6f9"/>
        <path id="Trazado_715571" data-name="Trazado 715571" d="M27.9,237.312c-5.758.046-11.517.124-17.275.122a2.687,2.687,0,0,1-2.94-3c-.019-2.172.042-4.346-.032-6.516-.039-1.133.423-1.4,1.467-1.391,6.427.081,12.855.114,19.282.162-.2,3.538.47,7.117-.5,10.619" transform="translate(-3.808 -112.742)" fill="#f4f6f9"/>
        <path id="Trazado_715572" data-name="Trazado 715572" d="M113.889,201.487q0-3.135,0-6.27c1.129-.186,2.061-.563,2.073-1.953.013-1.419-.947-1.752-2.074-1.922q0-3.59-.01-7.179c2.252-.037,4.508-.009,6.756-.133,1.4-.077,1.674.544,1.661,1.776q-.074,7.017,0,14.035c.015,1.243-.257,1.836-1.648,1.76-2.248-.123-4.506-.084-6.759-.114" transform="translate(-56.675 -91.587)" fill="#7fcee7"/>
        <path id="Trazado_715573" data-name="Trazado 715573" d="M48.92,191.356q-.007-3.586-.014-7.172c2.244-.036,4.489-.038,6.73-.123,1.067-.04,1.476.346,1.468,1.427-.034,4.91-.042,9.82.007,14.729.011,1.126-.417,1.427-1.464,1.388-2.243-.083-4.489-.075-6.733-.1q0-3.132.005-6.264c1.165-.212,2.041-.737,1.984-2.077-.052-1.226-.932-1.631-1.984-1.8" transform="translate(-24.34 -91.604)" fill="#f1d537"/>
        <path id="Trazado_715574" data-name="Trazado 715574" d="M105.421,160.433c1.132-5.748-3.052-8.958-6.111-12.678a15.986,15.986,0,0,1-2.429-3.424c1.91-.047,3.822-.049,5.727-.159a2.386,2.386,0,0,1,2.072,1.109c2.478,2.919,4.991,5.81,7.466,8.732a6.912,6.912,0,0,1,1.073,1.667c1.6,3.685.847,4.878-3.064,4.862-1.578-.006-3.157-.07-4.735-.108" transform="translate(-48.217 -71.751)" fill="#e0e2e5"/>
        <path id="Trazado_715575" data-name="Trazado 715575" d="M40.462,160.434c.768-4.374-1.567-7.435-4.27-10.418-1.588-1.752-3.508-3.3-4.271-5.682,1.908-.047,3.818-.05,5.722-.159A2.363,2.363,0,0,1,39.7,145.3c2.406,2.866,4.855,5.7,7.247,8.574a7.8,7.8,0,0,1,1.285,2.11c1.355,3.5.625,4.574-3.04,4.557-1.577-.007-3.153-.071-4.73-.109" transform="translate(-15.887 -71.752)" fill="#e0e2e5"/>
        <path id="Trazado_715576" data-name="Trazado 715576" d="M211.28,231.36A2.142,2.142,0,0,1,209,230.115a1.935,1.935,0,0,1,.649-2.445q3.382-2.963,6.765-5.925,3.661-3.214,7.315-6.437c1.067-.942,2.214-1.332,3.255-.095,1.016,1.206.521,2.283-.564,3.23q-6.961,6.081-13.9,12.19c-.442.388-.9.754-1.245.727" transform="translate(-103.916 -106.722)" fill="#38b9e5"/>
        <path id="Trazado_715577" data-name="Trazado 715577" d="M113.933,237.3q0-5.322,0-10.645c2.246-.049,4.495-.067,6.739-.159,1.13-.046,1.69.276,1.643,1.533-.078,2.083.022,4.173-.041,6.257-.059,1.962-1.068,3.137-3.106,3.152-1.744.013-3.488-.087-5.233-.138" transform="translate(-56.703 -112.725)" fill="#e0e2e5"/>
        <path id="Trazado_715578" data-name="Trazado 715578" d="M47.965,237.316c.971-3.5.3-7.081.5-10.619,2.24-.046,4.483-.055,6.72-.155,1.067-.047,1.476.3,1.44,1.4-.07,2.16-.019,4.325-.029,6.487a2.686,2.686,0,0,1-2.913,3c-1.9.039-3.813-.069-5.719-.112" transform="translate(-23.872 -112.746)" fill="#edeff2"/>
        <path id="Trazado_715579" data-name="Trazado 715579" d="M146.031,167.393c2.19-1.923,4.342-3.752,6.416-5.666.818-.756,1.258-.613,1.994.147,4.462,4.6,4.483,4.584-.333,8.856-2.96,2.626-2.965,2.63-5.625-.425-.816-.937-1.6-1.9-2.452-2.912" transform="translate(-72.678 -80.241)" fill="#edeff2"/>
        <path id="Trazado_715580" data-name="Trazado 715580" d="M179.96,148.936c-.325.353-.521.606-.756.814-1.939,1.717-3.907,3.4-5.818,5.149-.687.627-1.14.485-1.6-.189a1.579,1.579,0,0,0-.163-.19c-4.446-4.6-4.446-4.6.4-8.864,2.9-2.552,2.9-2.554,5.475.39.817.935,1.612,1.889,2.464,2.89" transform="translate(-83.778 -71.562)" fill="#edeff2"/>
        <path id="Trazado_715581" data-name="Trazado 715581" d="M67.625,42.308a2.99,2.99,0,0,1,2.014,1.106c4.287,4.391,4.185,4.275-.158,8.413-1.945,1.854-2.9,1.59-4.478-.393-3.469-4.358-3.309-5.817,1.6-8.675a8.775,8.775,0,0,1,1.021-.45" transform="translate(-31.169 -21.056)" fill="#38b9e5"/>
        <path id="Trazado_715582" data-name="Trazado 715582" d="M139.253,150.569c-.437-.562-.839-1.084-1.248-1.6-.546-.692.013-1.048.443-1.426,5.266-4.627,10.546-9.238,15.793-13.886.8-.7,1.289-.712,2.039.1.831.9.753,1.449-.145,2.225-5.238,4.531-10.436,9.108-15.652,13.664-.3.264-.641.484-1.229.924" transform="translate(-68.571 -66.261)" fill="#38b9e5"/>
        <path id="Trazado_715583" data-name="Trazado 715583" d="M28.621,119.912c-2,0-4.01-.043-6.013.017-1.086.033-1.454-.362-1.449-1.448s.206-1.694,1.5-1.675q6.138.089,12.276,0c1.207-.016,1.569.416,1.584,1.6.016,1.256-.488,1.564-1.633,1.527-2.086-.066-4.175-.019-6.263-.019" transform="translate(-10.531 -58.133)" fill="#f1bb00"/>
        <path id="Trazado_715584" data-name="Trazado 715584" d="M153.571,125a20.3,20.3,0,0,0-5.478-6.076c4.22-4.165,4.072-4.023,8.053.135,1.894,1.979,1.453,3-.444,4.268-.749.5-1.423,1.112-2.131,1.673" transform="translate(-73.705 -57.667)" fill="#f6d932"/>
        <path id="Trazado_715585" data-name="Trazado 715585" d="M94.132,119.909c-2,0-4-.051-6,.021-1.156.041-1.626-.294-1.609-1.531.016-1.159.328-1.62,1.557-1.6,4.08.061,8.163.067,12.243,0,1.327-.023,1.453.606,1.46,1.677s-.3,1.493-1.408,1.457c-2.08-.067-4.164-.02-6.246-.02" transform="translate(-43.064 -58.127)" fill="#38b9e5"/>
        <path id="Trazado_715586" data-name="Trazado 715586" d="M98.98,60.918c-2.773-1.5-4.36-4.116-6.178-6.517,3.559-3.767,5.983-3.379,8.319,1.228.568,1.121-.37,1.313-.826,1.7-1.152.975-2.033,1.965-1.315,3.59" transform="translate(-46.187 -25.803)" fill="#f6d932"/>
        <path id="Trazado_715587" data-name="Trazado 715587" d="M126.89,92.47c-2.264-1-3.245-3.315-4.974-4.864-.418-.375-.788-.8-1.18-1.208a1.829,1.829,0,0,1,.276-.4c5.023-4.228,2.959-4.21,7.4.482.9.953.824,1.559-.2,2.3-1.254.9-2.372,1.932-1.319,3.693" transform="translate(-60.089 -41.254)" fill="#f6d932"/>
        <path id="Trazado_715588" data-name="Trazado 715588" d="M111.1,75.2c-2.086-1.744-4.134-3.518-5.024-6.227a2.786,2.786,0,0,0,3.134-.995c.969-1.094,1.648-1.178,2.734.074,3.49,4.026,3.553,3.971-.844,7.147" transform="translate(-52.793 -33.415)" fill="#f6d932"/>
        <path id="Trazado_715589" data-name="Trazado 715589" d="M138.481,107.507c-.642-2.063-2.747-3-3.715-4.835-.3-.566-.9-.97-.772-1.726a2.72,2.72,0,0,0,2.894-.992c1.021-1.148,1.771-1.275,2.928.077,3.15,3.678,3.23,3.613-.35,6.748-.306.268-.657.486-.987.728" transform="translate(-66.679 -49.299)" fill="#f6d932"/>
        <path id="Trazado_715590" data-name="Trazado 715590" d="M32.8,133.681c-.835,0-1.671-.012-2.506,0-1.167.016-1.043-.82-1.044-1.568s-.115-1.592,1.03-1.6c1.5-.012,3.011.056,4.51-.034,1.335-.079,1.719.456,1.714,1.745s-.607,1.558-1.7,1.471c-.664-.052-1.336-.01-2-.013" transform="translate(-14.557 -64.934)" fill="#b4bdc6"/>
        <path id="Trazado_715591" data-name="Trazado 715591" d="M97.853,133.719c-.888-.668-3.271,1.4-3.246-1.655.008-.982.207-1.569,1.36-1.521,1.489.062,2.985.063,4.474,0,1.429-.061,1.271.867,1.326,1.8.067,1.133-.45,1.457-1.477,1.383-.742-.053-1.491-.011-2.436-.011" transform="translate(-47.085 -64.969)" fill="#b4bdc6"/>
        <path id="Trazado_715592" data-name="Trazado 715592" d="M133.507,102.412l-.582-.5.582.5" transform="translate(-66.156 -50.72)" fill="#f6d932"/>
        <path id="Trazado_715593" data-name="Trazado 715593" d="M105.578,70.367,105,69.833l.575.534" transform="translate(-52.259 -34.755)" fill="#f6d932"/>
        <path id="Trazado_715594" data-name="Trazado 715594" d="M34.551,198.586c1.052.173,1.932.578,1.984,1.8.057,1.34-.819,1.864-1.984,2.077q-5.878-.049-11.756-.1c-1.283-.009-2.688.073-2.757-1.714-.074-1.914,1.323-1.982,2.757-1.984,3.919-.006,7.838-.055,11.756-.087" transform="translate(-9.971 -98.835)" fill="#030301"/>
        <path id="Trazado_715595" data-name="Trazado 715595" d="M99.611,198.592c1.126.171,2.086.5,2.073,1.922-.012,1.39-.944,1.767-2.073,1.953-3.917-.032-7.834-.087-11.751-.082-1.374,0-2.676-.18-2.667-1.849.01-1.632,1.267-1.873,2.666-1.868,3.917.016,7.834-.045,11.751-.076" transform="translate(-42.4 -98.838)" fill="#030301"/>
      </g>
    </g>
  </g>
</svg>
