<svg xmlns="http://www.w3.org/2000/svg" xmlns:xlink="http://www.w3.org/1999/xlink" width="129" height="129" viewBox="0 0 129 129">
  <defs>
    <clipPath id="clip-path">
      <rect id="Rectángulo_353242" data-name="Rectángulo 353242" width="105.379" height="105.368" fill="none"/>
    </clipPath>
  </defs>
  <g id="Grupo_1003256" data-name="Grupo 1003256" transform="translate(-6174 6412)">
    <circle id="Elipse_5706" data-name="Elipse 5706" cx="64.5" cy="64.5" r="64.5" transform="translate(6174 -6412)" fill="#06d1d1"/>
    <g id="Grupo_1003116" data-name="Grupo 1003116" transform="translate(6188.646 -6412)">
      <g id="Grupo_1003115" data-name="Grupo 1003115" clip-path="url(#clip-path)">
        <path id="Trazado_715360" data-name="Trazado 715360" d="M82.472,105.364q-9.849,0-19.7,0c-1.048,0-2.07-.02-2.715-1.052-.955-1.529.1-3.278,2.126-3.324,3.213-.074,6.429-.027,9.643-.028q13.337,0,26.674,0c2.156,0,2.371-.27,1.508-2.2a16,16,0,0,0-10.142-8.947,4.176,4.176,0,0,1-3.145-3.321A17.727,17.727,0,0,0,77.2,74.529a4.36,4.36,0,0,1-2.562-3.371c-1.715-8.778-8.523-14.538-17.8-14.985a54.808,54.808,0,0,0-10.442.218A18.031,18.031,0,0,0,30.8,71.122a4.363,4.363,0,0,1-2.534,3.393,17.82,17.82,0,0,0-9.607,12.136A4.013,4.013,0,0,1,15.6,89.8,16.1,16.1,0,0,0,5.433,98.724c-.877,1.945-.66,2.231,1.46,2.233q17.338.014,34.676.005c.616,0,1.232,0,1.847.019a2.177,2.177,0,1,1,.071,4.352c-.476.041-.957.031-1.435.031q-19.185,0-38.369,0c-3.222,0-3.973-.676-3.591-3.891C.966,94.105,5.477,89.431,11.852,86.3c3.169-1.556,3.2-1.6,1.309-4.586C8.372,74.156,5.553,66,5.782,56.941,5.962,49.832,9.146,44.1,13.93,39.1a2.4,2.4,0,0,1,4.283,1.542,24.361,24.361,0,0,0,.635,4.866c1.037,3.315,3.642,4.835,6.777,3.912A5.737,5.737,0,0,0,29.7,42.061a20,20,0,0,0-1.315-3C24.816,32.1,25.1,25.12,28.2,18.1c.531-1.2,1.185-2.224,2.7-2.039,1.633.2,1.97,1.469,2.173,2.817a11.782,11.782,0,0,0,7.068,9.405c4.279,1.993,7.96,1.044,10.531-2.922,3.75-5.785,3.541-12.022,1.654-18.354A26.574,26.574,0,0,0,51.1,3.97c-.486-1.107-.884-2.22.1-3.242,1.028-1.072,2.237-.768,3.428-.3A24.556,24.556,0,0,1,65.411,8.671C71.317,16.535,72.892,25.205,70,34.65A21.838,21.838,0,0,0,68.76,39.4c-.26,3.536,1.9,6.123,5.231,6.275a5.513,5.513,0,0,0,6.117-5.67c.057-2.119-.036-4.242.044-6.36.1-2.6,1.745-3.595,4.017-2.323,8.85,4.956,14.1,12.454,15.018,22.59.928,10.216-1.947,19.607-7.164,28.33-1.486,2.484-1.423,2.7,1.175,3.9,6.022,2.77,10.381,7.021,11.9,13.7a11.884,11.884,0,0,1,.276,2.435c.039,2.394-.6,3.07-3,3.077-6.634.022-13.268.008-19.9.008M30.654,25.83A17.334,17.334,0,0,0,32.13,36.289a40.356,40.356,0,0,1,1.956,4.5A10.375,10.375,0,0,1,27.735,53.6c-5.567,1.977-10.729-.395-12.995-5.954-.163-.4-.145-.981-.909-1.1a19.4,19.4,0,0,0-3.57,12.313,41.051,41.051,0,0,0,5.563,18.483c.7,1.24,1.164,1.53,2.066.173A19.416,19.416,0,0,1,24.6,71.3a4.566,4.566,0,0,0,2.182-3c2.644-8.627,8.356-14.077,17.164-16.16,3.705-.876,7.5-.258,11.243-.435,8-.378,14.564,2.463,19.564,8.767.538.679,1.024,1,1.887.525,2.864-1.586,6-1.026,9.049-1.024a1.821,1.821,0,0,1,1.959,1.744c.095,3.052,1.008,6.5-.968,8.99-2.3,2.9-1.18,4.531.77,6.725,1.326,1.493,1.621.939,2.284-.358a47.581,47.581,0,0,0,4.9-16.823c.856-8.042-1.346-15-7.03-20.788-.7-.715-1.469-1.985-2.374-1.7-.924.292-.347,1.7-.408,2.6a10.523,10.523,0,0,1-11.329,9.966,10.341,10.341,0,0,1-9.386-11.339,29.959,29.959,0,0,1,1.644-6.124c2.487-8.267.669-15.652-4.647-22.275A9.553,9.553,0,0,0,57.668,7.55c-.119.173-.2.236-.19.285.163,1.006.38,2.006.5,3.017.719,6.153-.006,12.035-3.618,17.258-3.754,5.429-8.854,7.007-15.068,4.8-3.538-1.256-6.193-3.643-8.637-7.082M81.526,64.395c-.961.428-3.024-.176-3.39,1.844-.307,1.7,1.344,4.566,2.275,4.637,1.241.094,2.8-2.557,2.921-4.9.053-1.034-.15-1.778-1.806-1.585" transform="translate(0 0)"/>
        <path id="Trazado_715361" data-name="Trazado 715361" d="M78.067,195.983c5.856,0,9.814,2.566,11.231,7.328.736,2.474.383,5.02.318,7.537a1.7,1.7,0,0,1-1.524,1.707c-4.7.4-9.311.566-12.789-3.6-2.908-3.485-2.5-7.518-2.1-11.516.138-1.365,1.593-1.485,2.815-1.455.683.017,1.367,0,2.05,0m.69,4.421c-1.005-.114-1.365.4-1.368,1.443a6.474,6.474,0,0,0,6.567,6.449c.958-.039,1.306-.414,1.339-1.36a6.443,6.443,0,0,0-6.538-6.532" transform="translate(-42.991 -115.542)"/>
        <path id="Trazado_715362" data-name="Trazado 715362" d="M143,207.195c-.4-4.377,1.534-7.878,5.618-10.193,2.982-1.691,6.25-1.086,9.433-.978a1.808,1.808,0,0,1,1.545,1.464,12.915,12.915,0,0,1-3.786,12.913c-3.4,2.858-7.415,2.385-11.344,2-1.368-.135-1.5-1.579-1.471-2.8.017-.683,0-1.366,0-2.4m5.82,1a6.413,6.413,0,0,0,6.486-6.383c.01-1.01-.291-1.489-1.39-1.511a6.481,6.481,0,0,0-6.515,6.5c.019,1.084.466,1.5,1.42,1.389" transform="translate(-84.28 -115.456)"/>
        <path id="Trazado_715363" data-name="Trazado 715363" d="M113.945,164.449a2.14,2.14,0,0,1-1.22,2.206,2.36,2.36,0,0,1-2.8-.616c-1.94-1.924-3.928-3.8-5.789-5.8a4.37,4.37,0,0,0-3.774-1.57,48.622,48.622,0,0,1-4.916,0,2.171,2.171,0,1,1-.041-4.341c1.432-.06,2.87-.077,4.3-.022,1.247.048,1.725-.482,1.673-1.7-.055-1.3-.007-2.6,0-3.893.005-1.5.591-2.579,2.243-2.559a1.961,1.961,0,0,1,2.1,2.443c-1.185,5.808,1.967,9.469,5.966,12.836,1.007.847,2.21,1.691,2.261,3.025" transform="translate(-54.959 -86.162)"/>
      </g>
    </g>
  </g>
</svg>
