<svg xmlns="http://www.w3.org/2000/svg" xmlns:xlink="http://www.w3.org/1999/xlink" width="129" height="129" viewBox="0 0 129 129">
  <defs>
    <clipPath id="clip-path">
      <rect id="Rectángulo_353199" data-name="Rectángulo 353199" width="103.621" height="124.389" fill="none"/>
    </clipPath>
  </defs>
  <g id="Grupo_1003247" data-name="Grupo 1003247" transform="translate(-8523 10439)">
    <circle id="Elipse_5697" data-name="Elipse 5697" cx="64.5" cy="64.5" r="64.5" transform="translate(8523 -10439)" fill="#b20d0d"/>
    <g id="Grupo_1003065" data-name="Grupo 1003065" transform="translate(8535.689 -10437.071)">
      <g id="Grupo_1003064" data-name="Grupo 1003064" clip-path="url(#clip-path)">
        <path id="Trazado_715291" data-name="Trazado 715291" d="M24.416,29.112c-1.959.119-2.847-.829-3.275-2.743A16.572,16.572,0,0,1,39.73,6.435a2.823,2.823,0,0,0,3.034-1.1A14.4,14.4,0,0,1,67.178,8.715c.564,1.251.994,1.815,2.581,1.713A16.417,16.417,0,0,1,85.84,20.712a16.693,16.693,0,0,1-4.3,18.639c-.609.552-2.075.852-1.172,2.182,1.067,1.572.314,4.3,3.4,4.627a27.492,27.492,0,0,1,13.454,5.068,17.532,17.532,0,0,1,5.839,7c1.623,3.584-.378,6.544-4.318,6.42-.638-.02-1.219-.212-1.749.427-3.638,4.384-8.561,5.476-13.944,5.373-2.66-.052-2.7-.014-1.608,2.409a30.073,30.073,0,0,0,1.876,3.381C86.535,81.463,84.679,87.829,79,90.176c-1.7.7-1.844,1.385-1.493,2.98,1.446,6.558,4.42,12.455,7.626,18.262,1.119,2.027,1.9,4.08,1.339,6.47a7.812,7.812,0,0,1-5.6,6.107,7.551,7.551,0,0,1-7.84-1.887,66.825,66.825,0,0,1-7.955-9.411c-.737,1.7-1.362,3.257-2.08,4.772a11.475,11.475,0,0,1-21.74-2.146c-.563-2.324-.957-4.689-1.493-7.364a66.05,66.05,0,0,1-7.306,6.818c-3.253,2.524-6.749,3.2-10.378,1.1-3.6-2.078-4.9-5.338-4.345-9.481a40.046,40.046,0,0,0,.588-8.629c-1.6,1.388-3.025,2.777-4.6,3.951a8.5,8.5,0,0,1-11.766-1.193,8.243,8.243,0,0,1,.925-11.582,22.691,22.691,0,0,0,7.6-17.926,68.6,68.6,0,0,1,2.172-17.772A43.116,43.116,0,0,1,25.755,31.336c3.233-1.972,6.334-4.15,9.9-5.564,14.458-5.731,31.429-3.686,41.255,9.811.94,1.291,1.571.864,2.459-.006a12.249,12.249,0,0,0,2.106-14.33,12.407,12.407,0,0,0-13.421-6.475c-3.009.6-3.432.34-4.057-2.453a10.222,10.222,0,0,0-7.955-7.9A10.055,10.055,0,0,0,45.067,9.309c-1.05,1.854-2.256,2.355-4.143,1.663-7.181-2.636-17.712,3.29-15.66,14.613a3.777,3.777,0,0,1-.848,3.527m26.569-2.128c-15.191.609-26.394,7.24-32.382,21.624C15.571,55.89,14.57,63.6,14.577,71.4c.008,8.079-2.688,14.849-8.637,20.314a4.615,4.615,0,0,0-1.671,2.866A3.9,3.9,0,0,0,6.2,98.708a4.353,4.353,0,0,0,5.207-.383,45,45,0,0,0,7.079-7.637c.792-.981,1.584-1.9,3.036-1.365,1.382.511,1.27,1.7,1.272,2.839a106.531,106.531,0,0,1-.973,14.763c-.316,2.284.263,4.227,2.4,5.366,2.006,1.071,3.879.595,5.644-.744a36.834,36.834,0,0,0,9.406-10.355c.618-1.024,1.3-1.93,2.672-1.6,1.5.361,1.621,1.563,1.672,2.848a53.394,53.394,0,0,0,1.816,12.207,6.97,6.97,0,0,0,6.344,5.462,7.2,7.2,0,0,0,7.329-4.133,44.844,44.844,0,0,0,2.758-7.235c.366-1.21.4-2.662,2.069-2.937,1.651-.272,2.217,1.032,2.929,2.089a80.405,80.405,0,0,0,8.806,10.96,3.76,3.76,0,0,0,5.061.644c1.767-1.068,2.223-3.061,1.267-5.116-.408-.878-.926-1.7-1.382-2.558-3.166-5.932-6.087-11.974-7.275-18.658a2.866,2.866,0,0,0-2.153-2.676,9.72,9.72,0,0,1-6.82-8.86A14.106,14.106,0,0,1,74.836,66.179a2.352,2.352,0,0,0,1.893-1.542c7.7-20.817-7.926-38.3-25.744-37.653M68.431,79.728c0,.893-.045,1.3.007,1.7a6.229,6.229,0,0,0,4.8,5.443,6.4,6.4,0,0,0,6.631-2.519c1.721-2.228.977-4.378-.442-6.445a19.394,19.394,0,0,1-2.79-6.121c-.371-1.427-1.038-1.559-2.277-1.013-4.126,1.823-5.653,5.24-5.931,8.958M87.474,58.17a34.049,34.049,0,0,1,9.466,1.573c.612.175,1.407,1,1.923.141.411-.687-.364-1.329-.773-1.9-2.729-3.82-6.7-5.686-11.04-6.945-4.132-1.2-4.137-1.184-4.131,2.932.007,4.09.007,4.09,4.555,4.2m-1.3,3.963c-1.127.075-2.26.1-3.379.239-1.625.2-1.649,1.636-1.812,2.762-.212,1.467,1.192,1.144,1.88,1.183a14.906,14.906,0,0,0,8.623-1.839c.475-.28,1.178-.524,1.112-1.153-.075-.718-.846-.562-1.37-.679a22.348,22.348,0,0,0-5.054-.513" transform="translate(0 0)"/>
        <path id="Trazado_715292" data-name="Trazado 715292" d="M50.244,33.571a3.778,3.778,0,0,0,.848-3.528C49.04,18.721,59.57,12.8,66.752,15.431c1.886.693,3.092.191,4.143-1.662A10.055,10.055,0,0,1,81.869,8.877a10.224,10.224,0,0,1,7.955,7.9c.625,2.794,1.048,3.05,4.058,2.454a12.406,12.406,0,0,1,13.42,6.474A12.249,12.249,0,0,1,105.2,40.036c-.889.87-1.519,1.3-2.459.007-9.826-13.5-26.8-15.542-41.255-9.811-3.564,1.413-6.666,3.591-9.9,5.563a5.012,5.012,0,0,1-1.339-2.224" transform="translate(-25.828 -4.459)" fill="#e54d64"/>
        <path id="Trazado_715293" data-name="Trazado 715293" d="M55.458,55.511C73.275,54.863,88.9,72.346,81.2,93.164a2.354,2.354,0,0,1-1.893,1.542,14.1,14.1,0,0,0-10.477,15.448,9.72,9.72,0,0,0,6.82,8.86,2.867,2.867,0,0,1,2.153,2.676c1.188,6.685,4.109,12.726,7.275,18.658.456.855.974,1.681,1.382,2.558.955,2.055.5,4.048-1.267,5.116a3.761,3.761,0,0,1-5.061-.644,80.429,80.429,0,0,1-8.806-10.96c-.713-1.057-1.279-2.361-2.93-2.09-1.669.274-1.7,1.727-2.069,2.937A44.834,44.834,0,0,1,63.57,144.5a7.2,7.2,0,0,1-7.329,4.133,6.968,6.968,0,0,1-6.344-5.462,53.375,53.375,0,0,1-1.816-12.207c-.052-1.285-.173-2.488-1.672-2.848-1.368-.329-2.055.576-2.672,1.6a36.834,36.834,0,0,1-9.407,10.355c-1.764,1.34-3.637,1.816-5.643.745-2.133-1.139-2.713-3.081-2.4-5.366a106.523,106.523,0,0,0,.973-14.762c0-1.141.11-2.328-1.272-2.839-1.453-.537-2.244.385-3.036,1.366a45.023,45.023,0,0,1-7.079,7.637,4.354,4.354,0,0,1-5.208.383A3.9,3.9,0,0,1,8.742,123.1a4.613,4.613,0,0,1,1.671-2.866c5.949-5.466,8.645-12.235,8.638-20.314-.008-7.8.994-15.506,4.025-22.788C29.063,62.751,40.267,56.12,55.458,55.511M74.93,78.127a8.315,8.315,0,0,0-8.465-8.176,8.46,8.46,0,0,0-8.113,8.344,8.354,8.354,0,0,0,8.4,8.26,8.238,8.238,0,0,0,8.178-8.428" transform="translate(-4.473 -28.527)" fill="#f9ecc0"/>
        <path id="Trazado_715294" data-name="Trazado 715294" d="M140.8,154.278c.278-3.718,1.8-7.135,5.931-8.958,1.238-.547,1.905-.414,2.277,1.013a19.393,19.393,0,0,0,2.789,6.121c1.419,2.066,2.163,4.217.442,6.445a6.4,6.4,0,0,1-6.63,2.519,6.228,6.228,0,0,1-4.8-5.443c-.052-.4-.007-.8-.007-1.7" transform="translate(-72.37 -74.549)" fill="#e44d64"/>
        <path id="Trazado_715295" data-name="Trazado 715295" d="M175.189,111.431c-4.548-.111-4.548-.111-4.555-4.2-.007-4.116,0-4.132,4.131-2.932,4.339,1.26,8.311,3.125,11.04,6.945.409.573,1.184,1.214.773,1.9-.516.863-1.311.035-1.923-.141a34.049,34.049,0,0,0-9.466-1.573" transform="translate(-87.715 -53.261)" fill="#edb745"/>
        <path id="Trazado_715296" data-name="Trazado 715296" d="M171.826,127.859a22.348,22.348,0,0,1,5.054.513c.524.118,1.295-.039,1.37.679.066.629-.637.873-1.112,1.153a14.906,14.906,0,0,1-8.623,1.839c-.688-.039-2.092.284-1.88-1.183.163-1.126.187-2.557,1.812-2.762,1.119-.141,2.252-.164,3.379-.239" transform="translate(-85.648 -65.726)" fill="#cb993e"/>
        <path id="Trazado_715297" data-name="Trazado 715297" d="M127.452,93.417a8.238,8.238,0,0,1-8.178,8.428,8.355,8.355,0,0,1-8.4-8.26,8.46,8.46,0,0,1,8.113-8.345,8.315,8.315,0,0,1,8.465,8.177M119.3,97.726a4.117,4.117,0,1,0-.185-8.231,3.885,3.885,0,0,0-3.965,3.991,4.436,4.436,0,0,0,4.15,4.24" transform="translate(-56.995 -43.816)"/>
        <path id="Trazado_715298" data-name="Trazado 715298" d="M123.825,102.231a4.436,4.436,0,0,1-4.15-4.24A3.885,3.885,0,0,1,123.639,94a4.117,4.117,0,1,1,.185,8.231" transform="translate(-61.519 -48.321)" fill="#593807"/>
      </g>
    </g>
  </g>
</svg>
