<svg xmlns="http://www.w3.org/2000/svg" xmlns:xlink="http://www.w3.org/1999/xlink" width="129" height="129" viewBox="0 0 129 129">
  <defs>
    <clipPath id="clip-path">
      <rect id="Rectángulo_353246" data-name="Rectángulo 353246" width="114.648" height="114.808" fill="none"/>
    </clipPath>
  </defs>
  <g id="Grupo_1003257" data-name="Grupo 1003257" transform="translate(-388 -5408)">
    <circle id="Elipse_5707" data-name="Elipse 5707" cx="64.5" cy="64.5" r="64.5" transform="translate(388 5408)" fill="#06d1d1"/>
    <g id="Grupo_1003118" data-name="Grupo 1003118" transform="translate(399.594 5415.096)">
      <g id="Grupo_1003117" data-name="Grupo 1003117" clip-path="url(#clip-path)">
        <path id="Trazado_715366" data-name="Trazado 715366" d="M42.418,114.759c-13.4,0-26.8-.042-40.195.049C.368,114.821-.1,114.3.015,112.535c.262-4.14-.386-8.321.388-12.439A18.67,18.67,0,0,1,17.654,84.733c3.991-.3,7.977-.662,11.96-1.042,1-.1,2.325.128,2.289-1.554-.027-1.3.868-2.566-1.154-3.6a25.071,25.071,0,0,1-13.49-17.717c-.243-1.095-.538-1.429-1.68-1.587-8.452-1.175-12.451-9.48-8.2-16.952a2.406,2.406,0,0,0,.193-2.317C.858,21.518,13.229,3.894,32.865,3.874c3.465,0,6.93-.013,10.4,0,3.106.014,5.99.076,8.79-2.164C55.122-.744,59.094-.109,62.725.856a21.641,21.641,0,0,1,15.089,13.1A3.132,3.132,0,0,0,80.2,16.037a31.273,31.273,0,0,1,20.14,43.975c-.756,1.567-.448,2.369.678,3.455,3.6,3.473,7.118,7.036,10.642,10.589,3.769,3.8,3.991,8.845.577,12.319-3.47,3.531-8.6,3.319-12.485-.543-3.66-3.634-7.333-7.257-10.92-10.963a1.925,1.925,0,0,0-2.712-.418,30.538,30.538,0,0,1-25.246,1.2,2.232,2.232,0,0,0-2.491.32,28.117,28.117,0,0,1-4.263,2.715c-.986.512-1.082,1.05-1.106,2.123-.056,2.441,1.214,2.841,3.244,2.985,4.525.321,9.079.589,13.541,1.349a18.391,18.391,0,0,1,15.272,18.206c.037,3.156-.1,6.318.052,9.467.08,1.68-.478,1.981-2.045,1.974-13.552-.065-27.1-.037-40.657-.037m33.282-3.7c1.462,0,2.927-.055,4.386.018,1.024.052,1.334-.325,1.3-1.321-.062-2.076,0-4.155-.023-6.232a15.105,15.105,0,0,0-14.2-15.09c-4.294-.334-8.588-.69-12.866-1.176a2.679,2.679,0,0,0-2.747,1.1c-2.461,3.055-5.071,5.991-7.5,9.073-1.082,1.374-1.7,1.719-2.942.086-2.422-3.179-5.1-6.159-7.641-9.252a2.356,2.356,0,0,0-2.326-1.051c-4.512.487-9.038.838-13.557,1.254A15.023,15.023,0,0,0,4.1,100.452c-.681,3.2-.2,6.444-.343,9.664-.05,1.122.754.934,1.415.936,2.694.009,5.39-.073,8.08.036,1.393.056,1.647-.5,1.609-1.728-.08-2.614.062-5.236-.058-7.847-.067-1.458.584-1.642,1.769-1.563,1.067.07,2.12-.232,2.012,1.558-.162,2.684-.006,5.385-.06,8.077-.02,1.025.174,1.5,1.365,1.5q22.627-.056,45.254,0c1.323,0,1.49-.531,1.466-1.631-.06-2.692.028-5.387-.042-8.079-.029-1.11.335-1.4,1.43-1.447,1.654-.076,2.62.2,2.328,2.182a23.894,23.894,0,0,0-.03,3.458c0,5.489,0,5.489,5.409,5.488M52.823,21.6c-5.039-3.1-7.489-7.208-6.216-13.06.31-1.425-.91-.927-1.51-.933-4.535-.043-9.072-.071-13.607-.013A22.581,22.581,0,0,0,10.043,35.811c.538,2.079,1.06,3.285,3.375,1.847a4.14,4.14,0,0,1,2.005-.452c1.01-.026,1.437-.472,1.245-1.416-.464-2.288.812-2.454,2.6-2.373a31.489,31.489,0,0,0,21.18-6.333c1.648-1.26,2.744-1.46,4.222.009.619.616,1.458,1.622,2.458.291a33.9,33.9,0,0,1,5.693-5.79m-9.375,37.72c-.279-.745-.491-1.3-.7-1.866a31.319,31.319,0,0,1,.822-24.225c.278-.635,1.311-1.234.233-2.159-.974-.836-1.658-.558-2.6.07A34.488,34.488,0,0,1,22.139,37.1c-1.392.018-1.817.321-1.794,1.774.094,5.768-.014,11.538.061,17.306A21.276,21.276,0,0,0,24.9,69c7.391,9.744,22.054,11.8,30.738,4.264-1.562-1.239-3.17-2.407-4.644-3.725-.813-.727-1.285-.748-2.044.056a8.546,8.546,0,0,1-5.506,2.612c-6.431.652-12.042-6.179-10.137-12.252.294-.936.937-.619,1.462-.626,2.829-.034,5.658-.016,8.674-.016m.962-12.907A27.725,27.725,0,1,0,72.162,18.66,27.778,27.778,0,0,0,44.41,46.409M70.492,14.964a18.005,18.005,0,0,1,1.889.01c1.8.216,1.767-.526,1.006-1.773-3.7-6.071-9.11-9.263-16.21-9.28a7.32,7.32,0,0,0-7.015,9.057c.807,3.145,4.039,5.841,6.783,5.659,4.277-.282,7.534-3.258,7.787-7.114.065-.989-.393-2.18,1.454-2.145,2.281.043,2.7.219,2.154,2.939-.467,2.34-.165,3.388,2.153,2.648m40.451,65.864a4.9,4.9,0,0,0-1.472-3.734c-3.681-3.7-7.386-7.385-11.061-11.1-.639-.646-1.1-.94-1.8-.026a27.006,27.006,0,0,1-4.869,4.881c-.681.533-.846.944-.152,1.63C95.47,76.312,99.273,80.222,103.2,84a4.188,4.188,0,0,0,4.928.756,4.628,4.628,0,0,0,2.814-3.929m-74.251-.056c-.165-.052-.86-.274-.87.306-.025,1.452-1.155,2.915.121,4.382,1.965,2.259,3.862,4.58,5.738,6.914.656.815,1.1.822,1.759,0a60,60,0,0,1,4.894-5.81c1.528-1.478,1.41-3.038,1.146-4.81-.131-.877-.372-1.147-1.331-.918a24.128,24.128,0,0,1-11.457-.068M16.685,48.228c0-2.073-.056-4.148.023-6.218.044-1.148-.46-1.237-1.381-1.08a7.431,7.431,0,0,0,0,14.594c.92.158,1.425.071,1.382-1.078-.079-2.07-.023-4.145-.023-6.218m25.7,20.314A4.576,4.576,0,0,0,45.24,67.8c.864-.57,2.24-1.179,1.813-2.332-.454-1.224-1.089-2.7-3.08-2.5A42.341,42.341,0,0,1,38.21,63c-1.123-.039-1.281.4-1.037,1.372a5.728,5.728,0,0,0,5.213,4.175" transform="translate(0 0)" fill="#050403"/>
        <path id="Trazado_715367" data-name="Trazado 715367" d="M80.028,212.464c-5.409,0-5.409,0-5.409-5.489a23.887,23.887,0,0,1,.03-3.458c.293-1.981-.674-2.258-2.327-2.182-1.095.05-1.459.338-1.43,1.447.07,2.692-.018,5.387.042,8.079.024,1.1-.143,1.636-1.466,1.632q-22.627-.069-45.254-.005c-1.191,0-1.386-.47-1.365-1.5.054-2.692-.1-5.394.06-8.077.108-1.79-.945-1.489-2.012-1.559-1.185-.078-1.835.106-1.769,1.564.12,2.611-.022,5.233.058,7.847.037,1.231-.216,1.784-1.61,1.728-2.689-.109-5.386-.027-8.08-.036-.662,0-1.465.185-1.415-.936.144-3.22-.338-6.463.343-9.664a15.024,15.024,0,0,1,13.5-11.989c4.519-.416,9.045-.766,13.557-1.253a2.356,2.356,0,0,1,2.326,1.051c2.538,3.093,5.219,6.073,7.642,9.252,1.244,1.632,1.859,1.288,2.942-.087,2.426-3.081,5.036-6.018,7.5-9.073a2.681,2.681,0,0,1,2.747-1.1c4.278.486,8.572.842,12.866,1.177a15.105,15.105,0,0,1,14.2,15.09c.025,2.077-.039,4.156.023,6.232.03,1-.281,1.373-1.3,1.321-1.459-.074-2.924-.019-4.386-.018" transform="translate(-4.328 -101.408)" fill="#b3db7e"/>
        <path id="Trazado_715368" data-name="Trazado 715368" d="M63.658,30.344a33.887,33.887,0,0,0-5.693,5.79c-1,1.331-1.839.325-2.458-.291-1.478-1.47-2.574-1.27-4.222-.01a31.489,31.489,0,0,1-21.18,6.333c-1.79-.08-3.066.085-2.6,2.373.191.944-.235,1.39-1.245,1.416a4.139,4.139,0,0,0-2.005.452c-2.315,1.438-2.837.232-3.375-1.847A22.581,22.581,0,0,1,42.325,16.337c4.535-.058,9.072-.03,13.607.013.6.006,1.82-.492,1.51.933-1.273,5.852,1.177,9.96,6.216,13.06" transform="translate(-10.835 -8.749)" fill="#b07845"/>
        <path id="Trazado_715369" data-name="Trazado 715369" d="M67.111,94.84c-3.016,0-5.845-.018-8.674.016-.525.006-1.169-.31-1.462.626-1.9,6.073,3.706,12.9,10.137,12.251a8.547,8.547,0,0,0,5.506-2.612c.759-.8,1.231-.784,2.044-.057,1.474,1.318,3.082,2.487,4.644,3.726-8.685,7.535-23.348,5.48-30.738-4.264A21.276,21.276,0,0,1,44.07,91.7C44,85.936,44.1,80.165,44.009,74.4c-.024-1.453.4-1.756,1.794-1.774A34.486,34.486,0,0,0,64.871,66.66c.939-.628,1.624-.906,2.6-.07,1.078.925.045,1.524-.233,2.159a31.319,31.319,0,0,0-.822,24.225c.206.562.419,1.121.7,1.866M60.676,81.875a5.541,5.541,0,1,0-5.571,5.57,5.584,5.584,0,0,0,5.571-5.57" transform="translate(-23.663 -35.525)" fill="#ecccb1"/>
        <path id="Trazado_715370" data-name="Trazado 715370" d="M96.063,68.112A27.725,27.725,0,1,1,123.876,95.8,27.77,27.77,0,0,1,96.063,68.112m27.721-24.05a24.022,24.022,0,1,0,24.029,24.077,24.057,24.057,0,0,0-24.029-24.077" transform="translate(-51.653 -21.703)" fill="#f4d06c"/>
        <path id="Trazado_715371" data-name="Trazado 715371" d="M128.578,19.524c-2.318.74-2.62-.308-2.153-2.648.543-2.72.127-2.9-2.154-2.939-1.847-.035-1.388,1.156-1.453,2.145-.254,3.855-3.51,6.831-7.787,7.114-2.744.182-5.976-2.514-6.783-5.659a7.32,7.32,0,0,1,7.015-9.057c7.1.017,12.507,3.209,16.211,9.279.761,1.248.79,1.99-1.006,1.774a18.006,18.006,0,0,0-1.889-.01" transform="translate(-58.085 -4.56)" fill="#ae7745"/>
        <path id="Trazado_715372" data-name="Trazado 715372" d="M216.95,156.888a4.627,4.627,0,0,1-2.814,3.929,4.188,4.188,0,0,1-4.928-.755c-3.93-3.779-7.732-7.689-11.614-11.519-.695-.686-.53-1.1.151-1.63a26.994,26.994,0,0,0,4.87-4.881c.7-.914,1.162-.619,1.8.026,3.675,3.711,7.379,7.392,11.061,11.1a4.9,4.9,0,0,1,1.472,3.734" transform="translate(-106.006 -76.06)" fill="#929ba6"/>
        <path id="Trazado_715373" data-name="Trazado 715373" d="M77.795,174.618a24.128,24.128,0,0,0,11.457.068c.959-.228,1.2.042,1.331.919.264,1.772.382,3.332-1.146,4.81a59.877,59.877,0,0,0-4.894,5.809c-.655.819-1.1.812-1.759,0-1.876-2.334-3.773-4.654-5.738-6.914-1.276-1.467-.147-2.93-.122-4.382.01-.58.706-.358.87-.306" transform="translate(-41.101 -93.846)" fill="#eacbaf"/>
        <path id="Trazado_715374" data-name="Trazado 715374" d="M27.5,95.764c0,2.073-.056,4.148.022,6.218.044,1.149-.461,1.236-1.381,1.078a7.431,7.431,0,0,1,0-14.594c.92-.157,1.425-.068,1.381,1.08-.079,2.07-.022,4.145-.022,6.218" transform="translate(-10.814 -47.536)" fill="#eacbaf"/>
        <path id="Trazado_715375" data-name="Trazado 715375" d="M85.507,141.764a5.733,5.733,0,0,1-5.214-4.176c-.243-.972-.085-1.411,1.038-1.372a42.492,42.492,0,0,0,5.763-.025c1.992-.2,2.627,1.271,3.08,2.5.427,1.153-.95,1.762-1.813,2.332a4.593,4.593,0,0,1-2.854.746" transform="translate(-43.121 -73.219)" fill="#f97f6c"/>
        <path id="Trazado_715376" data-name="Trazado 715376" d="M67.174,93.849a5.541,5.541,0,1,1-5.628-5.512,5.588,5.588,0,0,1,5.628,5.512m-3.7.092a1.793,1.793,0,0,0-1.691-1.863,1.7,1.7,0,0,0-1.956,1.762,1.669,1.669,0,0,0,1.651,1.84c1.177.1,1.8-.63,2-1.739" transform="translate(-30.16 -47.498)" fill="#050403"/>
        <path id="Trazado_715377" data-name="Trazado 715377" d="M128.087,48.364a24.022,24.022,0,1,1-24.022,24.08,24.057,24.057,0,0,1,24.022-24.08M146.715,64.61a20.21,20.21,0,0,0-20.869-12.451c-7.52.944-15.434,7.061-16.022,12.263,12.185-6.923,24.4-6.909,36.891.188M109.463,80.147A20.226,20.226,0,0,0,130.3,92.614c7.514-.934,15.4-6.992,16.04-12.24-12.192,6.884-24.4,6.887-36.875-.227m27.865-7.677A9.239,9.239,0,1,0,128,81.624a9.261,9.261,0,0,0,9.325-9.153m1.279-7.659c3.223,5.206,3.068,10.03.115,15.125a24.229,24.229,0,0,0,8.676-5.468c1.319-1.283,1.443-2.7.117-4.035a23.451,23.451,0,0,0-8.908-5.622m-21.1,15.1c-3.086-5.126-3.083-9.945-.007-15.062a23.164,23.164,0,0,0-8.954,5.7,2.371,2.371,0,0,0-.113,3.526,22.5,22.5,0,0,0,9.074,5.833" transform="translate(-55.956 -26.005)" fill="#050505"/>
        <path id="Trazado_715378" data-name="Trazado 715378" d="M67.82,98.283c-.194,1.11-.819,1.834-2,1.739a1.669,1.669,0,0,1-1.651-1.84A1.7,1.7,0,0,1,66.13,96.42a1.793,1.793,0,0,1,1.691,1.863" transform="translate(-34.504 -51.841)" fill="#7a8591"/>
        <path id="Trazado_715379" data-name="Trazado 715379" d="M153.413,68.857c-12.493-7.1-24.705-7.111-36.891-.188.588-5.2,8.5-11.319,16.022-12.263a20.21,20.21,0,0,1,20.87,12.451" transform="translate(-62.654 -30.252)" fill="#e0e3e7"/>
        <path id="Trazado_715380" data-name="Trazado 715380" d="M115.742,117.114c12.479,7.114,24.683,7.111,36.875.227-.64,5.247-8.526,11.305-16.04,12.239a20.224,20.224,0,0,1-20.835-12.466" transform="translate(-62.234 -62.972)" fill="#e0e3e7"/>
        <path id="Trazado_715381" data-name="Trazado 715381" d="M154.526,89.664a9.239,9.239,0,1,1-9.153-9.323,9.269,9.269,0,0,1,9.153,9.323m-3.7-.058a5.537,5.537,0,1,0-5.623,5.508,5.586,5.586,0,0,0,5.623-5.508" transform="translate(-73.153 -43.199)" fill="#65cdea"/>
        <path id="Trazado_715382" data-name="Trazado 715382" d="M178.783,83.94a23.462,23.462,0,0,1,8.908,5.622c1.326,1.334,1.2,2.753-.117,4.035a24.229,24.229,0,0,1-8.676,5.468c2.953-5.1,3.108-9.92-.115-15.125" transform="translate(-96.131 -45.134)" fill="#c5cad1"/>
        <path id="Trazado_715383" data-name="Trazado 715383" d="M121.737,99.089a22.5,22.5,0,0,1-9.074-5.833,2.371,2.371,0,0,1,.113-3.526,23.164,23.164,0,0,1,8.954-5.7c-3.076,5.117-3.079,9.935.007,15.062" transform="translate(-60.185 -45.181)" fill="#c5cad1"/>
        <path id="Trazado_715384" data-name="Trazado 715384" d="M155.13,93.914a5.537,5.537,0,1,1-5.566-5.563,5.589,5.589,0,0,1,5.566,5.563m-3.689.095a1.794,1.794,0,0,0-1.628-1.923A1.812,1.812,0,1,0,149.6,95.7a1.79,1.79,0,0,0,1.84-1.689" transform="translate(-77.459 -47.506)" fill="#050403"/>
        <path id="Trazado_715385" data-name="Trazado 715385" d="M155.774,98.333a1.79,1.79,0,0,1-1.84,1.689,1.812,1.812,0,1,1,.212-3.611,1.794,1.794,0,0,1,1.628,1.923" transform="translate(-81.793 -51.831)" fill="#4ab4d9"/>
      </g>
    </g>
  </g>
</svg>
