<svg xmlns="http://www.w3.org/2000/svg" xmlns:xlink="http://www.w3.org/1999/xlink" width="129" height="129" viewBox="0 0 129 129">
  <defs>
    <clipPath id="clip-path">
      <rect id="Rectángulo_353291" data-name="Rectángulo 353291" width="110.516" height="112.589" fill="none"/>
    </clipPath>
  </defs>
  <g id="Grupo_1003271" data-name="Grupo 1003271" transform="translate(-12240 8465.121)">
    <circle id="Elipse_5718" data-name="Elipse 5718" cx="64.5" cy="64.5" r="64.5" transform="translate(12240 -8465.121)" fill="#06d1d1"/>
    <g id="Grupo_1003166" data-name="Grupo 1003166" transform="translate(12249.242 -8457.293)">
      <g id="Grupo_1003165" data-name="Grupo 1003165" clip-path="url(#clip-path)">
        <path id="Trazado_715711" data-name="Trazado 715711" d="M31.41,99.18c2.864-9.051,6.158-17.974,8.218-27.265a148.407,148.407,0,0,0,2.864-18.922,132.816,132.816,0,0,0,.32-14.959A134.821,134.821,0,0,0,39.8,13.885c-.844-4.091-1.433-8.235-2.27-12.327-.254-1.243.05-1.6,1.212-1.521.4.029.794,0,1.191,0Q79.124.041,118.317,0c2.134-.005,3.007.521,3.368,2.794,1.211,7.626,2.972,15.17,4.047,22.812a115.433,115.433,0,0,1,1.009,23.216,148.747,148.747,0,0,1-3.326,23.87,1.2,1.2,0,0,1-.724.875c-1.028-1.1-2.069-2.19-3.08-3.305-.63-.694-1.111-.845-1.952-.125-1.409,1.209-1.825,2.143-.134,3.5,1.248,1,2.911,2.246,1.284,4.119-5.519,6.355-12.279,10.183-20.95,10.052-1.253-.019-1.6-.371-1.6-1.615a25.2,25.2,0,0,1,7.665-18.624c3.522-3.523,3.5-3.543,7.217-.386a1.483,1.483,0,0,1,.175.162c.512.606,1.067.7,1.563.026.53-.717,1.82-1.062,1.5-2.189-1.173-4.134-7.427-5.65-10.736-2.717C96.149,69.1,91.96,77.191,92.459,87.394a2.747,2.747,0,0,1-.8,2.353c-3.261,3.132-6.463,6.326-9.686,9.5L31.41,99.18M98.184,23.013c0-3.9,0-3.9-3.893-3.9a18.874,18.874,0,0,0-2.851.023c-2.364.363-3.178-.639-2.8-2.887a7.308,7.308,0,0,0,.009-1.188c0-5.634,0-5.634-5.636-5.486a4.058,4.058,0,0,1-.476,0c-1.12-.108-1.56.389-1.53,1.514.052,1.982-.093,3.973.043,5.946.119,1.724-.561,2.2-2.181,2.1-1.975-.119-3.964-.021-5.947-.027-.776,0-1.283.123-1.455,1.107-.976,5.587-.243,6.521,5.334,6.521a8.456,8.456,0,0,0,1.426-.011c2.356-.408,3.177.625,2.8,2.873a7.259,7.259,0,0,0-.01,1.189c0,5.635,0,5.635,5.635,5.487a3.86,3.86,0,0,1,.476,0c1.119.108,1.56-.387,1.531-1.513-.052-1.982.093-3.973-.043-5.946-.119-1.723.558-2.212,2.18-2.1,1.816.12,3.65-.042,5.47.049,1.4.069,2.113-.336,1.93-1.852a15.9,15.9,0,0,1-.012-1.9M84.717,57.264q15.963,0,31.926.008c1.4,0,2.617.172,2.587-1.979-.029-2.025-1.162-1.85-2.475-1.85q-31.927.014-63.853,0c-1.321,0-2.44-.159-2.468,1.858-.03,2.16,1.2,1.972,2.594,1.971q15.844-.018,31.688-.007m-12.395,7.63c7.146,0,14.291-.01,21.437.009,1.4,0,2.613.162,2.583-1.983-.029-2.028-1.169-1.847-2.478-1.846q-21.437.015-42.873,0c-1.325,0-2.436-.149-2.463,1.862-.03,2.162,1.21,1.97,2.6,1.967q10.6-.021,21.2-.007m-3.735,7.63c6.669,0,13.338-.026,20.006.021,1.362.01,2-.3,2.009-1.836.008-1.571-.515-2.034-2.063-2.028q-19.886.074-39.773,0c-1.468,0-2.125.31-2.134,1.959-.009,1.721.786,1.911,2.188,1.9,6.589-.048,13.178-.021,19.768-.021M84.9,47.726c4.444,0,8.889-.05,13.331.028,1.488.026,1.9-.527,1.9-1.941,0-1.432-.444-1.936-1.914-1.927q-13.331.081-26.663.007c-1.338-.006-2.025.253-2.026,1.815,0,1.544.466,2.08,2.042,2.049,4.442-.088,8.887-.031,13.331-.031M56.227,83.968c3.173,0,6.347-.053,9.518.024,1.413.035,1.988-.386,1.959-1.878-.027-1.356-.314-2-1.852-1.987q-9.636.1-19.274,0c-1.552-.016-1.807.659-1.839,2-.036,1.509.573,1.9,1.971,1.866,3.171-.075,6.345-.024,9.517-.024m-7.479,3.819c-1.426,0-2.855.068-4.275-.019-1.521-.093-1.612.787-1.624,1.944-.013,1.2.186,1.958,1.666,1.908,2.531-.086,5.068-.057,7.6-.008,1.317.025,2.238-.029,2.254-1.824.017-1.819-.788-2.134-2.3-2.021-1.1.083-2.216.016-3.325.019" transform="translate(-16.423 0)" fill="#ececec"/>
        <path id="Trazado_715712" data-name="Trazado 715712" d="M14.986,207.866l50.56.064c-3.694,4.377-3.863,6.726-.816,11.32q-13.7.055-27.4.106-13.106.027-26.212,0A10.881,10.881,0,0,1,.006,208.864c-.1-1.347.828-.921,1.4-.928,4.527-.052,9.053-.053,13.581-.07" transform="translate(0 -108.686)" fill="#bdbdbd"/>
        <path id="Trazado_715713" data-name="Trazado 715713" d="M133.327,177.349c-3.047-4.595-2.878-6.943.816-11.32,3.223-3.172,6.425-6.365,9.686-9.5a2.749,2.749,0,0,0,.8-2.353c-.5-10.2,3.69-18.293,11.177-24.927,3.31-2.932,9.563-1.416,10.736,2.717.32,1.127-.971,1.472-1.5,2.189-.5.67-1.05.58-1.563-.026a1.442,1.442,0,0,0-.174-.162c-3.715-3.157-3.695-3.137-7.217.386a25.2,25.2,0,0,0-7.665,18.624c0,1.244.351,1.6,1.6,1.615,8.671.131,15.43-3.7,20.95-10.051,1.627-1.873-.037-3.116-1.285-4.119-1.69-1.358-1.275-2.294.135-3.5.841-.721,1.322-.57,1.952.125,1.012,1.116,2.052,2.2,3.081,3.305,1.493,3.249.14,5.758-2.091,8.038-6.679,6.895-14.68,10.563-24.414,9.994a2.027,2.027,0,0,0-1.7.642c-2.241,2.336-4.5,4.655-6.751,6.98-1.2,1.132-2.465,2.208-3.595,3.409-1.577,1.676-1.6,3.631-.18,5.067a3.4,3.4,0,0,0,5.067-.119c2.159-2.075,4.2-4.268,6.3-6.41.521-.474,1.061-.928,1.56-1.425,5.426-5.4,9.23-6.086,16.078-2.9,1.33,1.1,2.633,2.241,4,3.3,1.14.882,1.445,1.776.428,2.955-.977,1.132-1.946,1.211-3.019.154a15.214,15.214,0,0,0-4.11-3.1c-2.758-2.069-6.275-1.851-9.048.69-1.573,1.442-3,3.046-4.489,4.578l-5.222,5.227c-3.473,2.693-6.922,2.5-10.351-.085" transform="translate(-68.597 -66.785)" fill="#05b37a"/>
        <path id="Trazado_715714" data-name="Trazado 715714" d="M174.694,186.272c-6.848-3.191-10.652-2.5-16.078,2.895-.5.5-1.039.951-1.56,1.425a3.332,3.332,0,0,0-3.8-1.963,28.886,28.886,0,0,1-3.793.017c2.252-2.326,4.51-4.644,6.75-6.98a2.028,2.028,0,0,1,1.7-.642c9.734.57,17.735-3.1,24.414-9.993-.248,3.086-1.546,5.877-2.5,8.76a25.529,25.529,0,0,0-1.31,4.978,7.589,7.589,0,0,0-3.823,1.5" transform="translate(-78.15 -89.426)" fill="#e8ebea"/>
        <path id="Trazado_715715" data-name="Trazado 715715" d="M198.658,201.328a7.589,7.589,0,0,1,3.823-1.5c4.621.373,7.659,2.952,8.065,6.844a7.69,7.69,0,0,1-5.67,8.247c-2.956.793-5.419-.244-7.62-2.16-1.781-2.49-2.648-5.127-1.3-8.119a15.211,15.211,0,0,1,4.111,3.1c1.073,1.057,2.042.978,3.019-.154,1.017-1.179.713-2.074-.428-2.955-1.366-1.056-2.668-2.194-4-3.3" transform="translate(-102.115 -104.481)" fill="#34c293"/>
        <path id="Trazado_715716" data-name="Trazado 715716" d="M181.841,208.374c-1.347,2.992-.48,5.629,1.3,8.119-2.707,1.5-5.4,3.034-8.7,2.359-2.494-1.209-5.072-2.321-6.141-5.211,1.492-1.531,2.916-3.135,4.489-4.577,2.773-2.542,6.289-2.759,9.048-.69" transform="translate(-88.001 -108.22)" fill="#e9ebeb"/>
        <path id="Trazado_715717" data-name="Trazado 715717" d="M162.581,220.95c1.069,2.89,3.646,4,6.14,5.211l-11.362.017,5.222-5.227" transform="translate(-82.278 -115.527)" fill="#bbbebd"/>
        <path id="Trazado_715718" data-name="Trazado 715718" d="M141.679,33.466a15.991,15.991,0,0,0,.012,1.9c.183,1.516-.532,1.921-1.93,1.852-1.819-.09-3.653.071-5.469-.049-1.622-.107-2.3.381-2.18,2.1.136,1.973-.009,3.965.043,5.946.03,1.126-.411,1.621-1.531,1.513a3.86,3.86,0,0,0-.476,0c-5.635.147-5.635.147-5.635-5.488a7.254,7.254,0,0,1,.009-1.188c.377-2.249-.445-3.281-2.8-2.873a8.507,8.507,0,0,1-1.426.011c-5.577,0-6.311-.933-5.334-6.521.172-.985.679-1.11,1.455-1.108,1.983.006,3.971-.092,5.947.027,1.621.1,2.3-.381,2.181-2.105-.136-1.973.009-3.965-.043-5.946-.03-1.125.41-1.622,1.53-1.514a3.861,3.861,0,0,0,.476,0c5.636-.148,5.636-.148,5.636,5.487a7.255,7.255,0,0,1-.009,1.188c-.376,2.248.438,3.249,2.8,2.886a19,19,0,0,1,2.851-.023c3.894,0,3.894,0,3.893,3.9" transform="translate(-59.919 -10.453)" fill="#fea387"/>
        <path id="Trazado_715719" data-name="Trazado 715719" d="M105.563,115.825q-15.844,0-31.688.007c-1.39,0-2.624.189-2.594-1.971.028-2.017,1.147-1.858,2.468-1.858q31.926.016,63.852,0c1.313,0,2.447-.176,2.475,1.85.031,2.151-1.188,1.981-2.587,1.979q-15.963-.021-31.926-.008" transform="translate(-37.27 -58.561)" fill="#bdbdbd"/>
        <path id="Trazado_715720" data-name="Trazado 715720" d="M91.079,131.816q-10.6,0-21.2.007c-1.387,0-2.626.2-2.6-1.967.028-2.012,1.138-1.864,2.463-1.862q21.437.019,42.873,0c1.309,0,2.449-.182,2.478,1.846.03,2.146-1.179,1.987-2.583,1.984-7.146-.019-14.291-.009-21.437-.009" transform="translate(-35.18 -66.923)" fill="#bdbdbd"/>
        <path id="Trazado_715721" data-name="Trazado 715721" d="M85.266,147.789c-6.589,0-13.179-.026-19.768.021-1.4.01-2.2-.18-2.188-1.9.009-1.649.666-1.963,2.133-1.959q19.887.064,39.774,0c1.547-.006,2.07.457,2.062,2.027-.008,1.54-.646,1.846-2.008,1.836-6.668-.048-13.337-.021-20.006-.021" transform="translate(-33.103 -75.265)" fill="#bdbdbd"/>
        <path id="Trazado_715722" data-name="Trazado 715722" d="M126.67,95.819c-4.444,0-8.889-.057-13.331.031-1.575.031-2.042-.505-2.041-2.049,0-1.562.688-1.821,2.026-1.815q13.332.058,26.664-.007c1.47-.009,1.917.5,1.913,1.927,0,1.414-.411,1.967-1.9,1.94-4.443-.078-8.887-.028-13.331-.028" transform="translate(-58.194 -48.093)" fill="#bdbdbd"/>
        <path id="Trazado_715723" data-name="Trazado 715723" d="M70.831,171.775c-3.172,0-6.347-.052-9.517.024-1.4.033-2.007-.356-1.971-1.866.032-1.342.287-2.016,1.839-2q9.636.1,19.273,0c1.538-.016,1.826.631,1.852,1.987.029,1.492-.545,1.913-1.959,1.878-3.171-.078-6.345-.024-9.517-.024" transform="translate(-31.028 -87.806)" fill="#bdbdbd"/>
        <path id="Trazado_715724" data-name="Trazado 715724" d="M61.283,183.944c1.109,0,2.222.065,3.325-.018,1.509-.113,2.314.2,2.3,2.021-.016,1.795-.937,1.849-2.254,1.823-2.533-.049-5.07-.078-7.6.008-1.48.051-1.679-.705-1.666-1.908.012-1.157.1-2.036,1.624-1.944,1.42.087,2.849.019,4.275.017" transform="translate(-28.958 -96.158)" fill="#bdbdbd"/>
        <path id="Trazado_715725" data-name="Trazado 715725" d="M144.195,207.88a28.807,28.807,0,0,0,3.793-.017,3.332,3.332,0,0,1,3.8,1.963c-2.095,2.142-4.14,4.336-6.3,6.411a3.4,3.4,0,0,1-5.067.119c-1.418-1.436-1.4-3.391.18-5.067,1.13-1.2,2.392-2.277,3.595-3.409" transform="translate(-72.88 -108.66)" fill="#b9bdbc"/>
      </g>
    </g>
  </g>
</svg>
