<svg xmlns="http://www.w3.org/2000/svg" xmlns:xlink="http://www.w3.org/1999/xlink" width="132" height="143" viewBox="0 0 132 143">
  <defs>
    <clipPath id="clip-path">
      <rect id="Rect치ngulo_353229" data-name="Rect치ngulo 353229" width="128" height="143" transform="translate(0 -0.288)" fill="none"/>
    </clipPath>
    <clipPath id="clip-path-2">
      <rect id="Rect치ngulo_353228" data-name="Rect치ngulo 353228" width="116.253" height="126.293" fill="none"/>
    </clipPath>
  </defs>
  <g id="Grupo_1003250" data-name="Grupo 1003250" transform="translate(-736 -4854)">
    <circle id="Elipse_5700" data-name="Elipse 5700" cx="64.5" cy="64.5" r="64.5" transform="translate(736 4861)" fill="#06d1d1"/>
    <g id="Grupo_1003100" data-name="Grupo 1003100" transform="translate(740 4854.288)">
      <g id="Grupo_1003099" data-name="Grupo 1003099" clip-path="url(#clip-path)">
        <g id="Grupo_1003098" data-name="Grupo 1003098" transform="translate(6.069 5.119)">
          <g id="Grupo_1003097" data-name="Grupo 1003097" clip-path="url(#clip-path-2)">
            <g id="Grupo_1003096" data-name="Grupo 1003096">
              <g id="Grupo_1003095" data-name="Grupo 1003095" clip-path="url(#clip-path-2)">
                <path id="Trazado_715307" data-name="Trazado 715307" d="M43.262,68.866c0,7.11.075,14.221-.049,21.328-.039,2.2.706,2.8,2.82,2.762,4.082-.083,6.51,1.757,7.038,4.966.69,4.187-2.062,7.519-6.6,7.476-2.625-.024-3.347.807-3.268,3.358.178,5.715.043,11.439.061,17.16.014,4.532,1.716,6.264,6.2,6.272,10.133.018,20.266,0,30.4.011a13.222,13.222,0,0,1,2.442.117,2.018,2.018,0,0,1,1.815,2.247,1.969,1.969,0,0,1-1.975,1.829,4.077,4.077,0,0,1-.489.032c-11.522-.006-23.045.073-34.566-.07-3.97-.05-7.236-3.4-7.991-7.45-.187-1,.41-2.688-1.343-2.658-1.877.033-3.973-.977-5.517,1.372a6.635,6.635,0,0,1-9.42,2.184,6.749,6.749,0,0,1-3.277-5.722,3.783,3.783,0,0,0-2.165-3.441,9.982,9.982,0,0,1,.228-17.377,3.441,3.441,0,0,0,1.9-3.305c.143-3.822,2.25-6.462,5.376-6.936,1.332-.2,2.787-.234,3.239,1.4.443,1.6-.58,2.43-2.031,2.757-1.563.353-2.015,1.4-2.089,2.873-.078,1.559.762,2.164,2.068,2.559a14.786,14.786,0,0,1,1.982.946c.461.22.968.443,1.123-.318.475-2.331,2.363-2.219,4.046-2.256,3.512-.077,7.028-.028,10.541-.032.736,0,1.472.015,2.206-.015,1.359-.055,2.829-.171,2.757-1.995-.064-1.634-1.42-1.77-2.712-1.772-3.514-.006-7.028,0-10.542-.01a13.332,13.332,0,0,1-1.957-.074,2.09,2.09,0,0,1-2.053-2.3c.09-1.249,1.017-1.8,2.215-1.845,1.061-.04,2.126-.069,3.186-.028,1.333.051,2.186-.247,2.165-1.869-.022-1.654-.99-1.826-2.255-1.82-2.942.014-5.885.032-8.825-.01-5.439-.077-7.893-2.292-8.467-7.711a2.768,2.768,0,0,0-1.484-2.3c-7.507-4.677-7.49-13.324.051-18a2.887,2.887,0,0,0,1.439-2.583c.419-5.108,2.845-7.459,8-7.689,2.691-.12,5.392-.032,8.089-.04,3.415-.011,3.391-.012,3.447-3.344a16.011,16.011,0,0,1,.309-3.642c1.081-4.262,4.5-6.849,9.273-6.82,2.17.013,2.9-.7,2.79-2.834-.143-2.853-.079-5.719-.019-8.578.108-5.174,2.608-7.831,7.768-8.16a2.986,2.986,0,0,0,2.669-1.7c4.294-7.188,13.345-7.168,17.749.041a3.113,3.113,0,0,0,2.705,1.669,8.247,8.247,0,0,1,7.172,11.2,2.071,2.071,0,0,1-2.113,1.683A1.982,1.982,0,0,1,85.317,28.6a30.744,30.744,0,0,1-.18-3.663,2.6,2.6,0,0,0-2.414-2.854c-1.586-.251-2.2.577-2.586,1.911a12.3,12.3,0,0,1-.936,1.991c-.3.6-.41,1.091.471,1.247,2.023.359,2.228,1.888,2.231,3.526.008,3.351,0,6.7.007,10.052,0,.653,0,1.308.038,1.96.051.98.39,1.889,1.5,1.893,1.2,0,1.66-.893,1.675-2,.03-2.042.018-4.086.054-6.128.022-1.228.4-2.337,1.723-2.652a2,2,0,0,1,2.533,1.7c.358,1.33,1.313,1.428,2.456,1.472,6.838.268,10.119,3.661,10.178,10.454.029,3.327.029,3.329,3.43,3.336,2.7,0,5.394-.026,8.09.01,5.035.068,7.568,2.343,7.942,7.354a3.634,3.634,0,0,0,2.018,3.26,9.981,9.981,0,0,1,.18,17.248,4.19,4.19,0,0,0-2.291,3.617,6.7,6.7,0,0,1-4.936,6.345c-3.114.94-5.623-.022-7.843-3.038-1.592-2.163-3.778-1.255-5.621-1.025-1.611.2-.931,2.028-.936,3.139-.024,5.3-.625,4.794,4.867,4.84,2.612.022,5.245-.1,7.832.185,4.047.439,6.349,2.816,6.7,6.867a4.212,4.212,0,0,0,2.194,3.691,9.939,9.939,0,0,1-.095,17.231A3.835,3.835,0,0,0,121.5,123.8c-.51,4.654-3.088,6.949-7.816,7.086-3.348.1-6.7.067-10.051.011a3.45,3.45,0,0,0-3.265,1.617,10.375,10.375,0,0,1-11.142,3.824,1.923,1.923,0,0,1-1.578-1.921,1.888,1.888,0,0,1,1.5-1.99,18.069,18.069,0,0,1,3.159-.238c3.456-.129,5.12-1.7,5.208-5.13.082-3.185.03-6.374.03-9.561,0-16.834-.036-33.669.043-50.5.011-2.342-.583-3.3-3.1-3.438-4.133-.218-6.8-2.948-6.782-6.33.025-3.647,2.852-6.248,7.274-6.334,2.138-.042,2.6-.958,2.595-2.845-.007-4.828-1.582-6.73-5.658-6.785-1.537-.021-2.256.526-2.412,2.039a7.984,7.984,0,0,1-.608,2.355,5.919,5.919,0,0,1-5.979,3.425,5.527,5.527,0,0,1-5.172-4.77c-.333-2.756-1.656-3.251-4.06-3.068a65.516,65.516,0,0,1-7.6.017c-1.606-.065-2.319.5-2.623,2.118-.733,3.9-2.856,5.776-6.144,5.717-3.049-.055-5.34-2.177-5.873-5.808-.232-1.583-.848-2.048-2.355-2.021-3.694.065-5.785,1.99-5.817,5.774-.061,7.273-.018,14.546-.021,21.819m27.416-42.6a5.493,5.493,0,0,0,5.656-5.76,5.664,5.664,0,0,0-5.545-5.692A5.929,5.929,0,0,0,64.88,20.5a5.843,5.843,0,0,0,5.8,5.764M118.6,75.823a5.826,5.826,0,0,0,5.681-5.85,6.014,6.014,0,0,0-5.761-5.607,5.808,5.808,0,0,0-5.691,5.825,5.483,5.483,0,0,0,5.772,5.632m-96.092,41.8a5.612,5.612,0,1,0,.159-11.223,5.616,5.616,0,1,0-.159,11.223m5.721-47.447a5.726,5.726,0,1,0-11.447.232,5.569,5.569,0,0,0,5.738,5.459,5.486,5.486,0,0,0,5.709-5.692m90.158,47.387a5.811,5.811,0,0,0,5.895-5.607,5.883,5.883,0,0,0-5.813-5.74,5.624,5.624,0,0,0-5.64,5.548,5.435,5.435,0,0,0,5.558,5.8m-6.357-55.393a16.929,16.929,0,0,1,3-1.484c1.873-.466,2.217-1.663,1.946-3.308-.276-1.672-1.486-1.969-2.891-1.97q-9.524-.006-19.048,0c-1.267,0-2.639.129-2.688,1.783-.053,1.821,1.378,1.954,2.749,1.958,4.314.012,8.629.047,12.943,0,2.084-.025,3.767.371,3.988,3.023m-49.29-35a21.287,21.287,0,0,1-1.373-2.837c-.48-1.615-1.267-2.571-3.136-2.238-1.848.33-2.313,1.565-2.313,3.186,0,5.619-.012,11.237,0,16.856,0,1.164.055,2.545,1.614,2.508,1.482-.036,1.611-1.348,1.61-2.553,0-3.664.057-7.329-.013-10.992-.045-2.357.5-4.1,3.61-3.93m44.9,45.066c0-2.116-.061-4.233.014-6.347.1-2.948-2.054-2.046-3.59-2.173-1.9-.157-2,1.094-2.009,2.539-.008,1.715,1.141,1.647,2.308,1.764,1.245.125,2.238.7,2.233,2.111a1.906,1.906,0,0,1-2.227,2.032c-2.142-.149-2.419,1.05-2.316,2.737.07,1.135.049,2.278.015,3.417-.068,2.277,1.6,1.8,2.906,1.829,1.284.028,2.739.283,2.676-1.806-.061-2.033-.013-4.069-.01-6.1m-74.2,41.4h-.01c0,1.8.129,3.6-.031,5.384-.2,2.253.627,2.967,2.893,2.954,2.191-.012,2.976-.75,2.728-2.858a15.551,15.551,0,0,1-.01-2.691c.08-1.374-.359-2.154-1.894-2.181-1.413-.025-2.7-.576-2.735-2.2-.034-1.644,1.257-2.239,2.661-2.258,1.918-.026,2-1.178,1.966-2.618-.054-2.139-1.628-1.635-2.837-1.664-1.262-.031-2.773-.331-2.738,1.766.036,2.122.008,4.244.008,6.366M29.079,62.184c-.1-3.122,1.78-3.62,4.172-3.516,1.379.06,2.763-.009,4.144-.007,1.113,0,1.62-.526,1.6-1.651-.018-1-.449-1.538-1.455-1.537-3.738,0-7.477-.028-11.213.064-1.422.035-2.115,1.022-2.274,2.413A2.213,2.213,0,0,0,25.78,60.7a27.037,27.037,0,0,1,3.3,1.481m82.912,41.691a24.393,24.393,0,0,1,3.254-1.469,2.182,2.182,0,0,0,1.765-2.723c-.162-1.4-.89-2.4-2.277-2.444-3.743-.115-7.491-.071-11.237-.072-1.032,0-1.407.621-1.406,1.589s.4,1.562,1.423,1.578c1.466.024,2.933.061,4.4.029,2.3-.05,4.109.486,4.079,3.512M31.884,84.648v.018q2.681,0,5.363,0c1.023,0,1.712-.307,1.747-1.512.038-1.3-.618-1.721-1.792-1.713-1.707.012-3.414.006-5.12-.029-1.308-.027-2.506-.409-2.783-1.856-.245-1.278-.752-1.19-1.635-.635a6.545,6.545,0,0,1-1.766.8,2.1,2.1,0,0,0-1.824,2.649,2.465,2.465,0,0,0,2.69,2.266c1.706.03,3.412.007,5.119.007m76.939,41.709h4.891c1.272,0,2.525-.142,3.061-1.512.357-.913.643-2.135-.26-2.721a23.924,23.924,0,0,0-4.2-1.838c-.06-.024-.358.307-.4.5-.475,2.444-2.359,2.336-4.186,2.339-1.06,0-2.121-.024-3.179.01-1.1.034-2.422-.252-2.455,1.542-.036,1.954,1.388,1.652,2.571,1.679,1.385.032,2.772.007,4.158,0m-1.177-14.476c0-1.389.046-2.78-.016-4.166-.041-.92.432-2.208-.8-2.571-1.386-.409-3-.655-4.261.211-.952.657-.5,1.98-.448,3.008.078,1.614,1.458,1.185,2.413,1.4,1.12.252,2.035.754,2.073,2.05a2.116,2.116,0,0,1-1.893,2.205c-.554.134-1.136.164-1.681.324-1.2.352-.923,1.385-.948,2.244-.024.833.038,1.592,1.083,1.921,2.953.931,4.466-.121,4.475-3.2,0-1.144,0-2.287,0-3.431M70.5,31.468c-1.142,0-2.283,0-3.425,0-3.339.008-3.6.353-3.406,3.631.089,1.5.755,2,2.154,1.948,1.328-.046,2.715.178,2.664-1.868-.036-1.443.514-2.692,2.135-2.756,1.683-.066,2.1,1.288,2.29,2.649.145,1.028.307,1.942,1.668,1.959,1.45.018,2.894.158,2.775-2-.095-1.7.582-3.842-2.452-3.584-1.458.124-2.934.021-4.4.02M33.436,70.109c0,1.223,0,2.446,0,3.669.014,3.045.172,3.2,3.155,3.117,1.157-.031,2.346.077,2.418-1.645.062-1.536-.04-2.739-2.052-2.817-1.378-.053-2.678-.619-2.565-2.318.1-1.486,1.271-1.948,2.592-2.1.7-.079,1.644.106,1.85-.813.263-1.172.651-2.619-.291-3.489-1.075-.992-2.654-.538-4-.36-1.387.184-1.073,1.424-1.1,2.352-.041,1.467-.012,2.935-.013,4.4m78.436,10.524a9.394,9.394,0,0,0,.132,1.7c.393,1.52,1.32,2.54,2.993,2.169,1.768-.393,2.24-1.8,1.965-3.414-.268-1.568-1.95-1.2-2.9-1.873-1.844-1.308-2.426-.562-2.194,1.416M29.09,120.075a24.579,24.579,0,0,1-3.2,1.445,2.212,2.212,0,0,0-1.779,2.938,2.147,2.147,0,0,0,2.23,1.869,2.455,2.455,0,0,0,2.706-2.289,27.418,27.418,0,0,0,.039-3.963" transform="translate(-12.375 -10.438)"/>
                <path id="Trazado_715308" data-name="Trazado 715308" d="M159.89,207.728c.088,4.083-.787,5.06-3.979,5.381-2.841.285-5.672.677-8.516.925-3.335.291-4.548-.714-4.894-3.945q-.652-6.084-1.246-12.174c-.228-2.348.815-3.762,3.2-4.082,3.314-.445,6.644-.814,9.978-1.057,2.711-.2,3.782.623,4.164,3.347.577,4.118.93,8.268,1.292,11.606m-7.908-10.3c-6.279.185-6.279.185-5.789,6.149.007.081.008.162.016.244.549,5.778.549,5.777,6.358,5.177a9.3,9.3,0,0,1,1.218-.072c1.364.039,1.861-.466,1.631-1.927a70.538,70.538,0,0,1-.71-7.035c-.108-1.957-.907-2.892-2.723-2.536" transform="translate(-78.034 -103.339)"/>
                <path id="Trazado_715309" data-name="Trazado 715309" d="M92.195,102.47c3.386.511,6.778.989,10.156,1.545a3.136,3.136,0,0,1,2.834,3.869q-.878,6.794-1.975,13.559a2.832,2.832,0,0,1-3.313,2.582c-3.806-.438-7.606-.956-11.384-1.593A2.965,2.965,0,0,1,86,118.8c.556-4.451,1.2-8.892,1.891-13.324.376-2.409,1.993-3.216,4.3-3.007m5.388,16.906c1.341.435,1.669-.519,1.825-1.546.306-2.01.5-4.036.808-6.045.55-3.6.571-3.595-2.969-4.135-5.1-.777-5.1-.777-5.835,4.226-1.054,7.149-1.054,7.149,6.17,7.5" transform="translate(-49.876 -57.32)"/>
                <path id="Trazado_715310" data-name="Trazado 715310" d="M90.472,224.808a5.706,5.706,0,1,1-5.62,5.916,5.891,5.891,0,0,1,5.62-5.916" transform="translate(-49.305 -119.676)"/>
                <path id="Trazado_715311" data-name="Trazado 715311" d="M157.682,130.248a5.6,5.6,0,1,1-5.534-5.59,5.386,5.386,0,0,1,5.534,5.59" transform="translate(-80.711 -68.642)"/>
              </g>
            </g>
          </g>
        </g>
      </g>
    </g>
  </g>
</svg>
