<svg xmlns="http://www.w3.org/2000/svg" xmlns:xlink="http://www.w3.org/1999/xlink" width="130.135" height="137.607" viewBox="0 0 130.135 137.607">
  <defs>
    <clipPath id="clip-path">
      <rect id="Rectángulo_353284" data-name="Rectángulo 353284" width="130.135" height="130.074" fill="none"/>
    </clipPath>
  </defs>
  <g id="Grupo_1003267" data-name="Grupo 1003267" transform="translate(-388 -3244.271)">
    <circle id="Elipse_5714" data-name="Elipse 5714" cx="64.5" cy="64.5" r="64.5" transform="translate(388 3252.879)" fill="#b20d0d"/>
    <g id="Grupo_1003155" data-name="Grupo 1003155" transform="translate(388 3244.271)">
      <g id="Grupo_1003154" data-name="Grupo 1003154" clip-path="url(#clip-path)">
        <path id="Trazado_715618" data-name="Trazado 715618" d="M92.173,90.648c-9.587-4.337-9.539-15-6.984-21.346a12.437,12.437,0,0,1,23.506,2.431c.974,5.388,1.212,10.827-2.85,15.355-.584.652-.587.977.179,1.538,2.475,1.812,3.284,4.42,3.112,7.367-.069,1.173.219,1.8,1.51,1.573a1.243,1.243,0,0,1,.254,0c2.1.061,4.916-.677,6.1.394,1.395,1.26.417,4.131.435,6.3q.087,9.9.012,19.8c-.047,7.574-3.691,12.589-10.92,14.9-1.157.37-1.422.819-1.3,1.911.522,4.706,1.059,9.414,1.436,14.132.134,1.674,1.176,1.327,2.125,1.329,6.431.013,12.863.076,19.292-.039,1.741-.031,2.055.553,2.055,2.13s-.3,2.128-2.043,2.125q-62.958-.082-125.914-.014c-1.527,0-2.2-.2-2.177-2,.027-1.723.37-2.3,2.211-2.248,4.9.143,9.815-.012,14.722.084,1.526.03,2.026-.327,2.013-1.94q-.114-14.85,0-29.7c.012-1.546-.355-2.214-1.941-1.929-1.727.31-2.375-.313-2.275-2.157.161-2.953.091-5.922.019-8.882-.028-1.17.254-1.588,1.52-1.611,2.245-.041,5.329,1.055,6.507-.476,1.116-1.449.277-4.385.338-6.666.129-4.84,2.319-7.641,7.011-9.007q2.552-.743,5.107-1.47c2.969-.847,3.748-3.156,1.5-5.47-4.56-4.7-4.3-17.909,1.459-22.266,7.655-5.792,18.74-1.978,20.287,7.494.882,5.4.887,10.783-3.3,15.268-1.688,1.81-.735,4.21,1.642,4.895,1.7.49,3.385,1.065,5.109,1.464,3.711.858,6.236,2.964,7.1,6.727.242,1.049.759,1.114,1.577,1.11,3.046-.018,6.093-.033,9.139.008a2.835,2.835,0,0,0,2.209-.964c3.332-3.363,6.709-6.682,10.208-10.153M50.575,122.8c-8.378,0-16.756.035-25.134-.03-1.615-.013-2.389.193-2.4,2.134-.01,1.994.853,2.248,2.425,2.068.585-.067,1.194.06,1.774-.024,1.7-.248,2.326.291,2.309,2.149-.016,1.757-.614,2.222-2.192,2.023-.667-.084-1.364.068-2.027-.029-1.8-.263-2.277.477-2.25,2.239.1,6.514.04,13.032.04,19.548,0,3.786,0,3.733,3.775,3.493a1.989,1.989,0,0,0,1.885-1.339c.875-1.826,1.874-3.6,2.688-5.448a2.471,2.471,0,0,1,2.634-1.757c10.916.073,21.834.058,32.751.013a2.162,2.162,0,0,1,2.32,1.412c.869,1.921,1.97,3.738,2.8,5.675,1.09,2.551,3.234,1.276,4.86,1.306,1.57.029.816-1.594.826-2.434.073-6.6-.05-13.2.09-19.8.047-2.219-.41-2.983-2.841-2.957-12.947.138-25.9.047-38.843.088-1.6.006-2.593.025-2.553-2.176.038-2.074.965-2.018,2.45-2.013,13.117.037,26.234.007,39.352.041,1.477,0,2.451.073,2.478-2.017.027-2.193-.979-2.2-2.587-2.187-8.209.051-16.418.024-24.627.024m-8.5-12.606c4.4,0,8.791.012,13.185-.012.745,0,1.6.369,1.619-1.146.062-4.979,1.6-6.7,6.452-7.243,1.689-.191,1.647-.79.845-1.842a3.63,3.63,0,0,0-1.5-1.307c-2.8-.93-5.638-1.734-8.461-2.586-.8-.241-1.207.3-1.724.753-4.438,3.906-8.158,3.935-12.551.04a2.025,2.025,0,0,0-2.206-.68c-2.331.735-4.707,1.326-7.041,2.053a4.294,4.294,0,0,0-3.313,4.516c.023,1.859.116,3.728-.035,5.576-.137,1.678.582,1.939,2.048,1.909,4.224-.087,8.451-.031,12.677-.031m62.732-14.043c-4.472,5.132-9.111,9.564-13.743,13.975-2.206,2.1-3.352,4.218-2.991,7.273.2,1.652.49,3.727-.3,4.94-.807,1.247-2.987.433-4.548.424-1.969-.012-1.292,1.331-1.367,2.274-.079,1-.267,1.988,1.413,1.956,5.159-.1,10.322.042,15.48-.08a5.852,5.852,0,0,0,6-5.7c.146-8.271.048-16.546.048-25.065m.076-19.33c.007-5.875-1.812-9.031-5.919-10.264a8.327,8.327,0,0,0-10.551,6.081c-1.657,7.666,1.2,13.583,6.9,14.3,5.85.735,9.557-3.186,9.565-10.117M54.62,76.717l-.134-.006c0-.93.059-1.864-.01-2.788a8.285,8.285,0,0,0-16.432-.913,19.389,19.389,0,0,0,.115,7.813,8.157,8.157,0,0,0,7.961,6.225,8.263,8.263,0,0,0,8.178-6.3,29.235,29.235,0,0,0,.322-4.035m-3.251,41.8c10.056,0,20.112-.021,30.168.023,1.525.007,2.484-.022,2.447-2.065-.034-1.857-.648-2.18-2.34-2.176q-30.168.084-60.336.015c-1.506,0-2.445,0-2.477,2.047-.035,2.213,1.046,2.181,2.624,2.175,9.971-.038,19.943-.019,29.914-.019m61.937-4.026c0-3.55-.09-7.1.039-10.65.061-1.687-.474-2.136-2.123-2.15-1.719-.014-2.126.583-2.1,2.2q.136,7.986.019,15.976c-.094,6.937-4.385,11.171-11.3,11.227-4.733.038-9.47.093-14.2-.035-1.8-.049-1.811.824-1.83,2.153-.019,1.394.15,2.143,1.879,2.113,6.423-.11,12.852.072,19.271-.1,6.07-.167,10.191-4.507,10.328-10.589.076-3.38.014-6.762.018-10.144M73.7,110.2c3.293,0,6.587-.04,9.878.022a3.324,3.324,0,0,0,2.662-1.074c4.324-4.391,8.694-8.737,13.061-13.085,1.167-1.161,2.111-2.462.715-3.919-1.511-1.578-2.86-.6-4.1.647-3.806,3.835-7.7,7.585-11.425,11.5a5.387,5.387,0,0,1-4.428,1.78c-5.4-.1-10.807-.035-16.21-.038-1.452,0-2.853.194-2.853,2.046,0,1.8,1.332,2.126,2.817,2.124q4.939-.008,9.879,0m8.146,37.245c0,2.79.056,5.068-.023,7.341-.042,1.2.335,1.615,1.564,1.582,2.948-.079,5.9-.127,8.848.015,1.684.081,1.98-.536,1.806-2.036-.486-4.183-.954-8.373-1.231-12.573-.124-1.885-.847-2.364-2.631-2.236-2.675.191-6.312-.918-7.807.437-1.714,1.553-.3,5.236-.527,7.471m-31.493,8.924c5.162,0,10.324.024,15.485-.031.622-.007,2.132.584,1.6-.994-.6-1.781-1.233-3.448-3.944-3.382-8.711.21-17.43.078-26.147.079a11.866,11.866,0,0,0-1.269.016c-.992.108-3.2,2.824-2.835,3.7.51,1.234,1.756.562,2.64.575,4.822.074,9.646.035,14.47.035M98.988,139.6c-1.17-.019-2.212-.175-2.04,1.48.478,4.6.856,9.217,1.305,13.823.214,2.2,1.948,1.34,3.13,1.425,1.593.115,1.115-1.042,1.027-1.919-.426-4.269-.941-8.533-1.233-12.812-.115-1.7-.747-2.275-2.189-2M46.176,95.512a4.966,4.966,0,0,0,3.933-2.339,1.959,1.959,0,0,0,.081-2.151c-.376-.6-1.083-.1-1.6,0a12.049,12.049,0,0,1-4.764,0c-.526-.1-1.247-.562-1.614.072a1.991,1.991,0,0,0,.141,2.164,5.084,5.084,0,0,0,3.823,2.25" transform="translate(0 -30.473)" fill="#060605"/>
        <path id="Trazado_715619" data-name="Trazado 715619" d="M113.817,33.838c0-3.909-.08-7.345.036-10.773.054-1.6-.31-2.216-2.056-2.147-3.631.143-7.273.008-10.909.063-1.188.018-1.827-.12-1.805-1.6q.127-8.879,0-17.76C99.062.178,99.632.007,100.853.01q23.471.05,46.941-.01c1.374,0,1.674.423,1.659,1.716-.066,5.835-.082,11.672.008,17.507.024,1.52-.522,1.785-1.883,1.768-5.412-.07-10.826.017-16.238-.06a5.071,5.071,0,0,0-3.629,1.335c-4.467,3.812-9.017,7.527-13.893,11.573m4.147-8.9c3.119-2.591,5.742-4.709,8.288-6.917a4.726,4.726,0,0,1,3.409-1.246c4.65.076,9.3-.013,13.953.056,1.3.02,1.754-.323,1.709-1.683q-.152-4.561,0-9.132c.044-1.412-.358-1.875-1.824-1.869q-19.155.08-38.309-.008c-1.666-.009-1.974.607-1.927,2.071.093,2.873.114,5.754-.008,8.624-.065,1.543.353,2.062,1.956,2.006,3.463-.121,6.937.062,10.4-.078,1.8-.074,2.629.276,2.4,2.293a56.622,56.622,0,0,0-.041,5.881" transform="translate(-48.741 0)" fill="#020202"/>
        <path id="Trazado_715620" data-name="Trazado 715620" d="M72.887,181.7c8.209,0,16.418.027,24.626-.024,1.609-.01,2.615-.006,2.587,2.187-.026,2.09-1,2.021-2.478,2.017-13.117-.034-26.234,0-39.352-.041-1.484,0-2.412-.061-2.45,2.013-.04,2.2.952,2.182,2.554,2.176,12.948-.041,25.9.05,38.843-.088,2.431-.026,2.888.738,2.841,2.957-.14,6.6-.018,13.2-.09,19.8-.009.84.744,2.463-.825,2.435-1.626-.03-3.77,1.244-4.86-1.306-.828-1.936-1.929-3.754-2.8-5.675a2.163,2.163,0,0,0-2.321-1.412c-10.916.045-21.834.059-32.75-.013a2.471,2.471,0,0,0-2.634,1.757c-.813,1.852-1.812,3.622-2.687,5.448a1.99,1.99,0,0,1-1.885,1.34c-3.778.239-3.775.292-3.775-3.494,0-6.516.06-13.034-.04-19.548-.027-1.762.45-2.5,2.25-2.239.663.1,1.361-.054,2.027.029,1.578.2,2.176-.266,2.192-2.023.018-1.858-.605-2.4-2.309-2.149-.58.084-1.189-.043-1.774.024-1.572.18-2.435-.074-2.425-2.068.01-1.941.784-2.147,2.4-2.134,8.378.066,16.756.03,25.134.03" transform="translate(-22.311 -89.368)" fill="#e2e5e9"/>
        <path id="Trazado_715621" data-name="Trazado 715621" d="M68.54,143.172c-4.226,0-8.453-.056-12.678.031-1.466.03-2.185-.231-2.048-1.909.151-1.847.058-3.717.035-5.576a4.3,4.3,0,0,1,3.313-4.516c2.334-.727,4.71-1.317,7.041-2.053a2.026,2.026,0,0,1,2.207.68c4.393,3.895,8.113,3.866,12.551-.04.517-.455.926-.994,1.723-.753,2.824.853,5.663,1.656,8.461,2.586a3.631,3.631,0,0,1,1.5,1.307c.8,1.052.844,1.651-.845,1.842-4.852.548-6.39,2.264-6.452,7.243-.019,1.515-.874,1.142-1.619,1.146-4.4.023-8.79.012-13.185.012" transform="translate(-26.465 -63.448)" fill="#67d2f0"/>
        <path id="Trazado_715622" data-name="Trazado 715622" d="M184.017,129.276c0,8.518.1,16.794-.048,25.065a5.853,5.853,0,0,1-6,5.7c-5.158.121-10.322-.019-15.48.08-1.68.033-1.492-.959-1.413-1.956.075-.943-.6-2.285,1.367-2.274,1.561.009,3.74.823,4.548-.424.786-1.213.491-3.288.3-4.94-.362-3.055.785-5.173,2.99-7.273,4.633-4.412,9.271-8.843,13.744-13.975" transform="translate(-79.209 -63.595)" fill="#f9d46f"/>
        <path id="Trazado_715623" data-name="Trazado 715623" d="M190.035,80.947c-.009,6.932-3.715,10.852-9.565,10.117-5.705-.717-8.562-6.633-6.9-14.3a8.328,8.328,0,0,1,10.551-6.081c4.107,1.233,5.927,4.388,5.919,10.264" transform="translate(-85.152 -34.596)" fill="#ecccb1"/>
        <path id="Trazado_715624" data-name="Trazado 715624" d="M91.126,80.778a29.242,29.242,0,0,1-.322,4.035,8.263,8.263,0,0,1-8.178,6.3,8.157,8.157,0,0,1-7.961-6.225,19.389,19.389,0,0,1-.115-7.813,8.285,8.285,0,0,1,16.432.913c.069.924.01,1.859.01,2.788l.134.006" transform="translate(-36.506 -34.534)" fill="#ecccb1"/>
        <path id="Trazado_715625" data-name="Trazado 715625" d="M69.6,169.217c-9.971,0-19.943-.019-29.914.019-1.579.006-2.659.038-2.624-2.175.032-2.051.971-2.049,2.477-2.047q30.167.047,60.335-.015c1.693-.005,2.307.318,2.341,2.176.037,2.043-.922,2.071-2.447,2.065-10.056-.045-20.112-.023-30.168-.023" transform="translate(-18.233 -81.168)" fill="#a6aeb8"/>
        <path id="Trazado_715626" data-name="Trazado 715626" d="M192.515,152.982c0,3.381.06,6.764-.016,10.144-.137,6.083-4.257,10.423-10.328,10.589-6.419.176-12.849-.006-19.271.1-1.729.029-1.9-.719-1.879-2.113.018-1.329.025-2.2,1.829-2.153,4.731.129,9.467.073,14.2.035,6.918-.055,11.208-4.291,11.3-11.227q.109-7.987-.018-15.976c-.027-1.619.379-2.217,2.1-2.2,1.65.014,2.185.463,2.123,2.15-.13,3.546-.04,7.1-.042,10.65" transform="translate(-79.211 -68.96)" fill="#ca9a73"/>
        <path id="Trazado_715627" data-name="Trazado 715627" d="M132.764,138.644q-4.939,0-9.879,0c-1.485,0-2.817-.322-2.817-2.124,0-1.853,1.4-2.047,2.853-2.046,5.4,0,10.809-.067,16.21.038a5.386,5.386,0,0,0,4.428-1.779c3.724-3.913,7.619-7.663,11.425-11.5,1.236-1.245,2.585-2.225,4.1-.648,1.4,1.457.452,2.757-.715,3.919-4.367,4.348-8.737,8.695-13.061,13.085a3.324,3.324,0,0,1-2.662,1.074c-3.292-.062-6.586-.022-9.878-.023" transform="translate(-59.065 -58.919)" fill="#ebccb0"/>
        <path id="Trazado_715628" data-name="Trazado 715628" d="M160.765,222.328c.225-2.234-1.187-5.917.527-7.471,1.5-1.356,5.132-.246,7.807-.437,1.784-.128,2.506.351,2.631,2.236.277,4.2.745,8.39,1.231,12.573.174,1.5-.122,2.117-1.806,2.036-2.944-.142-5.9-.094-8.849-.015-1.23.033-1.607-.38-1.564-1.582.079-2.273.023-4.551.023-7.341" transform="translate(-78.921 -105.358)" fill="#f3f5f6"/>
        <path id="Trazado_715629" data-name="Trazado 715629" d="M82.5,243.521c-4.824,0-9.648.039-14.47-.035-.885-.014-2.13.659-2.64-.575-.363-.878,1.843-3.595,2.835-3.7a11.859,11.859,0,0,1,1.269-.016c8.716,0,17.435.132,26.147-.079,2.712-.066,3.342,1.6,3.944,3.382.533,1.578-.977.987-1.6.993-5.161.056-10.323.032-15.485.032" transform="translate(-32.146 -117.626)" fill="#77828d"/>
        <path id="Trazado_715630" data-name="Trazado 715630" d="M192.838,214.713c1.442-.278,2.074.3,2.189,2,.291,4.279.806,8.543,1.233,12.813.087.877.566,2.034-1.027,1.919-1.181-.085-2.915.772-3.13-1.425-.45-4.606-.828-9.22-1.306-13.823-.172-1.654.87-1.5,2.04-1.479" transform="translate(-93.85 -105.591)" fill="#7d8994"/>
        <path id="Trazado_715631" data-name="Trazado 715631" d="M86.8,123.381a5.084,5.084,0,0,1-3.823-2.25,1.991,1.991,0,0,1-.141-2.164c.367-.634,1.088-.176,1.614-.072a12.048,12.048,0,0,0,4.764,0c.519-.1,1.225-.6,1.6,0a1.959,1.959,0,0,1-.081,2.151,4.966,4.966,0,0,1-3.933,2.339" transform="translate(-40.625 -58.343)" fill="#e3c5aa"/>
        <path id="Trazado_715632" data-name="Trazado 715632" d="M122,28.945a56.765,56.765,0,0,1,.041-5.881c.232-2.018-.595-2.367-2.4-2.294-3.461.141-6.936-.043-10.4.079-1.6.056-2.021-.464-1.956-2.006.121-2.871.1-5.751.008-8.624-.047-1.464.26-2.08,1.927-2.071q19.154.1,38.309.008c1.466-.007,1.868.456,1.824,1.869q-.143,4.563,0,9.132c.045,1.36-.407,1.7-1.709,1.683-4.65-.069-9.3.02-13.953-.056a4.726,4.726,0,0,0-3.409,1.246c-2.546,2.208-5.169,4.326-8.288,6.917m6.222-12.284c2.356,0,4.716-.072,7.07.022,1.936.077,1.343-1.284,1.373-2.236.028-.911.439-2.064-1.311-2.034-4.629.079-9.26.094-13.888-.007-1.791-.04-1.576,1.024-1.54,2.117.033,1.024-.393,2.265,1.48,2.166,2.266-.119,4.544-.028,6.817-.028m14.569-.005c1.574.276,2.548.045,2.459-1.966-.071-1.578-.209-2.523-2.143-2.36-1.356.114-2.493,0-2.3,1.948.134,1.368-.209,2.878,1.986,2.378m-27.049-2.04c.426-1.566-.028-2.418-1.949-2.282-1.347.1-2.493-.03-2.279,1.923.144,1.323-.269,2.725,1.949,2.488,1.393-.149,2.847.153,2.28-2.128" transform="translate(-52.774 -4.008)" fill="#dde0e4"/>
        <path id="Trazado_715633" data-name="Trazado 715633" d="M140.434,20.785c-2.273,0-4.55-.091-6.817.028-1.873.1-1.446-1.142-1.479-2.167-.036-1.093-.251-2.156,1.54-2.117,4.627.1,9.26.087,13.888.008,1.75-.03,1.34,1.123,1.311,2.034-.03.952.563,2.313-1.373,2.236-2.353-.094-4.713-.022-7.07-.022" transform="translate(-64.99 -8.131)" fill="#060605"/>
        <path id="Trazado_715634" data-name="Trazado 715634" d="M175.225,20.689c-2.194.5-1.851-1.01-1.986-2.378-.191-1.949.946-1.834,2.3-1.948,1.935-.163,2.073.782,2.144,2.36.089,2.01-.886,2.242-2.459,1.966" transform="translate(-85.211 -8.041)" fill="#202021"/>
        <path id="Trazado_715635" data-name="Trazado 715635" d="M119.81,18.656c.567,2.281-.887,1.978-2.28,2.128-2.218.238-1.8-1.165-1.949-2.488-.213-1.953.932-1.828,2.279-1.923,1.922-.136,2.375.716,1.949,2.282" transform="translate(-56.845 -8.048)" fill="#202021"/>
      </g>
    </g>
  </g>
</svg>
