<svg xmlns="http://www.w3.org/2000/svg" xmlns:xlink="http://www.w3.org/1999/xlink" width="129" height="129" viewBox="0 0 129 129">
  <defs>
    <clipPath id="clip-path">
      <rect id="Rectángulo_353230" data-name="Rectángulo 353230" width="93.933" height="105.782" fill="none"/>
    </clipPath>
  </defs>
  <g id="Grupo_1003251" data-name="Grupo 1003251" transform="translate(-1090 -4861)">
    <circle id="Elipse_5701" data-name="Elipse 5701" cx="64.5" cy="64.5" r="64.5" transform="translate(1090 4861)" fill="#ffc403"/>
    <g id="Grupo_1003102" data-name="Grupo 1003102" transform="translate(1107.615 4872.233)">
      <g id="Grupo_1003101" data-name="Grupo 1003101" clip-path="url(#clip-path)">
        <path id="Trazado_715312" data-name="Trazado 715312" d="M0,52.884q0-24.3,0-48.6C0,.255.266,0,4.352,0Q42.658,0,80.965,0C84.7,0,85,.288,85,3.944c0,6.8-.012,13.593.009,20.389,0,1.382-.14,2.394-1.959,2.368-1.52-.021-2.042-.55-2.027-2.052.055-5.766.021-11.533.019-17.3,0-3.395,0-3.4-3.294-3.4q-35.217,0-70.435,0c-3.115,0-3.123,0-3.123,3q0,45.927,0,91.853c0,2.994.007,3,2.916,3q29.451,0,58.9,0c2.691,0,2.693-.009,2.7-2.753,0-2.2-.019-4.394.009-6.59.028-2.259.665-2.915,2.965-2.969,2.2-.052,4.393-.013,6.59-.019,2.763-.007,2.771-.009,2.772-2.693,0-11.19.02-22.38-.019-33.57-.005-1.541.258-2.482,2.1-2.446,1.83.035,1.888,1.125,1.886,2.47-.015,10.915-.242,21.838.1,32.743.145,4.6-1.052,7.983-4.592,10.891a96.414,96.414,0,0,0-7.607,7.529,4.237,4.237,0,0,1-3.272,1.381q-33.26-.041-66.522-.025c-2.567,0-3.113-.645-3.114-3.652Q-.009,77.494,0,52.884M77.508,93.953c-4.7-.648-5.481-.758-4.51,4.343l4.51-4.343" transform="translate(0 0)"/>
        <path id="Trazado_715313" data-name="Trazado 715313" d="M132.541,108.843c-.755,0-1.511.037-2.263-.009a2.345,2.345,0,0,1-2.036-1.194c-.98-1.737-.326-6.9,1.114-8.344q14.694-14.716,29.4-29.418a6.05,6.05,0,0,1,6.376-1.8A5.334,5.334,0,0,1,169,72.7a5.254,5.254,0,0,1-1.572,4.7q-15.113,15.171-30.26,30.307c-1.346,1.351-2.988,1.156-4.623,1.135m-.445-5.279a.955.955,0,0,0,.661.961,2.62,2.62,0,0,0,2.92-.944c6.43-6.454,12.856-12.913,19.344-19.308,1.018-1,.867-1.566-.058-2.464-.882-.856-1.422-1.16-2.461-.1-6.391,6.492-12.859,12.909-19.3,19.353a3.009,3.009,0,0,0-1.108,2.506" transform="translate(-75.136 -39.862)"/>
        <path id="Trazado_715314" data-name="Trazado 715314" d="M110.873,89.236c-1.009-.33-2.186-.208-2.214-1.7-.031-1.653.293-2.652,2.233-2.514,1.57.111,3.153,0,4.729.047a2.149,2.149,0,0,1,2.324,2.32c.039,1.507.057,3.018.01,4.524-.03.959.338,2.216-1.231,2.375-1.307.132-2.679.3-2.941-1.9a38.638,38.638,0,0,0-7.293,10.876,46.123,46.123,0,0,0-4.254,21.982c.054,1.279.061,2.448-1.828,2.507-1.844.058-2.356-.679-2.372-2.411-.112-13.01,3.4-24.754,11.928-34.8.3-.353.534-.762.909-1.3" transform="translate(-57.647 -49.987)"/>
        <path id="Trazado_715315" data-name="Trazado 715315" d="M68.1,83.965c-.457,2.1-1.763,1.872-2.981,1.729-1.365-.16-1.237-1.246-1.247-2.2-.015-1.372-.032-2.745,0-4.116.058-2.2.756-2.922,2.993-3.037,1.369-.07,2.745-.051,4.116-.015.936.024,2.1-.117,2.118,1.3.01,1.123.6,2.562-1.346,2.892-1.35.229-.489.969-.155,1.447a28.759,28.759,0,0,1,5.079,13.961,29.131,29.131,0,0,1-6.485,21.3c-.688.879-1.364,1.333-2.346.355-.874-.871-1.98-1.531-.728-3.008a23.586,23.586,0,0,0,5.143-10.857c1.381-7-.013-13.446-4.163-19.755" transform="translate(-37.549 -44.862)"/>
        <path id="Trazado_715316" data-name="Trazado 715316" d="M85.118,57.523c-6.3,0-12.593-.011-18.889.009-1.316,0-2.25-.206-2.285-1.867-.035-1.643.5-2.368,2.231-2.348,5.551.063,11.1.021,16.655.02h2.243c.315-1.069-1.367-1.435-.564-2.624,1.259-1.862,2.206-2.062,3.825-.461,1.072,1.06,2.124,2.141,3.2,3.2,1.323,1.3,1.373,2.6.038,3.92-1.071,1.062-2.107,2.16-3.2,3.192-.784.738-1.417,2.027-2.822.674-1.134-1.093-1.86-2.058-.427-3.714" transform="translate(-37.6 -28.915)"/>
        <path id="Trazado_715317" data-name="Trazado 715317" d="M21.774,62.52a7.21,7.21,0,0,1,7.247-7.331,7.288,7.288,0,0,1-.131,14.575,7.175,7.175,0,0,1-7.115-7.244m7.213-3.309A3.339,3.339,0,0,0,25.756,62.5a3.388,3.388,0,0,0,3.27,3.271,3.271,3.271,0,0,0,3.091-3.19,3.32,3.32,0,0,0-3.131-3.37" transform="translate(-12.804 -32.453)"/>
        <path id="Trazado_715318" data-name="Trazado 715318" d="M85.777,203.289a7.1,7.1,0,0,1,7.134-7.194,7.225,7.225,0,0,1,7.283,7.309,7.209,7.209,0,1,1-14.417-.115m7.2,3.182a2.993,2.993,0,0,0,3.149-3.072,3.2,3.2,0,0,0-3.2-3.313,3.266,3.266,0,0,0-3.17,3.156,3.053,3.053,0,0,0,3.219,3.229" transform="translate(-50.44 -115.311)"/>
        <path id="Trazado_715319" data-name="Trazado 715319" d="M148.2,51.074a7.352,7.352,0,0,1,7.326,7.092,7.288,7.288,0,1,1-14.574.085,7.368,7.368,0,0,1,7.248-7.177m3.336,7.3a3.438,3.438,0,0,0-3.262-3.314,3.381,3.381,0,0,0-3.3,3.255,3.148,3.148,0,0,0,3.142,3.124,3.205,3.205,0,0,0,3.416-3.065" transform="translate(-82.885 -30.033)"/>
        <path id="Trazado_715320" data-name="Trazado 715320" d="M41.672,174.99a7.158,7.158,0,0,1,0,14.316,7.16,7.16,0,1,1,0-14.316m-.053,10.338a3.181,3.181,0,1,0-.063-6.361,3.181,3.181,0,0,0,.063,6.361" transform="translate(-20.192 -102.9)"/>
        <path id="Trazado_715321" data-name="Trazado 715321" d="M149.61,185.486a4.782,4.782,0,0,1-2.183-1.966c-.5-.677.109-1.123.489-1.588.817-1,2.394-1.655,2.455-2.9.064-1.294-1.505-1.992-2.4-2.889-1.067-1.068-.552-1.748.274-2.548.79-.767,1.516-1.51,2.522-.313a1.515,1.515,0,0,0,.147.143c2.747,2.5,2.8,2.563,5.482-.029,1.2-1.166,1.909-.7,2.877.228,1.017.975,1.158,1.785.011,2.687a1.425,1.425,0,0,0-.146.145c-2.474,2.572-2.534,2.633.1,5.231,1.167,1.154.884,1.839-.126,2.838-.972.962-1.627,1.125-2.689.072-2.648-2.624-2.7-2.572-5.394-.033-.391.368-.713.849-1.411.924" transform="translate(-86.58 -101.524)"/>
        <path id="Trazado_715322" data-name="Trazado 715322" d="M53.559,115.057c-.085.667-.557.994-.925,1.386-2.575,2.745-2.625,2.794-.045,5.346,1.081,1.07,1.111,1.78.024,2.859-1.067,1.06-1.884,1.208-2.847-.007-.3-.374-.725-.645-1-1.029-1.165-1.609-2.251-1.424-3.366.056-.327.433-.8.751-1.149,1.174-1.047,1.282-1.818.581-2.681-.263s-1.288-1.616-.148-2.534a3.277,3.277,0,0,0,.29-.291c2.479-2.571,2.528-2.621-.1-5.231-1.1-1.089-1.041-1.8.013-2.865,1.08-1.09,1.793-1.052,2.861.028,2.54,2.568,2.585,2.515,5.365-.063.478-.443.931-1.234,1.708-.757a4.531,4.531,0,0,1,2,2.189" transform="translate(-23.949 -66.283)"/>
        <path id="Trazado_715323" data-name="Trazado 715323" d="M91,21.276A6.22,6.22,0,0,0,88.86,18.8c-1.464-1.215-1.235-2.142.077-3.3.95-.84,1.542-.73,2.41.089,2.78,2.625,2.863,2.651,5.627-.014,1.153-1.111,1.8-.636,2.708.225.992.946,1.116,1.647.076,2.709-2.637,2.7-2.639,2.792,0,5.481,1.055,1.072.883,1.763-.086,2.705-.908.883-1.568,1.315-2.71.211-2.708-2.617-2.819-2.624-5.648.047-1.265,1.194-1.847.331-2.68-.417-.952-.855-1.123-1.568-.088-2.528A9.406,9.406,0,0,0,91,21.276" transform="translate(-51.656 -8.773)"/>
      </g>
    </g>
  </g>
</svg>
