<svg xmlns="http://www.w3.org/2000/svg" xmlns:xlink="http://www.w3.org/1999/xlink" width="646" height="415" viewBox="0 0 646 415">
  <defs>
    <clipPath id="clip-path">
      <rect id="Rectángulo_353218" data-name="Rectángulo 353218" width="646" height="415" rx="22" transform="translate(650.269 2726)" fill="#fff"/>
    </clipPath>
    <clipPath id="clip-path-2">
      <rect id="Rectángulo_353423" data-name="Rectángulo 353423" width="417.331" height="383.272" fill="none"/>
    </clipPath>
    <clipPath id="clip-path-4">
      <rect id="Rectángulo_353415" data-name="Rectángulo 353415" width="136.748" height="81.604" fill="none"/>
    </clipPath>
    <clipPath id="clip-path-5">
      <rect id="Rectángulo_353416" data-name="Rectángulo 353416" width="70.498" height="28.693" fill="none"/>
    </clipPath>
    <clipPath id="clip-path-6">
      <rect id="Rectángulo_353417" data-name="Rectángulo 353417" width="354.38" height="186.648" fill="none"/>
    </clipPath>
    <clipPath id="clip-path-7">
      <rect id="Rectángulo_353418" data-name="Rectángulo 353418" width="47.478" height="8.955" fill="none"/>
    </clipPath>
    <clipPath id="clip-path-8">
      <rect id="Rectángulo_353419" data-name="Rectángulo 353419" width="8.188" height="6.683" fill="none"/>
    </clipPath>
    <clipPath id="clip-path-9">
      <rect id="Rectángulo_353420" data-name="Rectángulo 353420" width="100.772" height="37.366" fill="none"/>
    </clipPath>
    <clipPath id="clip-path-10">
      <rect id="Rectángulo_353421" data-name="Rectángulo 353421" width="13.73" height="11.85" fill="none"/>
    </clipPath>
  </defs>
  <g id="Enmascarar_grupo_128" data-name="Enmascarar grupo 128" transform="translate(-650.269 -2726)" clip-path="url(#clip-path)">
    <rect id="Rectángulo_353414" data-name="Rectángulo 353414" width="720" height="458" transform="translate(613.269 2699)" fill="#06d1d1"/>
    <g id="Grupo_1003357" data-name="Grupo 1003357" transform="translate(793.305 2726) rotate(8)">
      <g id="Grupo_1003356" data-name="Grupo 1003356" clip-path="url(#clip-path-2)">
        <g id="Grupo_1003355" data-name="Grupo 1003355">
          <g id="Grupo_1003354" data-name="Grupo 1003354" clip-path="url(#clip-path-2)">
            <path id="Trazado_717085" data-name="Trazado 717085" d="M143.947,39.791C172.6,12.775,241.595,8.48,244.214,14.129S237.3,26.216,237.3,26.216s37.9,8.426,39.609,17.327-27.593,25.07-27.593,25.07,33.727,9.635,31.245,18.62-54.431,15.551-75.987,7.377-60.63-54.819-60.63-54.819" transform="translate(46.399 3.854)" fill="#ffe058"/>
            <g id="Grupo_1003335" data-name="Grupo 1003335" transform="translate(190.346 20.581)" opacity="0.8" style="mix-blend-mode: multiply;isolation: isolate">
              <g id="Grupo_1003334" data-name="Grupo 1003334">
                <g id="Grupo_1003333" data-name="Grupo 1003333" clip-path="url(#clip-path-4)">
                  <path id="Trazado_717086" data-name="Trazado 717086" d="M196.323,19.214C206.18,32.1,222.754,37.9,237.595,32.166A155.279,155.279,0,0,0,269.03,48.675a41.5,41.5,0,0,0,4.275,1.39c-7.528,8.3-23.987,17.383-23.987,17.383s33.727,9.636,31.245,18.62-54.43,15.551-75.987,7.377-60.63-54.819-60.63-54.819C156.1,27.173,175.486,19.822,194,15.564a28.006,28.006,0,0,0,2.322,3.65" transform="translate(-143.947 -15.564)" fill="#ffe058"/>
                </g>
              </g>
            </g>
            <path id="Trazado_717087" data-name="Trazado 717087" d="M243.768,23.5c-27.653-.96-34.091,3.964-34.091,3.964" transform="translate(67.586 7.534)" fill="none" stroke="#ffe058" stroke-linecap="round" stroke-linejoin="round" stroke-width="1.809"/>
            <path id="Trazado_717088" data-name="Trazado 717088" d="M253.593,235.8c-28.151,23.229-50.98,8.944-50.98,8.944" transform="translate(65.309 76.007)" fill="none" stroke="#ffe058" stroke-linecap="round" stroke-linejoin="round" stroke-width="1.809"/>
            <path id="Trazado_717089" data-name="Trazado 717089" d="M223.462,260.6c-26.727-4.284-33.8-20.134-33.8-20.134" transform="translate(61.134 77.51)" fill="none" stroke="#ffe058" stroke-linecap="round" stroke-linejoin="round" stroke-width="1.809"/>
            <g id="Grupo_1003338" data-name="Grupo 1003338" transform="translate(249.601 310.613)" opacity="0.8" style="mix-blend-mode: multiply;isolation: isolate">
              <g id="Grupo_1003337" data-name="Grupo 1003337">
                <g id="Grupo_1003336" data-name="Grupo 1003336" clip-path="url(#clip-path-5)">
                  <path id="Trazado_717090" data-name="Trazado 717090" d="M253.593,235.8c-28.151,23.229-50.98,8.944-50.98,8.944" transform="translate(-184.292 -234.606)" fill="none" stroke="#ffe058" stroke-linecap="round" stroke-linejoin="round" stroke-width="1.809"/>
                  <path id="Trazado_717091" data-name="Trazado 717091" d="M223.462,260.6c-26.727-4.284-33.8-20.134-33.8-20.134" transform="translate(-188.467 -233.103)" fill="none" stroke="#ffe058" stroke-linecap="round" stroke-linejoin="round" stroke-width="1.809"/>
                </g>
              </g>
            </g>
            <path id="Trazado_717092" data-name="Trazado 717092" d="M384.548,193.621s13.223-1.611,15.56,2.556-9.436,16.569-9.436,16.569,14.96-3.787,20.167,4.134S370.286,286.157,319,291.367c0,0-36.45,45.732-96.068,41.158s-84.742-32.978-109.108-67.062-30.173-48.348-30.173-48.348-3.615,11.58-20.24-7.749S25.166,146.2,25.166,146.2l-6.282-36.01S22.292,70.169,54.608,44.6s55.514-34.52,61.027-32.5,2.083,10.878,2.083,10.878S149.195,8.549,166.131,9.2s17.632,7.491,12.352,10.962c0,0,49.107,2.691,52.138,8.877s-5.3,10.858-5.3,10.858S293.2,40.956,327.375,68.83c70.047,57.125,57.172,124.791,57.172,124.791" transform="translate(6.087 2.958)" fill="#ffe058"/>
            <g id="Grupo_1003341" data-name="Grupo 1003341" transform="translate(31.253 149.157)" opacity="0.8" style="mix-blend-mode: multiply;isolation: isolate">
              <g id="Grupo_1003340" data-name="Grupo 1003340">
                <g id="Grupo_1003339" data-name="Grupo 1003339" clip-path="url(#clip-path-6)">
                  <path id="Trazado_717093" data-name="Trazado 717093" d="M61.22,158.031c22.441,16.906,33.542-.636,33.542-.636s7.881,20.541,15.713,25.856,40.3-34.188,40.3-34.188,29.477,49.847,64.679,48.895,37.353-26.024,56.9-12.328,63.587-13.214,63.587-13.214,17.085,41.171,42.077,55.456c-16.546,14.674-38.012,27.806-60.547,30.095,0,0-36.45,45.733-96.069,41.158s-84.74-32.976-109.107-67.062-30.174-48.348-30.174-48.348-3.614,11.58-20.238-7.749S23.635,112.8,23.635,112.8s15.143,28.327,37.585,45.233" transform="translate(-23.635 -112.798)" fill="#ffe058"/>
                </g>
              </g>
            </g>
            <path id="Trazado_717094" data-name="Trazado 717094" d="M135.7.905c-21.587,2.9-45.791,28.867-45.791,28.867" transform="translate(28.982 0.292)" fill="none" stroke="#ffe058" stroke-linecap="round" stroke-linejoin="round" stroke-width="1.809"/>
            <path id="Trazado_717095" data-name="Trazado 717095" d="M86.643,4.548C65.022,16.3,55.7,37.47,55.7,37.47" transform="translate(17.955 1.466)" fill="none" stroke="#ffe058" stroke-linecap="round" stroke-linejoin="round" stroke-width="1.809"/>
            <path id="Trazado_717096" data-name="Trazado 717096" d="M55.277,27.51C33.371,37.781,29.838,65.485,29.838,65.485" transform="translate(9.618 8.867)" fill="none" stroke="#ffe058" stroke-linecap="round" stroke-linejoin="round" stroke-width="1.809"/>
            <path id="Trazado_717097" data-name="Trazado 717097" d="M27.722,73.04c-12.262-37.413-4.77,17.229-4.77,17.229" transform="translate(6.668 19.322)" fill="none" stroke="#ffe058" stroke-linecap="round" stroke-linejoin="round" stroke-width="1.809"/>
            <path id="Trazado_717098" data-name="Trazado 717098" d="M293.586,84.281c-34.5-26.489-45.941-26.526-45.941-26.526" transform="translate(79.824 18.616)" fill="none" stroke="#ffe058" stroke-linecap="round" stroke-linejoin="round" stroke-width="1.809"/>
            <path id="Trazado_717099" data-name="Trazado 717099" d="M268.894,76.988c22.251,10.194,55.111,52.05,18.813,30.16" transform="translate(86.673 24.816)" fill="none" stroke="#ffe058" stroke-linecap="round" stroke-linejoin="round" stroke-width="1.809"/>
            <path id="Trazado_717100" data-name="Trazado 717100" d="M308.786,136.665c-15.007-31.408-34.193-40.452-34.193-40.452" transform="translate(88.51 31.013)" fill="none" stroke="#ffe058" stroke-linecap="round" stroke-linejoin="round" stroke-width="1.809"/>
            <path id="Trazado_717101" data-name="Trazado 717101" d="M46.385,104.186a71.206,71.206,0,0,0-21.61-18.62S-1.145,106.522.7,111.346,34.748,128.83,34.748,128.83s13.424-22.35,11.637-24.644" transform="translate(0.196 27.581)" fill="#fe9138"/>
            <g id="Grupo_1003344" data-name="Grupo 1003344" transform="translate(0 130.87)" style="mix-blend-mode: multiply;isolation: isolate">
              <g id="Grupo_1003343" data-name="Grupo 1003343">
                <g id="Grupo_1003342" data-name="Grupo 1003342" clip-path="url(#clip-path-7)">
                  <path id="Trazado_717102" data-name="Trazado 717102" d="M46.362,99.647c-14.665,6.4-45.684,7.16-45.684,7.16" transform="translate(0.219 -98.75)" fill="none" stroke="#e78029" stroke-linecap="round" stroke-linejoin="round" stroke-width="1.357"/>
                </g>
              </g>
            </g>
            <g id="Grupo_1003347" data-name="Grupo 1003347" transform="translate(10.43 126.582)" style="mix-blend-mode: multiply;isolation: isolate">
              <g id="Grupo_1003346" data-name="Grupo 1003346">
                <g id="Grupo_1003345" data-name="Grupo 1003345" clip-path="url(#clip-path-8)">
                  <line id="Línea_3151" data-name="Línea 3151" x1="6.393" y2="4.89" transform="translate(0.897 0.896)" fill="none" stroke="#e78029" stroke-linecap="round" stroke-linejoin="round" stroke-width="1.357"/>
                </g>
              </g>
            </g>
            <path id="Trazado_717103" data-name="Trazado 717103" d="M243.948,162.218c34.127-10.227,54.957,2.186,56.936,11.443s-32.864,20.032-32.864,20.032,13.571,6.628,8.753,11.446-15.76.147-15.76.147,8.586,22.345-8.583,25.838-53.947-9.76-67.5-23.773c0,0,6.271,15.611.936,18.273s-38.986-25.778-54.123-63.358,112.2-.049,112.2-.049" transform="translate(42.063 46.916)" fill="#ffe058"/>
            <g id="Grupo_1003350" data-name="Grupo 1003350" transform="translate(242.257 198.35)" style="mix-blend-mode: screen;isolation: isolate">
              <g id="Grupo_1003349" data-name="Grupo 1003349">
                <g id="Grupo_1003348" data-name="Grupo 1003348" clip-path="url(#clip-path-9)">
                  <path id="Trazado_717104" data-name="Trazado 717104" d="M267.3,185.187c3.7-3.137,6.019-8.915,2.584-13.287-12.724-16.188-36.081-7.986-51.879-.042-9.447-9.472-21.775-16.6-34.8-21.858,23.437,4.8,43.755,10.784,43.755,10.784,34.127-10.227,54.957,2.186,56.936,11.443,1.137,5.326-9.908,11.151-19.5,15.141a35.995,35.995,0,0,0,2.9-2.181" transform="translate(-183.204 -150)" fill="#ffe058"/>
                </g>
              </g>
            </g>
            <g id="Grupo_1003353" data-name="Grupo 1003353" transform="translate(306.144 241.469)" style="mix-blend-mode: screen;isolation: isolate">
              <g id="Grupo_1003352" data-name="Grupo 1003352">
                <g id="Grupo_1003351" data-name="Grupo 1003351" clip-path="url(#clip-path-10)">
                  <path id="Trazado_717105" data-name="Trazado 717105" d="M231.518,184.232c1.874-.479,3.732-1,5.542-1.624,3.43,1.937,10.926,6.81,7.151,10.585a6.581,6.581,0,0,1-1.83,1.264c-2-4.265-6.2-7.737-10.863-10.226" transform="translate(-231.518 -182.608)" fill="#ffe058"/>
                </g>
              </g>
            </g>
            <path id="Trazado_717106" data-name="Trazado 717106" d="M171.755,216.418c-16.4-5.317-30.141-47.653-30.141-47.653" transform="translate(45.647 54.399)" fill="none" stroke="#ffe058" stroke-linecap="round" stroke-linejoin="round" stroke-width="1.809"/>
            <path id="Trazado_717107" data-name="Trazado 717107" d="M236.329,210.5c2.731,17.468-34.1,15.45-57.757-14.926" transform="translate(57.56 63.041)" fill="none" stroke="#ffe058" stroke-linecap="round" stroke-linejoin="round" stroke-width="1.809"/>
            <path id="Trazado_717108" data-name="Trazado 717108" d="M192.707,221.286c-18-12.419-22.977-37.273-22.977-37.273" transform="translate(54.71 59.314)" fill="none" stroke="#ffe058" stroke-linecap="round" stroke-linejoin="round" stroke-width="1.809"/>
            <path id="Trazado_717109" data-name="Trazado 717109" d="M159.6,199.124c-1.745,14.089-26.507-15.865-24.582-39.021" transform="translate(43.485 51.607)" fill="none" stroke="#ffe058" stroke-linecap="round" stroke-linejoin="round" stroke-width="1.809"/>
            <path id="Trazado_717110" data-name="Trazado 717110" d="M147.052,286.321c16.389-4.823,35.234-5.706,53.43-12.882,12.962-5.113,34.479-19.3,43.638-24.062,12.839-6.674,15.085-6.516,12.544-18.941-.354-1.731-.666-3.361-.935-4.944-16.176,7.625-32.826,12.841-50.468,17.2-27,6.666-43.909-.873-68.009-9.406A234.481,234.481,0,0,0,80.885,221.33c4.676,4.5,11.13,9.792,16.943,12.579,8.98,4.306,25.4,9.168,35.448,12.337s8.733,7.668,6,7.237-5.788-.686-13.021-1.735-19.433-1.228-19.433-1.228c-22.887-3.667-46.413-5.718-69.315-8.53a100.353,100.353,0,0,0,12.2,8.425c15.117,8.768,58.7,19.366,70.492,19.355,5.539,0,17.635-1.362,21.274-.668,4.107.784-.727,3.675-3.543,4.592-5.313,1.73-18.923,6.9-18.923,6.9-10.5,5.088-20.135,12.433-25.8,22.468,3.943-.52,8.23-1.535,17.5-4.134,8.741-2.449,23.676-8.878,36.347-12.607" transform="translate(12.089 71.342)" fill="#feb51c"/>
            <path id="Trazado_717111" data-name="Trazado 717111" d="M84.555,317.743c14.292-5.062,22.835-10.9,40.941-14.395,4.582-.887,32.724-7.344,37.176-7.521,3.948-.159,13.345,1.863,18.8,5.863s6.965,9.98,12.036,8.381c9.681-9.825-5.083-20.34,3.115-25.29,4.177-2.523,32.114-13,40.857-18.13,22.165-13,70.624-36.689,70.171-38.2-2.686-8.965-5.351-17.937-8.123-26.874-1.158-3.733-30.691,16.224-43.54,23.592-4.41,2.527-8.864,4.734-13.337,6.842.268,1.583.581,3.213.935,4.944,2.542,12.425.295,12.267-12.544,18.941-9.16,4.763-30.677,18.949-43.638,24.063-18.2,7.178-37.041,8.06-53.43,12.882C121.3,296.567,106.365,303,97.625,305.445c-9.274,2.6-13.561,3.614-17.5,4.134-3.829,6.781-2.2,10.513,4.434,8.164" transform="translate(25.17 64.826)" fill="#f4a00b"/>
            <path id="Trazado_717112" data-name="Trazado 717112" d="M143.138,264.155c-3.64-.694-15.734.664-21.275.668-11.79.011-55.375-10.587-70.492-19.355a100.182,100.182,0,0,1-12.195-8.425c-.969-.119-1.954-.223-2.922-.344-2.456-.309-5.161,2.716-3.324,4.521,25.132,24.688,71.867,34.033,87.742,34.427,0,0,13.609-5.17,18.923-6.9,2.817-.918,7.65-3.808,3.544-4.592" transform="translate(10.419 76.289)" fill="#f4a00b"/>
            <path id="Trazado_717113" data-name="Trazado 717113" d="M129.855,253.494c2.733.431,4.049-4.065-6-7.237s-26.466-8.032-35.446-12.337c-5.813-2.787-12.267-8.078-16.943-12.579-.073-.008-.144-.02-.216-.026-2.75-.258-5.865,2.879-3.9,5.312A84.8,84.8,0,0,0,97.4,250.531s12.2.18,19.433,1.228,10.289,1.305,13.022,1.735" transform="translate(21.509 71.332)" fill="#f4a00b"/>
            <path id="Trazado_717114" data-name="Trazado 717114" d="M68.4,89.19c-1.031,5.006-7.377,7.93-14.173,6.53s-11.466-6.594-10.435-11.6,7.377-7.93,14.173-6.53,11.466,6.6,10.435,11.6" transform="translate(14.068 24.896)" fill="#262004"/>
            <path id="Trazado_717115" data-name="Trazado 717115" d="M53.525,81.342a1.983,1.983,0,1,1-1.983-1.984,1.984,1.984,0,0,1,1.983,1.984" transform="translate(15.974 25.58)" fill="#fff"/>
            <path id="Trazado_717116" data-name="Trazado 717116" d="M58.17,85.664a3.306,3.306,0,1,1-3.306-3.306,3.305,3.305,0,0,1,3.306,3.306" transform="translate(16.619 26.547)" fill="#fff"/>
            <path id="Trazado_717117" data-name="Trazado 717117" d="M43.935,82.022a26.666,26.666,0,0,1,27.128,2.84,19.03,19.03,0,0,0-27.044-5.15" transform="translate(14.162 24.554)" fill="#fcae47"/>
            <path id="Trazado_717118" data-name="Trazado 717118" d="M45.429,84.215a24.837,24.837,0,0,1,25.126,2.84c1.6,1.2,3.765-1.129,2.713-2.715a21.005,21.005,0,0,0-29.758-5.862c-2.08,1.449-.1,4.89,2,3.426a17.289,17.289,0,0,1,24.331,4.439l2.713-2.715a28.742,28.742,0,0,0-29.13-2.839c-2.311,1.079-.3,4.5,2,3.425" transform="translate(13.668 24.074)" fill="#fcae47"/>
            <path id="Trazado_717119" data-name="Trazado 717119" d="M41.633,87.973a55.2,55.2,0,0,0,30.2,2.235c-1.7,2.774-5.276,3.6-8.476,4.169-3.872.693-7.812,1.388-11.719.927s-7.845-2.257-9.968-5.57" transform="translate(13.42 28.357)" fill="#fcae47"/>
            <path id="Trazado_717120" data-name="Trazado 717120" d="M41.6,90.383a57.828,57.828,0,0,0,31.257,2.235Q71.736,91.16,70.616,89.7c-1.146,1.738-3.246,2.378-5.173,2.832a56.03,56.03,0,0,1-8.319,1.332c-4.743.376-10.36-.35-13.246-4.636-1.418-2.108-4.856-.124-3.425,2,3.7,5.492,10.391,7.1,16.671,6.6A57.584,57.584,0,0,0,67.131,96.2a11.3,11.3,0,0,0,6.909-4.5c1.021-1.548-.659-3.236-2.24-2.914a53.893,53.893,0,0,1-29.148-2.235c-2.4-.873-3.439,2.959-1.055,3.826" transform="translate(12.929 27.859)" fill="#fcae47"/>
          </g>
        </g>
      </g>
    </g>
  </g>
</svg>
