<svg xmlns="http://www.w3.org/2000/svg" xmlns:xlink="http://www.w3.org/1999/xlink" width="646" height="402" viewBox="0 0 646 402">
  <defs>
    <clipPath id="clip-path">
      <rect id="Rectángulo_353203" data-name="Rectángulo 353203" width="646" height="402" rx="22" transform="translate(650.269 2726)" fill="#fff"/>
    </clipPath>
    <clipPath id="clip-path-2">
      <rect id="Rectángulo_353412" data-name="Rectángulo 353412" width="408.739" height="1136.561" fill="none"/>
    </clipPath>
    <clipPath id="clip-path-3">
      <rect id="Rectángulo_353402" data-name="Rectángulo 353402" width="366.593" height="340.95" fill="none"/>
    </clipPath>
    <clipPath id="clip-path-4">
      <path id="Trazado_717021" data-name="Trazado 717021" d="M136.183,636.41c.988,14.917,4.036,29.454,10.149,42.946,14.361,31.7,50.61,53.99,80.725,40.242-5.2,15.15,9.574,32.053,24.53,31.245s27.156-14.571,31.957-29.875c3.691,10.049,13.946,16.795,23.916,15.731s18.8-9.846,20.6-20.481c8.854,9.873,25.58,7.525,33.775-2.99s8.472-26.435,3.083-38.882c-1.244-2.871-2.8-5.838-2.47-8.987.536-5.149,5.56-8.005,9.377-11.15,5.409-4.454,8.973-10.774,10.9-17.8Z" transform="translate(-136.183 -636.41)" fill="none"/>
    </clipPath>
    <clipPath id="clip-path-6">
      <rect id="Rectángulo_353403" data-name="Rectángulo 353403" width="20.439" height="39.047" fill="none"/>
    </clipPath>
    <clipPath id="clip-path-7">
      <rect id="Rectángulo_353404" data-name="Rectángulo 353404" width="20.439" height="39.048" fill="none"/>
    </clipPath>
    <clipPath id="clip-path-8">
      <rect id="Rectángulo_353405" data-name="Rectángulo 353405" width="26.754" height="35.303" fill="none"/>
    </clipPath>
    <clipPath id="clip-path-9">
      <rect id="Rectángulo_353406" data-name="Rectángulo 353406" width="18.772" height="30.346" fill="none"/>
    </clipPath>
    <clipPath id="clip-path-10">
      <rect id="Rectángulo_353407" data-name="Rectángulo 353407" width="21.672" height="35.926" fill="none"/>
    </clipPath>
    <clipPath id="clip-path-11">
      <rect id="Rectángulo_353408" data-name="Rectángulo 353408" width="21.672" height="35.925" fill="none"/>
    </clipPath>
    <clipPath id="clip-path-12">
      <rect id="Rectángulo_353409" data-name="Rectángulo 353409" width="22.069" height="24.627" fill="none"/>
    </clipPath>
    <clipPath id="clip-path-13">
      <rect id="Rectángulo_353410" data-name="Rectángulo 353410" width="17.849" height="44.392" fill="none"/>
    </clipPath>
    <clipPath id="clip-path-14">
      <rect id="Rectángulo_353413" data-name="Rectángulo 353413" width="376" height="364" transform="translate(0 0.084)" fill="none"/>
    </clipPath>
  </defs>
  <g id="Enmascarar_grupo_127" data-name="Enmascarar grupo 127" transform="translate(-650.269 -2726)" clip-path="url(#clip-path)">
    <rect id="Rectángulo_353210" data-name="Rectángulo 353210" width="702" height="437" transform="translate(631.269 2710)" fill="#b20d0d"/>
    <g id="Grupo_1003331" data-name="Grupo 1003331" transform="translate(916.53 2189.95)">
      <g id="Grupo_1003330" data-name="Grupo 1003330" clip-path="url(#clip-path-2)">
        <g id="Grupo_1003301" data-name="Grupo 1003301" transform="translate(37.076 534.442)">
          <g id="Grupo_1003300" data-name="Grupo 1003300" clip-path="url(#clip-path-3)">
            <path id="Trazado_717004" data-name="Trazado 717004" d="M229.436,926.971c1.088-12.786,5.624-26.3,5.549-40.962-.054-10.443-4.158-29.235-5.005-36.909-1.188-10.755-.461-12.3-9.909-13.676-1.317-.192-2.551-.388-3.738-.6.943,13.352.061,26.422-1.7,39.974-2.694,20.737-12.633,30.74-25.24,45.557a181.393,181.393,0,0,0-23.847,36.7c4.451-2.149,9.944-5.352,13.5-8.74,5.49-5.234,13.409-15.57,18.393-21.848s7.791-4.2,6.74-2.387-2.067,3.907-4.787,8.74-6.184,13.389-6.184,13.389c-8.847,15.2-16.73,31.27-24.98,46.7a78.149,78.149,0,0,0,9.272-6.45c10.314-8.423,29.707-36.455,32.927-44.771,1.513-3.908,3.868-12.783,5.353-15.173,1.676-2.695,2.389,1.451,2.265,3.671-.236,4.188-.319,15.1-.319,15.1.713,8.7,3.246,17.37,8.764,23.924.714-2.913,1.172-6.2,1.88-13.4.667-6.789.226-18.96,1.068-28.846" transform="translate(-73.773 -668.201)" fill="#feb51c"/>
            <path id="Trazado_717005" data-name="Trazado 717005" d="M246.017,959.036c.346-11.37-1.425-18.882,1.066-32.541.63-3.457,3.783-24.948,4.877-28.133.969-2.825,4.965-8.935,9.275-11.76s8.936-2.366,9.2-6.35c-4.271-9.332-15.718-1.6-16.961-8.647-.634-3.588-.369-25.961-1.589-33.435-3.093-18.946-6.514-59.157-7.7-59.224-7.051-.393-14.1-.8-21.153-1.126-2.947-.135,3.028,25.78,4.7,36.72.574,3.754.91,7.456,1.17,11.149,1.188.214,2.421.411,3.738.6,9.448,1.376,8.722,2.921,9.909,13.675.848,7.675,4.952,26.466,5.005,36.909.076,14.662-4.461,28.175-5.549,40.962-.841,9.886-.4,22.057-1.068,28.846-.708,7.2-1.166,10.485-1.879,13.4,3.728,4.429,6.8,4.231,6.965-1.044" transform="translate(-86.337 -659.067)" fill="#f4a00b"/>
            <path id="Trazado_717006" data-name="Trazado 717006" d="M216.166,943.842c-1.486,2.39-3.84,11.265-5.353,15.173-3.219,8.315-22.613,36.347-32.926,44.77a78.3,78.3,0,0,1-9.272,6.451c-.349.653-.691,1.321-1.042,1.972-.89,1.653.5,4.332,2.275,3.5,24.268-11.425,43.642-42,48.264-53.09,0,0,.084-10.916.32-15.1.125-2.22-.59-6.366-2.265-3.671" transform="translate(-74.161 -685.527)" fill="#f4a00b"/>
            <path id="Trazado_717007" data-name="Trazado 717007" d="M204.07,940.756c1.051-1.817-1.756-3.891-6.74,2.386s-12.9,16.614-18.393,21.848c-3.555,3.388-9.047,6.59-13.5,8.739-.025.049-.052.1-.077.145-.935,1.874.423,4.87,2.674,4.108a66.172,66.172,0,0,0,25.065-15.1s3.466-8.557,6.184-13.389,3.735-6.922,4.787-8.74" transform="translate(-73.666 -684.878)" fill="#f4a00b"/>
            <path id="Trazado_717008" data-name="Trazado 717008" d="M346.9,925.3c-1.114-11.04,1.043-23.682-1.536-35.96-1.837-8.745-9.087-23.326-11.233-29.52-3.006-8.68-2.555-10.185-12.091-8.619-1.329.218-2.576.409-3.782.572,3.209,10.928,4.574,22.147,5.156,34.023.892,18.171-7.183,29.425-17.061,45.485a175.4,175.4,0,0,0-17.2,37.654c4.014-3.085,8.874-7.353,11.794-11.219,4.51-5.972,10.539-16.923,14.372-23.625s6.951-5.769,6.227-3.942-1.368,3.872-3.218,8.71a134.031,134.031,0,0,0-3.8,13.013c-6.111,15.3-11.126,31.048-16.61,46.371a91.813,91.813,0,0,0,8.025-8.082c8.713-10.036,23.014-39.137,24.762-47.04.822-3.714,1.623-11.837,2.677-14.269,1.189-2.744,2.6.528,2.857,2.426.483,3.581,2.266,12.761,2.266,12.761,2.187,7.092,6.163,13.635,12.715,17.545.2-2.649.094-5.534-.44-11.779-.5-5.887-3.016-15.971-3.877-24.505" transform="translate(-101.172 -670.738)" fill="#feb51c"/>
            <path id="Trazado_717009" data-name="Trazado 717009" d="M362.061,950.6c-1.6-9.636-4.629-15.428-4.511-27.6.03-3.081-.538-22.018-.006-25,.472-2.65,3.362-8.925,7.122-12.537s8.391-4.558,7.968-7.975c-5.8-6.6-15.746,3.182-18.172-2.369-1.237-2.828-4.8-21.671-7.277-27.589-6.281-15-16.518-47.751-17.7-47.463-7.007,1.7-14.016,3.388-21.014,5.147-2.923.736,7.385,20.754,10.9,29.449,1.206,2.984,2.169,5.994,3.057,9.016,1.206-.162,2.454-.353,3.783-.571,9.535-1.566,9.085-.061,12.091,8.619,2.145,6.193,9.4,20.774,11.233,29.52,2.579,12.278.423,24.92,1.536,35.96.861,8.535,3.374,18.619,3.877,24.506.534,6.245.644,9.13.439,11.779,4.427,2.642,7.421,1.591,6.677-2.882" transform="translate(-105.341 -662.63)" fill="#f4a00b"/>
            <path id="Trazado_717010" data-name="Trazado 717010" d="M335.645,943.573c-1.054,2.433-1.854,10.555-2.677,14.269-1.748,7.9-16.048,37-24.762,47.039a91.706,91.706,0,0,1-8.025,8.082c-.233.649-.455,1.308-.689,1.955-.594,1.643,1.233,3.489,2.837,2.278,21.936-16.573,35.783-47.8,38.438-58.437,0,0-1.782-9.18-2.266-12.761-.256-1.9-1.667-5.171-2.856-2.426" transform="translate(-103.44 -685.456)" fill="#f4a00b"/>
            <path id="Trazado_717011" data-name="Trazado 717011" d="M321.494,945.065c.725-1.828-2.393-2.759-6.227,3.942s-9.861,17.654-14.372,23.625c-2.92,3.866-7.779,8.134-11.794,11.219-.016.049-.035.1-.051.144a2.25,2.25,0,0,0,3.333,2.676,78.956,78.956,0,0,0,22.093-19.883,134,134,0,0,1,3.8-13.013c1.85-4.838,2.494-6.883,3.218-8.71" transform="translate(-101.125 -685.651)" fill="#f4a00b"/>
            <path id="Trazado_717012" data-name="Trazado 717012" d="M119.919,658.958c14.734,14.684,36.442,17.9,56.647,20.176,33.88,3.823,68.814,6.957,101.472-3.245,16.778-5.241,32.393-13.849,47.884-22.4,14.155-7.816,28.489-15.763,40.236-27.154,25.224-24.461,35.387-61.763,38.37-97.665,2.033-24.463,1.262-49.075.49-73.616l-5.2-165.067-36.38,25.369a113.59,113.59,0,0,1-.915-54.389L316.923,272.42c-2.852.716-6.009,1.4-8.591-.061-2.962-1.672-4.042-5.488-4.847-8.915l-18.93-80.652a28.279,28.279,0,0,1-11.147,11.65c.572-16.178-14.737-30.858-30.041-28.807-6.315.847-12.636,4.05-18.783,2.315-5.548-1.564-9.384-6.753-12.568-11.77A203.019,203.019,0,0,1,183,78.5c-1.755-11.442-2.579-23.188-6.546-34-6.182-16.855-20.192-30.324-36.734-35.316-2.484-.75-5.233-1.3-7.585-.174-2.472,1.183-3.881,3.9-5.06,6.471a194.089,194.089,0,0,0-15.209,50.183c-10.546-3.017-18.033-14.945-16.508-26.3-21.759,25.238-44.05,51.4-54.766,83.517-15.139,45.377-4.972,95.249,5.315,142.1L44.43,251.7q-3.089,31.775-6.179,63.551l-6.739-9.023C14.374,349.843,13.969,399.161,22.874,445.4s26.645,90.039,45.07,133.073C82.936,613.495,98.028,641.9,127.4,664.788" transform="translate(-40.873 -535.782)" fill="#ceb5b3"/>
            <path id="Trazado_717013" data-name="Trazado 717013" d="M113.354,662.679c13.148,12.781,30.183,17.85,47.339,20.453a467.019,467.019,0,0,0,58.61,5.378c20.153.484,40.637-1.225,60.02-7.5s37.5-16.665,55.356-26.728c16.263-9.164,32.127-19.647,43.934-35.1,10.893-14.254,18.429-30.973,23.336-48.62,11.24-40.429,8.878-83.558,7.567-125.19q-2.466-78.365-4.932-156.731c-.163-5.176-5.589-9.243-9.982-6.18l-36.38,25.369,9.745,4.277a107.792,107.792,0,0,1-.915-50.583c1.209-5.418-3.169-10.059-8.16-8.8l-33.836,8.5-8.092,2.032c-1.679.422-5.225,2.089-6.938,1.469-2.362-.855-3.134-9.279-3.72-11.78q-8.614-36.7-17.226-73.394a6.533,6.533,0,0,0-12.125-1.71,22.974,22.974,0,0,1-8.768,9.083l9.981,6.18c.272-22.216-20-39.15-39.791-35.493-4.562.842-10.419,3.829-14.991,1.74-4.052-1.852-6.711-6.77-9.029-10.546a194.3,194.3,0,0,1-15.776-31.731,201.021,201.021,0,0,1-9.832-34.684c-2.232-11.744-2.839-23.878-5.964-35.415-5.792-21.375-21.338-38.39-40.934-45.3C135.707-.5,128.747-1.3,123.692,3.955c-4.436,4.615-6.667,11.931-9,17.922a201.694,201.694,0,0,0-11.1,40.54l8.16-5c-7.926-2.513-12.578-10.683-11.638-19.4.674-6.257-7.656-9.318-11.325-5.061-19.811,22.983-40.36,46.768-52.361,75.761-13.095,31.635-13.811,65.953-9.45,99.782,2.478,19.226,6.515,38.162,10.655,57.036,1.682,7.665,13.937,6.23,13.031-1.9l-1.478-13.273c-1.016-9.124-12.366-9.266-13.267,0q-3.089,31.776-6.179,63.551l11.325-5.061-6.739-9.023c-3.517-4.709-9.4-1.187-11.087,3.158C3.8,353.03,5.695,409.52,17.887,461.292c6.5,27.62,15.912,54.3,26.276,80.475C53.509,565.367,63,589.3,74.823,611.605c12.088,22.8,27.636,42.524,47.354,58.023,2.9,2.277,7.4.532,9.077-2.568,1.963-3.621.524-7.509-2.38-9.793C93.577,629.524,76.429,585.8,59.41,543.979c-19.639-48.259-36.448-99.34-37.472-152.586-.557-28.987,3.682-57.79,14.1-84.6l-11.088,3.158,6.739,9.023c4.022,5.385,10.8.358,11.325-5.061q3.089-31.775,6.179-63.551H35.922L37.4,263.632l13.031-1.9c-6.87-31.314-13.731-63.222-12.66-95.62a149.139,149.139,0,0,1,8.5-46c4.979-13.724,12.45-26.408,20.615-38.161,9.542-13.735,20.465-26.319,31.286-38.873l-11.324-5.06c-1.616,14.982,8.3,29.057,21.378,33.2a6.636,6.636,0,0,0,8.16-5,198.976,198.976,0,0,1,8.48-33.509,153,153,0,0,1,6.06-14.965c.516-1.088,1.206-3.277,2.3-3.612,1.868-.571,5.563,1.461,7.3,2.172,17,6.966,27.575,23.043,31.114,41.8,2.114,11.208,3.025,22.606,5.475,33.754a206.833,206.833,0,0,0,9.189,30.36,209.641,209.641,0,0,0,14.389,30.125c4.957,8.482,10.652,18.434,20.252,21.166,10.367,2.95,20.369-5.092,30.524-.757A22.274,22.274,0,0,1,264.9,193.1a6.709,6.709,0,0,0,9.982,6.181,36.679,36.679,0,0,0,13.527-14.218l-12.124-1.71q4.921,20.97,9.843,41.939c3.157,13.45,5.858,27.149,9.524,40.447,1.575,5.714,4.631,10.863,10.181,12.68,5.872,1.922,12.617-.851,18.334-2.287l38.25-9.608-8.161-8.805a124.3,124.3,0,0,0,.915,58.195c1.109,4.286,6.107,6.814,9.745,4.277l36.38-25.368-9.981-6.181,4.2,133.387c.693,22.011,1.652,44.037,1.792,66.062.126,19.852-.442,39.89-3.853,59.446-2.961,16.979-7.83,33.687-15.988,48.632-8.488,15.551-20.335,27.477-34.579,36.8a391.413,391.413,0,0,1-49.629,27.341,150.563,150.563,0,0,1-55.709,13.659c-21.795,1.156-43.64-1.077-65.289-3.614-17.146-2.009-36.21-4.858-49.525-17.8-6.329-6.152-15.741,3.94-9.381,10.122" transform="translate(-38.998 -534.442)" fill="#ceb5b3"/>
            <path id="Trazado_717014" data-name="Trazado 717014" d="M123.959,636.4a105.561,105.561,0,0,0,.578,53.7c.736,2.655,1.7,5.463,3.829,7.02,3.138,2.3,7.372.966,10.9-.54a210.406,210.406,0,0,0,45.19-26.423l2.41,16.046a87.641,87.641,0,0,1,21.987-13.478c2.238-.948,4.684-1.808,7.008-1.144,5.548,1.585,6.142,9.946,4.428,15.856s-4.494,12.5-1.7,17.907c3.123,6.053,11.737,6.208,16.9,2.1s7.726-10.928,10.042-17.39c6.009,7.674,16.648,15.8,23.358,8.839,1.575-1.634,2.524-3.87,4.1-5.5,7.031-7.3,17.99,2.01,23.682,10.559,3.344-10.588,12.083-23.7,21.132-18.241,2.189,1.319,4.015,3.693,6.52,3.814,9.7.471.788-24.662,10.49-25.151,1.914,8.943,15.886,10.321,19.27,1.9,3.528-8.776-2.741-22.665,5.353-26.571,3.915-1.889,8.8.643,12.659-1.37,7.292-3.8,2.133-15.6,2.627-24.318.914-16.162,24.372-26.55,19.05-41.691-1.255-3.57-4.02-6.33-5.307-9.887-2.06-5.694.031-12.022,1.586-17.9,14.243-53.821-17.8-113.321-1.027-166.285L370.706,388.2c-1.965,1.068-4.173,2.166-6.285,1.5-5.812-1.818-2.607-11.407-4.254-17.689-2.776-10.594-19.374-9.555-23.309-19.713-3.046-7.865,1.842-20.831-5.778-23.086-2.5-.74-5.084.5-7.568,1.3-18.535,5.981-36.437-12.886-43.149-32.464s-7.421-41.59-17.217-59.59a31.109,31.109,0,0,0-16.193,7.36c-1.468-7.507-4.495-16.626-11.566-17.432-2.032-.232-4.171.32-6.083-.459-2.589-1.055-3.857-4.112-5.129-6.765-7.793-16.249-24.3-25.779-32.95-41.515-8.076-14.691-8.259-32.66-10.453-49.575s-7.964-35.35-22.082-43.076l-19.113,52.381c-8.543-9.48-12.822-23.243-11.307-36.364A115.058,115.058,0,0,0,95.715,155.1c-7.253-2.425-12-11.442-10.216-19.406C56.687,178.643,49.3,237.349,66.444,287.037c-1.5-10.171,6.511-20.751,16.048-21.188.739,30.751-25.249,57.246-22.821,87.9,1.259,15.888,10.188,31.447,6.331,46.84a23.71,23.71,0,0,1-8.889-11.992L61.5,416.611c.4,2.529.783,5.186,0,7.607-2.855,8.79-16.789,6.143-21.344,14.054-4.072,7.073,2.411,15.377,5.954,22.774,4.062,8.481,4.222,18.434,4.295,27.98q.162,21.606.325,43.212c.048,6.3.2,13,3.414,18.258,5.762,9.436,20.027,12.159,21.776,23.3.729,4.642-1.138,9.6.339,14.026,2.27,6.812,10.575,8.2,15.655,12.928,7.015,6.532,6.783,18.069,9.66,27.572s14.861,17.844,20.641,10.029" transform="translate(-45.688 -548.38)" fill="#ddc6c3"/>
            <path id="Trazado_717015" data-name="Trazado 717015" d="M115.548,633.091a113.606,113.606,0,0,0-2.912,38.127c1.014,10.268,2.238,28.01,12.989,32.1,4.99,1.9,10.085.359,14.8-1.681,5.277-2.285,10.49-4.759,15.6-7.452a216.219,216.219,0,0,0,29.907-19.146l-9.882-4.337,2.41,16.046c.645,4.3,6.63,7.015,9.882,4.337a92.339,92.339,0,0,1,13.481-9.306c1.657-.929,8.947-5.459,10.232-4.635,1.53.981-.1,6.749-.584,8.354-1.72,5.757-3.587,11.715-2.208,17.816,2.428,10.747,13.585,14.932,22.654,11.68,10.121-3.629,14.612-14.492,18.182-24.4l-11.243,3.2c6.905,8.58,19.191,18.14,29.9,11.32,2.709-1.725,4.163-4.133,6.077-6.7.81-1.087,1.245-1.757,2.453-1.822,4.264-.233,9.508,6.492,11.662,9.629,3.5,5.1,10.253,4.451,12.3-1.734,1.322-4,5.381-14.192,10.17-14.19,2.531,0,5.458,3.859,8.172,4.653a10.4,10.4,0,0,0,9.694-2.005c4.355-3.724,4.83-9.925,5.05-15.5.084-2.12.149-5.7.339-6.881-.14.873.187-.84.231-1,.281-1.048.142.042,0-.218-.515-.922,1.163-.338-.035-.038-.683.172-1.106.84-1.962.931L326.4,664.91a17.275,17.275,0,0,0,23.376,11.483c11.632-4.9,9.8-17.711,10.064-28.61a14.927,14.927,0,0,1,.193-2.158c.051-.29.311-.785.212-.727,1.028-.614,4.98.2,6.576.114a14.181,14.181,0,0,0,13.37-10.735c1.412-5.4.121-10.958-.455-16.361-.506-4.742-.116-7.667,2.254-11.666,4.82-8.133,12.506-13.96,15.9-23.134a21.553,21.553,0,0,0,.577-13.7c-.989-3.252-2.772-5.846-4.45-8.688-1.742-2.951-1.842-5.511-1.128-8.912,1.457-6.936,3.483-13.571,4.415-20.646a150.221,150.221,0,0,0,1.3-20.77c-.106-13.965-1.894-27.857-3.853-41.636-4.218-29.663-10.226-60.659-1.167-89.978,1.979-6.406-4.977-10.862-9.882-8.2l-13.084,7.113c-1.473.8-4.173,1.527-5.234,2.845.423-.526-3.267,2.18-.112,1.416.89-.216-.575,1.85.227-.423.588-1.668.076-5.923-.081-8.048a20.662,20.662,0,0,0-3.121-10.155c-3.683-5.563-9.514-7.73-15.019-10.487-4.858-2.433-6.631-3.758-6.764-9.554-.153-6.619.591-14.249-4.3-19.272a12.448,12.448,0,0,0-11.368-3.362c-3.769.688-7.08,2.434-10.977,2.327-14.142-.388-25.119-16.567-29.392-29.591-6.517-19.862-7.589-41.4-17.446-59.985-1.631-3.076-4.61-3.795-7.6-3.336a36.666,36.666,0,0,0-17.8,8.091l9.882,4.337c-1.231-6.056-3.174-12.234-7.066-16.935a16.585,16.585,0,0,0-6.524-4.8,15.274,15.274,0,0,0-4.462-1.028c-.828-.071-3.36.173-3.676-.095-1.473-1.248-2.438-5.035-3.438-6.768a72.011,72.011,0,0,0-5.811-8.425c-4.008-5.1-8.607-9.6-13.055-14.244-4.148-4.328-8.319-8.77-11.46-14.027-3.58-5.992-5.6-12.668-6.936-19.61-2.7-13.988-2.614-28.463-6.071-42.3-3.528-14.125-10.506-27.858-22.855-34.929-4.152-2.377-8.263-.1-9.882,4.337l-19.113,52.381,11.244-3.2c-7.414-8.492-10.5-19.721-9.337-31.232.691-6.863-7.538-8.742-11.483-5.132-15.971,14.61-27.726,33.869-34.285,55.29l8.275-5.069c-3.767-1.436-6.3-6.255-5.518-10.478,1.536-8.254-7.836-12.3-12.3-5.593-29.707,44.7-37.31,105.311-19.733,156.938,1.152,3.383,3.9,5.763,7.381,5.2,2.972-.482,6.244-3.5,5.833-7.128-.714-6.3,2.917-13.384,9.321-13.929l-6.726-7.258c.281,22.367-13.279,41.6-19.507,62.173a71.4,71.4,0,0,0-2.085,34.641c2.249,11.657,8.081,23.9,5.342,35.993l9.882-4.337a16.614,16.614,0,0,1-5.8-7.655c-3.163-8.706-14.426-5.42-12.973,3.859q1.611,10.3,3.223,20.6c.5,3.169,1.58,6.857,1.371,10.1-.079,1.239-.116.99-1.364,1.72-6.462,3.782-14.979,3.666-19.517,11.666-6.535,11.523,2.874,21.658,6.694,31.83,4.276,11.389,2.659,25.547,2.749,37.546l.156,20.776c.047,6.311-.137,12.676.817,18.927,1.719,11.267,8.879,17.333,17.174,23.23,2.453,1.743,5.946,3.817,7.066,6.931.7,1.955.293,4.281.139,6.327a26.126,26.126,0,0,0,.63,9.576c1.55,5.108,5.23,8.707,9.44,11.325,3.215,2,7.277,3.378,9.62,6.648,3.028,4.226,3.573,10.383,4.577,15.432,1.162,5.84,2.7,11.208,6.227,15.916,6.468,8.631,19.4,14.038,27.334,4.412,5.737-6.96-3.745-17.262-9.513-10.264-.833,1.01-.8,1.154-1.959.93a10.352,10.352,0,0,1-3.365-1.957c-2.913-2.425-4.127-5.587-4.993-9.3-2.25-9.646-3.155-20.223-10.47-27.278-3.183-3.069-7.021-4.806-10.668-7.076-3.88-2.414-3.666-4.32-3.347-9.081.725-10.8-3.985-17.727-11.934-23.646-2.683-2-5.6-3.719-8.092-6-3.524-3.231-4.771-7.183-5.037-12.122-.661-12.29-.281-24.724-.374-37.033-.09-11.927.8-24.768-2.623-36.293-1.609-5.422-4.41-10.037-6.9-14.993-1.181-2.351-3.022-6.363-1.4-7.854,2.408-2.214,6.341-2.634,9.4-3.779,4.318-1.615,8.543-3.938,10.953-8.341,3.353-6.124,1.59-13.129.568-19.663l-3.61-23.074L48.7,389.145a33.411,33.411,0,0,0,11.981,16.329c3.559,2.6,8.9,0,9.882-4.337,3.1-13.668-1.34-26.414-4.434-39.537-2.639-11.188-1.9-21.381,1.536-32.257,6.835-21.66,19.927-41.13,19.628-64.872-.046-3.693-3.05-7.571-6.727-7.258-13.075,1.114-24.434,13.807-22.775,28.446l13.213-1.93c-16.481-48.41-9.473-103.845,18.377-145.753l-12.3-5.592C74.789,144.732,81,156.525,92,160.718c3.55,1.352,7.2-1.559,8.275-5.07A109.567,109.567,0,0,1,131.1,106.765l-11.484-5.133a55.265,55.265,0,0,0,13.278,41.5c3.779,4.328,9.491,1.6,11.243-3.2q9.557-26.19,19.113-52.381l-9.882,4.337c21.553,12.342,18.531,46.01,22.613,67.861A72.833,72.833,0,0,0,193.439,195.6c7.971,8.978,17.5,16.675,23,27.842,1.529,3.1,3.09,6.181,5.827,8.24A11.9,11.9,0,0,0,227.657,234c1.537.255,3.3-.175,4.766.184,4.231,1.039,5.322,8.268,6.118,12.184.848,4.169,6.491,7.152,9.882,4.337a28.866,28.866,0,0,1,14.587-6.628l-7.6-3.336c9.085,17.135,9.978,37.45,15.875,55.845,5.439,16.969,16.9,33.587,33.323,39.254,6.789,2.344,16.434,2.579,22.677-1.054-.91.529-.164-1.931-.47-.055a33.827,33.827,0,0,0,.23,3.517c.054,3.988-.1,7.982.668,11.916,1.45,7.4,6.676,12.168,12.772,15.221,2.441,1.223,4.97,2.248,7.352,3.606,2.008,1.145,3.491,2.128,3.916,3.57,1.076,3.655.115,8.129.658,11.942.575,4.039,2.473,7.8,5.916,9.774,5.7,3.271,11.276.2,16.463-2.615l15.7-8.535-9.882-8.2c-15.6,50.471,9.759,101.31,3.722,152.311-1.535,12.965-9.231,27.232-2.558,39.737,1.192,2.235,2.888,4.2,3.822,6.585a6.331,6.331,0,0,1,.084,3.426c-.757,2.843-3.041,5.876-5.191,8.547-5.553,6.9-12.4,14-13.989,23.382-.9,5.3.012,10.316.606,15.585.181,1.607.637,4.216.2,5.482-.177.519-.011.456.25.213-.757.7-2.19.291-3.1.252-6.289-.268-12.487.867-15.9,7.263-2.618,4.907-2.2,10.767-2.008,16.2.083,2.334.346,4.966-.3,7.223-.153.535-.7,1.475-.574,1.319a4.761,4.761,0,0,1-.894.523c-2.34.91-4.972-.249-5.412-1.923-.739-2.821-3.576-5.636-6.487-5.328-7.691.813-10.882,6.9-11.657,14.568-.279,2.758-.268,5.528-.413,8.295-.039.729-.07,1.465-.146,2.192.132-1.25-.085.35-.135.731-.047.2-.093.4-.139.6q-.323,1.025-.019.223.326-.756-.1.116a2.266,2.266,0,0,1,.818-.926c1.635-.848,2.611-.068.87-1.454a19.422,19.422,0,0,0-5.657-3.415A15.122,15.122,0,0,0,303.726,678c-7.84,4.4-12.621,14.014-15.466,22.628l12.3-1.733c-6.55-9.542-18.548-21.457-30.409-15a18.567,18.567,0,0,0-6.3,6.235c-.893,1.316-1.542,2.711-3.115,2.83-4.572.348-9.764-6.191-12.365-9.423-3.636-4.517-9.569-1.448-11.244,3.2-1.8,4.989-6.142,17.707-13.308,14.623-3.171-1.365-.978-6.685-.237-9.2,1.276-4.326,2.554-8.559,2.338-13.174-.476-10.166-7.431-18.089-17.3-15.819-9.628,2.214-19.355,9.039-27.066,15.386l9.882,4.337-2.409-16.047c-.665-4.429-6.573-6.851-9.882-4.337a217.91,217.91,0,0,1-23.7,15.738q-6.154,3.516-12.509,6.6c-3.289,1.595-8.14,4.9-11.829,4.86-1.088-.012-.915.353-1.529-1.26a47.048,47.048,0,0,1-1.606-6.151,92.029,92.029,0,0,1-2.132-14.168,100.763,100.763,0,0,1,2.691-31.172c2.222-9.039-10.752-12.895-12.973-3.859" transform="translate(-43.764 -547.002)" fill="#ddc6c3"/>
            <path id="Trazado_717016" data-name="Trazado 717016" d="M380.425,443.109c-.856-10.458-3.811-21.141-10.546-28.719s-17.849-11.21-26.595-6.609c6.438-19.525-11.265-43.055-30.3-40.271-.759-18.446-21.6-32.173-37.156-24.469a213.223,213.223,0,0,0-21.944-64.069c-4.738-8.857-10.486-17.7-18.991-22.215a85.5,85.5,0,0,0-8.2-3.443,49.015,49.015,0,0,1-9.3-4.863c-12.283-8.389-19.1-23.316-25.32-37.493q-.92-2.1-1.841-4.2l-16.775-38.243c-3.488-7.952-7.862-16.743-15.718-19.1s-17.416,8.284-11.964,14.825c-10.941-4.419-18.7-16.739-18.468-29.342a29.183,29.183,0,0,0-13.611,18.12c-1.45,5.664-1.287,11.685-2.608,17.386s-4.779,11.5-10.128,12.6-11.318-5.484-8.534-10.534A126.975,126.975,0,0,0,83.315,225.5a6.079,6.079,0,0,1-8.3-.731,180.964,180.964,0,0,0,8.893,59.677c3.678,11.224,13.127,24.171,23.208,19.332-10.392,10.627-15.177,27.249-12.192,42.358-11.228.946-19.38,15.613-14.864,26.745,1.375,3.389,3.664,6.363,4.489,9.955,2.182,9.5-6.535,19.043-4.251,28.517.919,3.817,3.587,7.22,3.343,11.155-.3,4.779-4.6,7.866-8.167,10.723-9.99,8.006-16.479,25.947-6.388,33.8-8.786,2.833-15.7,11.5-16.988,21.3s3.122,20.2,10.831,25.556c3.064,2.128,6.726,3.661,8.666,6.989,6.7,11.491-14.069,24.014-10.216,36.938,1.195,4.006,4.53,6.733,6.985,10,4.091,5.444,5.813,12.571,9.69,18.2s11.782,9.382,16.781,4.905c-4.82,10.8,6.585,25.07,17.192,21.518,3.473,7.253-.644,16.293,1.352,24.167,4.095,16.154,30.038,17.79,31.539,34.459.684,7.595-4.6,14.694-4,22.3.971,12.231,17.069,16.9,26.812,10.565s14.309-18.725,18.234-30.246c1.622,6.559,10.87,7.316,15.516,2.738s5.832-11.853,6.754-18.567c2.091,10.244,14.375,16.275,22.907,11.245-1.125,13.435,14.4,24.729,25.521,18.566,2.408-1.334,4.637-3.309,7.328-3.624,3.312-.387,6.333,1.819,9.435,3.131,10.347,4.378,23.5-2.88,26.265-14.494,10.186,4.647,21.305-3.087,30.033-10.415l10.606-8.9c9.077-7.621,18.919-16.7,19.844-29.07,15.623-9.617,23.646-29.265,26.731-48.384s2.277-38.788,5.474-57.885c1.331-7.948,3.186-16.853-1-23.551-2.781-4.454-7.948-7.271-9.2-12.47-1-4.145.867-8.37,1.95-12.489,2.807-10.674.051-22.844-7-30.918" transform="translate(-48.575 -556.057)" fill="#ead9d6"/>
          </g>
        </g>
        <g id="Grupo_1003303" data-name="Grupo 1003303" transform="translate(105.995 534.442)">
          <g id="Grupo_1003302" data-name="Grupo 1003302" clip-path="url(#clip-path-4)">
            <path id="Trazado_717017" data-name="Trazado 717017" d="M123.3,1202.352a49.281,49.281,0,0,1-7.6-12.581,20.745,20.745,0,0,1-10.17,1.444c-17.576-2.179-23.086-20.517-22.542-37.505-5.677,4.206-12.14,5.277-18.7.27-9.164-7-10.165-22.776-11.31-33.572-.623-5.873-1.1-11.825-1.438-17.805-30.53-47.17-40.595-83.987-45.849-118.763C9.742,936.73,24.471,882.909,42.574,866.231c-2.128-17.057-9.141-71.006,41.865-97.391,12.757-31.717,31.864-48.286,62.822-56.8-5.676-6.33-7.327-20.041,2.734-29.316-1.1-6.57-3.857-12.646-4.795-19.377-1.028-7.39.014-39.373,15.882-55.548-10.072-29.871-4.707-58.149,8.211-85.164a179.5,179.5,0,0,1,17.161-20.179c22.5-22.679,56.374-36.78,81.987-11.078,6.87,6.894,11.717,16,14.647,25.931-.006.049-.045.081-.043.133.3,9.473.791,18.448-2.375,27.526-2.966,8.506-4.674,15.069-12.975,25.4.37-.228,24.373,15.806,27.225,32.358,2.6,15.082-10.218,43.164-10.9,44.318-1.5,2.55,1.828,4.511,3.641,2.876a33.655,33.655,0,0,0,2.375-2.66c13.26,13.1,24.662,31.958,20.572,55.641-.027.154,34.692,17.126,41.747,38.218,6.86,20.507,1.474,38.54-9,55.695a28.868,28.868,0,0,0-14.479-13.849c-.463-.194-.7.51-.425.831,11.5,13.609,17.324,29,13.871,47.457a83.712,83.712,0,0,1-6.868,21.542C318.6,840.354,288.4,819.634,269.3,840.754c13.423,1.251,28.628,12.4,38.449,27.22,10.856,16.384,17.654,46.754,3.7,66.845,8.654,9.856,17.195,30.391,15.882,46.695-1.5,18.665-26.046,32.608-26.061,32.644-.142.359,7.776,22.356-7.939,36.968-13.445,12.5-32.23,8.357-42.5-2.923-13.2-14.5-16.868-42.26-12.406-59.149.9-3.388-3.33-4.62-4.944-2.093-15.489,24.25-13.442,59.114,4.155,79.851-2.1,11.45-6.814,35.141-54.453,49.3-.918,41.742-25.913,71.593-59.892,86.243" transform="translate(-107.256 -610.966)" fill="#f4eeed"/>
            <path id="Trazado_717018" data-name="Trazado 717018" d="M159.821,616.389c-15.868,16.176-16.91,48.158-15.882,55.548.936,6.731,3.693,12.807,4.794,19.377-10.062,9.275-8.411,22.986-2.735,29.316-30.957,8.515-50.064,25.084-62.822,56.8-51.005,26.385-43.993,80.334-41.864,97.391C23.21,891.5,8.481,945.321,4.427,992.432c-1-6.633-1.848-13.2-2.607-19.74C-.46,953.051-4.242,912.46,16.757,873.1c-2.849-36.969,13.587-85.016,41.869-114.927C70.235,745.9,84.143,736.449,97.583,726.6c9.966-7.306,20.5-16.023,31.554-22.488-4.131-22.959-.131-64.262,14.167-86.474-4.925-37.207,3.37-57.348,24.728-86.409-12.918,27.015-18.283,55.293-8.211,85.164" transform="translate(-105.995 -619.557)" fill="#f4e8e6"/>
            <path id="Trazado_717019" data-name="Trazado 717019" d="M361.26,679.5c11.6,2.231,34.05,19.763,34.963,38.934,18.365,7.44,31.936,55.159,18.38,71.434,5.434,10.92,10.149,20.984,10.861,33.625.722,12.813-1.076,34.482-17.154,33.917a2.445,2.445,0,0,0-.418.077l0,0c10.717,25.584-5.082,41.464-11.672,44.368-9.647-14.394-21.164-16.056-21.072-15.866,4.222,8.734,12.117,20.767,14.071,30.576,1.5,7.549,1.926,21.158-7.386,37.437,8.267,11.542,10.975,31.445,8.731,45.325-2.911,18-12.427,28.632-28.387,41.124-1.393,14.275-7.2,22.847-19.139,31.586-11.831,8.658-23.135,12.352-37.3,10.733A74.544,74.544,0,0,1,295,1120.556c-18.034,13.061-47.466,32.405-65.858,47.188-18.419,35.939-39.24,57.979-57.3,51.917a32.362,32.362,0,0,1-15.054-9.734c33.979-14.651,58.975-44.5,59.892-86.243,47.638-14.155,52.357-37.846,54.453-49.3-17.6-20.737-19.645-55.6-4.155-79.851,1.613-2.527,5.839-1.295,4.944,2.093-4.462,16.889-.8,44.647,12.405,59.149,10.268,11.281,29.053,15.426,42.5,2.923,15.714-14.612,7.8-36.609,7.938-36.968.015-.036,24.557-13.979,26.062-32.644,1.313-16.3-7.228-36.838-15.883-46.695,13.95-20.092,7.152-50.461-3.7-66.845-9.822-14.824-25.026-25.968-38.449-27.22,19.1-21.12,49.3-.4,66.163,12.044a83.684,83.684,0,0,0,6.868-21.542c3.453-18.456-2.366-33.849-13.87-47.457-.272-.321-.039-1.025.424-.831a28.87,28.87,0,0,1,14.48,13.849c10.471-17.155,15.857-35.187,9-55.695-7.056-21.092-41.775-38.065-41.748-38.218,4.09-23.683-7.312-42.545-20.571-55.64a33.774,33.774,0,0,1-2.376,2.659c-1.812,1.636-5.144-.326-3.64-2.876.679-1.153,13.5-29.236,10.9-44.317-2.852-16.552-26.855-32.587-27.225-32.358,8.3-10.334,10.009-16.9,12.976-25.4,3.165-9.078,2.677-18.054,2.374-27.526,0-.052.037-.085.043-.133a77.323,77.323,0,0,1,1.512,38.012c27.43,15.417,40.672,53.263,46.625,88.99.153.095.305.212.456.307.272,10.132-.458,19.924-3.917,27.3" transform="translate(-140.751 -618.541)" fill="#ddc6c3"/>
            <path id="Trazado_717020" data-name="Trazado 717020" d="M459.935,936.684c14.918,25.964,8.075,65.165-19.35,94.377-3.9,27.086-46.065,81.047-106.217,113.785a74.547,74.547,0,0,0,10.729-37.8c14.164,1.619,25.468-2.074,37.3-10.733,11.94-8.739,17.746-17.311,19.139-31.586,15.96-12.491,25.476-23.121,28.387-41.124,2.245-13.88-.464-33.782-8.73-45.325,9.312-16.279,8.888-29.888,7.385-37.437-1.954-9.809-9.848-21.843-14.071-30.576-.092-.189,11.426,1.473,21.072,15.867,6.589-2.9,22.388-18.784,11.672-44.368l0,0a2.5,2.5,0,0,1,.418-.076c16.076.565,17.875-21.1,17.154-33.917-.712-12.641-5.427-22.705-10.861-33.625,13.555-16.274-.015-63.994-18.381-71.434-.911-19.17-23.364-36.7-34.962-38.934,3.46-7.38,4.189-17.172,3.917-27.3,55.943,35.466,110.236,160.836,55.394,260.2" transform="translate(-180.115 -642.83)" fill="#ceb5b3"/>
          </g>
        </g>
        <g id="Grupo_1003329" data-name="Grupo 1003329" transform="translate(37.076 534.442)">
          <g id="Grupo_1003328" data-name="Grupo 1003328" clip-path="url(#clip-path-3)">
            <path id="Trazado_717022" data-name="Trazado 717022" d="M220.772,616.348a77.26,77.26,0,0,0-1.584,22.161c.3,3.907,2.875,7.258,6.727,7.258a7.064,7.064,0,0,0,6.727-7.258,63.28,63.28,0,0,1,1.1-18.3c1.941-9.091-11.027-12.973-12.973-3.859" transform="translate(-85.616 -632.363)" fill="#ddc6c3"/>
            <g id="Grupo_1003306" data-name="Grupo 1003306" transform="translate(145.635 204.73)" opacity="0.32" style="mix-blend-mode: multiply;isolation: isolate">
              <g id="Grupo_1003305" data-name="Grupo 1003305">
                <g id="Grupo_1003304" data-name="Grupo 1003304" clip-path="url(#clip-path-6)">
                  <path id="Trazado_717023" data-name="Trazado 717023" d="M236.874,908.925q1.1-6.981,2.192-13.962a18.25,18.25,0,0,0-1.689,7.074q1.8-6.763,3.6-13.526l-.395,8.62a29.816,29.816,0,0,1,3.565-7.956l.718,7.879a25.576,25.576,0,0,0,2.238-7.529q.183,3.757.366,7.515a39.838,39.838,0,0,0,1.9-11.349l.163,5.518q.536-3.532,1.071-7.064c-.6.72.816,1.7,1.478,1.039s.544-1.8.374-2.75c.593.156.676,1.036.532,1.676s-.367,1.386.017,1.9,1.4-.214.907-.6a103.647,103.647,0,0,0-2.719,12.514l.675-2.459a38.6,38.6,0,0,1-.338,12,11.25,11.25,0,0,1,1.552-5.332q-.814,5.589-1.629,11.179l1.053-3.567q-.743,1.936-1.484,3.873a22.287,22.287,0,0,1,.2-8.618,55.27,55.27,0,0,0-2.5,12.855q.044-3.692.089-7.383-.787,2.96-1.573,5.919.365-3.673.73-7.346l-1.342,5,1.371-11.821a9.857,9.857,0,0,0-1.762,6.428q.025-4.056.05-8.113a14.261,14.261,0,0,0-.886,6.48q-.52-2.651-1.038-5.3l-.872,2.361-.785-3.486-1.266,2.225c-.046-1.5-2.663-1.485-2.7.011q-.43-1.45-.861-2.9" transform="translate(-235.22 -880.559)" fill="#e25b4d"/>
                  <path id="Trazado_717024" data-name="Trazado 717024" d="M238.024,909.049q1.1-6.981,2.192-13.962a1.883,1.883,0,0,0-.974-2.141,1.612,1.612,0,0,0-2.1.742,21.391,21.391,0,0,0-1.918,7.99,1.676,1.676,0,0,0,3.3.482q1.8-6.763,3.6-13.526l-3.3-.482-.395,8.62a1.676,1.676,0,0,0,3.3.482,29.248,29.248,0,0,1,3.4-7.523l-3.134-.916q.36,3.94.718,7.879c.148,1.626,2.311,2.677,3.134.916a28.217,28.217,0,0,0,2.407-7.962l-3.3-.482.366,7.514a1.677,1.677,0,0,0,3.3.483,42.9,42.9,0,0,0,1.957-11.831h-3.364l.163,5.518c.058,1.944,2.984,2.587,3.3.482q.536-3.532,1.071-7.064c.3-1.993-1.972-3.189-3.074-1.4-1.206,1.958.707,4.1,2.582,3.964,2.488-.178,2.683-3.221,2.344-5.241l-2.069,2.232.2.09-.743-.466c-.213-.2-.09-.277-.2.243a5.621,5.621,0,0,0-.144,1.469,2.572,2.572,0,0,0,1.72,2.409,2.334,2.334,0,0,0,2.255-3.8,1.652,1.652,0,0,0-2.811.8,106.847,106.847,0,0,0-2.719,12.513c-.351,2.261,2.616,3.25,3.243.965l.675-2.459-3.3-.482a38.177,38.177,0,0,1-.278,11.522l3.3.482a9.736,9.736,0,0,1,1.323-4.416l-3.074-1.4q-.814,5.59-1.629,11.179c-.33,2.264,2.572,3.241,3.243.965l1.053-3.567a1.859,1.859,0,0,0-1.174-2.232,1.712,1.712,0,0,0-2.069,1.267q-.743,1.936-1.484,3.874h3.243a20.646,20.646,0,0,1,.2-7.654,1.693,1.693,0,1,0-3.243-.965,58.92,58.92,0,0,0-2.561,13.337h3.363q.044-3.691.09-7.382a1.676,1.676,0,0,0-3.3-.482q-.787,2.959-1.573,5.919l3.3.482.731-7.345c.207-2.083-2.793-2.386-3.3-.482l-1.343,5,3.3.482,1.371-11.821a1.8,1.8,0,0,0-1.234-1.749,1.705,1.705,0,0,0-1.9.833,11.791,11.791,0,0,0-1.992,7.343,1.683,1.683,0,1,0,3.363,0q.024-4.056.05-8.112a1.767,1.767,0,0,0-1.458-1.782,1.717,1.717,0,0,0-1.845,1.3,16.171,16.171,0,0,0-.946,6.962l3.3-.482q-.52-2.653-1.038-5.3a1.724,1.724,0,0,0-1.621-1.332,1.784,1.784,0,0,0-1.622,1.332l-.872,2.361h3.243l-.785-3.486a1.657,1.657,0,0,0-3.074-.433l-1.266,2.225,3.134.915a3.034,3.034,0,0,0-6.061.012l3.3-.482q-.43-1.451-.861-2.9a1.692,1.692,0,1,0-3.243.964q.431,1.451.861,2.9c.606,2.04,3.1,1.507,3.3-.482-.056.557-.339.4-.479.729l.162-.052c-.136.012-.143.016-.02.013.1,0,.115,0,.033-.008-.108-.019-.072,0,.109.043-.1-.259-.423-.288-.471-.736.184,1.711,2.194,2.567,3.134.916l1.266-2.225-3.074-.433.785,3.486c.427,1.9,2.676,1.534,3.243,0l.873-2.361h-3.243q.52,2.652,1.038,5.3a1.676,1.676,0,0,0,3.3-.482,13.605,13.605,0,0,1,.826-6l-3.3-.482q-.026,4.056-.05,8.112h3.363a8.5,8.5,0,0,1,1.533-5.511l-3.134-.916q-.685,5.91-1.371,11.821c-.24,2.078,2.793,2.382,3.3.482l1.342-5-3.3-.482-.731,7.345c-.207,2.081,2.8,2.39,3.3.483q.786-2.96,1.573-5.92l-3.3-.482-.089,7.382a1.683,1.683,0,1,0,3.363,0,54.726,54.726,0,0,1,2.442-12.372l-3.243-.965a25.619,25.619,0,0,0-.2,9.583,1.717,1.717,0,0,0,1.621,1.333,1.791,1.791,0,0,0,1.622-1.333q.741-1.936,1.484-3.873l-3.243-.965-1.053,3.567,3.243.965q.815-5.589,1.629-11.179c.284-1.948-2.007-3.256-3.074-1.4a13.812,13.812,0,0,0-1.782,6.247c-.1,2.019,2.937,2.5,3.3.483a41.294,41.294,0,0,0,.4-12.487,1.8,1.8,0,0,0-1.458-1.782,1.692,1.692,0,0,0-1.845,1.3l-.675,2.459,3.243.965a106.913,106.913,0,0,1,2.719-12.514l-2.811.8.105.124-.433-.8c.009.045.019.091.027.135v-.964l1.161-.809.743.466c.145.129.023.454.156.316a2.653,2.653,0,0,0,.148-.691,4.476,4.476,0,0,0,.03-1.61,2.794,2.794,0,0,0-1.757-2.172c-1.3-.594-2.267,1.053-2.069,2.231.023.134.047,1.042.048,1.043.081.07.547-.4.788-.331.172.047.394.465.257.117q.114.458.23.916l-.1.4-3.074-1.4q-.536,3.532-1.071,7.064l3.3.483q-.082-2.76-.163-5.518a1.683,1.683,0,1,0-3.364,0,39.235,39.235,0,0,1-1.836,10.866l3.3.482q-.182-3.758-.366-7.514a1.781,1.781,0,0,0-1.458-1.782,1.666,1.666,0,0,0-1.845,1.3,25.1,25.1,0,0,1-2.068,7.094l3.134.915-.718-7.879c-.163-1.795-2.157-2.464-3.134-.915a32.711,32.711,0,0,0-3.734,8.39l3.3.482.395-8.62a1.676,1.676,0,0,0-3.3-.483q-1.8,6.763-3.6,13.526l3.3.483a16.6,16.6,0,0,1,1.459-6.159l-3.074-1.4q-1.1,6.981-2.192,13.962a1.891,1.891,0,0,0,1.174,2.232,1.684,1.684,0,0,0,2.069-1.267" transform="translate(-234.749 -880.201)" fill="#e25b4d"/>
                </g>
              </g>
            </g>
            <g id="Grupo_1003309" data-name="Grupo 1003309" transform="translate(136.666 210.778)" opacity="0.32" style="mix-blend-mode: multiply;isolation: isolate">
              <g id="Grupo_1003308" data-name="Grupo 1003308">
                <g id="Grupo_1003307" data-name="Grupo 1003307" clip-path="url(#clip-path-7)">
                  <path id="Trazado_717025" data-name="Trazado 717025" d="M225.35,916.127q1.1-6.981,2.192-13.962a18.251,18.251,0,0,0-1.689,7.074q1.8-6.763,3.6-13.526l-.395,8.619a29.818,29.818,0,0,1,3.565-7.956q.358,3.939.718,7.879a25.576,25.576,0,0,0,2.238-7.529q.183,3.758.366,7.515a39.835,39.835,0,0,0,1.9-11.349l.163,5.518q.536-3.532,1.071-7.064c-.6.72.816,1.7,1.478,1.039s.544-1.8.374-2.75c.593.156.676,1.036.532,1.676s-.367,1.386.017,1.9,1.4-.214.907-.6a103.649,103.649,0,0,0-2.719,12.514l.675-2.459a38.6,38.6,0,0,1-.338,12,11.249,11.249,0,0,1,1.552-5.332q-.814,5.589-1.629,11.179l1.053-3.567q-.743,1.936-1.484,3.873a22.285,22.285,0,0,1,.2-8.618,55.268,55.268,0,0,0-2.5,12.854q.044-3.692.089-7.383-.787,2.96-1.573,5.92.365-3.673.73-7.345-.671,2.5-1.342,5l1.371-11.821a9.858,9.858,0,0,0-1.762,6.428q.025-4.056.05-8.113a14.261,14.261,0,0,0-.886,6.48q-.52-2.652-1.038-5.3-.437,1.18-.873,2.361l-.785-3.486-1.266,2.225c-.046-1.5-2.663-1.485-2.7.011q-.43-1.45-.861-2.9" transform="translate(-223.696 -887.761)" fill="#a5086d"/>
                  <path id="Trazado_717026" data-name="Trazado 717026" d="M226.5,916.252q1.1-6.981,2.192-13.962a1.883,1.883,0,0,0-.974-2.141,1.612,1.612,0,0,0-2.1.742,21.392,21.392,0,0,0-1.918,7.99,1.676,1.676,0,0,0,3.3.482q1.8-6.763,3.6-13.526l-3.3-.482-.395,8.62a1.676,1.676,0,0,0,3.3.482,29.245,29.245,0,0,1,3.4-7.523l-3.134-.916q.36,3.94.718,7.879c.148,1.626,2.311,2.677,3.134.916a28.216,28.216,0,0,0,2.407-7.962l-3.3-.482q.183,3.758.366,7.514a1.677,1.677,0,0,0,3.3.483,42.9,42.9,0,0,0,1.957-11.831h-3.364l.163,5.518c.058,1.944,2.984,2.587,3.3.482q.536-3.532,1.071-7.064c.3-1.993-1.972-3.189-3.074-1.4-1.206,1.958.707,4.1,2.582,3.964,2.488-.178,2.683-3.221,2.344-5.241l-2.069,2.232.2.09-.743-.466c-.213-.2-.09-.277-.2.243a5.619,5.619,0,0,0-.144,1.469,2.572,2.572,0,0,0,1.72,2.409,2.334,2.334,0,0,0,2.255-3.8,1.652,1.652,0,0,0-2.811.8,106.852,106.852,0,0,0-2.719,12.514c-.351,2.261,2.616,3.25,3.243.965l.675-2.459-3.3-.482a38.176,38.176,0,0,1-.278,11.522l3.3.482a9.735,9.735,0,0,1,1.323-4.415l-3.074-1.4q-.814,5.59-1.629,11.179c-.33,2.264,2.572,3.241,3.243.965l1.053-3.567a1.859,1.859,0,0,0-1.174-2.232,1.712,1.712,0,0,0-2.069,1.267q-.742,1.936-1.484,3.874h3.243a20.646,20.646,0,0,1,.2-7.654,1.693,1.693,0,1,0-3.243-.965,58.921,58.921,0,0,0-2.561,13.336h3.363q.044-3.691.09-7.382a1.676,1.676,0,0,0-3.3-.482q-.787,2.959-1.573,5.919l3.3.482.731-7.345c.207-2.083-2.793-2.386-3.3-.482l-1.343,5,3.3.482,1.371-11.821a1.8,1.8,0,0,0-1.234-1.749,1.705,1.705,0,0,0-1.9.833,11.791,11.791,0,0,0-1.992,7.343,1.683,1.683,0,1,0,3.363,0q.024-4.056.05-8.112A1.767,1.767,0,0,0,234.5,905.6a1.717,1.717,0,0,0-1.845,1.3,16.169,16.169,0,0,0-.946,6.962l3.3-.482q-.52-2.653-1.038-5.3a1.724,1.724,0,0,0-1.621-1.332,1.784,1.784,0,0,0-1.622,1.332l-.872,2.361H233.1l-.785-3.486a1.657,1.657,0,0,0-3.074-.433l-1.266,2.225,3.134.915a3.034,3.034,0,0,0-6.061.012l3.3-.482q-.43-1.451-.861-2.9a1.692,1.692,0,1,0-3.243.964q.431,1.451.861,2.9c.606,2.04,3.1,1.507,3.3-.482-.056.557-.339.4-.479.729l.162-.052c-.136.012-.143.016-.02.013.1,0,.115,0,.033-.008-.108-.018-.072,0,.109.043-.1-.259-.423-.288-.471-.736.184,1.711,2.194,2.567,3.134.916l1.266-2.225-3.074-.433.785,3.486c.427,1.9,2.676,1.534,3.243,0q.435-1.181.872-2.361h-3.243q.52,2.652,1.038,5.3a1.676,1.676,0,0,0,3.3-.482,13.606,13.606,0,0,1,.826-6l-3.3-.482q-.026,4.056-.05,8.112h3.363a8.5,8.5,0,0,1,1.532-5.511l-3.134-.916q-.685,5.91-1.371,11.821c-.241,2.078,2.793,2.382,3.3.482q.67-2.5,1.342-5l-3.3-.482-.731,7.345c-.207,2.081,2.8,2.39,3.3.483q.786-2.96,1.573-5.92l-3.3-.482-.089,7.382a1.683,1.683,0,1,0,3.363,0,54.723,54.723,0,0,1,2.442-12.372l-3.243-.965a25.618,25.618,0,0,0-.2,9.583,1.717,1.717,0,0,0,1.621,1.333,1.791,1.791,0,0,0,1.622-1.333l1.484-3.873-3.243-.965-1.053,3.567,3.243.965q.815-5.589,1.629-11.179c.284-1.947-2.007-3.256-3.074-1.4a13.812,13.812,0,0,0-1.782,6.247c-.1,2.019,2.937,2.5,3.3.483a41.3,41.3,0,0,0,.4-12.487,1.8,1.8,0,0,0-1.458-1.782,1.692,1.692,0,0,0-1.845,1.3l-.675,2.459,3.243.965a106.92,106.92,0,0,1,2.719-12.514l-2.811.8.105.124q-.216-.4-.433-.8c.009.045.019.091.027.135v-.964l1.161-.81.743.466c.145.129.023.454.156.316a2.654,2.654,0,0,0,.148-.691,4.476,4.476,0,0,0,.03-1.61,2.794,2.794,0,0,0-1.757-2.172c-1.3-.594-2.267,1.053-2.069,2.231.023.134.047,1.042.048,1.043.081.07.547-.4.788-.331.172.047.394.465.257.117q.114.458.23.916c-.034.133-.068.266-.1.4l-3.074-1.4q-.536,3.532-1.071,7.064l3.3.483-.163-5.518a1.683,1.683,0,1,0-3.364,0,39.236,39.236,0,0,1-1.836,10.866l3.3.482q-.182-3.758-.366-7.514a1.781,1.781,0,0,0-1.458-1.782,1.666,1.666,0,0,0-1.845,1.3,25.1,25.1,0,0,1-2.068,7.094l3.134.915q-.358-3.939-.718-7.879c-.163-1.795-2.157-2.464-3.134-.915a32.711,32.711,0,0,0-3.734,8.39l3.3.482.395-8.62a1.676,1.676,0,0,0-3.3-.483q-1.8,6.763-3.6,13.526l3.3.483a16.6,16.6,0,0,1,1.459-6.159l-3.074-1.4q-1.1,6.981-2.192,13.962a1.891,1.891,0,0,0,1.174,2.232,1.685,1.685,0,0,0,2.069-1.267" transform="translate(-223.225 -887.403)" fill="#a5086d"/>
                </g>
              </g>
            </g>
            <g id="Grupo_1003312" data-name="Grupo 1003312" transform="translate(111.649 273.792)" opacity="0.32" style="mix-blend-mode: multiply;isolation: isolate">
              <g id="Grupo_1003311" data-name="Grupo 1003311">
                <g id="Grupo_1003310" data-name="Grupo 1003310" clip-path="url(#clip-path-8)">
                  <path id="Trazado_717027" data-name="Trazado 717027" d="M194.435,996.507q2.867-8.524,5.734-17.049l-3.243-.965a150.383,150.383,0,0,0-4.3,16.192,1.7,1.7,0,0,0,3.074,1.4,50.242,50.242,0,0,0,6.108-15.521c.482-2.269-2.673-3.228-3.243-.964l-3.311,13.139c-.488,1.936,2.187,3.271,3.074,1.4a81.622,81.622,0,0,0,5.581-15.791l-3.3-.482q-.545,6.273-1.091,12.545a1.755,1.755,0,0,0,1.459,1.782,1.708,1.708,0,0,0,1.845-1.3l5.6-16.719-3.3-.483a69.818,69.818,0,0,1-1.527,13.268c-.407,1.9,2.228,3.345,3.074,1.4a80.7,80.7,0,0,0,5.1-16.1l-3.3-.482a42.355,42.355,0,0,1-.834,9.767,1.692,1.692,0,1,0,3.243.964l5.088-14.942-3.3-.482q-.409,3.452-.818,6.9a1.8,1.8,0,0,0,1.235,1.749,1.694,1.694,0,0,0,1.9-.834l2.618-4.017-3.134-.916c.159,2.912-2.518,5.652-5.219,4.43a4.5,4.5,0,0,1-2.51-3.2,18.273,18.273,0,0,1-.021-3.27q.019-1.864.037-3.727a1.683,1.683,0,1,0-3.363,0q-.025,2.484-.05,4.969a10.8,10.8,0,0,0,.437,3.945,8.018,8.018,0,0,0,4.918,4.905c4.639,1.522,9.412-2.955,9.134-8.052a1.677,1.677,0,0,0-3.134-.916l-2.619,4.017,3.134.916q.409-3.452.818-6.9a1.751,1.751,0,0,0-1.459-1.782,1.709,1.709,0,0,0-1.845,1.3l-5.088,14.943,3.243.964a46.717,46.717,0,0,0,.953-10.731c-.056-1.974-2.882-2.553-3.3-.482a76.349,76.349,0,0,1-4.76,15.235l3.074,1.4a75.1,75.1,0,0,0,1.647-14.233,1.677,1.677,0,0,0-3.3-.482q-2.8,8.36-5.6,16.72l3.3.482,1.09-12.545a1.676,1.676,0,0,0-3.3-.482,76.99,76.99,0,0,1-5.243,14.924l3.074,1.4,3.311-13.14-3.243-.964a47.15,47.15,0,0,1-5.769,14.654l3.074,1.4a150.374,150.374,0,0,1,4.3-16.192,1.855,1.855,0,0,0-1.174-2.232,1.7,1.7,0,0,0-2.069,1.267l-5.734,17.049c-.739,2.2,2.509,3.146,3.243.965" transform="translate(-191.083 -962.44)" fill="#e25b4d"/>
                </g>
              </g>
            </g>
            <g id="Grupo_1003315" data-name="Grupo 1003315" transform="translate(143.857 168.144)" opacity="0.32" style="mix-blend-mode: multiply;isolation: isolate">
              <g id="Grupo_1003314" data-name="Grupo 1003314">
                <g id="Grupo_1003313" data-name="Grupo 1003313" clip-path="url(#clip-path-9)">
                  <path id="Trazado_717028" data-name="Trazado 717028" d="M232.569,848.015a19.415,19.415,0,0,1,.377,11.055l3.243.965q.645-4.4,1.287-8.806l-3.3-.482a69.5,69.5,0,0,0,1.069,14.935,1.662,1.662,0,0,0,3.243,0c1.467-8.188.939-16.49.328-24.742-.17-2.3-3.475-2.353-3.364,0a82.866,82.866,0,0,0,3.269,19.526,1.677,1.677,0,0,0,3.3-.483,47,47,0,0,1,1.849-16.3l-3.3-.482q-.2,8.04-.393,16.081a1.7,1.7,0,0,0,2.531,1.567,6.146,6.146,0,0,0,2.971-5.82l-2.871,1.283c.281.279.066,1.313.084,1.753a3.733,3.733,0,0,0,1.066,2.594c1.383,1.389,3.7,1.264,4.293-.9l-3.3-.482a19.149,19.149,0,0,0,1.537,6.743c.676,1.594,2.593.834,3.074-.433a26.568,26.568,0,0,0,1.577-7.059l-3.3.482a8.606,8.606,0,0,1-.888,5.165l3.074,1.4a28.068,28.068,0,0,0-1.673-16.377,1.62,1.62,0,0,0-2.3-.651l-2.407,1.9,2.53,1.567q-.043-3.526-.086-7.051h-3.363q.092,2.42.185,4.839a1.677,1.677,0,0,0,3.3.483,32.978,32.978,0,0,0,1.561-9.727H244.4l.156,3.959a1.678,1.678,0,0,0,3.134.916,15.445,15.445,0,0,0,2.351-6.795l-3.3.482.6,2.71a1.651,1.651,0,0,0,2.811.8,3.842,3.842,0,0,0-.685-5.733c-1.875-1.176-3.57,1.958-1.7,3.133.046.029.026.01,0,.034l2.811.8-.6-2.71a1.678,1.678,0,0,0-1.845-1.3,1.812,1.812,0,0,0-1.459,1.783,11.5,11.5,0,0,1-1.893,4.962l3.134.916-.156-3.959a1.683,1.683,0,1,0-3.364,0,29.488,29.488,0,0,1-1.44,8.762l3.3.482q-.092-2.419-.185-4.839a1.683,1.683,0,1,0-3.363,0l.086,7.051c.016,1.263,1.458,2.411,2.53,1.567l2.408-1.9-2.3-.651a23.6,23.6,0,0,1,1.334,13.581c-.382,1.937,2.112,3.279,3.074,1.4a12.954,12.954,0,0,0,1.227-7.96,1.669,1.669,0,0,0-1.845-1.3,1.8,1.8,0,0,0-1.459,1.782,23.153,23.153,0,0,1-1.456,6.094l3.074-.433a14.132,14.132,0,0,1-1.077-4.912,1.677,1.677,0,0,0-3.3-.483q.51-.927,1.216-.794a.027.027,0,0,1,.033.016c-.005.018-.005.034-.01.05a5.508,5.508,0,0,0,.019-1.278,4.213,4.213,0,0,0-1.08-3.046,1.688,1.688,0,0,0-2.871,1.283,2.564,2.564,0,0,1-1.3,2.686l2.53,1.567.392-16.081a1.676,1.676,0,0,0-3.3-.482,50.072,50.072,0,0,0-1.969,17.264l3.3-.482a78.663,78.663,0,0,1-3.148-18.562H235.45c.585,7.9,1.2,15.94-.207,23.778h3.243a64.992,64.992,0,0,1-.95-13.971c.076-2-3-2.529-3.3-.483q-.643,4.4-1.287,8.806a1.9,1.9,0,0,0,1.174,2.232,1.694,1.694,0,0,0,2.069-1.267,23.113,23.113,0,0,0-.377-12.985,1.692,1.692,0,1,0-3.243.965" transform="translate(-232.464 -836.635)" fill="#e25b4d"/>
                </g>
              </g>
            </g>
            <g id="Grupo_1003318" data-name="Grupo 1003318" transform="translate(228.342 224.953)" opacity="0.32" style="mix-blend-mode: multiply;isolation: isolate">
              <g id="Grupo_1003317" data-name="Grupo 1003317">
                <g id="Grupo_1003316" data-name="Grupo 1003316" clip-path="url(#clip-path-10)">
                  <path id="Trazado_717029" data-name="Trazado 717029" d="M359.313,906.1l-2.8,29.545,3.3-.482a141.447,141.447,0,0,1-2.632-24.251,1.683,1.683,0,1,0-3.363,0,142.04,142.04,0,0,0,1.371,28.008c.294,2,3.524,1.553,3.3-.482l-2.821-26.018c-.214-1.971-2.681-2.539-3.3-.482a50.547,50.547,0,0,0-1.846,20.289l3.3-.482q-2.219-8.607-4.437-17.214a1.657,1.657,0,0,0-3.074-.433,19.557,19.557,0,0,0-1.464,13.021c.533,2.288,3.646,1.305,3.243-.964q-.957-5.4-1.916-10.794a1.655,1.655,0,0,0-3.074-.433,18.048,18.048,0,0,0-1.712,12.2,1.676,1.676,0,0,0,3.3-.482l-.163-4.939-3.3.483q1.1,3.375,2.2,6.749a1.664,1.664,0,0,0,3.243,0l1.065-3.854q.239-.866.479-1.734a10.859,10.859,0,0,0,.521-1.879c.03-.417.416-.191-.284.029a.929.929,0,0,1-.437-.013c-.177-.034-.149,0-.217-.13.043.082.146.142.2.218.289.414-.1-.161.077.095.084.12.161.246.239.37.163.257.317.521.481.777.736,1.149,1.671,2.344,3.089,2.348,1.338,0,1.873-.943,2.256-2.192q.6-1.947,1.2-3.894l-2.47,1.084a5.159,5.159,0,0,1,1.985,3.866,1.676,1.676,0,0,0,3.3.482l1.716-5.757H356.63a13.823,13.823,0,0,1,.549,5.125h3.364a25.678,25.678,0,0,1,1.026-10.961h-3.243a43.491,43.491,0,0,1,.451,10.894h3.364l.04-4.138a1.683,1.683,0,1,0-3.364,0q-.02,2.068-.04,4.138a1.683,1.683,0,1,0,3.364,0,47.286,47.286,0,0,0-.572-11.859c-.327-1.895-2.749-1.546-3.243,0a28.312,28.312,0,0,0-1.146,11.926c.272,2.282,3.186,2.38,3.364,0a16.845,16.845,0,0,0-.669-6.09,1.664,1.664,0,0,0-3.243,0l-1.716,5.757,3.3.483a9.093,9.093,0,0,0-3.65-7,1.663,1.663,0,0,0-2.47,1.084l-1.435,4.673,1.174-1.267c-.349.12.511.073.359.091-.1.012.089.116.008.016-.065-.081-.145-.151-.212-.232a1.833,1.833,0,0,1-.289-.41c-.146-.232-.287-.468-.433-.7a4.554,4.554,0,0,0-2.467-2.322c-1.917-.487-2.983,1.381-3.455,3.071-.644,2.31-1.277,4.625-1.916,6.937h3.243l-2.2-6.749a1.677,1.677,0,0,0-3.3.482q.082,2.469.163,4.939l3.3-.483a13.926,13.926,0,0,1,1.373-9.4l-3.074-.433q.959,5.4,1.916,10.793l3.243-.964a15.391,15.391,0,0,1,1.125-10.226l-3.074-.433,4.438,17.214c.488,1.9,3.541,1.608,3.3-.483a47.823,47.823,0,0,1,1.726-19.324l-3.3-.483q1.411,13.009,2.821,26.018l3.3-.483a137.324,137.324,0,0,1-1.251-27.043h-3.363a147.191,147.191,0,0,0,2.751,25.216,1.675,1.675,0,0,0,1.845,1.3,1.8,1.8,0,0,0,1.459-1.782q1.4-14.772,2.8-29.545a1.764,1.764,0,0,0-1.681-1.815,1.791,1.791,0,0,0-1.682,1.815" transform="translate(-341.011 -904.283)" fill="#e25b4d"/>
                </g>
              </g>
            </g>
            <g id="Grupo_1003321" data-name="Grupo 1003321" transform="translate(223.858 212.857)" opacity="0.32" style="mix-blend-mode: multiply;isolation: isolate">
              <g id="Grupo_1003320" data-name="Grupo 1003320">
                <g id="Grupo_1003319" data-name="Grupo 1003319" clip-path="url(#clip-path-11)">
                  <path id="Trazado_717030" data-name="Trazado 717030" d="M353.551,891.693l-2.8,29.545,3.3-.482a141.445,141.445,0,0,1-2.632-24.251,1.683,1.683,0,1,0-3.363,0,142.041,142.041,0,0,0,1.371,28.008c.294,2,3.524,1.553,3.3-.482l-2.821-26.018c-.214-1.971-2.681-2.539-3.3-.482a50.531,50.531,0,0,0-1.845,20.289l3.3-.482q-2.219-8.607-4.437-17.214a1.657,1.657,0,0,0-3.074-.433,19.557,19.557,0,0,0-1.464,13.021c.533,2.288,3.646,1.305,3.243-.964q-.957-5.4-1.915-10.794a1.656,1.656,0,0,0-3.074-.433,18.048,18.048,0,0,0-1.712,12.2,1.676,1.676,0,0,0,3.3-.482l-.163-4.939-3.3.483,2.2,6.749a1.664,1.664,0,0,0,3.243,0l1.065-3.854q.239-.867.479-1.734a10.858,10.858,0,0,0,.521-1.878c.03-.417.416-.191-.284.029a.915.915,0,0,1-.437-.013c-.177-.034-.149,0-.217-.13.043.082.146.142.2.218.289.414-.1-.161.077.095.084.12.161.246.239.37.163.257.317.521.481.777.736,1.149,1.671,2.344,3.089,2.348,1.338,0,1.873-.943,2.256-2.192q.6-1.947,1.2-3.894l-2.47,1.084a5.159,5.159,0,0,1,1.985,3.866,1.676,1.676,0,0,0,3.3.482l1.716-5.757h-3.243a13.824,13.824,0,0,1,.549,5.125h3.364a25.678,25.678,0,0,1,1.026-10.961h-3.243a43.489,43.489,0,0,1,.451,10.894h3.364l.04-4.138a1.683,1.683,0,1,0-3.364,0q-.02,2.068-.04,4.138a1.683,1.683,0,1,0,3.364,0,47.286,47.286,0,0,0-.572-11.859c-.327-1.895-2.749-1.546-3.243,0a28.312,28.312,0,0,0-1.146,11.926c.272,2.282,3.186,2.38,3.364,0a16.845,16.845,0,0,0-.669-6.09,1.664,1.664,0,0,0-3.243,0l-1.716,5.757,3.3.483a9.093,9.093,0,0,0-3.65-7,1.663,1.663,0,0,0-2.47,1.084q-.718,2.337-1.435,4.672l1.174-1.267c-.349.12.511.073.359.092-.1.013.089.116.008.016-.065-.081-.145-.151-.212-.231a1.867,1.867,0,0,1-.289-.411c-.146-.232-.287-.467-.433-.7a4.554,4.554,0,0,0-2.467-2.322c-1.917-.487-2.983,1.381-3.455,3.071-.644,2.31-1.277,4.625-1.916,6.937h3.243l-2.2-6.749a1.677,1.677,0,0,0-3.3.482q.082,2.469.163,4.939l3.3-.483a13.927,13.927,0,0,1,1.373-9.4l-3.074-.433q.959,5.4,1.916,10.793l3.243-.964a15.391,15.391,0,0,1,1.125-10.226l-3.074-.433,4.438,17.214c.489,1.9,3.541,1.608,3.3-.483a47.823,47.823,0,0,1,1.726-19.324l-3.3-.483,2.821,26.018,3.3-.483a137.326,137.326,0,0,1-1.251-27.043h-3.363a147.2,147.2,0,0,0,2.751,25.216,1.675,1.675,0,0,0,1.845,1.3,1.8,1.8,0,0,0,1.459-1.782q1.4-14.772,2.8-29.545a1.764,1.764,0,0,0-1.681-1.815,1.791,1.791,0,0,0-1.682,1.815" transform="translate(-335.249 -889.879)" fill="#a5086d"/>
                </g>
              </g>
            </g>
            <g id="Grupo_1003324" data-name="Grupo 1003324" transform="translate(198.299 256.1)" opacity="0.32" style="mix-blend-mode: multiply;isolation: isolate">
              <g id="Grupo_1003323" data-name="Grupo 1003323">
                <g id="Grupo_1003322" data-name="Grupo 1003322" clip-path="url(#clip-path-12)">
                  <path id="Trazado_717031" data-name="Trazado 717031" d="M305.507,965.117q4.286-10.794,9.593-21.062l-3.074-1.4q-3.373,9.274-6.747,18.546a1.84,1.84,0,0,0,.974,2.141,1.648,1.648,0,0,0,2.1-.743,67.558,67.558,0,0,0,8-16.976c.6-1.917-2.319-3.3-3.074-1.4l-6.266,15.8a1.947,1.947,0,0,0,.434,2.341,1.6,1.6,0,0,0,2.208-.142,40.031,40.031,0,0,0,9.254-17.456,1.693,1.693,0,1,0-3.243-.965l-2.95,10.032a1.713,1.713,0,0,0,2.811,1.765,20.267,20.267,0,0,0,5.222-9.5l-3.3-.483q.186,1.546.37,3.092a1.8,1.8,0,0,0,1.459,1.782,1.677,1.677,0,0,0,1.845-1.3,2.733,2.733,0,0,1,1.628-2.1l-2.47-1.084.88,2.6a1.714,1.714,0,0,0,2.069,1.267,1.852,1.852,0,0,0,1.175-2.232l-.88-2.6a1.681,1.681,0,0,0-2.47-1.084,6.071,6.071,0,0,0-3.173,4.265l3.3.483-.371-3.092a1.8,1.8,0,0,0-1.458-1.782,1.684,1.684,0,0,0-1.845,1.3,16.667,16.667,0,0,1-4.356,7.9l2.811,1.766q1.476-5.016,2.95-10.032l-3.243-.965a36.233,36.233,0,0,1-8.389,15.855l2.642,2.2q3.132-7.9,6.266-15.8l-3.074-1.4a64.144,64.144,0,0,1-7.663,16.109l3.074,1.4q3.374-9.272,6.747-18.545a1.7,1.7,0,0,0-3.074-1.4q-5.3,10.255-9.593,21.062a1.96,1.96,0,0,0,.6,2.482,1.626,1.626,0,0,0,2.3-.651" transform="translate(-302.411 -941.372)" fill="#e25b4d"/>
                </g>
              </g>
            </g>
            <g id="Grupo_1003327" data-name="Grupo 1003327" transform="translate(221.643 172.418)" opacity="0.32" style="mix-blend-mode: multiply;isolation: isolate">
              <g id="Grupo_1003326" data-name="Grupo 1003326">
                <g id="Grupo_1003325" data-name="Grupo 1003325" clip-path="url(#clip-path-13)">
                  <path id="Trazado_717032" data-name="Trazado 717032" d="M332.453,869.579l2.738,12.918a1.676,1.676,0,0,0,3.3-.482l-1.66-17.816-3.3.482a119.256,119.256,0,0,0,6.745,20.511c.835,1.933,3.481.523,3.074-1.4q-2.35-11.1-4.7-22.208l-3.074,1.4L345.6,883.876a1.633,1.633,0,0,0,2.3.651,1.948,1.948,0,0,0,.6-2.482q-4.106-10.469-8.214-20.939l-2.9,1.832,9.683,17.179a1.7,1.7,0,0,0,3.074-1.4q-3.79-10.653-7.58-21.306l-2.811,1.765a59.411,59.411,0,0,1,7.3,10.532,1.7,1.7,0,0,0,3.074-1.4,70.4,70.4,0,0,0-5.49-13.708c-1.088-2.055-3.826-.25-2.9,1.832q1.59,3.59,3.179,7.18c.871,1.968,3.4.5,3.074-1.4a29.955,29.955,0,0,0-4.756-11.782l-2.641,2.2,3.018,2.716a1.647,1.647,0,0,0,2.038.284,1.882,1.882,0,0,0,.773-2.049q-1.372-3.664-2.744-7.33l-2.069,2.232a4.162,4.162,0,0,1,3.032,2.689l3.074-1.4-2.251-5.38-2.641,2.2,1.991,1.856a1.714,1.714,0,0,0,2.811-1.765q-.541-1.853-1.082-3.7l-3.074,1.4L344.7,846.4a1.717,1.717,0,0,0,2.9-1.831l-1.241-2.021a1.7,1.7,0,0,0-3.074,1.4q.542,1.852,1.082,3.7l2.811-1.766-1.991-1.855c-1.489-1.387-3.427.321-2.642,2.2l2.25,5.38c.777,1.856,3.738.532,3.074-1.4a7.732,7.732,0,0,0-5.381-5.223,1.768,1.768,0,0,0-2.069,2.232q1.372,3.664,2.744,7.33l2.811-1.765-3.018-2.717a1.611,1.611,0,0,0-2.209-.142,1.891,1.891,0,0,0-.433,2.341,27.424,27.424,0,0,1,4.417,10.915l3.074-1.4q-1.59-3.59-3.18-7.18l-2.9,1.832a65.736,65.736,0,0,1,5.152,12.841l3.074-1.4a63.8,63.8,0,0,0-7.825-11.266,1.713,1.713,0,0,0-2.811,1.765q3.791,10.653,7.58,21.306l3.074-1.4-9.683-17.179a1.644,1.644,0,0,0-2.3-.651,1.949,1.949,0,0,0-.6,2.482l8.214,20.939,2.9-1.832-10.021-20.891c-.905-1.886-3.485-.545-3.074,1.4q2.35,11.1,4.7,22.208l3.074-1.4a114.172,114.172,0,0,1-6.406-19.643c-.445-1.936-3.5-1.591-3.3.482l1.66,17.816,3.3-.483L335.7,868.615c-.483-2.276-3.726-1.313-3.243.965" transform="translate(-332.404 -841.724)" fill="#e25b4d"/>
                </g>
              </g>
            </g>
          </g>
        </g>
      </g>
    </g>
    <g id="Grupo_1003332" data-name="Grupo 1003332" transform="translate(640.269 2770.916)">
      <g id="Grupo_1003332-2" data-name="Grupo 1003332" transform="translate(0 0)" clip-path="url(#clip-path-14)">
        <path id="Trazado_717033" data-name="Trazado 717033" d="M290.305,117.415a142.721,142.721,0,0,1,63.376,18.029c19.831,11.027,37.42,26.753,52.616,44.818,4.516,5.37,8.98,11.263,10.48,18.454s-.968,15.945-7.056,18.738c-3.265,1.5-6.935,1.087-10.457.89a79.31,79.31,0,0,0-38.845,7.874,8.679,8.679,0,0,0-3.559,2.625c-4.693,6.735,8.662,15.862,4.932,23.317l-57.054-.247c-17.04-.074-36.4-1.307-47.317-16-5.417-7.289-7.906-17.023-13.87-23.752-2.457-2.772-5.544-5.11-6.826-8.748-1.251-3.551-.494-7.548.282-11.268,3.421-16.42,7.029-33.2,15.237-47.32s22.051-25.3,37.058-24.64" transform="translate(-108.013 -12.077)" fill="#f9beb7"/>
        <path id="Trazado_717034" data-name="Trazado 717034" d="M289.106,122.163c35.378,1.635,68.524,17.292,95.417,42.922a219.477,219.477,0,0,1,18.092,19.433c4.811,5.852,10.841,14.1,7.844,22.614-2.935,8.337-13.289,4.919-19.5,5.147a83.7,83.7,0,0,0-26.371,5.279c-6.8,2.563-16.382,6.213-14.471,16.383a28.163,28.163,0,0,0,3.518,8.377c.663,1.189,3.476,4.967,2.827,6.5l4.133-2.662-53.885-.234c-13.058-.056-27.762.408-39.445-7.2-6.177-4.023-9.663-10.112-13.027-16.977a82.994,82.994,0,0,0-5.655-10.254c-2.115-3.11-4.829-5.371-7.106-8.272-2.635-3.359-1.729-7-.9-11.017.932-4.5,1.89-8.99,2.951-13.452a133.916,133.916,0,0,1,7.909-24.57c7.13-15.647,20.076-29.631,36.663-29.248,6.162.142,6.161-10.606,0-10.748-36.7-.848-53.035,46.38-57.669,80.171-.577,4.206-.444,8.509,1.452,12.312,1.958,3.927,5.328,6.42,7.952,9.7,5.508,6.88,7.953,16.18,13.381,23.21,10.058,13.032,26.318,16.092,40.862,16.852,22.1,1.156,44.39.38,66.514.477a4.648,4.648,0,0,0,4.132-2.662c2.939-6.953-.3-12.627-3.5-18.566-.691-1.28-2.051-3.115-1.528-4.372.483-1.161,5.137-2.485,6.092-2.864q3.688-1.467,7.479-2.559c9.684-2.792,18.915-2.63,28.8-2.595,8.192.03,14.931-4.367,17.631-13.3,5.761-19.074-11.756-35.634-22.8-46.97-13.315-13.663-28.232-25.579-44.57-34.242a149.292,149.292,0,0,0-63.213-17.362c-6.16-.284-6.148,10.465,0,10.748" transform="translate(-106.813 -11.451)" fill="#f9beb7"/>
        <path id="Trazado_717035" data-name="Trazado 717035" d="M296.107,207.876c8.383,8.639,18.779,14.817,30.061,16.921,10.892,2.033,23.408-.36,27.3-13.65a5.165,5.165,0,0,0-5.887-6.61,79.444,79.444,0,0,1-43.85-4.83c-5.811-2.333-8.312,8.049-2.545,10.364a88.33,88.33,0,0,0,48.939,4.83l-5.887-6.611c-2.667,9.107-14.4,6.776-20.57,4.911a48.651,48.651,0,0,1-20.793-12.925c-4.531-4.67-11.319,2.911-6.768,7.6" transform="translate(-119.858 -20.568)" fill="#e25b4d"/>
        <path id="Trazado_717036" data-name="Trazado 717036" d="M442.3,197.885c7.695,6.226,16.93,9.622,24.892,15.409,17.542,12.747,27.423,37.595,24.165,60.771-8.6-6.586-14.71-16.838-23.726-22.686-13.772-8.932-30.92-5.753-46.741-7.575a74.558,74.558,0,0,1-30.545-10.7c11.481-.237,23.166-.7,34.026-4.891s20.954-12.716,24.983-24.791" transform="translate(-139.233 -20.471)" fill="#feb51c"/>
        <path id="Trazado_717037" data-name="Trazado 717037" d="M440.494,199.878c6.516,5.114,13.886,8.4,20.817,12.693a54.47,54.47,0,0,1,16.65,15.911,65.785,65.785,0,0,1,10.491,44.541l3.515-1.606c-7.184-5.683-12.593-13.644-19.6-19.574-7.041-5.958-15.3-8.564-23.967-9.574-9.12-1.063-18.321-.433-27.447-1.41a73.2,73.2,0,0,1-30-10.4q-.6,2.5-1.208,5.007c23.039-.5,51.523-4.023,61.316-31.655,1.138-3.214-3.488-4.609-4.615-1.429-8.851,24.975-36.26,27.267-56.7,27.709-2.3.05-3.358,3.708-1.208,5.008a78.449,78.449,0,0,0,26.95,10.362c9.149,1.606,18.391,1.207,27.608,1.739,9.51.548,18.851,2.483,26.6,9.088,7.07,6.025,12.565,14.005,19.851,19.769a2.334,2.334,0,0,0,3.515-1.606,71.86,71.86,0,0,0-10.287-47.634,59.552,59.552,0,0,0-15.55-16.577c-7.843-5.561-16.693-9.018-24.32-15-2.529-1.986-4.924,2.672-2.415,4.641" transform="translate(-138.63 -20.144)" fill="#feb51c"/>
        <path id="Trazado_717038" data-name="Trazado 717038" d="M396.062,242.25c-1.812,5.813.3,12.15,2.389,17.846a9.718,9.718,0,0,0,1.8,3.434c1.673,1.756,4.245,1.681,6.527,1.49,14.31-1.2,29.05-2.758,42.722,2.134,5.825,2.084,11.31,5.3,17.218,7.065,7.342,2.194,15.053,2.071,22.649,1.932-9.774-1.936-13.985-15.151-22.238-21.339-8.511-6.382-19.7-4.337-29.932-4.288-14.712.072-29.091-4.5-43.238-9.036l-.209,7.674" transform="translate(-139.921 -25.019)" fill="#f4a00b"/>
        <path id="Trazado_717039" data-name="Trazado 717039" d="M393.147,241.222c-1.291,5.059-.624,9.988.88,14.9,1.072,3.5,2.245,8.19,5.32,10.147,3.676,2.34,8.819.943,12.771.623,5.21-.42,10.431-.77,15.657-.716,10.907.115,20.324,3.044,30.376,7.494,10.013,4.433,19.949,5.042,30.614,4.854,2.617-.047,3.352-4.622.636-5.278-7.39-1.787-11.335-9.837-16.135-15.632a27.476,27.476,0,0,0-19.778-10.272c-9.171-.793-18.3.691-27.49-.513-10.889-1.428-21.493-4.879-32.005-8.247-1.535-.492-2.982.87-3.029,2.591l-.209,7.675a2.4,2.4,0,1,0,4.786,0l.209-7.675-3.03,2.591c10.008,3.206,20.057,6.4,30.385,8.017,9.341,1.459,18.456.5,27.812.793,4.587.143,9.293.861,13.324,3.488,3.227,2.1,5.709,5.323,8.083,8.492,4.41,5.888,8.753,12.168,15.8,13.873l.637-5.278c-9.126.16-18.029.019-26.707-3.531-7.995-3.271-15.419-6.882-23.957-8.083-8.627-1.214-17.339-.717-25.983-.019-2.172.176-4.347.426-6.522.539-2.807.145-4.184-.485-5.588-3.411-2.228-4.648-3.547-10.9-2.245-16,.85-3.331-3.767-4.753-4.615-1.429" transform="translate(-139.314 -24.706)" fill="#f4a00b"/>
        <path id="Trazado_717040" data-name="Trazado 717040" d="M403.564,96.9c-1.7-7.017-5.7-15.764-12.045-14.308-1.148.263-2.219.875-3.376,1.087-3.584.659-6.908-2.767-8.11-6.615s-.885-8.048-.948-12.126c-.094-6.044-1.289-12.546-5.295-16.586s-11.446-3.946-13.952,1.405c-2.078,4.439-1.867,12.276-6.32,11.9-1.8-.154-3.112-1.948-4.039-3.689-3.1-5.838-4.642-13.022-9.347-17.3s-14.181-1.769-13.453,4.982c.392,3.623,3.53,7.537,1.423,10.314-2.551,3.362-6.8-1.542-8.54-5.506C313.646,36.946,302.6,26.391,289.78,21.991a5.2,5.2,0,0,0-3.83-.24c-2.733,1.254-2.393,5.792-1.01,8.72s3.394,6.1,2.424,9.234a72.224,72.224,0,0,0-40.35-10.53c-7.1.3-14.561,1.9-19.873,7.192-17.051,17,10.366,37.472,20.1,48.13,7.867,8.614,16.047,17.458,26.334,21.8,12.152,5.126,25.609,3.319,38.574,4.047,21.637,1.215,42.5,9.988,60.434,23.433,9.2,6.9,16.845,15.2,24.837,23.67,9.435,10,11.054,3.811,22.38,7.439-4.083-22.822-10.791-45.479-16.232-67.984" transform="translate(-105.102 -2.07)" fill="#e25b4d"/>
        <path id="Trazado_717041" data-name="Trazado 717041" d="M406.993,94.856c-1.93-7.532-5.776-16.767-13.463-18.2-3.138-.583-7.558,2.6-9.589-.694-2.476-4.012-1.036-10.933-1.485-15.562-.847-8.746-4.592-17.888-12.792-20.311-7.614-2.251-14.246,2.208-16.6,10.4-.31,1.078-1.418,3.872-1.3,4.976,0-.016-.808,2.1.483.392l.73-.3a16.335,16.335,0,0,1-1.156-2.1c-2.2-4.372-3.585-9.166-6.266-13.236-4.323-6.565-11.654-9.771-18.556-6.167a11.4,11.4,0,0,0-5.891,7.031,12.807,12.807,0,0,0-.233,5.376,19.011,19.011,0,0,0,.58,2.443q.425,1.223.868,2.435.372,3.036,3.235-.07c.014.092-1.713-1.683-1.382-1.292a13.385,13.385,0,0,1-1.67-2.848c-.952-1.945-1.842-3.9-2.933-5.758a61,61,0,0,0-8.354-11.21c-6.108-6.414-15.305-13.667-23.909-14.533-4.855-.489-8.676,2.81-9.271,8.277a15.628,15.628,0,0,0,.714,6.459c.668,2.082,3.2,5.1,2.806,7.3l7.031-3.212a79.258,79.258,0,0,0-35.086-11.159c-10.955-.751-23.453.45-31.728,9.487-14.686,16.037.982,35.108,12.305,46.337,6.991,6.932,13.539,14.565,20.843,21.067,9.785,8.71,20.371,13.3,32.838,14.325,12.617,1.038,25.131-.193,37.633,2.612a110.3,110.3,0,0,1,34.177,14.236c12.6,7.862,22.728,18.409,33.269,29.275,3.454,3.559,7.2,6.733,11.951,7.463,4.252.652,8.319.094,12.541,1.357,3.7,1.108,6.606-2.653,5.888-6.61-4.183-23.017-10.73-45.349-16.232-67.984-1.62-6.665-10.857-3.835-9.23,2.857,5.5,22.635,12.049,44.967,16.232,67.984l5.888-6.611a38.961,38.961,0,0,0-11.189-1.5,9.63,9.63,0,0,1-7.171-2.652c-4.363-3.826-8.164-8.613-12.293-12.758a154.042,154.042,0,0,0-13.056-11.828c-17.879-14.246-39.223-23.472-61.081-25.671-11.454-1.154-23.235.628-34.561-1.986-10.961-2.529-19.362-10.016-27.288-18.475-5.454-5.82-11.2-11.255-16.66-17.066-4.449-4.737-10.787-11.265-11.291-18.638-.8-11.768,14.507-14.455,21.931-14.623a68.55,68.55,0,0,1,36.538,9.841,4.7,4.7,0,0,0,7.031-3.212c.847-4.67-.43-7.986-2.286-12.105-.268-.6-.589-1.6-.912-2.214-.028-.106-.056-.211-.085-.317q.036-2.369-.189.676c1.505,1.1,3.786,1.458,5.46,2.345a47.179,47.179,0,0,1,17.186,15.708c3.85,5.849,6.207,15.511,13.512,17.031,3.3.686,6.57-1.194,8.091-4.551a10.22,10.22,0,0,0,.7-5.564c-.265-2.053-2.01-4.725-1.941-6.709.035-1.033-.444-.091.112-.708.676-.747,2.179-.846,3.046-.794,3.067.186,4.737,3.581,6.039,6.3,3.063,6.4,5.8,18,14.222,16.678,2.883-.452,4.988-2.543,6.294-5.381,1.24-2.7,1.216-6.635,2.741-9.06,1.4-2.221,4.278-1.9,6.148-.523,2.869,2.11,3.762,6.834,4.067,10.382.81,9.412-.791,20.655,8.436,25.579a9.814,9.814,0,0,0,6.793.953c1.389-.305,2.8-1.44,4.211-.877,3.065,1.224,4.544,7.3,5.324,10.343,1.7,6.635,10.938,3.814,9.23-2.857" transform="translate(-103.916 -1.455)" fill="#e25b4d"/>
        <path id="Trazado_717042" data-name="Trazado 717042" d="M297.117,183.931c6.56,5.4,14.8,5.981,22.664,5.9,7.206-.073,15.739-.784,21.238,5.446,4.342,4.919,11.111-2.681,6.767-7.6-5.828-6.6-13.874-8.4-21.882-8.626-8.17-.228-16.946,1.368-23.957-4.4-4.975-4.092-9.755,5.231-4.831,9.281" transform="translate(-119.949 -17.941)" fill="#680f0b"/>
        <path id="Trazado_717043" data-name="Trazado 717043" d="M315.936,171.469c9.172-2.368,18.405-.3,26.245,5.472l4.831-9.281a50.487,50.487,0,0,0-33.672-5.522c-6.067,1.077-3.491,11.435,2.545,10.364a40.278,40.278,0,0,1,26.3,4.439c5.525,3,10.028-5.457,4.831-9.281a39.383,39.383,0,0,0-33.62-6.555c-6,1.549-3.461,11.915,2.545,10.364" transform="translate(-122.949 -16.5)" fill="#e25b4d"/>
        <path id="Trazado_717044" data-name="Trazado 717044" d="M427.6,217.622l7.6,2.759q1.273-5.182,2.545-10.365l-6.5-1.86a4.815,4.815,0,0,0-5.887,3.754c-.567,2.795.747,5.869,3.342,6.611l6.5,1.86a4.816,4.816,0,0,0,5.887-3.754,5.608,5.608,0,0,0-3.343-6.611l-7.6-2.758c-2.383-.865-5.331,1.009-5.888,3.753a5.61,5.61,0,0,0,3.343,6.611" transform="translate(-146.066 -21.426)" fill="#680f0b"/>
        <path id="Trazado_717045" data-name="Trazado 717045" d="M394.967,65.226a16.172,16.172,0,0,1,4.557,12.61c-.337,6.912,9.236,6.891,9.572,0a27.277,27.277,0,0,0-7.361-20.21c-4.534-4.667-11.321,2.915-6.768,7.6" transform="translate(-139.861 -5.688)" fill="#c6352e"/>
        <path id="Trazado_717046" data-name="Trazado 717046" d="M363.194,64.4a41.74,41.74,0,0,1,3.522,12.575,4.78,4.78,0,0,0,5.888,3.754c2.751-.849,3.711-3.726,3.342-6.611a50.617,50.617,0,0,0-4.486-15.143c-2.873-6.121-11.138-.7-8.265,5.425" transform="translate(-133.617 -5.702)" fill="#c6352e"/>
        <path id="Trazado_717047" data-name="Trazado 717047" d="M316.218,51.709a13.474,13.474,0,0,1,6.587,9.975,4.793,4.793,0,0,0,5.888,3.754c2.662-.821,3.826-3.749,3.342-6.611a23.553,23.553,0,0,0-10.985-16.4c-5.472-3.15-10.32,6.121-4.831,9.281" transform="translate(-123.744 -4.188)" fill="#c6352e"/>
        <path id="Trazado_717048" data-name="Trazado 717048" d="M245.464,70.809l8.146,8.136a4.518,4.518,0,0,0,6.768,0c1.749-1.963,1.939-5.663,0-7.6l-8.146-8.136a4.518,4.518,0,0,0-6.768,0c-1.748,1.963-1.939,5.663,0,7.6" transform="translate(-109.636 -6.264)" fill="#c6352e"/>
        <path id="Trazado_717049" data-name="Trazado 717049" d="M272.159,94.888l4.086,2.34a4.589,4.589,0,0,0,6.548-1.928c1.154-2.453.664-5.989-1.717-7.353l-4.085-2.34a4.589,4.589,0,0,0-6.548,1.928c-1.155,2.453-.664,5.989,1.717,7.353" transform="translate(-114.849 -8.691)" fill="#c6352e"/>
        <path id="Trazado_717050" data-name="Trazado 717050" d="M274.714,82.534c6.159,0,6.169-10.748,0-10.748s-6.169,10.748,0,10.748" transform="translate(-114.899 -7.318)" fill="#c6352e"/>
        <path id="Trazado_717051" data-name="Trazado 717051" d="M299.048,108.38l4.108,1.125a4.82,4.82,0,0,0,5.887-3.754c.562-2.77-.741-5.9-3.343-6.611l-4.108-1.124a4.82,4.82,0,0,0-5.888,3.753c-.562,2.77.741,5.9,3.343,6.611" transform="translate(-120.056 -10.038)" fill="#c6352e"/>
        <path id="Trazado_717052" data-name="Trazado 717052" d="M301.714,90.248c6.159,0,6.169-10.748,0-10.748s-6.169,10.748,0,10.748" transform="translate(-120.362 -8.122)" fill="#c6352e"/>
        <path id="Trazado_717053" data-name="Trazado 717053" d="M434.839,139.766a35.566,35.566,0,0,1,8.611,13c.992,2.678,3.172,4.591,5.888,3.754,2.252-.7,4.341-3.914,3.342-6.611a47.436,47.436,0,0,0-11.073-17.739c-4.622-4.533-11.418,3.039-6.768,7.6" transform="translate(-147.919 -13.47)" fill="#c6352e"/>
        <path id="Trazado_717054" data-name="Trazado 717054" d="M432.857,124.962c6.159,0,6.169-10.748,0-10.748s-6.169,10.748,0,10.748" transform="translate(-146.898 -11.743)" fill="#c6352e"/>
        <path id="Trazado_717055" data-name="Trazado 717055" d="M318.429,211.105c6.159,0,6.169-10.748,0-10.748s-6.169,10.748,0,10.748" transform="translate(-123.744 -20.729)" fill="#c6352e"/>
        <path id="Trazado_717056" data-name="Trazado 717056" d="M336.429,221.391c6.159,0,6.169-10.748,0-10.748s-6.169,10.748,0,10.748" transform="translate(-127.386 -21.802)" fill="#c6352e"/>
        <path id="Trazado_717057" data-name="Trazado 717057" d="M350.571,213.677c6.159,0,6.169-10.748,0-10.748s-6.169,10.748,0,10.748" transform="translate(-130.248 -20.997)" fill="#c6352e"/>
        <path id="Trazado_717058" data-name="Trazado 717058" d="M73.18,52.168a474.814,474.814,0,0,0,121.026,50.273q-3.277-5.351-6.556-10.7,31.9,9.837,63.058,22.429a37.989,37.989,0,0,1-16.578,15.039l4.261,4.746a22.351,22.351,0,0,1-8.594,7.953l5.224,3.664a14.265,14.265,0,0,1-6.606,6.558c.227,6.106-3.9,12.052-9.231,13.293,1.859-.575,3.519,1.956,3.223,4.1s-1.787,3.783-3.2,5.261l-18.532,19.45,13.027.269a24.412,24.412,0,0,0,17.874,7.2q-2.927,4.623-5.855,9.244c3.526-4,10.042,1.607,9.551,7.209s-4.807,9.665-8.79,13.085l10.4,1.854q-1.949,5.777-3.9,11.554l15.913-13.181q-.1,10.078-.2,20.156a35.632,35.632,0,0,0,8.1-12.98,18.827,18.827,0,0,1,2.126,11.856,48.49,48.49,0,0,0,10.041-14.877l4.193,13.312,6.355-9.862a22.217,22.217,0,0,0,4.808,9.4q2.186-3.206,4.373-6.41,1.508,4.149,3.014,8.3a15.7,15.7,0,0,0,5.474-7.539,12.642,12.642,0,0,0,18.215-1q1.013,3.454,2.028,6.907a7.6,7.6,0,0,0,5.374-1.489c-.675,3.024,2.557,6.123,5.111,4.9l-5.679,11.439c.089-3.121-4.289-3.333-6.553-1.52s-4.652,4.621-7.3,3.654c-1.574-.575-2.576-2.374-4.111-3.068-2.835-1.281-5.64,1.594-8.165,3.528s-7.181,2.025-7.461-1.392A39.539,39.539,0,0,0,267.792,275.9c1.022-2.458-3.29-2.426-5.074-.6l-36.261,37.2q.091-7.352.182-14.7-4.086,6.317-8.171,12.632l-3.156-7.3c-.168,2.42-.406,5.032-1.855,6.833s-4.562,2.007-5.477-.191q-1.374,8.161-2.746,16.322l-3.633-6.967q-3.988,10.355-7.975,20.709l-6.288-4.347q-3.144,5.611-6.29,11.218c-3.405-4.759-9.883-4.182-15.252-3.221q-35.672,6.386-71.747,9.3c-9.452.763-19.13,1.322-28.238-1.618-2.2-.709-4.479-1.73-5.8-3.829-1.154-1.84-1.373-4.2-1.549-6.438A1216.108,1216.108,0,0,1,70.1,53.227" transform="translate(-71.326 -5.272)" fill="#ddc6c3"/>
        <path id="Trazado_717059" data-name="Trazado 717059" d="M69.551,56.19A484.552,484.552,0,0,0,191.721,107c3.77.984,7.906-3.813,5.4-7.895l-6.557-10.7-5.4,7.895q31.9,9.872,63.059,22.429-1.431-3.947-2.86-7.895a34.823,34.823,0,0,1-14.861,13.11c-2.9,1.381-2.931,6.255-.968,8.441l4.261,4.746q-.374-3.257-.748-6.513a18.976,18.976,0,0,1-6.877,6.024c-3.363,1.854-2.852,7.28,0,9.281l5.224,3.664-1.717-7.353a10.859,10.859,0,0,1-4.889,4.63c-1.5.78-2.354,2.883-2.371,4.641-.038,4.034-2.263,7.091-5.718,8.111-5.135,1.515-4.2,10.828,1.272,10.556-1.946.1-.822-2.625-2.934-.271-.7.781-1.438,1.522-2.159,2.279l-5.792,6.077-11,11.549c-3.109,3.263-.634,9.091,3.384,9.174l13.027.27-3.384-1.575c6.1,5.718,13.266,8.831,21.258,8.771l-4.133-8.087-5.856,9.244c-3.376,5.33,3.632,10.1,7.517,6.513-.63.581.484.707.906,1.411.743,1.238.494,2.208-.064,3.549-1.347,3.242-4.4,5.61-6.849,7.734-2.733,2.371-1.244,8.385,2.112,8.983l10.4,1.854-3.343-6.611q-1.948,5.777-3.9,11.554c-1.421,4.214,3.737,8.8,7.031,6.069l15.913-13.181-7.2-4.641q-.1,10.078-.2,20.156c-.047,4.786,5.207,6.92,8.17,3.8a42.084,42.084,0,0,0,8.847-14.069h-8.265a14.923,14.923,0,0,1,1.472,9.145c-.556,4.96,5.438,6.622,8.17,3.8a56,56,0,0,0,10.789-15.965l-8.748-1.284,4.194,13.313c1.44,4.571,6.3,5.084,8.747,1.284l6.355-9.862-8.747-1.284a30.91,30.91,0,0,0,6.038,11.776c2.309,2.808,5.745,1.509,7.517-1.088l4.373-6.41-8.747-1.284,3.014,8.3c1.052,2.9,4.246,5.444,7.031,3.211a22.44,22.44,0,0,0,7.192-9.467L292.594,246c7.544,6.65,17.918,6.589,24.983-1l-8-2.371q1.015,3.453,2.028,6.906a5.071,5.071,0,0,0,4.615,3.946,13.092,13.092,0,0,0,7.789-2.222l-7.2-4.641c-.487,6.971,5.435,11.629,11.17,10.083l-5.4-7.895-5.68,11.439,8.919,2.713c-.538-4.538-2.925-7.639-7.18-7.985a9.851,9.851,0,0,0-4.7.8c-2.053.885-3.4,2.826-5.348,3.84-.981.511.8.74-.482-.176-.767-.546-1.4-1.284-2.193-1.789a8.12,8.12,0,0,0-6.238-1.068,14.4,14.4,0,0,0-5.249,2.784c-.779.59-1.609,1.211-2.348,1.867l-.86.276q-1.5-.144.836,1.224a4.859,4.859,0,0,0-5.888-3.754,45.645,45.645,0,0,0-22.975,12.5l8,5.228c1.2-5.158-2.354-8.908-6.838-8.687-5.323.261-9.044,5.743-12.668,9.462q-14.914,15.3-29.828,30.6l8.17,3.8q.091-7.35.182-14.7c.071-5.737-6.3-6.768-8.919-2.712l-8.17,12.631h8.265l-3.156-7.3c-2.261-5.23-8.544-2.091-8.919,2.713a11.023,11.023,0,0,1-.276,2.22q-1.1,1.984,1.863,1.71c-2.166-3.348-7.909-3.7-8.748,1.284q-1.372,8.162-2.746,16.323l8.748-1.284-3.633-6.967c-1.65-3.165-6.788-3.834-8.265,0L188.279,336.5l6.548-1.927-6.287-4.346c-2.255-1.559-5.194-.487-6.548,1.928q-3.146,5.608-6.29,11.217l7.516-1.087c-7.381-9.033-19.961-4.534-29.222-3q-19.564,3.249-39.253,5.408c-12.168,1.344-24.66,3.138-36.9,2.65a45.767,45.767,0,0,1-9.076-1.165c-2.143-.523-5.245-.9-6.34-3.307-1.123-2.466-.712-6.816-.909-9.528q-.442-6.07-.822-12.145a1217.9,1217.9,0,0,1,1.289-170.329Q65.767,102.182,73.5,54.037c1.083-6.763-8.14-9.665-9.23-2.857A1228.966,1228.966,0,0,0,48.882,227.313q-.646,43.926,1.874,87.816.65,11.286,1.51,22.554c.452,5.931.92,11.839,5.719,15.446,4.731,3.556,11.358,4.306,16.87,4.785a111.846,111.846,0,0,0,18.762-.435q22.322-1.823,44.535-4.992Q149.307,350.9,160.424,349c4.6-.788,12.345-3.617,16.027.888,2.154,2.636,5.942,1.721,7.516-1.087l6.29-11.217-6.548,1.928L190,343.856a4.529,4.529,0,0,0,6.548-1.928l7.975-20.709h-8.265l3.632,6.967c1.953,3.745,7.96,3.4,8.748-1.284q1.372-8.162,2.746-16.323l-8.748,1.284c2.573,3.978,6.866,5.537,10.891,3.023,4.074-2.546,4.985-7.558,5.359-12.377l-8.919,2.712,3.157,7.3c1.717,3.971,6.345,2.968,8.265,0l8.171-12.632-8.919-2.712q-.091,7.352-.182,14.7c-.06,4.836,5.2,6.853,8.17,3.8l19.885-20.4,9.358-9.6c1.754-1.8,3.518-3.589,5.264-5.4a12.023,12.023,0,0,0,1.554-1.507c.116-.236-3.614-1.11-2.726-4.925-1.265,5.432,4.479,8.642,8,5.229a36.587,36.587,0,0,1,18.751-9.733l-5.887-3.753a7.99,7.99,0,0,0,7.1,6.587c3.929.421,6.7-1.6,9.837-3.909,2.009-1.475,1.788-.744,3.716.665a8.125,8.125,0,0,0,5.454,1.636,10.206,10.206,0,0,0,5.476-2.393,10.363,10.363,0,0,0,2.482-2.1l.416-.3q2.009-.23-1.065-2.824c.575,4.841,6.361,7.864,8.919,2.712l5.68-11.439c2.068-4.165-1.338-8.991-5.4-7.895l.947.281a4.846,4.846,0,0,0-7.2-4.641,4.2,4.2,0,0,1-2.958.755l4.615,3.946q-1.015-3.453-2.028-6.906c-1.131-3.852-5.312-5.257-8-2.372-2.97,3.189-8.069,3.974-11.447,1-2.139-1.885-6.133-2.417-7.516,1.088a12.74,12.74,0,0,1-3.757,5.612l7.031,3.211q-1.508-4.149-3.014-8.3c-1.638-4.513-6.14-5.1-8.747-1.284l-4.374,6.411,7.517-1.088a18.241,18.241,0,0,1-3.578-7.032c-1.282-4.7-6.377-4.962-8.747-1.284l-6.355,9.862,8.747,1.284-4.193-13.312c-1.271-4.034-6.751-5.7-8.748-1.284a47.61,47.61,0,0,1-9.292,13.789l8.17,3.8a25.4,25.4,0,0,0-2.779-14.57c-1.63-3.177-6.806-3.825-8.265,0a34.719,34.719,0,0,1-7.35,11.894l8.17,3.8q.1-10.078.2-20.156c.037-3.76-4.208-7.12-7.2-4.64l-15.913,13.18,7.031,6.069q1.948-5.777,3.9-11.554c.846-2.509-.955-6.185-3.343-6.61l-10.4-1.855q1.055,4.491,2.111,8.983c5.906-5.124,12.527-12.937,9.383-22.045-2.711-7.852-10.95-11.352-16.913-5.85l7.517,6.513,5.856-9.244c2.151-3.4-.743-8.112-4.133-8.086-5.667.042-9.9-2.1-14.49-5.622-4.11-3.156-11.539-1.742-16.411-1.843l3.384,9.175c6.642-6.971,14.235-13.6,20.18-21.325,4.467-5.8,3.457-17.08-5.06-16.657l1.272,10.557c7.546-2.227,12.661-9.747,12.745-18.475q-1.184,2.32-2.371,4.641a20.3,20.3,0,0,0,8.324-8.486,5.854,5.854,0,0,0-1.717-7.353L231,136.647v9.281a29.774,29.774,0,0,0,10.311-9.88c1.258-1.862.629-4.979-.748-6.513l-4.261-4.747q-.485,4.22-.968,8.441c7.527-3.588,13.61-9.492,18.294-16.966,1.911-3.048-.2-6.822-2.86-7.895q-31.143-12.551-63.059-22.429c-3.8-1.178-7.839,3.92-5.4,7.895l6.557,10.7,5.4-7.895A474.923,474.923,0,0,1,74.383,46.909c-5.457-3.191-10.3,6.081-4.831,9.281" transform="translate(-70.112 -4.654)" fill="#ddc6c3"/>
        <path id="Trazado_717060" data-name="Trazado 717060" d="M47.18,36.5A449.754,449.754,0,0,0,168.206,92.407l-6.556-11.9q31.9,10.939,63.058,24.943a39.759,39.759,0,0,1-16.578,16.723l4.261,5.278A23.475,23.475,0,0,1,203.8,136.3l5.224,4.075a15.134,15.134,0,0,1-6.606,7.293c.227,6.79-3.9,13.4-9.231,14.783,1.859-.64,3.519,2.176,3.223,4.555s-1.787,4.207-3.2,5.852l-18.532,21.63,13.027.3c4.867,5.346,11.4,8.269,17.874,8q-2.927,5.14-5.855,10.28c3.526-4.451,10.042,1.788,9.551,8.018s-4.807,10.748-8.79,14.551l10.4,2.063q-1.949,6.423-3.9,12.848l15.913-14.658q-.1,11.208-.2,22.416a40.509,40.509,0,0,0,8.1-14.436,22.963,22.963,0,0,1,2.126,13.186,54.614,54.614,0,0,0,10.041-16.544l4.193,14.8,6.355-10.967a25.8,25.8,0,0,0,4.808,10.457l4.373-7.128,3.014,9.23a17.483,17.483,0,0,0,5.474-8.385,11.79,11.79,0,0,0,18.215-1.109q1.013,3.84,2.028,7.681a7.057,7.057,0,0,0,5.374-1.655c-.675,3.362,2.557,6.809,5.111,5.449l-5.679,12.721c.089-3.472-4.289-3.707-6.553-1.691s-4.652,5.139-7.3,4.064c-1.574-.64-2.576-2.641-4.111-3.412-2.835-1.424-5.64,1.773-8.165,3.925s-7.181,2.251-7.461-1.55A38.463,38.463,0,0,0,241.792,285.3c1.022-2.734-3.29-2.7-5.074-.664l-36.261,41.368q.091-8.175.182-16.351-4.086,7.023-8.171,14.047l-3.156-8.118c-.168,2.691-.406,5.6-1.855,7.6s-4.562,2.232-5.477-.213l-2.746,18.152-3.633-7.748q-3.988,11.515-7.975,23.031l-6.288-4.833-6.29,12.473c-3.405-5.292-9.883-4.65-15.252-3.582A678.17,678.17,0,0,1,68.05,370.811c-9.452.849-19.13,1.471-28.238-1.8-2.2-.788-4.479-1.924-5.8-4.258-1.154-2.046-1.373-4.667-1.549-7.159A1502.281,1502.281,0,0,1,44.1,37.677" transform="translate(-66.065 -3.637)" fill="#ead9d6"/>
        <path id="Trazado_717061" data-name="Trazado 717061" d="M65.71,58.611c4.46,8.782,13.827,12.808,22.706,14.482s18.133,1.713,26.491,5.473,15.837,12.786,14.71,22.816a31.4,31.4,0,0,1,34.13,4.418c3.609,3.069,6.8,7.305,7.3,12.36s-2.683,10.71-7.206,10.93c6.763-4.68,17.028-.112,19.1,8.5s-4.75,18.363-12.692,18.142c7.7,2.709,10.67,15.448,5.135,22.045,3.735-4.841,11.667-3.1,14.411,2.517s.712,13.147-3.684,17.23c-2.827,2.627-6.486,4.126-8.85,7.276s-2.359,9.125,1.139,10.367c4.427,1.571,7.358-5.741,11.864-6.994,3.827-1.063,7.6,2.895,8.414,7.226s-.46,8.776-1.722,12.971c4.109-5.186,13.077-3.1,15.015,3.491,2.619,8.907-5.57,21.277,1.22,26.741.251-4.878,6.239-7.429,9.95-4.876s4.874,8.283,3.751,13-4.038,8.619-7.042,12.155c3.036,5.314,9.668-3.04,15.289-2.932s7.49,9.715,3.861,14.552-9.777,5.913-15.368,6.668c1.4,7.1-4.211,14.006-10.484,15.81s-12.864-.085-19.117-1.968c2.617,6.616-4.526,13.513-10.972,13.468s-12.335-3.981-18.656-5.4-14.544,1.325-15.534,8.478c-.682,4.932,2.38,10.437.05,14.688-3.242,5.913-11.326,1.606-15.888-3.084-3.447,8.794-11.109,15.329-19.578,16.7s-17.462-2.471-22.98-9.815c-3.853,11.666-17.335,17.875-27.374,12.609-2.47-1.3-5.32-3.179-7.692-1.668-1.555.992-2.194,3.079-3.069,4.831-4.73,9.477-17.953,9.281-25.283,2.19s-10.109-18.34-11.986-29c-2.62-14.878-4.207-29.958-5.791-45.019C2.22,222.923-4.825,154.858,4.421,88.127,5.745,78.571,7.8,68.272,14.437,62.1c8.287-7.708,20.406-6.144,31.02-4.161" transform="translate(-60.248 -5.705)" fill="#f4eeed"/>
        <path id="Trazado_717062" data-name="Trazado 717062" d="M148.695,132.481l6.153,2.3c2.377.89,5.335-1.026,5.887-3.753a5.614,5.614,0,0,0-3.343-6.611l-6.153-2.3c-2.377-.89-5.334,1.026-5.888,3.753a5.614,5.614,0,0,0,3.343,6.611" transform="translate(-89.631 -12.545)" fill="#ddc6c3"/>
        <path id="Trazado_717063" data-name="Trazado 717063" d="M153.858,152.512c7.707,3.734,16.016,3.527,23.3-1.395,5.273-3.562.466-12.859-4.831-9.281-4.11,2.777-9.136,3.576-13.639,1.395-5.6-2.711-10.478,6.546-4.831,9.281" transform="translate(-90.872 -14.541)" fill="#ddc6c3"/>
        <path id="Trazado_717064" data-name="Trazado 717064" d="M175.968,126.536a30.054,30.054,0,0,1,8.083,6.4c4.37,4.886,11.142-2.71,6.768-7.6a38.226,38.226,0,0,0-10.019-8.078,4.62,4.62,0,0,0-6.549,1.928c-1.231,2.364-.615,6.074,1.717,7.353" transform="translate(-95.381 -11.993)" fill="#ddc6c3"/>
        <path id="Trazado_717065" data-name="Trazado 717065" d="M129.388,109.526a12.521,12.521,0,0,1,7.841,1.565c5.456,3.195,10.3-6.078,4.831-9.281a20.959,20.959,0,0,0-12.672-3.032,5.243,5.243,0,0,0-4.786,5.374c0,2.712,2.2,5.627,4.786,5.374" transform="translate(-85.46 -10.124)" fill="#ddc6c3"/>
        <path id="Trazado_717066" data-name="Trazado 717066" d="M108.009,133.679a11.184,11.184,0,0,0,10.809,3.664c2.481-.438,4.076-4.066,3.342-6.611a4.884,4.884,0,0,0-5.887-3.753c1.283-.227-.3,0-.6-.109.768.278.349-.08-.193-.16q.749.4.275.142a4.941,4.941,0,0,1-.5-.3q-.664-.5.054.107a6.935,6.935,0,0,1-.542-.583,4.468,4.468,0,0,0-6.768,0,5.969,5.969,0,0,0,0,7.6" transform="translate(-81.826 -12.819)" fill="#ddc6c3"/>
        <path id="Trazado_717067" data-name="Trazado 717067" d="M96.014,109.243l3.07,1.174a4.4,4.4,0,0,0,3.688-.542,5.44,5.44,0,0,0,2.2-3.212,5.616,5.616,0,0,0-3.342-6.61l-3.07-1.174a4.4,4.4,0,0,0-3.688.542,5.438,5.438,0,0,0-2.2,3.211,5.618,5.618,0,0,0,3.343,6.611" transform="translate(-78.971 -10.123)" fill="#ddc6c3"/>
        <path id="Trazado_717068" data-name="Trazado 717068" d="M259.585,218.656a33.163,33.163,0,0,0,18.6,10.638,4.9,4.9,0,0,0,5.887-3.753c.652-2.546-.794-6.161-3.342-6.611a24.747,24.747,0,0,1-14.376-7.874c-4.418-4.826-11.194,2.767-6.768,7.6" transform="translate(-112.481 -21.684)" fill="#ddc6c3"/>
        <path id="Trazado_717069" data-name="Trazado 717069" d="M256.048,210.543c5.69,7.4,16.7,2.349,15.948-7.48-.347-4.5-3.269-7.431-6.471-9.693A27.053,27.053,0,0,0,263,191.631c-.825-.443-.184-2.392-1.086-.05-.676,1.754.408,1.22,1.869.93a6.979,6.979,0,0,0,2.935-1.307c2.679-1.951,3.533-7.589,0-9.28a29.739,29.739,0,0,0-19.142-2.623c-6.063,1.129-3.491,11.488,2.545,10.365a19.2,19.2,0,0,1,11.766,1.538v-9.28c-.731.532-2.9.039-3.863.37a7.312,7.312,0,0,0-3.341,2.387,10.244,10.244,0,0,0-1.519,8.665,13.417,13.417,0,0,0,4.72,7.361,17.808,17.808,0,0,0,3.74,2.606c.267.1,2.518,1.357,1.191-.369-4.032-5.245-10.777,2.385-6.768,7.6" transform="translate(-109.643 -18.474)" fill="#ddc6c3"/>
        <path id="Trazado_717070" data-name="Trazado 717070" d="M278.553,151.771l7.179,2.3a4.8,4.8,0,0,0,5.888-3.753c.581-2.864-.767-5.784-3.343-6.611l-7.179-2.3a4.8,4.8,0,0,0-5.888,3.753c-.581,2.864.767,5.784,3.343,6.611" transform="translate(-115.908 -14.561)" fill="#ddc6c3"/>
        <path id="Trazado_717071" data-name="Trazado 717071" d="M300.594,138.308l4.1,2.315a4.591,4.591,0,0,0,6.548-1.928c1.149-2.442.671-6-1.717-7.353l-4.1-2.316a4.592,4.592,0,0,0-6.549,1.928c-1.149,2.442-.67,6,1.717,7.353" transform="translate(-120.603 -13.22)" fill="#ddc6c3"/>
        <path id="Trazado_717072" data-name="Trazado 717072" d="M315.068,137.455l5.136,4.594a4.92,4.92,0,0,0,3.384,1.575,4.617,4.617,0,0,0,3.384-1.575c1.591-1.945,2.091-5.73,0-7.6l-5.137-4.594a4.918,4.918,0,0,0-3.384-1.575,4.615,4.615,0,0,0-3.384,1.575c-1.591,1.946-2.091,5.73,0,7.6" transform="translate(-123.719 -13.211)" fill="#ddc6c3"/>
        <path id="Trazado_717073" data-name="Trazado 717073" d="M356,148.426l7.108,5.866c2.025,1.671,5.427.455,6.549-1.928a5.93,5.93,0,0,0-1.717-7.354l-7.108-5.866c-2.025-1.67-5.427-.454-6.548,1.928A5.927,5.927,0,0,0,356,148.426" transform="translate(-131.81 -14.263)" fill="#ddc6c3"/>
        <path id="Trazado_717074" data-name="Trazado 717074" d="M374.547,152.68A19.3,19.3,0,0,0,397,160.159c5.822-2.159,3.329-12.542-2.544-10.364-5.093,1.889-9.889-.006-13.141-4.715-1.6-2.312-5.085-1.849-6.768,0-2.039,2.239-1.575,5.319,0,7.6" transform="translate(-135.759 -14.8)" fill="#ddc6c3"/>
        <path id="Trazado_717075" data-name="Trazado 717075" d="M386.587,246.8l-6.043-9.932q-1.43,3.947-2.86,7.895a5.212,5.212,0,0,1,3.475.087c3.483,1.073,6.908-2.658,5.888-6.611l-1.752-6.791-4.615,6.8a46.283,46.283,0,0,0,19.233-5.522c5.564-2.956.712-12.225-4.831-9.28a35.007,35.007,0,0,1-14.4,4.054,5.346,5.346,0,0,0-4.615,6.8q.877,3.4,1.752,6.791l5.887-6.611a14.516,14.516,0,0,0-8.564-.086c-2.846.791-4.591,5.05-2.86,7.895l6.042,9.932c3.455,5.677,11.753.306,8.265-5.425" transform="translate(-135.437 -23.078)" fill="#ddc6c3"/>
        <path id="Trazado_717076" data-name="Trazado 717076" d="M452.367,192A44.774,44.774,0,0,0,433.8,179.441L432.532,190c3.31.132,7-.822,8.937-4.115,2.277-3.871.667-8.525-2.43-11.039-3.937-3.193-8.623-5.557-12.867-8.213l-14.233-8.906c-5.387-3.37-10.219,5.91-4.831,9.281l15.589,9.754,7.456,4.665c.554.347,3.117,2.338,3.39,2.137q.2-2.159.4-4.319a6.2,6.2,0,0,1-1.411.005c-5.54-.222-6.3,8.776-1.272,10.556A34.522,34.522,0,0,1,445.6,199.6c4.373,4.883,11.144-2.713,6.768-7.6" transform="translate(-142.147 -16.206)" fill="#ddc6c3"/>
        <path id="Trazado_717077" data-name="Trazado 717077" d="M101.25,340.237a47.1,47.1,0,0,0,13.476,7.372c5.889,2.082,8.409-8.291,2.545-10.365a39.042,39.042,0,0,1-11.189-6.288c-2.119-1.666-5.32-.431-6.549,1.928a5.881,5.881,0,0,0,1.717,7.353" transform="translate(-80.256 -34.271)" fill="#ddc6c3"/>
        <path id="Trazado_717078" data-name="Trazado 717078" d="M146.224,350.613a24.428,24.428,0,0,0,14.753,2.931,5.267,5.267,0,0,0,4.786-5.374c0-2.633-2.2-5.725-4.786-5.374a16.19,16.19,0,0,1-9.921-1.464,4.631,4.631,0,0,0-6.549,1.928c-1.21,2.324-.637,6.124,1.717,7.353" transform="translate(-89.363 -35.367)" fill="#ddc6c3"/>
        <path id="Trazado_717079" data-name="Trazado 717079" d="M132.014,367.579l11.267,2.39a4.872,4.872,0,0,0,5.887-3.754c.642-2.623-.79-6.069-3.342-6.611l-11.267-2.389a4.872,4.872,0,0,0-5.887,3.753c-.641,2.623.79,6.07,3.343,6.611" transform="translate(-86.253 -37.078)" fill="#ddc6c3"/>
        <path id="Trazado_717080" data-name="Trazado 717080" d="M117.924,326.2a21.226,21.226,0,0,0,13.761,4.041,5.222,5.222,0,0,0,4.786-5.374c0-2.776-2.192-5.547-4.786-5.374a13.1,13.1,0,0,1-8.93-2.574c-5.21-3.729-10.017,5.57-4.831,9.281" transform="translate(-83.658 -32.796)" fill="#ddc6c3"/>
        <path id="Trazado_717081" data-name="Trazado 717081" d="M54.927,366.056a39.657,39.657,0,0,0,18.9,7.478c2.59.336,4.761-2.711,4.786-5.374a5.223,5.223,0,0,0-4.786-5.374,30.178,30.178,0,0,1-14.069-6.011c-5.156-3.822-9.956,5.483-4.831,9.281" transform="translate(-70.919 -36.95)" fill="#ddc6c3"/>
        <path id="Trazado_717082" data-name="Trazado 717082" d="M87,358.482l10.288,5.683a4.616,4.616,0,0,0,6.548-1.928c1.234-2.369.612-6.067-1.717-7.353L91.834,349.2a4.618,4.618,0,0,0-6.549,1.928c-1.234,2.369-.611,6.067,1.717,7.353" transform="translate(-77.379 -36.186)" fill="#ddc6c3"/>
        <path id="Trazado_717083" data-name="Trazado 717083" d="M62.581,332.95l8.1,3.746c2.391,1.106,5.261-1.2,5.888-3.753a5.626,5.626,0,0,0-3.343-6.611l-8.1-3.746c-2.391-1.106-5.262,1.2-5.888,3.753a5.626,5.626,0,0,0,3.343,6.611" transform="translate(-72.197 -33.448)" fill="#ddc6c3"/>
        <path id="Trazado_717084" data-name="Trazado 717084" d="M76.765,317.21l2.049,1.156a4.6,4.6,0,0,0,3.688.541,5,5,0,0,0,2.86-2.469,6.008,6.008,0,0,0,.483-4.141,5.325,5.325,0,0,0-2.2-3.212L81.6,307.929a4.6,4.6,0,0,0-3.688-.542,5,5,0,0,0-2.86,2.47A6.008,6.008,0,0,0,74.566,314a5.321,5.321,0,0,0,2.2,3.212" transform="translate(-75.299 -31.874)" fill="#ddc6c3"/>
      </g>
    </g>
  </g>
</svg>
