<svg xmlns="http://www.w3.org/2000/svg" xmlns:xlink="http://www.w3.org/1999/xlink" width="165" height="166" viewBox="0 0 165 166">
  <defs>
    <clipPath id="clip-path">
      <rect id="Rectángulo_353294" data-name="Rectángulo 353294" width="152.34" height="152.275" fill="none"/>
    </clipPath>
  </defs>
  <g id="Grupo_1003274" data-name="Grupo 1003274" transform="translate(-1028.999 -1141.999)">
    <ellipse id="Elipse_5721" data-name="Elipse 5721" cx="82.5" cy="83" rx="82.5" ry="83" transform="translate(1028.999 1141.999)" fill="#ffe58e"/>
    <g id="Grupo_1003172" data-name="Grupo 1003172" transform="translate(1035.83 1152.734)">
      <g id="Grupo_1003171" data-name="Grupo 1003171" clip-path="url(#clip-path)">
        <path id="Trazado_715771" data-name="Trazado 715771" d="M127.371,64.963c-1.45-1.643-2.7-2.933-3.8-4.338-1.353-1.729-2.61-2.191-4.014-.1a6.255,6.255,0,0,1-.831.854Q86.016,94.1,53.305,126.822c-3.2,3.2-3.734,3.192-6.951-.026-2.908-2.909-2.908-2.909-5.915.109l-.421.423c-5.215,5.235-5.283,5.308-10.692.266-1.445-1.347-1.962-.413-2.782.408Q15.893,138.666,5.254,149.344c-1.312,1.324-2.129,2.567-4.154.489-1.847-1.9-1.105-2.683.31-4.079,7.155-7.055,14.195-14.228,21.37-21.263,1.346-1.32,1.463-2.012.05-3.387-4.794-4.665-4.734-4.727-.042-9.409,4.069-4.059,4.133-4.121.217-8.2-1.992-2.076-1.307-3.583.419-5.3Q37.291,84.415,51.091,70.564q19.634-19.625,39.3-39.215c1.518-1.5,2.015-2.515.039-3.872-.646-.443-1.079-1.193-1.72-1.646-2.228-1.573-2.126-2.915-.05-4.681,1.249-1.063,1.813-.964,2.846.114,3.1,3.229,6.335,6.326,9.438,9.552,1.032,1.073,1.684,1.13,2.777.023Q114.521,19.9,125.466,9.1c1.3-1.275,1.121-2.037-.143-3-.47-.359-.8-.9-1.284-1.242-1.693-1.2-1.6-2.143-.106-3.666,1.562-1.592,2.345-1.591,3.912.019q10.828,11.12,21.946,21.954c1.54,1.5,1.41,2.315-.032,3.715-1.34,1.3-2.1,1.836-3.638.131-2.732-3.037-2.861-2.922-5.676-.108-6.616,6.612-13.162,13.294-19.895,19.784-1.691,1.63-1.448,2.418.1,3.832,2.864,2.613,5.418,5.568,8.312,8.143,1.831,1.628,2.15,2.808.02,4.3a10.9,10.9,0,0,0-1.612,2m-87.46,47.929c2.563,2.632,5.251,5.156,7.645,7.932,1.668,1.934,2.622,1.985,4.517.076q31.757-32,63.707-63.811a13.709,13.709,0,0,1,1.061-1.048c.936-.747.82-1.378-.011-2.17-2.946-2.806-5.844-5.664-8.759-8.5Q102.549,39.73,97.03,34.09c-.589-.6-1.126-1.145-1.952-.276-1.779,1.872-4.338,3.44-5.136,5.654-.551,1.525,2.459,2.925,3.752,4.491a4.677,4.677,0,0,0,.421.422c1.911,1.787-.424,2.261-1.059,3.169-.656.939-1.335,1.864-2.751.443-1.537-1.543-2.772-4.559-4.94-4.062-1.9.436-3.257,3.033-4.977,4.535-1.249,1.09-1.008,1.818.078,2.822,1.9,1.755,3.562,3.779,5.55,5.416,1.876,1.545.7,2.33-.337,3.49-1.2,1.343-2.1,1.79-3.479.145-1.53-1.822-3.464-3.3-4.986-5.133-1.422-1.707-2.407-1.473-3.66.106-1.346,1.7-4.089,2.867-4.153,4.795-.06,1.78,2.477,3.165,4.037,4.5,1.859,1.6.288,2.264-.563,3.17-.93.992-1.709,2.213-3.248.471-1.349-1.526-2.789-4.209-4.454-3.941-1.779.287-3.212,2.717-4.794,4.213a4.591,4.591,0,0,1-.427.416c-1.349.966-1.053,1.8.043,2.817,1.967,1.827,3.722,3.889,5.751,5.639,1.828,1.576.338,2.272-.552,3.224-.955,1.022-1.741,2.18-3.214.431-1.533-1.819-3.473-3.3-4.984-5.134-1.528-1.854-2.522-1.651-4.111.014-4.362,4.569-4.483,4.536-.167,8.925,1.135,1.154,1.282,1.8.106,3.085-1.573,1.718-2.766,2.3-4.343.106a8.491,8.491,0,0,0-2.524-2.514c-3.672-2.043-3.8,2.452-5.9,3.439-.96.452-2.631,1.459-.731,3.129,2.088,1.836,3.989,3.887,5.934,5.88.43.441,1.159.776.839,1.668a3.028,3.028,0,0,1-5.266,1.172q-.634-.633-1.265-1.268c-5.333-5.347-5.333-5.347-10.387.161a1.525,1.525,0,0,1-.212.21c-1.123.825-.814,1.5.075,2.351,3.655,3.5,7.249,7.072,10.866,10.616m99.36-92.715c-.311-.351-.681-.81-1.093-1.225-2.1-2.118-4.275-4.168-6.3-6.357-1.05-1.136-1.687-1.113-2.781,0q-10.79,10.937-21.723,21.733c-1.05,1.038-1.333,1.715-.1,2.848,2.266,2.086,4.439,4.282,6.54,6.535.989,1.061,1.6,1.041,2.614.014,7.275-7.351,14.61-14.642,21.914-21.965.4-.4.977-.712.929-1.58M39.526,120.192c-.413-.51-.747-.992-1.151-1.406-1.313-1.344-2.651-2.664-3.98-3.993-4-4-3.957-3.961-7.771.287-.93,1.037-1.04,1.692,0,2.673,2.014,1.9,3.885,3.951,5.915,5.832.7.646,1.274,2.324,2.513,1.367a16.67,16.67,0,0,0,4.474-4.76" transform="translate(0 0)" fill="#040505"/>
        <path id="Trazado_715772" data-name="Trazado 715772" d="M194.831,178.88c0-6.262.022-12.525-.006-18.787a17.575,17.575,0,0,1,6.364-14.165,3.344,3.344,0,0,0,1.336-3.321c-.246-1.825-1.7-.854-2.6-1a2.808,2.808,0,0,1-2.582-3.088c-.05-3.081-.039-6.163,0-9.244a2.768,2.768,0,0,1,2.953-3.048q12.375-.082,24.752-.011c2.032.01,3.094,1.178,3.111,3.213.024,2.882.006,5.765.012,8.648,0,2.253-.9,3.595-3.363,3.536-.619-.015-1.614-.372-1.746.567-.143,1.007-.578,2.233.487,3.05,6.52,4.992,7.347,11.948,7.188,19.5-.238,11.327-.056,22.662-.065,33.994,0,3.769-.557,4.33-4.289,4.334q-13.718.015-27.436,0c-3.544-.005-4.109-.589-4.116-4.2q-.019-9.991,0-19.98m13.141,14.078c-2.081-.033-4.162-.1-6.241-.081-.612,0-1.337-.292-1.714.681-.974,2.515.217,4.355,2.912,4.309.689-.012,1.377-.117,2.065-.178,6.324.06,12.648.1,18.972.2,1.159.016,1.547-.447,1.536-1.57-.084-8.3-.131-16.606-.19-24.909a100.98,100.98,0,0,0,.054-13.284,10.585,10.585,0,0,0-4.473-8.311c-2.145-1.518-3.308-3.218-3.17-5.811.6-1.757.11-2.576-1.878-2.465a54.981,54.981,0,0,1-6.205,0c-1.991-.114-2.472.715-1.891,2.466.171,2.616-1.011,4.349-3.158,5.858A10.068,10.068,0,0,0,200.432,157c5.443,0,10.756-.018,16.069.007,3.316.016,3.935.658,3.966,4.033.048,5.244.071,10.487.105,15.73-.032,4.16-.1,8.321-.083,12.481.011,2.482-1.116,3.636-3.6,3.616-2.97-.024-5.941.054-8.912.087m7.267-18.008c0-3.582-.078-7.166.033-10.745.054-1.733-.578-2.239-2.242-2.189-3.38.1-6.771.145-10.146-.012-2.138-.1-2.953.425-2.959,2.767-.007,2.36,1.041,2.578,2.881,2.456,1.684-.112,3.394.106,5.07-.057,2.037-.2,2.529.645,2.462,2.542-.06,1.7-.145,2.9-2.357,2.732-2.077-.158-4.178.022-6.265-.042-2.175-.066-1.628,1.5-1.692,2.689-.065,1.215-.181,2.417,1.718,2.325,2.283-.111,4.578.045,6.863-.041,2.232-.084,1.636,1.508,1.659,2.671.024,1.208.465,2.733-1.715,2.642s-4.384.1-6.564-.048c-2.278-.152-1.9,1.329-1.99,2.706-.1,1.564.267,2.374,2.1,2.312,3.677-.125,7.364-.122,11.042,0,1.779.059,2.177-.649,2.133-2.262-.1-3.48-.029-6.964-.029-10.446m-2.184-43.555v-.019c-2.874,0-5.755.113-8.62-.038-2.029-.107-1.978,1.065-1.891,2.424.082,1.277-.531,2.869,1.839,2.826,5.548-.1,11.1-.123,16.649-.014,2.319.045,1.873-1.423,1.912-2.759s.2-2.572-1.863-2.456c-2.667.149-5.35.036-8.026.036" transform="translate(-78.417 -50.79)" fill="#060708"/>
        <path id="Trazado_715773" data-name="Trazado 715773" d="M58.94,135.364c-3.617-3.544-7.211-7.111-10.866-10.616-.889-.853-1.2-1.527-.075-2.351a1.562,1.562,0,0,0,.212-.21c5.054-5.507,5.054-5.507,10.386-.161q.633.635,1.265,1.268a3.028,3.028,0,0,0,5.267-1.172c.32-.892-.409-1.227-.839-1.668-1.945-1.993-3.846-4.044-5.934-5.88-1.9-1.671-.229-2.677.731-3.129,2.1-.988,2.227-5.481,5.9-3.439a8.471,8.471,0,0,1,2.524,2.514c1.576,2.192,2.771,1.611,4.343-.107,1.175-1.284,1.028-1.932-.106-3.086-4.316-4.388-4.2-4.355.167-8.925,1.589-1.664,2.584-1.868,4.111-.013,1.511,1.835,3.451,3.314,4.984,5.134,1.473,1.749,2.259.591,3.213-.431.89-.952,2.38-1.647.552-3.224-2.029-1.749-3.784-3.812-5.751-5.639-1.1-1.018-1.392-1.85-.043-2.817A4.382,4.382,0,0,0,79.408,91c1.583-1.5,3.016-3.926,4.794-4.212,1.665-.269,3.1,2.414,4.454,3.94,1.539,1.741,2.318.521,3.249-.471.851-.906,2.421-1.576.563-3.17-1.561-1.34-4.1-2.725-4.037-4.5.065-1.928,2.808-3.1,4.153-4.8,1.253-1.579,2.238-1.813,3.66-.106,1.522,1.828,3.456,3.311,4.986,5.132,1.383,1.646,2.277,1.2,3.48-.144,1.039-1.16,2.212-1.945.336-3.491-1.987-1.637-3.652-3.661-5.55-5.416-1.086-1-1.326-1.732-.078-2.823,1.72-1.5,3.077-4.1,4.977-4.534,2.168-.5,3.4,2.519,4.941,4.062,1.415,1.421,2.095.5,2.751-.443.634-.908,2.97-1.383,1.059-3.169a4.542,4.542,0,0,1-.422-.422c-1.292-1.565-4.3-2.965-3.752-4.49.8-2.213,3.358-3.782,5.137-5.654.825-.869,1.362-.327,1.952.276q5.515,5.644,11.041,11.277c-.886.788-1.816,1.532-2.653,2.368q-31.423,31.4-62.837,62.808c-.836.836-1.777,1.567-2.669,2.348" transform="translate(-19.028 -22.473)" fill="#84cad4"/>
        <path id="Trazado_715774" data-name="Trazado 715774" d="M66.8,143.452c.892-.78,1.833-1.512,2.669-2.348q31.425-31.4,62.837-62.808c.837-.837,1.767-1.581,2.653-2.368,2.916,2.839,5.813,5.7,8.76,8.5.831.791.947,1.423.011,2.17a13.4,13.4,0,0,0-1.062,1.048q-31.88,31.88-63.707,63.81c-1.895,1.91-2.849,1.858-4.517-.075-2.395-2.777-5.082-5.3-7.645-7.932" transform="translate(-26.886 -30.561)" fill="#6dc0d2"/>
        <path id="Trazado_715775" data-name="Trazado 715775" d="M210.989,28.092c.048.868-.533,1.183-.929,1.58-7.3,7.322-14.639,14.614-21.914,21.965-1.016,1.027-1.625,1.047-2.614-.015-2.1-2.253-4.274-4.449-6.54-6.535-1.23-1.132-.948-1.809.1-2.848Q190.015,31.431,200.817,20.5c1.093-1.108,1.73-1.132,2.78,0,2.024,2.189,4.2,4.239,6.3,6.357.413.416.782.875,1.093,1.225" transform="translate(-71.718 -7.915)" fill="#4295cd"/>
        <path id="Trazado_715776" data-name="Trazado 715776" d="M56.963,195.534a16.67,16.67,0,0,1-4.474,4.76c-1.239.957-1.816-.721-2.513-1.367-2.03-1.881-3.9-3.933-5.915-5.832-1.04-.981-.93-1.636,0-2.673,3.814-4.248,3.776-4.282,7.771-.287,1.329,1.329,2.667,2.648,3.98,3.992.4.413.737.9,1.151,1.406" transform="translate(-17.437 -75.342)" fill="#204f7c"/>
        <path id="Trazado_715777" data-name="Trazado 715777" d="M221.5,156c-.138,2.593,1.025,4.293,3.17,5.811a10.585,10.585,0,0,1,4.473,8.311,100.965,100.965,0,0,1-.053,13.283c-1.115.01-1.237,1.044-1.787,1.665-1.052,1.185-1.119,3.156-2.952,3.7-.034-5.244-.058-10.487-.106-15.73-.031-3.375-.65-4.018-3.966-4.033-5.313-.025-10.626-.007-16.069-.007a10.063,10.063,0,0,1,4.159-7.147c2.147-1.509,3.329-3.242,3.158-5.858H221.5" transform="translate(-82.194 -62.789)" fill="#dcdcdc"/>
        <path id="Trazado_715778" data-name="Trazado 715778" d="M218.674,199.069c0,3.482-.066,6.966.029,10.446.044,1.613-.353,2.321-2.132,2.262-3.677-.122-7.365-.125-11.042,0-1.831.062-2.2-.747-2.1-2.312.085-1.377-.289-2.858,1.99-2.706,2.179.146,4.379-.044,6.564.048s1.739-1.434,1.715-2.641c-.023-1.163.573-2.755-1.659-2.671-2.285.086-4.58-.07-6.863.041-1.9.092-1.783-1.111-1.718-2.325.063-1.188-.483-2.755,1.692-2.689,2.087.064,4.188-.116,6.265.042,2.211.169,2.3-1.027,2.356-2.732.066-1.9-.425-2.74-2.462-2.541-1.675.163-3.385-.056-5.07.056-1.84.122-2.888-.1-2.881-2.456.007-2.342.822-2.867,2.959-2.767,3.376.157,6.766.114,10.146.013,1.663-.05,2.3.456,2.242,2.189-.112,3.578-.033,7.162-.033,10.744" transform="translate(-81.852 -74.91)" fill="#4295cd"/>
        <path id="Trazado_715779" data-name="Trazado 715779" d="M227.421,207.234c1.834-.548,1.9-2.519,2.952-3.7.551-.621.673-1.655,1.787-1.665.059,8.3.106,16.606.19,24.91.011,1.122-.378,1.586-1.536,1.569-6.324-.09-12.648-.135-18.973-.2.08-2.152,2.846-2.612,2.98-4.731,2.971-.033,5.942-.111,8.912-.087,2.489.02,3.616-1.134,3.6-3.617-.019-4.16.051-8.32.084-12.48" transform="translate(-85.266 -81.251)" fill="#d0d0d0"/>
        <path id="Trazado_715780" data-name="Trazado 715780" d="M218.234,134.859c2.676,0,5.358.113,8.026-.036,2.068-.116,1.9,1.133,1.863,2.456s.407,2.8-1.912,2.759c-5.548-.109-11.1-.087-16.649.014-2.37.043-1.757-1.548-1.839-2.826-.087-1.359-.138-2.531,1.891-2.424,2.866.151,5.746.038,8.62.038v.019" transform="translate(-83.595 -54.255)" fill="#3d8bc2"/>
        <path id="Trazado_715781" data-name="Trazado 715781" d="M211.243,237.856c-.133,2.119-2.9,2.579-2.98,4.731-.688.062-1.375.166-2.064.178-2.695.046-3.886-1.793-2.912-4.309.377-.973,1.1-.676,1.714-.681,2.08-.014,4.161.048,6.241.081" transform="translate(-81.687 -95.689)" fill="#dfdfdf"/>
        <path id="Trazado_715782" data-name="Trazado 715782" d="M226.273,154.33H216.3c-.581-1.751-.1-2.581,1.891-2.466a55.122,55.122,0,0,0,6.205,0c1.988-.111,2.48.708,1.877,2.465" transform="translate(-86.968 -61.121)" fill="#bababa"/>
      </g>
    </g>
  </g>
</svg>
