<svg id="Grupo_1003186" data-name="Grupo 1003186" xmlns="http://www.w3.org/2000/svg" xmlns:xlink="http://www.w3.org/1999/xlink" width="184.008" height="184.007" viewBox="0 0 184.008 184.007">
  <defs>
    <clipPath id="clip-path">
      <rect id="Rectángulo_353317" data-name="Rectángulo 353317" width="184.008" height="184.007" fill="none"/>
    </clipPath>
  </defs>
  <g id="Grupo_1003185" data-name="Grupo 1003185" clip-path="url(#clip-path)">
    <path id="Trazado_715895" data-name="Trazado 715895" d="M77.228,0q21.506,0,43.012,0C130.5.022,136.5,6.076,136.526,16.391c.016,7.415.126,14.833-.065,22.243-.065,2.545.865,2.739,3.084,3.008,5.538.672,9.655-1.066,13.1-5.449a85.951,85.951,0,0,1,8.066-8.173c5.754-5.575,13.832-5.729,19.247-.418,5.5,5.4,5.369,13.605-.342,19.511-1.8,1.866-3.582,3.771-5.527,5.481-1.59,1.4-1.3,2.206.312,3.291,2.515,1.7,4.626,4.166,8.173,3.471,1.545-.3,1.421.879,1.421,1.876q0,12.976.009,25.952c0,1.1-.057,1.942-1.53,1.831-5.769-.436-10.772,2.347-15.986,4.059-9.248,3.037-17.956,2.306-26.356-2.59-3.18-1.853-3.594-1.589-3.6,2.261-.019,17.055.006,34.109-.013,51.163-.011,10.254-6.075,16.281-16.382,16.288-19.9.015-39.8.047-59.7-.051-2.412-.012-3.424.661-4.562,2.943-2.86,5.739-2.473,11.73-2.382,17.737.033,2.18-.2,3.219-2.884,3.182-11.987-.171-23.977-.151-35.965-.01-2.395.028-2.994-.705-2.757-2.907.823-7.666-1.077-14.733-3.971-21.854-4.07-10.015-4.358-20.959-6.377-31.482-.977-5.09-2.028-10.2-1.311-15.435C1.291,104.6,4.19,97.553,10.247,92.635c6.243-5.07,8.025-10.97,7.789-18.86-.571-19.138-.2-38.3-.181-57.46C17.864,6.04,23.909.02,34.217.009Q55.722-.016,77.228,0M35.658,112.295l.654-.018c.433-1.5.8-3.031,1.311-4.509a9.815,9.815,0,0,1,18.983.92,29.3,29.3,0,0,1,.61,6.613c-.05,2.739.989,3.454,3.717,3.431,16.428-.14,32.859-.07,49.289-.07,8.877,0,8.876,0,8.5-8.971a2.57,2.57,0,0,1,0-.37c.188-1.78-.486-2.153-2.119-1.475-3.753,1.561-7.514,3.117-11.34,4.486a7.217,7.217,0,0,1-7.836-1.9c-2.209-2.152-3.261-4.928-2.074-7.773,2.993-7.18,4.327-15.312,11.135-20.43,1.308-.983,1.36-1.787.216-3.256-4.244-5.447-3.766-10.9,1.135-15.894,3.027-3.087,6.1-6.123,9.18-9.16a4.458,4.458,0,0,0,1.743-3.448q-.151-9.261,0-18.526c.026-1.751-.465-2.312-2.268-2.308q-39.283.08-78.565,0c-1.754,0-2.307.473-2.3,2.27q.078,40.192.036,80.384m89-66.576c4.654-1.385,6.456-3.827,6.064-8.64-.55-6.748-.131-13.575-.141-20.369-.011-7.542-3.255-10.761-10.864-10.763q-42.434-.009-84.867,0c-7.871,0-11.06,3.15-11.061,10.936q-.007,57.251,0,114.5a9.61,9.61,0,0,0,.132,2.943c.665,2,2.352,3.093,3.889,1.383,2.58-2.871,3.447-6.755,4.817-10.308.74-1.918-1.364-2.385-2.014-3.6a8.74,8.74,0,0,1-.914-4.279q.021-43.355.02-86.709c0-4.861,2.163-7.059,6.968-7.063q40.581-.037,81.161,0c4.586.005,6.749,2.239,6.8,6.867.05,4.938.011,9.877.011,15.1M17.853,93.478C7.83,101.741,4.238,111.593,6.794,123.637c.589,2.773.948,5.594,1.446,8.386,1.9,10.659,2.845,21.543,7.57,31.533.709,1.5,1.2,2.669,3.33,2.635,9.016-.145,18.037-.114,27.054-.018,1.8.019,2.557-.632,3.205-2.241,2.662-6.6,4.408-13.407,4-20.54-.606-10.723-1.5-21.43-2.307-32.142-.174-2.31-1.195-4.136-3.7-4.37s-3.852,1.254-4.382,3.6c-.217.961-.494,1.909-.72,2.868-1.957,8.3-4.369,16.442-8.254,24.067a8.548,8.548,0,0,1-9.5,4.821c-4-.906-6.555-4.2-6.684-8.651-.039-1.357-.007-2.717-.007-4.076V93.478m40.9,41c2.117-2.378,4.113-4.035,7.353-3.986,7.41.113,14.824-.019,22.235.055,4.852.049,7.484,3.4,6.463,8.121a12.028,12.028,0,0,1-4.076,6.883c-4.925,4.12-22.287,4.037-27.184-.074-1.644-1.38-2.534-3.357-4.114-5.52-.145,4.2.332,7.706-.528,11.082-.7,2.733.229,3.286,2.851,3.273,19.518-.1,39.036-.042,58.554-.06,6.821-.007,10.265-3.439,10.276-10.236q.033-22.233-.023-44.467c0-.864.559-1.96-.371-2.526-4.776,2.641-6.236,6.671-5.581,11.828a61.022,61.022,0,0,1,.056,7.775c-.014,6.079-1.886,7.969-7.941,7.972-16.43.007-32.86-.03-49.29.032-3.058.011-7.437-1.383-8.827.594-1.435,2.042-.02,6.085.148,9.252M155.427,71.2a37.026,37.026,0,0,0,4.67-.031c2.684-.415,3.225.712,3.233,3.24.007,2.439-.9,2.566-2.972,2.808-8.682,1.012-16.2-.761-22.351-7.459-2.55-2.777-6.192-3.979-9.973-4.428-2.688-.319-5.05.256-6.039,3.066-1.006,2.86.583,4.638,2.936,6.031,6.263,3.709,12.456,7.54,18.742,11.208a22.864,22.864,0,0,0,18.2,2.555c4.863-1.354,9.606-3.138,14.43-4.643,1.429-.446,1.826-1.215,1.794-2.666-.1-4.447-.013-8.9-.054-13.346-.007-.881.276-1.726-.946-2.459a64.83,64.83,0,0,1-7.168-5.217c-1.314-1.058-2.146-1.017-3.347.236-3.4,3.55-6.96,6.952-11.155,11.1m-19.6-10a58.84,58.84,0,0,1,10.464,7.533c1.2,1,2.056,1.378,3.378.039,8.665-8.779,17.466-17.424,26.1-26.235a7.255,7.255,0,0,0,.087-10.6c-3.055-3.087-7.461-3.094-10.881.206-4.527,4.368-8.915,8.878-13.367,13.323-5.211,5.2-10.426,10.4-15.778,15.737M119.3,77.953c-.5.443-1.056.882-1.554,1.374-2.1,2.075-4.176,4.166-6.263,6.252-3.424,3.421-3.444,3.441-.018,6.814,2.352,2.315,4.622,6.167,7.2,6.4,2.7.246,4.844-3.958,7.145-6.288,2.122-2.15,6.2-4.175,5.7-6.6-.43-2.08-4.693-3.381-7.28-5-1.556-.972-3.145-1.89-4.921-2.954M32.7,177.99c4.181,0,8.369-.146,12.542.053,2.6.125,2.285-1.4,2.294-3.023.009-1.639.262-3.056-2.31-3.009q-12.539.229-25.085,0c-2.594-.047-2.284,1.408-2.293,3.026-.009,1.639-.267,3.13,2.312,3.006,4.172-.2,8.36-.053,12.542-.053M141.111,47.834c-5.412-.635-9.036-.1-12.043,2.7-6.141,5.722-12.047,11.7-17.907,17.717a4.778,4.778,0,0,0-.343,6.464c.436.624.963,1.783,1.95,1.06,1.887-1.384,3.3-2.853,3.123-5.742-.334-5.363,3.707-10.426,8.91-10.4,4.224.02,6.511-2.044,8.991-4.643,2.215-2.321,4.586-4.5,7.318-7.153M65.366,136.462c.379,3.678,2.277,5.7,5.643,5.87,4.169.214,8.36.137,12.535.01a5.621,5.621,0,0,0,5.065-3.7c.665-1.463.562-2.223-1.367-2.206-7.233.068-14.467.027-21.876.027m47.507-33.482L104.75,94.9c-1.09,2.716-2.189,5.551-3.371,8.352-.468,1.11-.675,2.1.342,2.992.876.768,1.772.5,2.731.106,2.707-1.121,5.438-2.181,8.42-3.369" transform="translate(0 0)" fill="#020202"/>
    <path id="Trazado_715896" data-name="Trazado 715896" d="M48.034,122.593Q48.034,82.4,48,42.21c0-1.8.549-2.273,2.3-2.27q39.283.075,78.565,0c1.8,0,2.295.557,2.268,2.307q-.14,9.262,0,18.526A4.458,4.458,0,0,1,129.4,64.22c-3.075,3.038-6.153,6.074-9.18,9.16-4.9,5-5.378,10.447-1.135,15.895,1.144,1.469,1.092,2.272-.216,3.255-6.808,5.118-8.142,13.25-11.135,20.43-1.187,2.845-.134,5.622,2.074,7.773a7.216,7.216,0,0,0,7.836,1.9c3.826-1.369,7.587-2.926,11.34-4.486,1.633-.678,2.307-.306,2.119,1.475a2.568,2.568,0,0,0,0,.37c.375,8.971.376,8.971-8.5,8.971-16.43,0-32.86-.071-49.289.07-2.727.023-3.767-.692-3.717-3.431a29.3,29.3,0,0,0-.61-6.613A9.815,9.815,0,0,0,50,118.067c-.51,1.478-.877,3-1.311,4.509l-.654.018M89.939,45.9c-11.112,0-22.223.05-33.333-.045-2.065-.018-2.767.518-2.688,2.647.16,4.314.128,8.641.01,12.959-.05,1.8.549,2.274,2.3,2.27q33.333-.079,66.667,0c1.747,0,2.36-.457,2.307-2.265-.121-4.194-.189-8.4.019-12.587.122-2.459-.669-3.064-3.064-3.035-10.739.128-21.481.056-32.221.056m.73,29.662c5.673,0,11.352-.15,17.017.068,2.553.1,2.718-1.006,2.7-3.023-.013-1.976-.1-3.082-2.68-3.044q-16.646.242-33.3,0c-2.545-.036-2.716,1.006-2.7,3.023.013,1.976.093,3.152,2.682,3.044,5.417-.226,10.85-.068,16.276-.068M90.941,99.3c5.551,0,11.1-.134,16.648.062,2.394.085,2.945-.728,2.794-2.922-.124-1.8.171-3.187-2.576-3.144q-16.831.263-33.668.005c-2.934-.044-2.239,1.67-2.4,3.292-.2,1.987.32,2.825,2.554,2.759,5.545-.163,11.1-.053,16.648-.053m-2.862,11.865c4.685,0,9.377-.158,14.052.062,2.67.125,2.262-1.441,2.275-3.024.013-1.6.358-3.07-2.269-3.027q-14.05.228-28.106,0c-2.662-.047-2.261,1.444-2.274,3.027-.013,1.6-.364,3.139,2.27,3.024,4.676-.2,9.367-.057,14.051-.057m-.294,11.866c4.685,0,9.374-.114,14.053.05,2.18.077,2.805-.693,2.586-2.722-.172-1.6.594-3.378-2.362-3.323-9.366.174-18.739.156-28.107.007-2.719-.043-2.123,1.579-2.2,3.1-.085,1.7-.186,3.066,2.348,2.95,4.552-.208,9.12-.059,13.682-.059m-2.875-35.6c3.82,0,7.646-.138,11.457.05,2.433.12,2.194-1.331,2.082-2.808-.1-1.391.822-3.273-2.038-3.219q-11.271.213-22.549-.005c-2.424-.047-2.195,1.332-2.082,2.811.107,1.39-.825,3.351,2.041,3.214,3.688-.176,7.392-.043,11.089-.043m22.147-.062c2.14.345,3.626.189,3.344-2.661-.192-1.947.1-3.585-2.795-3.279-1.946.206-3.612-.091-3.269,2.8.224,1.891-.219,3.907,2.72,3.141" transform="translate(-12.376 -10.298)" fill="#68d5f2"/>
    <path id="Trazado_715897" data-name="Trazado 715897" d="M132.913,47.784c0-5.225.039-10.165-.011-15.1-.047-4.628-2.21-6.862-6.8-6.866q-40.581-.045-81.161,0c-4.805,0-6.964,2.2-6.968,7.062q-.03,43.356-.021,86.71a8.741,8.741,0,0,0,.914,4.279c.649,1.219,2.753,1.685,2.013,3.6-1.37,3.553-2.236,7.437-4.817,10.309-1.537,1.709-3.224.614-3.89-1.384a9.632,9.632,0,0,1-.132-2.943q-.007-57.25,0-114.5c0-7.786,3.189-10.936,11.061-10.936q42.433-.007,84.867,0c7.609,0,10.853,3.22,10.864,10.763.01,6.794-.409,13.621.141,20.369.392,4.814-1.41,7.255-6.064,8.64M85.644,13.94c-3.213,0-6.437.159-9.636-.052-2.439-.16-2.569,1.1-2.451,2.908.1,1.534-.475,3.194,2.228,3.126q9.634-.244,19.276,0c2.662.069,2.192-1.521,2.263-3.093.079-1.757.071-3.112-2.415-2.941-3.075.211-6.175.05-9.265.05m35.409,2.837c-.3-1.678-1.213-2.8-2.94-2.787a2.723,2.723,0,0,0-2.949,3.056,2.684,2.684,0,0,0,2.869,2.77c1.91,0,2.846-1.2,3.019-3.039m11.869.071c-.266-1.7-1.162-2.834-2.883-2.857a2.722,2.722,0,0,0-3.008,3,2.685,2.685,0,0,0,2.812,2.828c1.912.046,2.865-1.151,3.079-2.968" transform="translate(-8.251 -2.065)" fill="#959ea9"/>
    <path id="Trazado_715898" data-name="Trazado 715898" d="M19.938,125.956v36.031c0,1.359-.032,2.719.007,4.076.128,4.447,2.689,7.745,6.683,8.651a8.546,8.546,0,0,0,9.5-4.82c3.886-7.626,6.3-15.772,8.254-24.068.226-.959.5-1.907.72-2.868.53-2.346,1.889-3.831,4.382-3.6s3.528,2.059,3.7,4.37c.8,10.712,1.7,21.419,2.307,32.141.4,7.133-1.343,13.936-4,20.54-.649,1.61-1.406,2.261-3.205,2.241-9.017-.1-18.038-.127-27.054.018-2.133.034-2.621-1.133-3.331-2.634-4.725-9.989-5.67-20.874-7.57-31.533-.5-2.793-.857-5.614-1.445-8.387-2.556-12.044,1.036-21.9,11.059-30.158" transform="translate(-2.085 -32.477)" fill="#edcdb2"/>
    <path id="Trazado_715899" data-name="Trazado 715899" d="M78.891,168.189c-.168-3.168-1.582-7.211-.148-9.252,1.39-1.978,5.77-.583,8.827-.594,16.43-.062,32.86-.024,49.29-.032,6.055,0,7.927-1.892,7.941-7.972a61.021,61.021,0,0,0-.056-7.775c-.655-5.157.805-9.187,5.581-11.828.93.566.369,1.662.371,2.526q.062,22.233.023,44.467c-.01,6.8-3.455,10.229-10.276,10.236-19.518.019-39.036-.039-58.555.06-2.621.013-3.546-.54-2.851-3.273.86-3.376.382-6.88.528-11.082,1.58,2.163,2.471,4.14,4.114,5.52,4.9,4.112,22.259,4.195,27.184.074a12.028,12.028,0,0,0,4.076-6.883c1.02-4.724-1.611-8.072-6.463-8.121-7.411-.074-14.824.058-22.235-.055-3.239-.049-5.236,1.608-7.353,3.986" transform="translate(-20.139 -33.71)" fill="#959ea9"/>
    <path id="Trazado_715900" data-name="Trazado 715900" d="M197.7,91.742c4.2-4.152,7.753-7.555,11.155-11.1,1.2-1.254,2.033-1.294,3.348-.235a64.848,64.848,0,0,0,7.168,5.217c1.222.733.938,1.577.946,2.458.04,4.448-.044,8.9.054,13.346.032,1.452-.366,2.221-1.794,2.666-4.824,1.505-9.567,3.288-14.43,4.644a22.87,22.87,0,0,1-18.2-2.555c-6.287-3.668-12.479-7.5-18.742-11.209-2.353-1.393-3.942-3.171-2.936-6.031.988-2.809,3.351-3.384,6.039-3.065,3.781.449,7.423,1.65,9.973,4.428,6.148,6.7,13.669,8.471,22.351,7.459,2.071-.241,2.98-.368,2.972-2.807-.008-2.528-.548-3.656-3.232-3.241a37.036,37.036,0,0,1-4.671.031" transform="translate(-42.278 -20.537)" fill="#ecccb1"/>
    <path id="Trazado_715901" data-name="Trazado 715901" d="M183.02,71.5c5.353-5.338,10.568-10.536,15.778-15.737,4.452-4.445,8.841-8.956,13.367-13.323,3.42-3.3,7.825-3.293,10.881-.206a7.255,7.255,0,0,1-.087,10.6c-8.632,8.811-17.432,17.455-26.1,26.234-1.323,1.34-2.173.966-3.378-.038A58.775,58.775,0,0,0,183.02,71.5" transform="translate(-47.191 -10.3)" fill="#b0d87c"/>
    <path id="Trazado_715902" data-name="Trazado 715902" d="M157.143,105.036c1.776,1.063,3.366,1.982,4.922,2.955,2.586,1.616,6.849,2.917,7.28,5,.5,2.429-3.574,4.454-5.7,6.6-2.3,2.33-4.449,6.535-7.145,6.288-2.574-.234-4.844-4.087-7.2-6.4-3.427-3.372-3.406-3.392.018-6.813,2.086-2.085,4.166-4.178,6.263-6.253.5-.493,1.049-.931,1.553-1.374" transform="translate(-37.839 -27.083)" fill="#afd77b"/>
    <path id="Trazado_715903" data-name="Trazado 715903" d="M38.892,237.752c-4.181,0-8.37-.146-12.542.054-2.579.123-2.32-1.368-2.311-3.006.008-1.618-.3-3.073,2.293-3.026q12.539.228,25.086,0c2.572-.047,2.318,1.37,2.31,3.009-.009,1.618.307,3.147-2.294,3.023-4.172-.2-8.36-.053-12.542-.053" transform="translate(-6.196 -59.762)" fill="#ee7384"/>
    <path id="Trazado_715904" data-name="Trazado 715904" d="M179.233,64.369c-2.733,2.658-5.1,4.831-7.319,7.153-2.48,2.6-4.766,4.663-8.991,4.643-5.2-.025-9.243,5.038-8.91,10.4.18,2.89-1.235,4.359-3.123,5.743-.986.724-1.515-.436-1.95-1.06a4.779,4.779,0,0,1,.342-6.464c5.86-6.014,11.767-11.995,17.908-17.717,3.006-2.8,6.631-3.333,12.043-2.7" transform="translate(-38.122 -16.535)" fill="#e5c6ab"/>
    <path id="Trazado_715905" data-name="Trazado 715905" d="M88.076,183.864c7.41,0,14.643.04,21.876-.026,1.929-.019,2.032.742,1.367,2.2a5.621,5.621,0,0,1-5.064,3.7c-4.176.128-8.367.2-12.536-.01-3.366-.173-5.263-2.192-5.643-5.87" transform="translate(-22.71 -47.402)" fill="#e1e3e7"/>
    <path id="Trazado_715906" data-name="Trazado 715906" d="M147.961,135.951c-2.981,1.187-5.713,2.248-8.42,3.369-.96.4-1.855.662-2.731-.106-1.017-.89-.81-1.882-.342-2.992,1.182-2.8,2.281-5.636,3.371-8.352l8.122,8.082" transform="translate(-35.088 -32.971)" fill="#c79871"/>
    <path id="Trazado_715907" data-name="Trazado 715907" d="M91.993,47.957c10.741,0,21.482.073,32.222-.056,2.394-.029,3.185.575,3.063,3.034-.208,4.187-.14,8.394-.019,12.588.052,1.808-.561,2.269-2.308,2.265q-33.333-.079-66.667,0c-1.754,0-2.352-.469-2.3-2.27.119-4.317.151-8.644-.01-12.958-.079-2.13.624-2.665,2.688-2.647,11.111.095,22.222.045,33.333.045m-.364,11.865c9,0,18.005-.1,27,.066,2.545.048,2.705-1.027,2.715-3.04.01-2.042-.217-3.039-2.73-3.022q-27,.178-54.01,0c-2.54-.017-2.7,1.026-2.713,3.038-.01,2.042.212,3.071,2.731,3.024,9-.167,18-.065,27-.065" transform="translate(-14.431 -12.351)"/>
    <path id="Trazado_715908" data-name="Trazado 715908" d="M98.906,85.86c-5.427,0-10.859-.157-16.276.068-2.589.108-2.669-1.067-2.682-3.044-.014-2.016.157-3.058,2.7-3.023q16.645.238,33.3,0c2.58-.037,2.667,1.068,2.681,3.045.014,2.016-.151,3.12-2.7,3.022-5.665-.217-11.344-.068-17.017-.068" transform="translate(-20.614 -20.592)"/>
    <path id="Trazado_715909" data-name="Trazado 715909" d="M99.176,117.836c-5.55,0-11.1-.109-16.649.053-2.233.065-2.75-.773-2.554-2.76.161-1.622-.534-3.336,2.4-3.291q16.831.252,33.668-.005c2.747-.043,2.451,1.342,2.575,3.143.151,2.194-.4,3.007-2.793,2.923-5.543-.2-11.1-.062-16.648-.062" transform="translate(-20.611 -28.836)"/>
    <path id="Trazado_715910" data-name="Trazado 715910" d="M96.327,133.827c-4.685,0-9.376-.146-14.053.057-2.634.115-2.284-1.423-2.27-3.024.013-1.583-.388-3.073,2.274-3.027q14.05.246,28.108,0c2.625-.043,2.281,1.426,2.268,3.026-.013,1.583.395,3.15-2.276,3.024-4.674-.22-9.367-.062-14.05-.062" transform="translate(-20.623 -32.961)"/>
    <path id="Trazado_715911" data-name="Trazado 715911" d="M96.029,149.816c-4.561,0-9.13-.149-13.682.059-2.535.116-2.433-1.251-2.348-2.95.075-1.516-.52-3.139,2.2-3.1,9.367.148,18.74.166,28.107-.007,2.955-.055,2.189,1.725,2.362,3.323.219,2.029-.406,2.8-2.586,2.722-4.679-.165-9.368-.05-14.053-.05" transform="translate(-20.619 -37.084)"/>
    <path id="Trazado_715912" data-name="Trazado 715912" d="M93.151,101.854c-3.7,0-7.4-.133-11.089.043-2.866.136-1.934-1.824-2.041-3.215-.113-1.479-.342-2.857,2.082-2.811q11.271.218,22.549.005c2.86-.054,1.933,1.827,2.038,3.218.112,1.478.351,2.929-2.082,2.809-3.81-.188-7.637-.05-11.457-.05" transform="translate(-20.617 -24.72)"/>
    <path id="Trazado_715913" data-name="Trazado 715913" d="M126.616,101.772c-2.939.767-2.5-1.25-2.72-3.141-.343-2.89,1.323-2.593,3.269-2.8,2.894-.306,2.6,1.331,2.795,3.279.282,2.851-1.2,3.006-3.344,2.661" transform="translate(-31.935 -24.701)"/>
    <path id="Trazado_715914" data-name="Trazado 715914" d="M100.073,15.978c3.09,0,6.19.16,9.265-.05,2.485-.17,2.494,1.184,2.415,2.942-.071,1.571.4,3.161-2.263,3.092q-9.633-.249-19.276,0c-2.7.068-2.127-1.592-2.228-3.126-.118-1.806.011-3.068,2.451-2.908,3.2.211,6.423.052,9.636.052" transform="translate(-22.68 -4.103)"/>
    <path id="Trazado_715915" data-name="Trazado 715915" d="M149.946,18.856c-.173,1.836-1.11,3.044-3.019,3.039a2.684,2.684,0,0,1-2.869-2.77,2.723,2.723,0,0,1,2.949-3.056c1.726-.012,2.637,1.109,2.94,2.787" transform="translate(-37.144 -4.143)" fill="#090a0a"/>
    <path id="Trazado_715916" data-name="Trazado 715916" d="M165.938,18.927c-.214,1.817-1.167,3.014-3.079,2.968a2.685,2.685,0,0,1-2.812-2.828,2.722,2.722,0,0,1,3.008-3c1.721.024,2.618,1.158,2.883,2.857" transform="translate(-41.268 -4.143)" fill="#090a0a"/>
    <path id="Trazado_715917" data-name="Trazado 715917" d="M93.688,61.881c-9,0-18.005-.1-27,.065-2.519.047-2.741-.982-2.731-3.024.009-2.013.174-3.055,2.713-3.038q27,.181,54.01,0c2.514-.017,2.74.98,2.73,3.021-.01,2.013-.17,3.089-2.715,3.041-9-.17-18-.066-27-.066" transform="translate(-16.49 -14.409)" fill="#ee7384"/>
  </g>
</svg>
