<svg id="Grupo_1003282" data-name="Grupo 1003282" xmlns="http://www.w3.org/2000/svg" xmlns:xlink="http://www.w3.org/1999/xlink" width="158.357" height="656.007" viewBox="0 0 158.357 656.007">
  <defs>
    <clipPath id="clip-path">
      <rect id="Rect치ngulo_353393" data-name="Rect치ngulo 353393" width="158.357" height="656.007" fill="none"/>
    </clipPath>
  </defs>
  <g id="Grupo_1003279" data-name="Grupo 1003279">
    <g id="Grupo_1003278" data-name="Grupo 1003278" clip-path="url(#clip-path)">
      <path id="Trazado_716875" data-name="Trazado 716875" d="M102.626,321.666c-6.717,0-12.187-6.182-12.187-13.782s5.47-13.792,12.187-13.792,12.2,6.187,12.2,13.792-5.47,13.782-12.2,13.782m0-19.191c-2.059,0-3.8,2.479-3.8,5.409s1.741,5.4,3.8,5.4,3.817-2.475,3.817-5.4-1.75-5.409-3.817-5.409" transform="translate(-26.986 -87.754)" fill="#b2b3b8"/>
      <path id="Trazado_716876" data-name="Trazado 716876" d="M105.665,300.97a4.182,4.182,0,0,1-4.18-4.189V280.02a4.185,4.185,0,0,1,8.37,0v16.76a4.184,4.184,0,0,1-4.189,4.189" transform="translate(-30.282 -82.306)" fill="#2e536b"/>
      <path id="Trazado_716877" data-name="Trazado 716877" d="M113.359,66.84c0,6.474-4.6,11.723-10.278,11.723S92.794,73.314,92.794,66.84s4.6-11.727,10.287-11.727,10.278,5.254,10.278,11.727" transform="translate(-27.689 -16.445)" fill="#969696"/>
      <path id="Trazado_716878" data-name="Trazado 716878" d="M97.348,47.483a23.742,23.742,0,1,1,23.737-23.746A23.775,23.775,0,0,1,97.348,47.483m0-39.1a15.357,15.357,0,1,0,15.359,15.351A15.373,15.373,0,0,0,97.348,8.386" transform="translate(-21.965)" fill="#969696"/>
      <path id="Trazado_716879" data-name="Trazado 716879" d="M135.169,211.856c-1.724,10.755-13.583,19.548-26.344,19.548H52.531c-12.77,0-24.577-8.8-26.256-19.562l-5.523-35.5a309.721,309.721,0,0,1-3.04-39.287V91.548c0-10.843,10.446-19.72,23.207-19.72h79.509c12.753,0,23.207,8.877,23.207,19.72v47.832a298.579,298.579,0,0,1-3.146,39.273Z" transform="translate(-5.285 -21.433)" fill="#2e536b"/>
      <path id="Trazado_716880" data-name="Trazado 716880" d="M196.811,95.9c.167,3.5.265,6.769.265,9.58V98.733a17.761,17.761,0,0,0-.265-2.828" transform="translate(-58.726 -28.617)" fill="#cac4c1"/>
      <path id="Trazado_716881" data-name="Trazado 716881" d="M17.711,98.336v9.08c0-3.672.168-8.144.433-12.841a17.107,17.107,0,0,0-.433,3.761" transform="translate(-5.285 -28.22)" fill="#cac4c1"/>
      <path id="Trazado_716882" data-name="Trazado 716882" d="M120.612,198.668H41.1c-11.25,0-20.68-6.9-22.774-15.964.53,9.2,1.5,19.327,2.607,26.45l5.523,35.5c1.679,10.76,13.486,19.562,26.256,19.562h56.294c12.761,0,24.621-8.793,26.344-19.548l5.32-33.2c1.281-7.963,2.386-19.716,2.881-29.689-1.635,9.513-11.321,16.9-22.942,16.9" transform="translate(-5.469 -54.238)" fill="#cac4c1"/>
      <path id="Trazado_716883" data-name="Trazado 716883" d="M197.075,174.863v-6.752c0,2.815-.1,6.094-.265,9.583a17.714,17.714,0,0,0,.265-2.832" transform="translate(-58.726 -50.162)" fill="#cac4c1"/>
      <path id="Trazado_716884" data-name="Trazado 716884" d="M17.711,173.876a17.174,17.174,0,0,0,.433,3.765c-.265-4.7-.433-9.169-.433-12.837Z" transform="translate(-5.285 -49.176)" fill="#cac4c1"/>
      <path id="Trazado_716885" data-name="Trazado 716885" d="M120.428,71.828H40.918c-11.25,0-20.68,6.9-22.774,15.96-.265,4.7-.433,9.169-.433,12.841v36.432c0,3.667.168,8.139.433,12.837,2.094,9.062,11.524,15.964,22.774,15.964h79.509c11.622,0,21.307-7.384,22.942-16.9.168-3.49.265-6.768.265-9.583V98.3c0-2.811-.1-6.084-.265-9.58-1.635-9.513-11.321-16.893-22.942-16.893" transform="translate(-5.285 -21.433)" fill="#aa978f"/>
      <path id="Trazado_716886" data-name="Trazado 716886" d="M135.179,143.661a11.634,11.634,0,0,1-11.595,11.6H50.261a11.635,11.635,0,0,1-11.6-11.6V108.2a11.639,11.639,0,0,1,11.6-11.6h73.323a11.637,11.637,0,0,1,11.595,11.6Z" transform="translate(-11.535 -28.824)" fill="#64e2dc"/>
      <path id="Trazado_716887" data-name="Trazado 716887" d="M122.622,156.561H49.3A13.88,13.88,0,0,1,35.433,142.7v-35.46A13.883,13.883,0,0,1,49.3,93.373h73.323a13.878,13.878,0,0,1,13.857,13.866V142.7a13.875,13.875,0,0,1-13.857,13.862M49.3,97.9a9.35,9.35,0,0,0-9.341,9.341V142.7a9.348,9.348,0,0,0,9.341,9.336h73.323a9.344,9.344,0,0,0,9.332-9.336v-35.46a9.345,9.345,0,0,0-9.332-9.341Z" transform="translate(-10.573 -27.861)" fill="#ff4739"/>
      <path id="Trazado_716888" data-name="Trazado 716888" d="M160.313,160.994H148.824l-2.509,2.545H162.77Z" transform="translate(-43.659 -48.039)" fill="#fcf2d7"/>
      <path id="Trazado_716889" data-name="Trazado 716889" d="M167.021,141.6v12l2.44,2.488V139.122Z" transform="translate(-49.837 -41.512)" fill="#fcf2d7"/>
      <path id="Trazado_716890" data-name="Trazado 716890" d="M167.021,128.467l2.44,2.492V114l-2.44,2.47Z" transform="translate(-49.837 -34.018)" fill="#fcf2d7"/>
      <path id="Trazado_716891" data-name="Trazado 716891" d="M145.659,156.089l2.448-2.488v-12l-2.448-2.483Z" transform="translate(-43.463 -41.512)" fill="#fcf2d7"/>
      <path id="Trazado_716892" data-name="Trazado 716892" d="M148.107,116.475,145.659,114v16.955l2.448-2.492Z" transform="translate(-43.463 -34.017)" fill="#fcf2d7"/>
      <path id="Trazado_716893" data-name="Trazado 716893" d="M160.313,116l2.457-2.545H146.315L148.824,116Z" transform="translate(-43.659 -33.852)" fill="#fcf2d7"/>
      <path id="Trazado_716894" data-name="Trazado 716894" d="M117.066,163.539h16.472l-2.483-2.545H119.532Z" transform="translate(-34.931 -48.039)" fill="#fcf2d7"/>
      <path id="Trazado_716895" data-name="Trazado 716895" d="M137.787,153.6l2.377,2.488V139.122l-2.377,2.483Z" transform="translate(-41.114 -41.512)" fill="#fcf2d7"/>
      <path id="Trazado_716896" data-name="Trazado 716896" d="M137.787,128.467l2.377,2.492V114l-2.377,2.47Z" transform="translate(-41.114 -34.018)" fill="#fcf2d7"/>
      <path id="Trazado_716897" data-name="Trazado 716897" d="M116.424,156.089l2.395-2.488v-12l-2.395-2.483Z" transform="translate(-34.74 -41.512)" fill="#fcf2d7"/>
      <path id="Trazado_716898" data-name="Trazado 716898" d="M118.819,116.475,116.425,114v16.955l2.395-2.492Z" transform="translate(-34.74 -34.017)" fill="#fcf2d7"/>
      <path id="Trazado_716899" data-name="Trazado 716899" d="M131.056,116l2.483-2.545H117.067L119.524,116Z" transform="translate(-34.931 -33.852)" fill="#fcf2d7"/>
      <path id="Trazado_716900" data-name="Trazado 716900" d="M77.49,163.539H93.954l-2.475-2.545H79.947Z" transform="translate(-23.122 -48.039)" fill="#fcf2d7"/>
      <path id="Trazado_716901" data-name="Trazado 716901" d="M98.186,153.6l2.386,2.488V139.122L98.186,141.6Z" transform="translate(-29.297 -41.512)" fill="#fcf2d7"/>
      <path id="Trazado_716902" data-name="Trazado 716902" d="M98.186,128.467l2.386,2.492V114l-2.386,2.47Z" transform="translate(-29.297 -34.018)" fill="#fcf2d7"/>
      <path id="Trazado_716903" data-name="Trazado 716903" d="M76.848,156.089l2.386-2.488v-12l-2.386-2.483Z" transform="translate(-22.931 -41.512)" fill="#fcf2d7"/>
      <path id="Trazado_716904" data-name="Trazado 716904" d="M79.234,116.475,76.848,114v16.955l2.386-2.492Z" transform="translate(-22.93 -34.017)" fill="#fcf2d7"/>
      <path id="Trazado_716905" data-name="Trazado 716905" d="M91.48,116l2.475-2.545H77.491L79.948,116Z" transform="translate(-23.122 -33.852)" fill="#fcf2d7"/>
      <rect id="Rect치ngulo_353392" data-name="Rect치ngulo 353392" width="2.44" height="2.444" transform="translate(74.703 113.056)" fill="#fcf2d7"/>
      <path id="Trazado_716906" data-name="Trazado 716906" d="M68.848,236.8H57.057a3.589,3.589,0,0,1-3.589-3.589V221.422a3.589,3.589,0,0,1,3.589-3.589H68.848a3.589,3.589,0,0,1,3.589,3.589v11.791a3.589,3.589,0,0,1-3.589,3.589" transform="translate(-15.954 -64.999)" fill="#d8140b"/>
      <path id="Trazado_716907" data-name="Trazado 716907" d="M109.854,237.253H98.063a3.589,3.589,0,0,1-3.589-3.589V221.873a3.589,3.589,0,0,1,3.589-3.589h11.791a3.589,3.589,0,0,1,3.589,3.589v11.791a3.589,3.589,0,0,1-3.589,3.589" transform="translate(-28.19 -65.133)" fill="#969696"/>
      <path id="Trazado_716908" data-name="Trazado 716908" d="M151.311,237.253H139.52a3.589,3.589,0,0,1-3.589-3.589V221.873a3.589,3.589,0,0,1,3.589-3.589h11.791a3.589,3.589,0,0,1,3.589,3.589v11.791a3.589,3.589,0,0,1-3.589,3.589" transform="translate(-40.56 -65.133)" fill="#d8140b"/>
      <path id="Trazado_716909" data-name="Trazado 716909" d="M68.848,270.148H57.057a3.589,3.589,0,0,1-3.589-3.589V254.768a3.589,3.589,0,0,1,3.589-3.589H68.848a3.589,3.589,0,0,1,3.589,3.589v11.791a3.589,3.589,0,0,1-3.589,3.589" transform="translate(-15.954 -74.949)" fill="#969696"/>
      <path id="Trazado_716910" data-name="Trazado 716910" d="M109.854,270.6H98.063a3.589,3.589,0,0,1-3.589-3.589V255.219a3.589,3.589,0,0,1,3.589-3.589h11.791a3.589,3.589,0,0,1,3.589,3.589V267.01a3.589,3.589,0,0,1-3.589,3.589" transform="translate(-28.19 -75.083)" fill="#969696"/>
      <path id="Trazado_716911" data-name="Trazado 716911" d="M151.311,270.6H139.52a3.589,3.589,0,0,1-3.589-3.589V255.219a3.589,3.589,0,0,1,3.589-3.589h11.791a3.589,3.589,0,0,1,3.589,3.589V267.01a3.589,3.589,0,0,1-3.589,3.589" transform="translate(-40.56 -75.083)" fill="#969696"/>
    </g>
  </g>
  <text id="x" transform="translate(42.933 164.799)" fill="#fff" font-size="13" font-family="MyriadPro-Regular, Myriad Pro"><tspan x="0" y="0">x</tspan></text>
  <g id="Grupo_1003281" data-name="Grupo 1003281">
    <g id="Grupo_1003280" data-name="Grupo 1003280" clip-path="url(#clip-path)">
      <path id="Trazado_716912" data-name="Trazado 716912" d="M141.96,230.475l4.1,3.642,7.166-7.272" transform="translate(-42.359 -67.688)" fill="none" stroke="#fff" stroke-miterlimit="10" stroke-width="0.973"/>
      <path id="Trazado_716913" data-name="Trazado 716913" d="M102.135,232.7l4.272-3.2,3.948,3.2" transform="translate(-30.476 -68.48)" fill="none" stroke="#fff" stroke-miterlimit="10" stroke-width="0.973"/>
      <path id="Trazado_716914" data-name="Trazado 716914" d="M110.355,262.846l-4.272,3.2-3.948-3.2" transform="translate(-30.476 -78.43)" fill="none" stroke="#fff" stroke-miterlimit="10" stroke-width="0.973"/>
      <path id="Trazado_716915" data-name="Trazado 716915" d="M67.454,267.486l-3.2-4.272,3.2-3.948" transform="translate(-19.174 -77.362)" fill="none" stroke="#fff" stroke-miterlimit="10" stroke-width="0.973"/>
      <path id="Trazado_716916" data-name="Trazado 716916" d="M147.172,259.266l3.2,4.272-3.2,3.948" transform="translate(-43.914 -77.362)" fill="none" stroke="#fff" stroke-miterlimit="10" stroke-width="0.973"/>
      <path id="Trazado_716917" data-name="Trazado 716917" d="M105.484,447.685h0a7.037,7.037,0,0,1-7.016-7.016V330.516a7.016,7.016,0,1,1,14.032,0V440.669a7.037,7.037,0,0,1-7.016,7.016" transform="translate(-29.382 -96.528)" fill="#969696"/>
      <path id="Trazado_716918" data-name="Trazado 716918" d="M105.484,447.685h0a7.037,7.037,0,0,1-7.016-7.016V330.516a7.016,7.016,0,1,1,14.032,0V440.669A7.037,7.037,0,0,1,105.484,447.685Z" transform="translate(-29.382 -96.528)" fill="none" stroke="#969696" stroke-miterlimit="10" stroke-width="1"/>
      <path id="Trazado_716919" data-name="Trazado 716919" d="M25.633,489.829a37.6,37.6,0,0,1,0,6.133c-.563,3.242-2.932,1.391-4.829.3-2.261-1.306-9.355-4.117-9.371-6.429s6.847-4.972,9.077-6.26a12.719,12.719,0,0,1,2.86-1.651c1.559-.324,1.985.493,2.263,1.778.4,1.868,0,4.209,0,6.133a1.331,1.331,0,0,0,2.661,0c0-3.3,1.426-11.543-4.172-11.027-2.088.192-4.339,2.115-6.082,3.121l-4.873,2.813c-1.744,1.006-4.243,1.927-4.861,4.044-.685,2.348.881,3.8,2.7,4.892a126.338,126.338,0,0,0,11.535,6.66c6.837,3.138,5.756-6.86,5.756-10.5a1.331,1.331,0,0,0-2.661,0" transform="translate(-2.429 -142.862)" fill="#969696"/>
      <path id="Trazado_716920" data-name="Trazado 716920" d="M183.72,489.807a37.6,37.6,0,0,1,0-6.133c.563-3.242,2.932-1.391,4.829-.3,2.261,1.306,9.355,4.117,9.371,6.429s-6.847,4.972-9.077,6.26a12.716,12.716,0,0,1-2.86,1.651c-1.559.324-1.985-.493-2.263-1.778-.4-1.868,0-4.209,0-6.133a1.331,1.331,0,0,0-2.661,0c0,3.3-1.426,11.543,4.172,11.027,2.088-.192,4.339-2.115,6.082-3.122l4.873-2.813c1.743-1.006,4.243-1.927,4.861-4.044.686-2.348-.881-3.8-2.7-4.892a126.334,126.334,0,0,0-11.535-6.66c-6.837-3.138-5.756,6.86-5.756,10.5a1.331,1.331,0,0,0,2.661,0" transform="translate(-53.978 -142.839)" fill="#969696"/>
      <path id="Trazado_716921" data-name="Trazado 716921" d="M137.174,498.524H31.23a5.262,5.262,0,1,1,0-10.524H137.174a5.262,5.262,0,1,1,0,10.524" transform="translate(-7.749 -145.613)" fill="#969696"/>
      <path id="Trazado_716922" data-name="Trazado 716922" d="M128.414,442.159c-1.212,5.638-4.122,11.4-4.875,17.942-.537,4.659.426,13.277.42,16.748-.008,4.864-.44,5.51,4.031,6.673.623.162,1.206.321,1.766.486a82.776,82.776,0,0,1,2.97-17.725c2.412-9.09,7.732-12.973,14.595-18.847a81.1,81.1,0,0,0,13.449-14.979,27.8,27.8,0,0,0-6.964,3.113c-2.924,2.014-7.289,6.164-10.025,8.673s-3.975,1.422-3.371.672,1.2-1.621,2.773-3.619a65.746,65.746,0,0,0,3.7-5.612c5.075-6.265,9.732-12.971,14.533-19.372a38.029,38.029,0,0,0-4.808,2.338c-5.416,3.157-16.255,14.529-18.251,18.05-.939,1.655-2.549,5.475-3.392,6.455-.951,1.1-1.071-.786-.892-1.768.338-1.854.966-6.716.966-6.716a18.13,18.13,0,0,0-2.929-11.176,40.2,40.2,0,0,0-1.625,5.864c-.686,2.988-1.13,8.441-2.067,12.8" transform="translate(-36.814 -124.223)" fill="#feb51c"/>
      <path id="Trazado_716923" data-name="Trazado 716923" d="M124.164,425.9c-.779,5.049-.331,8.5-2.265,14.448-.489,1.5-3.164,10.9-3.86,12.261a13.083,13.083,0,0,1-5.1,4.705c-2.226,1.009-4.426.536-4.767,2.3,1.552,4.409,7.476,1.628,7.695,4.841.112,1.636-1.221,11.6-1.036,15,.468,8.628-.051,26.756.518,26.855,3.371.584,6.74,1.177,10.116,1.731,1.41.232-.069-11.671-.284-16.646-.074-1.708-.036-3.378.037-5.04-.56-.164-1.143-.324-1.766-.485-4.471-1.163-4.038-1.81-4.031-6.674,0-3.471-.957-12.088-.421-16.747.753-6.543,3.663-12.3,4.875-17.942.937-4.359,1.381-9.812,2.067-12.8a40.1,40.1,0,0,1,1.626-5.865c-1.555-2.191-3.046-2.282-3.407.061" transform="translate(-32.278 -126.567)" fill="#f4a00b"/>
      <path id="Trazado_716924" data-name="Trazado 716924" d="M139.477,442.071c.843-.979,2.454-4.8,3.392-6.455,2-3.521,12.836-14.893,18.251-18.05a38.135,38.135,0,0,1,4.808-2.338c.2-.271.4-.549.608-.819.517-.685-.008-1.961-.906-1.692-12.29,3.684-23.256,16.191-26.078,20.869,0,0-.628,4.862-.967,6.716-.18.982-.06,2.872.892,1.768" transform="translate(-41.331 -123.139)" fill="#f4a00b"/>
      <path id="Trazado_716925" data-name="Trazado 716925" d="M147.59,450.9c-.6.749.636,1.838,3.371-.672a117.9,117.9,0,0,1,10.025-8.673,27.817,27.817,0,0,1,6.965-3.113c.014-.02.03-.039.044-.06.551-.781.059-2.2-1.064-1.987a32.643,32.643,0,0,0-12.872,5.275,65.666,65.666,0,0,1-3.7,5.612c-1.569,2-2.17,2.87-2.773,3.619" transform="translate(-43.994 -130.209)" fill="#f4a00b"/>
      <path id="Trazado_716926" data-name="Trazado 716926" d="M85.606,448.469c1.291,5.6,4.141,11.262,5.04,17.777.64,4.641.034,13.284.15,16.752.162,4.861.58,5.494-3.48,6.8-.565.182-1.095.359-1.6.542a89.607,89.607,0,0,0-3.288-17.621c-2.5-9.008-7.5-12.719-13.975-18.37a78.847,78.847,0,0,1-12.8-14.54,24.424,24.424,0,0,1,6.48,2.888,110.84,110.84,0,0,1,9.461,8.349c2.587,2.421,3.687,1.294,3.11.564s-1.156-1.583-2.656-3.528-3.566-5.49-3.566-5.49c-4.849-6.1-9.331-12.652-13.933-18.9a33.777,33.777,0,0,1,4.48,2.182c5.062,2.982,15.356,14,17.3,17.457.913,1.624,2.51,5.391,3.314,6.342.906,1.074.956-.82.761-1.8-.37-1.842-1.1-6.681-1.1-6.681a19.437,19.437,0,0,1,2.325-11.264,43.01,43.01,0,0,1,1.677,5.809c.724,2.965,1.305,8.4,2.3,12.727" transform="translate(-16.277 -126.425)" fill="#feb51c"/>
      <path id="Trazado_716927" data-name="Trazado 716927" d="M96.265,431.8c.875,5.021.575,8.487,2.536,14.368.5,1.488,3.248,10.8,3.93,12.131a12.434,12.434,0,0,0,4.819,4.539c2.072.937,4.072.394,4.441,2.143-1.281,4.457-6.8,1.866-6.894,5.085-.05,1.64,1.489,11.552,1.428,14.959-.153,8.638.9,26.741.384,26.858-3.07.692-6.137,1.391-9.212,2.054-1.285.276-.31-11.667-.272-16.646.013-1.708-.076-3.377-.2-5.035.508-.182,1.037-.36,1.6-.542,4.059-1.3,3.642-1.937,3.479-6.8-.116-3.469.49-12.112-.15-16.752-.9-6.514-3.749-12.18-5.04-17.777-1-4.327-1.579-9.763-2.3-12.727a42.936,42.936,0,0,0-1.676-5.809c1.355-2.24,2.717-2.378,3.123-.048" transform="translate(-27.792 -128.339)" fill="#f4a00b"/>
      <path id="Trazado_716928" data-name="Trazado 716928" d="M79.3,448.589c-.8-.952-2.4-4.719-3.314-6.343-1.942-3.455-12.236-14.475-17.3-17.457a33.742,33.742,0,0,0-4.48-2.183c-.2-.264-.387-.535-.583-.8-.5-.668-.055-1.96.777-1.72,11.377,3.29,21.824,15.439,24.559,20.024,0,0,.73,4.84,1.1,6.681.2.976.147,2.869-.761,1.8" transform="translate(-15.94 -125.341)" fill="#f4a00b"/>
      <path id="Trazado_716929" data-name="Trazado 716929" d="M75.056,457.571c.577.73-.523,1.857-3.11-.564a110.945,110.945,0,0,0-9.462-8.348A24.412,24.412,0,0,0,56,445.771c-.014-.02-.029-.039-.043-.059-.53-.763-.124-2.193.912-2.02a28.507,28.507,0,0,1,11.96,4.861s2.066,3.544,3.566,5.49,2.08,2.8,2.656,3.528" transform="translate(-16.629 -132.388)" fill="#f4a00b"/>
      <path id="Trazado_716930" data-name="Trazado 716930" d="M99.932,883.748c-1.838,1.146-2.844,4.082-3.888,5.861l-5.224,8.9a1.213,1.213,0,0,0,.69,1.778,6.4,6.4,0,0,1,4.753,3.555,1.2,1.2,0,0,0,2.087.023c7.718-.938,10.538-10.419,7.62-17-1-2.257-3.453-4.735-6.039-3.121" transform="translate(-27.052 -263.545)" fill="#ff6485"/>
      <path id="Trazado_716931" data-name="Trazado 716931" d="M82.988,923.818a61.584,61.584,0,0,0,14.238,7.026.9.9,0,0,0,.954-.241c-.13-.415-.262-.814-.4-1.238-1.774-5.57-6.095-11.7-14.8-5.547" transform="translate(-24.763 -274.89)" fill="#feb51c"/>
      <path id="Trazado_716932" data-name="Trazado 716932" d="M94.6,903.855a1.147,1.147,0,0,0-1.345-.839c-6.126,1.03-18.574,10.213-18.163,10a21.692,21.692,0,0,0,5.538,5.36c8.7-6.154,13.021-.023,14.795,5.547.135.425.267.823.4,1.238a1.171,1.171,0,0,0,.363-.717A61.782,61.782,0,0,0,94.6,903.855" transform="translate(-22.404 -269.444)" fill="#f4a00b"/>
      <path id="Trazado_716933" data-name="Trazado 716933" d="M81.852,525.658a18.351,18.351,0,0,0-4.256,3.721,9.035,9.035,0,0,0-3.829-1.643c-7.093-1.146-11.118,4.892-12.64,11.107a6.183,6.183,0,0,0-7.281-2.157c-4.3,1.527-6.3,7.133-7.848,10.918-.843,2.059-1.636,4.163-2.379,6.293-16.749,13.728-24.441,25.959-30.044,37.98-3.224,17.515-2.959,38.637,2.416,46.673-2.574,5.945-10.821,24.719,6.425,39.9,1.75,12.9,7.528,21,18.76,27.5a7.67,7.67,0,0,0-1.923,10.923c-1.1,2.259-2.8,4.157-3.852,6.493-1.156,2.564-4.013,14.267.539,21.874-6.986,9.713-7.775,20.55-5.482,31.76a69.256,69.256,0,0,0,4.649,9.2c6.482,10.695,18.283,19.533,30.919,13.042a22.585,22.585,0,0,0,8.373-7.782c0-.019-.01-.034,0-.053,1.085-3.4,2.192-6.6,1.882-10.234-.292-3.408-.289-5.974-2.479-10.633.121.123,11.141-3.042,13.945-8.725,2.555-5.179.411-16.764.263-17.257-.328-1.09,1.175-1.433,1.717-.641a13.245,13.245,0,0,1,.657,1.225c6.519-3.284,12.9-8.862,13.72-17.893.006-.059,15.31-2.385,20.22-9.249,4.774-6.675,4.51-13.8,2.167-21.17a11.386,11.386,0,0,1-7.074,3.423c-.2.02-.22-.262-.081-.348,5.886-3.664,9.731-8.6,10.265-15.667a29.87,29.87,0,0,0-.486-8.561c-7.86,2.653-21.782,6.833-27.093-2.922,5.375,1.025,12.456-1.339,17.808-5.628,5.916-4.741,11.673-14.995,8.271-23.811,4.389-2.618,9.823-9.117,10.975-15.169,1.317-6.928-6.854-14.683-6.856-14.7-.019-.145,5.321-7.243.67-14.268-3.98-6.01-11.746-6.577-16.912-3.621-6.641,3.8-10.907,13.454-10.886,20.064,0,1.326-1.774,1.307-2.146.214-3.58-10.492.779-22.9,9.774-28.473.349-4.38.923-13.482-16.255-23.857,3.9-15.224-2.823-28.793-14.61-37.842" transform="translate(-3.426 -156.85)" fill="#ead9d6"/>
      <path id="Trazado_716934" data-name="Trazado 716934" d="M32.515,773.392c-4.552-7.608-1.7-19.31-.539-21.874,1.053-2.336,2.75-4.234,3.852-6.493A7.67,7.67,0,0,1,37.751,734.1c-11.233-6.494-17.011-14.6-18.76-27.5-17.246-15.177-9-33.95-6.425-39.9-5.374-8.036-5.639-29.158-2.415-46.673-1.069,2.293-2.07,4.579-3.034,6.865-2.9,6.865-8.518,21.155-4.325,37.728-4.887,13.08-3.366,32.3,4.637,46.25,3.285,5.726,7.758,10.681,12.005,15.731,3.15,3.745,6.378,8.062,10.04,11.622-3.958,7.864-6.611,23.268-3.288,32.89-5.722,12.938-4.535,21.149.848,34.03-2.293-11.21-1.5-22.047,5.482-31.76" transform="translate(0 -185.011)" fill="#f4e8e6"/>
      <path id="Trazado_716935" data-name="Trazado 716935" d="M134.146,739.557c4.761.469,15.328-3.411,17.641-10.255,7.939-.674,18.114-16.468,14.476-23.857,3.239-3.359,6.109-6.486,7.677-10.987,1.591-4.563,3.1-12.611-3.244-14.177a1.044,1.044,0,0,1-.155-.074l0,0c6.8-8.089,2.245-15.582-.034-17.36-5.24,4.153-9.912,3.486-9.856,3.428,2.541-2.7,6.856-6.19,8.621-9.529,1.358-2.569,2.913-7.454.935-14.377,4.41-3.271,7.5-10.184,8.038-15.46.7-6.843-1.935-11.742-6.9-18.025.912-5.326-.483-9.07-4.258-13.552-3.741-4.44-7.783-7.023-13.485-8a26.541,26.541,0,0,0-.337-14.876c-5.717-6.718-15.248-16.967-20.928-24.349-3.532-15.05-9.422-25.327-17.1-25.12a13.292,13.292,0,0,0-6.878,1.869c11.787,9.049,18.512,22.617,14.61,37.842,17.178,10.374,16.6,19.477,16.255,23.857-9,5.576-13.354,17.981-9.774,28.473.373,1.093,2.15,1.112,2.146-.214-.02-6.61,4.245-16.263,10.886-20.064,5.166-2.956,12.932-2.389,16.912,3.621,4.652,7.024-.689,14.123-.669,14.268,0,.015,8.172,7.769,6.855,14.7-1.151,6.051-6.585,12.55-10.975,15.169,3.4,8.815-2.355,19.07-8.271,23.811-5.352,4.289-12.433,6.653-17.808,5.628,5.311,9.755,19.233,5.575,27.093,2.922a29.894,29.894,0,0,1,.485,8.561c-.533,7.067-4.379,12-10.265,15.667-.139.086-.12.367.081.348a11.385,11.385,0,0,0,7.074-3.423c2.343,7.368,2.608,14.495-2.167,21.169-4.911,6.865-20.216,9.191-20.22,9.25-.819,9.031-7.2,14.609-13.721,17.893a13.11,13.11,0,0,0-.657-1.225c-.542-.792-2.044-.448-1.717.641.148.493,2.292,12.078-.263,17.257-2.8,5.683-13.824,8.849-13.945,8.725,2.19,4.658,2.188,7.224,2.479,10.633.311,3.637-.8,6.836-1.881,10.234-.006.018.006.034,0,.053a27.058,27.058,0,0,0,4.471-13.606c12.3-2.565,21.335-14.819,27.309-27.107.069-.018.14-.043.21-.061,1.14-3.641,1.854-7.269,1.255-10.324" transform="translate(-29.928 -156.054)" fill="#ddc6c3"/>
      <path id="Trazado_716936" data-name="Trazado 716936" d="M194.963,682.747c8.481-7.764,9.807-22.72,2.068-36.324,1.24-10.243-9.736-34.436-29.909-52.923a26.529,26.529,0,0,1,.337,14.876c5.7.972,9.744,3.556,13.486,8,3.775,4.481,5.169,8.226,4.257,13.552,4.965,6.284,7.6,11.182,6.9,18.026-.54,5.276-3.629,12.188-8.038,15.46,1.978,6.924.424,11.808-.935,14.377-1.765,3.339-6.079,6.829-8.621,9.529-.055.058,4.617.725,9.856-3.428,2.28,1.778,6.834,9.271.035,17.36h0a1.062,1.062,0,0,0,.156.074c6.342,1.565,4.834,9.614,3.244,14.177-1.568,4.5-4.438,7.629-7.677,10.987,3.638,7.389-6.537,23.183-14.476,23.857-2.313,6.845-12.879,10.724-17.641,10.256.6,3.055-.114,6.683-1.255,10.323,25.488-6.688,59.509-46.132,48.212-88.173" transform="translate(-43.789 -177.094)" fill="#ceb5b3"/>
      <path id="Trazado_716937" data-name="Trazado 716937" d="M51.941,881.608c-.377-1.9-1.786-3.876-3.458-3.26-7.243,2.666-2.224,9.2-2.426,13.719-.131,2.939-2.022,4.4-.4,7.668,2.31,4.67,7.768,4.106,10.846,7.721,1.554,1.826.816,3.574,3.886,4.478,3.862,1.137,6.872-1.888,9.228-4.467a1.251,1.251,0,0,0-.208-1.958c-8.062-4.251-15.631-14.7-17.464-23.9" transform="translate(-13.293 -262.054)" fill="#ff6485"/>
      <path id="Trazado_716938" data-name="Trazado 716938" d="M87.382,897.639c-.8,1.532-.029,4.264,1.675,4.8a3.215,3.215,0,0,0,1.856.427,3.584,3.584,0,1,0-3.531-5.226" transform="translate(-25.979 -267.305)" fill="#824030"/>
      <path id="Trazado_716939" data-name="Trazado 716939" d="M143.878,612.709c-17.322.314-33.618,18.489-33.155,35.92-8.429,5.59-12.209,20.354-7.493,29.062.142.262.641.2.609-.142-.481-5.064-.995-9.7.481-14.686,1.362-4.6,3.824-7.676,6.672-11.014a25.23,25.23,0,0,0,.58,2.931.337.337,0,0,0,.662-.066c.2-1.715,3.3-18.745,7.26-24.394,6.24-8.9,14.765-12.066,24.613-15.308,1.177-.388,1.187-2.329-.229-2.3" transform="translate(-30.19 -182.825)" fill="#ddc6c3"/>
      <path id="Trazado_716940" data-name="Trazado 716940" d="M148.445,761.257a.585.585,0,0,0-1,.38c-.053,1.906.565,3.556-.088,5.456-.723,2.1-2.585,3.357-4.276,4.635-.176.133-.034.411.159.419a5.576,5.576,0,0,0,3.942-1.652c.834,2.015,1.993,3.723.775,6.019a6.51,6.51,0,0,1-1.072,1.449c-.274.285-.852.611-1.031.956-.088.171-.275.531-.062.688.787.584,1.89-.262,2.5-.807a6.151,6.151,0,0,0,1.865-3.276c.426-1.977-.191-4.948-2.223-5.814,2.075-2.485,2.881-6.275.507-8.454" transform="translate(-42.67 -227.101)" fill="#ddc6c3"/>
      <path id="Trazado_716941" data-name="Trazado 716941" d="M146.426,700c-.474,2.571-.941,5.368-2.916,7.26a7.863,7.863,0,0,1-3.088,1.763.508.508,0,0,0-.638.209c-1.175.319-2.406.5-3.646.716a.222.222,0,0,0-.065.4,6.229,6.229,0,0,0,3.119.85,5.922,5.922,0,0,1-2,3.737c-1.728,1.354-4.007,1.292-6.1,1.219a.2.2,0,0,0-.149.331c2,2.065,5.228,1.717,7.436.108,1.612-1.175,3.126-3.57,2.9-5.7,4.377-1.318,7.908-6.618,5.974-10.979a.455.455,0,0,0-.831.084" transform="translate(-39.056 -208.778)" fill="#ddc6c3"/>
      <path id="Trazado_716942" data-name="Trazado 716942" d="M172.09,665.644c-.313-.079-.666.268-.471.577,1.1,1.75,1.931,3.122,1.532,5.29a11.834,11.834,0,0,1-.617,2.153,2.056,2.056,0,0,1-2.061,1.645c-.616.067-.692.857-.376,1.247a1.94,1.94,0,0,0,2.759.089c1.158-.859,1.635-2.537,1.929-3.879.521-2.367.173-6.394-2.7-7.122" transform="translate(-50.7 -198.617)" fill="#ddc6c3"/>
      <path id="Trazado_716943" data-name="Trazado 716943" d="M157.9,646.213a.581.581,0,0,0-.527.848c1.068,1.608,1.715,3.121.786,5a9.217,9.217,0,0,1-3.8,3.637.361.361,0,0,0-.018.622c1.673.809,3.4-.288,4.64-1.716a6.146,6.146,0,0,1-.312,3.473c-.711,1.647-2.291,2.489-3.079,4.006a.668.668,0,0,0,.544,1c2.446.264,4.212-2.74,4.622-4.807a6.815,6.815,0,0,0-.815-4.977,7.926,7.926,0,0,0,.452-.863c.984-2.258.507-5.992-2.491-6.221" transform="translate(-46.003 -192.822)" fill="#ddc6c3"/>
      <path id="Trazado_716944" data-name="Trazado 716944" d="M129.214,668.651a.246.246,0,0,0,.2.369,3.786,3.786,0,0,1,2.669.728,8.359,8.359,0,0,1,1.746,1.873,4.814,4.814,0,0,1,.761,1.727c.124.643-.048,1.125.3,1.7a.625.625,0,0,0,.827.254c2.113-1.045.09-4.335-.92-5.467-1.073-1.2-4.478-3.675-5.586-1.179" transform="translate(-38.548 -199.197)" fill="#ddc6c3"/>
      <path id="Trazado_716945" data-name="Trazado 716945" d="M126.422,683.358a.572.572,0,0,0-.029.984c1.563,1.126,3.314,1.412,4.09,3.45.725,1.906-.243,3.522-.638,5.348-.068.316.2.742.575.609,2.6-.932,3-4.405,2.1-6.719-.846-2.185-3.617-4.7-6.1-3.672" transform="translate(-37.635 -203.834)" fill="#ddc6c3"/>
      <path id="Trazado_716946" data-name="Trazado 716946" d="M112.868,766.294a.317.317,0,0,0-.081.49c.443.591,1.024.775,1.59,1.26a5.219,5.219,0,0,1,1.515,2.375,8.523,8.523,0,0,1,.479,4.335c-.017.055.012.112.006.168a9.527,9.527,0,0,0-4.392-1.4.256.256,0,0,0-.14.471,33.344,33.344,0,0,1,4.492,3.284,7.8,7.8,0,0,1,1.569,1.922c.6,1.218.042,1.849.086,3a.519.519,0,0,0,.493.523l.434.014a.981.981,0,0,0,.861-.468c1.452-2.344.118-4.687-1.981-6.367,1.635-1.137.593-4.668-.044-6.177-.678-1.607-2.846-4.539-4.888-3.428" transform="translate(-33.339 -228.58)" fill="#ddc6c3"/>
      <path id="Trazado_716947" data-name="Trazado 716947" d="M102.338,720.53c-.824-.38-2.068-.874-2.936-.363a.808.808,0,0,0-.29,1.292.269.269,0,0,0,.375.01c.617-.552,3.132,1.577,3.535,1.991.866.887,1.212,2.254,2.263,2.924a.633.633,0,0,0,.922-.358c.876-2.193-2.151-4.7-3.87-5.5" transform="translate(-29.51 -214.824)" fill="#ddc6c3"/>
      <path id="Trazado_716948" data-name="Trazado 716948" d="M118.112,591.536a.2.2,0,0,0,.213.293c.533-.072,1.532.8,1.963,1.116a7.373,7.373,0,0,1,2.063,2.219c.809,1.345.677,3.025,1.592,4.238a.911.911,0,0,0,1.426-.151c2.583-3.613-5.807-10.922-7.257-7.716" transform="translate(-35.237 -176.27)" fill="#ddc6c3"/>
      <path id="Trazado_716949" data-name="Trazado 716949" d="M102.136,563.114c-.849-.109-1.092,1.353-.236,1.493a3.964,3.964,0,0,1,3.251,3.888,33.2,33.2,0,0,1-.281,3.646c-1.954-.377-4.738-.646-5.9.7a.212.212,0,0,0,.035.329c1.3.953,3.577.63,5.126,1.007a9.318,9.318,0,0,1,5.313,3.109.887.887,0,0,0,1.515-.577c-.022-2.276-2.094-3.462-4.09-4.082a7.147,7.147,0,0,0,.093-5.8,6.037,6.037,0,0,0-4.824-3.707" transform="translate(-29.512 -168.025)" fill="#ddc6c3"/>
      <path id="Trazado_716950" data-name="Trazado 716950" d="M95.145,618.56a.56.56,0,0,0-.163,1.014,11.674,11.674,0,0,1,4.386,4.7,7.1,7.1,0,0,1,1.031,2.978c.016.324,0,.582-.007.827a4.891,4.891,0,0,0-5.134,1.511.209.209,0,0,0,.172.316c1.628.01,3.3-.166,4.832.52,1.687.754,2.44,2.322,3.654,3.6a.726.726,0,0,0,1.237-.471,4.756,4.756,0,0,0-2.729-4.7c1.873-3.389-3.683-11.133-7.28-10.29" transform="translate(-28.265 -184.552)" fill="#ddc6c3"/>
      <path id="Trazado_716951" data-name="Trazado 716951" d="M102.01,530.2s-3.3,6.594-4.024,10.664a79.564,79.564,0,0,1-2.067,8.387s-3.282-7.4-2.5-13.225,2.774-7.587,2.774-7.587a7.844,7.844,0,0,1,5.816,1.761" transform="translate(-27.839 -157.667)" fill="#ddc6c3"/>
      <path id="Trazado_716952" data-name="Trazado 716952" d="M79.484,543.359a36.152,36.152,0,0,0-.958,7.279A19.651,19.651,0,0,1,78,555.751a7.4,7.4,0,0,1-4.916-6.356c-.408-4.962.639-8.706,1.687-8.6a8.918,8.918,0,0,1,4.709,2.559" transform="translate(-21.781 -161.367)" fill="#ddc6c3"/>
      <path id="Trazado_716953" data-name="Trazado 716953" d="M80.247,586.547c-1.362-.773-4.1-1.083-4.526.923a.351.351,0,0,0,.323.444,6.538,6.538,0,0,1,2.179-.055,4.861,4.861,0,0,1,1.929,1.354A17.451,17.451,0,0,1,82.563,593a1.068,1.068,0,0,0,1.974-.737,9.245,9.245,0,0,0-4.291-5.719" transform="translate(-22.592 -174.841)" fill="#ddc6c3"/>
      <path id="Trazado_716954" data-name="Trazado 716954" d="M72.175,605.211a.246.246,0,0,0,.226.311c1.356.107,2.681-.455,4.075-.319,1.647.161,2.593,1.162,4.043,1.694.941.345,1.682-.777,1.292-1.584-1.355-2.8-8.6-3.662-9.636-.1" transform="translate(-21.533 -179.888)" fill="#ddc6c3"/>
      <path id="Trazado_716955" data-name="Trazado 716955" d="M71.567,673.841a.268.268,0,0,0-.013.462c1.006.589,2.115.979,3.107,1.584a8.225,8.225,0,0,1,2.606,2.91c.58.9,2.329.46,1.91-.713-.993-2.776-4.668-5.627-7.61-4.243" transform="translate(-21.313 -200.958)" fill="#ddc6c3"/>
      <path id="Trazado_716956" data-name="Trazado 716956" d="M74.284,689.365a7.083,7.083,0,0,0-4.92.605.782.782,0,0,0-.391.858.715.715,0,0,0,.046.142l.024.046a.8.8,0,0,0,.858.391,9.586,9.586,0,0,1,4.154.263c1.12.352,2.092,1.47,3.266,1.435a.884.884,0,0,0,.869-1.061c-.17-1.589-2.569-2.381-3.906-2.68" transform="translate(-20.575 -205.64)" fill="#ddc6c3"/>
      <path id="Trazado_716957" data-name="Trazado 716957" d="M63.427,634.065a5.194,5.194,0,0,0-1.6-.675c-1.271-3.514-7.279-6.9-9.938-3.323a.279.279,0,0,0,.229.421,10.33,10.33,0,0,1,4.426.622,6.287,6.287,0,0,1,2.379,2.165,8.043,8.043,0,0,0-1.371.339c-1.471.517-3.629,1.833-3.393,3.654a.476.476,0,0,0,.568.354c1.253-.342,2.169-1.49,3.467-1.87a6.281,6.281,0,0,1,4.283.479c1.3.509,2.036-1.445.954-2.165" transform="translate(-15.468 -187.55)" fill="#ddc6c3"/>
      <path id="Trazado_716958" data-name="Trazado 716958" d="M72.648,744.265c-2.118-1.126-5.252-1.458-7.037.429a.491.491,0,0,0,.319.838c2.042.042,3.993-.368,5.848.782a6.079,6.079,0,0,1,2.02,2.2,4.294,4.294,0,0,0-2.684,1.144.694.694,0,0,0-.091.9c.551.65,1.942.121,2.663.107a5.066,5.066,0,0,1,3.748,1.515,1.156,1.156,0,0,0,1.68-1.586,6.72,6.72,0,0,0-2.684-1.726c-.28-1.874-2.405-3.866-3.781-4.6" transform="translate(-19.536 -221.806)" fill="#ddc6c3"/>
      <path id="Trazado_716959" data-name="Trazado 716959" d="M97.969,797.48c-.921-2.36-2.665-4.428-5.158-4.643-.293-.025-.391.331-.236.526a22.7,22.7,0,0,1,2.839,3.547,8.871,8.871,0,0,1,.93,4.677,1.213,1.213,0,0,0,.852,1.174,1.245,1.245,0,0,0,.6.018,1.2,1.2,0,0,0,.919-1.123,9.686,9.686,0,0,0-.163-1.978,10.916,10.916,0,0,1,1.965,2.037c.831,1.182,1,2.926,2.045,3.865.3.273.927.341,1.133-.12.683-1.527-.377-3.334-1.271-4.609a8.075,8.075,0,0,0-4.459-3.37" transform="translate(-27.602 -236.572)" fill="#ddc6c3"/>
      <path id="Trazado_716960" data-name="Trazado 716960" d="M96.387,818.341a.327.327,0,0,0-.016.562,20.363,20.363,0,0,0,3.651,1.344,17.7,17.7,0,0,1,3.863,2.441c1,.722,2.022-.751,1.3-1.612-1.74-2.083-6.181-4.3-8.8-2.734" transform="translate(-28.71 -244.025)" fill="#ddc6c3"/>
      <path id="Trazado_716961" data-name="Trazado 716961" d="M96.544,845.236a.515.515,0,0,0-.759.549c.467,1.692,1.311,2.992,1.23,4.835a7.186,7.186,0,0,1-.634,2.694,4.881,4.881,0,0,0-.659,1.915.665.665,0,0,0,.807.661c1.946-.573,2.512-3.431,2.495-5.212-.018-1.866-.686-4.526-2.48-5.443" transform="translate(-28.562 -252.191)" fill="#ddc6c3"/>
      <path id="Trazado_716962" data-name="Trazado 716962" d="M75.058,772.731c-1.581-.014-3.94.744-4.171,2.562-.023.183.173.289.326.267,1.365-.2,2.405-1.1,3.888-.865,1.5.24,2.247,1.334,3.394,2.162.621.448,1.353-.25,1.242-.9-.348-2.03-2.788-3.21-4.679-3.227" transform="translate(-21.151 -230.573)" fill="#ddc6c3"/>
      <path id="Trazado_716963" data-name="Trazado 716963" d="M43.821,697.234a4.146,4.146,0,0,0-4.007,2.828.548.548,0,0,0,.894.548,5.193,5.193,0,0,1,4.582-1.059c1.04.217,2.044.711,2.967,0a.614.614,0,0,0,.182-.6c-.508-1.613-3.183-1.786-4.618-1.711" transform="translate(-11.873 -208.042)" fill="#ddc6c3"/>
      <path id="Trazado_716964" data-name="Trazado 716964" d="M48.221,608.347a.523.523,0,0,0,.21.877,9.728,9.728,0,0,1,3.472,1.057c.982.657,1.6,1.675,2.537,2.388a.718.718,0,0,0,1.058-.411c.645-3.4-4.748-5.929-7.277-3.911" transform="translate(-14.34 -181.309)" fill="#ddc6c3"/>
      <path id="Trazado_716965" data-name="Trazado 716965" d="M136.528,484.179a11.516,11.516,0,0,1-1.153,1.2c-.085.076-.185.145-.265.227-.3.307.461-.279.093-.068-.263.151-.5.35-.763.508-.227.138-.46.268-.7.389-.113.058-.878.392-.453.225s-.389.135-.481.166c-.293.1-.589.187-.888.265a8.085,8.085,0,0,0-1.612.332c.006-.011.622-.069.248-.033-.119.011-.239.027-.358.039q-.482.047-.967.071a24.753,24.753,0,0,1-3.6-.1c-.295-.029-.587-.065-.881-.1.657.076-.032-.007-.293-.049q-.944-.152-1.879-.351c-1.189-.252-2.367-.556-3.533-.9-2.94-.869-5.839-1.885-8.732-2.895-6.034-2.106-12.041-4.314-18.2-6.028a102.893,102.893,0,0,0-18.557-3.356,101.234,101.234,0,0,0-36.662,3.548c-2.885.829-5.734,1.789-8.527,2.889-2.97,1.17-6.008,2.753-6.951,6.069a5.936,5.936,0,0,0,4.74,7.709,13.026,13.026,0,0,0,4.927-.586q2.347-.59,4.681-1.231c12.345-3.374,24.448-7.6,36.882-10.655,3.076-.756,6.17-1.438,9.284-2.016q2.131-.4,4.276-.716c.342-.051.686-.1,1.029-.149.109-.015.622-.083.046-.008l.443-.058q1.108-.141,2.22-.261a93.321,93.321,0,0,1,17.093-.344q1.032.079,2.062.185.514.053,1.027.113l.439.053c.241.029.65.083.185.02q2.111.286,4.2.7A63.011,63.011,0,0,1,123,481.144q.967.331,1.922.695.477.183.951.374l.406.165c.862.352-.3-.142.188.08,1.292.587,2.576,1.174,3.831,1.84a33.022,33.022,0,0,1,3.393,2q.218.152.431.311c-.04-.03-.371-.325-.119-.083.221.211.463.4.68.617.082.083.632.741.428.455-.236-.33.065.118.115.2.088.143.156.3.244.44.225.366-.1-.48-.033-.055a3.119,3.119,0,0,0,.1.368c.07.237-.034.463,0-.071-.008.126.009.259.006.386s-.013.255-.022.383c.05-.686.036-.238-.025-.084a5.007,5.007,0,0,0-.153.491c.071-.262.176-.34,0-.042-.154.267-.316.525-.482.784-.192.3.051-.084.085-.116-.126.122-.237.265-.362.391-.107.107-.743.629-.485.448.3-.21-.072.038-.111.061-.208.12-.41.25-.622.363-.147.079-.963.4-.492.243-.337.111-.669.233-1.012.33a20.731,20.731,0,0,1-2.25.48c-.023,0-.525.081-.191.032s-.168.021-.192.024c-.362.044-.725.085-1.087.125q-1.293.141-2.588.264c-6.674.636-13.378.927-20.08,1.05-6.558.121-13.118.083-19.677.045-5.753-.033-11.509-.1-17.253-.427-2.823-.161-5.642-.383-8.452-.7q-1.03-.115-2.059-.247l-.44-.057c.582.077.072.009-.039-.006-.389-.056-.779-.112-1.168-.17q-2.108-.318-4.2-.722c-2.722-.528-5.421-1.177-8.076-1.972q-2.015-.6-3.993-1.326-.953-.349-1.9-.727c-.138-.055-.989-.407-.452-.18-.356-.151-.711-.307-1.064-.464a59.054,59.054,0,0,1-7.2-3.846,3.187,3.187,0,0,0-4.32,1.133,3.224,3.224,0,0,0,1.133,4.32c9.973,6.245,21.464,9.134,33.044,10.5,11.829,1.391,23.814,1.239,35.706,1.245,6.708,0,13.418-.07,20.118-.4,3.347-.163,6.692-.39,10.029-.7,3.2-.3,6.613-.434,9.627-1.623,3.111-1.228,5.873-3.567,6.745-6.923a8.631,8.631,0,0,0-3.022-8.7,32.8,32.8,0,0,0-7.581-4.54,63.031,63.031,0,0,0-8.4-3.219c-11.14-3.357-23.094-3.654-34.575-2.216-12.731,1.594-25.035,5.221-37.275,8.95-6.176,1.882-12.35,3.781-18.593,5.436-1.5.4-3.005.8-4.522,1.133-.055.012-.507.069-.128.029.41-.043-.163,0-.262,0-.135,0-.268-.006-.4-.008.616.007.245.056.068-.03.138.067.268.158.4.222l.121.11q-.288-.3-.039.011c.2.06.118.236.007-.02.325.751.086.265.057.069-.052-.35.021.308.029.309.042.008-.051-.428,0-.437s-.172.648-.044.29a1.772,1.772,0,0,0,.109-.431c.021-.386-.1.3-.116.236s.182-.3.215-.386c-.017.043-.381.411-.122.152.152-.153.305-.31.455-.466.119-.123.455-.284-.025.007.112-.068.219-.147.33-.217.262-.165.534-.314.81-.453.126-.064.909-.416.6-.284-.342.145.069-.026.116-.044l.688-.269a96.877,96.877,0,0,1,17.622-4.945q1.088-.2,2.181-.37.546-.086,1.093-.167c.164-.024,1.263-.174.726-.1q2.272-.3,4.557-.488,4.568-.382,9.157-.34t9.148.51q1.1.114,2.2.252l.47.06c-.519-.067.013,0,.1.015.417.06.834.12,1.25.184q2.265.349,4.511.806a142.964,142.964,0,0,1,18.364,5.331c5.764,2,11.506,4.306,17.432,5.8,4.878,1.229,10.435,1.943,15.3.259a14.4,14.4,0,0,0,6.4-4.235,3.227,3.227,0,0,0,0-4.465c-1.17-1.074-3.331-1.351-4.465,0" transform="translate(-6.315 -140.646)" fill="#ffe578"/>
    </g>
  </g>
</svg>
