<svg xmlns="http://www.w3.org/2000/svg" xmlns:xlink="http://www.w3.org/1999/xlink" width="129" height="129" viewBox="0 0 129 129">
  <defs>
    <clipPath id="clip-path">
      <rect id="Rectángulo_353285" data-name="Rectángulo 353285" width="109.461" height="105.821" fill="none"/>
    </clipPath>
  </defs>
  <g id="Grupo_1003268" data-name="Grupo 1003268" transform="translate(-736 -3252.879)">
    <circle id="Elipse_5715" data-name="Elipse 5715" cx="64.5" cy="64.5" r="64.5" transform="translate(736 3252.879)" fill="#06d1d1"/>
    <g id="Grupo_1003157" data-name="Grupo 1003157" transform="translate(745.27 3268.523)">
      <g id="Grupo_1003156" data-name="Grupo 1003156" clip-path="url(#clip-path)">
        <path id="Trazado_715636" data-name="Trazado 715636" d="M66.769,171.989c-.023,3.7-.033,7.4-.074,11.1-.027,2.459-1.024,3.09-3.209,2.026A44.172,44.172,0,0,1,58,182.291c-2.316-1.565-4.35-1.357-6.616.061a52.926,52.926,0,0,1-5.7,2.884c-1.846.865-2.877.228-2.916-1.811-.051-2.634-.105-5.274.024-7.9.072-1.481-.316-1.887-1.841-1.876-10.325.075-20.65.042-30.975.038-6.308,0-9.962-3.629-9.969-9.891-.006-4.984-.02-9.969,0-14.953.027-5.549,3.844-9.321,9.43-9.354,1.994-.012,4,.106,5.979-.038,1.433-.1,1.888.439,1.758,1.743.115,1.277-.291,1.941-1.743,1.74a25.952,25.952,0,0,0-2.977-.029c-1.51-.032-2.205.692-2.195,2.2.037,5.534.052,11.067.075,16.6-.023,2.131-.039,4.263-.071,6.394-.023,1.526.74,2.174,2.235,2.172q14.5-.02,29.009-.015c.507,0,1.336.231,1.216-.688-.272-2.081.689-4.225-1-6.26-1.985-2.4,1.791-5.541-.63-8.188-.384-.419.1-1.479.623-1.92,1.077-.91,1.086-2.035,1.042-3.257-.045-1.278-.01-2.559-.01-3.839,0-3.3,0-3.3-3.43-3.126-3.441-.023-6.885-.14-10.321-.026-1.465.049-1.8-.527-1.71-1.759-.13-1.305.337-1.747,1.757-1.744q36.539.077,73.078.044c4.5,0,7.3,2.833,7.311,7.358q.036,9.722,0,19.444c-.015,4.531-2.808,7.373-7.287,7.384-10.114.024-20.228-.025-30.342.044-1.4.009-1.909-.407-1.765-1.734-.121-1.291.309-1.793,1.753-1.765,5.27.1,10.543.056,15.814.016.526,0,1.473.533,1.4-.85-.142-2.557-.113-5.122-.156-7.684.044-5.979.047-11.96.171-17.937.019-.944-.381-.862-.954-.858L73.552,143c-2.2,0-4.988-.8-6.415.248-1.362,1-.292,3.978-.427,6.082-.036.567.023,1.14-.012,1.708a1.924,1.924,0,0,0,.643,1.693c2.751,2.516-1.526,5.873.992,8.527.444.468-.157,1.49-.592,2.16a1.778,1.778,0,0,1-.423.477,1.794,1.794,0,0,0-.627,1.7c.043,2.134.053,4.268.076,6.4M54.734,144.553a4,4,0,0,1,3.156,1.889c.31.533.57.942,1.3.542,1.3-.716,2.657-.362,4.091.165a15.925,15.925,0,0,1,.019-2.341c.271-1.658-.445-2.04-1.984-1.936-2.185.148-4.386.078-6.58.1-1.626-.023-3.253-.062-4.879-.066-3.813-.01-3.815,0-3.646,3.8.006.124.107.243-.075-.146a8.317,8.317,0,0,0,7.981-1.891c.143-.116.409-.081.619-.117M3.5,161.709c-.241,3.165-.243,6.23,3.271,8.042V143.494a2.373,2.373,0,0,0-1.7,1.25,4.669,4.669,0,0,0-1.626,3.77c-.017,4.4.03,8.8.052,13.2m92.209-.852c.021-1.343,0-2.688.07-4.028.227-4.6-.6-9.247.655-13.844H94.923c-2.077-.337-2.6.775-2.59,2.6.038,6.982.015,13.964.015,20.947,0,3.756.244,3.97,4.183,3.589-1.322-3.006-.5-6.18-.824-9.266M54.734,177.045l8.466,3.984V169.808c-2.9-.245-5.671-.044-7.848,2.11-.124.123-.409.084-.619.12a4,4,0,0,1-3.17-1.893c-.317-.547-.592-.914-1.314-.532a4.571,4.571,0,0,1-3.925-.132v11.545l8.409-3.981m49.14-33.769c-2.667-.773-4.633.477-4.66,3.162q-.1,10.146,0,20.293c.027,2.678,2,3.937,4.661,3.164a3.084,3.084,0,0,0,2.146-3.294q.022-10.015,0-20.03a3.089,3.089,0,0,0-2.147-3.294M60.927,166.328c-.157-2.708.971-4.466,3.838-4.808-1.992-2.825-1.991-3.506-.087-6.378-3.016-.852-3.487-1.465-3.791-5.02-2.575,1.091-4.714.707-6.161-2.208-1.4,2.872-3.531,3.295-6.229,2.208.188,2.869-.961,4.611-3.814,4.964,2,2.828,1.993,3.507.07,6.383,3.021.832,3.505,1.46,3.8,5.011,2.649-1.187,4.792-.609,6.17,2.135,1.824-2.787,2.585-3.049,6.2-2.287" transform="translate(0 -79.794)" fill="#020202"/>
        <path id="Trazado_715637" data-name="Trazado 715637" d="M28.634,27.189c-5.39-2.359-11.075-3.894-16.575-5.945-.8-.3-1.6-.576-2.417-.828-.892-.275-1.564-.758-1.563-1.766s.684-1.456,1.568-1.76c5.235-1.8,10.459-3.627,15.69-5.434C36.067,7.751,46.806,4.068,57.525.331a5.291,5.291,0,0,1,3.7.007q23.427,8.135,46.878,16.2c3.038,1.049,3.193,1.533,1.12,3.858-.414.464-.258.926-.262,1.381-.026,3.133,0,6.267-.018,9.4-.008,1.48.747,2.719,1.224,4.043,1.155,3.2,2.388,6.381,3.515,9.6,1.168,3.331-.841,6.2-4.384,6.322-1.423.048-2.851.06-4.272,0a4.5,4.5,0,0,1-4.247-6.249,50.045,50.045,0,0,1,2.163-5.778c2.7-5.5,2.982-11.305,2.42-17.377-4.2,1.435-8.405,2.9-12.635,4.3-1.059.351-.879,1.115-.879,1.874,0,4.842-.122,9.689.055,14.525A5.373,5.373,0,0,1,89.526,47.3a31.556,31.556,0,0,1-13.644,5.686C62.975,55.4,50.126,55.4,37.454,51.545A23.458,23.458,0,0,1,28.2,46.436a3.9,3.9,0,0,1-1.365-3.179c.083-3.7.118-7.408-.015-11.107-.052-1.459.536-1.692,1.7-1.557,1.405-.175,1.831.465,1.8,1.835-.082,3.189.03,6.384-.052,9.573a2.856,2.856,0,0,0,1.6,2.941c1.246.663,2.368,1.589,3.655,2.142C43,50.3,50.92,51.024,58.951,51.06a59.739,59.739,0,0,0,12.687-.826c5.495-.756,10.843-2.092,15.466-5.44a2.715,2.715,0,0,0,1.332-2.448c-.062-4.327-.05-8.656-.065-12.984.328-1.623-.441-1.557-1.627-1.145Q74.268,32.562,61.77,36.846c-1.135.391-2.254.891-3.512.447-4.42-1.561-8.836-3.135-13.273-4.645-5.44-1.85-10.9-3.642-16.35-5.459m76.458,16.255c-2.014,4.03-1.864,4.282,2.57,4.277a10.1,10.1,0,0,0,1.693-.031c.949-.164,1.617-.583,1-1.707l-2.894-8.164-.534.077-1.84,5.549M52.554,31.39c.519.233,1.043.457,1.557.7a11.828,11.828,0,0,0,9.794.347C74.238,28.618,84.72,25.2,95.139,21.609c2.584-.891,5.151-1.832,8.178-2.91-.944-.4-1.427-.648-1.934-.823-12.5-4.311-25.06-8.467-37.476-13.011a12.072,12.072,0,0,0-9.989.444c-.45.214-.909.408-1.364.611a4.04,4.04,0,0,0-.831.108Q34.193,12.076,16.67,18.146c-.309.107-.731.112-.71.778C22.277,21.1,28.64,23.3,35.013,25.471c5.841,1.99,11.693,3.947,17.541,5.919" transform="translate(-4.623 0)" fill="#040404"/>
        <path id="Trazado_715638" data-name="Trazado 715638" d="M41.031,143.542c-.093,1.232.244,1.808,1.71,1.759,3.436-.115,6.88,0,10.321.026,0,4.907.021,9.815.006,14.723-.009,2.816-1.2,4.006-4.027,4.01q-12.483.015-24.967-.006c-.023-5.534-.038-11.067-.075-16.6-.01-1.507.684-2.23,2.195-2.2a25.944,25.944,0,0,1,2.977.029c1.452.2,1.859-.464,1.743-1.741h3.277c-.074,1.191.2,1.8,1.678,1.784,1.423-.013,2.037-.354,1.885-1.784Z" transform="translate(-13.733 -82.143)" fill="#fbeddf"/>
        <path id="Trazado_715639" data-name="Trazado 715639" d="M86.294,87.434c-8.031-.036-15.952-.762-23.435-3.975-1.288-.553-2.409-1.48-3.655-2.143a2.855,2.855,0,0,1-1.6-2.94c.082-3.19-.03-6.384.052-9.573.035-1.37-.391-2.01-1.8-1.835l.117-3.4c5.451,1.817,10.911,3.608,16.35,5.459,4.437,1.51,8.853,3.084,13.273,4.645,1.258.444,2.377-.056,3.512-.447q12.492-4.3,24.974-8.629c1.186-.413,1.955-.479,1.628,1.144a5.1,5.1,0,0,0-1.048.135C107.211,68.439,99.753,71,92.314,73.614c-3.143,1.105-6.224,2.471-9.548.592-.758-.429-1.163-.148-1.2.767-.184,4.039.406,7.806,3.544,10.75.509.478,1.12.914,1.189,1.71" transform="translate(-31.966 -36.374)" fill="#2a2a36"/>
        <path id="Trazado_715640" data-name="Trazado 715640" d="M177.744,166.076c.042,2.562.014,5.128.155,7.684.077,1.384-.871.846-1.4.85-5.271.04-10.545.086-15.814-.016-1.444-.028-1.874.474-1.753,1.765h-3.28c-.023-2.134-.033-4.269-.076-6.4a1.8,1.8,0,0,1,.627-1.7,1.786,1.786,0,0,0,.423-.477c.435-.67,1.035-1.691.591-2.16-2.518-2.654,1.76-6.012-.992-8.527a1.926,1.926,0,0,1-.644-1.693c.035-.567-.024-1.141.013-1.708.135-2.1-.935-5.08.427-6.082,1.427-1.049,4.219-.243,6.414-.247-1.688,2.471-1.864,5.248-1.743,8.122.093,2.2,0,4.4.022,6.6.024,2.8,1.208,3.983,4.034,3.993,4.33.014,8.661,0,12.992-.006" transform="translate(-88.886 -84.165)" fill="#e1cfc1"/>
        <path id="Trazado_715641" data-name="Trazado 715641" d="M51.36,141.166c.151,1.43-.463,1.77-1.885,1.784-1.476.013-1.752-.593-1.678-1.784-.153-1.432.47-1.763,1.885-1.776,1.468-.014,1.755.581,1.678,1.776" transform="translate(-27.339 -79.767)" fill="#020202"/>
        <path id="Trazado_715642" data-name="Trazado 715642" d="M24.078,166.361q12.483.006,24.967.006c2.827,0,4.019-1.193,4.027-4.01.015-4.908,0-9.816-.006-14.724,3.429-.176,3.429-.176,3.43,3.126,0,1.28-.036,2.561.01,3.839.044,1.222.036,2.347-1.042,3.257-.522.441-1.006,1.5-.623,1.92,2.421,2.646-1.356,5.79.63,8.187,1.685,2.035.724,4.179,1,6.26.12.919-.709.687-1.216.688q-14.5.017-29.009.015c-1.494,0-2.258-.646-2.235-2.172.033-2.131.048-4.262.071-6.394" transform="translate(-13.738 -84.45)" fill="#e2cfc1"/>
        <path id="Trazado_715643" data-name="Trazado 715643" d="M184.889,166.347c-4.33,0-8.661.021-12.992.006-2.826-.009-4.011-1.191-4.034-3.993-.018-2.2.071-4.4-.022-6.6-.121-2.874.055-5.651,1.743-8.122l14.522-.086c.572,0,.973-.086.953.858-.123,5.978-.127,11.958-.17,17.937" transform="translate(-96.031 -84.435)" fill="#fbeddf"/>
        <path id="Trazado_715644" data-name="Trazado 715644" d="M120.71,177.668c-3.618-.762-4.379-.5-6.2,2.287-1.379-2.744-3.521-3.322-6.17-2.135-.295-3.551-.779-4.179-3.8-5.011,1.923-2.876,1.926-3.555-.07-6.383,2.853-.354,4-2.1,3.814-4.964,2.7,1.087,4.833.664,6.229-2.208,1.447,2.916,3.586,3.3,6.16,2.208.3,3.555.775,4.168,3.791,5.02-1.9,2.872-1.9,3.553.086,6.378-2.866.342-3.995,2.1-3.838,4.808m-1.081-8.019a5.12,5.12,0,1,0-5.187,5.108,5.174,5.174,0,0,0,5.187-5.108" transform="translate(-59.782 -91.134)" fill="#7877d1"/>
        <path id="Trazado_715645" data-name="Trazado 715645" d="M236.544,174.728c-2.655.773-4.634-.486-4.661-3.163q-.1-10.146,0-20.293c.027-2.685,1.993-3.934,4.659-3.162a166.33,166.33,0,0,1,0,26.618" transform="translate(-132.668 -84.628)" fill="#a17b5d"/>
        <path id="Trazado_715646" data-name="Trazado 715646" d="M116.713,217.207l-8.409,3.981V209.644a4.57,4.57,0,0,0,3.925.132c.722-.382,1-.015,1.314.533a3.994,3.994,0,0,0,3.169,1.892v5.006" transform="translate(-61.978 -119.956)" fill="#e99851"/>
        <path id="Trazado_715647" data-name="Trazado 715647" d="M127.962,217.568v-5.006c.21-.036.494,0,.619-.12,2.177-2.154,4.947-2.356,7.848-2.11v11.221l-8.466-3.984" transform="translate(-73.227 -120.317)" fill="#f7af52"/>
        <path id="Trazado_715648" data-name="Trazado 715648" d="M219.237,165.523c.32,3.086-.5,6.26.824,9.266-3.939.381-4.183.166-4.183-3.589,0-6.982.023-13.965-.015-20.947-.01-1.828.513-2.941,2.59-2.6-.152,1.042-.9,1.874-.888,3.011.059,4.091,0,8.184.038,12.275.01,1.145.189,2.3,1.634,2.587" transform="translate(-123.529 -84.46)" fill="#e99851"/>
        <path id="Trazado_715649" data-name="Trazado 715649" d="M9.632,150.172a2.373,2.373,0,0,1,1.7-1.25v26.257c-3.513-1.811-3.512-4.877-3.271-8.042,1.316-.225,1.658-1.115,1.649-2.313-.038-4.884-.052-9.768-.075-14.653" transform="translate(-4.56 -85.222)" fill="#e99851"/>
        <path id="Trazado_715650" data-name="Trazado 715650" d="M242.846,175.029a166.328,166.328,0,0,0,0-26.618,3.089,3.089,0,0,1,2.147,3.294q.023,10.015,0,20.03a3.084,3.084,0,0,1-2.146,3.294" transform="translate(-138.97 -84.929)" fill="#b9916f"/>
        <path id="Trazado_715651" data-name="Trazado 715651" d="M221.513,165.6c-1.446-.291-1.624-1.441-1.634-2.587-.038-4.092.021-8.184-.038-12.275-.016-1.137.736-1.968.888-3.011h1.509c-1.255,4.6-.428,9.244-.655,13.844-.066,1.341-.048,2.685-.069,4.028" transform="translate(-125.805 -84.54)" fill="#f7af52"/>
        <path id="Trazado_715652" data-name="Trazado 715652" d="M116.457,149.2c-.209.036-.476,0-.619.117a8.318,8.318,0,0,1-7.981,1.891c.182.388.081.269.075.146-.169-3.8-.167-3.809,3.646-3.8,1.626,0,3.252.043,4.878.066q0,.789,0,1.578" transform="translate(-61.723 -84.438)" fill="#e99851"/>
        <path id="Trazado_715653" data-name="Trazado 715653" d="M127.962,149.131q0-.789,0-1.578c2.194-.023,4.394.047,6.58-.1,1.539-.1,2.255.278,1.984,1.936a15.92,15.92,0,0,0-.019,2.34c-1.434-.527-2.788-.881-4.091-.165-.728.4-.989-.009-1.3-.542a4,4,0,0,0-3.156-1.889" transform="translate(-73.227 -84.371)" fill="#f7af52"/>
        <path id="Trazado_715654" data-name="Trazado 715654" d="M9.677,151.844c.023,4.884.036,9.769.075,14.653.01,1.2-.333,2.088-1.649,2.313-.022-4.4-.07-8.8-.053-13.2a4.669,4.669,0,0,1,1.626-3.77" transform="translate(-4.605 -86.894)" fill="#f7af52"/>
        <path id="Trazado_715655" data-name="Trazado 715655" d="M105.155,11.262c.455-.2.914-.4,1.364-.61a12.071,12.071,0,0,1,9.989-.444c12.416,4.544,24.975,8.7,37.476,13.011.507.175.99.418,1.934.823-3.027,1.079-5.593,2.02-8.178,2.91-10.419,3.59-20.9,7.009-31.235,10.829a11.829,11.829,0,0,1-9.794-.347c-.514-.245-1.038-.468-1.557-.7-.066-.7-.619-1.079-1.031-1.555a17.054,17.054,0,0,1-2.4-18.625c.928-1.933,2.462-3.416,3.429-5.291" transform="translate(-57.224 -5.343)" fill="#545a6a"/>
        <path id="Trazado_715656" data-name="Trazado 715656" d="M120.637,90.34c-.069-.8-.68-1.232-1.189-1.71-3.137-2.945-3.728-6.711-3.544-10.75.042-.915.447-1.2,1.2-.767,3.324,1.878,6.405.513,9.548-.592,7.439-2.616,14.9-5.175,22.353-7.743a5.1,5.1,0,0,1,1.048-.135c.015,4.328,0,8.657.065,12.984a2.715,2.715,0,0,1-1.332,2.448c-4.623,3.349-9.972,4.685-15.466,5.44a59.767,59.767,0,0,1-12.687.826" transform="translate(-66.31 -39.28)" fill="#393c47"/>
        <path id="Trazado_715657" data-name="Trazado 715657" d="M63.1,13.838c-.967,1.874-2.5,3.358-3.429,5.291a17.054,17.054,0,0,0,2.4,18.625c.412.476.965.852,1.031,1.555-5.847-1.972-11.7-3.929-17.541-5.92C39.183,31.218,32.82,29.015,26.5,26.843c-.022-.666.4-.671.71-.778Q44.737,20,62.266,13.946a4.108,4.108,0,0,1,.832-.108" transform="translate(-15.167 -7.919)" fill="#383c47"/>
        <path id="Trazado_715658" data-name="Trazado 715658" d="M234.881,94.039l1.839-5.55.534-.077,2.893,8.165c-2.438.57-3.925-.833-5.267-2.539" transform="translate(-134.413 -50.595)" fill="#f7af52"/>
        <path id="Trazado_715659" data-name="Trazado 715659" d="M233.218,101.566c1.341,1.706,2.829,3.109,5.267,2.539.614,1.124-.055,1.542-1,1.707a10.06,10.06,0,0,1-1.693.031c-4.434.005-4.585-.246-2.57-4.277" transform="translate(-132.749 -58.122)" fill="#e99851"/>
        <path id="Trazado_715660" data-name="Trazado 715660" d="M126.214,176.689a5.12,5.12,0,1,1-5.159-5.134,5.175,5.175,0,0,1,5.159,5.134m-5.145,1.694a1.652,1.652,0,0,0,1.7-1.58,1.673,1.673,0,1,0-3.34-.044,1.65,1.65,0,0,0,1.643,1.623" transform="translate(-66.367 -98.173)" fill="#040404"/>
        <path id="Trazado_715661" data-name="Trazado 715661" d="M125.683,183a1.65,1.65,0,0,1-1.643-1.623,1.673,1.673,0,1,1,3.34.044,1.652,1.652,0,0,1-1.7,1.58" transform="translate(-70.982 -102.794)" fill="#c83e71"/>
      </g>
    </g>
  </g>
</svg>
