<svg xmlns="http://www.w3.org/2000/svg" xmlns:xlink="http://www.w3.org/1999/xlink" width="148" height="154" viewBox="0 0 148 154">
  <defs>
    <clipPath id="clip-path">
      <rect id="Rect치ngulo_353238" data-name="Rect치ngulo 353238" width="148" height="154" transform="translate(-0.484 0.017)" fill="#fff"/>
    </clipPath>
    <clipPath id="clip-path-2">
      <rect id="Rect치ngulo_353237" data-name="Rect치ngulo 353237" width="126.784" height="126.786" fill="#fff"/>
    </clipPath>
  </defs>
  <g id="Grupo_1003252" data-name="Grupo 1003252" transform="translate(-5817 6870)">
    <circle id="Elipse_5702" data-name="Elipse 5702" cx="64.5" cy="64.5" r="64.5" transform="translate(5826 -6857)" fill="#b20d0d"/>
    <g id="Grupo_1003108" data-name="Grupo 1003108" transform="translate(5817.484 -6869.999)">
      <g id="Grupo_1003107" data-name="Grupo 1003107" transform="translate(0 -0.018)" clip-path="url(#clip-path)">
        <g id="Grupo_1003106" data-name="Grupo 1003106" transform="translate(8.517 14.652)">
          <g id="Grupo_1003105" data-name="Grupo 1003105" clip-path="url(#clip-path-2)">
            <g id="Grupo_1003104" data-name="Grupo 1003104">
              <g id="Grupo_1003103" data-name="Grupo 1003103" clip-path="url(#clip-path-2)">
                <path id="Trazado_715324" data-name="Trazado 715324" d="M134.44,42.284c-6.758,0-6.758,0-6.758-6.879,0-6.707,0-6.707,6.7-6.707,6.885,0,6.885,0,6.885,6.775,0,6.811,0,6.811-6.826,6.811" transform="translate(-71.082 -28.698)" fill="#fff"/>
                <path id="Trazado_715325" data-name="Trazado 715325" d="M30.285,146.478c0,6.788,0,6.788-6.85,6.788-6.735,0-6.735,0-6.735-6.674,0-6.911,0-6.911,7-6.913,6.582,0,6.582,0,6.582,6.8" transform="translate(-16.7 -83.08)" fill="#fff"/>
                <path id="Trazado_715326" data-name="Trazado 715326" d="M238.665,146.466c0-6.787,0-6.787,6.849-6.787,6.735,0,6.735,0,6.735,6.671,0,6.917,0,6.917-7,6.917-6.582,0-6.582,0-6.582-6.8" transform="translate(-125.465 -83.08)" fill="#fff"/>
                <path id="Trazado_715327" data-name="Trazado 715327" d="M141.267,257.41c0,6.839,0,6.839-6.824,6.839-6.761,0-6.761,0-6.761-6.648,0-6.938,0-6.938,6.951-6.938,6.633,0,6.633,0,6.633,6.748" transform="translate(-71.082 -137.462)" fill="#fff"/>
                <path id="Trazado_715328" data-name="Trazado 715328" d="M130.185,153.188a2.354,2.354,0,0,1-1.981-3.637,9.454,9.454,0,0,1,1.67-1.9c.845-.8.929-1.534.032-2.35a12.619,12.619,0,0,1-1.4-1.472,2.29,2.29,0,0,1,.114-3.405,2.067,2.067,0,0,1,3.181-.014c2.009,2.531,3.642,2.173,5.577-.083a2.058,2.058,0,0,1,3.171.163,2.285,2.285,0,0,1,.109,3.222,2.509,2.509,0,0,1-.5.572c-1.989,1.454-1.917,2.811-.02,4.369,1.24,1.018,1.668,2.448.369,3.761s-2.728.911-3.759-.331c-1.539-1.854-2.869-2.029-4.38-.027a2.708,2.708,0,0,1-2.187,1.13" transform="translate(-71.144 -83.068)" fill="#fff"/>
                <path id="Trazado_715329" data-name="Trazado 715329" d="M63.315,63.185a2.88,2.88,0,0,1-1.3,2.362,64.654,64.654,0,0,0-8.457,8.447c-1.1,1.312-2.469,2-3.943.644-1.373-1.262-.768-2.59.225-3.827a57.736,57.736,0,0,1,9.19-9.143,2.581,2.581,0,0,1,3.042-.55,2.224,2.224,0,0,1,1.246,2.067" transform="translate(-32.434 -44.439)" fill="#fff"/>
                <path id="Trazado_715330" data-name="Trazado 715330" d="M207.077,60.866a3.925,3.925,0,0,1,2.189,1.016,57.066,57.066,0,0,1,8.98,8.985c.994,1.241,1.578,2.582.2,3.83-1.47,1.335-2.855.667-3.946-.654a67.5,67.5,0,0,0-8.631-8.624,2.5,2.5,0,0,1-.886-3.163,2.353,2.353,0,0,1,2.088-1.389" transform="translate(-108.837 -44.461)" fill="#fff"/>
                <path id="Trazado_715331" data-name="Trazado 715331" d="M51.257,216.736a2.715,2.715,0,0,1,2.166,1.166,66.887,66.887,0,0,0,8.623,8.642c1.231,1.023,1.883,2.333.72,3.762s-2.523,1.048-3.8.03a57.062,57.062,0,0,1-9.33-9.36,2.535,2.535,0,0,1-.475-3.05,2.23,2.23,0,0,1,2.1-1.189" transform="translate(-32.442 -120.838)" fill="#fff"/>
                <path id="Trazado_715332" data-name="Trazado 715332" d="M219.176,219.137a3.619,3.619,0,0,1-.968,2.036,58.062,58.062,0,0,1-8.981,9c-1.329,1.07-2.727,1.657-4,.091-1.159-1.426-.492-2.738.744-3.76a66.388,66.388,0,0,0,8.629-8.642,2.565,2.565,0,0,1,3.161-.951,2.284,2.284,0,0,1,1.417,2.225" transform="translate(-108.785 -120.815)" fill="#fff"/>
                <path id="Trazado_715333" data-name="Trazado 715333" d="M97.634,255.72A40.317,40.317,0,0,1,85.885,250.9a2.046,2.046,0,0,1-.691-2.729,2.135,2.135,0,0,1,2.713-1.337q5.845,2.15,11.587,4.576a2.055,2.055,0,0,1,1.12,2.587c-.358,1.207-1.239,1.775-2.98,1.719" transform="translate(-50.141 -135.522)" fill="#fff"/>
                <path id="Trazado_715334" data-name="Trazado 715334" d="M29.636,109.575a42.156,42.156,0,0,1,4.656-11.467,2.106,2.106,0,0,1,2.923-.736,2.183,2.183,0,0,1,1.19,2.981c-1.537,3.582-3.008,7.182-4.29,10.867a2.176,2.176,0,0,1-2.869,1.447c-1.209-.376-1.717-1.305-1.61-3.093" transform="translate(-23.032 -62.202)" fill="#fff"/>
                <path id="Trazado_715335" data-name="Trazado 715335" d="M243.679,109.494c.055,1.706-.411,2.64-1.639,3.016a2.15,2.15,0,0,1-2.857-1.439c-1.27-3.68-2.75-7.269-4.272-10.848a2.211,2.211,0,0,1,1.187-2.99,2.109,2.109,0,0,1,2.913.763,40.921,40.921,0,0,1,4.668,11.5" transform="translate(-123.523 -62.138)" fill="#fff"/>
                <path id="Trazado_715336" data-name="Trazado 715336" d="M38.592,191.2a2.421,2.421,0,0,1-1.575,2.561,2.118,2.118,0,0,1-2.688-.868,36.21,36.21,0,0,1-4.659-11.979,2.145,2.145,0,0,1,1.389-2.456,1.918,1.918,0,0,1,2.677.721c1.742,4.019,3.3,8.119,4.856,12.019" transform="translate(-23.035 -101.964)" fill="#fff"/>
                <path id="Trazado_715337" data-name="Trazado 715337" d="M243.693,181.371a43.855,43.855,0,0,1-4.555,11.355,2.175,2.175,0,0,1-3.091.9,2.222,2.222,0,0,1-1.118-3.026c1.55-3.579,3.017-7.185,4.294-10.872a2.121,2.121,0,0,1,2.654-1.434c1.346.329,1.947,1.262,1.816,3.082" transform="translate(-123.523 -101.959)" fill="#fff"/>
                <path id="Trazado_715338" data-name="Trazado 715338" d="M169.368,255.7c-1.853.07-2.708-.519-3.051-1.732a2.094,2.094,0,0,1,1.318-2.706c3.74-1.37,7.461-2.773,11.107-4.387a2.17,2.17,0,0,1,2.838,1.066A2.076,2.076,0,0,1,181,250.9a40.438,40.438,0,0,1-11.631,4.807" transform="translate(-89.961 -135.512)" fill="#fff"/>
                <path id="Trazado_715339" data-name="Trazado 715339" d="M169.435,41.7a40.216,40.216,0,0,1,11.495,4.682,2.089,2.089,0,0,1,.644,2.945,2.166,2.166,0,0,1-2.794,1.165q-5.6-2.1-11.118-4.393a2.107,2.107,0,0,1-1.272-2.73c.37-1.231,1.282-1.73,3.046-1.669" transform="translate(-89.99 -35.067)" fill="#fff"/>
                <path id="Trazado_715340" data-name="Trazado 715340" d="M97.479,41.706c1.774-.094,2.787.389,3.127,1.769a2.221,2.221,0,0,1-1.619,2.794c-3.626,1.214-7.159,2.644-10.66,4.173a2.17,2.17,0,0,1-2.972-1.215,2.11,2.11,0,0,1,.77-2.92,42.11,42.11,0,0,1,11.355-4.6" transform="translate(-50.2 -35.066)" fill="#fff"/>
              </g>
            </g>
          </g>
        </g>
      </g>
    </g>
  </g>
</svg>
