<svg xmlns="http://www.w3.org/2000/svg" xmlns:xlink="http://www.w3.org/1999/xlink" width="129" height="129" viewBox="0 0 129 129">
  <defs>
    <clipPath id="clip-path">
      <rect id="Rectángulo_353292" data-name="Rectángulo 353292" width="110.927" height="110.872" fill="none"/>
    </clipPath>
  </defs>
  <g id="Grupo_1003272" data-name="Grupo 1003272" transform="translate(-12594 8465.121)">
    <circle id="Elipse_5719" data-name="Elipse 5719" cx="64.5" cy="64.5" r="64.5" transform="translate(12594 -8465.121)" fill="#ffc403"/>
    <g id="Grupo_1003168" data-name="Grupo 1003168" transform="translate(12602.631 -8465.121)">
      <g id="Grupo_1003167" data-name="Grupo 1003167" clip-path="url(#clip-path)">
        <path id="Trazado_715726" data-name="Trazado 715726" d="M.938,148.328c-1.075-1.468-.956-3.138-.814-4.812A8.046,8.046,0,0,1,3.153,139.6c1.664-1.007,3.5-1,5.353-.994,4.232.013,6.315-2.107,6.326-6.375,0-1.844,0-3.688,0-5.531q.037-25.465.076-50.93l11.974,0c4.191,6.3,9.8,10.334,17.526,10.986H48.1a20.813,20.813,0,0,0,13.444-6.138c1.806-1.242,2.762-3.2,4.1-4.841l23.042-.006.094,12.887c-3.717.159-3.716.159-3.717,3.97q0,1.709-.006,3.417c-1.094.23-1.861.8-1.81,2.013.077,1.816,1.749,1.623,3.124,1.969l-13.883,10.43c-1.853-1.029-3.7-2.116-5.91-.983-.847-.007-1.38.671-2.092.958-4.069-3.3-8.394-6.258-12.689-9.252-.029-5.262-3-7.866-7.4-6.475-3.108,1.253-3.988,3.041-3.523,7.16q-4.854,3.5-9.705,7.011c-2.423,1.761-4.843,3.525-7.239,5.323-1.1.828-2.5,1.7-1.239,3.325,1.139,1.467,2.308.541,3.391-.245.187-.135.362-.286.547-.423Q35,110.724,43.362,104.6a6.088,6.088,0,0,0,6.471-.37l12.954,9.262q.048.684.1,1.368a5.551,5.551,0,0,0,4.6,5.25c2.75.429,4.953-.905,6.061-3.67.724-.817.279-1.841.486-2.75,5.628-4.1,11.287-8.161,16.863-12.331a6.143,6.143,0,0,1,4.6-1.567c1.169.141,2.211-.2,2.439-1.521S97.36,96.3,96.16,96.04q-.039-.881-.079-1.763c.273-5.344.222-5.423-3.623-5.641q.037-6.435.074-12.87c4.112,0,8.224-.008,12.337.024.8.006,1.694-.292,2.374.443q0,32.556,0,65.113c0,4.367-2.126,6.506-6.466,6.506q-48.49,0-96.981.018c-.956,0-2.017-.378-2.856.457m24.994-20.721a1.783,1.783,0,0,0,2.343,1.664,3.009,3.009,0,0,0,1.4-.777c2.42-2.359,4.775-2.481,7.241-.033a2.544,2.544,0,0,0,3.905-.01c2.476-2.477,4.836-2.287,7.233.061a4.532,4.532,0,0,0,.778.492,1.687,1.687,0,0,0,2.154.015c3.033-2.929,5.956-2.916,9.026-.013.842.8,1.919.445,2.567-.559a1.666,1.666,0,0,0-.521-2.428c-1.109-.828-2.269-1.587-3.419-2.357-3.137-2.1-3.245-2.236-6.2.022-1.848,1.41-3.149,1.376-4.98-.016-2.942-2.237-3.045-2.1-6.207.008a5.912,5.912,0,0,0-.758.527,2.118,2.118,0,0,1-3.21.045,16.953,16.953,0,0,0-2.48-1.684c-1.77-1.05-8.783,2.831-8.866,5.043M39.04,138.731a9.617,9.617,0,0,0,1.945-1.161c2.326-2.26,4.574-2.209,6.853.033a5.2,5.2,0,0,0,.764.516,1.919,1.919,0,0,0,2.559.042c2.892-2.815,5.673-2.934,8.617-.041a1.7,1.7,0,0,0,2.779-.41c.772-1.179.141-2.05-.825-2.727-1.2-.839-2.513-1.524-3.629-2.455-1.746-1.455-3.4-1.677-5.091-.032-2.041,1.988-4.008,2.044-6.093.024-1.53-1.481-3.24-1.75-4.868-.109-2.2,2.221-4.29,1.988-6.488-.049-.816-.755-1.866-1.633-3.1-.885-1.97,1.2-3.879,2.5-5.761,3.83a1.627,1.627,0,0,0-.437,2.433,1.723,1.723,0,0,0,2.417.615,1.5,1.5,0,0,0,.4-.226c2.778-2.746,5.55-2.926,8.392-.066a5.007,5.007,0,0,0,1.567.668M64.606,94.982c-.007.73-.524,1.019-.885,1.387-.864.881-1.232,1.813-.266,2.812A1.686,1.686,0,0,0,66.241,99c1.1-1.4,1.834-.706,2.73.2a1.652,1.652,0,0,0,2.628-.053,1.584,1.584,0,0,0-.054-2.455c-1.119-1-1.454-1.806-.1-2.9a1.8,1.8,0,1,0-2.514-2.572c-1.074,1.295-1.872,1.131-2.905-.042a1.627,1.627,0,0,0-2.624.031,1.75,1.75,0,0,0,.18,2.653c.365.384.712.786,1.019,1.127M92.5,113.665c-.421.474-.751.878-1.116,1.249-.878.9-1.138,1.847-.158,2.8a1.715,1.715,0,0,0,2.784-.268c.97-1.2,1.668-.88,2.54.1a1.7,1.7,0,0,0,2.786.069A1.652,1.652,0,0,0,99.119,115c-1.224-.995-1.06-1.753.046-2.705a1.67,1.67,0,0,0,.152-2.628,1.63,1.63,0,0,0-2.618-.013c-1.023,1.164-1.809,1.355-2.88.05a1.641,1.641,0,0,0-2.622-.093,1.733,1.733,0,0,0,.028,2.647c.4.447.8.885,1.275,1.411m-12.165,19.4c1.4.06,2.811-.039,2.823-1.859.011-1.651-1.261-1.856-2.612-1.85-1.388.006-2.811.049-2.82,1.873-.008,1.647,1.257,1.906,2.609,1.835m9.457,0c1.25.1,2.541-.123,2.6-1.748.069-1.807-1.306-1.964-2.729-1.962-1.325,0-2.641.118-2.7,1.766-.062,1.807,1.3,2.014,2.823,1.944m9.109,0c1.329.072,2.734-.046,2.746-1.859.011-1.65-1.264-1.853-2.615-1.848-1.39,0-2.81.053-2.818,1.876-.007,1.648,1.262,1.9,2.687,1.831" transform="translate(-0.018 -40.72)" fill="#e3eef6"/>
        <path id="Trazado_715727" data-name="Trazado 715727" d="M72.5,52.31c-7.729-.652-13.335-4.69-17.525-10.986-1.3-2.961-2.587-5.925-2.693-9.234.384,0,.768-.007,1.153.006,1.314.047,2.374-.366,2.374-1.85s-1.058-1.9-2.373-1.851c-.384.013-.768.007-1.153.01A20.321,20.321,0,0,1,57.59,15.9l.572-.495h-.086A28.526,28.526,0,0,1,73.539,11.73l.179-.012.155.091c.506.607,1.282.476,1.923.633A21.548,21.548,0,0,1,90.92,25.106a53.373,53.373,0,0,1,1.862,5.612.307.307,0,0,1,.08.336c-.222,1.979-.032,3.961-.3,5.967-.43,3.267-2.165,6.039-2.93,9.151A20.813,20.813,0,0,1,76.192,52.31c0-.384-.01-.769,0-1.153.046-1.315-.361-2.377-1.85-2.377s-1.9,1.061-1.851,2.376c.014.384.006.769.007,1.154m-.006-28.685c0,1.921.012,3.842-.006,5.763a2.909,2.909,0,0,0,.73,2.329c1.756,1.72,3.478,3.476,5.218,5.213.9.9,1.872,1.086,2.806.1a1.722,1.722,0,0,0-.164-2.645c-1.128-1.154-2.212-2.363-3.436-3.406a4.141,4.141,0,0,1-1.479-3.62c.1-3.224.027-6.454.027-9.681,0-1.24-.494-2.163-1.825-2.179s-1.866.875-1.868,2.129q0,3,0,5.994" transform="translate(-28.111 -6.278)" fill="#fec929"/>
        <path id="Trazado_715728" data-name="Trazado 715728" d="M.1,124.8Q.066,100.018.03,75.239c-.006-4-.075-7.993.02-11.987.133-5.6,5.512-8.813,10.614-6.42a18.328,18.328,0,0,1,.473,2.94Q11.1,88.988,11.109,118.2c0,3.869-2.3,6.079-6.226,6.117A12.637,12.637,0,0,0,.1,124.8" transform="translate(0 -30.126)" fill="#549ad3"/>
        <path id="Trazado_715729" data-name="Trazado 715729" d="M1.991,148.907c.84-.835,1.9-.456,2.856-.457q48.491-.031,96.982-.018c4.34,0,6.466-2.14,6.466-6.506q0-32.557,0-65.113a5.238,5.238,0,0,1,3.68,5.265q.043,32.109,0,64.217c-.005,3.715-2.444,5.831-6.5,5.832q-41.235.007-82.47,0c-4.774,0-9.551-.1-14.321.038a7.239,7.239,0,0,1-6.692-3.259" transform="translate(-1.07 -41.299)" fill="#c3dbef"/>
        <path id="Trazado_715730" data-name="Trazado 715730" d="M.223,125.729A12.638,12.638,0,0,1,5,125.251c3.927-.038,6.223-2.248,6.226-6.117q.026-29.215.028-58.431a18.327,18.327,0,0,0-.473-2.94c3.768,1.585,4.251,4.835,4.227,8.341q-.038,25.465-.076,50.93c0,1.844,0,3.688,0,5.531-.011,4.268-2.093,6.388-6.326,6.375-1.856-.006-3.689-.012-5.353.994a8.044,8.044,0,0,0-3.029,3.918q0-4.063,0-8.125" transform="translate(-0.12 -31.057)" fill="#3688ca"/>
        <path id="Trazado_715731" data-name="Trazado 715731" d="M117.89,26.634a53.348,53.348,0,0,0-1.863-5.613A21.549,21.549,0,0,0,100.9,8.358c-.641-.157-1.418-.026-1.923-.633,2.6-.064,2.37-1.9,2.288-3.645a21.982,21.982,0,0,1,20.264,20.261c-1.742-.074-3.585-.308-3.643,2.293" transform="translate(-53.218 -2.194)" fill="#ebb203"/>
        <path id="Trazado_715732" data-name="Trazado 715732" d="M191.878,60.813q-.048-6.443-.095-12.887.037-10.807.067-21.614c0-1.21.34-2.207,1.658-2.341,1.3-.133,1.96.657,2.05,1.934.016.229.045.458.068.687q-.007,9.418-.015,18.836.008,1.25.017,2.5-.037,6.435-.074,12.87l-3.716.128Z" transform="translate(-103.115 -12.881)" fill="#549ad3"/>
        <path id="Trazado_715733" data-name="Trazado 715733" d="M208.016,33.7q6.708,3.291,13.414,6.586a1.958,1.958,0,0,1,1.294,1.752,1.933,1.933,0,0,1-1.423,1.887q-6.631,2.6-13.271,5.187-.007-7.706-.014-15.413" transform="translate(-111.843 -18.119)" fill="#fe5353"/>
        <path id="Trazado_715734" data-name="Trazado 715734" d="M203.741,31.525q.007,7.706.014,15.413l-3.69,1.553q.008-9.417.015-18.835a13.15,13.15,0,0,1,3.661,1.869" transform="translate(-107.568 -15.945)" fill="#fe2a2a"/>
        <path id="Trazado_715735" data-name="Trazado 715735" d="M80.276,7.646A28.526,28.526,0,0,0,64.813,11.32c3.751-4.538,8.681-6.726,14.449-7.239-.043,1.3-.244,2.638,1.014,3.565" transform="translate(-34.848 -2.194)" fill="#ebb306"/>
        <path id="Trazado_715736" data-name="Trazado 715736" d="M133.073,68.705c.765-3.112,2.5-5.884,2.93-9.151.264-2.006.075-3.988.3-5.967.928,1.257,2.269,1.056,3.566,1.008-.055,3.334-1.375,6.3-2.69,9.268-1.34,1.637-2.3,3.6-4.1,4.841" transform="translate(-71.549 -28.812)" fill="#ebb306"/>
        <path id="Trazado_715737" data-name="Trazado 715737" d="M178.109,12.352c-.167.967-.815,1.835-1.939,1.609a3.776,3.776,0,0,1-3.026-3.04c-.209-1.086.659-1.834,1.8-1.918,1.091-.08,3.187,2.1,3.164,3.349" transform="translate(-93.077 -4.84)" fill="#fdca2f"/>
        <path id="Trazado_715738" data-name="Trazado 715738" d="M212.992,10.744c-.015,1.228-2.167,3.342-3.244,3.256a1.78,1.78,0,0,1-1.772-1.745c-.1-1.066,2-3.293,3.1-3.255a1.9,1.9,0,0,1,1.918,1.744" transform="translate(-111.819 -4.838)" fill="#fdca2f"/>
        <path id="Trazado_715739" data-name="Trazado 715739" d="M195.618,2.523c.061,1.471-.031,2.892-1.848,2.912-1.647.018-1.872-1.247-1.865-2.6.007-1.386.047-2.814,1.868-2.832,1.645-.017,1.93,1.235,1.845,2.523" transform="translate(-103.18 0)" fill="#fdca2f"/>
        <path id="Trazado_715740" data-name="Trazado 715740" d="M143.525,51.493c-1.3.048-2.637.248-3.566-1.008a.307.307,0,0,0-.08-.336c.058-2.6,1.9-2.366,3.643-2.293q0,1.818,0,3.637" transform="translate(-75.209 -25.709)" fill="#3688ca"/>
        <path id="Trazado_715741" data-name="Trazado 715741" d="M52.284,47.844c.384,0,.769,0,1.153-.01,1.315-.047,2.374.367,2.374,1.851s-1.06,1.9-2.375,1.85c-.384-.014-.768-.005-1.153-.006q0-1.843,0-3.685" transform="translate(-28.111 -25.717)" fill="#559ad2"/>
        <path id="Trazado_715742" data-name="Trazado 715742" d="M97.035,7.645c-1.258-.927-1.056-2.268-1.014-3.565h3.636c.082,1.745.308,3.581-2.288,3.645l-.155-.091Z" transform="translate(-51.607 -2.193)" fill="#3688ca"/>
        <path id="Trazado_715743" data-name="Trazado 715743" d="M64.334,19.737l-.572.495.572-.495" transform="translate(-34.283 -10.612)" fill="#ebb306"/>
        <path id="Trazado_715744" data-name="Trazado 715744" d="M56.051,181.454c.083-2.211,7.1-6.094,8.866-5.043a17,17,0,0,1,2.48,1.684,2.118,2.118,0,0,0,3.21-.045,5.958,5.958,0,0,1,.758-.527c3.162-2.111,3.265-2.245,6.207-.008,1.832,1.393,3.133,1.426,4.98.017,2.96-2.258,3.068-2.124,6.205-.022,1.15.77,2.311,1.529,3.419,2.357a1.667,1.667,0,0,1,.521,2.428c-.648,1-1.726,1.355-2.568.559-3.069-2.9-5.993-2.916-9.026.012a1.687,1.687,0,0,1-2.154-.014,4.517,4.517,0,0,1-.778-.493c-2.4-2.348-4.757-2.538-7.233-.061a2.544,2.544,0,0,1-3.905.009c-2.466-2.448-4.821-2.326-7.242.033a3,3,0,0,1-1.4.777,1.782,1.782,0,0,1-2.343-1.664" transform="translate(-30.137 -94.567)" fill="#579bd4"/>
        <path id="Trazado_715745" data-name="Trazado 715745" d="M69.12,203.223a5.007,5.007,0,0,1-1.567-.668c-2.842-2.861-5.614-2.68-8.392.066a1.493,1.493,0,0,1-.4.226,1.724,1.724,0,0,1-2.417-.615,1.627,1.627,0,0,1,.437-2.434c1.883-1.331,3.791-2.634,5.761-3.829,1.232-.748,2.283.129,3.1.884,2.2,2.037,4.284,2.27,6.488.049,1.629-1.641,3.339-1.372,4.868.11,2.086,2.02,4.052,1.965,6.093-.024,1.688-1.645,3.345-1.424,5.092.032,1.116.93,2.433,1.616,3.629,2.454.966.677,1.6,1.548.825,2.728a1.694,1.694,0,0,1-2.778.409c-2.944-2.893-5.725-2.774-8.617.042a1.92,1.92,0,0,1-2.559-.042,5.237,5.237,0,0,1-.764-.516c-2.278-2.242-4.526-2.294-6.853-.033a9.626,9.626,0,0,1-1.945,1.161" transform="translate(-30.098 -105.213)" fill="#579bd4"/>
        <path id="Trazado_715746" data-name="Trazado 715746" d="M156.747,134.065l13.884-10.431c-1.375-.346-3.046-.154-3.124-1.969-.051-1.212.716-1.782,1.81-2.012h11.1c1.2.261,2,.922,1.773,2.23s-1.27,1.661-2.439,1.521a6.143,6.143,0,0,0-4.6,1.567c-5.576,4.17-11.235,8.23-16.863,12.331l-1.546-3.237" transform="translate(-84.277 -64.333)" fill="#fdca2d"/>
        <path id="Trazado_715747" data-name="Trazado 715747" d="M69.132,134.981,52.405,147.233c-.186.136-.361.287-.547.423-1.084.786-2.253,1.711-3.392.244-1.264-1.629.137-2.5,1.239-3.324,2.395-1.8,4.815-3.563,7.238-5.324q4.843-3.519,9.7-7.008a10.576,10.576,0,0,0,2.484,2.737" transform="translate(-25.79 -71.103)" fill="#fdca2f"/>
        <path id="Trazado_715748" data-name="Trazado 715748" d="M137.687,112.177c-.307-.341-.655-.743-1.019-1.127a1.75,1.75,0,0,1-.18-2.654,1.627,1.627,0,0,1,2.624-.03c1.033,1.173,1.832,1.336,2.905.041a1.8,1.8,0,1,1,2.514,2.572c-1.358,1.1-1.023,1.91.1,2.905a1.583,1.583,0,0,1,.054,2.455,1.652,1.652,0,0,1-2.628.053c-.9-.905-1.629-1.6-2.73-.2a1.686,1.686,0,0,1-2.786.184c-.966-1-.6-1.932.266-2.812.361-.368.878-.657.885-1.387" transform="translate(-73.099 -57.915)" fill="#579bd4"/>
        <path id="Trazado_715749" data-name="Trazado 715749" d="M197.814,152.348c-.475-.525-.879-.964-1.275-1.411a1.733,1.733,0,0,1-.028-2.646,1.641,1.641,0,0,1,2.622.093c1.072,1.3,1.857,1.114,2.88-.05a1.63,1.63,0,0,1,2.618.013,1.67,1.67,0,0,1-.152,2.628c-1.106.952-1.27,1.711-.046,2.705a1.652,1.652,0,0,1,.215,2.618,1.7,1.7,0,0,1-2.786-.068c-.872-.98-1.569-1.3-2.539-.1a1.716,1.716,0,0,1-2.784.268c-.98-.955-.72-1.907.158-2.8.364-.371.695-.776,1.116-1.25" transform="translate(-105.334 -79.404)" fill="#fdca2d"/>
        <path id="Trazado_715750" data-name="Trazado 715750" d="M120.7,143.074l-12.953-9.262c.56-.837,1.438-1.489,1.523-2.6l.44-.453c4.3,3,8.62,5.948,12.689,9.252q-.85,1.533-1.7,3.066" transform="translate(-57.932 -70.303)" fill="#fdca2f"/>
        <path id="Trazado_715751" data-name="Trazado 715751" d="M135.765,152.721q.849-1.533,1.7-3.066c.712-.287,1.245-.964,2.092-.958a6.043,6.043,0,0,0,6.97,6.971c-1.108,2.765-3.31,4.1-6.06,3.671a5.552,5.552,0,0,1-4.6-5.25q-.047-.684-.1-1.368" transform="translate(-72.996 -79.949)" fill="#fe2d2c"/>
        <path id="Trazado_715752" data-name="Trazado 715752" d="M98.72,123.679c-.085,1.115-.964,1.767-1.523,2.6a6.089,6.089,0,0,1-6.471.37,10.572,10.572,0,0,1-2.486-2.739c-.464-4.122.416-5.909,3.524-7.162.043,5.037,1.99,6.976,6.956,6.927" transform="translate(-47.381 -62.773)" fill="#fe2d2c"/>
        <path id="Trazado_715753" data-name="Trazado 715753" d="M150.875,155.108a6.044,6.044,0,0,1-6.97-6.971c2.214-1.133,4.058-.046,5.911.983q.771,1.619,1.545,3.238c-.206.909.239,1.933-.485,2.75" transform="translate(-77.346 -79.389)" fill="#fe5352"/>
        <path id="Trazado_715754" data-name="Trazado 715754" d="M102.954,123.248c-4.966.049-6.913-1.89-6.956-6.927,4.393-1.391,7.367,1.213,7.4,6.475l-.44.452" transform="translate(-51.615 -62.342)" fill="#fe5352"/>
        <path id="Trazado_715755" data-name="Trazado 715755" d="M195.038,111.062h-11.1q0-1.709,0-3.418c0-3.812,0-3.812,3.718-3.97l-.038.11c.007.766.016,1.532.021,2.3.021,2.821.373,3.174,3.182,3.193q2.068.014,4.136.022.04.881.079,1.763" transform="translate(-98.896 -55.742)" fill="#fe2a2a"/>
        <path id="Trazado_715756" data-name="Trazado 715756" d="M199.243,109.279q-2.068-.011-4.136-.022c-2.81-.019-3.161-.373-3.182-3.193q-.009-1.149-.021-2.3l3.716-.128c3.845.218,3.9.3,3.623,5.641" transform="translate(-103.18 -55.722)" fill="#fe5352"/>
        <path id="Trazado_715757" data-name="Trazado 715757" d="M170.684,195.425c-1.355.07-2.62-.189-2.612-1.836.009-1.824,1.432-1.868,2.82-1.873,1.351-.006,2.623.2,2.612,1.85-.012,1.819-1.427,1.918-2.82,1.859" transform="translate(-90.366 -103.079)" fill="#fe5353"/>
        <path id="Trazado_715758" data-name="Trazado 715758" d="M190.884,195.421c-1.52.07-2.886-.137-2.823-1.943.057-1.648,1.374-1.764,2.7-1.767,1.424,0,2.8.155,2.729,1.962-.062,1.625-1.354,1.843-2.6,1.748" transform="translate(-101.112 -103.076)" fill="#fdca2d"/>
        <path id="Trazado_715759" data-name="Trazado 715759" d="M210.749,195.422c-1.424.071-2.694-.183-2.687-1.831.008-1.823,1.428-1.871,2.818-1.876,1.35,0,2.625.2,2.615,1.848-.012,1.813-1.417,1.931-2.746,1.859" transform="translate(-111.868 -103.079)" fill="#fe5353"/>
        <path id="Trazado_715760" data-name="Trazado 715760" d="M96,95.458c0-.385.006-.77-.007-1.154-.047-1.316.364-2.376,1.851-2.376s1.9,1.062,1.85,2.376c-.014.384,0,.769,0,1.154H96" transform="translate(-51.611 -49.426)" fill="#559ad2"/>
        <path id="Trazado_715761" data-name="Trazado 715761" d="M95.994,28.074q0-3,0-5.994c0-1.254.54-2.145,1.868-2.129s1.825.94,1.825,2.179c0,3.228.07,6.457-.027,9.681a4.141,4.141,0,0,0,1.479,3.62c1.224,1.043,2.308,2.253,3.436,3.406a1.722,1.722,0,0,1,.164,2.645c-.934.983-1.907.795-2.806-.1-1.74-1.737-3.462-3.493-5.218-5.213a2.909,2.909,0,0,1-.73-2.329c.018-1.921.006-3.842.007-5.763" transform="translate(-51.609 -10.727)" fill="#559ad2"/>
      </g>
    </g>
  </g>
</svg>
