<svg xmlns="http://www.w3.org/2000/svg" xmlns:xlink="http://www.w3.org/1999/xlink" width="129" height="135.038" viewBox="0 0 129 135.038">
  <defs>
    <clipPath id="clip-path">
      <rect id="Rectángulo_353309" data-name="Rectángulo 353309" width="103.666" height="128.763" fill="none"/>
    </clipPath>
  </defs>
  <g id="Grupo_1003277" data-name="Grupo 1003277" transform="translate(-388 -558.962)">
    <circle id="Elipse_5694" data-name="Elipse 5694" cx="64.5" cy="64.5" r="64.5" transform="translate(388 565)" fill="#b20d0d"/>
    <g id="Grupo_1003174" data-name="Grupo 1003174" transform="translate(400.746 558.962)">
      <g id="Grupo_1003173" data-name="Grupo 1003173" clip-path="url(#clip-path)">
        <path id="Trazado_715784" data-name="Trazado 715784" d="M108.091,157.391c2.21,6.709,4.373,13.433,6.674,20.111.391,1.135.086,2.789,1.78,3.26-9.5,12.187-21.492,20.728-36.642,24.259-19.653,4.581-37.694.79-53.962-11.219a4.148,4.148,0,0,0,1.206-2.388q2.685-8.379,5.359-16.761a23.393,23.393,0,0,0,8.611,1.027c2.116-.092,3.917-1.344,6-1.523-.083,2.192-.939,4.213-1.4,6.322-.76,3.5-.2,6.694,2.591,9.142a8.136,8.136,0,0,0,8.83,1.625c3.885-1.445,5.91-4.42,5.958-8.919.046-4.275.01-8.55.01-12.825l3.148.031c.006,4.432-.047,8.865.03,13.3.118,6.778,6.6,10.685,11.973,8.38,4.6-1.975,6.508-5.773,5.414-10.729-.465-2.107-1.32-4.13-1.377-6.326.639.153,1.3.252,1.916.467,5.527,1.917,10.82,1.534,15.758-1.709,5.561-3.654,7.718-9.141,8.119-15.522" transform="translate(-12.879 -78.141)" fill="#fee4be"/>
        <path id="Trazado_715785" data-name="Trazado 715785" d="M19.626,174.645q-2.678,8.381-5.359,16.762a4.147,4.147,0,0,1-1.206,2.388A57.17,57.17,0,0,1,0,180.738c1.278-.152,1.14-1.332,1.392-2.1,2.006-6.157,3.925-12.341,5.9-18.508.3-.94.743-1.834,1.12-2.748a43.034,43.034,0,0,0,.735,4.644c1.527,5.7,4.409,10.3,10.437,12.167.014.152.028.3.043.456" transform="translate(0 -78.135)" fill="#fedfa7"/>
        <path id="Trazado_715786" data-name="Trazado 715786" d="M69.453,20.087c-1.207-1.348-.181-2.581.4-3.633a11.184,11.184,0,0,1,5.566-5.183c.749-.306,1.617-.454,1.544-1.624C76.64,4.5,79.553,1.684,84,0l4.044,0,.969.434c-3.074,2.5-5.515,5.329-5,9.688.4,3.38.67,6.779,1.208,10.135.312,1.947.264,3.985,1.28,5.816.693,1.247,2.248,1.809,2.523,3.344-3.967,1.4-6.447.665-9.539-2.842C78.281,24.1,78.217,21.4,78,18.752c-.15-1.829-.868-2.167-2.4-1.468q-3.073,1.4-6.149,2.8" transform="translate(-34.203)" fill="#e8434b"/>
        <path id="Trazado_715787" data-name="Trazado 715787" d="M72.6,43.3c3.093,3.507,5.571,4.245,9.539,2.842a7.073,7.073,0,0,0,4.413-5.606,27.3,27.3,0,0,0,.665-6.659,2.923,2.923,0,0,1,2.357.192,47.836,47.836,0,0,1,6.656,3.1c8.092,5.427,12.71,13.122,14.708,22.528a4.8,4.8,0,0,0-5,1.563c-3.455,3.6-3.424,11.251.029,14.83,1.968,2.039,3.971,2.2,6.442.52,1.529-.859,1.932-2.549,2.848-3.861,2.083,6.491,4.1,13,6.3,19.456.427,1.254-.055,2.709.97,3.774-.4,6.38-2.557,11.867-8.118,15.521-4.938,3.244-10.232,3.627-15.758,1.709-.618-.214-1.277-.314-1.916-.466a6.084,6.084,0,0,1-.822-2.994c.945,0,1.839.036,2.731-.006a10.068,10.068,0,0,0,9.158-5.933c1.825-3.761,1.647-7.629-1.026-10.834a51.09,51.09,0,0,0-10.015-8.94l.019.034-.4-.556a11.124,11.124,0,0,0-5.093-7.945c2.027-2.149,2.618-4.605,1.3-7.294-1.393-2.835-3.877-3.66-6.864-3.331-.427-2.8-1.335-5.252-4.447-6.095-4.536-1.54-7.792.732-8.732,6.093-2.918-.344-5.344.484-6.77,3.183-1.416,2.682-.821,5.167,1.129,7.391A13.134,13.134,0,0,0,61.6,83.7l-6.572,5.561a9.972,9.972,0,0,1,.236-1.716c3.654-11.521,7.255-23.06,11.04-34.538,1.228-3.724,3.007-7.247,6.3-9.71" transform="translate(-27.322 -16.723)" fill="#fef7ef"/>
        <path id="Trazado_715788" data-name="Trazado 715788" d="M108.945,17.578a27.3,27.3,0,0,1-.665,6.659,7.073,7.073,0,0,1-4.413,5.606c-.274-1.535-1.83-2.1-2.522-3.344-1.017-1.83-.969-3.869-1.281-5.815-.538-3.357-.81-6.756-1.208-10.135-.513-4.359,1.927-7.186,5-9.689,4.822,1.9,6.543,5.584,6.072,10.533q-.492,3.093-.984,6.185" transform="translate(-49.046 -0.427)" fill="#fc5858"/>
        <path id="Trazado_715789" data-name="Trazado 715789" d="M160.074,102.061c-2.471,1.681-4.474,1.52-6.442-.519-3.454-3.58-3.484-11.233-.03-14.83a4.8,4.8,0,0,1,5-1.563l1.523,1.09a12.919,12.919,0,0,0-.051,15.823" transform="translate(-74.982 -42.18)" fill="#3b4c4b"/>
        <path id="Trazado_715790" data-name="Trazado 715790" d="M166.352,103.323A12.919,12.919,0,0,1,166.4,87.5c2.905,2.445,3.486,5.711,3.226,9.251-.066.91-.28,1.809-.428,2.712-.917,1.31-1.32,3-2.849,3.859" transform="translate(-81.26 -43.442)" fill="#536867"/>
        <path id="Trazado_715791" data-name="Trazado 715791" d="M118.961,27.964q.492-3.093.984-6.185a9.929,9.929,0,0,1,8.03,9.475,47.78,47.78,0,0,0-6.656-3.1,2.923,2.923,0,0,0-2.357-.192" transform="translate(-59.062 -10.813)" fill="#e9454c"/>
        <path id="Trazado_715792" data-name="Trazado 715792" d="M53.577,43.283c-3.29,2.463-5.068,5.987-6.3,9.71-3.785,11.478-7.386,23.017-11.04,34.538A9.972,9.972,0,0,0,36,89.248c-4.482,3.622-6.845,8.017-5.072,13.919a60.765,60.765,0,0,1-3.055,9.6C21.85,110.9,18.968,106.3,17.44,100.6a43.054,43.054,0,0,1-.734-4.644c.507-3.555,2.071-6.792,3.08-10.2,1.3-4.376,2.782-8.7,4.185-13.039a27.679,27.679,0,0,0,1.65,2.769c1.934,2.549,4.265,2.9,6.9,1.129a11.094,11.094,0,0,0,.051-15.906A4.094,4.094,0,0,0,28.284,59.7c2.052-9.658,6.8-17.519,15.261-22.906q3.074-1.4,6.149-2.8c1.53-.7,2.248-.361,2.4,1.467.217,2.646.282,5.352,1.485,7.823" transform="translate(-8.294 -16.709)" fill="#f6e8da"/>
        <path id="Trazado_715793" data-name="Trazado 715793" d="M39.18,102.089c-2.633,1.77-4.964,1.42-6.9-1.129a27.482,27.482,0,0,1-1.65-2.769,14.784,14.784,0,0,1-.01-7.589c.765-2.342,1.9-4.4,4.324-5.426a4.094,4.094,0,0,1,4.284,1.008,12.969,12.969,0,0,0-.05,15.906" transform="translate(-14.956 -42.183)" fill="#3b4c4b"/>
        <path id="Trazado_715794" data-name="Trazado 715794" d="M128.555,133.672a51.1,51.1,0,0,1,10.015,8.94c2.673,3.205,2.851,7.073,1.027,10.834a10.069,10.069,0,0,1-9.158,5.933c-.892.042-1.786.006-2.731.006a6.082,6.082,0,0,0,.822,2.994c.056,2.2.911,4.219,1.377,6.326,1.093,4.955-.817,8.753-5.414,10.728-3.825-2.021-5.158-5.25-5.051-9.48.168-6.669.055-13.345.031-20.018,0-.887.289-1.849-.411-2.639l7.176-8.949c3.236-.338,2.043-2.869,2.317-4.675" transform="translate(-59.112 -66.365)" fill="#fc5858"/>
        <path id="Trazado_715795" data-name="Trazado 715795" d="M44.375,152.5c-1.773-5.9.59-10.3,5.072-13.919l6.571-5.56c.148,1.95-1.115,4.532,2.257,5.035.508.658,1.034,1.3,1.52,1.976,2.039,2.831,4.937,5.015,6.294,8.357-.909,6.193-2.756,12.175-4.435,18.169C60.133,172,61.421,176.03,66,179.148a8.136,8.136,0,0,1-8.83-1.626c-2.794-2.448-3.351-5.64-2.591-9.142.458-2.109,1.313-4.13,1.4-6.322-.01-1.023,2.168-2.917-.353-2.9-5.272.026-8.81-2.215-11.246-6.653" transform="translate(-21.738 -66.043)" fill="#e8434b"/>
        <path id="Trazado_715796" data-name="Trazado 715796" d="M83.019,194.3c-4.579-3.117-5.867-7.151-4.345-12.588,1.679-5.994,3.526-11.975,4.435-18.168a6.558,6.558,0,0,1,1.434,3.133,7.292,7.292,0,0,0,4.444,5.879c0,4.275.037,8.55-.009,12.825-.048,4.5-2.074,7.474-5.958,8.919" transform="translate(-38.758 -81.197)" fill="#fc5858"/>
        <path id="Trazado_715797" data-name="Trazado 715797" d="M112.569,160.729c.7.791.407,1.752.41,2.639.024,6.673.137,13.349-.031,20.018-.107,4.23,1.226,7.46,5.051,9.481-5.37,2.305-11.855-1.6-11.974-8.38-.078-4.431-.025-8.864-.03-13.3l1-.808a4.8,4.8,0,0,0,3.021-3.711,14.108,14.108,0,0,1,2.552-5.943" transform="translate(-52.618 -79.798)" fill="#e9454c"/>
        <path id="Trazado_715798" data-name="Trazado 715798" d="M90.406,158.937l-1,.807-3.148-.031a7.292,7.292,0,0,1-4.445-5.879,6.555,6.555,0,0,0-1.434-3.133c-1.356-3.344-4.255-5.528-6.294-8.358-.485-.674-1.012-1.318-1.519-1.977.778-.178,1.646-.14,2.112-1,1.24-2.279,2.852-2.013,4.615-.657a41.644,41.644,0,0,0,6.039,6.038c.509,2.438,2.5,4.463,2.431,6.955a10.149,10.149,0,0,0,2.641,7.235" transform="translate(-36.028 -68.351)" fill="#f1b532"/>
        <path id="Trazado_715799" data-name="Trazado 715799" d="M41.947,171.707c2.436,4.437,5.974,6.678,11.246,6.653,2.522-.013.343,1.881.353,2.9-2.082.179-3.884,1.431-6,1.523a23.382,23.382,0,0,1-8.61-1.027c-.015-.152-.029-.3-.043-.456a60.724,60.724,0,0,0,3.054-9.6" transform="translate(-19.31 -85.249)" fill="#fef7ef"/>
        <path id="Trazado_715800" data-name="Trazado 715800" d="M91.963,117.928a41.621,41.621,0,0,1-6.039-6.039c0-1.761.021-3.522,0-5.282a3.833,3.833,0,0,1,2.025-3.764c3.5-1.839,4.353-5.039,4.513-8.6a24.43,24.43,0,0,1,.049-3.514c.548-2.8-.078-6.358,4.1-7.073,3.112.842,4.02,3.293,4.447,6.095-.272,6.121,1.073,8.69,5.567,10.625a11.122,11.122,0,0,1,5.092,7.945l.4.556-.019-.034c-.273,1.806.919,4.337-2.318,4.674a2.828,2.828,0,0,1-2.435-1.4c-1.089-1.669-2.53-1.7-3.956-.315-1.191,1.157-2.428,2.278-3.511,3.531-2.141,2.476-4.672,3.578-7.917,2.6" transform="translate(-42.657 -41.531)" fill="#fce32f"/>
        <path id="Trazado_715801" data-name="Trazado 715801" d="M87.643,83.185c-4.18.716-3.555,4.274-4.1,7.074a24.429,24.429,0,0,0-.049,3.514c-.16,3.564-1.013,6.765-4.514,8.6a3.834,3.834,0,0,0-2.025,3.764c.025,1.76,0,3.522,0,5.282-1.763-1.355-3.376-1.622-4.615.658-.466.857-1.334.82-2.112,1-3.374-.5-2.111-3.084-2.258-5.034a13.141,13.141,0,0,1,5.3-8.193c4.351-1.6,5.9-4.5,5.641-10.573.94-5.362,4.2-7.633,8.732-6.093" transform="translate(-33.69 -41.065)" fill="#f4ce34"/>
        <path id="Trazado_715802" data-name="Trazado 715802" d="M121.515,106.313c-4.493-1.936-5.839-4.5-5.567-10.625,2.988-.329,5.471.5,6.864,3.331,1.321,2.689.73,5.145-1.3,7.294" transform="translate(-57.549 -47.473)" fill="#fc5858"/>
        <path id="Trazado_715803" data-name="Trazado 715803" d="M82.367,95.679c.254,6.078-1.291,8.972-5.641,10.573-1.949-2.223-2.544-4.708-1.128-7.39,1.425-2.7,3.851-3.528,6.77-3.184" transform="translate(-37.145 -47.466)" fill="#e9454c"/>
        <path id="Trazado_715804" data-name="Trazado 715804" d="M137.554,133.191l-.4-.556.4.556" transform="translate(-68.092 -65.85)" fill="#fc5858"/>
        <path id="Trazado_715805" data-name="Trazado 715805" d="M45.448,103.291a12.969,12.969,0,0,1,.05-15.906,11.1,11.1,0,0,1-.05,15.906" transform="translate(-21.224 -43.385)" fill="#536867"/>
        <path id="Trazado_715806" data-name="Trazado 715806" d="M97.922,144.7c3.246.974,5.776-.127,7.917-2.6,1.083-1.253,2.32-2.375,3.511-3.531,1.426-1.385,2.868-1.354,3.956.315a2.828,2.828,0,0,0,2.435,1.4q-3.586,4.476-7.175,8.95a14.115,14.115,0,0,0-2.552,5.944,4.8,4.8,0,0,1-3.021,3.711,10.149,10.149,0,0,1-2.641-7.234c.073-2.491-1.922-4.517-2.431-6.955" transform="translate(-48.616 -68.302)" fill="#f4ce34"/>
      </g>
    </g>
  </g>
</svg>
