<svg xmlns="http://www.w3.org/2000/svg" xmlns:xlink="http://www.w3.org/1999/xlink" width="129" height="129" viewBox="0 0 129 129">
  <defs>
    <clipPath id="clip-path">
      <rect id="Rectángulo_353310" data-name="Rectángulo 353310" width="120.724" height="114.361" fill="none"/>
    </clipPath>
  </defs>
  <g id="Grupo_1003279" data-name="Grupo 1003279" transform="translate(-1090 -565)">
    <circle id="Elipse_5696" data-name="Elipse 5696" cx="64.5" cy="64.5" r="64.5" transform="translate(1090 565)" fill="#ffc403"/>
    <g id="Grupo_1003176" data-name="Grupo 1003176" transform="translate(1094.219 573.363)">
      <g id="Grupo_1003175" data-name="Grupo 1003175" clip-path="url(#clip-path)">
        <path id="Trazado_715807" data-name="Trazado 715807" d="M36.243,72.4l8.037-.034,18.79-.026,13.167.036,8.012.005,18.8-.029,4.22.172L98.839,89.7c-2.111.025-4.222.025-6.332.083a3.445,3.445,0,0,1-3.6-2.413c-.956-2.393-2.022-4.744-2.938-7.152a2.323,2.323,0,0,0-2.47-1.636c-8.021-.259-8.021-.285-11.017,7.066-1.657,4.065-1.752,4.129-6.211,4.129-4.537,0-9.076-.053-13.612.024a3.75,3.75,0,0,1-3.97-2.6c-.917-2.324-1.952-4.6-2.828-6.942a2.315,2.315,0,0,0-2.449-1.674c-8.016-.264-8.016-.291-11.135,7.245-1.6,3.866-1.724,3.951-5.855,3.951-4.459,0-8.922-.107-13.376.041a4.277,4.277,0,0,1-4.736-3.245c-.69-1.989-1.672-3.876-2.372-5.862-.54-1.531-1.342-2.411-3.071-2.106-2.291.4-3.141-.623-2.785-2.838a3.111,3.111,0,0,0,0-.937c-.275-1.859.5-2.622,2.366-2.394a11,11,0,0,0,1.868-.079l18.78-.027,13.15.073" transform="translate(0 -38.3)" fill="#fc9729"/>
        <path id="Trazado_715808" data-name="Trazado 715808" d="M99.226,223.284c-2.266.046-4.531.125-6.8.127a3.573,3.573,0,0,1-3.565-2.534c-.911-2.33-1.935-4.616-2.836-6.95a2.176,2.176,0,0,0-2.407-1.692,63.359,63.359,0,0,1-6.577,0,2.141,2.141,0,0,0-2.39,1.691c-.85,2.269-1.871,4.474-2.731,6.74a3.827,3.827,0,0,1-3.9,2.761q-7.755-.015-15.51,0a3.816,3.816,0,0,1-3.894-2.773c-.768-2.049-1.745-4.025-2.439-6.1-.579-1.733-1.461-2.554-3.4-2.332a26.368,26.368,0,0,1-5.163.009,2.724,2.724,0,0,0-3.286,2.14c-.7,2.149-1.763,4.177-2.561,6.3a3.806,3.806,0,0,1-3.9,2.757q-7.755-.017-15.51,0a3.708,3.708,0,0,1-3.767-2.6c-.86-2.183-1.891-4.3-2.646-6.52-.542-1.593-1.39-2.343-3.077-2.046-2.315.408-3.128-.656-2.785-2.856a3.06,3.06,0,0,0,0-.938c-.3-1.868.473-2.611,2.341-2.362a10.611,10.611,0,0,0,1.872-.071l18.779-.029,13.228.071,7.96-.03,18.79-.027,13.233.042,7.943,0,18.8-.022,4.251.159q-3.4,6.8-6.8,13.608a7.452,7.452,0,0,0-1.254,3.482" transform="translate(-0.003 -109.084)" fill="#fc9729"/>
        <path id="Trazado_715809" data-name="Trazado 715809" d="M112.113,170.17l-18.79.027c-.2-1.927-.488-3.85-.593-5.782-.542-9.961,2.149-18.745,9.551-25.766a2.607,2.607,0,0,1,.853-.346,34.311,34.311,0,0,1,3.745,4.181c4.515,7.011,6.892,14.6,5.765,23.053-.206,1.541-.356,3.089-.532,4.634" transform="translate(-49.067 -73.233)" fill="#f2e7d5"/>
        <path id="Trazado_715810" data-name="Trazado 715810" d="M26.9,169.674l-18.779.03A35.579,35.579,0,0,1,9.98,148.055a25.73,25.73,0,0,1,8.037-10.664,2.15,2.15,0,0,0,.873,1.585A30.672,30.672,0,0,1,26.6,153.429c1.33,5.412.844,10.819.3,16.245" transform="translate(-3.829 -72.751)" fill="#f2e7d5"/>
        <path id="Trazado_715811" data-name="Trazado 715811" d="M197.249,170.736l-18.8.022c.162-2.647-.494-5.234-.5-7.889a32.841,32.841,0,0,1,7.382-21.567c.758-.932,1.475-2.092,2.984-1.948a16.954,16.954,0,0,1,4.378,4.5,34.139,34.139,0,0,1,4.561,26.886" transform="translate(-94.223 -73.784)" fill="#f2e7d5"/>
        <path id="Trazado_715812" data-name="Trazado 715812" d="M197.242,36.948l-18.8.029c-.153-3.5-.794-6.982-.46-10.491.709-7.461,2.8-14.359,8.378-19.768.55-.534,1-1.234,1.9-1.256a8.053,8.053,0,0,1,1.105.838c8.255,8.766,10.251,19.147,7.878,30.648" transform="translate(-94.194 -2.892)" fill="#f2e7d5"/>
        <path id="Trazado_715813" data-name="Trazado 715813" d="M112.151,36.947l-18.79.026q-.253-2.658-.506-5.316a32.523,32.523,0,0,1,7.821-24.77,5.272,5.272,0,0,1,2.123-1.4,6.385,6.385,0,0,1,2.112,1.448c3.863,4.206,5.986,9.266,7.259,14.744a37.983,37.983,0,0,1-.018,15.271" transform="translate(-49.081 -2.904)" fill="#f2e7d5"/>
        <path id="Trazado_715814" data-name="Trazado 715814" d="M26.886,36.929l-18.78.027a34.451,34.451,0,0,1,3.827-25.447c1.36-2.422,2.83-4.841,5.57-6.035,6.558,5.25,9.151,12.455,9.841,20.478a44.438,44.438,0,0,1-.457,10.977" transform="translate(-3.793 -2.899)" fill="#f2e7d5"/>
        <path id="Trazado_715815" data-name="Trazado 715815" d="M123.9,167.563c.176-1.545.326-3.093.532-4.634,1.126-8.448-1.251-16.042-5.765-23.053a34.312,34.312,0,0,0-3.745-4.181c4.03-3.409,9.65-3.032,13.959.982,4.571,4.257,6.86,9.7,8.254,15.669,1.195,5.11.738,10.174,0,15.259l-13.233-.042" transform="translate(-60.851 -70.626)" fill="#d8cab8"/>
        <path id="Trazado_715816" data-name="Trazado 715816" d="M208.916,167.56a34.139,34.139,0,0,0-4.561-26.886,16.954,16.954,0,0,0-4.378-4.5c1.575-2.268,5.442-3.427,8.57-2.53,4.761,1.365,7.833,4.761,10.106,8.879a34.156,34.156,0,0,1,3.747,23.515,1.729,1.729,0,0,0,.191,1.532l-9.423.144-4.251-.159" transform="translate(-105.89 -70.608)" fill="#d8c9b7"/>
        <path id="Trazado_715817" data-name="Trazado 715817" d="M39.037,167.555c.543-5.426,1.028-10.833-.3-16.245a30.671,30.671,0,0,0-7.707-14.453,2.15,2.15,0,0,1-.873-1.585c6.813-4.434,13.51-.417,17.354,5.634a33.907,33.907,0,0,1,4.836,24.153,20.156,20.156,0,0,0-.08,2.566l-13.228-.071" transform="translate(-15.967 -70.632)" fill="#d8c9b7"/>
        <path id="Trazado_715818" data-name="Trazado 715818" d="M123.527,34.089a37.983,37.983,0,0,0,.018-15.271c-1.273-5.478-3.4-10.537-7.259-14.744a6.385,6.385,0,0,0-2.112-1.448c2.3-2.813,7.707-3.109,10.565-1.769,5.144,2.412,7.977,6.794,10.059,11.792a36.038,36.038,0,0,1,1.9,21.477l-13.167-.036" transform="translate(-60.457 -0.045)" fill="#d8cab8"/>
        <path id="Trazado_715819" data-name="Trazado 715819" d="M38.522,34.081A44.438,44.438,0,0,0,38.98,23.1C38.29,15.081,35.7,7.876,29.139,2.626c3.283-3.548,9.817-3.331,13.9.438C49,8.574,51.493,15.62,52.163,23.441a45.043,45.043,0,0,1-.49,10.713l-13.151-.073" transform="translate(-15.43 -0.051)" fill="#d7cab8"/>
        <path id="Trazado_715820" data-name="Trazado 715820" d="M208.913,34.056c2.374-11.5.377-21.882-7.878-30.648a8.051,8.051,0,0,0-1.105-.838C202.243.013,206.6-.722,210.056.756c4.783,2.048,7.547,5.97,9.63,10.439A34.421,34.421,0,0,1,222.1,34.034l-8.969.194-4.22-.172" transform="translate(-105.866 0)" fill="#d7cab8"/>
        <path id="Trazado_715821" data-name="Trazado 715821" d="M218.507,72.531l8.969-.194a1.851,1.851,0,0,0,.231.037c4.067.175,4.728,1.087,4,5.2-.255,1.442-1.327,1.24-2.133,1.119-2.294-.343-3.367.7-4.027,2.778s-1.6,4.045-2.447,6.053a3.351,3.351,0,0,1-3.442,2.266c-3.192-.071-6.385-.064-9.579-.088l8.428-17.172" transform="translate(-111.24 -38.304)" fill="#f8672c"/>
        <path id="Trazado_715822" data-name="Trazado 715822" d="M218.948,206.167l9.423-.144c1.185.276,3-.614,3.472.549.575,1.412.347,3.222.2,4.836-.115,1.257-1.362.92-2.09.8-2.213-.369-3.256.637-3.906,2.629s-1.625,3.884-2.352,5.858a3.754,3.754,0,0,1-3.9,2.723c-2.965-.043-5.93-.107-8.9-.161a7.455,7.455,0,0,1,1.253-3.481q3.385-6.811,6.8-13.607" transform="translate(-111.671 -109.056)" fill="#f8662c"/>
      </g>
    </g>
  </g>
</svg>
