<svg xmlns="http://www.w3.org/2000/svg" xmlns:xlink="http://www.w3.org/1999/xlink" width="181" height="181" viewBox="0 0 181 181">
  <defs>
    <clipPath id="clip-path">
      <rect id="Rectángulo_353345" data-name="Rectángulo 353345" width="158.768" height="141.341" fill="none"/>
    </clipPath>
  </defs>
  <g id="Grupo_1003239" data-name="Grupo 1003239" transform="translate(-404 -735)">
    <g id="Grupo_992569" data-name="Grupo 992569" transform="translate(0 -718)">
      <circle id="Elipse_5684" data-name="Elipse 5684" cx="90.5" cy="90.5" r="90.5" transform="translate(404 1453)" fill="#abffff"/>
    </g>
    <g id="Grupo_1003205" data-name="Grupo 1003205" transform="translate(404 754.83)">
      <g id="Grupo_1003204" data-name="Grupo 1003204" clip-path="url(#clip-path)">
        <path id="Trazado_716658" data-name="Trazado 716658" d="M44.6,52.442c2.211.453,2.168,2.147,2.146,3.852-.015,1.128-.21,2.349,1.605,2.3C59.9,58.258,71.49,59.372,83,57.675a60.037,60.037,0,0,0,18.7-6.146c5.186-2.655,8.73-.494,8.646,5.378-.123,8.645.811,17.362-1.6,25.867C104.1,99.138,93.73,110.16,77.755,115.925c-3.246,1.172-5.843,5.872-4.949,9.166.512,1.888,1.114,3.754,1.561,5.657.766,3.26,2.56,5.319,6.058,5.63,1.482.132,2.7.833,2.6,2.477-.11,1.785-1.442,2.3-3.077,2.3q-13.168-.02-26.336-.006-12.548,0-25.1.006c-1.748,0-3.572-.079-3.609-2.342s1.792-2.388,3.538-2.436c10.288-.287,10.254-.3,12.994-10.094.631-2.252,1.182-4.36-.765-6.249a1.368,1.368,0,0,1-.383-.829c-.23-4.233-3.459-5.594-6.549-7.5C17.971,101.95,10.234,87.6,10.258,69.112c0-2.572.1-4.067-3.409-4.188-5.115-.176-7.436-6.71-4.158-10.836,1.074-1.352,2.378-2.521,3.524-3.718-.213-.861-.818-.749-1.259-.687-4.044.57-5.647-1.375-4.685-6.022a10.306,10.306,0,0,1,8.08-8.439c3.371-.823,1.494-3.754,2.388-5.569.8-1.622-.974-1.459-1.7-1.842-4.9-2.59-7.128-7.741-5.426-12.757a10.171,10.171,0,0,1,12.2-6.963A5.548,5.548,0,0,0,21.61,6.5c2.976-2.838,4.94-2.981,7.09-.97.576,3.163-2.608,2.919-3.932,4.362-2.813,3.066-6.12,3.759-10.1,2.715A5.54,5.54,0,0,0,8,16.678c-.824,2.729.194,4.814,2.359,6.466s3.565.486,5.251-1.061c4.089-3.751,9.038-4.584,14.407-3.593,7.105,1.31,12.63-4.159,11.619-11.385C41.4,5.489,41,4.617,39.1,5.367c-1.685.667-3.461.952-4.477-1.2.52-2.407,3.337-4.17,6.893-4.162,2.295,0,3.417,1.4,4.061,3.529C47.717,10.585,45.963,16.4,40,21.06c-1.165.91-1.417,1.317-.155,2.414,6.2,5.393,7.372,12.553,6.908,20.265A2.837,2.837,0,0,1,44.6,46.416a2.823,2.823,0,0,1-2.452-3.325c.081-1.539.06-3.089-.012-4.629A15.761,15.761,0,0,0,29.814,23.455,11.029,11.029,0,0,0,14.962,33.479c-.047,8.012.045,16.026.076,24.039.083,3.265,1.884,4.452,4.643,2.92,2.391-1.328,4.715-1.5,6.994.033a2.869,2.869,0,0,0,3.659.012A5.962,5.962,0,0,1,36.505,60c4.287,1.952,5.629,1.089,5.638-3.682,0-1.87.053-3.591,2.462-3.879m50.916,7.024C85.9,62.7,75.986,63.488,65.907,63.2c-5.883-.171-11.777.014-17.664-.057A7.6,7.6,0,0,0,43.055,64.6c-1.5,1.186-3.426,2.03-5.2,1.127-2.775-1.415-5.322-1.7-7.985.043a1.12,1.12,0,0,1-.887.189c-4.065-2.045-8.147-.841-12.23-.123a.658.658,0,0,1-.3-.07C15.107,65.3,15,66.02,14.905,67.14c-1.882,22.787,15.233,43.725,37.85,46.277,1.626.184,3.319.193,4.707,1.282.152.384.306.767.455,1.153,1.416,3.664,3.411,5.284,6.434,5.223,3.147-.063,5.168-1.792,6.184-5.808.5-1.983,1.817-2.6,3.451-3.061,12.184-3.441,21.091-10.87,27.032-22.01s4.475-23.084,4.489-35.173l-9.986,4.442m-34.6,71.123A45.164,45.164,0,0,1,59.722,126a2.707,2.707,0,0,0-2.39-2.424,2.738,2.738,0,0,0-2.538,2.318c-.527,2.2-1.183,4.362-1.694,6.563-.651,2.8.971,4.47,3.749,3.786,2.622-.645,3.905-2.473,4.067-5.655M71.5,136.266c-1.674-3.278-2.254-6.524-3.053-9.687-.5-1.979-1.562-.931-2.529-.925-1.463.009-1.386.723-.993,1.786,1.084,2.927.591,5.826-.515,8.826Zm-28.6.119c1.627,0,2.855-.022,4.083.007.976.023,1.588-.2,1.391-1.385-.4-2.433.511-4.668,1.085-6.96.239-.956,1.022-2.086-.991-2.484-1.623-.321-2.177.006-2.544,1.542a38.808,38.808,0,0,1-3.025,9.281m1.6-19.658c1.883,3.878,5.246,5.315,8.239,3.91.633-.3,1.4-.553,1.3-1.484-.081-.79-.713-.87-1.339-.978-2.6-.448-5.2-.917-8.2-1.449M10.087,39.8c-2.674.591-4.154,1.639-4.816,3.417-.231.621-.726,1.32.247,1.816a3.116,3.116,0,0,0,4.7-2.779c-.006-.811-.083-1.622-.128-2.454m.027,14.263-.9-.6C8.261,54.642,7.3,55.813,6.359,57a1.965,1.965,0,0,0-.125,2.554,2.007,2.007,0,0,0,2.1.975,1.942,1.942,0,0,0,1.758-1.86c.071-1.53.018-3.067.018-4.6" transform="translate(0 0)" fill="#070605"/>
        <path id="Trazado_716659" data-name="Trazado 716659" d="M221.1,203.31c-1.354,4.792-5.017,3.786-8.234,3.821-1.525.017-2.7-.609-2.761-2.253-.066-1.839,1.206-2.457,2.841-2.509.824-.026,1.65,0,2.474-.021,1.187-.033,1.408-1.075,1.808-1.857.507-.989-.441-1.175-1-1.54a13.516,13.516,0,0,1-6.609-12.461c.04-1.21.06-2.19-1.653-2.236a1.991,1.991,0,0,1-1.935-2.337,2.02,2.02,0,0,1,2.22-2.08c1.478.092,1.849-.875,2.452-1.862a8.051,8.051,0,0,1,8.656-3.97,7.816,7.816,0,0,1,6.483,7.264c.173,1.666.778,2.089,2.28,2,1.541-.092,3.092-.051,4.638-.014,3.427.084,4.4,1.1,4.2,4.571a13.28,13.28,0,0,1-6.478,10.978c-1.171.739-1.6,1.219-.774,2.565.857,1.388,2.672,2.9,1.14,4.661-1.9,2.186-4.656.939-7.024,1.017-2.06.068-2.254-1.859-2.728-3.738m-6.959-18.431a19.073,19.073,0,0,0,.426,4.59,8.845,8.845,0,0,0,7.617,6.643,8.939,8.939,0,0,0,9.168-4.88c1.373-2.746,1.065-3.245-2.012-3.261-6.4-.034-6.391-.037-8.074-6.5a3.372,3.372,0,0,0-3.5-2.865,3.282,3.282,0,0,0-3.442,2.9,21.21,21.21,0,0,0-.187,3.375" transform="translate(-78.216 -65.991)" fill="#0a0909"/>
        <path id="Trazado_716660" data-name="Trazado 716660" d="M165.3,203.418c-1.669,4.81-5.458,3.688-8.744,3.67a2.156,2.156,0,0,1-2.3-2.372c.017-1.525,1.02-2.181,2.39-2.318a23.584,23.584,0,0,1,2.787-.039c1.211.022,1.446-.976,1.891-1.757.7-1.23-.5-1.331-1.082-1.725a13.63,13.63,0,0,1-6.5-12.261c.03-1.284.151-2.434-1.8-2.4a1.927,1.927,0,0,1-1.791-2.164,2.009,2.009,0,0,1,2.114-2.2c1.64.112,2.024-.976,2.68-2.03a8.039,8.039,0,0,1,8.452-3.855c3.587.752,6.219,3.255,6.521,6.9.182,2.2,1.135,2.548,2.928,2.386.922-.083,1.858-.016,2.788-.014,5.035.009,6.28,1.463,5.29,6.419a13.027,13.027,0,0,1-6.061,8.965c-1.446.878-1.735,1.462-.821,3.02,2.553,4.357,1.8,5.445-3.36,5.5-2.587.027-5.223.292-5.385-3.732m-7.024-18.14c.091,1,.112,2.347.355,3.657a8.734,8.734,0,0,0,7.214,7.127,9.1,9.1,0,0,0,9.468-4.44c1.669-2.97,1.288-3.644-2.061-3.654-6.191-.018-6.251-.087-7.834-6.486a3.361,3.361,0,0,0-3.508-2.878,3.216,3.216,0,0,0-3.414,2.934,32.927,32.927,0,0,0-.22,3.741" transform="translate(-57.006 -65.987)" fill="#090908"/>
        <path id="Trazado_716661" data-name="Trazado 716661" d="M53.809,66.8c-2.41.288-2.458,2.009-2.462,3.88-.009,4.77-1.351,5.632-5.638,3.681a5.963,5.963,0,0,0-6.171.481,2.869,2.869,0,0,1-3.659-.012c-2.279-1.53-4.6-1.361-6.994-.034-2.759,1.532-4.56.345-4.643-2.92a3.918,3.918,0,0,0,2.679-.476c2.349-1.863,4.689-1.7,7.1-.154,1.773,1.138,3.315.516,4.775-.69a6.894,6.894,0,0,0,2.6-5.406c-.2-9.156,1.512-18.5-2.376-27.338A15.762,15.762,0,0,1,51.336,52.815c.071,1.54.092,3.089.011,4.629A2.823,2.823,0,0,0,53.8,60.77q0,3.013.009,6.025" transform="translate(-9.204 -14.354)" fill="#e09342"/>
        <path id="Trazado_716662" data-name="Trazado 716662" d="M39.344,6.71c1.016,2.156,2.792,1.872,4.477,1.2,1.894-.749,2.3.122,2.529,1.738,1.012,7.226-4.513,12.7-11.619,11.385-5.369-.99-10.318-.158-14.407,3.594-1.685,1.546-3.084,2.713-5.251,1.061s-3.183-3.737-2.359-6.466a5.54,5.54,0,0,1,6.67-4.075c3.983,1.043,7.29.35,10.1-2.716,1.324-1.443,4.507-1.2,3.932-4.362,2.065-.065,3.959-.868,5.924-1.363" transform="translate(-4.719 -2.547)" fill="#dc7d83"/>
        <path id="Trazado_716663" data-name="Trazado 716663" d="M66.5,151.091c-1.388-1.089-3.081-1.1-4.707-1.282-22.618-2.552-39.732-23.491-37.85-46.277.092-1.121.2-1.843,1.548-1.373a.664.664,0,0,0,.3.069c4.083-.718,8.165-1.922,12.23.123a1.12,1.12,0,0,0,.887-.189c2.663-1.74,5.209-1.458,7.985-.043,1.773.9,3.7.06,5.2-1.127a7.605,7.605,0,0,1,5.188-1.462c5.888.071,11.78-.113,17.664.057,10.079.291,19.993-.5,29.614-3.731a72.674,72.674,0,0,1-.055,8.585c-.5,4.257-.511,8.721-3.37,12.364.156-1.849.413-3.7.449-5.548.091-4.611-2.319-7.217-6.909-7.251-10.116-.074-20.237-.2-30.348.03a19.68,19.68,0,0,0-19.406,19.994c.057,10.923,8.535,19.417,19.707,19.63,3.194.061,6.393-.159,9.591-.251L66.5,151.091" transform="translate(-9.036 -36.392)" fill="#e3a25f"/>
        <path id="Trazado_716664" data-name="Trazado 716664" d="M127.263,114.087c2.859-3.643,2.865-8.106,3.37-12.364a72.678,72.678,0,0,0,.055-8.585l9.986-4.442c-.014,12.088,1.447,24.042-4.489,35.173s-14.848,18.569-27.032,22.01c-1.634.462-2.949,1.078-3.451,3.061-1.016,4.015-3.036,5.744-6.184,5.808-3.024.061-5.018-1.559-6.434-5.224-.149-.385-.3-.768-.455-1.152l7.715-7.682c4.34-1.2,8.6-2.553,12.409-5.092,1.321-.882,2.118-1.88,1.934-3.508,2.223-.753,3.419-2.648,4.814-4.322,1.6-.124,2.472-1.169,3.266-2.432a37.178,37.178,0,0,0,4.5-11.249" transform="translate(-35.167 -33.674)" fill="#e09341"/>
        <path id="Trazado_716665" data-name="Trazado 716665" d="M38.963,37.392c3.888,8.836,2.179,18.181,2.376,27.337a6.894,6.894,0,0,1-2.6,5.406c-1.46,1.207-3,1.828-4.775.69-2.411-1.547-4.751-1.709-7.1.153a3.921,3.921,0,0,1-2.679.476c-.032-8.013-.123-16.026-.076-24.039A11.028,11.028,0,0,1,38.963,37.392" transform="translate(-9.149 -13.938)" fill="#e5a460"/>
        <path id="Trazado_716666" data-name="Trazado 716666" d="M93.326,206.215c-.162,3.181-1.445,5.009-4.067,5.655-2.778.684-4.4-.983-3.749-3.786.511-2.2,1.166-4.367,1.694-6.563a2.738,2.738,0,0,1,2.539-2.318,2.707,2.707,0,0,1,2.389,2.424,45.163,45.163,0,0,0,1.194,4.588" transform="translate(-32.41 -75.627)" fill="#eff1f2"/>
        <path id="Trazado_716667" data-name="Trazado 716667" d="M110.914,212.993h-7.089c1.1-3,1.6-5.9.514-8.826-.393-1.063-.47-1.777.993-1.786.967-.006,2.029-1.054,2.528.925.8,3.163,1.379,6.409,3.053,9.687" transform="translate(-39.417 -76.727)" fill="#f4d677"/>
        <path id="Trazado_716668" data-name="Trazado 716668" d="M69.157,213.16a38.777,38.777,0,0,0,3.024-9.281c.368-1.536.922-1.864,2.545-1.542,2.012.4,1.23,1.529.991,2.484-.574,2.293-1.489,4.527-1.086,6.96.2,1.185-.416,1.408-1.391,1.385-1.228-.029-2.456-.007-4.083-.007" transform="translate(-26.256 -76.775)" fill="#e0cd30"/>
        <path id="Trazado_716669" data-name="Trazado 716669" d="M71.737,188.162c3,.532,5.6,1,8.2,1.449.625.108,1.258.188,1.339.978.1.931-.667,1.187-1.3,1.484-2.992,1.4-6.355-.032-8.239-3.91" transform="translate(-27.235 -71.436)" fill="#d6992b"/>
        <path id="Trazado_716670" data-name="Trazado 716670" d="M13.109,64.161c.045.832.123,1.643.128,2.453a3.116,3.116,0,0,1-4.7,2.779c-.973-.5-.478-1.2-.247-1.816.663-1.778,2.142-2.826,4.816-3.417" transform="translate(-3.022 -24.359)" fill="#f4d677"/>
        <path id="Trazado_716671" data-name="Trazado 716671" d="M13.677,86.785c0,1.534.053,3.07-.018,4.6a1.942,1.942,0,0,1-1.758,1.86,2.007,2.007,0,0,1-2.1-.975,1.965,1.965,0,0,1,.125-2.554c.942-1.185,1.9-2.356,2.854-3.533l.9.6" transform="translate(-3.562 -32.72)" fill="#dc7d83"/>
        <path id="Trazado_716672" data-name="Trazado 716672" d="M219.1,187.808a21.208,21.208,0,0,1,.187-3.375,3.282,3.282,0,0,1,3.442-2.9,3.372,3.372,0,0,1,3.5,2.865c1.682,6.465,1.669,6.468,8.074,6.5,3.077.016,3.385.516,2.012,3.261a8.939,8.939,0,0,1-9.168,4.88,8.845,8.845,0,0,1-7.617-6.643,19.073,19.073,0,0,1-.426-4.59" transform="translate(-83.183 -68.92)" fill="#f8da7a"/>
        <path id="Trazado_716673" data-name="Trazado 716673" d="M163.245,188.211a32.927,32.927,0,0,1,.22-3.741,3.216,3.216,0,0,1,3.414-2.934,3.361,3.361,0,0,1,3.508,2.878c1.583,6.4,1.643,6.468,7.834,6.486,3.349.01,3.73.684,2.061,3.654a9.1,9.1,0,0,1-9.468,4.44,8.734,8.734,0,0,1-7.214-7.127c-.243-1.31-.264-2.662-.355-3.657" transform="translate(-61.976 -68.921)" fill="#f8da7a"/>
        <path id="Trazado_716674" data-name="Trazado 716674" d="M114.055,121.73a37.177,37.177,0,0,1-4.5,11.249c-.794,1.262-1.665,2.308-3.266,2.432-2.058-1.184-2.254-2.664-.936-4.612a28.52,28.52,0,0,0,4.55-13.648c.174-1.886.135-3.4-2.535-3.556-2.547-.146-2.9.8-3,3.091-.511,12.4-10.844,23.679-26.613,22.39a2.277,2.277,0,0,1-2.4-2.323c-.036-1.535,1.007-2.218,2.367-2.339,1.437-.127,2.891-.038,4.334-.107a18.494,18.494,0,0,0,17.61-17.819c.038-1.151.742-2.741-1.6-2.872-2.181-.122-1.856,1.154-1.961,2.509-.616,7.945-6.233,13.909-13.55,14.485-1.72.135-3.587.256-3.762-2.05-.154-2.03,1.416-2.319,3.127-2.529a10.516,10.516,0,0,0,9.557-10.067c.04-1.692-.379-2.393-2.213-2.333-3.818.126-7.644,0-11.466.047a15.215,15.215,0,0,0-15.4,14.953,15.376,15.376,0,0,0,15.032,15.4c7.074.3,13.787-.811,19.768-4.894,1.615-1.1,3.058-1.122,4.273.591.184,1.628-.613,2.627-1.934,3.508-3.8,2.54-8.07,3.893-12.409,5.092-3.2.092-6.4.313-9.591.251-11.171-.214-19.649-8.707-19.707-19.63a19.681,19.681,0,0,1,19.406-19.994c10.112-.231,20.233-.1,30.349-.03,4.591.034,7,2.64,6.909,7.251-.037,1.851-.293,3.7-.449,5.548" transform="translate(-21.959 -41.317)" fill="#080604"/>
        <path id="Trazado_716675" data-name="Trazado 716675" d="M104.274,142.641c-1.215-1.712-2.659-1.693-4.274-.591-5.98,4.083-12.694,5.2-19.767,4.894A15.376,15.376,0,0,1,65.2,131.54a15.215,15.215,0,0,1,15.4-14.953c3.823-.046,7.648.079,11.467-.047,1.834-.061,2.254.64,2.213,2.331A10.519,10.519,0,0,1,84.72,128.94c-1.71.208-3.28.5-3.126,2.529.175,2.306,2.042,2.185,3.762,2.05,7.317-.575,12.934-6.539,13.55-14.485.1-1.353-.22-2.629,1.96-2.508,2.347.13,1.643,1.722,1.605,2.872a18.494,18.494,0,0,1-17.61,17.82c-1.444.069-2.9-.021-4.334.107-1.36.121-2.4.8-2.367,2.339a2.278,2.278,0,0,0,2.4,2.323c15.769,1.288,26.1-9.988,26.613-22.392.094-2.291.452-3.237,3-3.091,2.67.153,2.71,1.67,2.535,3.556a28.52,28.52,0,0,1-4.551,13.649c-1.318,1.948-1.121,3.429.937,4.612-1.4,1.674-2.592,3.569-4.814,4.321" transform="translate(-24.753 -44.225)" fill="#e6b27d"/>
      </g>
    </g>
  </g>
</svg>
