<svg xmlns="http://www.w3.org/2000/svg" xmlns:xlink="http://www.w3.org/1999/xlink" width="129" height="134.07" viewBox="0 0 129 134.07">
  <defs>
    <clipPath id="clip-path">
      <rect id="Rectángulo_353256" data-name="Rectángulo 353256" width="100.043" height="134.07" fill="none"/>
    </clipPath>
  </defs>
  <g id="Grupo_1003263" data-name="Grupo 1003263" transform="translate(-8548 5750)">
    <circle id="Elipse_5713" data-name="Elipse 5713" cx="64.5" cy="64.5" r="64.5" transform="translate(8548 -5750)" fill="#06d1d1"/>
    <g id="Grupo_1003132" data-name="Grupo 1003132" transform="translate(8562.479 -5750)">
      <g id="Grupo_1003131" data-name="Grupo 1003131" clip-path="url(#clip-path)">
        <path id="Trazado_715509" data-name="Trazado 715509" d="M17.053,80.7c-2.555-2.539-4.922-4.87-7.265-7.224-4.159-4.18-4.42-9.91-.644-13.771,3.921-4.009,9.612-3.843,13.965.447q3.865,3.809,7.649,7.7c1,1.025,2.038,1.895,3.548,1.359,1.707-.606,1.736-2.134,1.736-3.608,0-16.371-.021-32.742.01-49.113C36.063,10,40.27,5.859,46.279,6.129c1.762.079,3.495,1.817,4.7,1.221,1.241-.616,1.359-2.967,2.58-4.238A9.178,9.178,0,0,1,62.947.34a8.842,8.842,0,0,1,6.689,6.771c.283,1.114.4,2.269.624,3.557,3.882-2.078,7.655-2.2,11.192.565a8.376,8.376,0,0,1,3.4,5.948c.122,1.332.55,1.317,1.693.872,7.246-2.82,13.469,1.411,13.476,9.163.02,20.622.051,41.244-.033,61.866A26.84,26.84,0,0,1,73.7,116.036c-6.108.159-12.305.826-18.315-1.085-1.8-.572-1.624,1.086-1.965,1.892A27.744,27.744,0,1,1,14.041,82.271c.862-.488,1.757-.918,3.011-1.571M64.118,5.242A5.061,5.061,0,0,0,58.1,4.449c-2.4,1.13-3.181,3.235-3.178,5.8.021,16.827-.016,33.653.014,50.479,0,2.221-.53,3.6-3.112,2.987-.915-1.063-.731-2.351-.73-3.6q.008-21.746.023-43.491c0-1.737-.041-3.436-1.494-4.7a5.438,5.438,0,0,0-3.656-1.977c-3.695-.156-6.088,2.31-6.094,6.616q-.036,23.7-.009,47.4a29.365,29.365,0,0,1-.125,3.515,6.005,6.005,0,0,1-3.788,5.192,6.266,6.266,0,0,1-6.611-.93c-.562-.445-1.089-.935-1.633-1.4-2.675-2.742-5.323-5.512-8.042-8.211a4.14,4.14,0,0,0-3.357-1.35,5.116,5.116,0,0,0-5.557,3.383,5.347,5.347,0,0,0,1.331,6.208c2.367,2.364,4.846,4.622,7.11,7.08a4.569,4.569,0,0,0,4.465,1.566c18.114-2.3,32.795,11.358,31.682,29.533-.136,2.236.673,2.765,2.5,3.133,5.474,1.1,11,.7,16.488.5a22.622,22.622,0,0,0,21-17.371,13.486,13.486,0,0,0,.855-5.021q.023-31.414.041-62.829a4.945,4.945,0,0,0-1.539-4.145c-3.25-3.039-7.827-2.295-9.228,1.6a11.268,11.268,0,0,0-.44,3.727q-.029,16.215.03,32.432c.007,2.029-.211,3.73-2.932,3.206-1.087-1.081-.941-2.461-.941-3.812q0-20.046-.007-40.091c0-1.906.058-3.833-1.706-5.157a4.9,4.9,0,0,0-6.14-1.217,5.42,5.42,0,0,0-3.29,5.431c.029,13.914,0,27.828.03,41.742,0,2.153-.466,3.639-3.083,3.062-.948-1.058-.733-2.36-.734-3.607q-.01-24.675-.005-49.35c0-2.121-.176-4.161-2.112-5.536M27.332,130.26A23.928,23.928,0,1,0,3.843,105.644,23.911,23.911,0,0,0,27.332,130.26" transform="translate(0 0)" fill="#080706"/>
        <path id="Trazado_715510" data-name="Trazado 715510" d="M103.95,98.013a22.622,22.622,0,0,1-21,17.371c-5.487.2-11.014.6-16.488-.5-1.825-.368-2.634-.9-2.5-3.133C65.081,93.576,50.4,79.921,32.285,82.218a4.57,4.57,0,0,1-4.465-1.566c-2.263-2.458-4.742-4.717-7.109-7.08a5.346,5.346,0,0,1-1.331-6.208,5.117,5.117,0,0,1,5.557-3.383c2.314,3.35,5.468,5.9,8.358,8.693a3.927,3.927,0,0,0,3.04.868c.543.469,1.071.959,1.633,1.4a6.266,6.266,0,0,0,6.611.93,6.006,6.006,0,0,0,3.788-5.192,29.253,29.253,0,0,0,.124-3.515q.008-23.7.009-47.4c.007-4.306,2.4-6.772,6.094-6.616a5.435,5.435,0,0,1,3.656,1.977c-.051,5.223-.135,10.445-.146,15.668-.023,11.082,0,22.164-.015,33.247,0,1.641-.022,3.226,2.361,2.874,2.582.611,3.116-.766,3.112-2.987-.03-16.826.007-33.652-.014-50.479,0-2.568.773-4.672,3.178-5.8a5.061,5.061,0,0,1,6.022.793c.016,1.353.045,2.706.045,4.06q0,25.448-.008,50.9c0,1.977.15,3.728,2.813,3.536,2.617.577,3.087-.909,3.083-3.062-.029-13.914,0-27.828-.03-41.742a5.419,5.419,0,0,1,3.29-5.431,4.9,4.9,0,0,1,6.14,1.217q-.054,23.133-.111,46.265c0,1.87.791,2.9,2.764,2.795,2.721.524,2.938-1.177,2.932-3.206q-.052-16.216-.029-32.432a11.253,11.253,0,0,1,.44-3.727c1.4-3.891,5.979-4.635,9.228-1.6a9.77,9.77,0,0,0-.116,1.076q-.019,34.4-.02,68.8c0,.786-.175,1.67.778,2.122" transform="translate(-8.633 -3.203)" fill="#ecc5a2"/>
        <path id="Trazado_715511" data-name="Trazado 715511" d="M30.559,199.515a23.928,23.928,0,0,1,.649-47.851,23.928,23.928,0,1,1-.649,47.851m-8.432-23.89c-.359.418-.669.827-1.028,1.189-1.781,1.8-3.581,3.582-5.362,5.382-2.3,2.328-2.3,2.625.077,5.02q1.816,1.831,3.645,3.647c2.237,2.208,2.747,2.2,5.056-.1,1.733-1.721,3.516-3.4,5.158-5.2.981-1.077,1.624-1.021,2.586.017,1.781,1.923,3.746,3.676,5.531,5.595,1.482,1.593,2.787,1.732,4.308.065,1.4-1.535,2.881-3.007,4.42-4.4,1.621-1.469,1.72-2.766.059-4.3-1.927-1.777-3.667-3.758-5.606-5.52-1.107-1.006-1.24-1.645-.053-2.716,2.013-1.815,3.83-3.845,5.791-5.72,1.4-1.336,1.493-2.535.043-3.9-1.646-1.55-3.259-3.141-4.791-4.8-1.47-1.594-2.7-1.359-4.081.122-1.853,1.98-3.864,3.813-5.722,5.789-.878.935-1.465,1.006-2.379.026-1.913-2.048-3.983-3.949-5.914-5.981-1.363-1.434-2.552-1.4-3.89.02-1.613,1.71-3.3,3.354-4.975,5a2.156,2.156,0,0,0,0,3.508q2.99,2.957,5.951,5.944c.379.381.72.8,1.176,1.311" transform="translate(-3.227 -69.256)" fill="#f26a7f"/>
        <path id="Trazado_715512" data-name="Trazado 715512" d="M120.855,68.139c-2.663.192-2.816-1.559-2.813-3.537q.024-25.448.008-50.9c0-1.353-.029-2.706-.045-4.06,1.936,1.376,2.112,3.416,2.112,5.536q0,24.675.005,49.35c0,1.248-.215,2.548.734,3.607" transform="translate(-53.886 -4.405)" fill="#c99f82"/>
        <path id="Trazado_715513" data-name="Trazado 715513" d="M174.761,113.984c-.953-.452-.778-1.336-.778-2.122q0-34.4.02-68.8a9.77,9.77,0,0,1,.116-1.076,4.943,4.943,0,0,1,1.539,4.145q-.028,31.414-.041,62.829a13.464,13.464,0,0,1-.855,5.021" transform="translate(-79.443 -19.174)" fill="#d3a688"/>
        <path id="Trazado_715514" data-name="Trazado 715514" d="M93.385,73.741c-2.384.352-2.364-1.233-2.361-2.874.013-11.082-.008-22.164.015-33.247.011-5.223.095-10.445.146-15.668,1.453,1.263,1.5,2.961,1.494,4.7q-.024,21.746-.023,43.491c0,1.249-.185,2.536.73,3.6" transform="translate(-41.566 -10.024)" fill="#d6aa8a"/>
        <path id="Trazado_715515" data-name="Trazado 715515" d="M148.786,76.144c-1.973.109-2.769-.925-2.764-2.794q.062-23.133.11-46.265c1.764,1.323,1.706,3.251,1.707,5.156q.006,20.046.007,40.091c0,1.351-.146,2.732.941,3.812" transform="translate(-66.681 -12.368)" fill="#d3a788"/>
        <path id="Trazado_715516" data-name="Trazado 715516" d="M41.408,121.4a3.922,3.922,0,0,1-3.04-.868c-2.89-2.794-6.044-5.343-8.358-8.693a4.136,4.136,0,0,1,3.356,1.351c2.719,2.7,5.366,5.468,8.042,8.21" transform="translate(-13.704 -51.064)" fill="#c29a7d"/>
        <path id="Trazado_715517" data-name="Trazado 715517" d="M27.971,181.61c-.456-.51-.8-.93-1.176-1.311q-2.967-2.981-5.951-5.944a2.156,2.156,0,0,1,0-3.507c1.677-1.649,3.362-3.292,4.975-5,1.338-1.419,2.527-1.453,3.89-.019,1.932,2.032,4,3.933,5.914,5.981.914.98,1.5.908,2.379-.026,1.858-1.977,3.869-3.809,5.722-5.789,1.386-1.482,2.611-1.716,4.081-.122,1.532,1.661,3.145,3.253,4.791,4.8,1.45,1.365,1.355,2.565-.043,3.9-1.961,1.875-3.778,3.9-5.791,5.72-1.187,1.07-1.054,1.709.053,2.716,1.939,1.762,3.679,3.743,5.606,5.52,1.66,1.532,1.562,2.829-.059,4.3-1.539,1.4-3.02,2.867-4.42,4.4-1.521,1.668-2.827,1.528-4.308-.065-1.785-1.919-3.75-3.671-5.531-5.595-.962-1.038-1.605-1.095-2.586-.017-1.642,1.8-3.425,3.481-5.158,5.2-2.309,2.293-2.819,2.3-5.055.1q-1.835-1.811-3.645-3.647c-2.375-2.395-2.382-2.692-.077-5.02,1.782-1.8,3.581-3.582,5.362-5.382.359-.362.669-.772,1.028-1.189m17.688,12.359c.572-.516.946-.91,1.374-1.231,1.756-1.317,2.234-2.5.14-4.1-1.706-1.306-3.028-3.1-4.657-4.526-1.917-1.676-2.087-3.125-.086-4.892,1.96-1.731,3.671-3.74,5.607-5.5,1.713-1.557-.063-2.089-.735-2.908-.723-.881-1.377-1.848-2.664-.377-1.84,2.1-3.96,3.957-5.894,5.981-1.347,1.409-2.528,1.438-3.886.006-1.927-2.031-4.049-3.883-5.892-5.983-1.277-1.456-1.944-.546-2.687.36-.679.828-2.42,1.375-.718,2.915,1.806,1.634,3.47,3.425,5.193,5.15,2.573,2.578,2.579,2.922.093,5.419q-1.721,1.728-3.444,3.454c-3.139,3.145-3.139,3.145.6,6.136,2.252-2.308,4.561-4.592,6.772-6.969,1.44-1.549,2.665-1.487,4.076.032,2.211,2.38,4.514,4.676,6.8,7.033" transform="translate(-9.071 -75.239)" fill="#070506"/>
        <path id="Trazado_715518" data-name="Trazado 715518" d="M49.839,198.095c-2.29-2.358-4.592-4.653-6.8-7.033-1.412-1.519-2.636-1.581-4.076-.032-2.211,2.377-4.52,4.661-6.772,6.969-3.742-2.991-3.742-2.99-.6-6.136q1.723-1.726,3.444-3.454c2.485-2.5,2.48-2.841-.093-5.419-1.723-1.726-3.387-3.517-5.193-5.15-1.7-1.54.04-2.088.718-2.915.743-.906,1.41-1.816,2.687-.36,1.843,2.1,3.965,3.953,5.892,5.983,1.358,1.432,2.539,1.4,3.886-.006,1.934-2.024,4.054-3.878,5.894-5.981,1.287-1.471,1.941-.5,2.664.377.672.819,2.448,1.351.735,2.908-1.937,1.759-3.648,3.769-5.607,5.5-2,1.767-1.832,3.216.086,4.892,1.628,1.423,2.95,3.219,4.657,4.526,2.095,1.6,1.616,2.784-.14,4.1-.428.321-.8.715-1.374,1.231" transform="translate(-13.251 -79.366)" fill="#eef0f2"/>
      </g>
    </g>
  </g>
</svg>
