<svg xmlns="http://www.w3.org/2000/svg" xmlns:xlink="http://www.w3.org/1999/xlink" width="129" height="129" viewBox="0 0 129 129">
  <defs>
    <clipPath id="clip-path">
      <rect id="Rectángulo_353239" data-name="Rectángulo 353239" width="122.14" height="122.203" fill="none"/>
    </clipPath>
  </defs>
  <g id="Grupo_1003253" data-name="Grupo 1003253" transform="translate(-6174 6857)">
    <circle id="Elipse_5703" data-name="Elipse 5703" cx="64.5" cy="64.5" r="64.5" transform="translate(6174 -6857)" fill="#06d1d1"/>
    <g id="Grupo_1003110" data-name="Grupo 1003110" transform="translate(6177.43 -6857)">
      <g id="Grupo_1003109" data-name="Grupo 1003109" clip-path="url(#clip-path)">
        <path id="Trazado_715341" data-name="Trazado 715341" d="M64.374,122.2H17.054c-.713,0-1.427,0-2.14-.02-1.259-.04-2.237-.558-2.243-1.923a2.02,2.02,0,0,1,2.185-2.056c2.692-.1,5.394-.185,8.08-.045,2.168.112,2.9-.63,2.886-2.833-.042-5.538-.453-11.11.53-16.607A34.533,34.533,0,0,1,44.389,73.543a3.676,3.676,0,0,0,2.252-3.915,52.3,52.3,0,0,1-.006-6.179c.1-1.851-.616-2.186-2.245-1.648A56.117,56.117,0,0,0,25.579,72.214C13.541,82.364,6.644,95.382,4.19,110.848c-.446,2.81.137,5.185,2.788,6.749,1.138.672,1.781,1.686.956,2.981-.808,1.27-1.974,1.153-3.125.483-3.127-1.82-4.928-4.528-4.8-8.172A52.709,52.709,0,0,1,5.085,92.981c7.952-17.632,20.923-29.76,39.553-35.517a2.377,2.377,0,0,0,2-2.679c-.026-2.52.439-5.083-2.807-6.229a3.1,3.1,0,0,1-1.747-2.707c-.151-3.482-1.273-7.159,1.578-10.184a2.062,2.062,0,0,0,.309-2,12.484,12.484,0,0,1,1.694-8.9,2.245,2.245,0,0,0-.195-3.1A13.028,13.028,0,0,1,44.3,6.549,13.565,13.565,0,0,1,58.133.172,13.138,13.138,0,0,1,68.744,10.445,4.3,4.3,0,0,0,72.3,14.356a13.044,13.044,0,0,1,7.456,19.535,3.093,3.093,0,0,0-.184,3.435A10.134,10.134,0,0,1,76.314,49.79c-1.3.909-.8,2.134-.826,3.233-.076,3.741-.038,3.758,3.452,4.87a59.513,59.513,0,0,1,11.5,5.088c1.345.769,3.186,1.591,2,3.582-1.073,1.8-2.617.8-3.948.053a63.205,63.205,0,0,0-10.839-4.829c-1.7-.569-2.4-.085-2.192,1.693a1.985,1.985,0,0,1,0,.475c-.7,5.353.631,8.936,5.847,12.246,10.159,6.446,14.6,16.755,14.971,28.733.11,3.563.087,7.135,0,10.7-.047,1.823.566,2.558,2.459,2.515,4.357-.1,8.718-.007,13.078-.039,4.5-.032,6.743-2.562,6.092-7.015a62.065,62.065,0,0,0-9.089-24.8A56.9,56.9,0,0,0,97.4,73c-.243-.2-.478-.417-.705-.638-.935-.913-1.526-1.966-.526-3.119,1.078-1.242,2.255-.784,3.342.11a59.36,59.36,0,0,1,9.912,10.538A66.763,66.763,0,0,1,121.955,110.1c1.129,7.4-2.968,12.1-10.5,12.1q-23.541.011-47.082,0M61.515,33.965c3.644,0,7.29-.079,10.93.032a4.061,4.061,0,0,0,3.981-2.409c3.49-6.226-.75-13.5-8-13.7-3.252-.088-3.7-.663-3.455-3.778A8.909,8.909,0,0,0,61.387,6,9.217,9.217,0,0,0,50.052,20.537c2.233,1.907,2.292,2.382.421,4.585a10.476,10.476,0,0,0-2.586,6.246c-.117,1.772.579,2.645,2.46,2.612,3.722-.064,7.445-.019,11.168-.015M77.594,109.4c0-1.744.023-3.489,0-5.232a16.555,16.555,0,0,0-33.106,0c-.037,2.537-.057,5.075,0,7.61.154,7.484-1.362,6.177,6.644,6.357,1.589.036,1.857-.363,1.317-1.912a9.925,9.925,0,0,1,2.077-10.405,15.784,15.784,0,0,0,2.73-4.143c1.276-2.928,3.973-3.659,6.349-1.541,4.943,4.407,8.176,9.546,5.845,16.556-.375,1.127-.02,1.44,1.035,1.428,1.744-.021,3.489-.047,5.232,0,1.486.043,1.923-.723,1.9-2.065-.041-2.219-.011-4.44-.012-6.659M61.167,50.245c-2.691,0-5.384.059-8.073-.021-1.678-.05-2.44.48-2.413,2.3.08,5.46.057,10.922.008,16.383-.012,1.369.343,1.867,1.784,1.489a33.455,33.455,0,0,1,17.115.012c1.425.368,1.807-.088,1.794-1.476q-.077-8.309,0-16.621c.014-1.563-.655-2.1-2.139-2.073-2.69.053-5.382.015-8.073.011m-.345-4.35q5.572,0,11.144,0c4.127,0,4.2-.085,4.159-4.29,0-.237-.019-.475,0-.711.1-1.8-.74-2.578-2.544-2.572q-12.566.041-25.133-.007c-1.835-.006-2.585.863-2.5,2.628a17.336,17.336,0,0,1,0,2.133c-.147,2.023.76,2.868,2.788,2.834,4.03-.068,8.061-.02,12.092-.014M35.336,100.952c4.711,0,4.71,0,6.459-4.249a5.94,5.94,0,0,0,.375-.868c.507-2.2,3.659-3.612,2.724-5.862-.813-1.957-3.064-3.317-4.68-4.941a5.559,5.559,0,0,1-.5-.506c-.9-1.174-1.6-1.1-2.56.086a32.327,32.327,0,0,0-5.8,10.783c-1.742,5.556-1.738,5.558,3.981,5.558m51.282-.01c1.186,0,2.372,0,3.558,0,1.04,0,1.648-.283,1.421-1.54a31.047,31.047,0,0,0-6.785-14.679c-.831-.994-1.562-1.155-2.521-.141-1.521,1.607-3.068,3.2-4.7,4.686-1.02.928-.858,1.664-.1,2.615A19.62,19.62,0,0,1,80.318,96.8c1.675,4.153,1.678,4.152,6.3,4.142M58.982,78.928c0-1.109-.056-2.221.013-3.325.1-1.623-.671-2.132-2.167-1.9a31.486,31.486,0,0,0-13.964,5.62c-1.089.794-1.253,1.471-.226,2.447,1.664,1.582,3.284,3.212,4.872,4.871a1.672,1.672,0,0,0,2.482.3,17.979,17.979,0,0,1,4.927-2.313c4.071-1.231,4.068-1.241,4.068-5.468,0-.079,0-.158,0-.237m4.1-.15c0,4.539,0,4.539,4.37,5.949a2.016,2.016,0,0,1,.669.228c4.564,3.829,7.678,1.358,10.51-2.395a4.007,4.007,0,0,1,.669-.672c1.181-.964,1.018-1.731-.2-2.586a31.281,31.281,0,0,0-10.245-4.821c-5.777-1.49-5.776-1.5-5.776,4.3M40.377,111.73c0-1.584-.049-3.169.014-4.751.058-1.445-.576-1.982-1.984-1.941-2.137.062-4.276.045-6.413.01-1.309-.022-1.874.576-1.865,1.858.016,2.454-.008,4.909-.008,7.364,0,3.847,0,3.847,3.939,3.849,6.322,0,6.322,0,6.317-6.389m41.321-.271c0,1.583.032,3.168-.01,4.75-.033,1.261.425,1.933,1.779,1.91,2.216-.038,4.434-.03,6.65-.005,1.324.015,1.835-.654,1.829-1.908-.017-3.088-.025-6.175,0-9.263.013-1.454-.716-1.937-2.075-1.9a55.644,55.644,0,0,1-5.7-.022c-2.058-.158-2.664.751-2.5,2.64.107,1.257.02,2.531.025,3.8m-20.849,6.626a5.032,5.032,0,0,0,5.256-5.181c.015-3.355-1.553-6.04-3.828-8.371-.539-.552-1.069-.945-1.709-.025-1.213,1.745-2.6,3.374-3.723,5.172-2.322,3.719-.1,8.277,4,8.406" transform="translate(0 0)"/>
      </g>
    </g>
  </g>
</svg>
