<svg xmlns="http://www.w3.org/2000/svg" xmlns:xlink="http://www.w3.org/1999/xlink" width="129" height="129" viewBox="0 0 129 129">
  <defs>
    <clipPath id="clip-path">
      <rect id="Rectángulo_353311" data-name="Rectángulo 353311" width="86.776" height="117.201" fill="none"/>
    </clipPath>
  </defs>
  <g id="Grupo_1003278" data-name="Grupo 1003278" transform="translate(-736 -565)">
    <circle id="Elipse_5695" data-name="Elipse 5695" cx="64.5" cy="64.5" r="64.5" transform="translate(736 565)" fill="#06d1d1"/>
    <g id="Grupo_1003178" data-name="Grupo 1003178" transform="translate(756.612 570.523)">
      <g id="Grupo_1003177" data-name="Grupo 1003177" clip-path="url(#clip-path)">
        <path id="Trazado_715823" data-name="Trazado 715823" d="M86.764,65.987c-.048,11.1-1.352,20.237-5.695,28.711-6.155,12.012-16,19.107-29.19,21.638a43.337,43.337,0,0,1-32.494-6.212C10.649,104.54,5.6,96.162,2.492,86.378-.22,77.833-.3,69.069.307,60.372a87.624,87.624,0,0,1,7.57-29.067c3.807-8.7,8.819-16.544,15.894-22.959C32.64.3,42.689-2.36,54.04,2.269,60.046,4.718,64.649,9.2,68.691,14.113c8.843,10.749,13.7,23.382,16.478,36.849a71.384,71.384,0,0,1,1.595,15.025M43.977,7.768c-1.116-.116-2.144.256-2.261,1.449-.121,1.237.854,1.666,1.994,1.795A22.073,22.073,0,0,1,57.816,18.57c1.678,1.841,3.211,3.815,4.807,5.73.753.9,1.542,1.613,2.737.642,1.164-.947.4-1.832-.123-2.667a40.385,40.385,0,0,0-8.659-9.5,19.843,19.843,0,0,0-12.6-5.011" transform="translate(0 0)" fill="#ecf0d2"/>
        <path id="Trazado_715824" data-name="Trazado 715824" d="M90.875,16.481a19.843,19.843,0,0,1,12.6,5.011,40.385,40.385,0,0,1,8.659,9.5c.525.835,1.287,1.72.123,2.667-1.194.971-1.984.261-2.737-.642-1.6-1.915-3.129-3.888-4.807-5.73a22.073,22.073,0,0,0-14.106-7.558c-1.14-.129-2.115-.558-1.994-1.795.117-1.194,1.145-1.566,2.261-1.449" transform="translate(-46.898 -8.713)" fill="#d0daad"/>
      </g>
    </g>
  </g>
</svg>
