<svg xmlns="http://www.w3.org/2000/svg" xmlns:xlink="http://www.w3.org/1999/xlink" width="217.543" height="203.118" viewBox="0 0 217.543 203.118">
  <defs>
    <clipPath id="clip-path">
      <rect id="Rectángulo_353338" data-name="Rectángulo 353338" width="217.543" height="203.119" transform="translate(0 0)" fill="none"/>
    </clipPath>
  </defs>
  <g id="Grupo_1003190" data-name="Grupo 1003190" transform="translate(0 0.003)">
    <g id="Grupo_1003189" data-name="Grupo 1003189" transform="translate(0 -0.003)" clip-path="url(#clip-path)">
      <path id="Trazado_715918" data-name="Trazado 715918" d="M827.641,590.559c3.516,6.865,15.571,41.522,15.571,41.522l10.381-2.846c-1.339-17.245-10.381-45.708-10.381-45.708Z" transform="translate(-672.771 -474.335)" fill="#fcaa97"/>
      <path id="Trazado_715919" data-name="Trazado 715919" d="M281.97,551.316c-3.516,11.385-21.6,46.712-21.6,46.712l8.371,5.525c13.9-14.231,29.132-43.866,29.132-43.866Z" transform="translate(-211.65 -448.152)" fill="#fcaa97"/>
      <path id="Trazado_715920" data-name="Trazado 715920" d="M544.034,227.865a26.949,26.949,0,0,1-.67,7.032,3.426,3.426,0,0,1-2.126,2.177l-11.1,4.018,21.156,29.948,19.026-30.283-5.605-2.69a2.766,2.766,0,0,1-1.778-2.489c-.173-3.941-.039-7.683-.039-7.683Z" transform="translate(-430.937 -185.226)" fill="#fcaa97"/>
      <path id="Trazado_715921" data-name="Trazado 715921" d="M627.72,244.6l-.456-.219a2.767,2.767,0,0,1-1.778-2.489c-.107-2.446-.1-4.814-.073-6.26l-18.328,2.733c4.37,12.507,17.959,7.384,20.634,6.235" transform="translate(-493.486 -191.536)" fill="#c77f6d"/>
      <path id="Trazado_715922" data-name="Trazado 715922" d="M579.274,33.113a3.449,3.449,0,0,0,.957-1.154l2.671-4.4a8.928,8.928,0,0,0,1.278-2.787,9.032,9.032,0,0,0-.206-3.464l-1.471-7.7a5.318,5.318,0,0,0-.9-2.44,11.188,11.188,0,0,0-2.57-1.715c-1.921-1.325-2.7-3.9-4.582-5.281A9.863,9.863,0,0,0,571.6,2.905L564.292.546a6.241,6.241,0,0,0-3.608-.414c-.684.2-1.281.629-1.952.87-2.393.859-5.106-.823-7.533-.071-2.57.8-3.756,3.947-6.183,5.117-1.2.58-2.66.644-3.681,1.513-2.066,1.758-.925,5.226-1.881,7.788-.608,1.629-2.1,2.941-2.163,4.683-.063,1.719,1.294,3.142,1.716,4.808.464,1.831-.206,3.933.733,5.565.9,1.564,2.867,2.013,4.434,2.876,1.43.788,2.611,2,4.081,2.707a13.605,13.605,0,0,0,6.121.868l14.653-.188c1.915-.025,4.289-.028,5.856-1.324.631-.522.685-1.131,1.487-1.557.879-.466,2.019-.091,2.9-.675" transform="translate(-436.749 0.003)" fill="#87cbed"/>
      <path id="Trazado_715923" data-name="Trazado 715923" d="M593.686,67.513c-1.156-.385-1.36.126-1.756.2,1.121-11.5-4.708-21.034-15.454-21.149-11.682-.125-16.491,8.609-16.042,20.187a2.221,2.221,0,0,0-1.7-.3c-1.589.421-1.363,2.707-.628,5.332s2.344,4.186,3.291,4.175a.981.981,0,0,0,.458-.192c2.659,9.307,7.6,15.795,12.994,15.774,5.883-.023,11.5-4.133,15.068-14.734,1.6.417,2.511,0,4.388-3.328,1.339-2.373.886-5.462-.621-5.965" transform="translate(-453.214 -37.849)" fill="#fcaa97"/>
      <path id="Trazado_715924" data-name="Trazado 715924" d="M642.193,206.941a.175.175,0,0,1-.035,0,.178.178,0,0,1-.14-.21,5.966,5.966,0,0,0,0-2.025.178.178,0,1,1,.353-.051,6.312,6.312,0,0,1-.005,2.146.178.178,0,0,1-.175.143" transform="translate(-521.879 -166.232)" fill="#382118"/>
      <path id="Trazado_715925" data-name="Trazado 715925" d="M640.179,227.015a2.413,2.413,0,0,1-1.394-.436.178.178,0,0,1,.2-.293,2.383,2.383,0,0,0,2.482.023.178.178,0,0,1,.187.3,3.063,3.063,0,0,1-1.477.4" transform="translate(-519.191 -183.917)" fill="#382118"/>
      <path id="Trazado_715926" data-name="Trazado 715926" d="M739.337,176.932a.178.178,0,0,1-.1-.327,3.5,3.5,0,0,0,1.2-3.631.178.178,0,0,1,.351-.062,3.846,3.846,0,0,1-1.353,3.991.177.177,0,0,1-.1.029" transform="translate(-600.846 -140.436)" fill="#382118"/>
      <path id="Trazado_715927" data-name="Trazado 715927" d="M689.781,169.014c-.2.391-1.408.167-2.692-.5s-2.161-1.522-1.959-1.913,1.408-.167,2.692.5,2.161,1.522,1.959,1.913" transform="translate(-556.903 -135.271)" fill="#943c26"/>
      <path id="Trazado_715928" data-name="Trazado 715928" d="M589.168,160.437c.174.4,1.392.267,2.721-.306s2.264-1.365,2.09-1.769-1.392-.267-2.721.306-2.264,1.365-2.09,1.769" transform="translate(-478.905 -128.54)" fill="#943c26"/>
      <path id="Trazado_715929" data-name="Trazado 715929" d="M628.736,245.252a72.154,72.154,0,0,0,7.373.036c-4.083,4.617-7.373-.036-7.373-.036" transform="translate(-511.085 -199.359)" fill="#fff"/>
      <path id="Trazado_715930" data-name="Trazado 715930" d="M687.619,210.335c-.028.791-1.156,1.394-2.519,1.345s-2.445-.73-2.417-1.521,1.156-1.394,2.519-1.345,2.445.73,2.417,1.521" transform="translate(-554.937 -169.737)" fill="#ff8382"/>
      <path id="Trazado_715931" data-name="Trazado 715931" d="M592.543,205.737c-.051.79,1.011,1.5,2.372,1.59s2.506-.481,2.557-1.272-1.011-1.5-2.372-1.59-2.506.482-2.557,1.272" transform="translate(-481.664 -166.197)" fill="#ff8382"/>
      <path id="Trazado_715932" data-name="Trazado 715932" d="M619.827,104.867a19.188,19.188,0,0,1-4.759-2.117c-.746-.45-1.465-.94-2.168-1.458s-1.443-1.005-2.189-1.468c-1.088-.677-2.2-1.31-3.294-1.96a29.948,29.948,0,0,1,6.67,3.786c6.949,4.616,15.481,3.283,15.481,3.283-3.39-14.845-25.2-7.983-25.2-7.983a15.97,15.97,0,0,1,1.688.432l-.1.159c1.514.892,3.066,1.7,4.567,2.589q1.127.664,2.2,1.4c.718.5,1.457.983,2.22,1.42a19.356,19.356,0,0,0,4.85,2.027,19.064,19.064,0,0,0,5.214.535,19.01,19.01,0,0,1-5.183-.651" transform="translate(-491.275 -77.522)" fill="#943c26"/>
      <path id="Trazado_715933" data-name="Trazado 715933" d="M570.887,58.6c.837-5.86,5.976-9.966,15.553-9.7,13.121.359,15.923,10.207,15.923,10.207.314-8.488.762-21.728-15.111-22.055C565.418,36.6,570.887,58.6,570.887,58.6" transform="translate(-463.566 -30.109)" fill="#87cbed"/>
      <path id="Trazado_715934" data-name="Trazado 715934" d="M573.757,109.021a7.515,7.515,0,0,1,.162-2.609,8.71,8.71,0,0,1,.994-2.467,9.482,9.482,0,0,1,1.713-2.075,11.33,11.33,0,0,1,2.214-1.538,16.433,16.433,0,0,1,5.074-1.642,25,25,0,0,1,2.635-.289c.88-.052,1.761-.068,2.643-.039a24.152,24.152,0,0,1,2.643.22,20.921,20.921,0,0,1,2.609.526,16.724,16.724,0,0,1,4.869,2.15,14.146,14.146,0,0,1,3.823,3.661,13.515,13.515,0,0,1,1.307,2.285,10.505,10.505,0,0,1,.789,2.486,9.948,9.948,0,0,0-.482-1.2c-.182-.389-.381-.769-.6-1.137a14.807,14.807,0,0,0-3.271-3.859,15.653,15.653,0,0,0-2.062-1.439,17.445,17.445,0,0,0-4.661-1.828,22.925,22.925,0,0,0-2.48-.444q-1.254-.151-2.522-.184a31.176,31.176,0,0,0-5.057.277,17.35,17.35,0,0,0-4.807,1.354,10.4,10.4,0,0,0-2.116,1.289,8.8,8.8,0,0,0-2.909,3.993,8.518,8.518,0,0,0-.348,1.228,7.215,7.215,0,0,0-.163,1.279" transform="translate(-466.352 -79.943)" fill="#4d99bf"/>
      <path id="Trazado_715935" data-name="Trazado 715935" d="M682.427,192.4a10.559,10.559,0,0,1-3.25-.481.178.178,0,0,1,.113-.338,10.974,10.974,0,0,0,4.094.42.178.178,0,1,1,.04.354,9.705,9.705,0,0,1-1,.045" transform="translate(-551.989 -155.722)" fill="#382118"/>
      <path id="Trazado_715936" data-name="Trazado 715936" d="M686.007,194.392a6.656,6.656,0,0,1-1.284-.186,1.115,1.115,0,0,0-.242.69,1.259,1.259,0,0,0,2.512,0,1.1,1.1,0,0,0-.129-.515,6.979,6.979,0,0,1-.857.011" transform="translate(-556.399 -157.865)" fill="#382118"/>
      <path id="Trazado_715937" data-name="Trazado 715937" d="M600.111,187.03a10.561,10.561,0,0,1-3.25-.481.178.178,0,0,1,.113-.338,10.978,10.978,0,0,0,4.094.42.178.178,0,1,1,.04.354,9.71,9.71,0,0,1-1,.045" transform="translate(-485.076 -151.358)" fill="#382118"/>
      <path id="Trazado_715938" data-name="Trazado 715938" d="M603.69,189.024a6.656,6.656,0,0,1-1.284-.186,1.115,1.115,0,0,0-.242.69,1.259,1.259,0,0,0,2.512,0,1.1,1.1,0,0,0-.129-.515,6.976,6.976,0,0,1-.857.011" transform="translate(-489.485 -153.502)" fill="#382118"/>
      <path id="Trazado_715939" data-name="Trazado 715939" d="M566.838,170.164a.177.177,0,0,1-.133-.06,5.207,5.207,0,0,1-.879-4.337.178.178,0,1,1,.35.066,4.951,4.951,0,0,0,.8,4.035.178.178,0,0,1-.134.3" transform="translate(-459.852 -134.63)" fill="#382118"/>
      <path id="Trazado_715940" data-name="Trazado 715940" d="M400.311,272.155c3.349,13.9,9.711,19.589,9.711,19.589,7.869-5.86,12.892-18.082,12.892-18.082a214.444,214.444,0,0,1,21.861,10.367,14.406,14.406,0,0,1,6.792,7.9c7.307,20.649,12.869,39.332,12.869,39.332-8.371,6.195-20.594,9.376-20.594,9.376L442,336.28c1.339,17.915,1.674,56.256,1.674,56.256H370.341c0-8.706,3.014-30.472,3.014-30.472,1.674-8.874,3.181-26.788,3.181-26.788-7.032-1.339-20.426-11.553-20.426-11.553,1.856-4.455,10.665-23.913,15.134-33.76a19.552,19.552,0,0,1,8.814-9.3,163.475,163.475,0,0,1,20.253-8.5" transform="translate(-289.474 -221.228)" fill="#73c0e6"/>
      <path id="Trazado_715941" data-name="Trazado 715941" d="M599.606,292.36l-.305-.371c-.388-.471-9.494-11.619-9.832-19.907l1.068-.044c.29,7.1,7.681,16.853,9.285,18.89,6.965-4.922,12.573-17.449,12.63-17.578l.978.433c-.242.546-6.009,13.426-13.421,18.312Z" transform="translate(-479.165 -221.133)" fill="#4d99bf"/>
      <path id="Trazado_715942" data-name="Trazado 715942" d="M824.523,596l-.259-1.037a68.994,68.994,0,0,0,20.414-9.293l.618.872A70.219,70.219,0,0,1,824.523,596" transform="translate(-670.025 -476.078)" fill="#4d99bf"/>
      <path id="Trazado_715943" data-name="Trazado 715943" d="M374.786,558.131c-.119-.032-11.952-3.314-20.657-11.683l.741-.771c8.509,8.182,20.08,11.391,20.2,11.422Z" transform="translate(-287.863 -443.568)" fill="#4d99bf"/>
      <path id="Trazado_715944" data-name="Trazado 715944" d="M600.5,476.7h-.007a.178.178,0,0,1-.171-.185l3.855-97.718.1-.046a13.8,13.8,0,0,0,4.129-2.8.178.178,0,0,1,.266.237,13.765,13.765,0,0,1-4.145,2.843l-3.847,97.5a.178.178,0,0,1-.178.171" transform="translate(-487.985 -305.551)" fill="#382118"/>
      <path id="Trazado_715945" data-name="Trazado 715945" d="M463.6,519.361h-.014a.178.178,0,0,1-.163-.192c.012-.146,1.167-14.634.837-21.408a.178.178,0,0,1,.169-.187.181.181,0,0,1,.187.169c.332,6.8-.826,21.308-.837,21.454a.178.178,0,0,1-.178.164" transform="translate(-376.704 -404.466)" fill="#382118"/>
      <path id="Trazado_715946" data-name="Trazado 715946" d="M814.842,526.853a.178.178,0,0,1-.178-.172c0-.1-.337-10.347-.5-21.769a.178.178,0,0,1,.176-.181.176.176,0,0,1,.181.176c.165,11.419.5,21.66.5,21.762a.178.178,0,0,1-.172.184h-.006" transform="translate(-661.814 -410.284)" fill="#382118"/>
      <path id="Trazado_715947" data-name="Trazado 715947" d="M747.38,791.01a.178.178,0,0,1-.178-.177l-.15-28.135,13.814-.353h0a.178.178,0,0,1,0,.356l-13.465.344.148,27.786a.178.178,0,0,1-.177.179Z" transform="translate(-607.262 -619.691)" fill="#382118"/>
      <path id="Trazado_715948" data-name="Trazado 715948" d="M459.287,784.8h-.008a.178.178,0,0,1-.17-.186l1.247-27.758-12.939-.859a.178.178,0,1,1,.024-.356l13.286.882-1.263,28.107a.178.178,0,0,1-.178.17" transform="translate(-363.56 -614.241)" fill="#382118"/>
      <path id="Trazado_715949" data-name="Trazado 715949" d="M635.993,396.163a1.7,1.7,0,1,1-1.7-1.7,1.7,1.7,0,0,1,1.7,1.7" transform="translate(-514.215 -320.647)" fill="#4d99bf"/>
      <path id="Trazado_715950" data-name="Trazado 715950" d="M627.94,536.639a1.7,1.7,0,1,1-1.7-1.7,1.7,1.7,0,0,1,1.7,1.7" transform="translate(-507.669 -434.837)" fill="#4d99bf"/>
      <path id="Trazado_715951" data-name="Trazado 715951" d="M621.677,668.166a1.7,1.7,0,1,1-1.7-1.7,1.7,1.7,0,0,1,1.7,1.7" transform="translate(-502.578 -541.752)" fill="#4d99bf"/>
      <path id="Trazado_715952" data-name="Trazado 715952" d="M617.2,811.326a1.7,1.7,0,1,1-1.7-1.7,1.7,1.7,0,0,1,1.7,1.7" transform="translate(-498.941 -658.124)" fill="#4d99bf"/>
      <path id="Trazado_715953" data-name="Trazado 715953" d="M218,926.6H.728l15.163-36.174H202.836Z" transform="translate(-0.592 -723.806)" fill="#dbdbdb"/>
      <rect id="Rectángulo_353319" data-name="Rectángulo 353319" width="35.77" height="2.673" transform="matrix(0.365, -0.931, 0.931, 0.365, 6.485, 200.452)" fill="#bababa"/>
      <rect id="Rectángulo_353320" data-name="Rectángulo 353320" width="35.201" height="2.673" transform="translate(17.823 200.26) rotate(-70.766)" fill="#bababa"/>
      <rect id="Rectángulo_353321" data-name="Rectángulo 353321" width="34.688" height="2.673" transform="translate(29.143 200.071) rotate(-73.034)" fill="#bababa"/>
      <rect id="Rectángulo_353322" data-name="Rectángulo 353322" width="34.552" height="2.673" transform="translate(40.11 201.164) rotate(-75.361)" fill="#bababa"/>
      <rect id="Rectángulo_353323" data-name="Rectángulo 353323" width="34.212" height="2.673" transform="matrix(0.212, -0.977, 0.977, 0.212, 51.395, 201.217)" fill="#bababa"/>
      <rect id="Rectángulo_353324" data-name="Rectángulo 353324" width="33.891" height="2.673" transform="matrix(0.171, -0.985, 0.985, 0.171, 62.71, 201.112)" fill="#bababa"/>
      <rect id="Rectángulo_353325" data-name="Rectángulo 353325" width="33.869" height="2.673" transform="matrix(0.129, -0.992, 0.992, 0.129, 73.89, 201.974)" fill="#bababa"/>
      <rect id="Rectángulo_353326" data-name="Rectángulo 353326" width="33.593" height="2.673" transform="translate(85.251 201.548) rotate(-85.084)" fill="#bababa"/>
      <rect id="Rectángulo_353327" data-name="Rectángulo 353327" width="33.538" height="2.673" transform="translate(96.546 201.767) rotate(-87.584)" fill="#bababa"/>
      <rect id="Rectángulo_353328" data-name="Rectángulo 353328" width="2.673" height="33.431" transform="translate(107.802 168.073) rotate(-0.094)" fill="#bababa"/>
      <rect id="Rectángulo_353329" data-name="Rectángulo 353329" width="2.673" height="33.504" transform="matrix(0.999, -0.045, 0.045, 0.999, 117.643, 168.253)" fill="#bababa"/>
      <rect id="Rectángulo_353330" data-name="Rectángulo 353330" width="2.673" height="33.642" transform="matrix(0.996, -0.089, 0.089, 0.996, 127.496, 168.433)" fill="#bababa"/>
      <rect id="Rectángulo_353331" data-name="Rectángulo 353331" width="2.673" height="33.804" transform="translate(137.347 168.491) rotate(-7.58)" fill="#bababa"/>
      <rect id="Rectángulo_353332" data-name="Rectángulo 353332" width="2.673" height="34.108" transform="translate(147.244 168.792) rotate(-10.031)" fill="#bababa"/>
      <rect id="Rectángulo_353333" data-name="Rectángulo 353333" width="2.673" height="34.275" transform="translate(157.029 168.481) rotate(-12.446)" fill="#bababa"/>
      <rect id="Rectángulo_353334" data-name="Rectángulo 353334" width="2.673" height="34.742" transform="translate(166.978 168.901) rotate(-14.816)" fill="#bababa"/>
      <rect id="Rectángulo_353335" data-name="Rectángulo 353335" width="2.673" height="35.106" transform="matrix(0.956, -0.295, 0.295, 0.956, 176.81, 168.83)" fill="#bababa"/>
      <rect id="Rectángulo_353336" data-name="Rectángulo 353336" width="2.673" height="35.484" transform="translate(186.59 168.637) rotate(-19.399)" fill="#bababa"/>
      <rect id="Rectángulo_353337" data-name="Rectángulo 353337" width="2.673" height="35.872" transform="translate(196.303 168.32) rotate(-21.601)" fill="#bababa"/>
      <path id="Trazado_715954" data-name="Trazado 715954" d="M92.868,933.119c-1.061,3.054-4.3,5.6-7.2,5.6s-4.27-2.522-3.075-5.577c1.164-2.978,4.335-5.342,7.109-5.349s4.2,2.347,3.168,5.324" transform="translate(-66.785 -754.183)" fill="#fff"/>
      <path id="Trazado_715955" data-name="Trazado 715955" d="M127.637,1000.716c-1.026,3.408-4.368,6.246-7.44,6.254s-4.586-2.818-3.411-6.226c1.144-3.317,4.419-5.948,7.344-5.956s4.505,2.611,3.507,5.927" transform="translate(-94.61 -808.641)" fill="#fff"/>
      <path id="Trazado_715956" data-name="Trazado 715956" d="M265.739,912.786a6.97,6.97,0,0,1-6.33,5.414c-2.855.007-4.536-2.437-3.772-5.39a6.985,6.985,0,0,1,6.273-5.173c2.727-.006,4.447,2.27,3.829,5.149" transform="translate(-207.652 -737.798)" fill="#fff"/>
      <path id="Trazado_715957" data-name="Trazado 715957" d="M250.856,972.221c-.7,3.256-3.71,5.967-6.711,5.975s-4.736-2.691-3.895-5.948c.818-3.172,3.785-5.689,6.646-5.7s4.64,2.5,3.96,5.669" transform="translate(-195.121 -785.688)" fill="#fff"/>
      <path id="Trazado_715958" data-name="Trazado 715958" d="M369.267,940.65c-.39,3.678-3.071,6.736-5.98,6.743s-4.833-3.04-4.309-6.719c.51-3.585,3.166-6.431,5.943-6.437s4.727,2.828,4.347,6.413" transform="translate(-291.735 -759.419)" fill="#fff"/>
      <path id="Trazado_715959" data-name="Trazado 715959" d="M430.619,916.2c-.239,3.555-2.754,6.509-5.612,6.516s-4.871-2.937-4.5-6.493c.359-3.467,2.857-6.219,5.588-6.225s4.76,2.736,4.527,6.2" transform="translate(-341.782 -739.72)" fill="#fff"/>
      <path id="Trazado_715960" data-name="Trazado 715960" d="M421.526,987.058c-.266,4.071-2.935,7.459-5.954,7.467s-5.127-3.369-4.717-7.441c.4-3.965,3.048-7.109,5.926-7.116s5,3.125,4.746,7.09" transform="translate(-333.933 -796.593)" fill="#fff"/>
      <path id="Trazado_715961" data-name="Trazado 715961" d="M538.391,924.576c.011,3.676-2.178,6.732-4.891,6.738s-4.818-3.04-4.7-6.716c.11-3.583,2.3-6.427,4.887-6.433s4.7,2.828,4.709,6.411" transform="translate(-429.842 -746.355)" fill="#fff"/>
      <path id="Trazado_715962" data-name="Trazado 715962" d="M594.6,991.952c.166,4.1-2.143,7.517-5.162,7.525s-5.484-3.4-5.506-7.5c-.021-4,2.294-7.164,5.171-7.171s5.336,3.15,5.5,7.145" transform="translate(-474.665 -800.527)" fill="#fff"/>
      <path id="Trazado_715963" data-name="Trazado 715963" d="M648.016,913.8c.28,3.7-1.809,6.776-4.673,6.783s-5.311-3.059-5.461-6.76c-.146-3.609,1.955-6.474,4.691-6.48s5.169,2.849,5.442,6.457" transform="translate(-518.514 -737.56)" fill="#fff"/>
      <path id="Trazado_715964" data-name="Trazado 715964" d="M709.95,994.533c.469,4.055-1.638,7.431-4.718,7.439s-5.841-3.356-6.16-7.411c-.31-3.947,1.821-7.075,4.753-7.082s5.669,3.109,6.125,7.055" transform="translate(-568.236 -802.698)" fill="#fff"/>
      <path id="Trazado_715965" data-name="Trazado 715965" d="M812.326,916.168c.667,3.5-1.1,6.415-3.955,6.422s-5.621-2.895-6.158-6.4c-.524-3.417,1.275-6.129,4-6.135s5.459,2.7,6.109,6.112" transform="translate(-652.027 -739.763)" fill="#fff"/>
      <path id="Trazado_715966" data-name="Trazado 715966" d="M826.249,990.96c.767,4.035-1.085,7.395-4.156,7.4s-6.075-3.339-6.693-7.375c-.6-3.928,1.293-7.042,4.218-7.049s5.885,3.094,6.631,7.022" transform="translate(-662.73 -799.82)" fill="#fff"/>
      <path id="Trazado_715967" data-name="Trazado 715967" d="M876.109,946.9c.865,3.8-.831,6.965-3.81,6.972s-6-3.144-6.722-6.946c-.706-3.7,1.037-6.642,3.878-6.648s5.811,2.92,6.654,6.623" transform="translate(-703.481 -764.331)" fill="#fff"/>
      <path id="Trazado_715968" data-name="Trazado 715968" d="M989.594,975.161c1.159,3.272-.313,6-3.317,6s-6.282-2.7-7.3-5.976c-.99-3.187.548-5.715,3.411-5.722s6.076,2.509,7.2,5.7" transform="translate(-795.545 -788.056)" fill="#fff"/>
      <path id="Trazado_715969" data-name="Trazado 715969" d="M1061.347,1003.791c1.374,3.424.025,6.276-3.048,6.284s-6.583-2.831-7.808-6.256c-1.192-3.333.237-5.977,3.163-5.984s6.356,2.623,7.694,5.956" transform="translate(-853.577 -811.117)" fill="#fff"/>
      <path id="Trazado_715970" data-name="Trazado 715970" d="M264.264,893.594H74.663l1.328-3.169H262.935Z" transform="translate(-60.692 -723.806)" fill="#bababa"/>
      <path id="Trazado_715971" data-name="Trazado 715971" d="M217.543,1067.4H0l1.745-4.163H215.8Z" transform="translate(0 -864.276)" fill="#bababa"/>
      <path id="Trazado_715972" data-name="Trazado 715972" d="M192.235,893.3c.786,3.69-.777,7.15-3.49,7.728s-5.551-1.944-6.337-5.634.776-7.15,3.49-7.728,5.551,1.944,6.337,5.634" transform="translate(-148.11 -721.495)" fill="#fff"/>
      <path id="Trazado_715973" data-name="Trazado 715973" d="M175.232,780.371c-.82,1.758-3.2,5.649-4.553,7.825a4.313,4.313,0,0,1-2.688,1.926,30.118,30.118,0,0,0-4.981,1.466c-10.046,6.195-8.036,17.245-8.036,17.245,1,2.511,2.511,0,2.511,0,2.176.837,2.511-2.344,2.511-2.344.167-4.521,7.032-8.706,7.032-8.706,4.521-.837,4.688,3.181,4.688,3.181a28.588,28.588,0,0,1-1.172,3.851,5.732,5.732,0,0,0,.6,5.477c.68.968,1.412.55,2.249-.287.335-.335.5-3.014.5-3.014,1.674-7.032,12.222-19.087,12.222-19.087-1.842-2.846-10.883-7.534-10.883-7.534" transform="translate(-125.841 -634.345)" fill="#99d3f0"/>
      <path id="Trazado_715974" data-name="Trazado 715974" d="M167.134,878.938a.134.134,0,0,1-.13-.1c-1.673-6.692,3.663-12.292,3.717-12.348a.134.134,0,0,1,.192.186c-.053.055-5.286,5.551-3.65,12.1a.134.134,0,0,1-.1.162.141.141,0,0,1-.033,0" transform="translate(-135.49 -704.315)" fill="#382118"/>
      <path id="Trazado_715975" data-name="Trazado 715975" d="M935.17,918.45c-.169-3.769,1.94-6.925,4.712-7.05s5.156,2.829,5.326,6.6-1.94,6.925-4.712,7.05-5.156-2.829-5.326-6.6" transform="translate(-760.17 -740.853)" fill="#fff"/>
      <path id="Trazado_715976" data-name="Trazado 715976" d="M901.01,815.253a33.1,33.1,0,0,1,12.557-2.679,40.525,40.525,0,0,0,.72,5.8,5.741,5.741,0,0,0,1.369,3.177c2.436,2.827,3.878,4.282,4.579,4.946a4.473,4.473,0,0,1,.912,1.219c1.435,2.82,2.532,5.315,3.022,6.461a3.28,3.28,0,0,1,.263,1.375c-.172,6.613-.485,6.994-.485,6.994-.5,1.507-1.674,1.172-1.674,1.172a1.81,1.81,0,0,1-2.679,0l-.167-1.674c-3.851,4.018-2.344-3.014-2.344-3.014-2.846-10.548-7.367-10.213-7.367-10.213.335,4.353.335,6.864.335,6.864a4.537,4.537,0,0,1-1.5,3.506,1.236,1.236,0,0,1-2.047-.73,7.558,7.558,0,0,1,.035-2.274c-.5-4.855-1.339-5.86-1.339-5.86a13.034,13.034,0,0,1-1.445-5.8,8.462,8.462,0,0,0-.982-3.8Z" transform="translate(-732.41 -660.521)" fill="#99d3f0"/>
      <path id="Trazado_715977" data-name="Trazado 715977" d="M993.761,921.608a.131.131,0,0,1-.053-.011.134.134,0,0,1-.069-.176c2.288-5.23-1.129-10.87-1.163-10.926a.134.134,0,0,1,.227-.141c.036.058,3.526,5.814,1.181,11.174a.134.134,0,0,1-.123.08" transform="translate(-806.745 -739.954)" fill="#382118"/>
      <path id="Trazado_715978" data-name="Trazado 715978" d="M1008.972,919.646h-.018a.134.134,0,0,1-.115-.15c.2-1.516.379-2.735.521-3.714.625-4.315.625-4.315-.484-6.879-.315-.73-.708-1.637-1.2-2.9a.134.134,0,1,1,.249-.1c.492,1.26.883,2.165,1.2,2.893,1.138,2.634,1.138,2.634.5,7.024-.142.979-.318,2.2-.52,3.711a.134.134,0,0,1-.132.116" transform="translate(-819.109 -736.317)" fill="#382118"/>
    </g>
  </g>
</svg>
