<svg xmlns="http://www.w3.org/2000/svg" xmlns:xlink="http://www.w3.org/1999/xlink" width="129" height="129" viewBox="0 0 129 129">
  <defs>
    <clipPath id="clip-path">
      <rect id="Rectángulo_353241" data-name="Rectángulo 353241" width="94.68" height="113.523" fill="#fff"/>
    </clipPath>
  </defs>
  <g id="Grupo_1003255" data-name="Grupo 1003255" transform="translate(-5826 6412)">
    <circle id="Elipse_5705" data-name="Elipse 5705" cx="64.5" cy="64.5" r="64.5" transform="translate(5826 -6412)" fill="#b20d0d"/>
    <g id="Grupo_1003114" data-name="Grupo 1003114" transform="translate(5843.16 -6404.638)">
      <g id="Grupo_1003113" data-name="Grupo 1003113" clip-path="url(#clip-path)">
        <path id="Trazado_715349" data-name="Trazado 715349" d="M77.713,66.883a3.228,3.228,0,0,0,.361-2.151c.012-15.99-.029-31.981.054-47.971.011-2.211-.612-3.175-2.869-2.892a5.611,5.611,0,0,1-1.751-.165,1.809,1.809,0,0,1-1.7-1.737A1.779,1.779,0,0,1,73.506,10a23.539,23.539,0,0,1,6.6.034c1.588.256,1.916,1.515,1.747,2.857-.278,2.219.726,2.818,2.783,2.68,2.2-.148,4.419-.059,6.63-.022,2.555.042,3.2.721,3.3,3.331.018.516.008,1.032.008,1.547q0,37.691,0,75.382c0,.737.017,1.476-.043,2.209-.1,1.271-.531,2.452-2.026,2.412s-1.853-1.255-1.937-2.513c-.054-.807-.034-1.62-.034-2.43q0-36.475,0-72.951c0-3.193-.007-3.193-3.126-3.2-5.524-.011-5.524-.011-5.524,5.611,0,14.59.022,29.18-.03,43.77a4.953,4.953,0,0,0,1.669,4.08c1.806,1.623,3.446,3.43,5.182,5.132,1.238,1.214,1.307,2.395.034,3.614a8.244,8.244,0,0,1-.94.933c-5.16,3.519-6.779,8.4-5.977,14.464.364,2.752.023,5.593.069,8.392a2.36,2.36,0,0,1-2.5,2.7c-.807.057-1.62.05-2.43.05q-22.88,0-45.76.03c-.921,0-2.568-.55-2.594.769-.027,1.4,1.625.807,2.521.809,18.864.04,37.728,0,56.592.067,2.028.007,3.017-.467,2.879-2.681-.078-1.253.219-2.7,1.906-2.719,1.837-.024,1.951,1.493,2.049,2.837.433,5.95.086,6.321-5.75,6.321q-30.4,0-60.792,0c-3.377,0-3.59-.156-3.81-3.587-.084-1.308-.585-1.858-1.88-1.841q-3.536.047-7.074-.01c-2.867-.048-3.491-.678-3.492-3.55-.01-17.1-.035-34.191.034-51.286.008-2.015-.322-3.615-2.179-4.642a3.67,3.67,0,0,1-.655-.591c-1.032-.97-1.95-2.075-.682-3.381,1.183-1.218,2.3-.348,3.261.529A23.858,23.858,0,0,0,29.37,51.4c11.249-.481,21.387-10.247,22.137-21.5,1-15.076-10.279-26.671-25.351-26.05C14.45,4.332,4.41,14.5,3.954,26.2A25.1,25.1,0,0,0,6.467,38.612c.6,1.205,1.025,2.458-.514,3.221-1.556.772-2.28-.394-2.88-1.561C-6.095,22.453,6.283.779,26.524.023A27.078,27.078,0,0,1,48.076,8.885a3.425,3.425,0,0,0,2.794.969c4.274-.006,8.548-.014,12.821.011a10.7,10.7,0,0,1,2.4.263,1.673,1.673,0,0,1,1.337,1.8,1.625,1.625,0,0,1-1.28,1.616,12.14,12.14,0,0,1-2.612.336q-4.973.058-9.947.008c-1.287-.013-1.524.38-.982,1.567,4.114,9,3.788,17.838-1.126,26.463-.386.679-.74,1.383-.028,1.992,1.07.917,1.714,2.788,3.425,2.384,1.622-.383,2.5.323,3.463,1.285q9.06,9.072,18.132,18.132c.359.359.738.7,1.241,1.175M15.553,78.144c0,7.88.026,15.759-.023,23.637-.01,1.539.385,2.29,2.092,2.287q29.16-.054,58.32,0c1.647,0,2.2-.644,2.162-2.236-.073-3.459-.116-6.925.017-10.381A5.746,5.746,0,0,0,76.181,86.8c-9.472-9.377-18.873-18.825-28.3-28.243-1.068-1.066-1.865-2.026-1.451-3.835.4-1.759-1.584-2.445-2.584-3.527-.747-.808-1.485.012-2.155.392a27.321,27.321,0,0,1-24.223,1.764c-1.736-.661-1.948-.221-1.937,1.376.053,7.805.024,15.611.025,23.416m69.013,1.785c-.016-.844-.589-1.248-1.046-1.706q-4.589-4.612-9.2-9.205c-3.833-3.833-3.792-3.792-7.642.108-1.1,1.115-1.049,1.794.034,2.847,3.742,3.638,7.4,7.361,11.092,11.051,2,2,2.021,2.017,4.037-.057.96-.987,2.147-1.791,2.72-3.037M62.006,57.284a2,2,0,0,0-.8-1.37c-1.241-1.257-2.581-2.429-3.72-3.772-1.178-1.39-1.98-1.138-3.155.069-3.623,3.721-3.671,3.675.025,7.368,2.882,2.88,2.894,2.893,5.757-.015.706-.717,1.629-1.285,1.887-2.281m.747,10.264a9.772,9.772,0,0,0,.981-.745c.894-.86,1.712-1.8,2.651-2.61,1.122-.963,1.5-1.692.222-2.979-1.328-1.337-2.052-.745-2.981.3-.776.87-1.657,1.645-2.46,2.493-.427.451-1.153.893-.608,1.646a4.754,4.754,0,0,0,2.195,1.9" transform="translate(0 0)" fill="#fff"/>
        <path id="Trazado_715350" data-name="Trazado 715350" d="M56.911,35.511a21.464,21.464,0,0,1-21.463,21.52c-11.606.123-21.517-9.8-21.543-21.569A21.486,21.486,0,0,1,35.5,14.056,21.216,21.216,0,0,1,56.911,35.511M35.58,53.058a17.6,17.6,0,0,0-.09-35.2A17.389,17.389,0,0,0,17.907,35.527,17.255,17.255,0,0,0,35.58,53.058" transform="translate(-7.757 -7.841)" fill="#fff"/>
        <path id="Trazado_715351" data-name="Trazado 715351" d="M149.389,50.028c0,2.061.038,4.122-.012,6.182a2.387,2.387,0,0,1-2.68,2.558c-2.431.013-4.862.023-7.293,0a2.475,2.475,0,0,1-2.758-2.736c-.017-3.9-.007-7.808-.008-11.713a2.412,2.412,0,0,1,2.525-2.73c2.574-.084,5.153-.078,7.729-.027a2.323,2.323,0,0,1,2.5,2.51c.044,1.986.011,3.974.011,5.961h-.011m-8.968.047h.012c0,1.029.016,2.059,0,3.087-.029,1.491.978,1.666,2.08,1.578,1.131-.09,2.791.563,2.914-1.39.138-2.2.04-4.407.013-6.612-.008-.669-.408-1.012-1.079-1.182-2.855-.726-3.93.069-3.936,2.974,0,.515,0,1.029,0,1.544" transform="translate(-76.226 -23.163)" fill="#fff"/>
        <path id="Trazado_715352" data-name="Trazado 715352" d="M143.18,89.031c-1.325,0-2.651.011-3.976,0-1.161-.009-2.1-.466-2.2-1.7a1.8,1.8,0,0,1,1.938-1.968c2.866-.1,5.74-.1,8.606,0a1.776,1.776,0,0,1,1.839,2.048c-.1,1.179-.942,1.593-2.008,1.612-1.4.026-2.8.007-4.2.009" transform="translate(-76.425 -47.581)" fill="#fff"/>
        <path id="Trazado_715353" data-name="Trazado 715353" d="M61.578,154.245c3.747,0,7.493-.014,11.24.008,1.383.008,2.884.2,2.934,1.937.051,1.781-1.508,2.02-2.849,2.028q-11.349.067-22.7,0c-1.35-.008-2.858-.258-2.8-2.071s1.584-1.885,2.933-1.9c3.746-.031,7.493-.011,11.24-.01" transform="translate(-26.446 -86.046)" fill="#fff"/>
        <path id="Trazado_715354" data-name="Trazado 715354" d="M61.6,198.464c-3.745,0-7.49.019-11.235-.009-1.36-.011-2.869-.135-2.939-1.911-.072-1.813,1.455-2.055,2.8-2.062q11.344-.064,22.689,0c1.342.008,2.9.256,2.85,2.03-.046,1.735-1.552,1.93-2.931,1.94-3.745.024-7.49.008-11.235.009" transform="translate(-26.455 -108.479)" fill="#fff"/>
        <path id="Trazado_715355" data-name="Trazado 715355" d="M61.7,174.3c3.536,0,7.073-.019,10.609.015a9.486,9.486,0,0,1,2.386.327,1.641,1.641,0,0,1,1.2,1.68,1.6,1.6,0,0,1-1.222,1.654,11.307,11.307,0,0,1-2.61.348c-6.925.027-13.85.042-20.775-.006-1.548-.011-3.725.307-3.712-2.01s2.187-1.958,3.737-1.987c3.461-.065,6.925-.02,10.387-.02" transform="translate(-26.542 -97.23)" fill="#fff"/>
        <path id="Trazado_715356" data-name="Trazado 715356" d="M61.609,215.038q5.74,0,11.48,0c1.249,0,2.555.136,2.653,1.666.1,1.624-1.178,2.09-2.536,2.1q-11.7.039-23.4,0c-1.257,0-2.457-.414-2.419-1.962.038-1.569,1.245-1.794,2.521-1.793q5.85.006,11.7,0" transform="translate(-26.435 -119.963)" fill="#fff"/>
        <path id="Trazado_715357" data-name="Trazado 715357" d="M143.307,197.845c-1.464,0-2.934.07-4.392-.023a1.843,1.843,0,1,1,.024-3.68q4.283-.068,8.568-.005a1.716,1.716,0,0,1,1.885,1.734,1.787,1.787,0,0,1-1.914,1.954c-1.385.091-2.781.022-4.172.021" transform="translate(-76.424 -108.286)" fill="#fff"/>
        <path id="Trazado_715358" data-name="Trazado 715358" d="M143.265,215.073c1.4,0,2.8-.026,4.2.008,1.084.027,1.871.518,1.93,1.69a1.739,1.739,0,0,1-1.713,1.94,50.033,50.033,0,0,1-9.037-.038,1.708,1.708,0,0,1-1.65-1.776,1.749,1.749,0,0,1,1.855-1.8c1.471-.059,2.945-.015,4.417-.015v-.015" transform="translate(-76.424 -119.978)" fill="#fff"/>
        <path id="Trazado_715359" data-name="Trazado 715359" d="M28.969,43.29c.383-7.517,6.429-13.915,13.448-14.213,1.413-.06,3.092-.181,3.212,1.746.11,1.753-1.417,1.917-2.8,2.071a10.749,10.749,0,0,0-9.886,10.321c-.011.146-.011.294-.023.44-.12,1.395-.392,2.732-2.179,2.721-1.167-.007-1.864-1.322-1.774-3.087" transform="translate(-16.157 -16.207)" fill="#fff"/>
      </g>
    </g>
  </g>
</svg>
