<svg xmlns="http://www.w3.org/2000/svg" xmlns:xlink="http://www.w3.org/1999/xlink" width="181" height="182" viewBox="0 0 181 182">
  <defs>
    <clipPath id="clip-path">
      <rect id="Rectángulo_353190" data-name="Rectángulo 353190" width="126" height="135.013" fill="none"/>
    </clipPath>
  </defs>
  <g id="Grupo_1003242" data-name="Grupo 1003242" transform="translate(-404 -666)">
    <ellipse id="Elipse_156" data-name="Elipse 156" cx="90.5" cy="91" rx="90.5" ry="91" transform="translate(404 666)" fill="#abffff"/>
    <g id="Grupo_1003049" data-name="Grupo 1003049" transform="translate(448 689.493)">
      <g id="Grupo_1003048" data-name="Grupo 1003048" clip-path="url(#clip-path)">
        <path id="Trazado_715170" data-name="Trazado 715170" d="M25.026,136.149l-3.813-.012c-.9-2.806-3.27-1.822-5.111-1.857-6.133-.116-8.371-2.292-8.372-8.43q0-54.89,0-109.781c0-6.287,2.2-8.468,8.555-8.47q28.368-.007,56.737.008c1.042,0,2.084.15,3.126.23A22.233,22.233,0,0,1,78.3,18.421c-.172,3.385.039,6.79.082,10.186-6.881,11.245-6.7,22.34.7,33.285-1.317.742-.8,2.018-.806,3.069q-.047,27.644-.005,55.288c.011,4.71.238,9.421-2.12,13.751-1.125.082-2.251.233-3.376.234q-21.993.024-43.985.013c-1.568,0-3.259-.217-3.761,1.9m6.965-89.479c-1.981.266-2.143,1.646-2.139,3.275.03,11.737-.011,23.474.049,35.21a4.508,4.508,0,0,1-1.528,3.619,23.721,23.721,0,1,0,33.416.368,6.064,6.064,0,0,1-1.912-4.8q.091-28.116.026-56.232c-.015-9.029-6.584-15.817-15.119-15.739-8.552.079-14.878,6.71-14.913,15.65-.016,4.029.029,8.059-.018,12.088-.018,1.553.49,2.547,2.148,2.695q0,1.933-.01,3.866M77.316,75.319a6.333,6.333,0,0,0-6.233-6.408,6.5,6.5,0,0,0-6.408,6.308,6.336,6.336,0,0,0,6.311,6.332,6.151,6.151,0,0,0,6.331-6.231m-58.7-45.945v-.011c1.478,0,2.958.047,4.434-.015A1.914,1.914,0,0,0,25.074,27.4a1.856,1.856,0,0,0-1.969-2q-4.3-.117-8.6-.006a1.83,1.83,0,0,0-2,1.944c.016,1.405.913,1.988,2.206,2.026s2.608.008,3.912.008m.117,26.144v.022c1.3,0,2.611.034,3.913-.009,1.36-.046,2.482-.583,2.419-2.119-.055-1.335-1.023-1.92-2.333-1.919-2.7,0-5.393-.031-8.088.015A1.913,1.913,0,0,0,12.5,53.586c.023,1.3.929,1.838,2.061,1.911,1.385.089,2.781.021,4.172.021M18.8,81.544c1.4,0,2.791.011,4.186,0a1.917,1.917,0,1,0,.071-3.827c-2.878-.029-5.757-.037-8.634.009a1.766,1.766,0,0,0-1.909,2c.044,1.3.9,1.8,2.1,1.818,1.4.019,2.791,0,4.187,0m-2.431-43.4c0-.03,0-.061,0-.09.786,0,1.575.049,2.356-.012a1.9,1.9,0,0,0,1.977-2.014,1.871,1.871,0,0,0-2.058-1.911c-1.485-.006-2.978-.078-4.453.046a1.777,1.777,0,0,0-1.7,1.959,1.722,1.722,0,0,0,1.535,1.828,22.763,22.763,0,0,0,2.342.194M16.675,68.9c-.613,0-1.227-.019-1.839,0-1.269.048-2.292.511-2.33,1.94-.041,1.587,1.055,2.074,2.429,2.115,1.05.031,2.1,0,3.153.011,1.383.015,2.565-.46,2.6-1.963.04-1.677-1.212-2.149-2.7-2.112-.438.011-.876,0-1.314.005m-.094-22.143c.609,0,1.218-.013,1.827,0,1.349.036,2.257-.613,2.278-1.939.022-1.357-.928-1.966-2.254-1.97-.957,0-1.914-.016-2.871-.009-1.422.01-3.035-.061-3.029,1.942.006,1.945,1.536,2.016,3.005,1.979.348-.009.7,0,1.044-.006m-.116,17.4c.609,0,1.217-.015,1.826,0,1.44.041,2.452-.566,2.384-2.07-.061-1.371-1.093-1.838-2.393-1.8-1.216.032-2.434,0-3.651.014-1.188.014-2.066.494-2.117,1.787-.055,1.407.793,2.022,2.126,2.06.608.017,1.216,0,1.825.009" transform="translate(-3.662 -3.6)" fill="#c6c3c7"/>
        <path id="Trazado_715171" data-name="Trazado 715171" d="M75.417,58.291c-7.4-10.944-7.581-22.04-.7-33.285,1.2-1.753,3.515-2.845,3.642-5.2a94.635,94.635,0,0,0-.026-9.7c-.163-3.34-2.414-5.476-5.846-5.868-1.042-.08-2.084-.229-3.126-.23Q40.992,3.988,12.623,4C6.268,4,4.068,6.183,4.068,12.47q0,54.89,0,109.781c0,6.137,2.239,8.314,8.372,8.43,1.841.035,4.214-.949,5.111,1.857a2.38,2.38,0,0,1-1.471,2.012c-3.671,1.347-10.4-.381-13.187-3.389a10.868,10.868,0,0,1-2.882-7.672Q0,67.387.022,11.285C.029,4.45,4.609.019,11.485.013q29.7-.027,59.4,0c7.173.005,11.54,4.439,11.576,11.678.009,1.829,0,3.658,0,5.883,6.679-3.939,13.6-5.443,21.016-3.912a27.486,27.486,0,0,1,17.51,11.559A27.955,27.955,0,0,1,120,58.5c-8.768,11.088-20.267,13.156-37.542,6.61v2.867q0,27.2,0,54.394c0,8.084-4.2,12.263-12.312,12.265q-22.6.006-45.2.011c-1.641,0-3.247.079-3.577-2.1.5-2.12,2.192-1.9,3.761-1.9q21.993,0,43.985-.013c1.126,0,2.251-.152,3.377-.234,3.962-.454,5.908-2.855,5.912-7.441.015-19.049-.057-38.1.071-57.146.021-3.1-.509-5.629-3.052-7.522m30.387,5.6.061-.025a.212.212,0,0,0,.3-.183l1.092-.386a21.892,21.892,0,0,0,10.6-8.6c8.707-12.75,2.867-31.427-11.162-35.8l.024.014c-.4-.553-1.008-.552-1.6-.6a3.482,3.482,0,0,0-.677-.363,24.2,24.2,0,0,0-30.3,27.886c2.635,14,17.935,23.023,30.943,18.251l.717-.207" transform="translate(0 0)" fill="#0b0b0b"/>
        <path id="Trazado_715172" data-name="Trazado 715172" d="M47.628,54.562q.006-1.933.011-3.866c1.843-.422,1.787-1.86,1.8-3.3.051-4.63-.181-9.291.269-13.883A10.536,10.536,0,0,1,62.867,24.61c-.021.892.6,1.411,1.148,1.974a12.429,12.429,0,0,1,3.579,9q.035,25.327,0,50.653c0,.914.331,1.966-.686,2.637a4.682,4.682,0,0,0-5.286-3.306c-.955.085-1.926-.011-2.887.021-2.862.094-4.379,1.512-4.477,4.351-.088,2.535-.116,5.081.009,7.613a3.484,3.484,0,0,1-1.889,3.555,14.145,14.145,0,0,0-6.8,13.593c.42,5.774,3.46,9.956,8.644,12.548,7.2,3.6,17.875.672,21.074-10.129.824.435.648,1.057.427,1.787a21.524,21.524,0,0,1-5.475,9.647c-1.024.987-2.49,1.725-2.62,3.428a13.654,13.654,0,0,1-6.292,1.474A19.892,19.892,0,0,1,42.28,121.174a19.493,19.493,0,0,1,4.676-21.9c1.3-1.235,2.488-2.4,2.484-4.38q-.035-18.771,0-37.541c0-1.35-.346-2.42-1.812-2.793" transform="translate(-19.3 -11.491)" fill="#e7eff9"/>
        <path id="Trazado_715173" data-name="Trazado 715173" d="M59.31,21.02a10.537,10.537,0,0,0-13.158,8.905c-.45,4.593-.218,9.253-.268,13.884-.016,1.437.04,2.875-1.8,3.3-1.659-.148-2.167-1.142-2.148-2.695.047-4.029,0-8.058.018-12.088.035-8.94,6.362-15.571,14.913-15.65,8.534-.078,15.1,6.71,15.118,15.739q.047,28.116-.026,56.232a6.064,6.064,0,0,0,1.912,4.8,23.706,23.706,0,1,1-33.416-.368,4.512,4.512,0,0,0,1.528-3.619c-.061-11.737-.019-23.474-.049-35.21,0-1.629.159-3.008,2.139-3.275,1.465.374,1.813,1.443,1.812,2.793q-.019,18.771,0,37.541c0,1.981-1.187,3.145-2.484,4.38a19.494,19.494,0,0,0-4.676,21.9A19.892,19.892,0,0,0,57.77,129.861a13.645,13.645,0,0,0,6.293-1.474,7.816,7.816,0,0,0,1.24-.349A19.739,19.739,0,0,0,70.637,95.8a7.382,7.382,0,0,1-2.549-5.944c.123-7.52.044-15.044.044-22.566,0-11.546.028-23.091-.013-34.637C68.1,26.482,64.646,22,59.31,21.02" transform="translate(-15.743 -7.901)" fill="#040404"/>
        <path id="Trazado_715174" data-name="Trazado 715174" d="M140.7,110.79c2.543,1.893,3.073,4.426,3.052,7.521-.128,19.048-.055,38.1-.071,57.147,0,4.585-1.95,6.986-5.912,7.44,2.358-4.33,2.13-9.041,2.12-13.751q-.063-27.644,0-55.288c0-1.051-.511-2.327.806-3.069" transform="translate(-65.284 -52.499)" fill="#b5b0b6"/>
        <path id="Trazado_715175" data-name="Trazado 715175" d="M128.6,130.538a6.151,6.151,0,0,1-6.331,6.231,6.336,6.336,0,0,1-6.311-6.332,6.5,6.5,0,0,1,6.408-6.308,6.334,6.334,0,0,1,6.234,6.408m-6.372-2.371a2.163,2.163,0,0,0-2.212,2.29,2.14,2.14,0,0,0,2.2,2.388,2.341,2.341,0,1,0,.012-4.677" transform="translate(-54.95 -58.82)" fill="#070708"/>
        <path id="Trazado_715176" data-name="Trazado 715176" d="M137.771,8.056c3.432.392,5.684,2.528,5.846,5.869a94.627,94.627,0,0,1,.026,9.7c-.128,2.358-2.44,3.449-3.642,5.2-.042-3.4-.254-6.8-.082-10.186a22.233,22.233,0,0,0-2.149-10.582" transform="translate(-65.284 -3.817)" fill="#b3aeb4"/>
        <path id="Trazado_715177" data-name="Trazado 715177" d="M22.909,45.357c-1.3,0-2.61.03-3.912-.008s-2.19-.62-2.206-2.026a1.831,1.831,0,0,1,2-1.944q4.3-.1,8.6.006a1.856,1.856,0,0,1,1.969,2,1.914,1.914,0,0,1-2.025,1.951c-1.476.061-2.956.015-4.434.015v.011" transform="translate(-7.956 -19.583)" fill="#0d0d0d"/>
        <path id="Trazado_715178" data-name="Trazado 715178" d="M23.027,95.043c-1.391,0-2.787.068-4.172-.021-1.133-.073-2.039-.612-2.061-1.911a1.913,1.913,0,0,1,2.145-2.079c2.7-.047,5.392-.014,8.088-.016,1.31,0,2.278.585,2.333,1.92.063,1.535-1.06,2.073-2.419,2.119-1.3.044-2.609.009-3.913.009v-.022" transform="translate(-7.958 -43.124)" fill="#0d0d0d"/>
        <path id="Trazado_715179" data-name="Trazado 715179" d="M23.105,144.674c-1.4,0-2.791.016-4.186,0-1.2-.017-2.057-.52-2.1-1.819a1.767,1.767,0,0,1,1.91-2c2.877-.045,5.756-.038,8.634-.009a1.917,1.917,0,1,1-.071,3.827c-1.4.013-2.791,0-4.186,0" transform="translate(-7.969 -66.728)" fill="#040404"/>
        <path id="Trazado_715180" data-name="Trazado 715180" d="M20.658,62a23.059,23.059,0,0,1-2.342-.194,1.722,1.722,0,0,1-1.535-1.828,1.777,1.777,0,0,1,1.7-1.959c1.475-.124,2.968-.053,4.453-.047a1.871,1.871,0,0,1,2.058,1.911,1.9,1.9,0,0,1-1.977,2.014c-.781.061-1.571.012-2.356.012,0,.031,0,.061,0,.091" transform="translate(-7.952 -27.457)" fill="#0b0b0b"/>
        <path id="Trazado_715181" data-name="Trazado 715181" d="M20.977,124.094c.438,0,.876.007,1.314,0,1.489-.037,2.741.436,2.7,2.113-.036,1.5-1.217,1.977-2.6,1.963-1.051-.012-2.1.019-3.153-.011-1.374-.04-2.47-.527-2.429-2.114.037-1.43,1.06-1.893,2.329-1.941.612-.023,1.226,0,1.839-.006" transform="translate(-7.964 -58.8)" fill="#0d0d0d"/>
        <path id="Trazado_715182" data-name="Trazado 715182" d="M20.907,78.492c-.348,0-.7-.005-1.044,0-1.469.036-3-.034-3.005-1.979-.006-2,1.607-1.932,3.029-1.941.957-.006,1.914.006,2.871.009,1.326,0,2.276.612,2.254,1.969-.021,1.326-.929,1.975-2.278,1.939-.608-.016-1.218,0-1.827,0" transform="translate(-7.988 -35.337)" fill="#040404"/>
        <path id="Trazado_715183" data-name="Trazado 715183" d="M20.772,111.6c-.609,0-1.217.011-1.825-.006-1.332-.037-2.181-.652-2.126-2.06.051-1.294.929-1.773,2.117-1.787,1.216-.015,2.434.018,3.651-.014,1.3-.034,2.332.433,2.393,1.8.067,1.5-.945,2.111-2.384,2.07-.608-.017-1.217,0-1.826-.006" transform="translate(-7.97 -51.049)" fill="#040405"/>
        <path id="Trazado_715184" data-name="Trazado 715184" d="M171.47,79.433c-13.008,4.772-28.307-4.252-30.943-18.251a24.2,24.2,0,0,1,30.3-27.886,3.482,3.482,0,0,1,.677.363c.341.714.979.63,1.6.6l-.024-.014c-.044.741.563.988,1,1.413a46.25,46.25,0,0,1,5.123,5.258c8.312,11.274,6.187,27.54-4.636,35.99a1.837,1.837,0,0,0-.922,1.733l-1.092.386-.32-.214c.007.132.014.264.022.4l-.061.024-.717.207M177.132,54.6c.732-.967,1.091-1.456,1.466-1.933.8-1.014,1.078-2.086-.009-3.019-1.219-1.045-2.253-.477-3.126.61-.6.751-1.212,1.5-1.813,2.248C172.2,54.32,168.87,55.551,167,54.485c-1.708-.971-.457-2.984-.769-4.5-.206-1,.37-1.595,1.135-2.145,1.064-.765,2.039-1.655,3.087-2.444,1.149-.865,1.638-1.982.716-3.142-.96-1.206-2.142-.775-3.234.07-.444.343-.764,1.017-1.712.743,0-1.153-.02-2.352.005-3.55.028-1.352-.576-2.276-1.933-2.311-1.4-.036-1.91.956-2,2.261-.085,1.237.3,2.541-.362,3.869-.633-.464-1.126-.818-1.612-1.182-1.044-.783-2.108-.956-3.009.138-.943,1.145-.4,2.111.577,2.93a8.654,8.654,0,0,0,1.647,1.294c3.082,1.48,2.92,4.193,2.759,6.938a1.036,1.036,0,0,1-1.115,1.134c-2.775.205-5.424.229-6.933-2.789a8.5,8.5,0,0,0-1.649-2.031,1.757,1.757,0,0,0-2.581-.2,1.94,1.94,0,0,0-.435,2.6c.357.749,1.264,1.189,1.285,2.425-1.24,0-2.433,0-3.627,0-1.317-.005-2.314.529-2.309,1.926,0,1.355.92,1.986,2.273,1.97,1.242-.014,2.483,0,4.053,0-1.031,1.85-3.262,3.319-1.261,4.882,2.19,1.71,3.414-.663,4.18-2.109,1.677-3.166,4.4-2.894,7.191-2.766.675.031.878.406.922,1,.213,2.849.255,5.6-2.876,7.129a7.439,7.439,0,0,0-1.841,1.468,1.8,1.8,0,0,0-.344,2.58,1.884,1.884,0,0,0,2.757.494c.707-.411,1.128-1.359,2.33-1.236,0,1.331-.053,2.627.016,3.917.063,1.178.63,2.036,1.945,2a1.857,1.857,0,0,0,1.93-2.031c.041-1.342.009-2.685.009-4.154a7.18,7.18,0,0,1,.787.328c1.31.841,2.662,2.787,4.18.712,1.433-1.959-.66-2.859-1.837-3.92a.854.854,0,0,0-.2-.164c-3.265-1.417-3.063-4.257-2.921-7.08.029-.571.114-1.007.833-1.039,2.9-.127,5.841-.454,7.351,2.946a6.894,6.894,0,0,0,1.3,1.635,1.912,1.912,0,0,0,2.8.38,1.856,1.856,0,0,0,.3-2.783c-.437-.664-1.305-1.126-1.2-2.182,1.225,0,2.362-.012,3.5,0,1.407.018,2.47-.451,2.464-2.033-.005-1.485-1.083-1.847-2.34-1.861-1.195-.013-2.39,0-4.1,0" transform="translate(-66.383 -15.337)" fill="#b9d3f5"/>
        <path id="Trazado_715185" data-name="Trazado 715185" d="M203.346,80.321a1.837,1.837,0,0,1,.922-1.733c10.823-8.45,12.948-24.716,4.635-35.99a46.162,46.162,0,0,0-5.123-5.258c-.434-.424-1.041-.671-1-1.412,14.028,4.369,19.868,23.045,11.161,35.8a21.893,21.893,0,0,1-10.6,8.6" transform="translate(-96.09 -17.025)" fill="#a0c7f9"/>
        <path id="Trazado_715186" data-name="Trazado 715186" d="M201.391,35.418c-.62.035-1.257.119-1.6-.595.591.043,1.2.042,1.6.595" transform="translate(-94.674 -16.501)" fill="#a0c7f9"/>
        <path id="Trazado_715187" data-name="Trazado 715187" d="M201.191,121.026c-.007-.132-.015-.265-.022-.4l.32.214a.211.211,0,0,1-.3.183" transform="translate(-95.326 -57.161)" fill="#a0c7f9"/>
        <path id="Trazado_715188" data-name="Trazado 715188" d="M199.732,121.636l.717-.207-.717.207" transform="translate(-94.645 -57.54)" fill="#a0c7f9"/>
        <path id="Trazado_715189" data-name="Trazado 715189" d="M82.8,24.935c5.336.98,8.788,5.462,8.81,11.638.041,11.546.013,23.091.013,34.637,0,7.522.078,15.046-.044,22.566a7.382,7.382,0,0,0,2.549,5.944A19.739,19.739,0,0,1,88.8,131.953a7.817,7.817,0,0,1-1.24.349c.13-1.7,1.6-2.441,2.62-3.427a21.528,21.528,0,0,0,5.475-9.647c.22-.73.4-1.352-.427-1.786q.137-2.594.274-5.188c.059-.053.179-.128.169-.154a2.413,2.413,0,0,0-.2-.358l-.249-.96a1.126,1.126,0,0,0,.537-1.532,35.457,35.457,0,0,0-2.563-6.469c-1.623-3.028-4.687-4.835-6.216-7.879q-.066-2.853-.132-5.707c1.017-.671.686-1.722.686-2.637q.026-25.327,0-50.653a12.43,12.43,0,0,0-3.579-9c-.55-.563-1.169-1.081-1.148-1.974" transform="translate(-39.238 -11.816)" fill="#d5e1f2"/>
        <path id="Trazado_715190" data-name="Trazado 715190" d="M71.221,144.065q.066,2.853.132,5.707c-.041,1.035-.109,2.071-.114,3.106-.005,1.169-.22,2.271,1.22,3.066,3.828,2.11,6.023,5.54,7.136,9.708l.249.96q.017.256.032.512l-.273,5.188c-3.2,10.8-13.873,13.731-21.075,10.128-5.184-2.593-8.223-6.774-8.643-12.548a14.146,14.146,0,0,1,6.8-13.593,3.484,3.484,0,0,0,1.889-3.555c-.125-2.532-.1-5.078-.009-7.613.1-2.84,1.615-4.257,4.477-4.351.962-.032,1.933.065,2.888-.021a4.683,4.683,0,0,1,5.286,3.306m-3.4,35.281-.016.018c4.713-1.175,7.184-4.378,7.993-8.99a10.594,10.594,0,0,0-5.409-11.061,5.6,5.6,0,0,1-3.206-5.738c.127-2.444.04-4.9.017-7.351-.006-.65.209-1.609-.863-1.538-1.241.083-2.58-.58-3.725.4-.048,3.053-.175,6.106-.118,9.157a5.018,5.018,0,0,1-2.821,4.868c-4.991,2.884-7.028,8.073-5.337,13.156,1.744,5.24,6.5,8.1,12.314,7.4a1.086,1.086,0,0,0,1.17-.322" transform="translate(-23.616 -66.686)" fill="#070708"/>
        <path id="Trazado_715191" data-name="Trazado 715191" d="M125.885,131.8a2.341,2.341,0,1,1-.012,4.677,2.14,2.14,0,0,1-2.2-2.388,2.163,2.163,0,0,1,2.212-2.29" transform="translate(-58.603 -62.456)" fill="#dfe7f1"/>
        <path id="Trazado_715192" data-name="Trazado 715192" d="M181.491,58.956c1.707,0,2.9-.01,4.1,0,1.257.014,2.334.376,2.34,1.861.006,1.582-1.058,2.051-2.464,2.033-1.137-.015-2.274,0-3.5,0-.1,1.056.765,1.518,1.2,2.182a1.856,1.856,0,0,1-.3,2.783,1.912,1.912,0,0,1-2.8-.38,6.894,6.894,0,0,1-1.3-1.635c-1.511-3.4-4.454-3.073-7.351-2.946-.719.032-.8.468-.833,1.039-.142,2.823-.344,5.663,2.921,7.08a.853.853,0,0,1,.2.164c1.177,1.061,3.27,1.96,1.837,3.92-1.517,2.076-2.87.129-4.18-.712a7.18,7.18,0,0,0-.787-.328c0,1.468.032,2.812-.009,4.154a1.857,1.857,0,0,1-1.93,2.031c-1.314.038-1.882-.819-1.945-2-.068-1.29-.016-2.586-.016-3.917-1.2-.123-1.623.825-2.33,1.236a1.884,1.884,0,0,1-2.757-.494,1.8,1.8,0,0,1,.344-2.58,7.439,7.439,0,0,1,1.841-1.468c3.131-1.53,3.089-4.28,2.876-7.129-.045-.594-.248-.97-.922-1-2.8-.127-5.514-.4-7.191,2.766-.767,1.446-1.99,3.819-4.18,2.109-2-1.563.23-3.032,1.261-4.882-1.57,0-2.812-.011-4.053,0-1.353.016-2.268-.615-2.273-1.97-.005-1.4.992-1.931,2.309-1.926,1.194,0,2.387,0,3.627,0-.021-1.236-.928-1.676-1.285-2.425a1.94,1.94,0,0,1,.435-2.6,1.757,1.757,0,0,1,2.581.2,8.5,8.5,0,0,1,1.649,2.031c1.509,3.018,4.158,2.994,6.933,2.789a1.036,1.036,0,0,0,1.115-1.134c.162-2.745.323-5.459-2.759-6.938a8.654,8.654,0,0,1-1.647-1.294c-.978-.818-1.52-1.784-.577-2.93.9-1.094,1.965-.921,3.009-.138.486.364.979.718,1.612,1.182.659-1.329.277-2.632.362-3.869.089-1.305.6-2.3,2-2.261,1.357.035,1.96.959,1.933,2.311-.025,1.2-.005,2.4-.005,3.55.948.274,1.269-.4,1.712-.743,1.091-.845,2.274-1.276,3.234-.07.922,1.16.434,2.277-.716,3.142-1.048.789-2.022,1.679-3.087,2.444-.764.55-1.341,1.142-1.135,2.145.311,1.514-.939,3.527.769,4.5,1.875,1.066,5.2-.165,6.656-1.983.6-.752,1.21-1.5,1.813-2.248.873-1.087,1.908-1.655,3.126-.61,1.087.933.806,2.005.009,3.019-.375.477-.734.966-1.466,1.933" transform="translate(-70.742 -19.698)" fill="#040405"/>
        <path id="Trazado_715193" data-name="Trazado 715193" d="M98.858,173.795c-1.113-4.168-3.308-7.6-7.136-9.708-1.441-.794-1.226-1.9-1.22-3.066.005-1.035.073-2.071.114-3.106,1.529,3.044,4.594,4.851,6.216,7.879a35.441,35.441,0,0,1,2.563,6.469,1.124,1.124,0,0,1-.537,1.532" transform="translate(-42.878 -74.83)" fill="#e7eff9"/>
        <path id="Trazado_715194" data-name="Trazado 715194" d="M106.9,190.433c-.011-.17-.022-.341-.032-.511a2.408,2.408,0,0,1,.2.358c.01.026-.109.1-.169.154" transform="translate(-50.642 -89.996)" fill="#e7eff9"/>
        <path id="Trazado_715195" data-name="Trazado 715195" d="M70.178,183.591c-5.814.7-10.571-2.162-12.314-7.4-1.691-5.083.346-10.272,5.337-13.156a5.019,5.019,0,0,0,2.821-4.868c-.057-3.051.07-6.1.118-9.157.8,2.746.253,5.552.326,8.327a4.448,4.448,0,0,0,2.449,4.214c6.639,3.858,8.376,12.181,4.146,18.642-.635.97-1.952,1.631-1.73,3.1l.016-.018a.99.99,0,0,0-1.17.322" transform="translate(-27.143 -70.608)" fill="#bcd6f9"/>
        <path id="Trazado_715196" data-name="Trazado 715196" d="M79.312,182.8c-.222-1.466,1.095-2.127,1.73-3.1,4.23-6.461,2.493-14.784-4.146-18.641a4.449,4.449,0,0,1-2.449-4.215c-.074-2.775.47-5.581-.327-8.327,1.144-.978,2.483-.315,3.725-.4,1.072-.072.857.889.863,1.538.023,2.451.109,4.907-.017,7.351a5.594,5.594,0,0,0,3.206,5.738,10.6,10.6,0,0,1,5.409,11.062c-.81,4.611-3.28,7.814-7.994,8.989" transform="translate(-35.123 -70.121)" fill="#a0c7f8"/>
        <path id="Trazado_715197" data-name="Trazado 715197" d="M81.795,214.387a.99.99,0,0,1,1.17-.322,1.085,1.085,0,0,1-1.17.322" transform="translate(-38.759 -101.404)" fill="#a0c7f8"/>
      </g>
    </g>
  </g>
</svg>
