<svg xmlns="http://www.w3.org/2000/svg" xmlns:xlink="http://www.w3.org/1999/xlink" width="181" height="181" viewBox="0 0 181 181">
  <defs>
    <clipPath id="clip-path">
      <rect id="Rectángulo_353346" data-name="Rectángulo 353346" width="132.506" height="141.341" fill="none"/>
    </clipPath>
  </defs>
  <g id="Grupo_1003240" data-name="Grupo 1003240" transform="translate(-1020 -735)">
    <g id="Grupo_992571" data-name="Grupo 992571" transform="translate(0 -718)">
      <circle id="Elipse_5684" data-name="Elipse 5684" cx="90.5" cy="90.5" r="90.5" transform="translate(1020 1453)" fill="#f5c187"/>
    </g>
    <g id="Grupo_1003207" data-name="Grupo 1003207" transform="translate(1044.247 754.83)">
      <g id="Grupo_1003206" data-name="Grupo 1003206" clip-path="url(#clip-path)">
        <path id="Trazado_716676" data-name="Trazado 716676" d="M120.914,85.641c1.843.544,2.364,1.89,2.139,3.631-.191,1.484.268,1.989,1.893,2.068,3.706.178,5.409,2.13,5.493,5.836.038,1.655-.019,3.312.012,4.968.054,2.938-1.16,5.051-4.1,5.7-1.581.346-1.456,1.29-1.454,2.405q.017,12.282,0,24.564c-.01,4.794-1.823,6.525-6.758,6.531-5.1.007-7.024-1.772-7.037-6.61-.022-8.1-.077-16.193.044-24.287.03-1.986-.559-2.435-2.453-2.385-5.1.135-10.212.046-15.625.046.334.567.415.908.579.954,3.326.928,4.445,3.277,4.231,6.5-.108,1.619-.008,2.81,2,3.533,2.438.877,3.095,3.224,2.865,5.714-.161,1.749.088,2.87,2.075,3.749,3.3,1.459,3.242,4.573,2.639,8.763-.375,2.6-2.688,4.017-5.806,4.019q-35.326.02-70.652,0c-3.288,0-5.641-1.45-5.972-4.159-.532-4.361-.6-7.251,3.032-8.843a2.391,2.391,0,0,0,1.716-2.845c-.248-3.2.462-5.883,4-6.909.951-.276.923-1.047.862-1.785-.307-3.763.346-6.982,5.063-7.972l-.5-.718H27.832c-6.4,0-6.4,0-6.4,6.344,0,6.808.022,13.616-.008,20.423-.021,4.7-2.03,6.483-7.179,6.468-4.751-.013-6.6-1.777-6.615-6.395-.02-8.188-.044-16.375.028-24.563.013-1.493-.255-2.272-1.877-2.67A4.708,4.708,0,0,1,2.1,102.83c-.052-1.93-.061-3.864-.013-5.795C2.176,93.492,3.9,91.5,7.44,91.351c1.772-.075,2.061-.629,2.058-2.233q-.075-35.741,0-71.482c0-1.772-.415-2.3-2.247-2.284C1.67,15.407.024,13.681.049,8.131.057,6.4-.26,4.618.621,2.984A5.6,5.6,0,0,1,6.087,0c8.279.043,16.559.017,24.839.017h94.387c5.537,0,7.174,1.658,7.171,7.268,0,2.189.308,4.443-1.377,6.276a6.1,6.1,0,0,1-5.543,1.809c-2.077-.252-2.564.461-2.555,2.526.087,19.779.036,39.559.079,59.338,0,1.806-.2,3.289-2.165,3.907-1.141-.492-2.326-1.172-2.056-2.552.736-3.755-1.527-3.685-4.08-3.47-1.27.107-2.553.073-3.83.1l-22.616-.014c-.357-.08-.64-.055-.6.426-.051,4.66-.062,9.321-.178,13.979-.033,1.354.476,1.695,1.746,1.679,7.222-.091,14.445-.114,21.667-.16,1.8.045,3.617-.006,5.409.163,1.813.171,2.748-.3,2.439-2.312a2.845,2.845,0,0,1,2.086-3.342m-55.2-21.007c-3.695.929-6.515,4.989-7.093,10.047-.2,1.737.076,2.166,2,1.674,5.894-1.512,6.643-1.1,8.973,3.676,4.12-.464,4.725-1.124,4.284-5.075a13.913,13.913,0,0,0-3.8-8.607c-1.186-1.189-2.5-2.177-4.358-1.716m49.725,49.118c-.028,7.046,0,14.092-.117,21.136-.032,2,1,2.234,2.57,2.186,1.518-.047,2.985.113,2.957-2.153-.086-7.044-.088-14.089-.123-21.134.045-1.267.049-2.537.148-3.8.114-1.456-.583-1.821-1.934-1.871-3.6-.133-3.615-.181-3.592,3.463,0,.724.059,1.448.091,2.172m-103.649.036c-.035,7.045-.036,14.09-.123,21.134-.028,2.267,1.439,2.106,2.957,2.151,1.572.048,2.6-.181,2.571-2.185-.112-7.045-.089-14.091-.117-21.136a25.789,25.789,0,0,1,.113-2.986c.343-2.293-.79-2.666-2.8-2.685-2.075-.02-3.089.495-2.76,2.725.145.98.109,1.987.156,2.981m99.181-61.837c-6.04-.035-12.079-.084-18.119-.1-5.62-.018-5.584-.006-5.264,5.615.07,1.224.34,1.825,1.7,1.809,7.228-.085,14.457-.1,21.686-.148.819.042,1.638.116,2.457.12,5.842.028,5.788.027,5.4-5.772-.092-1.38-.625-1.693-1.837-1.64-2.006.087-4.016.084-6.025.119m-.014,11.617c-6.04-.024-12.08-.058-18.119-.071-5.577-.012-5.522,0-5.259,5.61.067,1.434.548,1.935,1.933,1.921,7.135-.072,14.269-.1,21.4-.139a22.626,22.626,0,0,0,2.45.187c6.44-.186,5.308,1.413,5.479-5.721.034-1.4-.369-2-1.848-1.907-2.008.125-4.026.087-6.04.119M82.253,103.881q-18.322-.059-36.644-.117a2.552,2.552,0,0,0-.822.039c-2.087.732-.843,2.5-1.13,3.784-.249,1.112.407,1.368,1.425,1.361q18.593-.117,37.187-.179c1.365.054,2.743.006,4.091.186,2.014.269,2.689-.385,2.6-2.5-.08-1.927-.454-2.957-2.607-2.714-1.355.153-2.733.1-4.1.139m4.409,9.35c-5.514-.023-11.027-.06-16.541-.066-9.651-.01-19.3.044-28.952-.04-2.022-.018-2.574.795-2.465,2.623.082,1.38-.271,2.646,1.99,2.628,15.347-.123,30.694-.111,46.042-.143,1.46.038,2.932-.028,4.376.137,2.135.244,2.9-.5,2.786-2.713-.1-1.872-.654-2.7-2.58-2.544-1.545.125-3.1.086-4.655.119m4.979,9.415c-18.545-.031-37.089-.036-55.634-.127-2.318-.011-2.085,1.377-2.19,2.887-.118,1.7.292,2.41,2.228,2.4,12.67-.089,25.341-.029,38.012-.053,5.87-.011,11.74-.1,17.61-.155,1.807.051,3.615.079,5.42.162,1.138.052,1.547-.386,1.623-1.566.208-3.212-.1-3.639-3.269-3.633-1.267,0-2.534.057-3.8.088m4.989,14.416c1.319.6,2.712.165,4.064.293,2.041.193,3.005-.572,3.037-2.789.033-2.3-1.012-2.874-3.031-2.692-1.365.123-2.743.092-4.116.13-2.483-.018-4.966-.05-7.449-.051-19.132,0-38.264.025-57.4-.04-2.036-.007-2.77.595-2.738,2.659.029,1.849.527,2.616,2.51,2.609q32.559-.121,65.119-.119M110.972,24.2c.458.029.916.078,1.374.084,6.531.072,6.43.07,6.511-6.36.027-2.135-.653-2.58-2.653-2.558-9.382.1-18.767.025-28.15.062-1.709.007-3.136-.232-3.626-2.161.527-2.094,2.128-2.156,3.871-2.155,10.868,0,21.736-.034,32.6-.059,1.734.036,3.473.006,5.2.125,2.105.145,2.517-1.154,2.4-2.771-.125-1.654.9-4.046-1.917-4.351a11.794,11.794,0,0,0-5.665.275c-.551-.023-1.1-.065-1.653-.065q-55.991,0-111.982,0a5.1,5.1,0,0,1-.551,0c-1.723-.19-2.634.442-2.44,2.309a10.968,10.968,0,0,1,0,2.2c-.177,1.8.589,2.452,2.386,2.38,2.754-.11,5.515-.028,8.273-.028q30.478,0,60.956-.007c1.716,0,3.4-.049,3.858,2.157-.466,2.189-2.14,2.144-3.854,2.143q-28.463-.02-56.925-.008c-5.527,0-5.527,0-5.141,5.592-.654,2.608.256,3.371,3,3.351,17.981-.13,35.963-.056,53.945-.07q20.089-.017,40.179-.083m0,23.26c.819.036,1.638.1,2.458.1,5.853.024,5.8.024,5.4-5.737-.1-1.373-.625-1.7-1.841-1.65-2,.088-4.012.091-6.018.13-.824-.041-1.648-.118-2.472-.118-30.618-.006-61.236.029-91.855-.07-2.516-.008-3.327.718-2.939,3.074a4.3,4.3,0,0,1,0,1.376c-.39,2.357.425,3.075,2.936,3.065,27.675-.1,55.352-.061,83.028-.07,3.767,0,7.534-.069,11.3-.106M29.254,93.29c.362-1.918,1.826-2.016,3.343-2.018,3.487,0,6.976-.02,10.464.009,1.1.009,1.931.019,1.9-1.528-.085-4.4-.052-8.811-.014-13.217.009-1.071-.377-1.424-1.444-1.421q-14.181.045-28.362,0c-1.051,0-1.458.319-1.448,1.4.04,4.405.051,8.812-.007,13.217-.017,1.213.4,1.6,1.585,1.555,2.108-.073,4.221-.009,6.332-.022,1.411-.009,2.552.349,2.873,1.939-.135,1.74-1.179,2.321-2.8,2.3q-5.1-.05-10.21,0c-5.942.062-5.187-.9-5.348,5.541-.055,2.194.709,2.85,2.864,2.828,9.382-.094,18.765-.064,28.146-.016,1.488.008,2.479-.2,3.235-1.764.961-1.985,2.963-2.611,5.125-2.611q20.7,0,41.392,0c2.5,0,4.567.828,5.643,3.18a1.932,1.932,0,0,0,2.161,1.183q12.553-.079,25.1-.123c1.362.036,2.729.008,4.084.124,1.917.166,2.568-.667,2.525-2.54-.151-6.64.827-5.747-5.8-5.784a6.99,6.99,0,0,0-.812.089q-22.578-.054-45.157-.1-20.791-.027-41.583.009c-1.75,0-3.378-.031-3.788-2.227m81.7-57.421c1.361.037,2.723.121,4.083.1,4.374-.06,3.925.724,3.954-3.853.025-3.829,0-3.851-3.791-3.82-1.445.012-2.889.148-4.333.228-1.1-.04-2.2-.115-3.3-.115q-44.389.027-88.778.067c-5.209,0-5.136,0-5.112,5.305.008,1.673.441,2.175,2.158,2.171q47.559-.1,95.119-.086M49.15,80.33c3.607-.891,5.851-2.091,5.634-6.387-.212-4.211,1.969-7.968,5.094-10.927,3.955-3.745,8.884-3.753,12.8.038A17.591,17.591,0,0,1,78.01,75.926c.014.85-.816,2.77,1.1,2.308,1.523-.367,4.376,1.056,4.3-2.57-.144-7.254-.077-14.513-.014-21.77.013-1.527-.422-2.076-2.012-2.067q-15.157.09-30.313.01c-1.359-.006-1.966.326-1.957,1.833.056,8.814.028,17.63.028,26.66M66.3,91.267h9.917c7.59,0,7.547,0,7.2-7.519-.062-1.37-.406-1.707-1.741-1.538A86.761,86.761,0,0,0,68.5,84.873c-3.7,1.066-4.418.461-3.9-3.395.143-1.067.224-1.8-1.277-1.5a37.838,37.838,0,0,0-13.261,5.1c-1.955,1.262-.887,3.583-.788,5.354.087,1.555,1.779.77,2.711.787,4.773.091,9.549.043,14.323.043M29.561,63.486H18.808c-5.2,0-5.1,0-5.148,5.22-.02,2.049.756,2.4,2.57,2.384,7.811-.083,15.623-.035,23.435-.035,5.409,0,5.34,0,5.294-5.425-.014-1.663-.455-2.223-2.164-2.18-4.409.112-8.822.038-13.233.037m-.274-11.642H18.541c-4.888,0-4.754,0-4.88,4.949-.057,2.227.8,2.525,2.712,2.5,7.805-.094,15.612-.039,23.419-.039,5.266,0,5.2,0,5.154-5.255-.014-1.652-.442-2.235-2.16-2.193-4.5.11-9,.037-13.5.036" transform="translate(0 0.001)" fill="#090606"/>
        <path id="Trazado_716677" data-name="Trazado 716677" d="M210.779,146.416a2.845,2.845,0,0,0-2.086,3.342c.309,2.014-.626,2.482-2.438,2.312-1.793-.169-3.606-.118-5.41-.163q-.012-7.955-.023-15.911c1.277-.03,2.56,0,3.831-.1,2.553-.215,4.816-.285,4.08,3.47-.27,1.38.915,2.06,2.056,2.552l-.01,4.5" transform="translate(-89.865 -60.774)" fill="#eac0ba"/>
        <path id="Trazado_716678" data-name="Trazado 716678" d="M83.217,16.707c-.456-2.207-2.142-2.158-3.858-2.157q-30.477.017-60.956.007c-2.758,0-5.52-.083-8.273.028-1.8.072-2.563-.579-2.386-2.38a10.963,10.963,0,0,0,0-2.2c-.193-1.867.717-2.5,2.44-2.309a5.1,5.1,0,0,0,.551,0q55.991,0,111.982,0c.551,0,1.1.043,1.653.065q-.007,3.361-.013,6.722c-10.868.024-21.736.064-32.6.059-1.743,0-3.344.061-3.871,2.155l-4.666.009" transform="translate(-3.454 -3.428)" fill="#95746e"/>
        <path id="Trazado_716679" data-name="Trazado 716679" d="M122.031,58.881q-47.559.025-95.119.086c-1.717,0-2.15-.5-2.158-2.171-.024-5.3-.1-5.3,5.112-5.305q44.389-.035,88.778-.067c1.1,0,2.2.075,3.3.114q.044,3.671.087,7.343" transform="translate(-11.076 -23.011)" fill="#fa4a59"/>
        <path id="Trazado_716680" data-name="Trazado 716680" d="M124.74,179.213q-12.552.058-25.1.123a1.931,1.931,0,0,1-2.161-1.183c-1.076-2.352-3.14-3.182-5.643-3.18q-20.7.018-41.392,0c-2.162,0-4.163.626-5.125,2.611-.756,1.561-1.747,1.772-3.235,1.764-9.382-.048-18.765-.078-28.146.017-2.155.022-2.918-.634-2.864-2.828.161-6.445-.594-5.479,5.348-5.541q5.1-.053,10.209,0c1.623.016,2.666-.565,2.8-2.3l4.777.082c.411,2.2,2.039,2.229,3.789,2.227q20.791-.033,41.583-.008,22.578.029,45.157.1,0,4.055,0,8.111" transform="translate(-4.952 -75.49)" fill="#95746e"/>
        <path id="Trazado_716681" data-name="Trazado 716681" d="M122.005,79.959c-3.767.037-7.534.1-11.3.106-27.676.009-55.352-.034-83.028.07-2.51.009-3.326-.708-2.936-3.065a4.3,4.3,0,0,0,0-1.376c-.387-2.356.424-3.082,2.94-3.074,30.618.1,61.236.064,91.854.07.824,0,1.648.077,2.473.118q0,3.575,0,7.151" transform="translate(-11.03 -32.496)" fill="#fa4a59"/>
        <path id="Trazado_716682" data-name="Trazado 716682" d="M90.857,24.027l4.666-.009c.491,1.929,1.917,2.168,3.626,2.161,9.383-.038,18.768.039,28.15-.063,2-.022,2.679.423,2.653,2.559-.081,6.43.019,6.432-6.511,6.36-.459-.006-.916-.055-1.375-.084.4-2.461-.478-3.274-3.106-3.265-31.34.1-62.682.066-94.023.068-.386-5.592-.386-5.592,5.141-5.592q28.463,0,56.925.008c1.714,0,3.387.046,3.854-2.143" transform="translate(-11.095 -10.748)" fill="#f72f40"/>
        <path id="Trazado_716683" data-name="Trazado 716683" d="M88.935,122.307c0-9.031.029-17.846-.028-26.66-.009-1.508.6-1.839,1.958-1.834q15.156.058,30.313-.009c1.59-.009,2.025.54,2.012,2.066-.063,7.257-.129,14.516.015,21.77.072,3.627-2.781,2.2-4.305,2.57-1.92.462-1.09-1.457-1.1-2.307a17.592,17.592,0,0,0-5.335-12.872c-3.913-3.79-8.842-3.783-12.8-.037-3.125,2.959-5.306,6.715-5.094,10.927.216,4.3-2.028,5.5-5.635,6.387" transform="translate(-39.784 -41.976)" fill="#c01d2c"/>
        <path id="Trazado_716684" data-name="Trazado 716684" d="M40.339,154.128l-4.777-.082c-.322-1.59-1.462-1.947-2.873-1.938-2.111.013-4.224-.052-6.332.022-1.181.041-1.6-.341-1.585-1.554.059-4.405.048-8.812.007-13.217-.01-1.083.4-1.407,1.448-1.4q14.181.045,28.362,0c1.067,0,1.453.35,1.444,1.422-.038,4.405-.071,8.813.014,13.217.03,1.547-.8,1.537-1.9,1.527-3.487-.029-6.976-.012-10.464-.009-1.516,0-2.98.1-3.343,2.017" transform="translate(-11.085 -60.837)" fill="#fddfd8"/>
        <path id="Trazado_716685" data-name="Trazado 716685" d="M181.878,136.134q.012,7.955.023,15.911c-7.222.046-14.446.069-21.667.16-1.27.016-1.779-.325-1.745-1.679.115-4.658.127-9.319.177-13.979l.6-.426,22.616.014" transform="translate(-70.92 -60.912)" fill="#fddfd8"/>
        <path id="Trazado_716686" data-name="Trazado 716686" d="M120.116,243.9q-32.559.043-65.119.118c-1.984.008-2.481-.76-2.51-2.609-.031-2.064.7-2.666,2.738-2.659,19.132.065,38.264.036,57.4.04,2.483,0,4.966.033,7.449.051l.045,5.058" transform="translate(-23.487 -106.837)" fill="#d5a49c"/>
        <path id="Trazado_716687" data-name="Trazado 716687" d="M24.892,37.963c31.341,0,62.682.03,94.023-.068,2.627-.008,3.507.8,3.106,3.265q-20.089.044-40.179.083c-17.982.014-35.964-.059-53.945.071-2.748.02-3.658-.743-3-3.352" transform="translate(-11.048 -16.957)" fill="#fa4a59"/>
        <path id="Trazado_716688" data-name="Trazado 716688" d="M119.04,226.824c-5.87.054-11.74.144-17.61.155-12.67.024-25.342-.036-38.012.053-1.937.013-2.347-.693-2.228-2.4.1-1.509-.128-2.9,2.19-2.886,18.545.091,37.089.1,55.634.127q.012,2.474.025,4.948" transform="translate(-27.374 -99.229)" fill="#fddfd8"/>
        <path id="Trazado_716689" data-name="Trazado 716689" d="M105.9,155.99c-4.775,0-9.55.049-14.323-.042-.932-.018-2.624.767-2.711-.788-.1-1.772-1.166-4.092.788-5.354a37.834,37.834,0,0,1,13.261-5.1c1.5-.3,1.42.431,1.277,1.5-.517,3.856.2,4.462,3.9,3.395a86.76,86.76,0,0,1,13.186-2.663c1.335-.169,1.679.168,1.741,1.538.343,7.521.386,7.519-7.2,7.519H105.9" transform="translate(-39.595 -64.722)" fill="#f9bf6c"/>
        <path id="Trazado_716690" data-name="Trazado 716690" d="M40.623,114.874c4.411,0,8.825.075,13.233-.037,1.709-.044,2.15.517,2.165,2.18.046,5.426.115,5.426-5.294,5.426-7.812,0-15.625-.048-23.435.035-1.813.019-2.59-.335-2.57-2.384.051-5.219-.054-5.22,5.148-5.22H40.623" transform="translate(-11.062 -51.387)" fill="#f34856"/>
        <path id="Trazado_716691" data-name="Trazado 716691" d="M118.072,209.854c-15.347.031-30.695.02-46.042.143-2.261.018-1.907-1.248-1.99-2.627-.109-1.829.443-2.641,2.464-2.623,9.65.085,19.3.03,28.952.041,5.514.006,11.028.043,16.541.066q.036,2.5.074,5" transform="translate(-31.336 -91.621)" fill="#d5a49c"/>
        <path id="Trazado_716692" data-name="Trazado 716692" d="M40.349,93.8c4.5,0,9,.073,13.5-.037,1.718-.042,2.147.542,2.16,2.193.043,5.256.112,5.256-5.154,5.256-7.806,0-15.614-.055-23.419.039-1.914.023-2.769-.275-2.712-2.5.126-4.946-.008-4.949,4.88-4.949H40.349" transform="translate(-11.062 -41.958)" fill="#fa4a59"/>
        <path id="Trazado_716693" data-name="Trazado 716693" d="M117.537,192.8q-18.593.082-37.187.179c-1.017.007-1.674-.249-1.425-1.361.287-1.286-.956-3.052,1.13-3.784a2.552,2.552,0,0,1,.822-.039q18.323.056,36.644.117l.015,4.889" transform="translate(-35.268 -84.029)" fill="#fddfd8"/>
        <path id="Trazado_716694" data-name="Trazado 716694" d="M181.78,122.317c-7.135.041-14.269.067-21.4.139-1.386.014-1.866-.487-1.933-1.921-.263-5.615-.317-5.622,5.259-5.61q9.059.02,18.119.071-.021,3.661-.042,7.322" transform="translate(-70.86 -51.426)" fill="#fa4a59"/>
        <path id="Trazado_716695" data-name="Trazado 716695" d="M181.829,101.116c-7.229.043-14.457.063-21.685.148-1.363.015-1.633-.585-1.7-1.809-.32-5.621-.357-5.632,5.264-5.615,6.04.019,12.079.067,18.119.1q0,3.587,0,7.173" transform="translate(-70.849 -41.991)" fill="#fa4a59"/>
        <path id="Trazado_716696" data-name="Trazado 716696" d="M26.533,205.883c.028,7.046,0,14.092.117,21.136.032,2-1,2.233-2.571,2.185-1.518-.046-2.984.115-2.957-2.152.087-7.044.088-14.089.123-21.134l5.288-.036" transform="translate(-9.452 -92.13)" fill="#7f625d"/>
        <path id="Trazado_716697" data-name="Trazado 716697" d="M214.133,205.918c.035,7.045.036,14.09.123,21.134.028,2.266-1.439,2.106-2.957,2.152-1.573.048-2.6-.182-2.57-2.186.112-7.044.089-14.091.117-21.136l5.288.035" transform="translate(-93.402 -92.13)" fill="#7f625d"/>
        <path id="Trazado_716698" data-name="Trazado 716698" d="M117.032,132.38c-2.329-4.78-3.079-5.188-8.972-3.675-1.92.492-2.2.063-2-1.674.578-5.059,3.4-9.119,7.093-10.047,3.871,4.483,5.5,9.53,3.876,15.4" transform="translate(-47.437 -52.348)" fill="#fddfd8"/>
        <path id="Trazado_716699" data-name="Trazado 716699" d="M200.749,58.786q-.043-3.671-.087-7.343c1.445-.079,2.889-.215,4.334-.228,3.795-.032,3.815-.01,3.791,3.82-.03,4.578.419,3.794-3.954,3.853-1.361.019-2.722-.065-4.084-.1" transform="translate(-89.793 -22.916)" fill="#bd2b37"/>
        <path id="Trazado_716700" data-name="Trazado 716700" d="M200.753,122.271q.021-3.661.042-7.322c2.013-.032,4.032.006,6.04-.119,1.479-.092,1.882.512,1.848,1.907-.172,7.134.96,5.536-5.479,5.721a22.611,22.611,0,0,1-2.45-.187" transform="translate(-89.834 -51.38)" fill="#e02e3d"/>
        <path id="Trazado_716701" data-name="Trazado 716701" d="M200.855,80q0-3.575,0-7.151c2.006-.039,4.014-.043,6.019-.131,1.215-.054,1.746.278,1.84,1.65.4,5.761.45,5.761-5.4,5.737-.82,0-1.639-.069-2.458-.1" transform="translate(-89.88 -32.538)" fill="#f72f40"/>
        <path id="Trazado_716702" data-name="Trazado 716702" d="M200.86,101.1q0-3.587,0-7.173c2.008-.035,4.018-.032,6.025-.119,1.212-.052,1.745.261,1.838,1.64.387,5.8.441,5.8-5.4,5.771-.819,0-1.638-.078-2.457-.119" transform="translate(-89.88 -41.976)" fill="#f72f40"/>
        <path id="Trazado_716703" data-name="Trazado 716703" d="M216.8,181.071q0-4.055,0-8.111a6.872,6.872,0,0,1,.812-.088c6.629.036,5.651-.857,5.8,5.783.043,1.873-.608,2.706-2.525,2.541-1.355-.117-2.722-.088-4.084-.125" transform="translate(-97.013 -77.348)" fill="#7f625d"/>
        <path id="Trazado_716704" data-name="Trazado 716704" d="M218.824,14.174l.013-6.722a11.789,11.789,0,0,1,5.666-.275c2.813.3,1.791,2.7,1.917,4.351.122,1.617-.29,2.916-2.4,2.771-1.728-.12-3.467-.089-5.2-.125" transform="translate(-97.92 -3.118)" fill="#604a47"/>
        <path id="Trazado_716705" data-name="Trazado 716705" d="M122.82,132.286c1.624-5.867,0-10.914-3.876-15.4,1.859-.461,3.173.527,4.358,1.716a13.913,13.913,0,0,1,3.8,8.607c.441,3.951-.165,4.611-4.284,5.075" transform="translate(-53.226 -52.254)" fill="#f8ce93"/>
        <path id="Trazado_716706" data-name="Trazado 716706" d="M174.854,243.844l-.045-5.058c1.372-.038,2.751-.007,4.116-.13,2.018-.182,3.063.394,3.031,2.692-.032,2.216-1,2.981-3.037,2.789-1.353-.128-2.745.3-4.064-.293" transform="translate(-78.224 -106.781)" fill="#7f625d"/>
        <path id="Trazado_716707" data-name="Trazado 716707" d="M165.887,226.855q-.012-2.474-.025-4.948c1.266-.031,2.533-.086,3.8-.089,3.166-.006,3.478.422,3.269,3.633-.076,1.18-.485,1.618-1.623,1.566-1.805-.083-3.613-.111-5.42-.162" transform="translate(-74.221 -99.26)" fill="#eac0ba"/>
        <path id="Trazado_716708" data-name="Trazado 716708" d="M156.923,209.829q-.036-2.5-.073-5c1.553-.034,3.111.006,4.655-.119,1.927-.156,2.485.672,2.58,2.544.112,2.213-.651,2.957-2.786,2.714-1.445-.165-2.917-.1-4.376-.138" transform="translate(-70.188 -91.596)" fill="#95746e"/>
        <path id="Trazado_716709" data-name="Trazado 716709" d="M148.886,192.764l-.015-4.889c1.367-.039,2.745.014,4.1-.139,2.153-.243,2.527.787,2.607,2.714.087,2.115-.586,2.768-2.6,2.5-1.348-.18-2.726-.132-4.091-.186" transform="translate(-66.618 -83.994)" fill="#eac0ba"/>
        <path id="Trazado_716710" data-name="Trazado 716710" d="M214.153,201.32l-5.288-.035c-.031-.724-.086-1.448-.09-2.172-.023-3.643-.009-3.6,3.592-3.463,1.351.05,2.048.414,1.934,1.871-.1,1.262-.1,2.532-.148,3.8" transform="translate(-93.422 -87.531)" fill="#604a47"/>
        <path id="Trazado_716711" data-name="Trazado 716711" d="M26.458,201.29l-5.288.036c-.046-.995-.011-2-.156-2.981-.329-2.231.685-2.745,2.76-2.726,2.007.019,3.14.392,2.8,2.685a25.667,25.667,0,0,0-.114,2.986" transform="translate(-9.376 -87.536)" fill="#604a47"/>
        <path id="Trazado_716712" data-name="Trazado 716712" d="M159.4,136.093l-.6.426c-.043-.481.24-.506.6-.426" transform="translate(-71.062 -60.884)" fill="#eac0ba"/>
      </g>
    </g>
  </g>
</svg>
