<svg xmlns="http://www.w3.org/2000/svg" xmlns:xlink="http://www.w3.org/1999/xlink" width="143.052" height="129" viewBox="0 0 143.052 129">
  <defs>
    <clipPath id="clip-path">
      <rect id="Rectángulo_353252" data-name="Rectángulo 353252" width="143.052" height="90.5" fill="none"/>
    </clipPath>
  </defs>
  <g id="Grupo_1003260" data-name="Grupo 1003260" transform="translate(-8540.975 6310)">
    <circle id="Elipse_5710" data-name="Elipse 5710" cx="64.5" cy="64.5" r="64.5" transform="translate(8548 -6310)" fill="#06d1d1"/>
    <g id="Grupo_1003126" data-name="Grupo 1003126" transform="translate(8540.975 -6290.75)">
      <g id="Grupo_1003125" data-name="Grupo 1003125" clip-path="url(#clip-path)">
        <path id="Trazado_715433" data-name="Trazado 715433" d="M32.5,65.427a11.279,11.279,0,0,0-.038-4.8L44.671,60.5a2.226,2.226,0,1,0,.11-4.447c-.736-.059-1.48-.02-2.22-.023l-21.651-.1q0-2.44,0-4.88c2.236-.381,2.29-2.013,2.286-3.8-.028-12.1.062-24.2-.078-36.3-.029-2.459.571-3.058,3.042-3.049q40.08.15,80.161.008c2.465-.008,3.293.5,3.26,3.143-.154,12.005-.064,24.015-.071,36.022,0,1.828-.067,3.665,2.413,3.972q-.005,2.447-.011,4.9c-1.8.295-2.389,1.43-2.384,3.155.008,2.861-.1,5.722-.166,8.583l-4.9.039c-.384-1.642-1.494-2.177-3.089-2.173q-15.905.034-31.811,0c-1.607,0-2.686.568-3.1,2.174-1.5.273-2.358-.687-3.334-1.587-5.778-5.323-12.5-6.269-19.893-4.286-3.232.867-5.335,3.584-8.346,4.767A4.635,4.635,0,0,0,32.5,65.427m55.135-38.35a2,2,0,0,0-1.254-1.808c-1.338-.521-2.266.152-3.181,1.071C77.3,32.267,71.343,38.13,65.5,44.1c-1.2,1.228-1.858,1.283-3.046.011-2.66-2.851-5.51-5.524-8.246-8.3-1.1-1.118-2.356-1.8-3.629-.6-1.419,1.33-.68,2.636.512,3.814,3.567,3.527,7.133,7.056,10.628,10.653,1.562,1.608,2.888,1.638,4.477.032q10.095-10.2,20.279-20.315a3.173,3.173,0,0,0,1.165-2.317" transform="translate(-9.217 -3.484)" fill="#b2e46d"/>
        <path id="Trazado_715434" data-name="Trazado 715434" d="M100.142,64.2c.061-2.861.174-5.722.166-8.582-.005-1.724.585-2.861,2.385-3.155,1.743.513,2.161,1.805,2.148,3.452-.017,2.413.068,4.827.11,7.241a44.318,44.318,0,0,0,.118,8.537c1.358-.653,1.431-1.684,1.876-2.444a14.224,14.224,0,0,1,18.4-5.744c3.174,1.49,5.216,4.064,7.042,6.894,1.227,2.44,3.348.767,5.035,1.093.914.243,1.116-.252,1.107-1.028-.017-1.293,0-2.586,0-3.879,0-4.193,0-4.192-3.9-4.932-.544-.1-1.086-.215-1.63-.323a10.617,10.617,0,0,1-3.32-13.113c2.186-.688,4.437-.38,6.655-.357,1.94.02,1.773-.731.932-1.924-1.711-2.428-4.13-3.278-7.008-3.265-7.348.033-14.7.061-22.045-.022-2.128-.024-3.953-.155-3.58,2.885.07.57-.685,1.242-1.059,1.867l-.871.167c-2.48-.308-2.413-2.144-2.412-3.972.007-12.008-.083-24.016.071-36.022.033-2.645-.8-3.151-3.26-3.143q-40.081.131-80.161-.008c-2.471-.009-3.071.59-3.042,3.048.14,12.1.05,24.2.078,36.3,0,1.784-.051,3.416-2.286,3.8a2.688,2.688,0,0,1-2.232-3.033C9.486,31.319,9.44,18.1,9.5,4.887,9.517,1.6,11.521.008,15.27.006Q46.688-.006,78.105,0,88.439,0,98.771,0c4.477.006,6.221,1.555,5.974,6.042-.162,2.95.748,3.73,3.61,3.551,4.173-.259,8.374-.1,12.563-.059,6.632.058,11.9,5.279,9.916,11.416-1.939,6,1.287,10.613,1.762,15.881.1,1.135.842,1.547,1.961,1.916,5.476,1.805,8.421,5.982,8.446,11.77.032,7.352-.069,14.706.048,22.057.044,2.7-1.006,3.732-3.633,3.553-1.76-.12-3.783-.537-5.238.143-1.6.75-.923,3.13-1.518,4.737a14.377,14.377,0,0,1-14.319,9.464,13.719,13.719,0,0,1-12.808-11.26c-.469-2.825-1.624-3.179-4.082-3.161-14.8.107-29.6.073-44.4.025-1.612-.006-2.333.224-2.648,2.122-1.251,7.52-7.088,12.41-14.258,12.291-7-.115-12.681-5.167-13.782-12.544-.247-1.652-.824-1.907-2.245-1.867-3.069.086-6.143.053-9.215.019-3.773-.041-5.367-1.672-5.428-5.474-.065-4.067-.065-4.067-4.089-4.067-.931,0-1.861-.015-2.792,0C1.06,66.58-.011,65.928,0,64.329s1.146-2.237,2.631-2.242c4.561-.017,9.122.006,13.685-.016,2.323-.011,4.647-.084,6.969-.129a4.639,4.639,0,0,1,2.383,1.188c.516,2.389-.384,3.532-2.891,3.437-2.041-.077-4.1.1-6.132-.047-1.923-.135-2.833.224-2.775,2.5.052,2.037.494,2.8,2.637,2.648a64.2,64.2,0,0,1,8.081-.007,3.154,3.154,0,0,0,3.4-2.025,13.381,13.381,0,0,1,12.462-7.494A13.36,13.36,0,0,1,52.875,69.7a3.217,3.217,0,0,0,3.438,1.952c12.454-.057,24.909-.031,37.364-.031,7.324,0,7.324,0,6.465-7.424m25.569-35.71c-.092-.638-.226-1.273-.269-1.914-.16-2.388-1.3-3.193-3.768-3.076-4.723.225-9.47.2-14.2.007-2.317-.1-2.835.741-2.7,2.834.161,2.5.038,5.009.038,7.514,0,4.621,0,4.621,4.662,4.179,5.738.052,11.476.074,17.214.177,1.448.026,1.492-.691,1.209-1.733q-1.085-4-2.189-7.988M40.333,86.01a9.934,9.934,0,0,0,9.832-9.757,10.066,10.066,0,0,0-9.651-9.694,9.726,9.726,0,0,0-.181,19.451m88.653-9.471a9.728,9.728,0,1,0-9.82,9.47,9.984,9.984,0,0,0,9.82-9.47m-13.61-57.464c2.7,0,5.4.073,8.093-.038.994-.041,2.546.741,2.9-.669.315-1.269-.641-2.46-1.74-3.284a4.737,4.737,0,0,0-2.832-1.044c-5.117-.021-10.235.039-15.35-.041-2.318-.036-1.531,1.6-1.6,2.711s-.478,2.488,1.6,2.4c2.972-.129,5.953-.033,8.93-.032m23.133,35.9c.206-1.611.217-3.175-2.231-2.674-1.11.227-2.9-.907-2.854,1.648.044,2.3.987,3.292,3.26,3.483,2.089.176,1.939-1.05,1.824-2.456" transform="translate(0 0)" fill="#050504"/>
        <path id="Trazado_715435" data-name="Trazado 715435" d="M15.51,93.8l21.651.1c.74,0,1.484-.036,2.22.023a2.226,2.226,0,1,1-.11,4.447L27.064,98.5c-5.026-.043-10.051-.1-15.076-.117-1.691,0-3.386-.067-3.324-2.315.055-2.01,1.613-2.2,3.223-2.181,1.207.017,2.416-.055,3.624-.087" transform="translate(-3.819 -41.351)" fill="#040403"/>
        <path id="Trazado_715436" data-name="Trazado 715436" d="M111.076,109.46c.859,7.424.859,7.424-6.465,7.424-12.455,0-24.909-.026-37.364.031a3.217,3.217,0,0,1-3.437-1.952,13.361,13.361,0,0,0-12.424-7.56A13.38,13.38,0,0,0,38.923,114.9a3.153,3.153,0,0,1-3.4,2.025,64.3,64.3,0,0,0-8.081.007c-2.144.154-2.585-.611-2.637-2.648-.058-2.277.852-2.636,2.774-2.5,2.035.143,4.09-.03,6.132.047,2.507.1,3.406-1.047,2.89-3.437,3.011-1.182,5.114-3.9,8.346-4.766,7.4-1.983,14.115-1.037,19.892,4.286.976.9,1.838,1.859,3.335,1.586.283,1.818,1.41,2.346,3.155,2.338q15.853-.07,31.707,0c1.73.007,2.894-.476,3.139-2.335l4.9-.039" transform="translate(-10.934 -45.262)" fill="#9bd153"/>
        <path id="Trazado_715437" data-name="Trazado 715437" d="M183.672,84.936l.871-.167c7.676.03,15.352.045,23.027.106,1.053.008,2.26-.414,3.078.71a10.618,10.618,0,0,0,3.32,13.113q-.036.641-.073,1.282c-.687-.464-1.392-.9-2.057-1.4a18.537,18.537,0,0,0-15.025-3.7c-4.256.781-7.631,3.057-10.894,5.645-.041-2.414-.127-4.828-.109-7.242.012-1.646-.4-2.938-2.149-3.452q.005-2.448.011-4.9" transform="translate(-80.968 -37.371)" fill="#fdc750"/>
        <path id="Trazado_715438" data-name="Trazado 715438" d="M110.414,40.625a3.173,3.173,0,0,1-1.165,2.317Q99.092,53.083,88.969,63.256c-1.589,1.605-2.914,1.576-4.477-.032C81,59.626,77.432,56.1,73.865,52.571c-1.192-1.179-1.931-2.485-.512-3.814,1.273-1.193,2.529-.515,3.629.6,2.736,2.781,5.586,5.454,8.246,8.3,1.188,1.272,1.844,1.217,3.046-.011,5.847-5.974,11.809-11.837,17.7-17.765.915-.92,1.843-1.592,3.181-1.071a2,2,0,0,1,1.254,1.808" transform="translate(-31.996 -17.032)" fill="#020301"/>
        <path id="Trazado_715439" data-name="Trazado 715439" d="M140.371,113.17c-.245,1.858-1.409,2.342-3.139,2.334q-15.853-.063-31.707,0c-1.745.007-2.872-.52-3.155-2.338.416-1.606,1.494-2.178,3.1-2.174q15.906.039,31.811,0c1.6,0,2.7.531,3.089,2.173" transform="translate(-45.13 -48.933)" fill="#050603"/>
        <path id="Trazado_715440" data-name="Trazado 715440" d="M64.543,138.488a9.726,9.726,0,0,1,.181-19.451,10.067,10.067,0,0,1,9.652,9.694,9.934,9.934,0,0,1-9.833,9.757m.127-14.381a4.667,4.667,0,1,0,4.627,4.711,4.88,4.88,0,0,0-4.627-4.711" transform="translate(-24.211 -52.477)" fill="#585a6b"/>
        <path id="Trazado_715441" data-name="Trazado 715441" d="M215.345,129.017a9.729,9.729,0,0,1-19.452-.474,9.729,9.729,0,1,1,19.452.474m-5.05-.335a4.68,4.68,0,1,0-4.512,4.755,4.9,4.9,0,0,0,4.512-4.755" transform="translate(-86.358 -52.477)" fill="#585a6b"/>
        <path id="Trazado_715442" data-name="Trazado 715442" d="M187.582,108.234c3.264-2.588,6.638-4.863,10.894-5.645a18.537,18.537,0,0,1,15.025,3.7c.664.493,1.37.932,2.057,1.395.014.172.031.344.053.516-.366,2.41.668,4.934-.589,7.272-1.826-2.829-3.868-5.4-7.042-6.894a14.224,14.224,0,0,0-18.4,5.745c-.445.76-.518,1.791-1.877,2.444a44.317,44.317,0,0,1-.118-8.537" transform="translate(-82.631 -45.08)" fill="#dea345"/>
        <path id="Trazado_715443" data-name="Trazado 715443" d="M212.028,50.945q1.1,3.994,2.188,7.988c.283,1.043.239,1.76-1.208,1.734-5.737-.1-11.476-.125-17.214-.177,0-1.942.006-3.884,0-5.827-.007-2.507,1.232-3.732,3.745-3.723,4.163.016,8.326.005,12.489.005" transform="translate(-86.317 -22.457)" fill="#b2e3fc"/>
        <path id="Trazado_715444" data-name="Trazado 715444" d="M211.342,81.832c-.817-1.123-2.025-.7-3.078-.71-7.675-.062-15.351-.077-23.027-.107.374-.625,1.129-1.3,1.059-1.867-.372-3.04,1.451-2.909,3.58-2.885,7.348.083,14.7.055,22.045.022,2.877-.013,5.3.836,7.007,3.264.841,1.193,1.009,1.944-.932,1.924-2.218-.022-4.469-.331-6.654.357" transform="translate(-81.662 -33.618)" fill="#efce5e"/>
        <path id="Trazado_715445" data-name="Trazado 715445" d="M208.307,47.006c-4.163,0-8.326.011-12.489-.005-2.513-.01-3.751,1.216-3.745,3.723.005,1.942,0,3.885,0,5.827-4.662.442-4.662.442-4.662-4.179,0-2.506.124-5.019-.038-7.514-.135-2.093.382-2.93,2.7-2.834,4.725.2,9.473.218,14.2-.007,2.466-.117,3.608.688,3.768,3.076.043.641.177,1.276.27,1.914" transform="translate(-82.596 -18.518)" fill="#97d0f8"/>
        <path id="Trazado_715446" data-name="Trazado 715446" d="M197.98,30.112c-2.977,0-5.958-.1-8.93.032-2.077.09-1.663-1.287-1.6-2.4s-.722-2.747,1.6-2.711c5.116.08,10.233.021,15.35.041a4.738,4.738,0,0,1,2.832,1.044c1.1.824,2.055,2.015,1.74,3.284-.349,1.41-1.9.627-2.9.669-2.693.111-5.395.038-8.093.037" transform="translate(-82.604 -11.037)" fill="#f9d762"/>
        <path id="Trazado_715447" data-name="Trazado 715447" d="M237.785,111.477c-.022-.172-.039-.344-.053-.516l.072-1.281c.543.108,1.086.22,1.63.323,3.9.74,3.9.739,3.9,4.932,0,1.293-.017,2.586,0,3.879.009.776-.193,1.27-1.107,1.027-.259-3.438-2.031-6.072-4.445-8.365" transform="translate(-104.805 -48.353)" fill="#f9d762"/>
        <path id="Trazado_715448" data-name="Trazado 715448" d="M243.705,96.131c.114,1.406.264,2.632-1.824,2.456-2.273-.191-3.217-1.18-3.26-3.483-.049-2.555,1.744-1.421,2.854-1.648,2.448-.5,2.437,1.063,2.231,2.674" transform="translate(-105.196 -41.159)" fill="#e6e9f0"/>
        <path id="Trazado_715449" data-name="Trazado 715449" d="M237.362,112.894c2.414,2.292,4.186,4.927,4.445,8.365-1.687-.325-3.807,1.346-5.035-1.093,1.257-2.338.224-4.861.589-7.272" transform="translate(-104.382 -49.77)" fill="#fdc750"/>
        <path id="Trazado_715450" data-name="Trazado 715450" d="M68.652,128.1a4.667,4.667,0,1,1-.081,9.333,4.667,4.667,0,0,1,.081-9.333" transform="translate(-28.192 -56.475)" fill="#030404"/>
        <path id="Trazado_715451" data-name="Trazado 715451" d="M214.274,132.68a4.681,4.681,0,1,1-4.706-4.574,4.922,4.922,0,0,1,4.706,4.574" transform="translate(-90.338 -56.476)" fill="#030404"/>
      </g>
    </g>
  </g>
</svg>
