<svg xmlns="http://www.w3.org/2000/svg" xmlns:xlink="http://www.w3.org/1999/xlink" width="129" height="129" viewBox="0 0 129 129">
  <defs>
    <clipPath id="clip-path">
      <rect id="Rectángulo_353226" data-name="Rectángulo 353226" width="100.297" height="83.827" fill="#fff"/>
    </clipPath>
  </defs>
  <g id="Grupo_1003249" data-name="Grupo 1003249" transform="translate(-388 -4861)">
    <circle id="Elipse_5699" data-name="Elipse 5699" cx="64.5" cy="64.5" r="64.5" transform="translate(388 4861)" fill="#b20d0d"/>
    <g id="Grupo_1003094" data-name="Grupo 1003094" transform="translate(402.352 4883.21)">
      <g id="Grupo_1003093" data-name="Grupo 1003093" clip-path="url(#clip-path)">
        <path id="Trazado_715304" data-name="Trazado 715304" d="M40.178,83.825q-15.611,0-31.223,0C3.272,83.816.009,80.55.006,74.864q-.012-21.173,0-42.346c0-5.71,3.357-9.053,9.112-9.058q24.588-.019,49.176-.005c2.783,0,2.719-.011,3.107-2.711a16.717,16.717,0,0,1,9.28-13.153,2.345,2.345,0,0,0,1.576-2.134A5.959,5.959,0,0,1,84.1,5.179a3.008,3.008,0,0,0,1.879,2.6,16.693,16.693,0,0,1,9.1,14.895c.137,3.963.065,7.935.01,11.9a2.247,2.247,0,0,0,1.561,2.5,5.894,5.894,0,0,1,3.5,6.876,5.982,5.982,0,0,1-5.761,4.685c-2.534.091-5.074.064-7.609.019-1.167-.021-1.965.225-2.346,1.5a5.44,5.44,0,0,1-2.677,3.241,2.738,2.738,0,0,0-1.451,2.88c.04,6.049.022,12.1.016,18.148-.006,6.293-3.15,9.4-9.506,9.406q-15.319.005-30.638,0M33.971,27.916v.007q-12.776,0-25.553.01c-.628,0-1.442-.177-1.786.478-.295.563.414.866.761,1.2Q20.756,42.447,34.137,55.262c3.8,3.642,8.166,3.674,11.948.077,3.109-2.957,6.163-5.972,9.31-8.889a2.538,2.538,0,0,0,.8-2.75c-.569-2.565.269-4.976,2.524-6,2.5-1.14,2.832-2.783,2.614-5.04a10.729,10.729,0,0,1,0-2.337c.232-1.876-.518-2.463-2.4-2.443-8.322.087-16.645.037-24.967.037M72.408,79.275a6.119,6.119,0,0,0-.6-.679C64,72.743,56.171,66.912,48.382,61.029a2.166,2.166,0,0,0-2.659-.051,11.315,11.315,0,0,1-10.867.1,2.959,2.959,0,0,0-3.662.438C23.989,66.983,16.732,72.384,9.508,77.827c-.485.366-1.168.577-1.378,1.448ZM78.246,36.4c3.511,0,7.022-.014,10.533.009,1.118.007,1.889-.209,1.875-1.586-.046-4.486.148-8.982-.09-13.455-.34-6.378-6.1-11.226-12.8-11.081A12.046,12.046,0,0,0,65.808,21.8c-.131,4.222-.01,8.451-.068,12.677-.02,1.439.566,1.956,1.974,1.934,3.51-.055,7.021-.018,10.532-.018M4.2,32.666c0,14.346,0,28.132.01,41.918,0,.368.027.909.254,1.071.562.4.939-.223,1.319-.507C13.334,69.5,20.863,63.824,28.437,58.2c1.161-.861,1.122-1.4.108-2.363C22.268,49.889,16.049,43.876,9.8,37.9c-1.724-1.65-3.488-3.258-5.6-5.229M75.663,76.019a8.116,8.116,0,0,0,.215-1.116c.009-6.443,0-12.885.016-19.328a2.1,2.1,0,0,0-1.169-2.062A5.43,5.43,0,0,1,72,50.319c-.431-1.44-1.308-1.669-2.622-1.681-2.988-.025-5.987.282-8.962-.2-.774-.126-1.214.334-1.683.781-2.31,2.2-4.57,4.45-6.942,6.579-1.162,1.043-1.023,1.627.183,2.507,4.468,3.259,8.869,6.612,13.3,9.929l10.4,7.788m2.443-31.8q7.711,0,15.423,0c1.2,0,2.382-.185,2.327-1.683-.051-1.4-1.164-1.687-2.394-1.686q-15.227.018-30.455.005c-1.254,0-2.526.163-2.518,1.742.009,1.664,1.4,1.613,2.586,1.616,5.011.012,10.021.005,15.032,0" transform="translate(0 0)" fill="#fff"/>
        <path id="Trazado_715305" data-name="Trazado 715305" d="M84.835,88.113c-2.99,0-5.979,0-8.969,0-1.4,0-2.531-.471-2.574-2.019-.048-1.672,1.116-2.18,2.605-2.179q8.969.008,17.938,0c1.435,0,2.5.579,2.491,2.1s-1.1,2.089-2.523,2.09q-4.484,0-8.969,0" transform="translate(-44.671 -51.15)" fill="#fff"/>
        <path id="Trazado_715306" data-name="Trazado 715306" d="M90.416,106.117c-1.88,0-3.76.005-5.639,0-1.369-.005-2.309-.657-2.342-2.047a1.987,1.987,0,0,1,2.251-2.124c3.76-.021,7.519-.016,11.279,0,1.346,0,2.356.624,2.361,2.027.005,1.493-1.034,2.138-2.464,2.146-1.815.011-3.63,0-5.445,0" transform="translate(-50.245 -62.128)" fill="#fff"/>
      </g>
    </g>
  </g>
</svg>
