<svg xmlns="http://www.w3.org/2000/svg" xmlns:xlink="http://www.w3.org/1999/xlink" width="129" height="129" viewBox="0 0 129 129">
  <defs>
    <clipPath id="clip-path">
      <rect id="Rectángulo_353196" data-name="Rectángulo 353196" width="75.823" height="117.396" fill="none"/>
    </clipPath>
  </defs>
  <g id="Grupo_1003245" data-name="Grupo 1003245" transform="translate(-736 -1279)">
    <circle id="Elipse_5695" data-name="Elipse 5695" cx="64.5" cy="64.5" r="64.5" transform="translate(736 1279)" fill="#06d1d1"/>
    <g id="Grupo_1003059" data-name="Grupo 1003059" transform="translate(762.088 1284.427)">
      <g id="Grupo_1003058" data-name="Grupo 1003058" clip-path="url(#clip-path)">
        <path id="Trazado_715253" data-name="Trazado 715253" d="M25.923,17.711c.709-3.7-.438-7.077-1.135-10.485C24.333,5,24.943,3.961,27.12,3.559c1.775-.328,3.515-.85,5.271-1.282,2.658-.654,3.047-.423,3.821,2.27.369,1.284.727,2.571,1.107,3.852.033.109.2.178.492.425,0-2.237.021-4.318-.007-6.4C37.782.736,38.591-.022,40.259,0c2.207.029,4.414.01,6.621.007a2.038,2.038,0,0,1,2.29,2.348c-.008,2.444.02,4.889-.009,7.332a3.9,3.9,0,0,0,1.856,3.592,19.657,19.657,0,0,1,6.264,6c.612.963,1.3.827,2.2.617,7.311-1.71,6.093-1.53,7.6,5.019.036.153.036.314.064.469C68.2,31.108,68.2,31.108,62.688,33.3a13.1,13.1,0,0,1,6.755,7.819c1.317,4.152.179,7.941-1.912,11.514a2.526,2.526,0,0,0,.3,3.467c4.126,4.837,5.8,10.727,6.7,16.875,1.066,7.27,1.874,14.613.735,21.9a26.327,26.327,0,0,1-40.149,18.44c-6.227-3.838-12.333-7.9-18.264-12.185-21.784-15.718-22.588-48.358-1.632-65.2a4.091,4.091,0,0,0,1.607-4.212c-.584-5.81-2.8-11.115-4.946-16.43-.908-2.25-.44-3.521,1.787-4.423,1.815-.736,3.52-1.743,5.284-2.608C21.316,7.1,22.033,7.391,23,9.911c.991,2.594,1.952,5.2,2.927,7.8M19.843,51.576A44.146,44.146,0,0,1,24.785,49.4c1.943-.6,2.153-1.544,1.491-3.327-1.937-5.217-2.506-10.648-.807-15.968,1.07-3.351,1.547-6.084-1.555-8.6-1.187-.962-1.634-2.653-2.18-4.134-.515-1.4-1.018-2.806-1.567-4.194-.234-.591-.521-1.289-1.3-.469-3.356,1.3-3.4,1.323-2.105,4.579,2.279,5.719,3.993,11.541,4.049,17.78.056,6.194-1.565,12.024-3.735,17.915,1.331-.018,1.983-.847,2.772-1.407M3.888,66.182q-.075,1.441-.149,2.881l.4.085.987-2.013A46.007,46.007,0,0,1,9.389,60.65c.861-1.1,1.93-2.025,2.373-3.461,1.11-3.6,2.377-7.144,3.5-10.737A17.913,17.913,0,0,0,16.4,39.8c-7.9,7.423-12.043,16.02-12.516,26.38M62.98,24.568c.133-1.416-.635-1.549-1.752-1.265-13.109,3.339-22.957,10.886-29.4,22.81-.218.4-.832.827-.183,1.409.6.539.992.007,1.449-.223,1.721.054,3.448.043,5.161.19a1.337,1.337,0,0,0,1.56-1.029c3.8-9.345,11.56-13.806,20.612-16.663,3.6-1.137,3.6-1.145,2.78-4.822a1.643,1.643,0,0,0-.224-.407M32.513,37.811a49.1,49.1,0,0,1,20.55-15.783c1.1-.441,1.021-.913.382-1.69a15.248,15.248,0,0,0-3.864-3.444,8.465,8.465,0,0,1-4.263-6.455c.02-1.492-.027-2.99.081-4.476s-.107-2.229-1.946-2.244C41.494,3.7,41.5,4.676,41.6,6.038a14.914,14.914,0,0,1-5.5,12.91,22.182,22.182,0,0,0-6.988,11.776,20.9,20.9,0,0,0,.207,11.913l3.2-4.826m30.475.441c-1.936-2.158-4.485-2.551-7.123-2.174-4.782.683-11.526,7.3-12.634,12.051-.271,1.163.4,1.35,1.137,1.649A17.838,17.838,0,0,1,50.6,58.216c2.706-2.181,5.442-4.318,8.626-4.484,4.056-.211,5.2-2.847,6.321-5.761a8.175,8.175,0,0,0-2.564-9.719M44.748,80.743A7.364,7.364,0,0,0,41.511,83.4a9.5,9.5,0,0,1-5.726,3.483c-.567.113-1.686.672-1.657-.458.027-1.053-1.09-2.675.778-3.177a8.5,8.5,0,0,0,4.346-3.057c1.447-1.714,3.231-3.331,5.422-3.57,3.808-.414,4.906-2.993,5.761-6,.494-1.739.99-3.478,1.423-5.233a3.148,3.148,0,0,0-.09-2.451c-3.349,2.228-4,1.923-4.581-1.989a11.392,11.392,0,0,0-11.266-9.821c-8.336.008-15.211,3.474-21.063,9.2-.625.612-1.575,1.119-.993,2.357a2.67,2.67,0,0,0,2.686,1.724A29.011,29.011,0,0,1,31.431,69.15c.762.492,2.321.741,1.068,2.363-.933,1.208-1.471,2.092-3.232.845a17.861,17.861,0,0,0-11.358-3.446A16.272,16.272,0,0,0,21.4,72.4c5.161,4.083,6.2,9.109,3.8,15.159-.655,1.652-1.207,1.942-2.8,1.38-1.566-.551-1.338-1.391-.885-2.516,1.253-3.111,2.139-6.429-.531-9.077-3.733-3.7-7.464-7.357-10.12-12.333C8.946,68.06,7.2,70.647,6.521,73.78a8.016,8.016,0,0,0-.349,7.381A37.752,37.752,0,0,0,20.16,98.837c5.143,3.486,10.344,6.887,15.5,10.357a26.018,26.018,0,0,0,10.663,4.166c10.736,1.686,22.485-6.122,24.553-16.386a11.15,11.15,0,0,0,.545-1.791c.992-7.486.355-14.913-.774-22.332-.831-5.461-2.467-10.558-6.1-14.854-.568-.672-1.072-1.357-2.133-1.124A29.311,29.311,0,0,0,57.863,58.1c-1.935.764-1.215,2.5-1.577,3.835-.314,1.163.367,1.618,1.315,2.1a15.756,15.756,0,0,1,7.974,9.222c.233.683,1.28,1.923-.367,2.251-1.148.229-2.629,1.329-3.291-1.031a11.294,11.294,0,0,0-6.477-7.261c-.458,1.5-.8,2.954-1.345,4.322a2.906,2.906,0,0,0,.568,3.552,12.1,12.1,0,0,1,2.952,6.589,13.067,13.067,0,0,0,4.808,8.652c1.8,1.42-.056,2.125-.475,3.043-.639,1.4-1.379.345-1.989-.122C57.89,91.668,56.555,89.453,55,87a7.043,7.043,0,0,0,1.168,5.257,16.584,16.584,0,0,1,2.492,8.5c.036,1.419-.664,1.575-1.722,1.431-.863-.117-2.189.587-2.115-1.259A13.2,13.2,0,0,0,52.561,93.6c-2.045-3.454-2.229-7.148-.072-10.528,1.429-2.24.645-3.646-.786-5.415a52.04,52.04,0,0,1-6.361,10.145,2.13,2.13,0,0,0-.157,2.394,35.146,35.146,0,0,1,2.021,9.667c.066,1.019.689,2.433-1.445,2.377-1.549-.041-2.371-.13-2.392-2.082a20.056,20.056,0,0,0-1.684-8.077c-1.109,1-2.006,1.871-2.97,2.66-.748.612-1.42,1.907-2.538.269-.775-1.136-1.657-1.855-.012-3.179A37.448,37.448,0,0,0,45.3,81.128c.051-.181.2-.468.134-.525-.246-.227-.492-.086-.688.141M29.687,19.7c5.461-4.2,5.5-4.316,3.937-10.129a9.088,9.088,0,0,1-.413-1.593c-.143-1.822-1.066-1.775-2.563-1.436-1.613.365-1.974.927-1.628,2.558.708,3.33,1.892,6.652.666,10.6" transform="translate(0 0)" fill="#050304"/>
        <path id="Trazado_715254" data-name="Trazado 715254" d="M13.776,130.661c.676-3.133,2.425-5.719,4.342-8.767,2.656,4.976,6.387,8.631,10.12,12.333,2.67,2.649,1.785,5.966.531,9.077-.453,1.125-.681,1.966.885,2.516,1.6.561,2.147.271,2.8-1.38,2.4-6.051,1.361-11.076-3.8-15.159a16.259,16.259,0,0,1-3.492-3.489,17.86,17.86,0,0,1,11.358,3.446c1.762,1.247,2.3.363,3.233-.845,1.253-1.622-.307-1.871-1.068-2.363a29.011,29.011,0,0,0-14.879-4.741,2.669,2.669,0,0,1-2.685-1.724c-.583-1.238.367-1.746.992-2.357,5.852-5.73,12.727-9.2,21.064-9.2a11.391,11.391,0,0,1,11.266,9.822c.585,3.911,1.232,4.217,4.581,1.989a3.148,3.148,0,0,1,.09,2.451c-.433,1.755-.93,3.494-1.423,5.233-.855,3.009-1.953,5.587-5.761,6-2.192.239-3.975,1.855-5.422,3.57a8.5,8.5,0,0,1-4.346,3.057c-1.868.5-.752,2.124-.778,3.177-.028,1.13,1.09.57,1.657.458a9.5,9.5,0,0,0,5.726-3.483A7.36,7.36,0,0,1,52,137.624l.556.385a37.491,37.491,0,0,1-9.139,10.71c-1.645,1.324-.764,2.043.012,3.179,1.118,1.637,1.789.343,2.538-.269.964-.789,1.861-1.66,2.97-2.66a20.056,20.056,0,0,1,1.685,8.077c.021,1.952.843,2.041,2.392,2.082,2.133.056,1.51-1.359,1.445-2.377a35.146,35.146,0,0,0-2.021-9.667,2.131,2.131,0,0,1,.157-2.394,52.038,52.038,0,0,0,6.361-10.145c1.432,1.768,2.215,3.174.787,5.415-2.156,3.38-1.973,7.074.072,10.528a13.2,13.2,0,0,1,2.263,7.323c-.074,1.846,1.251,1.142,2.114,1.259,1.058.143,1.758-.013,1.722-1.431a16.583,16.583,0,0,0-2.491-8.5,7.039,7.039,0,0,1-1.168-5.257c1.554,2.451,2.889,4.666,4.957,6.249.611.467,1.351,1.523,1.989.122.418-.918,2.278-1.624.475-3.043a13.065,13.065,0,0,1-4.808-8.652,12.108,12.108,0,0,0-2.952-6.589,2.906,2.906,0,0,1-.568-3.552c.547-1.368.887-2.818,1.345-4.322a11.3,11.3,0,0,1,6.477,7.261c.662,2.36,2.142,1.26,3.291,1.031,1.647-.328.6-1.568.367-2.251a15.755,15.755,0,0,0-7.974-9.222c-.948-.486-1.63-.941-1.315-2.1.362-1.338-.359-3.071,1.576-3.835a29.363,29.363,0,0,1,4.545-1.221c1.061-.233,1.565.452,2.133,1.124,3.636,4.3,5.273,9.393,6.1,14.854,1.128,7.419,1.766,14.846.774,22.332a11.2,11.2,0,0,1-.544,1.791c-1.321.172-1.92,1.31-2.733,2.117-7.109,7.059-18.552,9.05-27.439,4.516-7.363-3.757-13.915-8.824-20.747-13.426a39.928,39.928,0,0,1-8.509-8.421c-1.983-2.464-3.05-5.467-4.926-7.981" transform="translate(-7.255 -56.881)" fill="#fb4c54"/>
        <path id="Trazado_715255" data-name="Trazado 715255" d="M12.574,155.868c1.876,2.514,2.943,5.517,4.926,7.981a39.927,39.927,0,0,0,8.509,8.421c6.832,4.6,13.384,9.669,20.747,13.426,8.886,4.534,20.33,2.543,27.439-4.516.813-.807,1.412-1.945,2.733-2.117-2.068,10.264-13.817,18.072-24.553,16.386a26.018,26.018,0,0,1-10.663-4.166c-5.154-3.47-10.355-6.871-15.5-10.357a37.749,37.749,0,0,1-13.988-17.676,8.015,8.015,0,0,1,.348-7.381" transform="translate(-6.054 -82.088)" fill="#e43743"/>
        <path id="Trazado_715256" data-name="Trazado 715256" d="M112.352,80.713a8.177,8.177,0,0,1,2.563,9.719c-1.126,2.914-2.265,5.55-6.321,5.761-3.185.165-5.92,2.3-8.626,4.484a17.843,17.843,0,0,0-6.238-8.438c2.658-7.94,9.7-12.3,18.621-11.526" transform="translate(-49.364 -42.461)" fill="#ad2a2d"/>
        <path id="Trazado_715257" data-name="Trazado 715257" d="M81.067,22.055A8.466,8.466,0,0,0,85.33,28.51a15.246,15.246,0,0,1,3.864,3.444c.64.777.716,1.25-.382,1.69A49.1,49.1,0,0,0,68.262,49.426a1.877,1.877,0,0,1-.374-1.546A25.916,25.916,0,0,1,72.78,32.973c2.623-3.747,6.957-6.193,8.287-10.918" transform="translate(-35.749 -11.615)" fill="#fb4c54"/>
        <path id="Trazado_715258" data-name="Trazado 715258" d="M99.8,51.9a1.668,1.668,0,0,1,.224.407c.82,3.677.821,3.685-2.78,4.822-9.052,2.858-16.81,7.318-20.612,16.663a1.337,1.337,0,0,1-1.559,1.029c-1.714-.147-3.44-.136-5.161-.19A45.659,45.659,0,0,1,89,55.684c3.366-1.827,6.819-3.606,10.8-3.782" transform="translate(-36.817 -27.334)" fill="#0a79de"/>
        <path id="Trazado_715259" data-name="Trazado 715259" d="M76.852,14.578c-1.33,4.725-5.664,7.171-8.287,10.918A25.916,25.916,0,0,0,63.673,40.4a1.877,1.877,0,0,0,.374,1.546l-3.2,4.826a20.9,20.9,0,0,1-.207-11.913,22.185,22.185,0,0,1,6.988-11.776,14.914,14.914,0,0,0,5.5-12.909c-.092-1.362-.1-2.334,1.857-2.318,1.839.015,2.053.77,1.945,2.244s-.061,2.984-.081,4.476" transform="translate(-31.535 -4.138)" fill="#e23743"/>
        <path id="Trazado_715260" data-name="Trazado 715260" d="M8.213,110.465c.473-10.36,4.618-18.957,12.516-26.38a17.915,17.915,0,0,1-1.146,6.65c-1.119,3.594-2.386,7.141-3.5,10.737-.443,1.435-1.511,2.364-2.373,3.461a46.008,46.008,0,0,0-4.262,6.485l-1.239-.953" transform="translate(-4.325 -44.284)" fill="#a9292c"/>
        <path id="Trazado_715261" data-name="Trazado 715261" d="M37.61,65.716c-.789.56-1.441,1.388-2.772,1.407,2.17-5.892,3.791-11.721,3.735-17.915-.056-6.24-1.77-12.06-4.049-17.78-1.3-3.256-1.251-3.275,2.105-4.579.707,1.741,1.447,3.469,2.114,5.225a40.016,40.016,0,0,1,.868,26.9c-.7,2.235-1.749,4.37-2,6.739" transform="translate(-17.767 -14.14)" fill="#0069d6"/>
        <path id="Trazado_715262" data-name="Trazado 715262" d="M40.83,65.3c.254-2.368,1.3-4.5,2-6.739a40.016,40.016,0,0,0-.868-26.9c-.668-1.756-1.408-3.484-2.114-5.225.783-.82,1.069-.122,1.3.469.549,1.387,1.051,2.793,1.567,4.194.545,1.482.993,3.172,2.18,4.134,3.1,2.513,2.625,5.246,1.555,8.6-1.7,5.32-1.13,10.751.807,15.968.662,1.783.453,2.726-1.491,3.327A44.146,44.146,0,0,0,40.83,65.3" transform="translate(-20.987 -13.723)" fill="#0976da"/>
        <path id="Trazado_715263" data-name="Trazado 715263" d="M97.862,50.359c-3.977.176-7.429,1.955-10.8,3.782A45.659,45.659,0,0,0,67.974,73.09c-.458.23-.847.763-1.449.223-.648-.581-.035-1,.183-1.409C73.153,59.981,83,52.435,96.11,49.1c1.117-.284,1.885-.151,1.752,1.264" transform="translate(-34.883 -25.792)" fill="#0067d2"/>
        <path id="Trazado_715264" data-name="Trazado 715264" d="M61.842,26.764c1.226-3.947.042-7.269-.666-10.6-.346-1.631.015-2.193,1.628-2.558,1.5-.339,2.42-.387,2.563,1.436a9.088,9.088,0,0,0,.413,1.593c1.565,5.813,1.524,5.93-3.937,10.129" transform="translate(-32.155 -7.069)" fill="#f54a52"/>
        <path id="Trazado_715265" data-name="Trazado 715265" d="M111.018,78.251C102.1,77.478,95.055,81.837,92.4,89.777c-.737-.3-1.408-.486-1.137-1.648,1.109-4.753,7.852-11.368,12.635-12.052,2.638-.377,5.187.016,7.124,2.174" transform="translate(-48.03 -40)" fill="#851c19"/>
        <path id="Trazado_715266" data-name="Trazado 715266" d="M8.047,139.816l1.239.953L8.3,142.782l-.4-.084.149-2.881" transform="translate(-4.159 -73.634)" fill="#731815"/>
        <path id="Trazado_715267" data-name="Trazado 715267" d="M94.535,170.294c.2-.227.442-.367.688-.141.063.058-.084.344-.133.525l-.555-.385" transform="translate(-49.787 -89.551)" fill="#fb4c54"/>
      </g>
    </g>
  </g>
</svg>
