<svg xmlns="http://www.w3.org/2000/svg" xmlns:xlink="http://www.w3.org/1999/xlink" width="129" height="129" viewBox="0 0 129 129">
  <defs>
    <clipPath id="clip-path">
      <rect id="Rectángulo_353195" data-name="Rectángulo 353195" width="62.44" height="110.924" fill="none"/>
    </clipPath>
  </defs>
  <g id="Grupo_1003244" data-name="Grupo 1003244" transform="translate(-388 -1279)">
    <circle id="Elipse_5694" data-name="Elipse 5694" cx="64.5" cy="64.5" r="64.5" transform="translate(388 1279)" fill="#b20d0d"/>
    <g id="Grupo_1003057" data-name="Grupo 1003057" transform="translate(421.28 1288.038)">
      <g id="Grupo_1003056" data-name="Grupo 1003056" clip-path="url(#clip-path)">
        <path id="Trazado_715242" data-name="Trazado 715242" d="M15.671,29.955a2.355,2.355,0,0,1-2.029-2.441c.052-4.759-.371-9.538.2-14.273a15.09,15.09,0,0,1,30.066,1.621c.129,13.349.072,26.7.009,40.05a4.35,4.35,0,0,0,1.993,4.08,28.646,28.646,0,0,1,9.909,33.17,29,29,0,0,1-29.211,18.682A29.062,29.062,0,0,1,1.046,89.82,28.75,28.75,0,0,1,11.965,58.8a3.464,3.464,0,0,0,1.693-3.349c-.125-3.171-.014-6.349-.048-9.524-.016-1.534.419-2.7,2.061-3.09,1.678.184,2.317,1.171,2.3,2.8-.035,3.969-.079,7.94.021,11.907A3.967,3.967,0,0,1,15.9,61.392C7.473,66.888,3.6,74.8,4.521,84.774c1.06,11.422,10.236,20.334,21.844,21.695,10.911,1.28,21.832-5.679,25.559-16.285A24.33,24.33,0,0,0,41.873,61.47a4.344,4.344,0,0,1-2.3-4.2c.068-13.567.039-27.135.031-40.7a15.165,15.165,0,0,0-.373-4.293,10.814,10.814,0,0,0-21.242,2.972c-.114,3.966-.051,7.938-.017,11.907.013,1.628-.625,2.615-2.3,2.8" transform="translate(0 0)" fill="#060707"/>
        <path id="Trazado_715243" data-name="Trazado 715243" d="M21.407,35.6c1.677-.186,2.315-1.172,2.3-2.8-.033-3.969-.1-7.941.018-11.907a10.815,10.815,0,0,1,21.242-2.973,15.153,15.153,0,0,1,.373,4.293c.008,13.568.037,27.135-.031,40.7a4.344,4.344,0,0,0,2.3,4.2A24.33,24.33,0,0,1,57.66,95.829c-3.726,10.606-14.647,17.565-25.559,16.285-11.608-1.361-20.784-10.273-21.844-21.695-.925-9.972,2.952-17.886,11.378-23.382a3.968,3.968,0,0,0,2.094-3.854c-.1-3.967-.056-7.938-.021-11.907.015-1.628-.624-2.615-2.3-2.8V44.268c1.372-.18,2.307-.82,2.254-2.337-.049-1.411-.991-1.957-2.254-2.121q0-2.105,0-4.21m6.617,9.687c0,7.072-.053,14.144.041,21.214a2.719,2.719,0,0,1-1.932,3A20.014,20.014,0,0,0,14.917,92.23a20.156,20.156,0,0,0,39.3-.036,19.994,19.994,0,0,0-11.084-22.61c-1.775-.807-2.166-1.737-2.156-3.533.078-13.637.043-27.275.042-40.913,0-4.227-.093-4.317-4.422-4.317-1.732,0-3.463-.006-5.194,0-2.788.012-3.372.6-3.376,3.467q-.016,10.5,0,21" transform="translate(-5.735 -5.646)" fill="#bbeaf4"/>
        <path id="Trazado_715244" data-name="Trazado 715244" d="M121.788,39.312c-1.221,0-2.442.02-3.662,0a2.008,2.008,0,0,1-2.25-2.07,1.966,1.966,0,0,1,2.087-2.226q3.982-.106,7.969,0a2.147,2.147,0,1,1-.051,4.294c-1.363.044-2.728.01-4.093.01" transform="translate(-65.649 -19.806)" fill="#040404"/>
        <path id="Trazado_715245" data-name="Trazado 715245" d="M122.016,67.288c-1.364,0-2.731.048-4.092-.014a1.946,1.946,0,0,1-2.052-2.038A1.968,1.968,0,0,1,117.945,63c2.655-.075,5.314-.069,7.969-.008a2.148,2.148,0,1,1-.021,4.295c-1.291.049-2.585.01-3.877.01v-.007" transform="translate(-65.647 -35.66)" fill="#040404"/>
        <path id="Trazado_715246" data-name="Trazado 715246" d="M121.847,95.277c-1.293,0-2.587.045-3.877-.014a1.977,1.977,0,0,1-2.1-2.211,1.934,1.934,0,0,1,2.028-2.066c2.727-.071,5.458-.08,8.184.009a1.942,1.942,0,0,1,2,2.095,2.009,2.009,0,0,1-2.148,2.176c-1.362.06-2.728.013-4.093.012" transform="translate(-65.648 -51.517)" fill="#040404"/>
        <path id="Trazado_715247" data-name="Trazado 715247" d="M121.858,123.259c-1.292,0-2.587.043-3.877-.013a1.979,1.979,0,0,1-2.109-2.2,1.931,1.931,0,0,1,2.018-2.075c2.726-.075,5.458-.08,8.184.006a1.945,1.945,0,0,1,2.013,2.086,2.005,2.005,0,0,1-2.137,2.185c-1.361.063-2.728.014-4.092.013" transform="translate(-65.648 -67.371)" fill="#040404"/>
        <path id="Trazado_715248" data-name="Trazado 715248" d="M33.548,78.822c1.263.165,2.2.711,2.254,2.121.053,1.517-.882,2.157-2.254,2.337a2.243,2.243,0,0,1,0-4.458" transform="translate(-17.876 -44.657)" fill="#0d0e0e"/>
        <path id="Trazado_715249" data-name="Trazado 715249" d="M33.657,59.475q0-10.5,0-21c0-2.869.587-3.455,3.376-3.467,1.732-.008,3.463,0,5.194,0,4.329,0,4.422.09,4.422,4.317,0,13.638.035,27.276-.042,40.913-.01,1.8.381,2.726,2.156,3.533a19.994,19.994,0,0,1,11.083,22.61,20.156,20.156,0,0,1-39.3.036,20.014,20.014,0,0,1,11.216-22.73,2.718,2.718,0,0,0,1.932-3c-.094-7.07-.041-14.142-.041-21.214m8.652,2.8c0-6.927-.044-13.855.033-20.781.018-1.6-.278-2.256-2.082-2.218-1.7.035-2.332.324-2.32,2.224.089,13.782,0,27.564.09,41.346.014,2.291-.615,3.457-2.942,4.2A15.574,15.574,0,0,0,24.65,104.791a15.835,15.835,0,0,0,16.089,12.935c7.723-.205,14.018-6.024,15.167-14.021,1.038-7.225-3.6-14.394-11.04-16.807a3.256,3.256,0,0,1-2.583-3.627c.067-7,.026-14,.026-21" transform="translate(-11.368 -19.833)" fill="#060505"/>
        <path id="Trazado_715250" data-name="Trazado 715250" d="M47.907,67.849c0,7,.041,14-.026,21a3.255,3.255,0,0,0,2.583,3.627c7.437,2.414,12.078,9.583,11.04,16.807-1.149,8-7.444,13.815-15.168,14.021a15.834,15.834,0,0,1-16.088-12.935A15.573,15.573,0,0,1,40.685,92.623c2.327-.748,2.956-1.914,2.942-4.2-.086-13.782,0-27.565-.09-41.346-.012-1.9.615-2.188,2.319-2.223,1.8-.037,2.1.62,2.082,2.218-.076,6.926-.033,13.854-.032,20.781M45.85,118.984A11.584,11.584,0,0,0,57.263,108.2c.059-1.464-.355-2.64-2.006-2.768-1.349-.106-2.077.647-2.31,2.016-1.078,6.373-4.829,8.435-11.012,6.087-1.223-.464-2.307-.372-2.969.867a2.041,2.041,0,0,0,.939,2.931,11.091,11.091,0,0,0,5.945,1.653m-7.176-11.523c-.212-1.18-.809-2.073-2.2-2.055a2.092,2.092,0,0,0-.091,4.184c1.369.078,2.052-.758,2.291-2.128" transform="translate(-16.966 -25.409)" fill="#f9616e"/>
        <path id="Trazado_715251" data-name="Trazado 715251" d="M57.247,198.159a11.09,11.09,0,0,1-5.945-1.653,2.04,2.04,0,0,1-.94-2.931c.663-1.239,1.747-1.331,2.969-.867,6.182,2.348,9.934.286,11.012-6.087.231-1.369.96-2.122,2.309-2.016,1.651.129,2.066,1.3,2.006,2.768a11.586,11.586,0,0,1-11.413,10.787" transform="translate(-28.362 -104.584)" fill="#070303"/>
        <path id="Trazado_715252" data-name="Trazado 715252" d="M44.448,186.619c-.238,1.37-.922,2.206-2.291,2.128a2.092,2.092,0,0,1,.091-4.184c1.39-.017,1.987.876,2.2,2.055" transform="translate(-22.74 -104.566)" fill="#090304"/>
      </g>
    </g>
  </g>
</svg>
