<svg id="Grupo_1003203" data-name="Grupo 1003203" xmlns="http://www.w3.org/2000/svg" xmlns:xlink="http://www.w3.org/1999/xlink" width="235.936" height="147.105" viewBox="0 0 235.936 147.105">
  <defs>
    <clipPath id="clip-path">
      <rect id="Rectángulo_353344" data-name="Rectángulo 353344" width="235.936" height="147.105" fill="none"/>
    </clipPath>
  </defs>
  <g id="Grupo_1003202" data-name="Grupo 1003202" clip-path="url(#clip-path)">
    <path id="Trazado_716646" data-name="Trazado 716646" d="M80.013,0q36.471,0,72.942,0c7,0,7.165.174,7.178,7.385.008,4.162.243,8.342-.07,12.481-.278,3.694.835,4.9,4.669,4.808,10.985-.258,21.983.04,32.97-.162,3.777-.07,6.1,1.125,8.014,4.477,9.4,16.446,19.008,32.772,28.6,49.109a10.482,10.482,0,0,1,1.587,5.617c-.079,12.154-.184,24.311.032,36.461.081,4.576-1.579,6.55-6.123,6.023-.329-.038-.669.024-1-.009-5.713-.573-9.681-.029-12.028,7.05-3.18,9.592-13.206,14.422-23.723,13.809a23.935,23.935,0,0,1-21.117-16.495c-1.074-3.427-2.5-4.47-6.08-4.45-29.807.16-59.615.122-89.423.046-3.234-.009-5.172.246-6.341,4.177-3.121,10.5-12.519,16.844-23.372,16.772A23.742,23.742,0,0,1,23.85,130.287c-1.044-3.363-2.444-4.417-5.816-4.163-4.14.312-8.327-.072-12.482.115-4.176.188-5.589-1.76-5.551-5.711C.11,109.042.038,97.554.038,86.066q0-39.459,0-78.918C.043.38.41.007,7.072,0Q43.543-.007,80.013,0m.348,7.249q-34.2,0-68.407-.02c-2.466,0-4.435-.212-4.421,3.434q.181,45.677.021,91.355c-.007,2.723,1.035,3.408,3.526,3.32,4.155-.148,8.326-.18,12.479.005a14.049,14.049,0,0,0,9.639-2.9c8.47-6.27,19.684-5.961,28.368.457a11.355,11.355,0,0,0,7.256,2.454c26.464-.092,52.929-.133,79.392.034,3.715.023,4.711-.893,4.69-4.66q-.249-44.429-.005-88.858c.019-3.674-.817-4.751-4.632-4.718-22.634.194-45.27.1-67.906.1M203.307,41.088c-1.7-7.616-5.949-9.724-12.866-9.191a226.788,226.788,0,0,1-25.468.063c-3.978-.142-5.011,1.079-4.985,5,.173,25.643.058,51.287.159,76.93.007,1.778-1.464,5.153,2.157,4.9,3.222-.227,7.713,2.709,9.364-3.27,2.294-8.311,8.009-13.734,16.134-16.344,13.049-4.192,26.4,2.82,30.694,16.534,1.545,4.933,4.838,2.94,7.559,3.17,3.737.314,2.5-2.782,2.524-4.626.117-7.825-.14-15.659.131-23.476.133-3.839-.871-5.163-4.941-5.1-15.82.236-31.645.035-47.468.135-4.4.027-6.381-1.69-6.321-6.217q.215-16.233.008-32.471c-.05-4.49,1.8-6.217,6.32-6.1,8.943.228,17.9.067,27,.067m22.433,37.1c-5.846-10.008-11.183-19.114-16.479-28.244-.8-1.374-1.971-1.559-3.371-1.555-8.472.024-16.945.061-25.417-.022-2.17-.021-2.9.8-2.877,2.911.075,7.972.114,15.946-.021,23.916-.042,2.466.869,3.05,3.17,3.036,14.612-.082,29.226-.042,45-.042M212.017,122.4a17.241,17.241,0,0,0-17.086-17.113c-9.115-.015-17.078,8.044-17.079,17.283,0,9.257,7.9,17.28,17.048,17.317,9.729.039,17.181-7.573,17.117-17.487m-148.031.357a17.3,17.3,0,0,0-16.85-17.468c-9.187-.184-17.184,7.78-17.227,17.158a17.373,17.373,0,0,0,16.929,17.439,17.241,17.241,0,0,0,17.148-17.129m47.869-9.873c-12.814,0-25.629.077-38.441-.058-3.028-.032-3.511.653-2.742,3.619.759,2.932,2.614,2.506,4.537,2.507q36.694.02,73.388,0c2.039,0,4.268.707,4.329-2.931.067-4.006-2.48-3.115-4.627-3.121-12.148-.033-24.3-.016-36.444-.015m-88.17,0c-4.4,0-8.833.071-13.263-.03-2.151-.05-2.856.807-2.872,2.9-.017,2.245.587,3.4,3.068,3.233a34.087,34.087,0,0,1,6.932.025c4.513.627,6.408-1.26,6.135-6.132" fill="#282625"/>
    <path id="Trazado_716647" data-name="Trazado 716647" d="M80.361,7.251c22.636,0,45.273.1,67.907-.1,3.814-.033,4.65,1.044,4.631,4.718q-.231,44.429.005,88.858c.021,3.766-.974,4.683-4.69,4.66-26.463-.167-52.928-.127-79.391-.034a11.359,11.359,0,0,1-7.256-2.454c-8.685-6.418-19.9-6.727-28.369-.457a14.045,14.045,0,0,1-9.638,2.9c-4.153-.185-8.324-.153-12.48-.005-2.491.088-3.533-.6-3.526-3.32q.117-45.678-.02-91.355c-.015-3.646,1.954-3.438,4.42-3.434q34.2.051,68.407.02" fill="#fed952"/>
    <path id="Trazado_716648" data-name="Trazado 716648" d="M203.307,41.088c-9.1,0-18.056.16-27-.067-4.517-.115-6.369,1.612-6.319,6.1q.182,16.233-.009,32.47c-.059,4.528,1.919,6.245,6.321,6.217,15.823-.1,31.649.1,47.468-.134,4.07-.061,5.074,1.264,4.941,5.1-.271,7.817-.014,15.651-.13,23.476-.028,1.844,1.213,4.94-2.525,4.625-2.721-.229-6.013,1.764-7.558-3.169C214.2,102,200.851,94.985,187.8,99.177c-8.124,2.61-13.84,8.033-16.134,16.344-1.65,5.979-6.142,3.043-9.364,3.27-3.621.255-2.15-3.12-2.157-4.9-.1-25.643.014-51.287-.158-76.93-.027-3.924,1.006-5.145,4.984-5a226.788,226.788,0,0,0,25.468-.063c6.917-.534,11.171,1.574,12.866,9.191" fill="#f95d51"/>
    <path id="Trazado_716649" data-name="Trazado 716649" d="M225.74,78.188c-15.769,0-30.382-.041-45,.042-2.3.013-3.212-.57-3.17-3.036.135-7.97.1-15.944.022-23.916-.02-2.115.706-2.932,2.877-2.911,8.471.083,16.944.046,25.417.022,1.4,0,2.573.181,3.37,1.555,5.3,9.129,10.633,18.236,16.479,28.244" fill="#e1e1f1"/>
    <path id="Trazado_716650" data-name="Trazado 716650" d="M212.018,122.4c.063,9.914-7.388,17.527-17.118,17.487-9.15-.036-17.049-8.06-17.048-17.316,0-9.239,7.965-17.3,17.079-17.284A17.242,17.242,0,0,1,212.018,122.4m-17.08,10.742a10.576,10.576,0,1,0,.018-21.145,10.143,10.143,0,0,0-10.368,10.351c-.1,6.343,4.145,10.772,10.35,10.794" fill="#60879f"/>
    <path id="Trazado_716651" data-name="Trazado 716651" d="M63.986,122.755a17.241,17.241,0,0,1-17.148,17.129,17.375,17.375,0,0,1-16.93-17.439c.043-9.378,8.04-17.342,17.228-17.158a17.3,17.3,0,0,1,16.85,17.468m-17.2,10.388a10.577,10.577,0,1,0-10.587-10.9,10.776,10.776,0,0,0,10.587,10.9" fill="#6088a0"/>
    <path id="Trazado_716652" data-name="Trazado 716652" d="M111.855,112.881c12.148,0,24.3-.018,36.444.016,2.148.006,4.694-.885,4.627,3.121-.061,3.638-2.289,2.929-4.329,2.931q-36.693.021-73.387,0c-1.923,0-3.778.426-4.538-2.507-.768-2.965-.286-3.65,2.742-3.618,12.813.135,25.627.057,38.441.057" fill="#efcc4e"/>
    <path id="Trazado_716653" data-name="Trazado 716653" d="M23.685,112.885c.273,4.872-1.622,6.759-6.135,6.132a34.087,34.087,0,0,0-6.932-.025c-2.481.167-3.085-.988-3.068-3.233.016-2.1.721-2.954,2.872-2.9,4.43.1,8.864.03,13.263.03" fill="#eecb4d"/>
    <path id="Trazado_716654" data-name="Trazado 716654" d="M194.938,133.139c-6.205-.022-10.451-4.451-10.35-10.794a10.143,10.143,0,0,1,10.368-10.351,10.576,10.576,0,1,1-.018,21.145m.238-13.933c-1.713.209-3.112,1.009-3.346,2.936a3.085,3.085,0,0,0,3.028,3.747c2.2.19,3.452-1.309,3.5-3.333.044-1.829-1.217-2.988-3.183-3.35" fill="#242525"/>
    <path id="Trazado_716655" data-name="Trazado 716655" d="M46.787,133.143a10.581,10.581,0,1,1,10.994-10.482,10.737,10.737,0,0,1-10.994,10.482m3.474-10.526c-.152-2.109-1.316-3.332-3.15-3.347a3.07,3.07,0,0,0-3.334,3.464,3,3,0,0,0,3.116,3.175c2.182.057,3.245-1.316,3.368-3.292" fill="#242526"/>
    <path id="Trazado_716656" data-name="Trazado 716656" d="M195.176,119.206c1.966.362,3.227,1.521,3.183,3.35-.049,2.024-1.3,3.523-3.5,3.333a3.085,3.085,0,0,1-3.028-3.747c.234-1.927,1.633-2.727,3.346-2.936" fill="#d5d5e4"/>
    <path id="Trazado_716657" data-name="Trazado 716657" d="M50.261,122.617c-.123,1.976-1.186,3.349-3.368,3.292a3,3,0,0,1-3.116-3.175,3.07,3.07,0,0,1,3.334-3.464c1.834.015,3,1.238,3.15,3.347" fill="#d2d2e1"/>
  </g>
</svg>
