<svg xmlns="http://www.w3.org/2000/svg" xmlns:xlink="http://www.w3.org/1999/xlink" width="129" height="129" viewBox="0 0 129 129">
  <defs>
    <clipPath id="clip-path">
      <rect id="Rectángulo_353290" data-name="Rectángulo 353290" width="103.906" height="120.809" fill="none"/>
    </clipPath>
  </defs>
  <g id="Grupo_1003270" data-name="Grupo 1003270" transform="translate(-11892 8465.121)">
    <circle id="Elipse_5717" data-name="Elipse 5717" cx="64.5" cy="64.5" r="64.5" transform="translate(11892 -8465.121)" fill="#b20d0d"/>
    <g id="Grupo_1003164" data-name="Grupo 1003164" transform="translate(11914.336 -8456.931)">
      <g id="Grupo_1003163" data-name="Grupo 1003163" clip-path="url(#clip-path)">
        <path id="Trazado_715681" data-name="Trazado 715681" d="M87.42,13.266c.916,1.511-.166,2.976-.141,4.488.141,8.637.073,17.277.076,25.916a92.723,92.723,0,0,1-12.183,4q-14.478-.037-28.956-.068a3.9,3.9,0,0,0-1.358.129,1.254,1.254,0,0,0-.614.79.666.666,0,0,0,.571.8,12.285,12.285,0,0,0,2.178.254q10.754-.041,21.507-.127c-.189.283-.313.7-.576.83C64.028,52.17,64.258,52.1,65.3,56.2c.856,3.362,2.345,5.095,5.958,4.177q.527,1.915,1.055,3.829c-8.564.025-17.128.038-25.691.092-.924.006-2.4-.362-2.367,1.1s1.521.984,2.428.987c8.748.024,17.5,0,26.245-.011a12,12,0,0,1,1.278,4c-9.1.007-18.209,0-27.313.039-1,0-2.651-.441-2.615,1.1.037,1.591,1.711.967,2.682.972,9.38.042,18.76.019,28.141.014q.582,1.422,1.163,2.845c.3,1.049.558,2.109.9,3.144q4.9,14.975,9.832,29.942c-1.636.5-3.107,1.3-4.972,1.292-20.3-.087-40.6-.051-60.9-.058-3.948,0-5.24-1.32-5.24-5.334q-.007-44.017,0-88.035c0-3.973,1.307-5.272,5.3-5.273,19.746-.007,39.493.033,59.239-.047,2.679-.011,5.089.223,6.993,2.3m-52.668,50.9.062-.007c.05-1.2-.694-1.65-1.723-1.663q-4.4-.057-8.806-.008a2.074,2.074,0,0,0-2.166,2.324c-.054,2.66-.038,5.321-.012,7.982a2.25,2.25,0,0,0,2.549,2.533c2.66-.022,5.321,0,7.981-.006,1.491,0,2.5-.54,2.445-2.232q0-4.195,0-8.389c.048-.279.045-.525-.335-.535m.343-13.809q-.012-4.187-.024-8.375c.254-2.056-1.011-2.563-2.685-2.58-2.49-.027-4.98.01-7.47-.012-1.969-.017-2.86.95-2.838,2.891.027,2.49.014,4.981,0,7.471-.007,1.8.839,2.766,2.672,2.771,2.674.007,5.349.033,8.023-.017,1.347-.025,2.309-.609,2.318-2.148M35.086,87.46c0-1.7-1.06-2.178-2.52-2.181-2.567-.006-5.135.025-7.7-.011-1.815-.026-2.753.805-2.763,2.622-.014,2.567-.009,5.135,0,7.7a2.438,2.438,0,0,0,2.708,2.74q3.85.033,7.7,0c1.318-.013,2.337-.478,2.524-1.972a54.206,54.206,0,0,0,.054-8.9m30.7-.041-2.274-3.26c-.435-.787-.824-1.6-1.312-2.356-1.9-2.925-3.053-2.947-4.933-.1-1.248,1.889-2.46,3.8-3.688,5.7-2.65-.009-5.3-.03-7.951-.019-.633,0-1.422.026-1.4.907.022.859.795.867,1.438.876,2.284.032,4.569.048,6.853.069l-2.031,4.346c-1.545-.031-3.089-.09-4.633-.08-.682,0-1.671-.152-1.608.928.059,1.016,1.024.82,1.714.841,1.272.04,2.545.033,3.818.045-.091.821-.221,1.639-.268,2.462A10.276,10.276,0,0,0,58.9,108.44a10.009,10.009,0,0,0,10.742-8.8c.773-1.452-.172-2.875-.07-4.315,2.674-.012,5.349,0,8.023-.052.758-.014,1.94.34,2.007-.831.073-1.267-1.143-.926-1.884-.93-2.95-.015-5.9.04-8.85.069q-1.023-2.17-2.046-4.338c3.655-.02,7.311-.023,10.965-.073.747-.01,1.888.273,1.813-.994-.06-1.006-1.075-.788-1.755-.789-4.021-.008-8.041.021-12.062.037M47.875,28.79c7.552,0,15.1.021,22.656-.028.873-.006,2.4.593,2.4-.941,0-1.267-1.422-.835-2.246-.836q-22.932-.042-45.865,0c-.817,0-2.2-.39-2.139.944.057,1.281,1.426.84,2.258.844,7.644.032,15.288.019,22.933.019M61.863,41.469c-5.155,0-10.311-.018-15.466.018-.821.006-2.143-.427-2.151.965-.009,1.309,1.277,1.08,2.135,1.081q15.6.034,31.209,0c.87,0,2.147.242,2.154-1.059.008-1.371-1.3-.99-2.138-.995-5.247-.031-10.5-.016-15.743-.016m-13.92-20.61c4.788,0,9.577.02,14.365-.017.932-.007,2.4.415,2.47-.992.079-1.546-1.43-1.062-2.327-1.065q-14.641-.048-29.282,0c-.831,0-2.183-.408-2.206.919-.027,1.5,1.42,1.13,2.34,1.138,4.88.041,9.76.019,14.641.021" transform="translate(-7.078 -4.888)" fill="#e4e4e4"/>
        <path id="Trazado_715682" data-name="Trazado 715682" d="M80.341,8.377c-1.9-2.077-4.315-2.311-6.993-2.3-19.746.079-39.493.04-59.238.047-4,0-5.3,1.3-5.306,5.274Q8.8,55.415,8.8,99.432c0,4.014,1.292,5.333,5.241,5.334,20.3.007,40.6-.029,60.9.058,1.865.008,3.336-.793,4.972-1.29a3.814,3.814,0,0,1,.856,2.3c-1.689,4.292-2.772,5-7.651,5q-33.064,0-66.129,0c-5.315,0-6.988-1.634-6.989-6.861Q0,55.416,0,6.853C0,1.822,1.785.056,6.817.056,28.491.054,50.166.14,71.839,0c6.073-.039,9.034.725,8.5,8.376" transform="translate(0 0)" fill="#b9b9b9"/>
        <path id="Trazado_715683" data-name="Trazado 715683" d="M151.451,126.944c3.725,10.275,7.225,20.626,10.409,31.082a7.618,7.618,0,0,1-4.024,8.337c-4.035,2.3-9.283,0-10.973-5.272-3-9.359-6.216-18.647-9.3-27.979-.657-1.987-1.891-3.814-1.765-6.032l15.653-.136" transform="translate(-60.532 -56.589)" fill="#fd013b"/>
        <path id="Trazado_715684" data-name="Trazado 715684" d="M130.916,127.036c-.125,2.218,1.108,4.045,1.766,6.032,3.084,9.331,6.3,18.62,9.3,27.979,1.69,5.277,6.938,7.573,10.974,5.272a7.617,7.617,0,0,0,4.024-8.337c1.327,3.49,3.2,6.862,2.378,10.82a10.446,10.446,0,0,1-20.011,1.9c-1.079-2.73-1.955-5.541-2.923-8.316a3.817,3.817,0,0,0-.857-2.3q-4.919-14.971-9.832-29.942c-.339-1.035-.6-2.1-.9-3.145l5.554-.146.525.189" transform="translate(-55.65 -56.546)" fill="#cc0331"/>
        <path id="Trazado_715685" data-name="Trazado 715685" d="M126.364,109.073l-5.554.145-1.163-2.845a3.358,3.358,0,0,0-.895-2.125,12.015,12.015,0,0,0-1.278-4,3.423,3.423,0,0,0-.616-2.165L115.8,94.257c.079-.461.191-.893.7-1.082a162.613,162.613,0,0,1,18.992-6.2q1.4,4.714,2.794,9.428c-9.908,2.249-12.043,4.517-11.926,12.672" transform="translate(-51.623 -38.771)" fill="#4b9ab8"/>
        <path id="Trazado_715686" data-name="Trazado 715686" d="M118.6,73.534a92.77,92.77,0,0,0,12.183-4c4.157-.992,4.158-.992,5.5,3.037.342,1.028.674,2.06,1.011,3.091q-9.722,3.385-19.441,6.776c-.876.306-2.123.875-2.512-.017-.972-2.222-2.815-4.335-1.675-7.082a19.809,19.809,0,0,0,4.935-1.8" transform="translate(-50.51 -30.752)" fill="#5dc0e4"/>
        <path id="Trazado_715687" data-name="Trazado 715687" d="M172.876,41.1a8.767,8.767,0,1,1-17.139-3.586c1.443-4.689,4.12-8.8,6.853-12.824.995-1.466,2.323-1.419,3.386-.008a29.281,29.281,0,0,1,1.8,3.059c-.528.115-1.3.047-1.545.373-2.293,3.1-4.714,6.192-5.046,10.214-.314,3.794,1.948,5.89,5.761,6.107,2.83.161,4.334-1.556,5.931-3.334" transform="translate(-69.267 -10.522)" fill="#cd0533"/>
        <path id="Trazado_715688" data-name="Trazado 715688" d="M134.854,116.656c-.117-8.155,2.017-10.423,11.926-12.672a130.4,130.4,0,0,1,4.251,12.725l-15.652.136-.525-.189" transform="translate(-60.113 -46.354)" fill="#5dc0e4"/>
        <path id="Trazado_715689" data-name="Trazado 715689" d="M177.52,44.423c-1.6,1.778-3.1,3.5-5.931,3.334-3.813-.217-6.074-2.313-5.761-6.107.332-4.022,2.753-7.118,5.046-10.214.242-.326,1.017-.258,1.545-.373,2.439,3.8,5.028,7.532,5.324,12.262l-.252,1.124Z" transform="translate(-73.91 -13.848)" fill="#fd023c"/>
        <path id="Trazado_715690" data-name="Trazado 715690" d="M109.461,80.429c-1.14,2.747.7,4.86,1.675,7.083.39.891,1.637.323,2.513.016q9.715-3.4,19.441-6.776c.815,2.677-1.418,2.658-2.913,3.293a162.587,162.587,0,0,0-18.993,6.2c-.508.188-.621.621-.7,1.082-3.613.918-5.1-.815-5.958-4.177-1.042-4.1-1.272-4.027,2.621-5.917.264-.129.387-.546.575-.83l1.74.024" transform="translate(-46.303 -35.843)" fill="#5495ac"/>
        <path id="Trazado_715691" data-name="Trazado 715691" d="M186.894,54.313l.252-1.125a.976.976,0,0,1-.252,1.125" transform="translate(-83.314 -23.71)" fill="#cd0533"/>
        <path id="Trazado_715692" data-name="Trazado 715692" d="M80.613,142.6c1.228-1.9,2.44-3.815,3.688-5.7,1.88-2.847,3.032-2.825,4.933.1.489.752.878,1.569,1.312,2.356a2.07,2.07,0,0,0-2.246,1.2c-1.5,2.931-3.258,5.716-4.769,8.655-2.012,3.917.96,8.341,4.372,9.491,3.259,1.1,5.563.12,8.775-3.874a10.008,10.008,0,0,1-10.742,8.8,10.276,10.276,0,0,1-9.391-10.658c.048-.824.176-1.642.267-2.464q.354-.867.709-1.734,1.016-2.172,2.031-4.346l1.059-1.832" transform="translate(-34.116 -60.084)" fill="#cc0432"/>
        <path id="Trazado_715693" data-name="Trazado 715693" d="M101.786,158.5c-3.212,3.994-5.516,4.972-8.774,3.874-3.412-1.15-6.385-5.574-4.372-9.491,1.51-2.94,3.267-5.724,4.769-8.655a2.07,2.07,0,0,1,2.246-1.2l2.273,3.26a3.376,3.376,0,0,0,1.04,1.82q1.023,2.169,2.047,4.338.352.873.7,1.744c-.1,1.44.842,2.864.07,4.315" transform="translate(-39.223 -63.75)" fill="#fd023c"/>
        <path id="Trazado_715694" data-name="Trazado 715694" d="M42.956,148.541a54.143,54.143,0,0,1-.054,8.9c-2.383-.009-4.766-.038-7.148-.022-1.808.012-2.3-1.177-1.97-2.554.536-2.269-1.685-5.186,1.554-6.816a.59.59,0,0,1,.272-.017c2.454.1,4.949-.388,7.347.512" transform="translate(-14.948 -65.969)" fill="#776af1"/>
        <path id="Trazado_715695" data-name="Trazado 715695" d="M43.051,107.482q0,4.194,0,8.389c-7.585,2.145-9.7.6-9.244-6.621.1-1.65.756-2.3,2.364-2.266,2.2.041,4.408-.024,6.612-.043l-.062.007.335.535" transform="translate(-15.043 -47.672)" fill="#776af1"/>
        <path id="Trazado_715696" data-name="Trazado 715696" d="M43.007,66.485q.012,4.187.024,8.376c-2.011.129-3.969.779-6.022.55-1.265-.141-2.984.116-3.081-1.563-.146-2.516-.636-5.116.4-7.584.066-.157.5-.239.758-.224,2.641.159,5.334-.558,7.926.446" transform="translate(-15.015 -29.394)" fill="#776af1"/>
        <path id="Trazado_715697" data-name="Trazado 715697" d="M40.055,64.839c-2.593-1-5.285-.287-7.926-.446-.256-.015-.692.067-.758.224-1.031,2.468-.541,5.068-.4,7.584.1,1.68,1.817,1.423,3.081,1.563,2.053.229,4.011-.422,6.022-.55-.009,1.539-.971,2.122-2.318,2.148-2.674.05-5.349.024-8.023.017-1.833,0-2.679-.972-2.672-2.771.009-2.49.022-4.981,0-7.471-.022-1.942.87-2.909,2.838-2.891,2.49.022,4.981-.015,7.47.012,1.674.018,2.94.525,2.685,2.581" transform="translate(-12.063 -27.748)" fill="#685ec7"/>
        <path id="Trazado_715698" data-name="Trazado 715698" d="M40.084,147.224c-2.4-.9-4.893-.412-7.347-.512a.59.59,0,0,0-.272.017c-3.239,1.63-1.018,4.547-1.554,6.816-.325,1.377.162,2.565,1.97,2.554,2.383-.016,4.765.013,7.148.022-.187,1.494-1.207,1.959-2.524,1.972q-3.85.037-7.7,0a2.438,2.438,0,0,1-2.707-2.74c-.007-2.567-.013-5.135,0-7.7.01-1.817.948-2.648,2.763-2.622,2.567.037,5.134.006,7.7.011,1.461,0,2.521.483,2.521,2.181" transform="translate(-12.076 -64.652)" fill="#6459c5"/>
        <path id="Trazado_715699" data-name="Trazado 715699" d="M53.347,41.618c-7.644,0-15.288.013-22.933-.019-.831,0-2.2.437-2.258-.844-.059-1.335,1.321-.943,2.139-.944q22.932-.037,45.864,0c.824,0,2.246-.431,2.246.836,0,1.534-1.53.936-2.4.941-7.552.049-15.1.028-22.656.028" transform="translate(-12.551 -17.716)" fill="#606060"/>
        <path id="Trazado_715700" data-name="Trazado 715700" d="M84.68,65.97c5.247,0,10.5-.015,15.743.016.835,0,2.146-.376,2.138.995-.007,1.3-1.285,1.057-2.154,1.059q-15.6.025-31.209,0c-.858,0-2.144.228-2.135-1.081.009-1.391,1.331-.959,2.151-.964,5.155-.037,10.311-.019,15.466-.019" transform="translate(-29.895 -29.39)" fill="#717171"/>
        <path id="Trazado_715701" data-name="Trazado 715701" d="M39.8,105.58c-2.2.019-4.409.084-6.612.043-1.608-.03-2.26.616-2.364,2.266-.452,7.223,1.659,8.766,9.244,6.621.05,1.691-.954,2.231-2.445,2.232-2.66,0-5.321-.016-7.981.006a2.25,2.25,0,0,1-2.549-2.533c-.025-2.66-.042-5.322.012-7.981a2.074,2.074,0,0,1,2.166-2.324q4.4-.047,8.806.008c1.028.013,1.773.462,1.723,1.663" transform="translate(-12.068 -46.311)" fill="#6459c5"/>
        <path id="Trazado_715702" data-name="Trazado 715702" d="M60.074,27.091c-4.88,0-9.761.021-14.641-.02-.921-.008-2.367.365-2.34-1.138.023-1.327,1.376-.917,2.206-.919q14.641-.041,29.282,0c.9,0,2.406-.481,2.327,1.065-.072,1.407-1.537.985-2.47.992-4.788.037-9.576.017-14.365.017" transform="translate(-19.21 -11.121)" fill="#717171"/>
        <path id="Trazado_715703" data-name="Trazado 715703" d="M97.051,118.129a3.352,3.352,0,0,1,.895,2.125c-9.381,0-18.761.028-28.141-.014-.97,0-2.645.619-2.682-.972-.035-1.541,1.616-1.1,2.615-1.1,9.1-.039,18.209-.032,27.313-.039" transform="translate(-29.922 -52.651)" fill="#717171"/>
        <path id="Trazado_715704" data-name="Trazado 715704" d="M95.138,107.024a3.426,3.426,0,0,1,.616,2.166c-8.748.01-17.5.034-26.246.01-.907,0-2.393.486-2.428-.987s1.443-1.092,2.367-1.1c8.563-.054,17.127-.067,25.691-.092" transform="translate(-29.903 -47.709)" fill="#717171"/>
        <path id="Trazado_715705" data-name="Trazado 715705" d="M93.034,78.941l-1.74-.024q-10.751.07-21.505.127a12.278,12.278,0,0,1-2.178-.254.665.665,0,0,1-.571-.8,1.254,1.254,0,0,1,.614-.79,3.9,3.9,0,0,1,1.359-.129q14.478.027,28.956.068a19.767,19.767,0,0,1-4.935,1.8" transform="translate(-29.876 -34.355)" fill="#606060"/>
        <path id="Trazado_715706" data-name="Trazado 715706" d="M106.964,150.689a3.376,3.376,0,0,1-1.04-1.82c4.021-.016,8.042-.044,12.063-.037.68,0,1.7-.217,1.755.789.075,1.267-1.065.984-1.812.995-3.655.049-7.31.053-10.965.072" transform="translate(-47.219 -66.338)" fill="#606060"/>
        <path id="Trazado_715707" data-name="Trazado 715707" d="M112.2,161.681l-.7-1.744c2.949-.029,5.9-.084,8.849-.069.741,0,1.957-.338,1.884.929-.068,1.172-1.25.817-2.008.831-2.674.052-5.349.04-8.023.052" transform="translate(-49.701 -71.249)" fill="#606060"/>
        <path id="Trazado_715708" data-name="Trazado 715708" d="M76.376,148.873l-1.059,1.832c-2.284-.021-4.568-.036-6.852-.068-.643-.009-1.416-.017-1.438-.876-.023-.882.765-.905,1.4-.908,2.65-.011,5.3.01,7.951.019" transform="translate(-29.879 -66.355)" fill="#606060"/>
        <path id="Trazado_715709" data-name="Trazado 715709" d="M73.3,159.971q-.355.866-.709,1.734c-1.272-.012-2.546,0-3.817-.044-.69-.022-1.655.175-1.714-.841-.062-1.079.926-.923,1.609-.928,1.544-.011,3.088.049,4.632.08" transform="translate(-29.892 -71.274)" fill="#606060"/>
        <path id="Trazado_715710" data-name="Trazado 715710" d="M50.268,107.488l-.335-.535c.38.01.383.256.335.535" transform="translate(-22.259 -47.678)" fill="#6459c5"/>
      </g>
    </g>
  </g>
</svg>
