<svg xmlns="http://www.w3.org/2000/svg" xmlns:xlink="http://www.w3.org/1999/xlink" width="129" height="129" viewBox="0 0 129 129">
  <defs>
    <clipPath id="clip-path">
      <rect id="Rectángulo_353286" data-name="Rectángulo 353286" width="106.427" height="109.104" fill="none"/>
    </clipPath>
  </defs>
  <g id="Grupo_1003269" data-name="Grupo 1003269" transform="translate(-1090 -3252.879)">
    <circle id="Elipse_5716" data-name="Elipse 5716" cx="64.5" cy="64.5" r="64.5" transform="translate(1090 3252.879)" fill="#ffc403"/>
    <g id="Grupo_1003159" data-name="Grupo 1003159" transform="translate(1112.572 3262.826)">
      <g id="Grupo_1003158" data-name="Grupo 1003158" clip-path="url(#clip-path)">
        <path id="Trazado_715662" data-name="Trazado 715662" d="M44.268,0c2.513,1.053,4.773,2.4,5.74,5.158.378,1.077,1.245.726,1.954.728,7.171.019,14.359.314,21.51-.064,9.168-.485,12.109,4.536,11.754,11.665-.341,6.856-.073,13.742-.073,21.049,2.306-2.039,4.331-3.849,6.377-5.636,3.573-3.121,7.061-2.93,10.228.553.908,1,1.8,2.012,2.681,3.03,2.81,3.237,2.654,6.882-.546,9.767q-8.621,7.771-17.353,15.418a3.623,3.623,0,0,0-1.421,3.051c.06,11.572.04,23.146.032,34.719,0,6.184-3.447,9.661-9.577,9.662q-33.016.009-66.032,0c-6.012,0-9.517-3.5-9.526-9.512C0,88.795.024,78,0,67.211c0-1.623.212-3,2.128-3.364,1.989.232,2.2,1.6,2.193,3.241q-.04,16.084-.011,32.168c0,4.064,1.483,5.562,5.492,5.563q32.808.005,65.616,0c3.916,0,5.439-1.506,5.442-5.394q.013-15.338-.012-30.677c0-.507.289-1.118-.374-1.632a37.8,37.8,0,0,1-3.032,2.634A4.8,4.8,0,0,0,75.4,74.274c.131,6.317.067,12.639.041,18.959-.015,3.821-2.083,5.911-5.949,5.916q-27.055.036-54.112,0c-3.981,0-6.064-2.106-6.065-6.037q-.015-35.364,0-70.727c0-3.852,2.037-5.921,5.884-5.986,2.769-.046,5.539-.01,8.308-.01,4.619,0,4.559,0,4.534-4.584-.007-1.347-.424-1.662-1.7-1.647-5.4.064-10.794.025-16.191.028-4.536,0-5.845,1.3-5.846,5.817q0,15.978.014,31.955c0,1.643-.215,3.005-2.194,3.248C.51,50.885,0,49.809,0,48.269c.019-11.2-.035-22.4.032-33.594.031-5.2,3.682-8.738,8.911-8.765q12.013-.063,24.026.008c1.153.006,1.9-.139,2.4-1.4C36.337,2.061,38.548.925,40.859,0ZM69.815,64.374c.807,1.406.432,2.509-.754,3.54-2.728,2.371-5.379,4.831-8.112,7.2-.8.691-.909,1.12-.175,1.995.808.963,1.28.661,2.014.005Q78.651,62.951,94.542,48.824c.651-.58,1.535-.977.487-2.134-.981-1.082-1.493-.5-2.212.144-3.272,2.933-6.58,5.827-9.832,8.782-1.237,1.124-2.423,1.375-3.745.223-.792-1.462-.221-2.5.93-3.505,3.314-2.886,6.562-5.847,9.862-8.748.75-.659,1.325-1.086.32-2.128-.857-.888-1.3-.653-2.045.01Q72.365,55.7,56.384,69.893c-.694.617-1.145,1-.276,1.963.923,1.021,1.427.635,2.194-.067,2.561-2.346,5.2-4.61,7.741-6.973,1.2-1.117,2.378-1.456,3.772-.443M71.161,75.4c-2.692,2.388-5,4.443-7.32,6.49a5.244,5.244,0,0,1-2.119,1.356C53.869,85.317,46.173,88,37.791,87.35c-5.223-.406-10.5-.07-15.756-.081-1.45,0-2.564-.542-2.568-2.175,0-1.658,1.123-2.135,2.58-2.118.5.006.994,0,1.491,0,6.461,0,12.924-.083,19.382.055a2.644,2.644,0,0,0,3.021-2.113c1.08-3.068,2.4-6.053,3.532-9.1a9.876,9.876,0,0,1,2.871-4.1C58.22,62.574,64.01,57.335,69.88,52.186a3.412,3.412,0,0,0,1.311-2.9c-.07-5.253-.105-10.509.014-15.76.039-1.689-.432-2.178-2.088-2.051-6.595.506-9.273-1.23-8.673-8.684.134-1.659-.37-2.124-2.067-2.115q-21.086.108-42.174,0c-2.025-.011-2.663.536-2.657,2.626q.108,34.4,0,68.8c-.006,2.134.557,2.8,2.737,2.788,15.975-.084,31.95-.045,47.925-.045,1.7,0,3.409-.042,5.112.012,1.352.043,1.879-.474,1.865-1.875-.058-5.674-.024-11.348-.024-17.588m4.29-28.255c1.644-1.439,2.918-2.618,4.263-3.707a2.912,2.912,0,0,0,1.176-2.528c-.051-8.579-.013-17.157-.036-25.736-.009-3.353-1.626-4.963-4.951-4.977-4.963-.022-9.926-.006-14.889-.006-3.956,0-3.819.006-4,3.981-.093,2.018.656,2.5,2.394,2.221,2.85-.454,4.966.6,6.871,2.77,2.378,2.714,5.033,5.191,7.651,7.684a4.633,4.633,0,0,1,1.555,3.732c-.082,5.358-.032,10.717-.032,16.567M42.579,16.391H48.11c4.983,0,4.94,0,4.71-4.959-.05-1.08-.419-1.344-1.378-1.255-.633.059-1.278-.024-1.913.017-1.892.123-3.07-.446-3.349-2.593A3.608,3.608,0,0,0,42.408,4.29a3.712,3.712,0,0,0-3.59,3.54A2.43,2.43,0,0,1,36.142,10.2c-3.859.162-3.858.184-3.844,4.062a6.283,6.283,0,0,1-.005.85c-.144,1.066.375,1.311,1.351,1.3,2.978-.048,5.957-.017,8.936-.016M96.348,35.008a5.269,5.269,0,0,0-3.274,2.427c-.56.779.661,1.373,1.157,1.971,1.267,1.525,2.613,2.986,3.948,4.453.269.3.791.789.921.714a7.662,7.662,0,0,0,2.665-2.375,2.013,2.013,0,0,0-.274-2.552c-1.1-1.294-2.25-2.55-3.388-3.814a2.565,2.565,0,0,0-1.756-.824M50.125,81.921l7.458-2.02-4.606-5.18-2.851,7.2M64.777,24.237c-.206,3.071.116,3.376,2.966,2.672l-2.966-2.672" transform="translate(0 0.001)" fill="#040505"/>
        <path id="Trazado_715663" data-name="Trazado 715663" d="M4.985,64.871c1.978-.242,2.2-1.6,2.194-3.248q-.042-15.978-.013-31.955c0-4.515,1.311-5.815,5.846-5.818,5.4,0,10.794.036,16.191-.027,1.275-.015,1.692.3,1.7,1.647.024,4.585.084,4.584-4.534,4.584-2.77,0-5.54-.037-8.309.01-3.846.065-5.882,2.134-5.884,5.986q-.015,35.364,0,70.727c0,3.93,2.084,6.032,6.065,6.037q27.056.033,54.112,0c3.865-.006,5.933-2.1,5.948-5.917.026-6.32.09-12.642-.041-18.959A4.8,4.8,0,0,1,80.3,83.413a37.729,37.729,0,0,0,3.032-2.634c.663.514.373,1.125.374,1.633q.031,15.338.013,30.676c0,3.888-1.526,5.393-5.442,5.394q-32.808.005-65.616,0c-4.009,0-5.49-1.5-5.493-5.562q-.01-16.084.012-32.168c0-1.639-.2-3.01-2.193-3.241q0-2.059,0-4.118c1.327-.21,2.2-.86,2.154-2.325-.046-1.368-.925-1.926-2.157-2.1q0-2.048,0-4.1" transform="translate(-2.857 -13.663)" fill="#50c7eb"/>
        <path id="Trazado_715664" data-name="Trazado 715664" d="M2.205,129.677c1.232.173,2.111.732,2.158,2.1.049,1.465-.827,2.114-2.155,2.325a2.225,2.225,0,0,1-2.067-2.218,2.177,2.177,0,0,1,2.064-2.206" transform="translate(-0.081 -74.373)" fill="#090b0c"/>
        <path id="Trazado_715665" data-name="Trazado 715665" d="M89.379,103.209c0,6.239-.034,11.914.024,17.587.015,1.4-.512,1.918-1.864,1.875-1.7-.054-3.408-.012-5.112-.012-15.975,0-31.951-.039-47.925.045-2.18.012-2.744-.654-2.737-2.788q.109-34.4,0-68.8c-.006-2.09.632-2.637,2.656-2.626q21.087.115,42.174,0c1.7-.009,2.2.455,2.067,2.115-.6,7.454,2.078,9.19,8.672,8.684,1.657-.128,2.127.362,2.088,2.05-.119,5.251-.084,10.508-.014,15.76A3.412,3.412,0,0,1,88.1,80c-5.87,5.148-11.66,10.389-17.537,15.53a9.872,9.872,0,0,0-2.871,4.1c-1.136,3.05-2.451,6.034-3.532,9.1a2.644,2.644,0,0,1-3.021,2.113c-6.458-.139-12.921-.055-19.382-.055-.5,0-.994.006-1.491,0-1.457-.016-2.584.46-2.58,2.118,0,1.633,1.117,2.172,2.567,2.175,5.254.01,10.534-.326,15.757.081,8.382.653,16.079-2.033,23.932-4.108A5.244,5.244,0,0,0,82.06,109.7c2.317-2.047,4.628-4.1,7.32-6.49M59.292,69.02c-6.32,0-12.639-.017-18.959.011-1.946.009-2.912.945-2.636,2.46.3,1.627,1.532,1.839,2.9,1.838q18.32-.008,36.639,0c1.553,0,3.025-.258,3.082-2.114.063-2.065-1.529-2.213-3.136-2.208-5.965.018-11.929.007-17.894.008m-.433,14.673c6.177,0,12.354-.018,18.53.012,1.6.008,2.984-.315,2.931-2.2-.048-1.7-1.348-2.1-2.869-2.1q-18.424.025-36.848,0c-1.585,0-2.946.335-2.911,2.247.033,1.8,1.351,2.059,2.849,2.053,6.106-.026,12.212-.011,18.318-.01M52.3,89.9c-3.826,0-7.651.009-11.476,0-1.583-.006-3.174.078-3.128,2.193.042,1.914,1.5,2.124,3.035,2.123q11.583-.014,23.165,0c1.572,0,2.942-.339,2.924-2.241-.017-1.8-1.351-2.08-2.831-2.074-3.9.016-7.793.006-11.689.005m-4.089,14.686c2.557,0,5.114-.021,7.67.008,1.5.017,2.8-.287,2.81-2.1.012-1.765-1.215-2.206-2.743-2.2q-7.776.015-15.554,0c-1.542,0-2.738.478-2.705,2.24.03,1.652,1.181,2.072,2.639,2.058,2.628-.026,5.255-.007,7.883-.007M42.918,62.8c1.2,0,2.4.044,3.6-.012a2.106,2.106,0,0,0,.117-4.195,69.7,69.7,0,0,0-6.982-.015,1.947,1.947,0,0,0-1.975,2.268A1.921,1.921,0,0,0,39.743,62.8c1.058.03,2.117.006,3.175,0" transform="translate(-18.218 -27.811)" fill="#f5f5f5"/>
        <path id="Trazado_715666" data-name="Trazado 715666" d="M152.112,60.835c0-5.849-.05-11.209.032-16.567a4.634,4.634,0,0,0-1.555-3.732c-2.617-2.493-5.273-4.97-7.65-7.684-1.9-2.174-4.021-3.224-6.871-2.77-1.738.277-2.488-.2-2.394-2.221.184-3.975.046-3.981,4-3.981,4.963,0,9.926-.015,14.889.006,3.325.014,4.942,1.624,4.951,4.977.023,8.579-.014,17.158.036,25.736a2.91,2.91,0,0,1-1.176,2.528c-1.345,1.09-2.619,2.268-4.263,3.708" transform="translate(-76.66 -13.693)" fill="#50c7eb"/>
        <path id="Trazado_715667" data-name="Trazado 715667" d="M85.974,22.158c-2.979,0-5.958-.032-8.936.017-.975.016-1.494-.23-1.35-1.3a6.284,6.284,0,0,0,0-.85c-.013-3.878-.015-3.9,3.844-4.062A2.43,2.43,0,0,0,82.214,13.6a3.711,3.711,0,0,1,3.59-3.54,3.608,3.608,0,0,1,3.773,3.312c.279,2.147,1.457,2.716,3.349,2.593.635-.041,1.281.042,1.913-.017.959-.089,1.328.175,1.378,1.255.23,4.96.273,4.959-4.71,4.959H85.974" transform="translate(-43.395 -5.767)" fill="#fcc97b"/>
        <path id="Trazado_715668" data-name="Trazado 715668" d="M144.626,119.349c-1.395-1.014-2.569-.675-3.772.443-2.544,2.363-5.18,4.627-7.741,6.972-.767.7-1.271,1.087-2.194.067-.869-.96-.418-1.346.276-1.964q15.978-14.193,31.923-28.425c.742-.663,1.188-.9,2.045-.01,1.005,1.042.43,1.469-.319,2.128-3.3,2.9-6.549,5.862-9.863,8.748-1.151,1-1.721,2.044-.93,3.505a13.769,13.769,0,0,1-2.989,2.954c-.971-.694-1.981-1.109-3.044-.22-1.124.94-.967,2.053-.339,3.2l-3.052,2.6" transform="translate(-74.811 -54.974)" fill="#f6deb9"/>
        <path id="Trazado_715669" data-name="Trazado 715669" d="M157.318,120.774a13.769,13.769,0,0,0,2.989-2.954c1.323,1.151,2.508.9,3.745-.223,3.252-2.955,6.56-5.849,9.832-8.782.719-.645,1.231-1.227,2.212-.145,1.048,1.156.164,1.555-.487,2.134q-15.878,14.142-31.754,28.286c-.734.655-1.206.958-2.014-.006-.734-.875-.624-1.3.175-1.994,2.733-2.364,5.384-4.824,8.112-7.2,1.186-1.031,1.56-2.134.754-3.54l3.052-2.6c1.013.6,2.054.906,3.057.035s.856-1.94.327-3.014" transform="translate(-81.067 -61.98)" fill="#f6c478"/>
        <path id="Trazado_715670" data-name="Trazado 715670" d="M221.318,82.09a2.564,2.564,0,0,1,1.756.824c1.138,1.264,2.285,2.52,3.388,3.814a2.013,2.013,0,0,1,.274,2.552,7.658,7.658,0,0,1-2.665,2.375c-.13.075-.652-.419-.921-.714-1.335-1.468-2.681-2.929-3.948-4.453-.5-.6-1.717-1.192-1.157-1.971a5.268,5.268,0,0,1,3.274-2.427" transform="translate(-124.97 -47.08)" fill="#eb5f6c"/>
        <path id="Trazado_715671" data-name="Trazado 715671" d="M117.533,182.407l2.851-7.2,4.606,5.18-7.458,2.02" transform="translate(-67.408 -100.485)" fill="#f4c276"/>
        <path id="Trazado_715672" data-name="Trazado 715672" d="M151.821,56.833l2.966,2.672c-2.85.7-3.172.4-2.966-2.672" transform="translate(-87.044 -32.595)" fill="#aeacb0"/>
        <path id="Trazado_715673" data-name="Trazado 715673" d="M67.207,96.614c5.965,0,11.929.011,17.894-.008,1.607,0,3.2.143,3.136,2.209-.056,1.855-1.528,2.115-3.081,2.114q-18.32-.02-36.64-.005c-1.371,0-2.607-.211-2.9-1.838-.276-1.515.69-2.452,2.636-2.46,6.32-.028,12.639-.011,18.959-.011" transform="translate(-26.133 -55.406)" fill="#080808"/>
        <path id="Trazado_715674" data-name="Trazado 715674" d="M66.829,125.258c-6.106,0-12.212-.015-18.318.01-1.5.006-2.815-.249-2.848-2.053-.035-1.912,1.325-2.248,2.91-2.247q18.424.017,36.848,0c1.521,0,2.821.4,2.869,2.1.053,1.888-1.335,2.21-2.931,2.2-6.177-.03-12.354-.012-18.53-.012" transform="translate(-26.188 -69.377)" fill="#040404"/>
        <path id="Trazado_715675" data-name="Trazado 715675" d="M60.271,145.582c3.9,0,7.793.011,11.689-.005,1.48-.006,2.814.27,2.831,2.074.018,1.9-1.352,2.243-2.923,2.241q-11.583-.013-23.166,0c-1.531,0-2.993-.209-3.035-2.123-.046-2.114,1.546-2.2,3.128-2.193,3.826.014,7.651,0,11.476,0" transform="translate(-26.19 -83.492)" fill="#080808"/>
        <path id="Trazado_715676" data-name="Trazado 715676" d="M56.172,174.254c-2.628,0-5.256-.019-7.883.008-1.457.014-2.608-.406-2.639-2.058-.032-1.762,1.164-2.242,2.705-2.239q7.777.013,15.554,0c1.528,0,2.755.438,2.743,2.2-.013,1.809-1.306,2.113-2.81,2.1-2.556-.029-5.113-.009-7.67-.009" transform="translate(-26.181 -97.478)" fill="#050505"/>
        <path id="Trazado_715677" data-name="Trazado 715677" d="M50.859,76.25c-1.059,0-2.117.026-3.175,0a1.921,1.921,0,0,1-2.067-1.953,1.947,1.947,0,0,1,1.975-2.268c2.323-.1,4.66-.113,6.982.015a2.106,2.106,0,0,1-.117,4.194c-1.2.055-2.4.012-3.6.015" transform="translate(-26.159 -41.262)" fill="#060606"/>
        <path id="Trazado_715678" data-name="Trazado 715678" d="M173.585,136.883c.53,1.075.688,2.134-.327,3.014s-2.044.569-3.057-.035c-.628-1.146-.785-2.26.339-3.2,1.064-.889,2.074-.474,3.044.22" transform="translate(-97.334 -78.089)" fill="#080808"/>
      </g>
    </g>
  </g>
</svg>
