<svg xmlns="http://www.w3.org/2000/svg" xmlns:xlink="http://www.w3.org/1999/xlink" width="246" height="238" viewBox="0 0 246 238">
  <defs>
    <clipPath id="clip-path">
      <rect id="Rectángulo_353315" data-name="Rectángulo 353315" width="246" height="238" transform="translate(0 0)" fill="none"/>
    </clipPath>
  </defs>
  <g id="Grupo_1003183" data-name="Grupo 1003183" transform="translate(0 0.001)">
    <g id="Grupo_1003182" data-name="Grupo 1003182" transform="translate(0 -0.001)" clip-path="url(#clip-path)">
      <path id="Trazado_715825" data-name="Trazado 715825" d="M55.64,381.011c-6.146-30.9-4.667-47.353-4.242-53.75a12.49,12.49,0,0,1,2.155-6.227c2.765-4.039,4.555-5.178,4.555-5.178,2.109-6.327,4.921-6.327,4.921-6.327.234-5.624,3.984-3.749,3.984-3.749l1.875,1.641c4.686-5.39,7.733-6.561,7.733-6.561,5.624-1.171,3.046,3.281,3.046,3.281l-6.444,8.084c.937,5.858.351,7.147.351,7.147-.7,2.109-2.109,1.64-2.109,1.64a10.618,10.618,0,0,0,1.6,4.666,2.361,2.361,0,0,0,3.932,0c.416-.627.914-1.271.914-1.271,2.343-3.749,5.529-4.723,8.154-5.823A2.815,2.815,0,0,1,89.55,319.7a1.482,1.482,0,0,1-.3,1.9,58.8,58.8,0,0,1-4.9,3.857,20.228,20.228,0,0,0-5.624,8.436c-4.686,8.2-10.545,10.076-10.545,10.076a117.786,117.786,0,0,0,9.328,28.864Z" transform="translate(-37.251 -219.898)" fill="#fcaa97"/>
      <path id="Trazado_715826" data-name="Trazado 715826" d="M151.463,315.643c1.8,4.9.541,9.874-2.81,11.1s-7.526-1.748-9.325-6.651-.541-9.874,2.81-11.1,7.525,1.748,9.325,6.651" transform="translate(-101.302 -225.787)" fill="#f08f4a"/>
      <path id="Trazado_715827" data-name="Trazado 715827" d="M390.622,336.272a46.7,46.7,0,0,1-1.072,11.748,3.762,3.762,0,0,1-2.63,2.769L370.433,355.5,403.6,399l26.919-45.186-8.79-2.8a4,4,0,0,1-2.764-3.48c-.464-5.645-.464-11.02-.464-11.02Z" transform="translate(-270.926 -245.941)" fill="#fcaa97"/>
      <path id="Trazado_715828" data-name="Trazado 715828" d="M482.107,358.172a3.993,3.993,0,0,1-2.608-3.424c-.272-3.3-.384-6.515-.431-8.61L453.2,349.376c9.854,15.142,27.789,9.279,28.91,8.8" transform="translate(-331.458 -253.157)" fill="#c77f6d"/>
      <path id="Trazado_715829" data-name="Trazado 715829" d="M195.172,388.615c-8.172,24.756-18.026,34.851-18.026,34.851-14.661-22.593-16.824-34.61-16.824-34.61-15.161,3.962-28.69,8.939-34.592,11.985a17.378,17.378,0,0,0-5.937,5.026C102.881,428.439,89.9,448.462,89.9,448.462l-4.086-13.94C74.277,436.445,61.3,444.616,61.3,444.616c4.086,13.7,10.575,29.082,10.575,29.082,8.653,31.005,51.435-7.931,51.435-7.931l-2.163,136.278H233.628l3.365-137.96c18.747-1.2,27.881,16.824,27.881,16.824,12.258-17.546-21.391-65.615-21.391-65.615-18.026-20.43-48.31-26.679-48.31-26.679" transform="translate(-44.832 -284.224)" fill="#73c0e6"/>
      <path id="Trazado_715830" data-name="Trazado 715830" d="M475.294,696.544h0a.256.256,0,0,1-.254-.258l1.569-173.9,2.92-4.867a.256.256,0,0,1,.438.263l-2.848,4.747-1.568,173.756a.256.256,0,0,1-.256.254" transform="translate(-347.432 -378.414)" fill="#382118"/>
      <path id="Trazado_715831" data-name="Trazado 715831" d="M162.6,621.674h-.009a.256.256,0,0,1-.247-.265,115.305,115.305,0,0,1,1.205-12.531.256.256,0,1,1,.5.084,114.711,114.711,0,0,0-1.2,12.465.256.256,0,0,1-.255.247" transform="translate(-118.736 -445.163)" fill="#382118"/>
      <path id="Trazado_715832" data-name="Trazado 715832" d="M150.97,627.472a.256.256,0,0,1-.247-.323,33.72,33.72,0,0,1,2.425-5.822.256.256,0,1,1,.45.243,33.157,33.157,0,0,0-2.382,5.714.256.256,0,0,1-.247.189" transform="translate(-110.229 -454.325)" fill="#382118"/>
      <path id="Trazado_715833" data-name="Trazado 715833" d="M494.461,542.272a2.445,2.445,0,1,1-2.445-2.445,2.445,2.445,0,0,1,2.445,2.445" transform="translate(-358.061 -394.817)" fill="#4d99bf"/>
      <path id="Trazado_715834" data-name="Trazado 715834" d="M492.087,693.106a2.445,2.445,0,1,1-2.445-2.445,2.445,2.445,0,0,1,2.445,2.445" transform="translate(-356.325 -505.134)" fill="#4d99bf"/>
      <path id="Trazado_715835" data-name="Trazado 715835" d="M492.087,854.023a2.445,2.445,0,1,1-2.445-2.445,2.445,2.445,0,0,1,2.445,2.445" transform="translate(-356.325 -622.825)" fill="#4d99bf"/>
      <path id="Trazado_715836" data-name="Trazado 715836" d="M769.319,655.952a.256.256,0,0,1-.155-.052c-.04-.031-4.064-3-10.567-.446a.256.256,0,1,1-.187-.476c6.787-2.666,10.893.384,11.065.515a.256.256,0,0,1-.156.459" transform="translate(-554.565 -478.239)" fill="#382118"/>
      <path id="Trazado_715837" data-name="Trazado 715837" d="M772.5,666.4a.256.256,0,0,1-.189-.084c-.023-.026-2.361-2.56-4.858-2.56a.256.256,0,1,1,0-.511c2.726,0,5.135,2.616,5.237,2.727a.256.256,0,0,1-.189.428" transform="translate(-561.11 -485.082)" fill="#382118"/>
      <path id="Trazado_715838" data-name="Trazado 715838" d="M291.446,621.728h-.006a.256.256,0,0,1-.249-.262l.48-19.709a.256.256,0,0,1,.512.013l-.481,19.709a.256.256,0,0,1-.255.25" transform="translate(-212.97 -439.929)" fill="#382118"/>
      <path id="Trazado_715839" data-name="Trazado 715839" d="M84.97,421.861h-.017a.192.192,0,0,1-.174-.208c.007-.081.792-8.127,7.421-9.311a.192.192,0,0,1,.068.378c-6.344,1.133-7.1,8.888-7.107,8.967a.192.192,0,0,1-.191.175" transform="translate(-62.005 -301.575)" fill="#382118"/>
      <path id="Trazado_715840" data-name="Trazado 715840" d="M121.464,330.41a.192.192,0,0,1-.172-.106,17.652,17.652,0,0,0-4.17-4.86.192.192,0,1,1,.248-.293,17.679,17.679,0,0,1,4.265,4.982.192.192,0,0,1-.086.257.189.189,0,0,1-.086.02" transform="translate(-85.611 -237.774)" fill="#382118"/>
      <path id="Trazado_715841" data-name="Trazado 715841" d="M90.443,352.2a2.35,2.35,0,0,1-.892-.177l-.041-.017a2.454,2.454,0,0,1-1.5-2.508c.114-1.213.318-2.334.377-2.642L86.56,344.35a.192.192,0,1,1,.31-.225l1.924,2.645-.017.082c0,.013-.256,1.288-.387,2.685a2.072,2.072,0,0,0,1.267,2.118l.039.016a1.956,1.956,0,0,0,2.282-.6,9.964,9.964,0,0,0,1.126-1.766l.053-.106h.627a1.646,1.646,0,0,0,1.525-1.018,19.439,19.439,0,0,0,1.085-3.9,3.382,3.382,0,0,0-.331-2.183l-3.66-6.914c-.012-.022-1.361-2.441-3.3-2.011a.192.192,0,1,1-.083-.374c2.224-.5,3.665,2.094,3.725,2.2l3.661,6.916a3.768,3.768,0,0,1,.369,2.432,19.785,19.785,0,0,1-1.108,3.974,2.027,2.027,0,0,1-1.879,1.256h-.391a10.311,10.311,0,0,1-1.115,1.728,2.346,2.346,0,0,1-1.835.892" transform="translate(-63.281 -243.358)" fill="#382118"/>
      <path id="Trazado_715842" data-name="Trazado 715842" d="M86.258,363.234a.192.192,0,0,1-.178-.263,20.067,20.067,0,0,0,.763-2.361,2.711,2.711,0,0,0-.181-1.782,33.608,33.608,0,0,0-3.689-6.244,2.139,2.139,0,0,0-2.121-.748,20.431,20.431,0,0,0-3.655,1.305.192.192,0,0,1-.156-.351,20.824,20.824,0,0,1,3.728-1.329,2.521,2.521,0,0,1,2.5.878,33.993,33.993,0,0,1,3.739,6.324,3.1,3.1,0,0,1,.207,2.034,20.064,20.064,0,0,1-.78,2.415.192.192,0,0,1-.178.121" transform="translate(-56.263 -257.007)" fill="#382118"/>
      <path id="Trazado_715843" data-name="Trazado 715843" d="M93.693,384.169a.192.192,0,0,1-.021-.383l2.109-.234a.192.192,0,1,1,.042.381l-2.109.234h-.021" transform="translate(-68.385 -280.52)" fill="#382118"/>
      <path id="Trazado_715844" data-name="Trazado 715844" d="M102.416,462.743a.192.192,0,0,1-.041-.379,13.784,13.784,0,0,0,3.223-1.149.192.192,0,0,1,.2.329,13.876,13.876,0,0,1-3.338,1.194.184.184,0,0,1-.042,0" transform="translate(-74.765 -337.302)" fill="#382118"/>
      <path id="Trazado_715845" data-name="Trazado 715845" d="M602.319,382.679a4.823,4.823,0,0,1,2.32-2.005,3.53,3.53,0,0,1,2.954,1.019,10.566,10.566,0,0,0,2.58,1.943c1.206.491,2.572.275,3.86.463a6.727,6.727,0,0,1,4.626,3.105,8.032,8.032,0,0,1,1.031,5.531,3.584,3.584,0,0,1-.658,1.69,1.664,1.664,0,0,1-1.615.642,3.261,3.261,0,0,1-.953-.511,6.018,6.018,0,0,0-2.685-.932,1.051,1.051,0,0,1-.619-.182,1.021,1.021,0,0,1-.243-.466,10.183,10.183,0,0,0-5.8-6,14.669,14.669,0,0,0-8.881-.6,20.429,20.429,0,0,0,4.079-3.689" transform="translate(-437.539 -278.37)" fill="#e34927"/>
      <path id="Trazado_715846" data-name="Trazado 715846" d="M571.275,798.21a34.852,34.852,0,0,0-10.5,4.06.04.04,0,0,0-.018.044c1.051,4.257-.807,9.163-1.241,10.22a.041.041,0,0,1-.077-.021,25.744,25.744,0,0,0-.6-7.531.041.041,0,0,0-.063-.021,12.578,12.578,0,0,0-3.8,3.572l0,0c-2.159,2.59-6.546,5.469-7.416,6.029a.041.041,0,0,1-.057-.055c1.838-2.929,6.24-8.405,6.909-9.235a.041.041,0,0,0-.044-.065,75.668,75.668,0,0,0-10.417,4.677.041.041,0,0,1-.044-.069c5.649-4.557,9.454-7.482,9.938-7.854a.042.042,0,0,0-.009-.069A10.694,10.694,0,0,0,549.335,800a11.781,11.781,0,0,1,4.207-.12,35.962,35.962,0,0,0,6.723.241l.012,0c4.341-2.057,9.115-4.546,9.572-4.785a.04.04,0,0,1,.054.019l1.4,2.8a.041.041,0,0,1-.029.058" transform="translate(-397.793 -581.686)" fill="#ffe09c"/>
      <path id="Trazado_715847" data-name="Trazado 715847" d="M543.372,846.746h0a.208.208,0,0,0-.309-.063c-.531.417-.685.455-1.286.941a4.016,4.016,0,0,0,1.509-.593.208.208,0,0,0,.086-.285" transform="translate(-396.243 -619.213)" fill="#d67623"/>
      <path id="Trazado_715848" data-name="Trazado 715848" d="M557.915,861.773c-.354.512-.67.989-.928,1.408,0,0,.567-.357,1.412-.937a.248.248,0,0,0,.026-.389l-.142-.126a.248.248,0,0,0-.367.044" transform="translate(-407.368 -630.203)" fill="#d67623"/>
      <path id="Trazado_715849" data-name="Trazado 715849" d="M601.764,854.948c-.006.4-.018.813-.039,1.245,0,0,.195-.437.45-1.169a.213.213,0,0,0-.179-.283.21.21,0,0,0-.233.206" transform="translate(-440.088 -625.138)" fill="#d67623"/>
      <path id="Trazado_715850" data-name="Trazado 715850" d="M565.347,812.282a.16.16,0,0,0-.177-.16c-.326.038-.668.09-1.025.161a7.187,7.187,0,0,1,1,.216.16.16,0,0,0,.2-.154Z" transform="translate(-412.603 -593.967)" fill="#d67623"/>
      <path id="Trazado_715851" data-name="Trazado 715851" d="M506.33,796.538a46.958,46.958,0,0,0-9.595,6.5.04.04,0,0,0-.005.047c2.141,3.826,1.65,9.05,1.512,10.183a.041.041,0,0,1-.08,0,25.749,25.749,0,0,0-2.571-7.1.041.041,0,0,0-.066,0,12.6,12.6,0,0,0-2.715,4.45l0,.005c-1.4,3.07-4.862,7.009-5.553,7.779a.041.041,0,0,1-.07-.038c1-3.311,3.789-9.758,4.215-10.736a.041.041,0,0,0-.06-.051,75.715,75.715,0,0,0-8.805,7.27.041.041,0,0,1-.06-.055c4.239-5.891,7.133-9.72,7.5-10.207.019-.024,0-.054-.027-.065a10.694,10.694,0,0,0-4.846-.632,11.787,11.787,0,0,1,4.025-1.231,35.944,35.944,0,0,0,6.546-1.55.03.03,0,0,0,.011-.007c3.641-3.134,7.584-6.8,7.961-7.151.016-.016,3.149-2.708,3.165-2.691l2.4,2.884c.018.02-2.86,2.392-2.884,2.4" transform="translate(-352.865 -578.703)" fill="#ffe09c"/>
      <path id="Trazado_715852" data-name="Trazado 715852" d="M481.977,875.535h0a.207.207,0,0,0-.315.022c-.4.543-.54.62-.991,1.248,0,0,.317-.065,1.3-.971a.208.208,0,0,0,.008-.3" transform="translate(-351.552 -640.301)" fill="#d67623"/>
      <path id="Trazado_715853" data-name="Trazado 715853" d="M539.975,868.807q.15.578.293,1.211s.072-.472.124-1.246a.213.213,0,0,0-.247-.225.21.21,0,0,0-.169.26" transform="translate(-394.921 -635.233)" fill="#d67623"/>
      <path id="Trazado_715854" data-name="Trazado 715854" d="M493.438,836.752a.16.16,0,0,0-.213-.107c-.3.123-.62.264-.945.427a7.2,7.2,0,0,1,1.02-.057.16.16,0,0,0,.155-.2Z" transform="translate(-360.042 -611.894)" fill="#d67623"/>
      <path id="Trazado_715855" data-name="Trazado 715855" d="M534.486,399.883c18.026-4.807,17.546,10.095,17.546,10.095.961,27.4,14.9,41.1,14.9,41.1a52.914,52.914,0,0,1,12.017,37.254c12.979,12.258,5.528,13.7,5.528,13.7,3.605,8.653-6.008,2.884-6.008,2.884,0,9.614-16.825-5.768-16.825-5.768-6.97,17.065-14.9,9.614-14.9,9.614l-1.682-2.4a89.484,89.484,0,0,0,2.4-9.133c-12.258,15.863-17.3,10.335-17.3,10.335l-1.683-2.644a5.34,5.34,0,0,1,.721-6.009c4.086-7.451-.24-18.747-.24-18.747-38.456-31,2.884-59.607,2.884-59.607,9.854-7.691,2.163-17.065,2.163-17.065Z" transform="translate(-374.892 -291.766)" fill="#f08f4a"/>
      <path id="Trazado_715856" data-name="Trazado 715856" d="M608.445,407.257c6.762,6.108,8.871-5.527.12-.936a.576.576,0,0,0-.12.936" transform="translate(-444.864 -296.368)" fill="#e34927"/>
      <path id="Trazado_715857" data-name="Trazado 715857" d="M616.967,408.614a.361.361,0,1,1-.28-.139c.011,0,.021,0,.031,0a2.271,2.271,0,0,0-.906-.179c-.863,0-1.562.43-1.562.961s.7.961,1.562.961,1.562-.43,1.562-.961a.807.807,0,0,0-.409-.647" transform="translate(-449.249 -298.62)" fill="#382118"/>
      <path id="Trazado_715858" data-name="Trazado 715858" d="M580.075,416.776a6.556,6.556,0,0,1-.629,5.294c-5.288,5.047-2.639,8.111-.481,7.932a5.744,5.744,0,0,0,4.267-2.843c1.982-4.849-1.822-10.08-1.822-10.08Z" transform="translate(-421.534 -304.82)" fill="#e34927"/>
      <path id="Trazado_715859" data-name="Trazado 715859" d="M574.83,402.408c-3.948-.495-7.553,3.111-7.553,3.111,5.047,0,7.068.958,7.068.958.623-.237,2.787,1.206,2.787,1.206a9.3,9.3,0,0,0-1.682-3.605,2.21,2.21,0,0,1-.619-1.668" transform="translate(-414.894 -294.278)" fill="#ffe09c"/>
      <path id="Trazado_715860" data-name="Trazado 715860" d="M591.054,404.96c0,.133-.215.24-.481.24s-.481-.108-.481-.24.215-.24.481-.24.481.108.481.24" transform="translate(-431.581 -296.003)" fill="#382118"/>
      <path id="Trazado_715861" data-name="Trazado 715861" d="M729.884,767.318a.255.255,0,0,1-.235-.155c-2.105-4.912-9.674-9.45-9.75-9.495a.256.256,0,0,1,.261-.44c.317.188,7.787,4.668,9.959,9.733a.256.256,0,0,1-.134.336.252.252,0,0,1-.1.021" transform="translate(-526.426 -553.793)" fill="#382118"/>
      <path id="Trazado_715862" data-name="Trazado 715862" d="M749.876,753.965a.255.255,0,0,1-.233-.149c-2.579-5.626-10.867-10.412-10.95-10.46a.256.256,0,1,1,.253-.444c.347.2,8.514,4.914,11.162,10.691a.256.256,0,0,1-.126.339.253.253,0,0,1-.106.023" transform="translate(-540.169 -543.324)" fill="#382118"/>
      <path id="Trazado_715863" data-name="Trazado 715863" d="M675.345,765.476a.254.254,0,0,1-.059-.007,42.839,42.839,0,0,1-7.259-2.42.256.256,0,1,1,.214-.464,42.282,42.282,0,0,0,7.162,2.387.256.256,0,0,1-.058.5" transform="translate(-488.471 -557.72)" fill="#382118"/>
      <path id="Trazado_715864" data-name="Trazado 715864" d="M630.9,627.556A17.473,17.473,0,0,1,623.646,626a23.309,23.309,0,0,1-3.564-2.081,35.769,35.769,0,0,1-14.542-37.038.256.256,0,1,1,.5.109A35.258,35.258,0,0,0,620.374,623.5a22.832,22.832,0,0,0,3.485,2.036,17.16,17.16,0,0,0,13.2.356.256.256,0,0,1,.188.476,17.368,17.368,0,0,1-6.353,1.185" transform="translate(-442.283 -429.088)" fill="#382118"/>
      <path id="Trazado_715865" data-name="Trazado 715865" d="M674.078,679.519a.255.255,0,0,1-.114-.027,45.873,45.873,0,0,1-13.8-10.612c-1.841-2.087-4.321-5.3-4.614-9.106a.256.256,0,0,1,.51-.039c.281,3.65,2.7,6.774,4.487,8.806a45.356,45.356,0,0,0,13.648,10.493.256.256,0,0,1-.114.485" transform="translate(-479.452 -482.342)" fill="#382118"/>
      <path id="Trazado_715866" data-name="Trazado 715866" d="M702.915,671.037a.255.255,0,0,1-.146-.046c-4.942-3.426-8.385-9.351-10.234-17.611a.256.256,0,0,1,.5-.112c1.82,8.13,5.194,13.952,10.026,17.3a.256.256,0,0,1-.146.466" transform="translate(-506.5 -477.64)" fill="#382118"/>
      <path id="Trazado_715867" data-name="Trazado 715867" d="M575.048,502.362a3.963,3.963,0,0,1-.974-.123,2.506,2.506,0,0,1-1.633-1.188c-.046-.078-.09-.161-.133-.244a2.4,2.4,0,0,0-.228-.38c-.253-.311-.534-.244-1.072-.03l-.068.027a1.964,1.964,0,0,1-1.921-.113,2.857,2.857,0,0,1-1.055-2.439.256.256,0,1,1,.51.041,2.374,2.374,0,0,0,.835,1.976,1.449,1.449,0,0,0,1.445.06l.067-.027c.454-.181,1.141-.454,1.658.183a2.763,2.763,0,0,1,.284.466c.039.075.079.15.121.222a2.018,2.018,0,0,0,1.318.951,3.345,3.345,0,0,0,2.686-.449.256.256,0,0,1,.276.431,3.882,3.882,0,0,1-2.114.638" transform="translate(-415.39 -363.959)" fill="#985419"/>
      <path id="Trazado_715868" data-name="Trazado 715868" d="M634.861,517.548a3.359,3.359,0,0,1-.351-.019,4.237,4.237,0,0,1-2.333-1.039.256.256,0,1,1,.335-.386,3.729,3.729,0,0,0,2.052.917,1.98,1.98,0,0,0,1.145-.172c.089-.047.175-.1.26-.159a2.133,2.133,0,0,1,.576-.3,2.022,2.022,0,0,1,.983.038l.074.016a8.57,8.57,0,0,0,1.927.178,1.716,1.716,0,0,0,1.312-.445.256.256,0,1,1,.384.338,2.194,2.194,0,0,1-1.685.619,9.09,9.09,0,0,1-2.042-.189l-.076-.016a1.593,1.593,0,0,0-.737-.047,1.726,1.726,0,0,0-.437.233c-.1.065-.2.129-.3.183a2.3,2.3,0,0,1-1.087.248" transform="translate(-462.295 -377.42)" fill="#985419"/>
      <path id="Trazado_715869" data-name="Trazado 715869" d="M552.229,526.519a3.154,3.154,0,0,1-2.827-1.75.256.256,0,0,1,.465-.214,2.607,2.607,0,0,0,3.114,1.329.256.256,0,0,1,.168.484,2.807,2.807,0,0,1-.919.151" transform="translate(-401.803 -383.539)" fill="#985419"/>
      <path id="Trazado_715870" data-name="Trazado 715870" d="M564.806,543.473a3.154,3.154,0,0,1-2.842-1.785.256.256,0,0,1,.467-.208,2.607,2.607,0,0,0,3.1,1.367.256.256,0,0,1,.162.485,2.8,2.8,0,0,1-.885.141" transform="translate(-410.991 -395.915)" fill="#985419"/>
      <path id="Trazado_715871" data-name="Trazado 715871" d="M626.1,630.353a25.473,25.473,0,0,1-21.931,6.695c-8.542-2.078-12.7-1.847-12.7-1.847-8.117-1.373-12.248-2.139-14.331-2.553a11.187,11.187,0,0,1-3.688-1.448c-10.019-6.172-13.146-8.465-13.146-8.465a2.488,2.488,0,0,1,0-2.77c-3.925-3.232-4.386-4.848-4.386-4.848-.693-2.308,2.308-2.077,2.308-2.077-6.233-4.617-.923-5.31-.923-5.31-.692-3.232,2.539-2.77,2.539-2.77,11.081,3.693,16.391,3.463,16.391,3.463,11.312.462,9.7-3.694,9.7-3.694a7.374,7.374,0,0,0-2.77-3.924c-2.846-3.13-2.534-5.3-1.877-6.5a1.2,1.2,0,0,1,1.864-.294c4.155,3.806,7.169,7.022,7.169,7.022a21.71,21.71,0,0,1,7.849,11.081c1.452,3.238,3.281,4.64,4.783,5.224a4.116,4.116,0,0,0,4.3-.849,11.6,11.6,0,0,0,1.769-2.067c13.39,2.309,17.083,15.929,17.083,15.929" transform="translate(-406.059 -434.215)" fill="#fcaa97"/>
      <path id="Trazado_715872" data-name="Trazado 715872" d="M575.913,650.922a.185.185,0,0,1-.044-.005c-.407-.095-10.013-2.354-13.472-5.351a.192.192,0,1,1,.251-.29c3.388,2.936,13.209,5.245,13.307,5.268a.192.192,0,0,1-.043.379" transform="translate(-411.277 -471.905)" fill="#382118"/>
      <path id="Trazado_715873" data-name="Trazado 715873" d="M577.274,670.688a.193.193,0,0,1-.059-.009,57.5,57.5,0,0,1-11.355-5.329.192.192,0,0,1,.2-.326,57.063,57.063,0,0,0,11.269,5.29.192.192,0,0,1-.059.374" transform="translate(-413.792 -486.362)" fill="#382118"/>
      <path id="Trazado_715874" data-name="Trazado 715874" d="M583.854,695.777a.193.193,0,0,1-.055-.008c-.063-.019-6.309-1.888-10.214-4.645a.192.192,0,1,1,.221-.313c3.853,2.72,10.039,4.572,10.1,4.59a.192.192,0,0,1-.054.376" transform="translate(-419.448 -505.218)" fill="#382118"/>
      <path id="Trazado_715875" data-name="Trazado 715875" d="M371.6,148.025a4.948,4.948,0,0,1-1.432-1.607l-4.057-6.175a12.818,12.818,0,0,1-1.977-3.932,12.966,12.966,0,0,1,.118-4.98l1.717-11.121a7.633,7.633,0,0,1,1.17-3.547c.907-1.187,2.406-1.7,3.6-2.592,2.688-2,3.668-5.739,6.3-7.81a14.164,14.164,0,0,1,4.026-1.967l10.36-3.758c1.661-.6,3.443-1.213,5.155-.778.991.252,1.87.838,2.845,1.149,3.477,1.111,7.283-1.441,10.8-.487,3.728,1.01,5.591,5.47,9.133,7.025,1.755.771,3.849.788,5.358,1.982,3.054,2.416,1.595,7.45,3.1,11.077.955,2.306,3.162,4.112,3.343,6.608.179,2.463-1.7,4.574-2.215,6.986-.571,2.65.5,5.632-.767,8.021-1.211,2.29-4.01,3.034-6.214,4.353-2.011,1.2-3.643,3-5.716,4.093-2.651,1.392-5.753,1.49-8.736,1.558l-21.031.48c-2.749.063-6.154.18-8.469-1.6-.932-.717-1.04-1.587-2.214-2.158-1.284-.624-2.9-.028-4.2-.82" transform="translate(-266.171 -72.853)" fill="#87cbed"/>
      <path id="Trazado_715876" data-name="Trazado 715876" d="M444.7,174.751a2.992,2.992,0,0,0-1.624,0c.482-16.581-8.585-29.671-23.644-28.795-16.371.953-22.279,13.928-20.554,30.466a3.055,3.055,0,0,0-2.408-.267c-2.186.758-2.922,4.362-1.643,8.051s4.087,6.065,6.273,5.308a2.554,2.554,0,0,0,.623-.32c4.6,13.073,13.5,22.027,21.054,21.474,8.237-.6,14.921-10.055,18.207-22.287,2.284.442,4.91-1.994,5.967-5.606,1.1-3.747.089-7.34-2.251-8.025" transform="translate(-288.31 -106.717)" fill="#fcaa97"/>
      <path id="Trazado_715877" data-name="Trazado 715877" d="M493.5,292.479l-.029,0a.256.256,0,0,1-.226-.282,15.5,15.5,0,0,0,0-3.36.256.256,0,0,1,.5-.084,15.7,15.7,0,0,1,0,3.5.256.256,0,0,1-.254.228" transform="translate(-360.75 -211.029)" fill="#382118"/>
      <path id="Trazado_715878" data-name="Trazado 715878" d="M491.25,312.827a4.09,4.09,0,0,1-2.135-.6.256.256,0,0,1,.263-.439,4.144,4.144,0,0,0,4.3-.219.256.256,0,0,1,.293.42,5.156,5.156,0,0,1-2.718.836" transform="translate(-357.637 -227.842)" fill="#382118"/>
      <path id="Trazado_715879" data-name="Trazado 715879" d="M404.615,279.771a.254.254,0,0,1-.141-.043,4.032,4.032,0,0,1-1.246-4.633.256.256,0,1,1,.489.15,3.475,3.475,0,0,0,1.042,4.058.256.256,0,0,1-.143.468" transform="translate(-294.733 -201.066)" fill="#382118"/>
      <path id="Trazado_715880" data-name="Trazado 715880" d="M576.238,274.684a.256.256,0,0,1-.141-.469,3.7,3.7,0,0,0,1.232-4.018.256.256,0,1,1,.5-.115,4.267,4.267,0,0,1-1.449,4.56.254.254,0,0,1-.141.042" transform="translate(-421.26 -197.386)" fill="#382118"/>
      <path id="Trazado_715881" data-name="Trazado 715881" d="M534.11,270.6a3.3,3.3,0,0,1,.169-1.072.764.764,0,0,0,.818.4.852.852,0,0,0,.108-1.647,1.409,1.409,0,0,1,.719-.208c1.01-.006,1.837,1.115,1.845,2.5s-.8,2.521-1.814,2.527-1.837-1.115-1.845-2.5" transform="translate(-390.636 -196.063)" fill="#382118"/>
      <path id="Trazado_715882" data-name="Trazado 715882" d="M446.421,272.477a3.292,3.292,0,0,1,.12-1.078.763.763,0,0,0,.835.361.852.852,0,0,0,.033-1.65,1.412,1.412,0,0,1,.709-.24c1.009-.052,1.885,1.031,1.957,2.418s-.688,2.555-1.7,2.607-1.885-1.03-1.957-2.418" transform="translate(-326.499 -197.375)" fill="#382118"/>
      <path id="Trazado_715883" data-name="Trazado 715883" d="M535.336,247.249c-.271.571-2.011.312-3.888-.578s-3.179-2.074-2.908-2.644,2.011-.312,3.888.578,3.179,2.073,2.908,2.644" transform="translate(-386.536 -178.254)" fill="#943c26"/>
      <path id="Trazado_715884" data-name="Trazado 715884" d="M434.883,252.357c.271.571,2.011.312,3.888-.578s3.179-2.074,2.908-2.644-2.011-.312-3.888.578-3.179,2.074-2.908,2.644" transform="translate(-318.038 -181.99)" fill="#943c26"/>
      <path id="Trazado_715885" data-name="Trazado 715885" d="M476.32,331.044a64.137,64.137,0,0,0,12.808-.686c-6.175,11.893-12.808.686-12.808.686" transform="translate(-348.37 -241.616)" fill="#fff"/>
      <path id="Trazado_715886" data-name="Trazado 715886" d="M538.753,295.8c0,1.137-1.587,2.058-3.545,2.058s-3.545-.922-3.545-2.058,1.587-2.058,3.545-2.058,3.545.922,3.545,2.058" transform="translate(-388.846 -214.839)" fill="#ff8382"/>
      <path id="Trazado_715887" data-name="Trazado 715887" d="M438.858,298.358c0,1.137,1.587,2.058,3.545,2.058s3.545-.922,3.545-2.058-1.587-2.058-3.545-2.058-3.545.922-3.545,2.058" transform="translate(-320.971 -216.707)" fill="#ff8382"/>
      <path id="Trazado_715888" data-name="Trazado 715888" d="M457.7,199.522a27.541,27.541,0,0,1-7.18-2.089c-1.148-.5-2.265-1.054-3.366-1.653s-2.248-1.15-3.4-1.663c-1.679-.752-3.381-1.438-5.066-2.149a42.989,42.989,0,0,1,10.221,4.093c10.778,5.219,22.657,1.67,22.657,1.67-7.7-20.459-37.394-6.472-37.394-6.472a22.849,22.849,0,0,1,2.485.288l-.105.244c2.326.975,4.691,1.826,7,2.8,1.154.484,2.291,1,3.4,1.571s2.263,1.116,3.432,1.59a27.788,27.788,0,0,0,7.291,1.942,27.355,27.355,0,0,0,7.52-.249,27.281,27.281,0,0,1-7.5.079" transform="translate(-317.546 -136.47)" fill="#943c26"/>
      <path id="Trazado_715889" data-name="Trazado 715889" d="M406.577,167.893c1.693-7.71,8.348-14.523,21.956-14.638,18.642-.157,23.084,13.336,23.084,13.336.016-12.193.016-30.719-22.532-30.377-31.015.47-22.509,31.678-22.509,31.678" transform="translate(-296.581 -99.621)" fill="#87cbed"/>
      <path id="Trazado_715890" data-name="Trazado 715890" d="M408.278,213.044a15.964,15.964,0,0,1,4.516-10.6c4.021-4.191,10.261-6.395,18.548-6.551,9.729-.183,15.552,3.928,18.726,7.409a21.493,21.493,0,0,1,4.609,7.729l-1.721.5a20.1,20.1,0,0,0-4.265-7.078c-4.25-4.626-10.071-6.9-17.315-6.766-7.793.147-13.61,2.166-17.29,6A14.307,14.307,0,0,0,410.068,213Z" transform="translate(-298.605 -143.265)" fill="#4d99bf"/>
      <path id="Trazado_715891" data-name="Trazado 715891" d="M142.966,319.983a.256.256,0,0,1-.254-.232c-.011-.122-.253-3,1.761-4.511a.256.256,0,1,1,.307.409c-1.783,1.337-1.561,4.028-1.559,4.055a.256.256,0,0,1-.231.278h-.024" transform="translate(-104.365 -230.521)" fill="#ffe09c"/>
      <path id="Trazado_715892" data-name="Trazado 715892" d="M444.377,425.047l-.568-.833c-.613-.9-15.025-22.18-16.712-35.668l1.523-.19c1.455,11.645,13.167,30,15.893,34.147a87.247,87.247,0,0,0,17.444-34.441l1.505.3a88.953,88.953,0,0,1-18.434,35.919Z" transform="translate(-312.37 -283.819)" fill="#4d99bf"/>
      <path id="Trazado_715893" data-name="Trazado 715893" d="M769.047,684.106a.768.768,0,0,1-.74-.566c-.035-.127-3.659-12.793-16.71-15.312a.767.767,0,1,1,.291-1.507,22.673,22.673,0,0,1,14.268,9.229,24.726,24.726,0,0,1,3.633,7.186.768.768,0,0,1-.741.97" transform="translate(-549.246 -487.615)" fill="#4d99bf"/>
      <path id="Trazado_715894" data-name="Trazado 715894" d="M60.621,568.255l-.785-1.319c10.065-5.991,24.554-10.133,24.7-10.174l.419,1.477c-.143.041-14.443,4.129-24.332,10.016" transform="translate(-43.763 -407.204)" fill="#4d99bf"/>
    </g>
  </g>
</svg>
