<svg xmlns="http://www.w3.org/2000/svg" xmlns:xlink="http://www.w3.org/1999/xlink" width="129" height="129" viewBox="0 0 129 129">
  <defs>
    <clipPath id="clip-path">
      <rect id="Rectángulo_353251" data-name="Rectángulo 353251" width="100.107" height="129" fill="none"/>
    </clipPath>
  </defs>
  <g id="Grupo_1003259" data-name="Grupo 1003259" transform="translate(-1090 -5408)">
    <circle id="Elipse_5709" data-name="Elipse 5709" cx="64.5" cy="64.5" r="64.5" transform="translate(1090 5408)" fill="#b20d0d"/>
    <g id="Grupo_1003124" data-name="Grupo 1003124" transform="translate(1104.04 5408)">
      <g id="Grupo_1003123" data-name="Grupo 1003123" clip-path="url(#clip-path)">
        <path id="Trazado_715412" data-name="Trazado 715412" d="M94.74,137.976c0-1.592.009-3.183,0-4.775-.018-2.494.554-5.071-2.379-6.7-1.33-.74-1.359-2.589-1.359-4.13,0-3.351-.151-6.71.051-10.048.135-2.223-1.187-1.693-2.459-1.909-1.852-.315-1.367.9-1.374,1.775-.03,3.518-.023,7.036-.01,10.554a5.192,5.192,0,0,1-2.346,4.728,2.843,2.843,0,0,0-1.424,2.875c.052,5.109-.026,10.22.047,15.328.026,1.86-.6,2.927-2.465,3.473-3.122.914-6.171,2.075-9.27,3.072-1.2.385-2.6.825-3.2-.829-.636-1.752.613-2.476,2.016-2.772s1.581-1.082,1.556-2.319c-.073-3.6.056-7.205-.056-10.8-.07-2.264.819-3.3,3.081-3.157a5.667,5.667,0,0,0,1.752-.021c.913-.241,2.466.853,2.654-.783.149-1.3.773-2.9-1.135-3.924-2.129-1.145-2.578-3.333-2.567-5.635.029-6.031.011-12.062.007-18.092,0-1.06.185-2.107-1.105-2.771-1.066-.549-.726-1.777-.728-2.749-.018-7.455-.054-14.91.025-22.364.017-1.592-.335-2.172-2.044-2.116-4.016.132-8.039.065-12.06.034-3.441-.027-5.89-2.244-6.037-5.386-.152-3.26,1.9-5.66,5.422-5.984a68.653,68.653,0,0,1,7.03-.072c1.376.015,2.634.491,2.525,2.105-.095,1.4-1.207,1.836-2.552,1.806-2.093-.046-4.188.026-6.281-.025-1.393-.034-2.389.492-2.368,1.926.02,1.338,1.085,1.75,2.3,1.75,4.355,0,8.71-.012,13.066.016a1.638,1.638,0,0,0,1.683-1.126c1.366-2.762,3.811-3.9,6.763-3.93,5.108-.058,10.219-.081,15.327.011,2.83.051,5.28,1.1,6.54,3.837.58,1.257,1.5,1.149,2.454,1A20.892,20.892,0,0,0,122.949,51.11c.037-.5.056-1,.1-1.5.113-1.214.664-2.221,1.963-2.168,1.411.058,1.835,1.1,1.874,2.462.309,10.65-9.171,21.965-19.926,23.463-2.236.312-2.818,1.076-2.773,3.265.147,7.116.053,14.238.056,21.358,0,1.422.19,2.872-1.492,3.653-.882.41-.429,1.337-.433,2.011-.037,6.2-.054,12.4-.006,18.6.018,2.354-.656,4.307-2.754,5.527-1.692.983-.992,2.556-.9,3.827.1,1.378,1.455.566,2.241.717a7.612,7.612,0,0,0,2,.018c2.4-.186,3.308.963,3.251,3.294-.088,3.516.039,7.037-.054,10.553-.035,1.36.258,2.2,1.7,2.508,1.374.294,2.431,1.1,1.895,2.65-.554,1.6-1.96,1.313-3.189.91-3.252-1.067-6.464-2.258-9.732-3.274a2.613,2.613,0,0,1-2.059-2.958c.065-2.679.018-5.36.018-8.04m-2.049-31.928c1.706.228,2.073,1.369,2.063,2.873-.03,4.419-.007,8.839-.009,13.258,0,1.3.377,2.4,1.851,2.489,1.569.1,1.852-1.149,2.032-2.34a11.7,11.7,0,0,0,.034-1.749q0-6.629,0-13.258c0-5.912,0-5.912-5.982-5.657-3.6-.022-7.2.037-10.792-.1-1.723-.066-2.324.407-2.28,2.214.12,4.935.041,9.875.041,14.813,0,1.255-.008,2.511.006,3.766.015,1.325.48,2.353,1.992,2.338,1.434-.013,1.7-1.153,1.841-2.267a16.163,16.163,0,0,0,.036-2.007c0-3.934.029-7.867-.006-11.8-.017-1.956.872-2.968,2.772-2.39a11.752,11.752,0,0,0,6.4-.183m1.975-8.308c1.163.057,2.334.049,3.487.188,1.757.211,2.325-.483,2.253-2.237-.127-3.085-.034-6.179-.036-9.27,0-4.761.016-9.522-.025-14.282-.016-1.824-.975-3.294-2.807-3.123-1.608.15-.776,1.879-.8,2.867-.1,3.566.427,7.249-2.474,10.12-3.07,1.027-3.669,3.3-3.25,6.2a18.247,18.247,0,0,1,0,3.5c-.065,1.278-.515,2.4-2.037,2.3-1.32-.082-1.772-1.082-1.778-2.3-.01-2.006-.07-4.014.017-6.015a2.329,2.329,0,0,0-1.531-2.632,6.95,6.95,0,0,1-4.094-6.646c-.027-1.922.02-3.845-.036-5.765-.017-.589.385-1.417-.541-1.7a2.019,2.019,0,0,0-1.85.523,3.38,3.38,0,0,0-1.423,2.793c-.01,8.021,0,16.043-.022,24.064,0,1.028.308,1.54,1.425,1.526,5.174-.064,10.349-.085,15.523-.12M92.785,73.348h.027c0-1-.07-2.012.017-3.007.116-1.322-.611-1.679-1.656-1.427-1.942.469-4.8-1.378-5.709,1.033-.789,2.106-.29,4.8.028,7.184.279,2.086,1.817,3.1,3.991,2.9A3.337,3.337,0,0,0,92.771,76.6c.081-1.08.015-2.171.015-3.257m-17.03,68.19c0,.834,0,1.668,0,2.5.006,2.873.528,3.138,3.076,1.859.928-.465.832-1.129.839-1.85.018-1.835-.006-3.671.011-5.506.012-1.268.24-2.424-1.809-2.4-1.889.026-2.285.769-2.133,2.389.093.992.017,2,.017,3m26.523,4.936c0-2.678-.012-5.341.006-8,.008-1.195.192-2.257-1.688-2.27-1.825-.012-2.063.807-1.98,2.272a21.294,21.294,0,0,1-.018,4.253c-.417,2.834,1.054,3.7,3.681,3.75" transform="translate(-26.788 -23.574)" fill="#070706"/>
        <path id="Trazado_715413" data-name="Trazado 715413" d="M.019,191.129c0-3.6-.054-7.2.016-10.8a9.546,9.546,0,0,1,9.442-9.669c5.111.061,9.093,4.11,9.33,9.527a34.873,34.873,0,0,1,0,4.265c-.125,1.585.323,2.155,2.05,2.161s1.759-.731,1.848-2.081c.243-3.7-.964-7.538,1.056-11.085.164-.289-.243-.906-.389-1.37-.265-.838.206-1.975.677-1.909,2,.283,3.7-2.5,5.762-.528.482.461.9.064,1.349.068,1.512.013,2.51.852,2.023,2.373-.741,2.313.12,3.049,2.3,3a1.956,1.956,0,0,1,2.228,1.88c.1,1.105-.683,1.64-1.617,1.939-2.43.779-2.959,2.782-1.267,5.041a12.748,12.748,0,0,1,2.5,11.315,12.56,12.56,0,0,1-8.807,9.424c-1.649.514-2.39,1.13-2.154,2.9a19.947,19.947,0,0,1-.012,3.509,1.668,1.668,0,0,1-1.712,1.786,1.7,1.7,0,0,1-1.946-1.8,35.6,35.6,0,0,1-.008-4.265c.13-1.64-.921-1.417-1.923-1.436-1.066-.02-2.046-.072-1.949,1.492.083,1.334.025,2.677,0,4.016-.024,1.15-.531,1.983-1.768,2-1.352.021-1.925-.821-1.928-2.1-.006-2.678-.062-5.358.021-8.033.039-1.264-.265-1.855-1.644-1.728-1.139.1-2.446-.286-2.244,1.666.139,1.341-.125,2.659-1.877,2.615s-1.932-1.381-1.789-2.708c.16-1.5-.649-1.62-1.8-1.566-1.089.05-2.254-.217-2.082,1.569.126,1.308-.028,2.691-1.792,2.7-1.936.01-1.9-1.476-1.9-2.868.009-3.766,0-7.532.006-11.3m30.132-7.557q.033-2.989.067-5.977c.018-1.326-.492-2.422-1.893-2.434-1.43-.013-1.911,1.152-1.911,2.431,0,1.988.069,3.976.109,5.964a3.66,3.66,0,0,0,1.656,4.433,4.814,4.814,0,0,1,1.7,5.833,5.215,5.215,0,0,1-4.967,3.9,30.1,30.1,0,0,1-3.763.02c-1.581-.113-2.4.161-2.416,2.106-.016,2.044,1.112,1.85,2.393,1.823,1.338-.029,2.688.069,4.013-.07a9.465,9.465,0,0,0,6.571-15.515,5.236,5.236,0,0,1-1.558-2.515m-20.6-8.924c-3.583.064-5.743,2.215-5.832,6.01C3.632,184.327,3.7,188,3.7,191.668c0,5.858,0,5.858,5.876,5.407,1.253.032,2.508.028,3.758.105,1.223.075,1.836-.29,1.82-1.668-.058-5.1.08-10.208-.069-15.307-.1-3.444-2.1-5.278-5.531-5.556m12.344,19.469c.784,0,1.364.013,1.944,0,1.255-.033,2.4-.327,2.452-1.848.053-1.652-1.124-2.042-2.495-2.078a24.327,24.327,0,0,1-2.731-.029c-1.953-.274-2.4.6-2.3,2.4.149,2.806,2.274.964,3.134,1.56" transform="translate(0 -83.955)" fill="#040403"/>
        <path id="Trazado_715414" data-name="Trazado 715414" d="M97.629,25.635c.023-4.306.947-7.2,3.071-9.63.761-.869,1.071-1.274-.133-2.221-3.428-2.7-3.086-7.045.6-9.405a4.064,4.064,0,0,0,1.547-1.515A4.746,4.746,0,0,1,107.854.1a19.054,19.054,0,0,0,6.069.008,2.861,2.861,0,0,1,1.959.116c2.884,2.256,6.087,4.346,7.365,7.976a4.694,4.694,0,0,1-2.053,5.5c-1.327.914-.992,1.362-.18,2.384A12.574,12.574,0,0,1,123,29.482a13.044,13.044,0,0,1-11.09,8.22c-7.274.908-14.225-5.587-14.277-12.066m15.823,7.658c4.36-1.069,6.813-4.6,6.635-9.539-.123-3.409-.584-3.718-3.58-2.409-.685.3-1.376.584-2.064.875a14.715,14.715,0,0,1-10.851-1.692c-1.188-.727-1.437.138-1.7.968a8.975,8.975,0,0,0,2.21,9.495,8.437,8.437,0,0,0,9.349,2.3M110.7,11.145v-.012c2.257,0,4.514.023,6.77-.01a1.859,1.859,0,0,0,1.954-1.6c.208-1.1-.366-1.708-1.422-1.975a2.757,2.757,0,0,1-2.2-2.111c-.544-1.99-1.817-2.247-3.378-.98a2.314,2.314,0,0,1-3.364-.033c-1.571-1.4-2.595-.751-3.149.951a2.842,2.842,0,0,1-2.154,2.183,1.7,1.7,0,0,0-1.4,2.248c.2,1.162,1.075,1.349,2.072,1.344,2.09-.011,4.179,0,6.269,0m-5.057,5.749c2.913,2.525,6.9,2.51,10.343-.039-4.074-2.461-7.188-2.449-10.343.039" transform="translate(-48.519 0)" fill="#040403"/>
        <path id="Trazado_715415" data-name="Trazado 715415" d="M72.626,18.358q0,3.386,0,6.774c0,1.574-.683,2.679-2.34,2.6-1.516-.069-1.585.693-1.536,1.828.044,1.022-.148,1.986,1.47,1.889,1.275-.077,2.4.57,2.294,2.039-.1,1.413-1.182,1.869-2.514,1.854-2.09-.025-4.181-.017-6.272,0-1.344.009-2.371-.509-2.445-1.924a1.837,1.837,0,0,1,2.127-1.949c1.657.09,1.63-.795,1.671-2,.044-1.287-.317-1.763-1.668-1.739-1.518.028-2.216-.975-2.217-2.456q-.006-7.025,0-14.05c0-1.473.66-2.532,2.2-2.44,1.634.1,1.74-.729,1.662-1.962a21.425,21.425,0,0,1,.006-3.259c.121-1.346-.674-3.3,1.782-3.37,2.494-.075,1.792,1.869,1.909,3.244.063.747.019,1.5.01,2.257-.019,1.6-.513,3.356,2.252,3.2,1.237-.071,1.608,1.259,1.609,2.442q0,3.512,0,7.025m-3.885-.095c0-1.248-.062-2.5.017-3.741.081-1.278-.153-1.965-1.7-1.936-1.434.026-2.109.269-2.013,1.907.142,2.4.108,4.824.01,7.231-.061,1.495.193,2.187,1.972,2.19,1.826,0,1.774-.919,1.727-2.16-.044-1.163-.01-2.328-.01-3.492" transform="translate(-30.411 -0.095)" fill="#080a0b"/>
        <path id="Trazado_715416" data-name="Trazado 715416" d="M118.194,118.932c-5.175.036-10.349.057-15.524.12-1.117.014-1.428-.5-1.425-1.526.024-8.021.012-16.043.022-24.064a3.381,3.381,0,0,1,1.423-2.793,2.02,2.02,0,0,1,1.85-.523c.926.285.524,1.113.541,1.7.056,1.921.009,3.844.036,5.765a6.951,6.951,0,0,0,4.094,6.647,2.329,2.329,0,0,1,1.531,2.632c-.087,2-.026,4.01-.017,6.015.006,1.215.457,2.214,1.778,2.3,1.522.1,1.971-1.026,2.037-2.3a18.248,18.248,0,0,0,0-3.5c-.419-2.9.18-5.173,3.25-6.2.533.419.476,1.017.473,1.592q-.029,7.073-.066,14.146" transform="translate(-50.316 -44.766)" fill="#b7cf70"/>
        <path id="Trazado_715417" data-name="Trazado 715417" d="M134.536,119.046q.034-7.073.066-14.146c0-.575.06-1.173-.473-1.592,2.9-2.871,2.37-6.553,2.474-10.12.029-.988-.8-2.717.8-2.867,1.832-.171,2.792,1.3,2.807,3.123.04,4.761.022,9.521.025,14.283,0,3.09-.092,6.184.036,9.269.072,1.754-.5,2.448-2.253,2.237-1.153-.138-2.324-.13-3.486-.188" transform="translate(-66.658 -44.88)" fill="#97ad5b"/>
        <path id="Trazado_715418" data-name="Trazado 715418" d="M118.086,159.518a11.749,11.749,0,0,1-6.4.183c-1.9-.578-2.788.435-2.771,2.39.035,3.933.009,7.867.006,11.8a16.154,16.154,0,0,1-.036,2.006c-.141,1.115-.407,2.254-1.841,2.268-1.512.014-1.977-1.013-1.992-2.339-.014-1.256-.006-2.511-.006-3.766,0-4.938.078-9.878-.041-14.813-.044-1.807.556-2.281,2.28-2.214,3.593.138,7.194.079,10.792.1q0,2.191.009,4.382" transform="translate(-52.183 -77.044)" fill="#106b91"/>
        <path id="Trazado_715419" data-name="Trazado 715419" d="M131,159.545q0-2.191-.009-4.382c5.982-.256,5.982-.256,5.982,5.657q0,6.629,0,13.258a11.77,11.77,0,0,1-.034,1.749c-.181,1.19-.463,2.439-2.032,2.34-1.475-.094-1.852-1.192-1.851-2.49,0-4.419-.021-8.839.009-13.257.01-1.5-.357-2.645-2.063-2.873" transform="translate(-65.1 -77.071)" fill="#084e6b"/>
        <path id="Trazado_715420" data-name="Trazado 715420" d="M123.549,94.331c0,1.086.067,2.177-.015,3.257a3.337,3.337,0,0,1-3.286,3.424c-2.174.2-3.713-.812-3.991-2.9-.318-2.383-.817-5.078-.028-7.184.9-2.411,3.767-.563,5.709-1.033,1.045-.252,1.772.1,1.656,1.427-.088.995-.017,2-.017,3.007h-.028" transform="translate(-57.552 -44.558)" fill="#b7cf70"/>
        <path id="Trazado_715421" data-name="Trazado 715421" d="M97.3,229.18c0-1,.076-2.009-.017-3-.152-1.62.244-2.363,2.133-2.388,2.049-.028,1.821,1.129,1.809,2.4-.017,1.835.007,3.671-.011,5.506-.007.721.089,1.385-.839,1.85-2.547,1.279-3.069,1.014-3.076-1.859,0-.834,0-1.669,0-2.5" transform="translate(-48.331 -111.216)" fill="#a15c42"/>
        <path id="Trazado_715422" data-name="Trazado 715422" d="M146.365,234.166c-2.627-.054-4.1-.916-3.681-3.75a21.3,21.3,0,0,0,.018-4.253c-.083-1.465.156-2.284,1.98-2.272,1.88.013,1.7,1.075,1.688,2.27-.018,2.664-.006,5.327-.006,8" transform="translate(-70.875 -111.267)" fill="#a15c42"/>
        <path id="Trazado_715423" data-name="Trazado 715423" d="M13.2,202.721c-5.876.452-5.876.452-5.876-5.407,0-3.67-.065-7.341.022-11.008.09-3.8,2.25-5.946,5.832-6.011q.011,11.213.022,22.426" transform="translate(-3.63 -89.601)" fill="#1889b9"/>
        <path id="Trazado_715424" data-name="Trazado 715424" d="M19.009,202.721q-.011-11.213-.022-22.426c3.427.278,5.431,2.113,5.532,5.557.149,5.1.011,10.2.068,15.307.016,1.377-.6,1.742-1.82,1.667-1.25-.076-2.505-.073-3.758-.1" transform="translate(-9.436 -89.601)" fill="#084e6b"/>
        <path id="Trazado_715425" data-name="Trazado 715425" d="M48.658,198.019a5.234,5.234,0,0,0,1.557,2.515,9.465,9.465,0,0,1-6.571,15.515c-1.325.14-2.675.042-4.013.07-1.281.028-2.409.221-2.393-1.823.015-1.945.835-2.219,2.416-2.106a30.108,30.108,0,0,0,3.763-.019,5.216,5.216,0,0,0,4.967-3.9,4.813,4.813,0,0,0-1.7-5.833A3.66,3.66,0,0,1,45.03,198l3.628.016" transform="translate(-18.507 -98.402)" fill="#f08043"/>
        <path id="Trazado_715426" data-name="Trazado 715426" d="M56.248,189.725l-3.628-.016c-.04-1.987-.109-3.975-.109-5.963,0-1.28.48-2.444,1.911-2.432,1.4.013,1.911,1.108,1.893,2.435-.026,1.992-.045,3.985-.067,5.977" transform="translate(-26.096 -90.107)" fill="#f7c560"/>
        <path id="Trazado_715427" data-name="Trazado 715427" d="M40.418,215.042c-.86-.6-2.984,1.246-3.134-1.56-.1-1.8.351-2.671,2.3-2.4a24.327,24.327,0,0,0,2.731.029c1.371.036,2.547.426,2.495,2.078-.049,1.521-1.2,1.814-2.452,1.848-.579.015-1.16,0-1.944,0" transform="translate(-18.523 -104.878)" fill="#ed3c25"/>
        <path id="Trazado_715428" data-name="Trazado 715428" d="M117.161,53.3a8.436,8.436,0,0,1-9.349-2.3,8.974,8.974,0,0,1-2.21-9.495c.262-.829.511-1.695,1.7-.968a14.714,14.714,0,0,0,10.85,1.692,36.164,36.164,0,0,1-.99,11.073" transform="translate(-52.226 -20.011)" fill="#a15c42"/>
        <path id="Trazado_715429" data-name="Trazado 715429" d="M115.324,14.758c-2.09,0-4.179-.008-6.269,0-1,.005-1.877-.182-2.072-1.344a1.7,1.7,0,0,1,1.4-2.248,2.842,2.842,0,0,0,2.154-2.183c.554-1.7,1.578-2.355,3.149-.951a2.315,2.315,0,0,0,3.365.033c1.56-1.267,2.834-1.01,3.377.98a2.757,2.757,0,0,0,2.2,2.111c1.056.268,1.63.871,1.422,1.975a1.858,1.858,0,0,1-1.954,1.6c-2.256.033-4.513.01-6.77.01v.012" transform="translate(-53.143 -3.614)" fill="#5e302b"/>
        <path id="Trazado_715430" data-name="Trazado 715430" d="M129.086,53.673a36.164,36.164,0,0,0,.99-11.073c.689-.291,1.38-.575,2.064-.875,3-1.309,3.458-1,3.58,2.409.178,4.944-2.276,8.47-6.635,9.539" transform="translate(-64.152 -20.38)" fill="#82443b"/>
        <path id="Trazado_715431" data-name="Trazado 715431" d="M113.561,31.731c3.156-2.488,6.269-2.5,10.343-.039-3.44,2.548-7.431,2.563-10.343.039" transform="translate(-56.436 -14.838)" fill="#5e302b"/>
        <path id="Trazado_715432" data-name="Trazado 715432" d="M72.534,30.509c0,1.164-.034,2.33.01,3.492.047,1.241.1,2.163-1.727,2.16-1.78,0-2.033-.7-1.972-2.19.1-2.407.131-4.828-.01-7.231-.1-1.638.578-1.881,2.013-1.907,1.551-.029,1.785.658,1.7,1.936-.079,1.242-.017,2.493-.017,3.741" transform="translate(-34.204 -12.34)" fill="#49c8fe"/>
      </g>
    </g>
  </g>
</svg>
