<svg xmlns="http://www.w3.org/2000/svg" xmlns:xlink="http://www.w3.org/1999/xlink" width="181" height="182" viewBox="0 0 181 182">
  <defs>
    <clipPath id="clip-path">
      <rect id="Rectángulo_353293" data-name="Rectángulo 353293" width="151.888" height="162.278" fill="none"/>
    </clipPath>
  </defs>
  <g id="Grupo_1003273" data-name="Grupo 1003273" transform="translate(-404 -1139)">
    <ellipse id="Elipse_5720" data-name="Elipse 5720" cx="90.5" cy="91" rx="90.5" ry="91" transform="translate(404 1139)" fill="#abffff"/>
    <g id="Grupo_1003170" data-name="Grupo 1003170" transform="translate(418.056 1148.861)">
      <g id="Grupo_1003169" data-name="Grupo 1003169" clip-path="url(#clip-path)">
        <path id="Trazado_715762" data-name="Trazado 715762" d="M51.947,47.6l5.113-4.737c2.125,1.465,3.611.148,5.207-1.1,13.791-10.774,29.39-15.68,46.794-13.3,25.248,3.454,42.948,17.278,51.535,41.19,8.5,23.681,3.707,45.574-13.346,64.037-19.2,20.783-48.564,25.6-74.076,13-1.852-.914-3.565-1.707-5.426-.167a16.232,16.232,0,0,1-4.886-3.352c1.815-1.087,2.939-2.409,1.308-4.468a2.963,2.963,0,0,0-3.021-.836c-3.627.659-4.15-1.087-4.117-4.289.159-15.6.071-31.2.071-46.794,0-11.235-.043-22.471.031-33.705.018-2.751-.687-4.5-3.826-4.289-.8.054-1.606,0-1.363-1.194m84.8,23.353a3.531,3.531,0,0,0-1.332-2.515q-2.548-2.536-5.085-5.084c-3.444-3.437-3.842-3.441-7.307.022Q106.149,80.247,89.313,97.156c-1.559,1.576-2.565,1.877-4.122.066-1.77-2.06-3.878-3.826-5.725-5.826-1.937-2.1-3.695-2.381-5.729-.1a68.864,68.864,0,0,1-5.545,5.544c-2.262,2.016-2.012,3.72.048,5.731q8.069,7.877,15.946,15.95c2.138,2.2,3.888,2.2,6.055.017Q112.6,96.056,135.058,73.677a4.887,4.887,0,0,0,1.692-2.721" transform="translate(-17.903 -9.616)" fill="#60de99"/>
        <path id="Trazado_715763" data-name="Trazado 715763" d="M34.045,37.987c-.244,1.192.564,1.247,1.363,1.193,3.139-.212,3.843,1.539,3.825,4.29-.075,11.234-.031,22.47-.031,33.7,0,15.6.086,31.2-.071,46.794-.033,3.2.489,4.948,4.117,4.289a2.963,2.963,0,0,1,3.021.836c1.632,2.058.508,3.38-1.308,4.468-3.053-.031-6.109,0-9.158-.119-1.4-.053-1.885.358-1.869,1.821q.108,9.981,0,19.963c-.015,1.444.428,1.917,1.855,1.835,1.848-.107,3.707-.024,5.562-.022,1.79,0,3.047.8,3.011,2.663s-1.334,2.575-3.11,2.574q-17.834-.015-35.669-.01c-1.8,0-3.009-.852-2.967-2.707.038-1.665,1.177-2.476,2.832-2.515.436-.01.873,0,1.309-.009,6.261-.069,6.261-.069,6.261-6.206,0-5.018-.081-10.038.043-15.053.046-1.854-.493-2.461-2.352-2.346-2.5.154-5.015.018-7.524.044-1.761.018-3.119-.65-3.18-2.5-.068-2.065,1.365-2.681,3.26-2.76,4.518-.192,4.516-.237,4.516-4.653q0-39.927-.031-79.854c-.006-2.818.51-4.829,3.9-4.5,1.27.123,1.4-.573,1.383-1.577q-.063-2.944,0-5.89c.082-4.092,2-6.913,5.954-7.943,1.7-.443,1.935-1.131,1.919-2.6-.062-5.781,0-11.563-.039-17.345C20.846,1.957,21.052.086,23.348,0c2.53-.091,2.787,1.856,2.774,3.882q-.054,8.672,0,17.345c.006.959-.387,1.893,1.277,2.417,5.122,1.614,6.536,3.819,6.566,9.107.009,1.744.05,3.488.077,5.233m-.189,37.858c.036-9.808.041-19.615.139-29.422.016-1.556-.419-2.05-2-2.025q-8.5.132-17,0c-1.584-.025-2.019.469-2,2.025.1,9.807.1,19.615.14,29.422-.036,16.8-.053,33.6-.139,50.394-.008,1.566.449,2.048,2.021,2.024,5.671-.084,11.345-.058,17.016-.014,1.277.01,2.021-.164,1.97-1.734-.1-3.22-.031-6.445-.031-9.375-4.705,1.09-9.261.614-13.778.434a2.2,2.2,0,0,1-1.885-2.353,2.253,2.253,0,0,1,2.03-2.563c4.5-.029,9.069-.816,13.514.614v-6.918c-3.649,1.648-7.372.851-11.014.751a2.2,2.2,0,0,1-1.911-2.33,2.244,2.244,0,0,1,2-2.58c3.637-.045,7.368-.929,10.937.785V96.129c-4.536,1.247-9.1.623-13.619.514A2.211,2.211,0,0,1,18.3,94.329a2.243,2.243,0,0,1,1.975-2.6c4.515-.1,9.087-.76,13.58.536Zm-5.129,69.738V141.34c0-8.334,0-8.285-8.5-7.914-1.559.068-2.038.476-2.006,2.033.092,4.568.033,9.138.033,13.707,0,8.334,0,8.285,8.5,7.915,1.558-.068,2.059-.474,2.005-2.035-.107-3.151-.032-6.308-.031-9.463M23.374,39.193c5.351,0,5.351,0,5.353-3.92,0-6.516-.024-6.552-5.122-6.555-5.237,0-5.351.117-5.353,5.668,0,4.808,0,4.808,5.121,4.808" transform="translate(0 0)" fill="#242021"/>
        <path id="Trazado_715764" data-name="Trazado 715764" d="M70.161,143.75c1.861-1.54,3.574-.747,5.426.167,25.512,12.594,54.88,7.781,74.076-13,17.053-18.463,21.85-40.355,13.346-64.037-8.587-23.913-26.287-37.737-51.535-41.19-17.4-2.381-33,2.525-46.794,13.3-1.6,1.247-3.081,2.563-5.207,1.1-1.327-2.215-.168-3.607,1.519-4.95,14.077-11.2,30.12-16.435,48.031-15.118a68.028,68.028,0,0,1,61.589,53.538c8.619,38.936-18.763,77.267-58.474,81.946a68.157,68.157,0,0,1-39.545-7.147c-2.045-1.032-3.132-2.268-2.432-4.6" transform="translate(-20.315 -6.836)" fill="#272525"/>
        <path id="Trazado_715765" data-name="Trazado 715765" d="M144.483,88.282A4.867,4.867,0,0,1,142.794,91q-22.424,22.416-44.818,44.862c-2.166,2.179-3.916,2.179-6.055-.017q-7.865-8.08-15.945-15.95c-2.06-2.011-2.31-3.716-.048-5.731a68.545,68.545,0,0,0,5.545-5.544c2.035-2.28,3.793-2,5.73.1,1.846,2,3.955,3.765,5.725,5.826,1.556,1.811,2.563,1.511,4.121-.066Q113.829,97.516,130.762,80.7c3.465-3.463,3.862-3.459,7.306-.022q2.545,2.54,5.087,5.084a3.523,3.523,0,0,1,1.328,2.517m-6.281-.437a34.26,34.26,0,0,0-3.211-2.757c-1.178-.792-1.645.564-2.217,1.133q-17.382,17.291-34.7,34.645c-2.7,2.7-3.5,2.7-6.154.079-2.094-2.065-4.27-4.063-6.2-6.274-1.465-1.676-2.293-.743-3.26.376-.826.954-2.407,1.564-.628,3.248,4.033,3.818,7.934,7.782,11.786,11.785,1.224,1.272,1.881.764,2.859-.217q20.081-20.14,40.208-40.231c.456-.456.839-.985,1.518-1.788" transform="translate(-25.638 -26.94)" fill="#272324"/>
        <path id="Trazado_715766" data-name="Trazado 715766" d="M40.694,115.781V132.2c-4.493-1.3-9.065-.634-13.58-.536a2.244,2.244,0,0,0-1.975,2.6,2.211,2.211,0,0,0,1.938,2.313c4.517.109,9.083.733,13.62-.513v6.851c-3.569-1.714-7.3-.831-10.937-.785a2.246,2.246,0,0,0-2,2.58,2.2,2.2,0,0,0,1.911,2.33c3.643.1,7.364.9,11.014-.752v6.919c-4.445-1.43-9.011-.644-13.513-.614a2.252,2.252,0,0,0-2.03,2.563,2.2,2.2,0,0,0,1.884,2.352c4.517.179,9.073.656,13.779-.434,0,2.93-.073,6.155.031,9.375.051,1.571-.692,1.744-1.97,1.735-5.672-.045-11.345-.071-17.017.014-1.571.023-2.028-.458-2.02-2.025.085-16.8.1-33.6.138-50.393h20.73" transform="translate(-6.838 -39.936)" fill="#cfe0ec"/>
        <path id="Trazado_715767" data-name="Trazado 715767" d="M40.693,99.222H19.963c-.035-9.808-.041-19.615-.139-29.422-.016-1.556.42-2.05,2-2.025q8.5.133,17,0c1.584-.024,2.019.47,2,2.025-.1,9.807-.1,19.615-.139,29.422" transform="translate(-6.838 -23.377)" fill="#f0f1f1"/>
        <path id="Trazado_715768" data-name="Trazado 715768" d="M38.32,215.774c0,3.155-.076,6.312.032,9.464.053,1.56-.447,1.966-2.005,2.034-8.5.37-8.5.419-8.5-7.914,0-4.569.06-9.14-.032-13.707-.031-1.558.447-1.966,2.006-2.034,8.5-.37,8.5-.42,8.5,7.914v4.243" transform="translate(-9.594 -70.191)" fill="#e5e6e7"/>
        <path id="Trazado_715769" data-name="Trazado 715769" d="M32.985,54.314c-5.123,0-5.123,0-5.121-4.808,0-5.551.115-5.672,5.353-5.668,5.1,0,5.126.039,5.122,6.555,0,3.92,0,3.92-5.353,3.92" transform="translate(-9.611 -15.121)" fill="#88b2d1"/>
        <path id="Trazado_715770" data-name="Trazado 715770" d="M141.725,91.4c-.679.8-1.062,1.332-1.518,1.788Q120.1,113.3,100,133.415c-.979.981-1.635,1.489-2.859.217-3.852-4-7.753-7.966-11.786-11.785-1.779-1.684-.2-2.293.628-3.248.968-1.12,1.8-2.052,3.26-.376,1.931,2.21,4.107,4.209,6.2,6.274,2.657,2.619,3.452,2.618,6.154-.079q17.349-17.323,34.7-34.645c.573-.569,1.04-1.925,2.217-1.133a34.258,34.258,0,0,1,3.211,2.757" transform="translate(-29.161 -30.49)" fill="#fbfbfb"/>
      </g>
    </g>
  </g>
</svg>
