<svg xmlns="http://www.w3.org/2000/svg" xmlns:xlink="http://www.w3.org/1999/xlink" width="165" height="166" viewBox="0 0 165 166">
  <defs>
    <clipPath id="clip-path">
      <rect id="Rectángulo_353191" data-name="Rectángulo 353191" width="80.724" height="145.506" fill="none"/>
    </clipPath>
  </defs>
  <g id="Grupo_1003243" data-name="Grupo 1003243" transform="translate(-1028.999 -668.999)">
    <ellipse id="Elipse_157" data-name="Elipse 157" cx="82.5" cy="83" rx="82.5" ry="83" transform="translate(1028.999 668.999)" fill="#ffe8ce"/>
    <g id="Grupo_1003051" data-name="Grupo 1003051" transform="translate(1071.638 679.246)">
      <g id="Grupo_1003050" data-name="Grupo 1003050" clip-path="url(#clip-path)">
        <path id="Trazado_715198" data-name="Trazado 715198" d="M3.464,54.513q-.007-2.811-.015-5.621c1.688-.017,2.692-.824,2.74-2.549q.082-2.973,0-5.95c-.046-1.734-1.055-2.528-2.747-2.528q0-1.848,0-3.7c2.08-.007,2.787-1.192,2.772-3.109-.031-3.976-.01-7.952-.008-11.928C6.213,11.8,9.023,8.956,16.256,8.954q20.307-.005,40.613.007c4.54.007,9.08.1,13.62.161.079.46,0,1.05.262,1.36,2.344,2.8,2.613,6.1,2.61,9.57q-.054,54.883,0,109.766c.006,5.456.494,10.955-3.435,15.511q-28.107.054-56.215.1a6.947,6.947,0,0,1-4.18-1.561c-2.586-1.928-3.354-4.578-3.349-7.714.047-25.842.014-51.684.05-77.525,0-2.1-.27-3.8-2.768-4.117M51.119,92.431q0-2.815,0-5.631a2.788,2.788,0,0,0,2.381-3c-.053-14.108.038-28.218-.09-42.325a11.051,11.051,0,0,0-8.67-10.318c-7.43-1.713-14.019,3.6-14.035,11.455q-.065,31.389.014,62.778a5.072,5.072,0,0,1-1.7,4.178,17.592,17.592,0,0,0-5.631,12.621,18.685,18.685,0,0,0,34.745,10.222,18.37,18.37,0,0,0-2.854-22.7,5.318,5.318,0,0,1-1.839-4.4c.131-3.214-.009-6.438.054-9.656.034-1.749-.465-2.969-2.375-3.218M72.447,35.715a7.644,7.644,0,1,0-15.286-.283,7.644,7.644,0,0,0,15.286.283M51.191,20.259c.036-4.718-2.744-7.989-6.881-8.1-4.224-.11-7.332,3.288-7.318,8,.014,4.6,2.984,7.938,7.081,7.967,4.16.029,7.083-3.2,7.119-7.871M31.467,27.824c1.723-.01,4.479-3.848,4.027-5.323-.109-.355-.157-.824-.621-.823-1.724,0-1.265-1.254-1.289-2.2-.034-1.418.082-2.846-.041-4.254-.081-.924.66-2.461-.649-2.65-1.45-.209-3.311-.931-4.507.581-2.108,2.666-4.184,5.376-6.013,8.235-1.285,2.008-.238,3.525,2.154,3.548,1.23.012,2.46.025,3.689,0,.853-.02,1.553.087,1.389,1.194-.256,1.727.8,1.835,1.86,1.694m30.763-11.8a4.841,4.841,0,0,0-9.678-.137,4.846,4.846,0,0,0,9.678.137M19.9,47.5v.065c.937,0,1.877.044,2.81-.01,1.481-.086,2.618-.758,2.578-2.364S24.1,43,22.586,43.027c-1.874.028-3.749-.02-5.621.05a2.046,2.046,0,0,0-2.163,2.11,2.094,2.094,0,0,0,2.013,2.283A21.116,21.116,0,0,0,19.9,47.5m.376-14.122v-.013c-1.041,0-2.085-.04-3.123.01-1.419.067-2.351.747-2.343,2.269a2.076,2.076,0,0,0,2.179,2.16,52.631,52.631,0,0,0,6.239-.011,2.083,2.083,0,0,0,2.07-2.278,2.055,2.055,0,0,0-2.182-2.131c-.946-.03-1.893-.006-2.839-.006m-.3,23.921c0-.019,0-.038,0-.057.937,0,1.878.052,2.81-.012,1.5-.1,2.574-.848,2.5-2.44-.068-1.431-1.061-2.095-2.5-2.079-1.967.022-3.938-.033-5.9.054a2.189,2.189,0,0,0-.267,4.345,23.633,23.633,0,0,0,3.356.189m.091,5.1c-.938,0-1.875-.01-2.812,0-1.414.017-2.37.653-2.443,2.13a2.14,2.14,0,0,0,2.268,2.341,51.841,51.841,0,0,0,5.9.009,2.182,2.182,0,0,0,2.306-2.326A2.1,2.1,0,0,0,22.879,62.4c-.937.008-1.875,0-2.812,0m-.011,9.7c-1.042,0-2.086-.051-3.124.013a2.055,2.055,0,0,0-2.126,2.176,1.976,1.976,0,0,0,1.832,2.177,43.759,43.759,0,0,0,6.8-.008,2.192,2.192,0,0,0-.255-4.356c-1.041-.034-2.083-.007-3.124,0m.084,9.658v.013c-1.124,0-2.256-.08-3.371.022a2.035,2.035,0,0,0-1.965,2.015,1.965,1.965,0,0,0,1.657,2.278,22.5,22.5,0,0,0,7.259-.025,1.97,1.97,0,0,0,1.555-2.351,2.046,2.046,0,0,0-2.044-1.941c-1.028-.057-2.061-.012-3.092-.012m.02,9.659c-1.041,0-2.085-.045-3.123.012a2.1,2.1,0,0,0-2.223,2.1,2.036,2.036,0,0,0,2,2.314,46.915,46.915,0,0,0,6.522-.007,2.042,2.042,0,0,0,1.943-2.367A2.111,2.111,0,0,0,23,91.424c-.946-.022-1.893,0-2.84,0m-.07,14.164v.013c.937,0,1.875.037,2.81-.009a2.182,2.182,0,0,0,2.374-2.236,2.115,2.115,0,0,0-2.32-2.262c-1.966-.04-3.936-.054-5.9.009a2.089,2.089,0,0,0-2.233,2.061,2.136,2.136,0,0,0,2.181,2.4,30.217,30.217,0,0,0,3.089.021" transform="translate(-1.71 -4.442)" fill="#d6eaf0"/>
        <path id="Trazado_715199" data-name="Trazado 715199" d="M1.754,50.071c2.5.317,2.77,2.014,2.767,4.116-.036,25.842,0,51.684-.05,77.526-.006,3.136.762,5.786,3.349,7.713A6.944,6.944,0,0,0,12,140.988q28.107-.039,56.214-.1c5.129-.163,8.016-3.449,8.017-9.218q.013-58.9,0-117.8c0-.567.007-1.136-.031-1.7a7.854,7.854,0,0,0-7.426-7.486c-4.54-.056-9.08-.154-13.62-.161q-20.307-.032-40.614-.007C7.312,4.514,4.5,7.363,4.5,14.689c0,3.976-.024,7.952.008,11.928.015,1.917-.693,3.1-2.772,3.109A2.755,2.755,0,0,1,.012,26.788c.051-4.921-.095-9.846.065-14.762C.283,5.664,5.556.161,11.926.11Q40.315-.116,68.707.1c6.369.044,11.557,5.428,11.981,11.822.056.848.031,1.7.031,2.554q0,58.344,0,116.688c0,9.317-5.04,14.333-14.392,14.336q-26.12.006-52.24,0C5.135,145.5.033,140.382.031,131.412Q.021,92.8.014,54.188c0-1.659-.05-3.253,1.739-4.116" transform="translate(0 0)" fill="#073347"/>
        <path id="Trazado_715200" data-name="Trazado 715200" d="M1.763,66.375c1.691,0,2.7.794,2.747,2.528q.078,2.973,0,5.95c-.047,1.725-1.051,2.532-2.74,2.549C.925,76.954.115,76.42.093,75.363Q.02,71.885.094,68.4a2.336,2.336,0,0,1,1.669-2.029" transform="translate(-0.028 -32.952)" fill="#093449"/>
        <path id="Trazado_715201" data-name="Trazado 715201" d="M70.771,114.008c1.91.249,2.409,1.469,2.375,3.218-.063,3.218.077,6.442-.054,9.656a5.318,5.318,0,0,0,1.839,4.4,18.37,18.37,0,0,1,2.854,22.7A18.685,18.685,0,0,1,43.04,143.762a17.592,17.592,0,0,1,5.631-12.621,5.073,5.073,0,0,0,1.7-4.178q-.066-31.389-.014-62.778c.016-7.857,6.6-13.167,14.035-11.455a11.052,11.052,0,0,1,8.671,10.318c.127,14.107.036,28.217.089,42.325a2.788,2.788,0,0,1-2.381,3c-1.992-.725-2.13-2.321-2.125-4.141q.06-19.97,0-39.941c-.02-5.5-4.187-8.592-9.2-6.963a1.078,1.078,0,0,0-1.121.551l.011-.006-.688.5.022-.04c-2.607,1.479-2.884,3.951-2.884,6.594q-.009,33.332-.054,66.663l.062-.01-.5.72-1.14.927a13.808,13.808,0,0,0-.546,21.958l.534.429,1.15.863a14.072,14.072,0,0,0,18.895-3.551,14.234,14.234,0,0,0-2.247-19.366c-1.164-.99-2.334-1.809-2.3-3.615.08-4.337.034-8.676.024-13.014a2.645,2.645,0,0,1,2.1-2.927" transform="translate(-21.361 -26.018)" fill="#093242"/>
        <path id="Trazado_715202" data-name="Trazado 715202" d="M59.624,160.043l-.535-.43a3.262,3.262,0,0,0-.5-2.128c-3.578-5.866-3.149-11.733.106-17.565.4-.724,1.112-1.308.945-2.265l1.14-.928.5-.72-.061.011c1.877.176,1.9-1.119,1.9-2.41.006-4.544-.109-9.091.023-13.632.553-19.069-1.275-38.179,1.018-57.216l-.022.04.688-.5-.01.006a1.133,1.133,0,0,0,1.121-.552c5.009-1.628,9.177,1.462,9.2,6.964q.073,19.97,0,39.94c-.006,1.82.132,3.417,2.125,4.141q0,2.816,0,5.632a2.644,2.644,0,0,0-2.1,2.926c.01,4.339.056,8.678-.024,13.014-.033,1.807,1.136,2.625,2.3,3.615a14.234,14.234,0,0,1,2.247,19.366,14.072,14.072,0,0,1-18.9,3.55c-.1-.67-.554-.857-1.149-.863m6.362-71.257v7.264c-.019,13.139-.078,26.279-.016,39.418.01,1.994-.319,3.134-2.406,4.038C58.918,141.517,56.77,146.6,58,151.561a10.659,10.659,0,0,0,10.509,7.876,10.475,10.475,0,0,0,10.048-8.752c.888-5.263-1.578-8.875-5.851-11.547q.029-15.029.056-30.058.014-19.567,0-39.134c0-1.989.023-3.986-2.9-3.641-2.846-.918-3.908-.248-3.919,2.656-.026,6.608.024,13.217.042,19.825" transform="translate(-27.837 -30.444)" fill="#f5b705"/>
        <path id="Trazado_715203" data-name="Trazado 715203" d="M136.034,9.293a7.855,7.855,0,0,1,7.427,7.486c.038.566.03,1.135.03,1.7q0,58.9,0,117.8c0,5.769-2.889,9.055-8.017,9.218,3.929-4.556,3.441-10.055,3.435-15.511q-.06-54.883,0-109.767c0-3.467-.266-6.766-2.61-9.569-.259-.31-.183-.9-.262-1.36" transform="translate(-67.256 -4.614)" fill="#bcd8e4"/>
        <path id="Trazado_715204" data-name="Trazado 715204" d="M125.406,54.381A7.644,7.644,0,0,1,110.12,54.1a7.644,7.644,0,1,1,15.286.284m-7.5,3.038a3.056,3.056,0,0,0,3.013-3.388,3.188,3.188,0,0,0-6.37.25c.021,1.958,1.28,3.06,3.357,3.138" transform="translate(-54.669 -23.108)" fill="#073145"/>
        <path id="Trazado_715205" data-name="Trazado 715205" d="M84.265,23.427c-.036,4.669-2.959,7.9-7.119,7.871-4.1-.029-7.067-3.37-7.08-7.967-.014-4.712,3.094-8.11,7.318-8,4.138.107,6.918,3.378,6.881,8.1m-3.976-.4c-.206-1.626-.354-3.739-2.984-4.033-1.819-.2-3.266,1.667-3.185,4.206.064,2.023.375,4.128,2.978,4.437,1.806.214,3.145-1.671,3.191-4.61" transform="translate(-34.785 -7.61)" fill="#073347"/>
        <path id="Trazado_715206" data-name="Trazado 715206" d="M49.584,31.05c-1.064.14-2.115.033-1.86-1.694.164-1.108-.536-1.215-1.389-1.194-1.229.029-2.459.015-3.688,0-2.392-.023-3.439-1.54-2.155-3.548,1.829-2.859,3.905-5.57,6.013-8.235,1.2-1.512,3.056-.79,4.506-.581,1.308.189.568,1.726.649,2.65.122,1.408.007,2.836.041,4.254.023.945-.435,2.2,1.288,2.2.465,0,.513.468.621.823.452,1.475-2.3,5.313-4.027,5.323m-2.117-10.8c-1.121,1.706-2.358,2.823-2.929,4.46,3.481.212,3.481.212,2.929-4.46" transform="translate(-19.828 -7.668)" fill="#053146"/>
        <path id="Trazado_715207" data-name="Trazado 715207" d="M110.646,18.3a4.846,4.846,0,0,1-9.678-.137,4.841,4.841,0,0,1,9.678.137m-5.007-2.482a2.318,2.318,0,0,0-2.226,2.675,2.167,2.167,0,0,0,2.474,2.155A2.231,2.231,0,0,0,108.155,18c-.124-1.461-1.05-2.118-2.516-2.18" transform="translate(-50.126 -6.712)" fill="#093449"/>
        <path id="Trazado_715208" data-name="Trazado 715208" d="M31.094,81.1a21.046,21.046,0,0,1-3.083-.031A2.093,2.093,0,0,1,26,78.788a2.045,2.045,0,0,1,2.163-2.111c1.872-.069,3.747-.022,5.621-.05,1.516-.024,2.661.547,2.7,2.165s-1.1,2.278-2.578,2.364c-.934.054-1.873.01-2.81.01V81.1" transform="translate(-12.905 -38.042)" fill="#093449"/>
        <path id="Trazado_715209" data-name="Trazado 715209" d="M31.479,57.441c.946,0,1.893-.024,2.839.006A2.056,2.056,0,0,1,36.5,59.579a2.082,2.082,0,0,1-2.07,2.277,52.533,52.533,0,0,1-6.239.011,2.077,2.077,0,0,1-2.179-2.161c-.008-1.521.924-2.2,2.343-2.268,1.039-.049,2.082-.01,3.123-.01v.013" transform="translate(-12.914 -28.503)" fill="#093449"/>
        <path id="Trazado_715210" data-name="Trazado 715210" d="M31.174,100.45a23.629,23.629,0,0,1-3.356-.188,2.19,2.19,0,0,1,.267-4.345c1.964-.087,3.934-.032,5.9-.053,1.436-.016,2.43.647,2.5,2.079.076,1.591-1,2.336-2.5,2.439-.933.064-1.873.012-2.81.012,0,.019,0,.038,0,.057" transform="translate(-12.907 -47.592)" fill="#093449"/>
        <path id="Trazado_715211" data-name="Trazado 715211" d="M31.272,115.1c.938,0,1.875.006,2.812,0a2.1,2.1,0,0,1,2.407,2.159,2.182,2.182,0,0,1-2.306,2.326,51.959,51.959,0,0,1-5.9-.009,2.141,2.141,0,0,1-2.268-2.341c.073-1.478,1.03-2.113,2.443-2.131.938-.011,1.875,0,2.812,0" transform="translate(-12.914 -57.139)" fill="#093449"/>
        <path id="Trazado_715212" data-name="Trazado 715212" d="M31.258,134.349c1.042,0,2.084-.029,3.124.005a2.192,2.192,0,0,1,.256,4.356,43.7,43.7,0,0,1-6.8.007,1.975,1.975,0,0,1-1.833-2.176,2.056,2.056,0,0,1,2.126-2.177c1.038-.063,2.083-.013,3.124-.015" transform="translate(-12.911 -66.69)" fill="#073347"/>
        <path id="Trazado_715213" data-name="Trazado 715213" d="M31.332,153.533c1.031,0,2.064-.045,3.092.012a2.046,2.046,0,0,1,2.044,1.941,1.969,1.969,0,0,1-1.555,2.351,22.5,22.5,0,0,1-7.259.025A1.965,1.965,0,0,1,26,155.584a2.035,2.035,0,0,1,1.965-2.015c1.115-.1,2.246-.022,3.371-.022v-.013" transform="translate(-12.901 -76.214)" fill="#073347"/>
        <path id="Trazado_715214" data-name="Trazado 715214" d="M31.365,172.716c.947,0,1.894-.018,2.84,0a2.111,2.111,0,0,1,2.278,2.054,2.042,2.042,0,0,1-1.944,2.366,46.83,46.83,0,0,1-6.522.007,2.036,2.036,0,0,1-2-2.314,2.1,2.1,0,0,1,2.222-2.1c1.039-.056,2.083-.012,3.124-.012" transform="translate(-12.914 -85.738)" fill="#053146"/>
        <path id="Trazado_715215" data-name="Trazado 715215" d="M31.3,196.4a30.219,30.219,0,0,1-3.089-.021,2.136,2.136,0,0,1-2.181-2.4,2.089,2.089,0,0,1,2.233-2.061c1.965-.063,3.934-.049,5.9-.009a2.115,2.115,0,0,1,2.32,2.262,2.182,2.182,0,0,1-2.374,2.236c-.935.045-1.873.009-2.81.009V196.4" transform="translate(-12.919 -95.254)" fill="#053146"/>
        <path id="Trazado_715216" data-name="Trazado 715216" d="M69.224,64.181c-2.294,19.036-.465,38.147-1.018,57.216-.132,4.54-.017,9.088-.023,13.632,0,1.291-.021,2.586-1.9,2.41q.03-33.332.054-66.664c0-2.643.277-5.115,2.884-6.594" transform="translate(-32.908 -31.863)" fill="#f1991d"/>
        <path id="Trazado_715217" data-name="Trazado 715217" d="M57.516,212.914c.167.957-.541,1.541-.944,2.265-3.255,5.832-3.684,11.7-.107,17.565a3.263,3.263,0,0,1,.505,2.128,13.808,13.808,0,0,1,.546-21.958" transform="translate(-25.718 -105.703)" fill="#f1991d"/>
        <path id="Trazado_715218" data-name="Trazado 715218" d="M74.544,62.18a1.133,1.133,0,0,1-1.121.551,1.079,1.079,0,0,1,1.121-.551" transform="translate(-36.451 -30.867)" fill="#f1991d"/>
        <path id="Trazado_715219" data-name="Trazado 715219" d="M63.126,257.374c.595.005,1.052.193,1.149.863l-1.149-.863" transform="translate(-31.339 -127.775)" fill="#f1991d"/>
        <path id="Trazado_715220" data-name="Trazado 715220" d="M72.765,63.27l-.688.5.688-.5" transform="translate(-35.783 -31.411)" fill="#f1991d"/>
        <path id="Trazado_715221" data-name="Trazado 715221" d="M65.914,209.643l-.5.72.5-.72" transform="translate(-32.474 -104.079)" fill="#f1991d"/>
        <path id="Trazado_715222" data-name="Trazado 715222" d="M74.269,172.105c4.273,2.672,6.739,6.284,5.851,11.547A10.475,10.475,0,0,1,70.073,192.4a10.659,10.659,0,0,1-10.509-7.876c-1.229-4.963.919-10.044,5.565-12.055,2.087-.9,2.416-2.044,2.406-4.038-.062-13.139,0-26.279.016-39.419,1.369-1.476,2.77-1.887,4.239-.133.077,1.124.22,2.248.221,3.373.016,12.261.038,24.523-.022,36.783-.009,1.75.258,2.978,2.281,3.067m-4.489,3.663a6.081,6.081,0,1,0-.091,12.162,6.081,6.081,0,1,0,.091-12.162" transform="translate(-29.402 -63.412)" fill="#082f41"/>
        <path id="Trazado_715223" data-name="Trazado 715223" d="M86.3,144.01c-2.023-.089-2.29-1.316-2.281-3.067.061-12.261.038-24.522.022-36.783,0-1.124-.144-2.248-.22-3.372a26.94,26.94,0,0,0,0-6.994c.508-7.01.141-14.029.172-21.044a5.224,5.224,0,0,0-.534-1.575c2.923-.345,2.9,1.652,2.9,3.641q0,19.567,0,39.134-.011,15.029-.055,30.058" transform="translate(-41.434 -35.317)" fill="#f4991d"/>
        <path id="Trazado_715224" data-name="Trazado 715224" d="M79.589,70.837a5.187,5.187,0,0,1,.534,1.575c-.031,7.015.336,14.033-.171,21.043-1.47,1.762-2.872,1.352-4.24-.135-.019-6.608-.068-13.217-.042-19.825.011-2.9,1.074-3.574,3.919-2.656" transform="translate(-37.563 -34.977)" fill="#082f41"/>
        <path id="Trazado_715225" data-name="Trazado 715225" d="M75.761,115.862c1.368,1.487,2.77,1.9,4.24.135a26.969,26.969,0,0,1,0,6.995c-1.47-1.755-2.872-1.344-4.24.132q0-3.63,0-7.262" transform="translate(-37.612 -57.521)" fill="#d5323c"/>
        <path id="Trazado_715226" data-name="Trazado 715226" d="M122.269,61.852c-2.077-.078-3.336-1.18-3.357-3.138a3.188,3.188,0,0,1,6.37-.25,3.056,3.056,0,0,1-3.013,3.388" transform="translate(-59.034 -27.541)" fill="#ee3c4a"/>
        <path id="Trazado_715227" data-name="Trazado 715227" d="M84.282,26.627c-.046,2.939-1.385,4.824-3.191,4.61-2.6-.309-2.914-2.414-2.978-4.437-.081-2.539,1.366-4.409,3.185-4.206,2.63.294,2.779,2.406,2.984,4.033" transform="translate(-38.778 -11.21)" fill="#d0e4eb"/>
        <path id="Trazado_715228" data-name="Trazado 715228" d="M52,24.982c.552,4.672.552,4.672-2.929,4.46.571-1.638,1.808-2.754,2.929-4.46" transform="translate(-24.362 -12.402)" fill="#d0e4eb"/>
        <path id="Trazado_715229" data-name="Trazado 715229" d="M108.04,18.08c1.466.061,2.392.719,2.516,2.18a2.231,2.231,0,0,1-2.268,2.65,2.167,2.167,0,0,1-2.474-2.155,2.318,2.318,0,0,1,2.226-2.675" transform="translate(-52.527 -8.976)" fill="#d0e4eb"/>
        <path id="Trazado_715230" data-name="Trazado 715230" d="M74.091,223.131A6.081,6.081,0,1,1,74,235.293a6.081,6.081,0,1,1,.091-12.162" transform="translate(-33.712 -110.775)" fill="#f63e4b"/>
      </g>
    </g>
  </g>
</svg>
