<svg xmlns="http://www.w3.org/2000/svg" xmlns:xlink="http://www.w3.org/1999/xlink" width="129" height="129" viewBox="0 0 129 129">
  <defs>
    <clipPath id="clip-path">
      <rect id="Rectángulo_353240" data-name="Rectángulo 353240" width="105.45" height="104.356" fill="none"/>
    </clipPath>
  </defs>
  <g id="Grupo_1003254" data-name="Grupo 1003254" transform="translate(-6528 6857)">
    <circle id="Elipse_5704" data-name="Elipse 5704" cx="64.5" cy="64.5" r="64.5" transform="translate(6528 -6857)" fill="#ffc403"/>
    <g id="Grupo_1003112" data-name="Grupo 1003112" transform="translate(6538.924 -6845.351)">
      <g id="Grupo_1003111" data-name="Grupo 1003111" clip-path="url(#clip-path)">
        <path id="Trazado_715342" data-name="Trazado 715342" d="M69.393,104.356c-3.695-3.378-1.761-9.428,2.886-9.836,1.606-.141,2.141-1.524,2.158-2.876.074-6.125.029-12.252.057-18.378,0-.964-.357-1.289-1.308-1.193-3.932.394-5.932-1.777-7.355-5.174a22.485,22.485,0,0,1-1.885-9.968c.157-3.275.064-6.563.028-9.845a19.962,19.962,0,0,1,8.742-17.2,3.88,3.88,0,0,0,1.8-3.635c-.09-4.228-.069-8.46-.016-12.69a14.168,14.168,0,0,1,28.309,0c.054,4.3.059,8.606-.009,12.908a3.511,3.511,0,0,0,1.627,3.278,20.014,20.014,0,0,1,8.9,17.118c-.008,3.209-.165,6.429.042,9.624A22.664,22.664,0,0,1,111.123,67.7c-1.451,3.138-3.143,4.468-6.557,4.367-1.33-.039-1.786.242-1.768,1.64.071,5.761.018,11.523.04,17.285.007,1.915.582,3.25,2.831,3.708,4.624.941,5.547,6.769,2.251,9.66ZM99.006,64.819q0-11.929,0-23.859c0-1.3-.079-2.435,1.839-2.469,2.019-.036,2.01,1.127,1.995,2.539-.031,2.845-.053,5.692,0,8.536.1,5.342-1.116,4.662,4.981,4.726,1.2.013,1.732-.45,1.7-1.675-.05-1.968.07-3.945-.045-5.908a17.293,17.293,0,0,0-7.213-13.632,6.14,6.14,0,0,0-3.851-1.26c-6.2.054-12.406.125-18.6-.028a8.443,8.443,0,0,0-6.1,2.367c-4.812,4.224-6.085,9.721-5.917,15.81.134,4.865-.657,4.186,4.307,4.359,2,.07,2.486-.69,2.427-2.545-.119-3.717.042-7.443-.063-11.161-.053-1.887.873-2.194,2.425-2.082,1.906.138,1.4,1.572,1.4,2.615q.045,21.888.021,43.777c0,6.749,0,6.727,6.863,6.148,1.092-.092,1.619-.473,1.572-1.584-.025-.583,0-1.167,0-1.751,0-6.931.047-13.863-.027-20.794-.019-1.8.729-2.254,2.364-2.159,1.729.1,1.472,1.3,1.475,2.351.018,7.223.052,14.447-.019,21.669-.017,1.693.482,2.425,2.238,2.273a21.76,21.76,0,0,1,3.935,0c1.884.18,2.34-.655,2.324-2.408-.072-7.952-.032-15.905-.03-23.858M79.463,101.564c1.895,0,3.79-.021,5.685.008,1.087.017,1.518-.429,1.614-1.544.444-5.146.474-5.122-4.793-5.154-2.253-.014-4.491-.286-5.858,2.216a3.312,3.312,0,0,1-2.677,1.292c-1.015.109-2,.473-1.925,1.651.083,1.286,1.179,1.519,2.268,1.526,1.9.013,3.79,0,5.685.005m18.41,0v-.01c1.968,0,3.936.022,5.9-.009,1.024-.016,1.976-.366,2.032-1.537.051-1.061-.8-1.493-1.74-1.6-1.052-.115-2.258-.331-2.721-1.192-1.451-2.7-3.855-2.39-6.247-2.337-5.125.113-4.479-.9-4.53,4.731,0,.146.012.292,0,.437-.061,1.145.545,1.538,1.614,1.521,1.894-.029,3.79-.008,5.685-.008m-9.754-90.74a9.752,9.752,0,0,0-1.754.192c-1.794.428-2.552,1.723-2.794,3.471a2.346,2.346,0,0,0,2,3.006,1.758,1.758,0,0,1,1.433,1.939c-.13,1.261.325,1.621,1.562,1.617s1.9-.194,1.746-1.66c-.126-1.232.854-1.787,1.886-2.056,1.336-.347,1.612-1.222,1.553-2.456-.137-2.849-1.579-4.044-5.637-4.054M88.71,3.86C83.24,3.8,78.79,8.129,78.366,13.991c-.043.6-.566,1.7.545,1.76,1.017.052.81-1.023.824-1.709a6.8,6.8,0,0,1,3.375-6.015c6.146-3.765,13.407-.461,14.464,6.566.094.627.2,1.281.94,1.2.709-.075.467-.8.475-1.262A10.562,10.562,0,0,0,88.71,3.86M74.417,62.475c0-4.912.733-4.33-4.147-4.36-2.473-.016-3,.627-2.267,3.013.577,1.869,1.382,3.669,2.13,5.481a2.185,2.185,0,0,0,4.258-.651c.111-1.151.025-2.321.025-3.483m28.353.083c.064,1.231.049,2.472.216,3.689a2.017,2.017,0,0,0,1.871,1.846A1.949,1.949,0,0,0,107,66.916a64.3,64.3,0,0,0,2.415-6.295c.459-1.529.08-2.617-2.015-2.55-5.358.172-4.482-.553-4.627,4.487M88.7,28.017A12.911,12.911,0,0,0,90.651,28c.679-.1,1.881.505,1.879-.719,0-1.075-.212-2.422-1.859-2.43-1.374-.007-2.748-.019-4.122.006-1.516.028-1.694,1.291-1.771,2.3-.1,1.322,1.092.755,1.756.84a17.183,17.183,0,0,0,2.167.021" transform="translate(-35.936 -0.001)"/>
        <path id="Trazado_715343" data-name="Trazado 715343" d="M178.4,57.243c-2.479,0-4.97.144-7.433-.056-1.359-.11-3.677,1.216-3.717-1.8-.042-3.217,2.413-1.7,3.83-1.916a26.187,26.187,0,0,1,4.586-.044c1.2.034,1.772-.457,1.676-1.682-.331-4.21-.523-8.437-1.03-12.625a5.527,5.527,0,0,0-5.644-4.548,5.765,5.765,0,0,0-5.287,5c-.1.793-.085,1.6-.155,2.4a1.321,1.321,0,0,1-1.785,1.335c-.942-.178-2.07.119-2.279-1.421a10.647,10.647,0,0,1,5.386-10.254,9.68,9.68,0,0,1,11.131,1.752c2.229,2.207,2.761,5.032,2.966,8,.236,3.413.613,6.818.8,10.233.141,2.641,2.058,1.732,3.381,1.747,1.759.02,1.091-1.288.97-2.231-.785-6.065-1.6-12.127-2.343-18.2a4.073,4.073,0,0,0-2.552-3.68c-2.8-1.23-5.522-2.648-8.222-4.089a3.287,3.287,0,0,0-3.47-.035,72.964,72.964,0,0,1-7.442,3.689,4.9,4.9,0,0,0-3.494,5.125c.028,1.6-.383,2.906-2.589,2.345-1.152-.293-1.65-.775-1.521-1.925a5.968,5.968,0,0,0,.072-.871c-.159-4.335,1.84-6.957,5.968-8.426a68.819,68.819,0,0,0,8.627-4.244,4.139,4.139,0,0,1,4.146-.01c3.888,2,7.793,3.978,11.742,5.859a3.95,3.95,0,0,1,2.408,3.346c1.027,7.87,2.1,15.733,3.109,23.605.378,2.963-.257,3.6-3.3,3.612-2.844.011-5.687,0-8.531,0" transform="translate(-86.652 -11.394)"/>
        <path id="Trazado_715344" data-name="Trazado 715344" d="M15.744,57.244c-2.771,0-5.541.01-8.312,0-3.037-.011-3.665-.649-3.287-3.621C4.9,47.7,5.727,41.787,6.528,35.87a27.325,27.325,0,0,0,.542-4.109c-.058-2.944,1.261-4.645,3.96-5.8,3.548-1.513,6.954-3.365,10.384-5.143a4.155,4.155,0,0,1,4.146.006c3.888,2,7.793,3.978,11.742,5.859a3.888,3.888,0,0,1,2.392,3.356c.137,1.23.289,2.459.482,3.682.244,1.547-.137,2.422-1.925,2.657-1.961.258-2.153-1.01-2.115-2.221.091-2.914-1.315-4.5-3.923-5.53a63.512,63.512,0,0,1-6.851-3.4,3.453,3.453,0,0,0-3.668-.054c-2.753,1.5-5.555,2.916-8.413,4.2a3.783,3.783,0,0,0-2.326,3.361Q9.748,42.159,8.478,51.575c-.13.962-.242,1.93,1.08,1.8,1.183-.12,3.043.943,3.292-1.325.365-3.328.627-6.67.85-10.011a20.019,20.019,0,0,1,.743-4.955c1.4-4.266,5.312-6.729,10.053-6.4a9.3,9.3,0,0,1,8.329,7.743c.157.859.239,1.73.365,2.595.23,1.586-.467,2.161-2.046,2.313-1.7.162-2.032-.679-2.063-2.021,0-.218-.016-.437-.029-.655-.208-3.607-2.481-6.09-5.577-6.093s-5.36,2.512-5.6,6.086c-.215,3.269-.578,6.528-.807,9.8-.2,2.918-.12,2.97,2.738,2.977,1.677,0,3.355.046,5.03-.01,1.429-.048,2.355.188,2.325,1.987-.027,1.69-.913,1.871-2.235,1.855-3.062-.037-6.125-.012-9.187-.011" transform="translate(-2.275 -11.397)"/>
        <path id="Trazado_715345" data-name="Trazado 715345" d="M17.784,181.736c-3.2-3.231-6.209-6.279-9.224-9.325A2.616,2.616,0,0,0,6.53,171.8c-1.531,0-3.063-.056-4.591.006-1.409.057-1.925-.526-1.927-1.932,0-1.429.569-1.912,1.951-1.908q15.745.045,31.49-.007c1.6-.007,2.015.718,1.931,2.134a4.121,4.121,0,0,0,.706,3.255c.929,1.137-.606,1.685-1.179,2.408a1.122,1.122,0,0,1-1.872.051,17.1,17.1,0,0,1-1.7-1.7,5.629,5.629,0,0,0-6.38-2.136c-.183.717.465,1,.841,1.359,2.988,2.88,5.685,6.061,8.93,8.671,1.012.813.63,1.862.547,2.819-.1,1.15-1.114.968-1.873.969-10.5.015-20.993-.005-31.489.026-1.429,0-1.9-.574-1.9-1.957-.006-1.45.612-1.932,1.975-1.883,1.652.06,3.308.014,5.663.014-2.228-2.238-3.956-4.055-5.779-5.773-1.1-1.035-1.369-1.816-.144-3.04s2-.965,3.041.134c2.059,2.165,4.342,4.129,6.286,6.388,1.779,2.067,3.807,2.729,6.73,2.04m10.775-.046c-3.006-2.945-5.8-5.488-8.357-8.258-1.749-1.9-3.67-1.811-6.323-1.354,2.836,2.787,5.506,5.157,7.86,7.807,1.784,2.009,3.77,2.461,6.82,1.8" transform="translate(-0.007 -94.422)"/>
        <path id="Trazado_715346" data-name="Trazado 715346" d="M169.346,181.811c-3.256-3.354-6.267-6.7-9.564-9.727a3.057,3.057,0,0,1-.9-3.279c.225-1.194,1.392-.831,2.2-.834,10.205-.026,20.41-.011,30.615-.024,1.325,0,2.423-.014,2.432,1.874.008,1.816-.943,2.009-2.348,1.963-1.518-.051-3.039-.011-5.29-.011,2.237,2.249,3.99,4.123,5.869,5.862,1.232,1.139,1.06,1.945-.067,3.036-1.025.992-1.743.995-2.719-.018-2.276-2.362-4.769-4.528-6.9-7.008-1.755-2.041-3.76-2.056-6.164-1.718,3.2,3.3,6.089,6.685,9.425,9.547,1.575,1.352,4.095.417,6.181.457,1.542.029,2,.629,2,2.1.008,1.777-1.079,1.759-2.316,1.758q-14-.012-27.991,0c-1.093,0-2.189-.048-3.28,0-1.321.06-1.828-.535-1.786-1.826.041-1.266.194-2.47-.778-3.674-.781-.968.64-1.555,1.193-2.235a1.13,1.13,0,0,1,1.871-.15,19.048,19.048,0,0,1,2.161,2.161c1.6,2.183,3.735,2.089,6.154,1.747m-3.827-9.824c2.957,2.906,5.723,5.354,8.151,8.1,1.777,2.009,3.757,2.069,6.662,1.66-2.96-2.908-5.727-5.354-8.157-8.1-1.777-2.009-3.759-2.066-6.656-1.66" transform="translate(-88.678 -94.404)"/>
        <path id="Trazado_715347" data-name="Trazado 715347" d="M14.061,116.059c3.224,3.242,6.2,6.234,9.176,9.223a1.99,1.99,0,0,0,1.557.685c1.693-.125,1.833.9,1.826,2.224-.007,1.465-.863,1.622-2,1.619-7.51-.013-15.021-.028-22.531.014-1.463.008-2.108-.443-2.086-2,.021-1.488.7-1.885,2.022-1.841,1.646.055,3.3.013,4.944.013l.413-.676c-1.844-1.714-3.657-3.462-5.541-5.13-1.171-1.038-1.267-1.842-.086-3.037,1.25-1.264,2.026-.858,3.04.2,2.119,2.21,4.463,4.221,6.44,6.547,1.76,2.07,3.793,2.4,6.7,1.878-1.944-1.953-3.807-3.553-5.341-5.423-2.759-3.362-5.927-5.45-10.5-4.575-1.43.274-2.138-.389-2.082-1.958.045-1.274.462-1.849,1.792-1.844q10.609.044,21.219-.007c1.472-.009,1.933.643,1.848,1.99a4.4,4.4,0,0,0,.757,3.461c.828,1.014-.577,1.575-1.123,2.249-.512.633-1.159.91-1.868.229a17.68,17.68,0,0,1-2.015-2c-1.622-2.168-3.749-2.464-6.554-1.835" transform="translate(0 -62.946)"/>
        <path id="Trazado_715348" data-name="Trazado 715348" d="M182.422,125.886c-2.2-1.661-1.507-2.644-.33-3.76,1.39-1.318,2.058-.124,2.849.644,3.617,3.51,3.609,3.518,7.312,3.027-.034-.93-.836-1.318-1.371-1.832-2.835-2.727-5.374-5.76-8.475-8.211-1-.789-.611-1.881-.5-2.837.133-1.139,1.164-.915,1.917-.917,6.93-.021,13.861,0,20.792-.026,1.306-.006,2.025.315,2.042,1.823.017,1.54-.581,2.091-2.069,2.02-1.6-.076-3.2-.017-5.558-.017,2.173,2.186,3.854,4.015,5.686,5.677,1.355,1.229,1.34,2.133-.014,3.353-1.032.929-1.7.756-2.561-.127-2.294-2.348-4.771-4.533-6.914-7.008-1.75-2.022-3.749-2.121-6.177-1.724,3.186,3.284,6.076,6.663,9.411,9.526,1.581,1.357,4.1.42,6.186.462,1.539.031,2.014.62,2.008,2.1-.006,1.564-.847,1.767-2.1,1.764-7.441-.021-14.883,0-22.324-.021-.891,0-2.046.258-2.139-1.192-.084-1.3-.388-2.772,2.325-2.721" transform="translate(-101.218 -62.95)"/>
      </g>
    </g>
  </g>
</svg>
