<svg xmlns="http://www.w3.org/2000/svg" xmlns:xlink="http://www.w3.org/1999/xlink" width="129" height="129" viewBox="0 0 129 129">
  <defs>
    <clipPath id="clip-path">
      <rect id="Rectángulo_353254" data-name="Rectángulo 353254" width="107.136" height="100.213" fill="none"/>
    </clipPath>
  </defs>
  <g id="Grupo_1003262" data-name="Grupo 1003262" transform="translate(-9250 6310)">
    <circle id="Elipse_5712" data-name="Elipse 5712" cx="64.5" cy="64.5" r="64.5" transform="translate(9250 -6310)" fill="#b20d0d"/>
    <g id="Grupo_1003130" data-name="Grupo 1003130" transform="translate(9261.013 -6295.607)">
      <g id="Grupo_1003129" data-name="Grupo 1003129" clip-path="url(#clip-path)">
        <path id="Trazado_715494" data-name="Trazado 715494" d="M.006,142.055q0-9.721,0-19.444c.007-3.125,1.307-4.416,4.456-4.432q5.958-.028,11.918,0c3,.019,4.264,1.31,4.345,4.35.085,3.192.088,3.172,3.3,3.788a20.449,20.449,0,0,1,7.783,2.862c5.745,3.91,12.156,5.194,18.955,5.437,4.24.153,8.474.638,12.694,1.119a9.147,9.147,0,0,1,8.426,8.184c.186,1.351.739,1.46,1.84,1.561a7.213,7.213,0,0,0,5.038-1.38c5.782-3.994,11.65-7.865,17.5-11.765,3.555-2.371,7.211-1.984,9.492.964,2.269,2.932,1.726,6.533-1.473,9.426-5.841,5.28-11.814,10.421-17.516,15.846a22.026,22.026,0,0,1-12.914,6.115c-9.6,1.222-19.157,2.726-28.736,4.084a11.918,11.918,0,0,1-6.151-.666c-5.5-2.152-11.039-4.184-16.547-6.305-1.067-.411-1.652-.639-1.809.95-.216,2.182-1.6,3.227-3.869,3.245q-6.377.051-12.754,0c-2.557-.025-3.956-1.463-3.967-4.078-.029-6.62-.009-13.241-.01-19.862m9.187,20.732c2.075.05,4.158.013,6.223.178,1.786.143,2.216-.58,2.194-2.267-.085-6.588-.021-13.178-.047-19.768-.005-1.286.131-2.383,1.678-2.635,1.436.327,1.488,1.43,1.5,2.6.027,2.919.089,5.838.137,8.756-.046,2.225-.027,4.454-.166,6.672-.076,1.209.434,1.7,1.493,2.09,6.064,2.24,12.107,4.54,18.152,6.831a6.9,6.9,0,0,0,3.472.49q15.923-2.28,31.846-4.563a11.382,11.382,0,0,0,6.1-2.506q10.566-9.357,21.007-18.855c1.726-1.57,1.522-3.463-.281-5.183-1.535-1.187-2.938-.719-4.382.252-6.411,4.313-12.859,8.572-19.255,12.906a4.964,4.964,0,0,1-3.5.948,38.6,38.6,0,0,0-6.677-.236c-9.525.626-19.053,1.208-28.58,1.806a6.61,6.61,0,0,1-5.3-1.98c-.718-.715-1.083-1.533-.331-2.384a1.466,1.466,0,0,1,2.367.025,4.448,4.448,0,0,0,3.838,1.168c8.971-.574,17.942-1.142,26.917-1.648,1.217-.068,1.326-.506,1.127-1.543a6.384,6.384,0,0,0-5.807-5.148c-3.539-.319-7.075-.747-10.621-.875-8.114-.294-15.882-1.618-22.762-6.361-1.9-1.308-4.214-1.734-6.475-2.207-1.714-.359-2.657-.188-2.352,1.914.191,1.315.192,2.716-1.49,3.253a2.153,2.153,0,0,1-1.661-2.479c.072-2.972-.046-5.95.051-8.921.049-1.482-.491-1.963-1.92-1.881-2.137.124-4.281.12-6.423.17-1.247-.052-2.506-.018-3.739-.178-1.968-.255-2.465.561-2.452,2.457.079,11.277.039,22.555.039,33.832,0,5.988,0,5.988,6.085,5.272" transform="translate(0 -68.695)" fill="#070606"/>
        <path id="Trazado_715495" data-name="Trazado 715495" d="M86.374,0Q93.9,0,101.433,0c2.99,0,3.836.714,4.308,3.648a13.2,13.2,0,0,0,7.788,10.4c2,.946,3.049,2.341,2.748,4.611-2.428,18.321-10.436,33-27.292,41.948a4.218,4.218,0,0,1-4.3.073C70.326,53.45,62.091,41.515,58.154,26.283c-.607-2.35-.919-4.78-1.315-7.181a4.026,4.026,0,0,1,2.578-4.685A13.558,13.558,0,0,0,67.289,3.361C67.6,1.09,68.579.213,70.9.2,76.055.174,81.215.193,86.374.193ZM83.587,56.372c1.944,1.839,3.922,1.971,6.088.3,1.372-1.057,2.952-1.843,4.333-2.891,11.685-8.872,17.254-21.076,19.165-35.273.158-1.172-.618-1.393-1.359-1.765a17.767,17.767,0,0,1-8.072-8.417c-.829-1.683-.178-4.327-2.02-5.034-1.757-.675-3.98-.144-6-.13-.554,0-1.109.056-1.662.086q-11.166.025-22.332.04c-.915,0-1.333.266-1.491,1.258a16.354,16.354,0,0,1-9.222,12.593,1.6,1.6,0,0,0-1.073,1.922A54.979,54.979,0,0,0,68.7,42.685,40.572,40.572,0,0,0,83.587,56.372" transform="translate(-32.997 0)" fill="#050607"/>
        <path id="Trazado_715496" data-name="Trazado 715496" d="M45.9,149.84c1.682-.537,1.681-1.937,1.49-3.253-.3-2.1.638-2.272,2.352-1.914,2.262.473,4.578.9,6.476,2.207,6.88,4.743,14.648,6.067,22.762,6.361,3.547.129,7.083.557,10.622.875a6.385,6.385,0,0,1,5.807,5.148c.2,1.037.09,1.474-1.127,1.543-8.975.506-17.946,1.074-26.917,1.648a4.448,4.448,0,0,1-3.838-1.168,1.466,1.466,0,0,0-2.367-.024c-.752.85-.389,1.668.331,2.384a6.607,6.607,0,0,0,5.3,1.98c9.527-.6,19.055-1.179,28.58-1.806a38.6,38.6,0,0,1,6.677.237,4.968,4.968,0,0,0,3.5-.949c6.4-4.334,12.845-8.592,19.255-12.905,1.444-.971,2.847-1.44,4.381-.253-.02.636-.446.932-.922,1.279-3.479,2.527-6.924,5.1-10.392,7.643-3.076,2.255-6.088,4.61-9.271,6.7-4.6,3.03-10.082,2.69-15.228,3.546-6.339,1.054-12.716,1.886-19.083,2.774-2.519.352-5.036,1.094-7.59.077-3.162-1.258-6.321-2.532-9.53-3.659s-6.236-2.725-9.612-3.341c-.048-2.919-.11-5.838-.137-8.757-.011-1.169-.062-2.272-1.5-2.6q-.013-1.89-.027-3.78" transform="translate(-26.681 -84.021)" fill="#f6ddbe"/>
        <path id="Trazado_715497" data-name="Trazado 715497" d="M49.627,172.511c3.376.615,6.412,2.218,9.612,3.341s6.368,2.4,9.53,3.659c2.554,1.016,5.071.274,7.59-.077,6.366-.889,12.743-1.72,19.083-2.774,5.146-.856,10.625-.517,15.227-3.546,3.183-2.095,6.195-4.45,9.271-6.705,3.468-2.542,6.913-5.115,10.392-7.642.476-.346.9-.643.922-1.279,1.8,1.721,2.007,3.612.281,5.183q-10.439,9.5-21.007,18.855a11.385,11.385,0,0,1-6.1,2.507q-15.923,2.285-31.846,4.563a6.9,6.9,0,0,1-3.472-.491c-6.046-2.291-12.088-4.591-18.152-6.831-1.06-.391-1.569-.882-1.493-2.09.139-2.219.119-4.448.166-6.672" transform="translate(-28.75 -91.556)" fill="#eccead"/>
        <path id="Trazado_715498" data-name="Trazado 715498" d="M31.979,138.765q.014,1.89.027,3.78c-1.546.252-1.683,1.349-1.678,2.635.026,6.589-.039,13.18.046,19.768.022,1.686-.407,2.409-2.194,2.267-2.066-.165-4.148-.128-6.224-.177q.008-1.323.015-2.647c4.255-.225,6.542-2.393,6.352-6.021-.165-3.154-2.357-4.971-6.319-5.239q.01-13.739.021-27.478c2.141-.05,4.286-.045,6.423-.17,1.428-.083,1.968.4,1.92,1.881-.1,2.971.021,5.949-.051,8.921a2.153,2.153,0,0,0,1.661,2.479" transform="translate(-12.765 -72.946)" fill="#cc3635"/>
        <path id="Trazado_715499" data-name="Trazado 715499" d="M13.522,125.592q-.01,13.739-.021,27.478c-2.587.914-4.532,2.393-4.658,5.411-.117,2.8,1.158,4.4,4.625,5.849q-.008,1.323-.015,2.647c-6.085.716-6.085.716-6.085-5.272,0-11.277.04-22.555-.039-33.832-.013-1.9.484-2.712,2.452-2.457,1.233.16,2.492.125,3.74.177" transform="translate(-4.262 -72.884)" fill="#e83842"/>
        <path id="Trazado_715500" data-name="Trazado 715500" d="M87.965,60.884A40.574,40.574,0,0,1,73.082,47.2a54.967,54.967,0,0,1-8.759-23.621A1.6,1.6,0,0,1,65.4,21.653,16.354,16.354,0,0,0,74.618,9.06c.157-.992.576-1.259,1.491-1.258q11.166,0,22.332-.04.009,1.328.018,2.655c-6.052.052-12.105.184-18.156.114-2.146-.025-3.347.668-3.991,2.754a14.637,14.637,0,0,1-5.959,8.331c-2.971,1.864-3.348,4.083-2.371,7.023a11.46,11.46,0,0,1,.368,1.411,1.95,1.95,0,0,0,2.329,1.818l1.078,3.661c-1.375.87-.924,1.97-.413,3.1a43.433,43.433,0,0,0,17.92,20.1c.031,1-1.055,1.322-1.3,2.153" transform="translate(-37.376 -4.512)" fill="#71c8ea"/>
        <path id="Trazado_715501" data-name="Trazado 715501" d="M131.334,10q-.009-1.328-.018-2.655c.554-.03,1.108-.082,1.662-.086,2.018-.014,4.24-.545,6,.13,1.842.707,1.19,3.351,2.02,5.034a17.768,17.768,0,0,0,8.072,8.417c.74.371,1.517.592,1.359,1.765-1.912,14.2-7.481,26.4-19.165,35.273-1.38,1.048-2.961,1.834-4.333,2.891-2.166,1.67-4.145,1.538-6.089-.3.246-.831,1.331-1.155,1.3-2.153a3.516,3.516,0,0,0,3.727-.065A42.9,42.9,0,0,0,143.7,37.613a2.027,2.027,0,0,0-.634-2.752l1.246-3.655a1.815,1.815,0,0,0,2.071-1.61c.269-1.364.565-2.722.849-4.083a3,3,0,0,0-1.562-3.5c-2.727-1.673-5.268-3.866-6.208-6.847-1.362-4.314-3.918-5.807-8.133-5.158" transform="translate(-70.251 -4.099)" fill="#50acd9"/>
        <path id="Trazado_715502" data-name="Trazado 715502" d="M15.56,202.8c-3.466-1.454-4.742-3.046-4.625-5.849.126-3.018,2.071-4.5,4.658-5.411,3.962.268,6.154,2.085,6.319,5.239.19,3.628-2.1,5.8-6.352,6.021m.79-3.255a2.245,2.245,0,0,0,2.46-2.251,2.208,2.208,0,0,0-2.411-2.479,2.193,2.193,0,0,0-2.357,2.336,2.243,2.243,0,0,0,2.309,2.394" transform="translate(-6.353 -111.351)" fill="#080404"/>
        <path id="Trazado_715503" data-name="Trazado 715503" d="M80.631,43.752q-.539-1.831-1.077-3.662c1.608-1.19.584-2.623.391-3.994-.152-1.079-.911-2.158.5-3.144a20.876,20.876,0,0,0,7.6-9.988,1.384,1.384,0,0,1,1.524-1.057c4.388.02,8.776,0,13.165,0,.4,2.12,1.749,3.715,2.868,5.469.992,1.555,2.932,2.3,3.412,4.23a4.842,4.842,0,0,0-1.61,1.874c-2.844,4.274-5.676,8.556-8.578,12.934-1.692-1.59-3.307-3.1-4.912-4.62-.8-.755-1.67-1.15-2.522-.192-.829.931-.393,1.764.411,2.518,1.825,1.711,3.613,3.463,5.439,5.173,1.761,1.648,2.408,1.574,3.737-.409q5.039-7.517,10.059-15.048a.651.651,0,0,1,.338.689,46.578,46.578,0,0,1-10.691,22.865c-1.381,1.567-2.619,3.456-4.807,4.155-.347-.221-.715-.416-1.037-.669A39.961,39.961,0,0,1,83.148,45.658c-.517-1.136-.97-2.2-2.516-1.907" transform="translate(-46.249 -12.735)" fill="#dfdedc"/>
        <path id="Trazado_715504" data-name="Trazado 715504" d="M98.309,17.17c-4.388,0-8.776.022-13.165,0a1.385,1.385,0,0,0-1.524,1.057,20.878,20.878,0,0,1-7.6,9.988c-1.408.986-.649,2.065-.5,3.144.193,1.371,1.218,2.8-.391,3.994a1.949,1.949,0,0,1-2.33-1.817,11.547,11.547,0,0,0-.368-1.411c-.977-2.94-.6-5.159,2.371-7.023a14.637,14.637,0,0,0,5.959-8.331c.643-2.087,1.845-2.779,3.991-2.754,6.051.07,12.1-.062,18.156-.114,4.215-.649,6.771.844,8.133,5.158.941,2.981,3.482,5.174,6.208,6.847a3,3,0,0,1,1.562,3.5c-.284,1.361-.58,2.719-.849,4.082a1.815,1.815,0,0,1-2.072,1.61c-1.9-1-.778-2.493-.641-3.84.116-1.133.973-2.271-.535-3.307a20.641,20.641,0,0,1-7.665-9.849c-.27-.7-.594-1.13-1.478-1.091-2.421.106-4.846.108-7.269.151" transform="translate(-41.833 -7.999)" fill="#040505"/>
        <path id="Trazado_715505" data-name="Trazado 715505" d="M80.858,73.7c1.546-.293,2,.77,2.516,1.907A39.961,39.961,0,0,0,95.06,90.821c.322.253.69.447,1.037.669.486.383,1,.735,1.453,1.156,1.833,1.711,3.441,1.391,5.42-.04A40.939,40.939,0,0,0,116.8,75.454c.487-1.119.948-2.226,2.494-2.014a2.027,2.027,0,0,1,.634,2.752,42.9,42.9,0,0,1-17.838,20.64,3.516,3.516,0,0,1-3.727.065,43.433,43.433,0,0,1-17.92-20.1c-.511-1.133-.961-2.233.413-3.1" transform="translate(-46.476 -42.68)" fill="#050607"/>
        <path id="Trazado_715506" data-name="Trazado 715506" d="M141.726,43.282c-1.546-.212-2.007.895-2.494,2.014A40.931,40.931,0,0,1,125.4,62.447c-1.979,1.431-3.587,1.751-5.42.041-.451-.421-.967-.773-1.453-1.156,2.189-.7,3.427-2.588,4.808-4.155A46.585,46.585,0,0,0,134.026,34.31a.652.652,0,0,0-.338-.689c.217-1.553-.429-2.323-2.025-2.231-.481-1.928-2.42-2.676-3.412-4.23-1.119-1.754-2.469-3.349-2.868-5.469,2.424-.043,4.849-.045,7.269-.151.883-.039,1.208.386,1.478,1.091a20.643,20.643,0,0,0,7.664,9.849c1.509,1.036.651,2.174.536,3.307-.137,1.347-1.261,2.839.641,3.84l-1.245,3.655" transform="translate(-68.907 -12.521)" fill="#d2d2d2"/>
        <path id="Trazado_715507" data-name="Trazado 715507" d="M20.674,204.09a2.243,2.243,0,0,1-2.309-2.394,2.193,2.193,0,0,1,2.357-2.336,2.208,2.208,0,0,1,2.411,2.479,2.245,2.245,0,0,1-2.46,2.251" transform="translate(-10.677 -115.899)" fill="#e2e2e2"/>
        <path id="Trazado_715508" data-name="Trazado 715508" d="M124.813,45.063c1.6-.093,2.241.677,2.025,2.231q-5.028,7.524-10.059,15.048c-1.329,1.982-1.976,2.056-3.737.409-1.827-1.71-3.614-3.462-5.439-5.173-.8-.754-1.24-1.587-.412-2.518.853-.957,1.725-.563,2.522.192,1.605,1.52,3.22,3.03,4.912,4.62,2.9-4.379,5.734-8.66,8.578-12.934a4.842,4.842,0,0,1,1.61-1.874" transform="translate(-62.056 -26.193)" fill="#080808"/>
      </g>
    </g>
  </g>
</svg>
