<svg xmlns="http://www.w3.org/2000/svg" xmlns:xlink="http://www.w3.org/1999/xlink" width="900" height="547.459" viewBox="0 0 900 547.459">
  <defs>
    <clipPath id="clip-path">
      <rect id="Rectángulo_353385" data-name="Rectángulo 353385" width="176.736" height="547.459" fill="none"/>
    </clipPath>
    <clipPath id="clip-path-3">
      <rect id="Rectángulo_353379" data-name="Rectángulo 353379" width="24.568" height="120.001" fill="none"/>
    </clipPath>
    <clipPath id="clip-path-4">
      <rect id="Rectángulo_353380" data-name="Rectángulo 353380" width="33.578" height="13.847" fill="none"/>
    </clipPath>
    <clipPath id="clip-path-5">
      <rect id="Rectángulo_353381" data-name="Rectángulo 353381" width="57.586" height="166.005" fill="none"/>
    </clipPath>
    <clipPath id="clip-path-6">
      <rect id="Rectángulo_353382" data-name="Rectángulo 353382" width="48.651" height="14.611" fill="none"/>
    </clipPath>
    <clipPath id="clip-path-8">
      <rect id="Rectángulo_353387" data-name="Rectángulo 353387" width="192.829" height="474.342" fill="none"/>
    </clipPath>
    <clipPath id="clip-path-10">
      <rect id="Rectángulo_353390" data-name="Rectángulo 353390" width="184" height="467.848" fill="none"/>
    </clipPath>
  </defs>
  <g id="Grupo_1003358" data-name="Grupo 1003358" transform="translate(-354.415 -3742)">
    <g id="Grupo_1003267" data-name="Grupo 1003267" transform="translate(711.632 3742)">
      <g id="Grupo_1003266" data-name="Grupo 1003266" clip-path="url(#clip-path)">
        <g id="Grupo_1003263" data-name="Grupo 1003263">
          <g id="Grupo_1003262" data-name="Grupo 1003262" clip-path="url(#clip-path)">
            <path id="Trazado_716719" data-name="Trazado 716719" d="M129.1,320.507c-6.434,0-11.675-5.922-11.675-13.2s5.241-13.212,11.675-13.212,11.683,5.927,11.683,13.212-5.241,13.2-11.683,13.2m0-18.384c-1.973,0-3.641,2.375-3.641,5.181s1.668,5.173,3.641,5.173,3.657-2.371,3.657-5.173-1.676-5.181-3.657-5.181" transform="translate(-38.501 -96.428)" fill="#b2b3b8"/>
            <path id="Trazado_716720" data-name="Trazado 716720" d="M126.949,388.484c-11.285,0-20.471-9.837-20.471-21.918a4.017,4.017,0,1,1,8.034,0c0,7.657,5.571,13.884,12.437,13.884s12.436-6.226,12.436-13.884c0-7.053-7.085-14.545-12.792-20.564-.915-.952-1.786-1.883-2.6-2.773-4.487-4.88-3.369-18.684-2.692-24.395a4.016,4.016,0,0,1,7.975.961c-.931,7.805-.626,16.39.643,18.015.779.842,1.625,1.743,2.514,2.671,6.671,7.052,14.984,15.831,14.984,26.084,0,12.081-9.185,21.918-20.47,21.918" transform="translate(-34.912 -103.382)" fill="#969696"/>
            <path id="Trazado_716721" data-name="Trazado 716721" d="M132.474,299.913a4.006,4.006,0,0,1-4-4.013V279.845a4.009,4.009,0,0,1,8.018,0V295.9a4.008,4.008,0,0,1-4.013,4.013" transform="translate(-42.123 -90.442)" fill="#2e536b"/>
            <path id="Trazado_716722" data-name="Trazado 716722" d="M139.479,66.347c0,6.2-4.4,11.23-9.846,11.23s-9.855-5.028-9.855-11.23,4.4-11.234,9.855-11.234,9.846,5.033,9.846,11.234" transform="translate(-39.273 -18.071)" fill="#969696"/>
            <path id="Trazado_716723" data-name="Trazado 716723" d="M123.335,45.487A22.743,22.743,0,1,1,146.074,22.74a22.775,22.775,0,0,1-22.739,22.747m0-37.453A14.712,14.712,0,1,0,138.048,22.74,14.727,14.727,0,0,0,123.335,8.034" transform="translate(-32.984 0)" fill="#969696"/>
            <path id="Trazado_716724" data-name="Trazado 716724" d="M157.216,205.97c-1.651,10.3-13.012,18.727-25.237,18.727H78.052c-12.233,0-23.544-8.432-25.153-18.739l-5.291-34A296.7,296.7,0,0,1,44.7,134.319v-43.6c0-10.388,10.007-18.891,22.232-18.891h76.167c12.216,0,22.232,8.5,22.232,18.891v45.822a286.029,286.029,0,0,1-3.014,37.623Z" transform="translate(-14.655 -23.551)" fill="#2e536b"/>
            <path id="Trazado_716725" data-name="Trazado 716725" d="M223.8,95.9c.161,3.348.254,6.485.254,9.177V98.614A16.939,16.939,0,0,0,223.8,95.9" transform="translate(-73.379 -31.445)" fill="#cac4c1"/>
            <path id="Trazado_716726" data-name="Trazado 716726" d="M44.7,98.178v8.7c0-3.517.161-7.8.415-12.3a16.386,16.386,0,0,0-.415,3.6" transform="translate(-14.655 -31.01)" fill="#cac4c1"/>
            <path id="Trazado_716727" data-name="Trazado 716727" d="M143.3,197.958H67.13c-10.777,0-19.811-6.612-21.817-15.293.507,8.813,1.439,18.515,2.5,25.338l5.291,34c1.608,10.308,12.919,18.739,25.153,18.739h53.927c12.224,0,23.586-8.424,25.237-18.727l5.1-31.806c1.227-7.628,2.286-18.887,2.76-28.441-1.566,9.113-10.845,16.187-21.978,16.187" transform="translate(-14.857 -59.599)" fill="#cac4c1"/>
            <path id="Trazado_716728" data-name="Trazado 716728" d="M224.05,174.579v-6.468c0,2.7-.093,5.837-.254,9.18a16.974,16.974,0,0,0,.254-2.713" transform="translate(-73.379 -55.12)" fill="#cac4c1"/>
            <path id="Trazado_716729" data-name="Trazado 716729" d="M44.7,173.494a16.452,16.452,0,0,0,.415,3.607c-.254-4.5-.415-8.784-.415-12.3Z" transform="translate(-14.655 -54.036)" fill="#cac4c1"/>
            <path id="Trazado_716730" data-name="Trazado 716730" d="M143.095,71.828H66.928c-10.777,0-19.811,6.608-21.817,15.289-.254,4.5-.415,8.783-.415,12.3v34.9c0,3.513.161,7.8.415,12.3,2.006,8.681,11.04,15.293,21.817,15.293h76.167c11.133,0,20.412-7.073,21.978-16.187.161-3.343.254-6.484.254-9.18V97.188c0-2.693-.093-5.829-.254-9.177-1.566-9.113-10.845-16.183-21.978-16.183" transform="translate(-14.655 -23.551)" fill="#aa978f"/>
            <path id="Trazado_716731" data-name="Trazado 716731" d="M158.107,141.683A11.145,11.145,0,0,1,147,152.794H76.758a11.146,11.146,0,0,1-11.116-11.111v-33.97A11.15,11.15,0,0,1,76.758,96.6H147a11.148,11.148,0,0,1,11.107,11.115Z" transform="translate(-21.523 -31.673)" fill="#64e2dc"/>
            <path id="Trazado_716732" data-name="Trazado 716732" d="M145.942,153.9H75.7a13.3,13.3,0,0,1-13.283-13.279v-33.97A13.3,13.3,0,0,1,75.7,93.373h70.241a13.3,13.3,0,0,1,13.274,13.283v33.97A13.292,13.292,0,0,1,145.942,153.9M75.7,97.707a8.957,8.957,0,0,0-8.949,8.949v33.97a8.955,8.955,0,0,0,8.949,8.944h70.241a8.951,8.951,0,0,0,8.94-8.944v-33.97a8.952,8.952,0,0,0-8.94-8.949Z" transform="translate(-20.466 -30.615)" fill="#ff4739"/>
            <path id="Trazado_716733" data-name="Trazado 716733" d="M186.71,160.994H175.7l-2.4,2.438h15.763Z" transform="translate(-56.822 -52.787)" fill="#fcf2d7"/>
            <path id="Trazado_716734" data-name="Trazado 716734" d="M194.007,141.5v11.493l2.337,2.383V139.122Z" transform="translate(-63.611 -45.615)" fill="#fcf2d7"/>
            <path id="Trazado_716735" data-name="Trazado 716735" d="M194.007,127.859l2.337,2.387V114.005l-2.337,2.366Z" transform="translate(-63.611 -37.38)" fill="#fcf2d7"/>
            <path id="Trazado_716736" data-name="Trazado 716736" d="M172.644,155.376l2.345-2.383V141.5l-2.345-2.379Z" transform="translate(-56.607 -45.615)" fill="#fcf2d7"/>
            <path id="Trazado_716737" data-name="Trazado 716737" d="M174.989,116.371,172.644,114v16.242l2.345-2.387Z" transform="translate(-56.607 -37.38)" fill="#fcf2d7"/>
            <path id="Trazado_716738" data-name="Trazado 716738" d="M186.71,115.889l2.354-2.438H173.3l2.4,2.438Z" transform="translate(-56.822 -37.198)" fill="#fcf2d7"/>
            <path id="Trazado_716739" data-name="Trazado 716739" d="M144.052,163.432h15.78l-2.379-2.438h-11.04Z" transform="translate(-47.232 -52.787)" fill="#fcf2d7"/>
            <path id="Trazado_716740" data-name="Trazado 716740" d="M164.772,152.993l2.277,2.383V139.122l-2.277,2.379Z" transform="translate(-54.026 -45.615)" fill="#fcf2d7"/>
            <path id="Trazado_716741" data-name="Trazado 716741" d="M164.772,127.859l2.277,2.387V114.005l-2.277,2.366Z" transform="translate(-54.026 -37.38)" fill="#fcf2d7"/>
            <path id="Trazado_716742" data-name="Trazado 716742" d="M143.41,155.376l2.294-2.383V141.5l-2.294-2.379Z" transform="translate(-47.021 -45.615)" fill="#fcf2d7"/>
            <path id="Trazado_716743" data-name="Trazado 716743" d="M145.7,116.371,143.41,114v16.242l2.294-2.387Z" transform="translate(-47.021 -37.38)" fill="#fcf2d7"/>
            <path id="Trazado_716744" data-name="Trazado 716744" d="M157.453,115.889l2.379-2.438h-15.78l2.354,2.438Z" transform="translate(-47.232 -37.198)" fill="#fcf2d7"/>
            <path id="Trazado_716745" data-name="Trazado 716745" d="M104.476,163.432h15.772l-2.371-2.438H106.83Z" transform="translate(-34.256 -52.787)" fill="#fcf2d7"/>
            <path id="Trazado_716746" data-name="Trazado 716746" d="M125.171,152.993l2.286,2.383V139.122l-2.286,2.379Z" transform="translate(-41.041 -45.615)" fill="#fcf2d7"/>
            <path id="Trazado_716747" data-name="Trazado 716747" d="M125.171,127.859l2.286,2.387V114.005l-2.286,2.366Z" transform="translate(-41.041 -37.38)" fill="#fcf2d7"/>
            <path id="Trazado_716748" data-name="Trazado 716748" d="M103.833,155.376l2.286-2.383V141.5l-2.286-2.379Z" transform="translate(-34.045 -45.615)" fill="#fcf2d7"/>
            <path id="Trazado_716749" data-name="Trazado 716749" d="M106.119,116.371,103.833,114v16.242l2.286-2.387Z" transform="translate(-34.045 -37.38)" fill="#fcf2d7"/>
            <path id="Trazado_716750" data-name="Trazado 716750" d="M117.877,115.889l2.371-2.438H104.476l2.354,2.438Z" transform="translate(-34.256 -37.198)" fill="#fcf2d7"/>
            <rect id="Rectángulo_353378" data-name="Rectángulo 353378" width="2.337" height="2.341" transform="translate(89.7 108.305)" fill="#fcf2d7"/>
            <path id="Trazado_716751" data-name="Trazado 716751" d="M174.486,516.928c-.384-2.286-1.123-4.658-2.871-6.182a9.883,9.883,0,0,0-5.842-2.012,11.025,11.025,0,0,0-4.441.409,8.341,8.341,0,0,0-4.931,5.136,12.08,12.08,0,0,0-.069,7.249l18.514,1.817a29.174,29.174,0,0,0-.36-6.416m-6.585-.715a4.559,4.559,0,0,1-.423,1.479,3.432,3.432,0,0,1-4.371,1.319,4.609,4.609,0,0,1-2.468-4.095,4.166,4.166,0,0,1,.3-1.688c1.149-2.726,5.345-2.724,6.624-.114a5.355,5.355,0,0,1,.342,3.1" transform="translate(-51.088 -166.787)" fill="#c9cce2"/>
            <path id="Trazado_716752" data-name="Trazado 716752" d="M5.37,542.718l27.2,162.222s9.2,9.2,27.6,13.6c15.678,3.749,44.323,3.749,60,0,18.4-4.4,27.6-13.6,27.6-13.6l27.2-162.222Z" transform="translate(-1.761 -177.947)" fill="#b8bbcc"/>
            <path id="Trazado_716753" data-name="Trazado 716753" d="M160.29,779.169l-58.04,6.194-58.04-6.194a3.3,3.3,0,0,0-1.655,3.071c0,1.567,3.426,5.848,10.818,9.72,9.877,5.173,26.026,10.034,35.433,10.5,8.149.407,12.352.462,13.33.469h.228c.979-.007,5.181-.062,13.33-.469,9.408-.47,25.556-5.331,35.433-10.5,7.392-3.872,10.818-8.153,10.818-9.72a3.3,3.3,0,0,0-1.655-3.071" transform="translate(-13.953 -255.475)" fill="#b8bbcc"/>
            <g id="Grupo_1003252" data-name="Grupo 1003252" transform="translate(26.632 395.89)" opacity="0.46">
              <g id="Grupo_1003251" data-name="Grupo 1003251">
                <g id="Grupo_1003250" data-name="Grupo 1003250" clip-path="url(#clip-path-3)">
                  <path id="Trazado_716754" data-name="Trazado 716754" d="M40.057,606.049q5.616,37.54,9.294,75.753c.537,5.588,1.063,11.291,2.494,16.407s3.958,9.647,7.019,10.635a3.194,3.194,0,0,0,3.881-1.55c1.325-2.147,1.489-5.827,1.438-9.15a231.105,231.105,0,0,0-2.627-28.35c-2.539-18.225-5.583-36.438-6.247-55.032-.4-11.091-1.858-21.444-8.627-25.112-6.161-3.339-8.006,7.172-6.626,16.4" transform="translate(-39.624 -589.018)" fill="#fff"/>
                </g>
              </g>
            </g>
            <path id="Trazado_716755" data-name="Trazado 716755" d="M195.346,602.42s-10.978,2.7-33.068,6.1c-19.347,2.984-74.164.655-74.164.655s37.373,4.953,67.7,2.8a285.025,285.025,0,0,0,38.9-5.807Z" transform="translate(-28.891 -197.522)" fill="#9799a5"/>
            <path id="Trazado_716756" data-name="Trazado 716756" d="M203.082,617.448s-10.978,2.7-33.068,6.1c-20.6,3.176-52.745,2.051-52.745,2.051a266.174,266.174,0,0,0,46.281,1.4,267.006,267.006,0,0,0,38.9-5.808Z" transform="translate(-38.45 -202.45)" fill="#9799a5"/>
            <path id="Trazado_716757" data-name="Trazado 716757" d="M212.695,631.255s-10.929,3.029-33.068,6.1c-8.246,1.145-29,2.5-29,2.5s7.52,1.881,22.533.958a220.594,220.594,0,0,0,38.9-5.807Z" transform="translate(-49.389 -206.977)" fill="#9799a5"/>
            <g id="Grupo_1003255" data-name="Grupo 1003255" transform="translate(33.178 528.97)" opacity="0.51">
              <g id="Grupo_1003254" data-name="Grupo 1003254">
                <g id="Grupo_1003253" data-name="Grupo 1003253" clip-path="url(#clip-path-4)">
                  <path id="Trazado_716758" data-name="Trazado 716758" d="M51.345,789.772q4.594,2.281,9.234,4.471c6.383,3.012,12.978,5.931,20.006,6.587a2.931,2.931,0,0,0,1.763-.219,1.076,1.076,0,0,0,.408-1.529c-.449-.512-4.136-.44-4.931-.565q-2.675-.422-5.3-1.085a60.268,60.268,0,0,1-10-3.485,60.92,60.92,0,0,1-9.235-5.187c-.635-.432-2.645-2.307-3.56-1.572-1.188.955.885,2.217,1.622,2.584" transform="translate(-49.363 -787.019)" fill="#fff"/>
                </g>
              </g>
            </g>
            <g id="Grupo_1003258" data-name="Grupo 1003258" transform="translate(114.263 372.901)" opacity="0.24">
              <g id="Grupo_1003257" data-name="Grupo 1003257">
                <g id="Grupo_1003256" data-name="Grupo 1003256" clip-path="url(#clip-path-5)">
                  <path id="Trazado_716759" data-name="Trazado 716759" d="M185.734,563.813c.313-.021-15.73,157.006-15.73,157.006l32.074-15.213L227.59,554.813Z" transform="translate(-170.004 -554.814)" fill="#9295a0"/>
                </g>
              </g>
            </g>
            <path id="Trazado_716760" data-name="Trazado 716760" d="M11.911,557.815l55.312,5.024,71.863-1.509,36.668-6.516L174,565.3S161,573.866,127.417,572.7C31.6,569.391,11.911,557.815,11.911,557.815" transform="translate(-3.905 -181.913)" fill="#9799a5"/>
            <path id="Trazado_716761" data-name="Trazado 716761" d="M175.595,539.716l-87.185-.5L1.394,540.911A3.911,3.911,0,0,0,.12,544.972c.606,2.725.606,5.74,10.9,8.7s46.492,6.292,55.882,6.444,21.5,0,21.5,0,12.115.152,21.5,0,45.584-3.483,55.883-6.444,10.644-6,10.9-8.7a10.139,10.139,0,0,0-1.106-5.255" transform="translate(0 -176.799)" fill="#c9cce2"/>
            <path id="Trazado_716762" data-name="Trazado 716762" d="M181.931,777.415s-.54,3.1-10.483,8.4a86.5,86.5,0,0,1-36.872,10.726c-15.743,1.04-26.018-.865-26.018-.865s21.524,1.664,37.867-3.315c31.735-9.668,36.336-18.539,36.336-18.539Z" transform="translate(-35.594 -253.721)" fill="#9799a5"/>
            <path id="Trazado_716763" data-name="Trazado 716763" d="M175.167,536.561c.822,5.461-37.761,12.872-84.8,12.872S5.353,542.722,4.82,539.41c-1.632-10.131,38.506-13.121,85.546-13.121s83.681,2.828,84.8,10.272" transform="translate(-1.564 -172.56)" fill="#9799a5"/>
            <path id="Trazado_716764" data-name="Trazado 716764" d="M4.94,541.358c.487,3.024,32.2,8.883,73.532,9.877a38.865,38.865,0,0,1-22.458-20.662q-.367-.809-.7-1.634C25.166,530.314,3.738,533.9,4.94,541.358" transform="translate(-1.604 -173.429)" fill="#878a93"/>
            <path id="Trazado_716765" data-name="Trazado 716765" d="M88.621,525.2c-50.234.2-85.758,4.07-87.231,11.769C-.544,547.086,49.495,551.3,88.621,551.6s85.538-3.656,87.685-14.631c1.683-8.6-35.59-11.983-87.685-11.769m81.676,10.76c-1.967,8.474-45.847,11.66-81.677,11.428S5.174,543.771,6.945,535.961c1.348-5.946,35.675-8.8,81.676-8.957,47.706-.165,83.218,2.316,81.677,8.957" transform="translate(-0.438 -172.201)" fill="#c9cce2"/>
            <g id="Grupo_1003261" data-name="Grupo 1003261" transform="translate(2.082 365.005)" opacity="0.51">
              <g id="Grupo_1003260" data-name="Grupo 1003260">
                <g id="Grupo_1003259" data-name="Grupo 1003259" clip-path="url(#clip-path-6)">
                  <path id="Trazado_716766" data-name="Trazado 716766" d="M3.268,546A5.2,5.2,0,0,0,5.3,548.237c5.521,3.916,12.222,5.787,18.865,7.09A136.109,136.109,0,0,0,40.326,557.5a29.821,29.821,0,0,0,9.527-.431c.936-.237,2.055-.875,1.876-1.824-.173-.921-1.377-1.133-2.313-1.155A141.526,141.526,0,0,1,29.6,551.744l-10.984-1.829c-3.857-.642-8.056-1.473-10.56-4.475a13.568,13.568,0,0,0-1.534-1.8A2.043,2.043,0,0,0,3.268,546" transform="translate(-3.097 -543.067)" fill="#fff"/>
                </g>
              </g>
            </g>
            <path id="Trazado_716767" data-name="Trazado 716767" d="M93.513,545.988c-.463-2.754-1.353-5.611-3.458-7.447a11.911,11.911,0,0,0-7.038-2.424,13.3,13.3,0,0,0-5.349.492,10.05,10.05,0,0,0-5.94,6.187,14.549,14.549,0,0,0-.083,8.732l22.3,2.188a35.13,35.13,0,0,0-.434-7.728m-7.932-.862a5.5,5.5,0,0,1-.51,1.781,4.132,4.132,0,0,1-5.265,1.589,5.548,5.548,0,0,1-2.973-4.932,5.005,5.005,0,0,1,.357-2.032c1.385-3.285,6.438-3.283,7.979-.138a6.465,6.465,0,0,1,.413,3.732" transform="translate(-23.285 -175.761)" fill="#c9cce2"/>
            <path id="Trazado_716768" data-name="Trazado 716768" d="M141.4,482.093a2.438,2.438,0,0,0,1.055-2.165c-.009-.179-.9-18.046-3.051-36.571-4.006-34.524-8.727-41.509-11.93-43.758-3.723-2.615-8.656-3.328-13.891-2-9.9,2.5-19.25,11.63-25.007,24.416-7.416,16.472-9.233,70.7-9.306,73a2.711,2.711,0,0,0,2.432,2.775,2.383,2.383,0,0,0,2.6-2.344c.017-.553,1.855-55.514,8.868-71.09,5.168-11.476,13.34-19.614,21.86-21.767,3.814-.964,7.274-.538,9.745,1.2,1.278.9,5.751,6.429,9.636,39.895,2.131,18.352,3.017,36.068,3.026,36.244a2.7,2.7,0,0,0,2.638,2.572,2.369,2.369,0,0,0,1.33-.4" transform="translate(-25.991 -130.151)" fill="#c9cce2"/>
            <path id="Trazado_716769" data-name="Trazado 716769" d="M148.648,445.457c-3.885-33.465-8.358-39-9.636-39.894-2.471-1.735-5.931-2.161-9.745-1.2a22.719,22.719,0,0,0-5.922,2.484,24.548,24.548,0,0,1,8.775-4.4c3.814-.963,7.274-.538,9.745,1.2,1.278.9,5.751,6.429,9.635,39.894,2.131,18.352,3.017,36.068,3.026,36.245a2.723,2.723,0,0,0,2.131,2.518,2.4,2.4,0,0,1-1.014,1.572,2.363,2.363,0,0,1-1.33.4,2.7,2.7,0,0,1-2.638-2.572c-.009-.177-.9-17.892-3.026-36.245" transform="translate(-40.443 -131.789)" fill="#a4a8b2"/>
            <path id="Trazado_716770" data-name="Trazado 716770" d="M78.957,497.05c.073-2.3,1.89-56.528,9.306-73,4.31-9.572,10.632-17.092,17.692-21.319-5.9,4.407-11.12,11.138-14.839,19.4-7.417,16.472-9.233,70.7-9.307,73a2.723,2.723,0,0,0,2.133,2.729,2.37,2.37,0,0,1-2.553,1.965,2.712,2.712,0,0,1-2.432-2.775" transform="translate(-25.888 -132.048)" fill="#a4a8b2"/>
            <path id="Trazado_716771" data-name="Trazado 716771" d="M126.949,411.532c-11.285,0-20.471-9.837-20.471-21.918a4.017,4.017,0,1,1,8.034,0c0,7.657,5.571,13.884,12.437,13.884" transform="translate(-34.912 -126.43)" fill="#969696"/>
            <path id="Trazado_716772" data-name="Trazado 716772" d="M94.188,236.006H82.893a3.438,3.438,0,0,1-3.439-3.439V221.273a3.438,3.438,0,0,1,3.439-3.439H94.188a3.439,3.439,0,0,1,3.439,3.439v11.295a3.439,3.439,0,0,1-3.439,3.439" transform="translate(-26.051 -71.424)" fill="#d8140b"/>
            <path id="Trazado_716773" data-name="Trazado 716773" d="M135.194,236.456H123.9a3.438,3.438,0,0,1-3.439-3.439V221.723a3.438,3.438,0,0,1,3.439-3.439h11.295a3.439,3.439,0,0,1,3.439,3.439v11.295a3.439,3.439,0,0,1-3.439,3.439" transform="translate(-39.497 -71.571)" fill="#969696"/>
            <path id="Trazado_716774" data-name="Trazado 716774" d="M176.651,236.456H165.356a3.438,3.438,0,0,1-3.439-3.439V221.723a3.438,3.438,0,0,1,3.439-3.439h11.295a3.439,3.439,0,0,1,3.439,3.439v11.295a3.439,3.439,0,0,1-3.439,3.439" transform="translate(-53.09 -71.571)" fill="#d8140b"/>
            <path id="Trazado_716775" data-name="Trazado 716775" d="M94.188,269.351H82.893a3.438,3.438,0,0,1-3.439-3.439V254.618a3.438,3.438,0,0,1,3.439-3.439H94.188a3.439,3.439,0,0,1,3.439,3.439v11.295a3.439,3.439,0,0,1-3.439,3.439" transform="translate(-26.051 -82.357)" fill="#969696"/>
            <path id="Trazado_716776" data-name="Trazado 716776" d="M135.194,269.8H123.9a3.438,3.438,0,0,1-3.439-3.439V255.069a3.438,3.438,0,0,1,3.439-3.439h11.295a3.439,3.439,0,0,1,3.439,3.439v11.295a3.439,3.439,0,0,1-3.439,3.439" transform="translate(-39.497 -82.505)" fill="#969696"/>
            <path id="Trazado_716777" data-name="Trazado 716777" d="M176.651,269.8H165.356a3.438,3.438,0,0,1-3.439-3.439V255.069a3.438,3.438,0,0,1,3.439-3.439h11.295a3.439,3.439,0,0,1,3.439,3.439v11.295a3.439,3.439,0,0,1-3.439,3.439" transform="translate(-53.09 -82.505)" fill="#969696"/>
          </g>
        </g>
        <text id="x" transform="translate(58.594 158.292)" fill="#fff" font-size="13" font-family="MyriadPro-Regular, Myriad Pro"><tspan x="0" y="0">x</tspan></text>
        <g id="Grupo_1003265" data-name="Grupo 1003265">
          <g id="Grupo_1003264" data-name="Grupo 1003264" clip-path="url(#clip-path)">
            <path id="Trazado_716778" data-name="Trazado 716778" d="M167.945,230.323l3.924,3.489,6.865-6.966" transform="translate(-55.066 -74.379)" fill="none" stroke="#fff" stroke-miterlimit="10" stroke-width="0.973"/>
            <path id="Trazado_716779" data-name="Trazado 716779" d="M128.12,232.562l4.093-3.061,3.782,3.061" transform="translate(-42.008 -75.249)" fill="none" stroke="#fff" stroke-miterlimit="10" stroke-width="0.973"/>
            <path id="Trazado_716780" data-name="Trazado 716780" d="M135.995,262.846l-4.093,3.062-3.782-3.062" transform="translate(-42.008 -86.182)" fill="none" stroke="#fff" stroke-miterlimit="10" stroke-width="0.973"/>
            <path id="Trazado_716781" data-name="Trazado 716781" d="M93.305,267.141l-3.062-4.092,3.062-3.782" transform="translate(-29.589 -85.009)" fill="none" stroke="#fff" stroke-miterlimit="10" stroke-width="0.973"/>
            <path id="Trazado_716782" data-name="Trazado 716782" d="M173.158,259.266l3.061,4.093-3.061,3.782" transform="translate(-56.775 -85.008)" fill="none" stroke="#fff" stroke-miterlimit="10" stroke-width="0.973"/>
          </g>
        </g>
      </g>
    </g>
    <g id="Grupo_1003272" data-name="Grupo 1003272" transform="translate(1061.585 3770.343)">
      <g id="Grupo_1003269" data-name="Grupo 1003269">
        <g id="Grupo_1003268" data-name="Grupo 1003268" clip-path="url(#clip-path-8)">
          <path id="Trazado_716783" data-name="Trazado 716783" d="M110.53,328.192c-8.306,0-15.071-7.645-15.071-17.044s6.765-17.056,15.071-17.056,15.082,7.651,15.082,17.056-6.765,17.044-15.082,17.044m0-23.733c-2.547,0-4.7,3.066-4.7,6.689s2.154,6.678,4.7,6.678,4.721-3.06,4.721-6.678-2.164-6.689-4.721-6.689" transform="translate(-12.632 -38.917)" fill="#b2b3b8"/>
          <path id="Trazado_716784" data-name="Trazado 716784" d="M111.676,306.919a5.172,5.172,0,0,1-5.17-5.181V281.011a5.175,5.175,0,0,1,10.35,0v20.727a5.174,5.174,0,0,1-5.181,5.181" transform="translate(-14.094 -36.501)" fill="#2e536b"/>
          <path id="Trazado_716785" data-name="Trazado 716785" d="M123.247,69.616c0,8.006-5.683,14.5-12.711,14.5s-12.722-6.491-12.722-14.5,5.683-14.5,12.722-14.5,12.711,6.5,12.711,14.5" transform="translate(-12.944 -7.293)" fill="#969696"/>
          <path id="Trazado_716786" data-name="Trazado 716786" d="M107.987,58.721a29.361,29.361,0,1,1,29.355-29.366,29.4,29.4,0,0,1-29.355,29.366m0-48.35a18.992,18.992,0,1,0,18.994,18.984,19.011,19.011,0,0,0-18.994-18.984" transform="translate(-10.405)" fill="#969696"/>
          <path id="Trazado_716787" data-name="Trazado 716787" d="M167.989,245c-2.131,13.3-16.8,24.175-32.579,24.175H65.792c-15.792,0-30.394-10.885-32.471-24.191l-6.83-43.9a383.026,383.026,0,0,1-3.76-48.585V96.216c0-13.41,12.918-24.388,28.7-24.388h98.328c15.771,0,28.7,10.978,28.7,24.388v59.153a369.248,369.248,0,0,1-3.891,48.569Z" transform="translate(-3.008 -9.505)" fill="#2e536b"/>
          <path id="Trazado_716788" data-name="Trazado 716788" d="M201.831,95.9c.207,4.323.328,8.371.328,11.847V99.4a21.865,21.865,0,0,0-.328-3.5" transform="translate(-26.708 -12.691)" fill="#cac4c1"/>
          <path id="Trazado_716789" data-name="Trazado 716789" d="M22.732,99.227v11.229c0-4.541.207-10.071.534-15.88a21.208,21.208,0,0,0-.534,4.651" transform="translate(-3.008 -12.515)" fill="#cac4c1"/>
          <path id="Trazado_716790" data-name="Trazado 716790" d="M149.84,202.667H51.513c-13.913,0-25.575-8.535-28.165-19.743.655,11.377,1.858,23.9,3.224,32.71l6.83,43.9c2.076,13.307,16.677,24.191,32.471,24.191h69.618c15.781,0,30.448-10.875,32.579-24.175l6.58-41.06c1.584-9.847,2.951-24.382,3.563-36.716-2.022,11.765-14,20.9-28.372,20.9" transform="translate(-3.09 -24.054)" fill="#cac4c1"/>
          <path id="Trazado_716791" data-name="Trazado 716791" d="M202.159,176.461v-8.35c0,3.481-.121,7.536-.328,11.852a21.91,21.91,0,0,0,.328-3.5" transform="translate(-26.708 -22.246)" fill="#cac4c1"/>
          <path id="Trazado_716792" data-name="Trazado 716792" d="M22.732,176.023a21.291,21.291,0,0,0,.534,4.656c-.328-5.809-.534-11.34-.534-15.875Z" transform="translate(-3.008 -21.808)" fill="#cac4c1"/>
          <path id="Trazado_716793" data-name="Trazado 716793" d="M149.759,71.828H51.431c-13.913,0-25.575,8.53-28.165,19.738-.328,5.809-.535,11.339-.535,15.88V152.5c0,4.535.207,10.066.535,15.875,2.59,11.207,14.251,19.743,28.165,19.743h98.328c14.372,0,26.35-9.131,28.372-20.9.207-4.316.328-8.37.328-11.852v-50.8c0-3.476-.121-7.524-.328-11.847-2.022-11.765-14-20.891-28.372-20.891" transform="translate(-3.008 -9.505)" fill="#aa978f"/>
          <path id="Trazado_716794" data-name="Trazado 716794" d="M163.045,154.8a14.387,14.387,0,0,1-14.339,14.344H58.029A14.389,14.389,0,0,1,43.679,154.8V110.948A14.394,14.394,0,0,1,58.029,96.6h90.678a14.392,14.392,0,0,1,14.339,14.35Z" transform="translate(-5.78 -12.783)" fill="#64e2dc"/>
          <path id="Trazado_716795" data-name="Trazado 716795" d="M148.279,171.516H57.6a17.165,17.165,0,0,1-17.148-17.143V110.521A17.169,17.169,0,0,1,57.6,93.373h90.678a17.163,17.163,0,0,1,17.136,17.148v43.853a17.159,17.159,0,0,1-17.136,17.143M57.6,98.969A11.563,11.563,0,0,0,46.05,110.521v43.853A11.561,11.561,0,0,0,57.6,165.92h90.678a11.555,11.555,0,0,0,11.541-11.546V110.521a11.557,11.557,0,0,0-11.541-11.552Z" transform="translate(-5.353 -12.356)" fill="#ff4739"/>
          <path id="Trazado_716796" data-name="Trazado 716796" d="M168.646,160.994H154.438l-3.1,3.148h20.349Z" transform="translate(-20.026 -21.304)" fill="#fcf2d7"/>
          <path id="Trazado_716797" data-name="Trazado 716797" d="M172.042,142.192v14.836l3.017,3.077V139.122Z" transform="translate(-22.766 -18.41)" fill="#fcf2d7"/>
          <path id="Trazado_716798" data-name="Trazado 716798" d="M172.042,131.89l3.017,3.082V114l-3.017,3.054Z" transform="translate(-22.766 -15.086)" fill="#fcf2d7"/>
          <path id="Trazado_716799" data-name="Trazado 716799" d="M150.68,160.105l3.027-3.077V142.192l-3.027-3.071Z" transform="translate(-19.939 -18.41)" fill="#fcf2d7"/>
          <path id="Trazado_716800" data-name="Trazado 716800" d="M153.707,117.059,150.68,114v20.968l3.027-3.082Z" transform="translate(-19.939 -15.086)" fill="#fcf2d7"/>
          <path id="Trazado_716801" data-name="Trazado 716801" d="M168.646,116.6l3.039-3.148H151.335l3.1,3.148Z" transform="translate(-20.026 -15.013)" fill="#fcf2d7"/>
          <path id="Trazado_716802" data-name="Trazado 716802" d="M122.087,164.141h20.371l-3.071-3.148H125.136Z" transform="translate(-16.156 -21.304)" fill="#fcf2d7"/>
          <path id="Trazado_716803" data-name="Trazado 716803" d="M142.807,157.029l2.94,3.077V139.122l-2.94,3.071Z" transform="translate(-18.898 -18.41)" fill="#fcf2d7"/>
          <path id="Trazado_716804" data-name="Trazado 716804" d="M142.807,131.89l2.94,3.082V114l-2.94,3.054Z" transform="translate(-18.898 -15.086)" fill="#fcf2d7"/>
          <path id="Trazado_716805" data-name="Trazado 716805" d="M121.445,160.105l2.961-3.077V142.192l-2.961-3.071Z" transform="translate(-16.071 -18.41)" fill="#fcf2d7"/>
          <path id="Trazado_716806" data-name="Trazado 716806" d="M124.407,117.059,121.445,114v20.968l2.961-3.082Z" transform="translate(-16.071 -15.086)" fill="#fcf2d7"/>
          <path id="Trazado_716807" data-name="Trazado 716807" d="M139.388,116.6l3.071-3.148H122.087l3.039,3.148Z" transform="translate(-16.156 -15.013)" fill="#fcf2d7"/>
          <path id="Trazado_716808" data-name="Trazado 716808" d="M82.511,164.141h20.361l-3.06-3.148H85.55Z" transform="translate(-10.919 -21.304)" fill="#fcf2d7"/>
          <path id="Trazado_716809" data-name="Trazado 716809" d="M103.206,157.029l2.951,3.077V139.122l-2.951,3.071Z" transform="translate(-13.657 -18.41)" fill="#fcf2d7"/>
          <path id="Trazado_716810" data-name="Trazado 716810" d="M103.206,131.89l2.951,3.082V114l-2.951,3.054Z" transform="translate(-13.657 -15.086)" fill="#fcf2d7"/>
          <path id="Trazado_716811" data-name="Trazado 716811" d="M81.869,160.105l2.951-3.077V142.192l-2.951-3.071Z" transform="translate(-10.834 -18.41)" fill="#fcf2d7"/>
          <path id="Trazado_716812" data-name="Trazado 716812" d="M84.819,117.059,81.868,114v20.968l2.951-3.082Z" transform="translate(-10.834 -15.086)" fill="#fcf2d7"/>
          <path id="Trazado_716813" data-name="Trazado 716813" d="M99.812,116.6l3.06-3.148H82.511L85.55,116.6Z" transform="translate(-10.919 -15.013)" fill="#fcf2d7"/>
          <rect id="Rectángulo_353386" data-name="Rectángulo 353386" width="3.017" height="3.022" transform="translate(96.74 139.816)" fill="#fcf2d7"/>
          <path id="Trazado_716814" data-name="Trazado 716814" d="M91.31,323.2c.731,10.531,1.589,21.31.032,31.81-1.47,9.913-5.584,18.73-10.532,27.345-5.024,8.749-10.377,17.308-15.38,26.068-2.574,4.506-4.571,9.075-4.835,14.328-.272,5.4,1.163,10.793,1.813,16.12a135.3,135.3,0,0,1,.161,31.024c-1,9.13-2.5,19.382-6.895,27.578-3.249,6.067-9.6,12.034-16.038,5.966-6.711-6.324-5.383-17.2-6.087-25.532-1.518-18-8.978-36.968-25.7-45.85C1.939,428.92-3.328,437.9,2.6,441.053c16.915,8.986,19.99,28.4,21.027,45.709.572,9.547,2.575,19.413,10.517,25.623a18.182,18.182,0,0,0,22.983-.239c6.584-5.273,10.067-13.607,12.141-21.562a141.126,141.126,0,0,0,4.509-33.746,136.063,136.063,0,0,0-.77-16.336c-.629-5.8-2.422-11.894-2-17.747.387-5.352,4.014-10.1,6.665-14.582q4.515-7.635,9.03-15.269c5.957-10.088,11.811-20.411,14.135-32.027,2.488-12.435,1.755-25.112.884-37.672-.462-6.647-10.877-6.7-10.412,0" transform="translate(0 -42.107)" fill="#969696"/>
          <path id="Trazado_716815" data-name="Trazado 716815" d="M104.88,323.2c-.764,11.013-1.413,22.042.117,33.022,1.508,10.82,5.7,20.6,11.043,30.056,5.468,9.677,11.6,19,16.916,28.757,2.909,5.34,2.849,10.1,1.943,15.989a167.91,167.91,0,0,0-1.933,17.629,142.558,142.558,0,0,0,2.56,33.948c1.764,9.033,4.183,18.312,10.062,25.618,5.173,6.43,13.282,10.109,21.417,7.236,9-3.177,13.807-12.364,15.215-21.267,1.651-10.437.9-20.717,4.27-30.9,3.085-9.329,8.713-17.562,17.515-22.237,5.92-3.145.666-12.136-5.255-8.991-14.628,7.771-22.47,23.647-24.921,39.5-1.34,8.659.122,18.663-3.4,26.817-3.343,7.734-11.144,10.209-16.761,3.371-5.3-6.455-6.943-15.547-8.4-23.516a130.817,130.817,0,0,1-1.744-32.022c.659-10.1,4.593-21.105.98-30.977-3.37-9.212-9.81-17.776-14.787-26.194-5.806-9.819-11.641-19.6-13.906-30.928-2.29-11.441-1.314-23.357-.513-34.9.464-6.687-9.95-6.658-10.412,0" transform="translate(-13.771 -42.107)" fill="#969696"/>
          <path id="Trazado_716816" data-name="Trazado 716816" d="M77.509,241.293H62.928a4.438,4.438,0,0,1-4.439-4.439V222.273a4.438,4.438,0,0,1,4.439-4.439H77.509a4.439,4.439,0,0,1,4.439,4.439v14.581a4.439,4.439,0,0,1-4.439,4.439" transform="translate(-7.74 -28.826)" fill="#d8140b"/>
          <path id="Trazado_716817" data-name="Trazado 716817" d="M118.515,241.743H103.934A4.438,4.438,0,0,1,99.5,237.3V222.723a4.438,4.438,0,0,1,4.439-4.439h14.581a4.439,4.439,0,0,1,4.439,4.439V237.3a4.439,4.439,0,0,1-4.439,4.439" transform="translate(-13.166 -28.885)" fill="#969696"/>
          <path id="Trazado_716818" data-name="Trazado 716818" d="M159.972,241.743H145.391a4.438,4.438,0,0,1-4.439-4.439V222.723a4.438,4.438,0,0,1,4.439-4.439h14.581a4.439,4.439,0,0,1,4.439,4.439V237.3a4.439,4.439,0,0,1-4.439,4.439" transform="translate(-18.652 -28.885)" fill="#d8140b"/>
          <path id="Trazado_716819" data-name="Trazado 716819" d="M77.509,274.638H62.928a4.438,4.438,0,0,1-4.439-4.439V255.618a4.438,4.438,0,0,1,4.439-4.439H77.509a4.439,4.439,0,0,1,4.439,4.439V270.2a4.439,4.439,0,0,1-4.439,4.439" transform="translate(-7.74 -33.238)" fill="#969696"/>
          <path id="Trazado_716820" data-name="Trazado 716820" d="M118.515,275.089H103.934A4.438,4.438,0,0,1,99.5,270.65V256.069a4.438,4.438,0,0,1,4.439-4.439h14.581a4.439,4.439,0,0,1,4.439,4.439V270.65a4.439,4.439,0,0,1-4.439,4.439" transform="translate(-13.166 -33.298)" fill="#969696"/>
          <path id="Trazado_716821" data-name="Trazado 716821" d="M159.972,275.089H145.391a4.438,4.438,0,0,1-4.439-4.439V256.069a4.438,4.438,0,0,1,4.439-4.439h14.581a4.439,4.439,0,0,1,4.439,4.439V270.65a4.439,4.439,0,0,1-4.439,4.439" transform="translate(-18.652 -33.298)" fill="#969696"/>
        </g>
      </g>
      <text id="x-2" data-name="x" transform="translate(57.451 204.437)" fill="#fff" font-size="17" font-family="MyriadPro-Regular, Myriad Pro"><tspan x="0" y="0">x</tspan></text>
      <g id="Grupo_1003271" data-name="Grupo 1003271">
        <g id="Grupo_1003270" data-name="Grupo 1003270" clip-path="url(#clip-path-8)">
          <path id="Trazado_716822" data-name="Trazado 716822" d="M146.98,231.334l5.065,4.5,8.862-8.993" transform="translate(-19.45 -30.018)" fill="none" stroke="#fff" stroke-miterlimit="10" stroke-width="0.973"/>
          <path id="Trazado_716823" data-name="Trazado 716823" d="M107.156,233.453l5.283-3.952,4.882,3.952" transform="translate(-14.18 -30.37)" fill="none" stroke="#fff" stroke-miterlimit="10" stroke-width="0.973"/>
          <path id="Trazado_716824" data-name="Trazado 716824" d="M117.321,262.847l-5.283,3.952-4.882-3.952" transform="translate(-14.18 -34.782)" fill="none" stroke="#fff" stroke-miterlimit="10" stroke-width="0.973"/>
          <path id="Trazado_716825" data-name="Trazado 716825" d="M73.231,269.432l-3.952-5.283,3.952-4.882" transform="translate(-9.168 -34.309)" fill="none" stroke="#fff" stroke-miterlimit="10" stroke-width="0.973"/>
          <path id="Trazado_716826" data-name="Trazado 716826" d="M152.193,259.266l3.952,5.283-3.952,4.882" transform="translate(-20.14 -34.309)" fill="none" stroke="#fff" stroke-miterlimit="10" stroke-width="0.973"/>
        </g>
      </g>
    </g>
    <g id="Grupo_1003277" data-name="Grupo 1003277" transform="translate(354.415 3770.343)">
      <g id="Grupo_1003274" data-name="Grupo 1003274">
        <g id="Grupo_1003273" data-name="Grupo 1003273" clip-path="url(#clip-path-10)">
          <path id="Trazado_716827" data-name="Trazado 716827" d="M98.143,329.942c-8.732,0-15.845-8.037-15.845-17.918s7.112-17.931,15.845-17.931S114,302.137,114,312.024s-7.112,17.918-15.856,17.918m0-24.95c-2.677,0-4.941,3.223-4.941,7.032s2.264,7.02,4.941,7.02,4.963-3.217,4.963-7.02-2.275-7.032-4.963-7.032" transform="translate(-7.226 -25.824)" fill="#b2b3b8"/>
          <path id="Trazado_716828" data-name="Trazado 716828" d="M98.779,308.513a5.437,5.437,0,0,1-5.435-5.447v-21.79a5.441,5.441,0,0,1,10.882,0v21.79a5.44,5.44,0,0,1-5.447,5.447" transform="translate(-8.196 -24.221)" fill="#2e536b"/>
          <path id="Trazado_716829" data-name="Trazado 716829" d="M111.39,70.36c0,8.417-5.975,15.241-13.363,15.241S84.653,78.777,84.653,70.36s5.975-15.247,13.375-15.247,13.363,6.83,13.363,15.247" transform="translate(-7.433 -4.839)" fill="#969696"/>
          <path id="Trazado_716830" data-name="Trazado 716830" d="M96.331,61.734a30.867,30.867,0,1,1,30.861-30.873A30.911,30.911,0,0,1,96.331,61.734m0-50.831A19.967,19.967,0,1,0,116.3,30.861,19.986,19.986,0,0,0,96.331,10.9" transform="translate(-5.749)" fill="#969696"/>
          <path id="Trazado_716831" data-name="Trazado 716831" d="M162.281,253.884c-2.24,13.983-17.659,25.415-34.251,25.415H54.84c-16.6,0-31.954-11.443-34.137-25.433l-7.181-46.149A402.679,402.679,0,0,1,9.57,156.64V97.467c0-14.1,13.581-25.639,30.173-25.639H143.116c16.58,0,30.173,11.541,30.173,25.639v62.189a388.193,388.193,0,0,1-4.09,51.061Z" transform="translate(-0.84 -6.307)" fill="#2e536b"/>
          <path id="Trazado_716832" data-name="Trazado 716832" d="M188.67,95.9c.218,4.545.345,8.8.345,12.455V99.582a22.987,22.987,0,0,0-.345-3.677" transform="translate(-16.567 -8.421)" fill="#cac4c1"/>
          <path id="Trazado_716833" data-name="Trazado 716833" d="M9.57,99.464V111.27c0-4.773.218-10.588.563-16.695a22.241,22.241,0,0,0-.563,4.889" transform="translate(-0.84 -8.304)" fill="#cac4c1"/>
          <path id="Trazado_716834" data-name="Trazado 716834" d="M143.17,203.738H39.8c-14.627,0-26.887-8.972-29.61-20.756.689,11.961,1.953,25.129,3.39,34.389l7.181,46.149c2.183,13.989,17.533,25.433,34.137,25.433h73.19c16.591,0,32.011-11.432,34.251-25.415l6.917-43.167c1.666-10.352,3.1-25.633,3.745-38.6-2.125,12.367-14.718,21.967-29.828,21.967" transform="translate(-0.895 -15.961)" fill="#cac4c1"/>
          <path id="Trazado_716835" data-name="Trazado 716835" d="M189.015,176.889v-8.778c0,3.66-.127,7.922-.345,12.46a23.034,23.034,0,0,0,.345-3.682" transform="translate(-16.567 -14.762)" fill="#cac4c1"/>
          <path id="Trazado_716836" data-name="Trazado 716836" d="M9.57,176.6a22.329,22.329,0,0,0,.563,4.895c-.345-6.107-.563-11.921-.563-16.689Z" transform="translate(-0.84 -14.471)" fill="#cac4c1"/>
          <path id="Trazado_716837" data-name="Trazado 716837" d="M143.116,71.828H39.743c-14.627,0-26.887,8.968-29.61,20.751-.345,6.107-.563,11.921-.563,16.695V156.64c0,4.768.218,10.582.563,16.689,2.723,11.782,14.983,20.756,29.61,20.756H143.116c15.11,0,27.7-9.6,29.828-21.969.218-4.537.345-8.8.345-12.46V106.246c0-3.654-.127-7.911-.345-12.455-2.125-12.368-14.718-21.963-29.828-21.963" transform="translate(-0.84 -6.307)" fill="#aa978f"/>
          <path id="Trazado_716838" data-name="Trazado 716838" d="M156.008,157.787a15.125,15.125,0,0,1-15.075,15.08H45.6a15.128,15.128,0,0,1-15.086-15.08v-46.1A15.132,15.132,0,0,1,45.6,96.6h95.33a15.13,15.13,0,0,1,15.075,15.086Z" transform="translate(-2.68 -8.482)" fill="#64e2dc"/>
          <path id="Trazado_716839" data-name="Trazado 716839" d="M140.65,175.526H45.32A18.046,18.046,0,0,1,27.292,157.5V111.4A18.05,18.05,0,0,1,45.32,93.373h95.33A18.044,18.044,0,0,1,158.666,111.4v46.1a18.04,18.04,0,0,1-18.016,18.022M45.32,99.256A12.156,12.156,0,0,0,33.175,111.4v46.1A12.154,12.154,0,0,0,45.32,169.642h95.33A12.148,12.148,0,0,0,152.783,157.5V111.4A12.15,12.15,0,0,0,140.65,99.256Z" transform="translate(-2.396 -8.199)" fill="#ff4739"/>
          <path id="Trazado_716840" data-name="Trazado 716840" d="M156.373,160.994H141.436l-3.262,3.309h21.394Z" transform="translate(-12.133 -14.137)" fill="#fcf2d7"/>
          <path id="Trazado_716841" data-name="Trazado 716841" d="M158.881,142.35v15.6l3.172,3.235v-22.06Z" transform="translate(-13.951 -12.216)" fill="#fcf2d7"/>
          <path id="Trazado_716842" data-name="Trazado 716842" d="M158.881,132.808l3.172,3.24V114l-3.172,3.211Z" transform="translate(-13.951 -10.011)" fill="#fcf2d7"/>
          <path id="Trazado_716843" data-name="Trazado 716843" d="M137.518,161.182l3.183-3.235v-15.6l-3.183-3.228Z" transform="translate(-12.075 -12.216)" fill="#fcf2d7"/>
          <path id="Trazado_716844" data-name="Trazado 716844" d="M140.7,117.216,137.518,114v22.044l3.183-3.24Z" transform="translate(-12.075 -10.011)" fill="#fcf2d7"/>
          <path id="Trazado_716845" data-name="Trazado 716845" d="M156.373,116.76l3.194-3.309H138.174l3.262,3.309Z" transform="translate(-12.133 -9.962)" fill="#fcf2d7"/>
          <path id="Trazado_716846" data-name="Trazado 716846" d="M108.926,164.3h21.416l-3.228-3.309H112.131Z" transform="translate(-9.565 -14.137)" fill="#fcf2d7"/>
          <path id="Trazado_716847" data-name="Trazado 716847" d="M129.646,157.947l3.09,3.235v-22.06l-3.09,3.228Z" transform="translate(-11.384 -12.216)" fill="#fcf2d7"/>
          <path id="Trazado_716848" data-name="Trazado 716848" d="M129.646,132.808l3.09,3.24V114l-3.09,3.211Z" transform="translate(-11.384 -10.011)" fill="#fcf2d7"/>
          <path id="Trazado_716849" data-name="Trazado 716849" d="M108.283,161.182l3.113-3.235v-15.6l-3.113-3.228Z" transform="translate(-9.508 -12.216)" fill="#fcf2d7"/>
          <path id="Trazado_716850" data-name="Trazado 716850" d="M111.4,117.216,108.284,114v22.044l3.113-3.24Z" transform="translate(-9.508 -10.011)" fill="#fcf2d7"/>
          <path id="Trazado_716851" data-name="Trazado 716851" d="M127.114,116.76l3.228-3.309H108.926l3.194,3.309Z" transform="translate(-9.565 -9.962)" fill="#fcf2d7"/>
          <path id="Trazado_716852" data-name="Trazado 716852" d="M69.35,164.3H90.755l-3.217-3.309H72.544Z" transform="translate(-6.089 -14.137)" fill="#fcf2d7"/>
          <path id="Trazado_716853" data-name="Trazado 716853" d="M90.045,157.947l3.1,3.235v-22.06l-3.1,3.228Z" transform="translate(-7.907 -12.216)" fill="#fcf2d7"/>
          <path id="Trazado_716854" data-name="Trazado 716854" d="M90.045,132.808l3.1,3.24V114l-3.1,3.211Z" transform="translate(-7.907 -10.011)" fill="#fcf2d7"/>
          <path id="Trazado_716855" data-name="Trazado 716855" d="M68.707,161.182l3.1-3.235v-15.6l-3.1-3.228Z" transform="translate(-6.033 -12.216)" fill="#fcf2d7"/>
          <path id="Trazado_716856" data-name="Trazado 716856" d="M71.809,117.216,68.707,114v22.044l3.1-3.24Z" transform="translate(-6.033 -10.011)" fill="#fcf2d7"/>
          <path id="Trazado_716857" data-name="Trazado 716857" d="M87.538,116.76l3.217-3.309H69.35l3.194,3.309Z" transform="translate(-6.09 -9.962)" fill="#fcf2d7"/>
          <rect id="Rectángulo_353389" data-name="Rectángulo 353389" width="3.172" height="3.177" transform="translate(89.698 146.989)" fill="#fcf2d7"/>
          <path id="Trazado_716858" data-name="Trazado 716858" d="M65.323,242.5H49.994a4.666,4.666,0,0,1-4.667-4.667V222.5a4.666,4.666,0,0,1,4.667-4.667H65.323A4.667,4.667,0,0,1,69.99,222.5v15.329a4.667,4.667,0,0,1-4.667,4.667" transform="translate(-3.98 -19.128)" fill="#d8140b"/>
          <path id="Trazado_716859" data-name="Trazado 716859" d="M106.33,242.947H91a4.666,4.666,0,0,1-4.667-4.667V222.951A4.666,4.666,0,0,1,91,218.284H106.33A4.667,4.667,0,0,1,111,222.951V238.28a4.667,4.667,0,0,1-4.667,4.667" transform="translate(-7.581 -19.167)" fill="#969696"/>
          <path id="Trazado_716860" data-name="Trazado 716860" d="M147.787,242.947h-15.33a4.666,4.666,0,0,1-4.667-4.667V222.951a4.666,4.666,0,0,1,4.667-4.667h15.33a4.667,4.667,0,0,1,4.666,4.667V238.28a4.667,4.667,0,0,1-4.666,4.667" transform="translate(-11.221 -19.167)" fill="#d8140b"/>
          <path id="Trazado_716861" data-name="Trazado 716861" d="M65.323,275.842H49.994a4.666,4.666,0,0,1-4.667-4.667V255.846a4.666,4.666,0,0,1,4.667-4.667H65.323a4.667,4.667,0,0,1,4.667,4.667v15.329a4.667,4.667,0,0,1-4.667,4.667" transform="translate(-3.98 -22.056)" fill="#969696"/>
          <path id="Trazado_716862" data-name="Trazado 716862" d="M106.33,276.293H91a4.666,4.666,0,0,1-4.667-4.667V256.3A4.666,4.666,0,0,1,91,251.63H106.33A4.667,4.667,0,0,1,111,256.3v15.329a4.667,4.667,0,0,1-4.667,4.667" transform="translate(-7.581 -22.095)" fill="#969696"/>
          <path id="Trazado_716863" data-name="Trazado 716863" d="M147.787,276.293h-15.33a4.666,4.666,0,0,1-4.667-4.667V256.3a4.666,4.666,0,0,1,4.667-4.667h15.33a4.667,4.667,0,0,1,4.666,4.667v15.329a4.667,4.667,0,0,1-4.666,4.667" transform="translate(-11.221 -22.095)" fill="#969696"/>
        </g>
      </g>
      <text id="x-3" data-name="x" transform="translate(48.393 215.26)" fill="#fff" font-size="19" font-family="MyriadPro-Regular, Myriad Pro"><tspan x="0" y="0">x</tspan></text>
      <g id="Grupo_1003276" data-name="Grupo 1003276">
        <g id="Grupo_1003275" data-name="Grupo 1003275" clip-path="url(#clip-path-10)">
          <path id="Trazado_716864" data-name="Trazado 716864" d="M133.819,231.564l5.325,4.735,9.317-9.454" transform="translate(-11.75 -19.919)" fill="none" stroke="#fff" stroke-miterlimit="10" stroke-width="0.973"/>
          <path id="Trazado_716865" data-name="Trazado 716865" d="M93.994,233.656l5.554-4.155,5.133,4.155" transform="translate(-8.253 -20.152)" fill="none" stroke="#fff" stroke-miterlimit="10" stroke-width="0.973"/>
          <path id="Trazado_716866" data-name="Trazado 716866" d="M104.681,262.846,99.127,267l-5.133-4.155" transform="translate(-8.253 -23.08)" fill="none" stroke="#fff" stroke-miterlimit="10" stroke-width="0.973"/>
          <path id="Trazado_716867" data-name="Trazado 716867" d="M60.273,269.953,56.118,264.4l4.155-5.133" transform="translate(-4.928 -22.766)" fill="none" stroke="#fff" stroke-miterlimit="10" stroke-width="0.973"/>
          <path id="Trazado_716868" data-name="Trazado 716868" d="M139.031,259.266l4.155,5.554-4.155,5.133" transform="translate(-12.208 -22.766)" fill="none" stroke="#fff" stroke-miterlimit="10" stroke-width="0.973"/>
          <path id="Trazado_716869" data-name="Trazado 716869" d="M99.449,484.958h0a9.149,9.149,0,0,1-9.122-9.122V332.622a9.122,9.122,0,1,1,18.244,0V475.836a9.149,9.149,0,0,1-9.122,9.122" transform="translate(-7.931 -28.406)" fill="#969696"/>
          <path id="Trazado_716870" data-name="Trazado 716870" d="M99.449,484.958h0a9.149,9.149,0,0,1-9.122-9.122V332.622a9.122,9.122,0,1,1,18.244,0V475.836A9.149,9.149,0,0,1,99.449,484.958Z" transform="translate(-7.931 -28.406)" fill="none" stroke="#969696" stroke-miterlimit="10" stroke-width="1"/>
          <path id="Trazado_716871" data-name="Trazado 716871" d="M22.742,493.146c0,2.547.434,5.473,0,7.973-.732,4.215-3.812,1.809-6.279.385-2.94-1.7-12.162-5.353-12.183-8.358s8.9-6.464,11.8-8.139c1.044-.6,2.551-1.9,3.718-2.146,2.027-.421,2.581.641,2.942,2.311.525,2.429,0,5.472,0,7.973a1.731,1.731,0,0,0,3.459,0c0-4.295,1.854-15.007-5.425-14.337-2.715.25-5.641,2.75-7.907,4.058l-6.335,3.658c-2.267,1.308-5.516,2.506-6.321,5.258-.891,3.053,1.145,4.946,3.507,6.36,4.825,2.886,9.9,6.316,15,8.659,8.889,4.08,7.484-8.918,7.484-13.656a1.731,1.731,0,0,0-3.459,0" transform="translate(0 -42.041)" fill="#969696"/>
          <path id="Trazado_716872" data-name="Trazado 716872" d="M176.428,493.139c0-2.547-.434-5.473,0-7.973.732-4.215,3.812-1.809,6.279-.385,2.94,1.7,12.162,5.353,12.183,8.358s-8.9,6.464-11.8,8.139c-1.044.6-2.551,1.9-3.718,2.146-2.027.421-2.581-.641-2.942-2.311-.525-2.429,0-5.472,0-7.973a1.731,1.731,0,0,0-3.459,0c0,4.295-1.854,15.007,5.425,14.337,2.715-.25,5.641-2.75,7.907-4.058l6.335-3.658c2.267-1.308,5.516-2.506,6.321-5.258.891-3.053-1.145-4.946-3.507-6.36-4.824-2.886-9.9-6.316-15-8.659-8.889-4.08-7.484,8.918-7.484,13.655a1.731,1.731,0,0,0,3.459,0" transform="translate(-15.17 -42.034)" fill="#969696"/>
          <path id="Trazado_716873" data-name="Trazado 716873" d="M162.409,501.683H24.668a6.841,6.841,0,0,1,0-13.683H162.409a6.841,6.841,0,0,1,0,13.683" transform="translate(-1.565 -42.85)" fill="#969696"/>
          <path id="Trazado_716874" data-name="Trazado 716874" d="M163.012,488.029a14.966,14.966,0,0,1-1.5,1.562c-.11.1-.241.189-.344.3-.386.4.6-.362.12-.089-.342.2-.654.455-.992.66-.3.18-.6.348-.906.506-.147.076-1.142.51-.589.292s-.506.175-.626.216c-.38.128-.766.243-1.155.345a10.515,10.515,0,0,0-2.1.431c.007-.015.809-.089.322-.043-.155.015-.31.036-.465.051q-.627.062-1.257.092a32.178,32.178,0,0,1-4.679-.13c-.383-.037-.763-.084-1.145-.128.855.1-.041-.009-.381-.064q-1.227-.2-2.443-.456c-1.546-.327-3.078-.723-4.594-1.171-3.822-1.129-7.591-2.45-11.353-3.764-7.846-2.738-15.655-5.608-23.665-7.838a133.777,133.777,0,0,0-24.127-4.363,131.619,131.619,0,0,0-47.666,4.613c-3.751,1.077-7.455,2.326-11.087,3.756-3.861,1.521-7.811,3.579-9.037,7.891-1.293,4.545,1.328,9.373,6.163,10.023a16.935,16.935,0,0,0,6.406-.762q3.051-.768,6.086-1.6c16.05-4.387,31.785-9.883,47.951-13.853,4-.982,8.022-1.87,12.071-2.622q2.771-.514,5.559-.931c.445-.067.892-.13,1.338-.193.141-.02.808-.108.059-.01l.576-.075q1.441-.183,2.886-.339a121.32,121.32,0,0,1,22.223-.447q1.342.1,2.681.24.668.068,1.335.147l.571.068c.314.038.846.109.24.026q2.745.372,5.465.916a81.915,81.915,0,0,1,10.464,2.8q1.257.43,2.5.9.62.238,1.237.485l.528.215c1.121.458-.391-.185.244.1,1.679.763,3.35,1.527,4.981,2.392a42.946,42.946,0,0,1,4.411,2.6q.283.2.561.405c-.052-.039-.483-.422-.155-.108.287.275.6.52.884.8.107.108.822.963.556.592-.307-.429.084.153.15.26.114.186.2.388.317.572.292.476-.13-.624-.043-.071a4.05,4.05,0,0,0,.135.478c.091.308-.044.6,0-.092-.011.164.012.337.008.5s-.016.332-.029.5c.065-.892.047-.309-.032-.109a6.511,6.511,0,0,0-.2.639c.092-.341.229-.442.005-.055-.2.348-.41.682-.627,1.019-.25.387.067-.109.11-.151-.164.159-.308.345-.471.508-.14.14-.966.817-.63.583.39-.273-.093.049-.144.079-.271.156-.533.325-.809.473-.192.1-1.252.517-.639.316-.439.144-.87.3-1.315.429a26.954,26.954,0,0,1-2.925.624c-.03.005-.683.106-.248.042s-.218.027-.249.031c-.471.057-.942.11-1.414.162q-1.682.183-3.365.344c-8.678.826-17.393,1.205-26.107,1.366-8.526.157-17.055.108-25.582.058-7.48-.043-14.963-.13-22.432-.555-3.67-.209-7.335-.5-10.988-.907q-1.34-.149-2.676-.321l-.572-.075c.757.1.093.012-.051-.008-.506-.073-1.013-.145-1.519-.222q-2.741-.413-5.464-.939c-3.538-.687-7.048-1.53-10.5-2.564q-2.62-.785-5.191-1.724-1.24-.454-2.464-.945c-.18-.072-1.285-.529-.587-.233-.463-.2-.924-.4-1.383-.6a76.767,76.767,0,0,1-9.367-5,4.144,4.144,0,0,0-5.616,1.473,4.191,4.191,0,0,0,1.473,5.616c12.967,8.119,27.907,11.875,42.961,13.645,15.38,1.809,30.962,1.611,46.422,1.617,8.721,0,17.445-.09,26.156-.515,4.352-.213,8.7-.507,13.039-.913,4.154-.389,8.6-.564,12.516-2.111,4.045-1.6,7.636-4.638,8.77-9a11.222,11.222,0,0,0-3.929-11.309,42.638,42.638,0,0,0-9.856-5.9A81.956,81.956,0,0,0,144.9,475.3c-14.484-4.365-30.025-4.751-44.952-2.882C83.392,474.486,67.4,479.2,51.482,484.05c-8.03,2.447-16.057,4.916-24.173,7.068-1.952.517-3.907,1.038-5.879,1.473-.071.016-.659.089-.166.037.534-.056-.213,0-.34,0-.175,0-.348-.008-.524-.01.8.009.318.073.088-.039.179.087.348.205.516.288l.158.143q-.375-.387-.051.015c.255.078.153.306.009-.026.422.977.111.345.074.09-.068-.455.027.4.037.4.055.01-.067-.556-.006-.568s-.223.843-.057.378a2.3,2.3,0,0,0,.142-.561c.027-.5-.124.387-.151.307s.237-.395.279-.5c-.022.056-.5.535-.159.2.2-.2.4-.4.592-.606.154-.16.591-.368-.033.009.146-.089.285-.191.429-.282.341-.214.694-.409,1.054-.589.164-.083,1.181-.541.776-.369-.444.189.09-.034.151-.057.3-.116.6-.234.895-.35a125.954,125.954,0,0,1,22.912-6.429q1.415-.256,2.836-.482.71-.112,1.421-.217c.213-.031,1.642-.226.944-.135q2.954-.386,5.925-.634,5.938-.5,11.905-.442t11.894.663q1.43.148,2.857.327l.611.078c-.675-.088.017,0,.13.02.542.078,1.085.156,1.626.239q2.945.454,5.864,1.048a185.876,185.876,0,0,1,23.876,6.931c7.495,2.6,14.96,5.6,22.664,7.538,6.342,1.6,13.567,2.527,19.89.337a18.721,18.721,0,0,0,8.317-5.506c1.379-1.642,1.73-4.217,0-5.805-1.522-1.4-4.33-1.756-5.805,0" transform="translate(-1.143 -41.389)" fill="#ffe578"/>
        </g>
      </g>
    </g>
  </g>
</svg>
