<svg xmlns="http://www.w3.org/2000/svg" xmlns:xlink="http://www.w3.org/1999/xlink" width="212" height="212" viewBox="0 0 212 212">
  <defs>
    <clipPath id="clip-path">
      <rect id="Rect치ngulo_353120" data-name="Rect치ngulo 353120" width="212" height="212" transform="translate(0 0)" fill="none"/>
    </clipPath>
  </defs>
  <g id="Grupo_1003029" data-name="Grupo 1003029" transform="translate(0 -0.416)">
    <g id="Grupo_1003028" data-name="Grupo 1003028" transform="translate(0 0.416)" clip-path="url(#clip-path)">
      <circle id="Elipse_5691" data-name="Elipse 5691" cx="103.5" cy="103.5" r="103.5" transform="translate(3 2)" fill="none" stroke="#06d1d1" stroke-miterlimit="10" stroke-width="8"/>
      <rect id="Rect치ngulo_353119" data-name="Rect치ngulo 353119" width="78" height="42" transform="translate(67 85)" fill="#b20d0d"/>
      <path id="Trazado_715035" data-name="Trazado 715035" d="M121.455,179.727A3.727,3.727,0,1,1,117.727,176a3.728,3.728,0,0,1,3.727,3.727" transform="translate(-29.018 -45.254)" fill="#ffc403"/>
      <path id="Trazado_715036" data-name="Trazado 715036" d="M112.455,160.727A3.727,3.727,0,1,1,108.727,157a3.728,3.728,0,0,1,3.727,3.727" transform="translate(-26.727 -40.418)" fill="#ffc403"/>
      <path id="Trazado_715037" data-name="Trazado 715037" d="M112.455,149.727A3.727,3.727,0,1,1,108.727,146a3.728,3.728,0,0,1,3.727,3.727" transform="translate(-26.727 -37.618)" fill="#ffc403"/>
      <path id="Trazado_715038" data-name="Trazado 715038" d="M134.455,165.727A3.727,3.727,0,1,1,130.727,162a3.728,3.728,0,0,1,3.727,3.727" transform="translate(-32.327 -41.69)" fill="#ffc403"/>
      <path id="Trazado_715039" data-name="Trazado 715039" d="M90.455,149.727A3.727,3.727,0,1,1,86.727,146a3.728,3.728,0,0,1,3.727,3.727" transform="translate(-21.127 -37.618)" fill="#ffc403"/>
      <path id="Trazado_715040" data-name="Trazado 715040" d="M166.455,113.727A3.727,3.727,0,1,1,162.727,110a3.728,3.728,0,0,1,3.727,3.727" transform="translate(-40.473 -28.454)" fill="#ffc403"/>
      <path id="Trazado_715041" data-name="Trazado 715041" d="M192.455,113.727A3.727,3.727,0,1,1,188.727,110a3.728,3.728,0,0,1,3.727,3.727" transform="translate(-47.091 -28.454)" fill="#ffc403"/>
      <path id="Trazado_715042" data-name="Trazado 715042" d="M197.455,128.727A3.727,3.727,0,1,1,193.727,125a3.728,3.728,0,0,1,3.727,3.727" transform="translate(-48.364 -32.272)" fill="#ffc403"/>
      <path id="Trazado_715043" data-name="Trazado 715043" d="M212.455,134.727A3.727,3.727,0,1,1,208.727,131a3.728,3.728,0,0,1,3.727,3.727" transform="translate(-52.182 -33.8)" fill="#ffc403"/>
      <path id="Trazado_715044" data-name="Trazado 715044" d="M217.455,155.727A3.727,3.727,0,1,1,213.727,152a3.728,3.728,0,0,1,3.727,3.727" transform="translate(-53.455 -39.145)" fill="#ffc403"/>
      <path id="Trazado_715045" data-name="Trazado 715045" d="M212.455,187.727A3.727,3.727,0,1,1,208.727,184a3.728,3.728,0,0,1,3.727,3.727" transform="translate(-52.182 -47.29)" fill="#ffc403"/>
      <path id="Trazado_715046" data-name="Trazado 715046" d="M186.455,168.727A3.727,3.727,0,1,1,182.727,165a3.728,3.728,0,0,1,3.727,3.727" transform="translate(-45.564 -42.454)" fill="#ffc403"/>
      <path id="Trazado_715047" data-name="Trazado 715047" d="M181.455,182.727A3.727,3.727,0,1,1,177.727,179a3.728,3.728,0,0,1,3.727,3.727" transform="translate(-44.291 -46.018)" fill="#ffc403"/>
      <path id="Trazado_715048" data-name="Trazado 715048" d="M166.455,168.727A3.727,3.727,0,1,1,162.727,165a3.728,3.728,0,0,1,3.727,3.727" transform="translate(-40.473 -42.454)" fill="#ffc403"/>
      <path id="Trazado_715049" data-name="Trazado 715049" d="M164.455,159.727A3.727,3.727,0,1,1,160.727,156a3.728,3.728,0,0,1,3.727,3.727" transform="translate(-39.964 -40.163)" fill="#ffc403"/>
      <path id="Trazado_715050" data-name="Trazado 715050" d="M156.455,177.727A3.727,3.727,0,1,1,152.727,174a3.728,3.728,0,0,1,3.727,3.727" transform="translate(-37.927 -44.745)" fill="#ffc403"/>
      <path id="Trazado_715051" data-name="Trazado 715051" d="M144.455,107.727A3.727,3.727,0,1,1,140.727,104a3.728,3.728,0,0,1,3.727,3.727" transform="translate(-34.873 -26.927)" fill="#ffc403"/>
      <path id="Trazado_715052" data-name="Trazado 715052" d="M139.455,123.727A3.727,3.727,0,1,1,135.727,120a3.728,3.728,0,0,1,3.727,3.727" transform="translate(-33.6 -31)" fill="#ffc403"/>
      <path id="Trazado_715053" data-name="Trazado 715053" d="M121.455,112.727A3.727,3.727,0,1,1,117.727,109a3.728,3.728,0,0,1,3.727,3.727" transform="translate(-29.018 -28.2)" fill="#ffc403"/>
      <path id="Trazado_715054" data-name="Trazado 715054" d="M121.455,101.727A3.727,3.727,0,1,1,117.727,98a3.728,3.728,0,0,1,3.727,3.727" transform="translate(-29.018 -25.4)" fill="#ffc403"/>
      <path id="Trazado_715055" data-name="Trazado 715055" d="M102.455,133.727A3.727,3.727,0,1,1,98.727,130a3.728,3.728,0,0,1,3.727,3.727" transform="translate(-24.182 -33.545)" fill="#ffc403"/>
      <path id="Trazado_715056" data-name="Trazado 715056" d="M83.455,133.727A3.727,3.727,0,1,1,79.727,130a3.728,3.728,0,0,1,3.727,3.727" transform="translate(-19.345 -33.545)" fill="#ffc403"/>
      <path id="Trazado_715057" data-name="Trazado 715057" d="M92.455,112.727A3.727,3.727,0,1,1,88.727,109a3.728,3.728,0,0,1,3.727,3.727" transform="translate(-21.636 -28.2)" fill="#ffc403"/>
      <path id="Trazado_715058" data-name="Trazado 715058" d="M88.455,168.727A3.727,3.727,0,1,1,84.727,165a3.728,3.728,0,0,1,3.727,3.727" transform="translate(-20.618 -42.454)" fill="#ffc403"/>
      <path id="Trazado_715059" data-name="Trazado 715059" d="M107.455,177.727A3.727,3.727,0,1,1,103.727,174a3.728,3.728,0,0,1,3.727,3.727" transform="translate(-25.455 -44.745)" fill="#ffc403"/>
      <path id="Trazado_715060" data-name="Trazado 715060" d="M181.455,102.727A3.727,3.727,0,1,1,177.727,99a3.728,3.728,0,0,1,3.727,3.727" transform="translate(-44.291 -25.654)" fill="#ffc403"/>
      <path id="Trazado_715061" data-name="Trazado 715061" d="M171.455,128.727A3.727,3.727,0,1,1,167.727,125a3.728,3.728,0,0,1,3.727,3.727" transform="translate(-41.745 -32.272)" fill="#ffc403"/>
    </g>
  </g>
</svg>
