<svg xmlns="http://www.w3.org/2000/svg" xmlns:xlink="http://www.w3.org/1999/xlink" width="646" height="409" viewBox="0 0 646 409">
  <defs>
    <clipPath id="clip-path">
      <rect id="Rectángulo_353200" data-name="Rectángulo 353200" width="646" height="409" rx="22" transform="translate(650.269 2726)" fill="#fff"/>
    </clipPath>
    <clipPath id="clip-path-2">
      <rect id="Rectángulo_353401" data-name="Rectángulo 353401" width="832.332" height="353.519" fill="none"/>
    </clipPath>
    <clipPath id="clip-path-4">
      <path id="Trazado_716986" data-name="Trazado 716986" d="M319.934,53.384c-14.1,2.332-26,11.79-35.665,22.322-26.69,29.1-40.455,74.885-19.744,108.5l2.577-6.673c1.246,21.165,14.7,40.255,32.018,52.493s38.153,18.458,58.939,22.634c25.967,5.217,54.1,7.287,77.893-4.345s40.53-40.992,30.208-65.385c11.374,4.215,24.064-7.754,23.456-19.867s-10.938-22-22.427-25.884a18.842,18.842,0,0,0-3.565-36.054c7.41-7.172,5.647-20.718-2.246-27.356s-19.845-6.862-29.188-2.5c-2.155,1.007-4.382,2.265-6.747,2-3.866-.433-6.01-4.5-8.37-7.594-7-9.165-20.114-11.792-31.393-9.4s-21.19,8.884-30.8,15.249c-3.914-11.824-16.836-18.589-29.424-18.59a33.77,33.77,0,0,0-5.519.448" transform="translate(-254.508 -52.936)" fill="none"/>
    </clipPath>
    <clipPath id="clip-path-6">
      <rect id="Rectángulo_353397" data-name="Rectángulo 353397" width="28.868" height="36.178" fill="none"/>
    </clipPath>
    <clipPath id="clip-path-7">
      <rect id="Rectángulo_353398" data-name="Rectángulo 353398" width="56.175" height="24.438" fill="none"/>
    </clipPath>
    <clipPath id="clip-path-8">
      <rect id="Rectángulo_353399" data-name="Rectángulo 353399" width="28.803" height="18.852" fill="none"/>
    </clipPath>
  </defs>
  <g id="Enmascarar_grupo_126" data-name="Enmascarar grupo 126" transform="translate(-650.269 -2726)" clip-path="url(#clip-path)">
    <g id="Rectángulo_353395" data-name="Rectángulo 353395" transform="translate(630.269 2714)" fill="#06d1d1" stroke="#707070" stroke-width="1">
      <rect width="679" height="429" stroke="none"/>
      <rect x="0.5" y="0.5" width="678" height="428" fill="none"/>
    </g>
    <g id="Grupo_1003299" data-name="Grupo 1003299" transform="translate(675.385 2753.741)">
      <g id="Grupo_1003298" data-name="Grupo 1003298" clip-path="url(#clip-path-2)">
        <g id="Grupo_1003284" data-name="Grupo 1003284">
          <g id="Grupo_1003283" data-name="Grupo 1003283" clip-path="url(#clip-path-2)">
            <path id="Trazado_716966" data-name="Trazado 716966" d="M563.5,309.663c-8.017-5.352-15.182-13.419-24.886-18.614-6.911-3.7-20.9-7.5-26.288-9.649-7.555-3-8.294-4.075-12.851,2.159-.634.869-1.24,1.676-1.841,2.445a138.345,138.345,0,0,1,25.721,15.52c12.643,9.341,15.4,20,20.312,34.277a135.535,135.535,0,0,0,15.005,30.114,46.512,46.512,0,0,0-.553-12.739c-1.333-5.782-5.1-15.119-7.313-20.915s.236-7.051,1.029-5.653,1.779,2.87,3.919,6.536a109.862,109.862,0,0,0,6.447,9.2c6.615,11.741,14.172,23.1,21.168,34.5a63.651,63.651,0,0,0-.675-8.911c-1.575-10.358-12.582-34.2-16.824-39.468-1.995-2.476-6.941-7.329-7.945-9.243-1.132-2.158,1.88-1.181,3.3-.3,2.672,1.667,9.843,5.634,9.843,5.634,6.015,2.606,12.715,3.907,19.171,2.324a67.023,67.023,0,0,0-8.114-6.133c-4.222-2.9-12.424-6.949-18.621-11.086" transform="translate(-45.733 -25.641)" fill="#feb51c"/>
            <path id="Trazado_716967" data-name="Trazado 716967" d="M588.8,319.46c-7.368-4.316-13.009-5.745-21.061-12.407-2.038-1.686-15-11.625-16.681-13.542a21.862,21.862,0,0,1-4.177-10.814c-.2-4.08,1.89-7.209-.637-8.821-7.808-.3-7.129,10.617-12.257,8.98-2.613-.834-17.273-9.031-22.675-10.837-13.7-4.58-41.552-16.539-42.055-15.716-2.982,4.879-5.974,9.752-8.913,14.657-1.228,2.05,18.18,7.072,26.045,9.8,2.7.935,5.272,2.021,7.809,3.158.6-.769,1.206-1.577,1.841-2.446,4.558-6.233,5.3-5.163,12.851-2.159,5.391,2.144,19.375,5.949,26.288,9.649,9.7,5.194,16.869,13.262,24.886,18.613,6.2,4.137,14.4,8.182,18.622,11.086a66.961,66.961,0,0,1,8.114,6.134c4.363-1.07,5.42-3.33,2-5.332" transform="translate(-42.301 -23.551)" fill="#f4a00b"/>
            <path id="Trazado_716968" data-name="Trazado 716968" d="M564,323.161c1,1.913,5.95,6.766,7.945,9.243,4.243,5.269,15.25,29.11,16.824,39.469a63.63,63.63,0,0,1,.675,8.91c.3.482.606.965.9,1.448.747,1.224,3.052,1.193,3.187-.369,1.834-21.367-10.855-46.1-16.39-53.366,0,0-7.17-3.967-9.843-5.634-1.417-.883-4.428-1.859-3.3.3" transform="translate(-51.809 -29.579)" fill="#f4a00b"/>
            <path id="Trazado_716969" data-name="Trazado 716969" d="M557.124,331.375c-.793-1.4-3.246-.143-1.029,5.653s5.98,15.133,7.313,20.915a46.474,46.474,0,0,1,.553,12.739c.023.035.043.071.066.106.875,1.337,3.376,1.443,3.743-.432a54.547,54.547,0,0,0-.282-23.249,109.805,109.805,0,0,1-6.447-9.2c-2.139-3.666-3.125-5.137-3.918-6.536" transform="translate(-51.022 -30.406)" fill="#f4a00b"/>
            <path id="Trazado_716970" data-name="Trazado 716970" d="M593.605,60.651c-10.981,2.184-22.188,7.4-34.934,8.77-9.079.973-25.883-.718-32.65-.7-9.481.03-10.738.8-13.041-7.18-.321-1.113-.636-2.154-.962-3.155a174.525,174.525,0,0,0,34.528-5.365c17.7-4.34,25.223-13.86,36.617-26.142A153.771,153.771,0,0,1,612.25,2.8a47.586,47.586,0,0,1-6.01,12.455c-3.9,5.231-11.954,13.046-16.824,17.942s-2.738,7.107-1.283,6.026,3.152-2.159,7.032-4.967,10.906-6.623,10.906-6.623c12.171-9.088,25.2-17.434,37.643-26.032a65.788,65.788,0,0,1-4.517,8.6c-6.11,9.688-28.188,29.093-35.035,32.672-3.217,1.683-10.651,4.572-12.553,6.082-2.146,1.7,1.54,1.912,3.454,1.588,3.611-.612,13.083-1.75,13.083-1.75,7.64-.237,15.469,1.094,21.81,5.2a83.621,83.621,0,0,1-11.418,2.924c-5.819,1.236-16.445,2.047-24.934,3.735" transform="translate(-47.055 -0.147)" fill="#feb51c"/>
            <path id="Trazado_716971" data-name="Trazado 716971" d="M625.586,65.382c-9.836,1.408-16.569.619-28.144,4.094-2.93.879-21.229,5.689-23.868,6.94-2.341,1.109-7.18,5.14-9.129,9.121s-1.009,7.91-4.439,8.524c-8.608-2.759-3.235-13.353-9.5-13.732-3.192-.194-22.6,2.218-29.231,1.9-16.822-.808-52.155.18-52.352-.837-1.167-6.021-2.348-12.04-3.457-18.069-.463-2.52,22.75.084,32.45.453,3.328.126,6.585.053,9.823-.084.325,1,.64,2.041.961,3.154,2.3,7.986,3.56,7.211,13.041,7.181,6.766-.021,23.571,1.671,32.65.7,12.746-1.367,23.954-6.586,34.934-8.77,8.489-1.688,19.115-2.5,24.934-3.735a83.762,83.762,0,0,0,11.417-2.924c4.285,2.772,4.474,5.434-.091,6.088" transform="translate(-42.776 -5.449)" fill="#f4a00b"/>
            <path id="Trazado_716972" data-name="Trazado 716972" d="M599.6,48.809c1.9-1.51,9.336-4.4,12.554-6.082,6.846-3.579,28.926-22.985,35.034-32.673a65.726,65.726,0,0,0,4.517-8.6c.527-.364,1.066-.724,1.592-1.089,1.33-.926,3.821.007,3.3,1.614-7.081,21.974-31.369,41.611-40.465,46.668,0,0-9.472,1.138-13.083,1.749-1.913.324-5.6.115-3.453-1.588" transform="translate(-55.044 0)" fill="#f4a00b"/>
            <path id="Trazado_716973" data-name="Trazado 716973" d="M595.66,39.3c-1.456,1.082-3.586-1.129,1.282-6.025s12.921-12.712,16.825-17.942a47.61,47.61,0,0,0,6.01-12.455c.04-.025.077-.054.117-.08,1.518-.987,4.28-.113,3.882,1.9A55.578,55.578,0,0,1,613.6,27.707s-7.027,3.815-10.907,6.623-5.576,3.887-7.031,4.967" transform="translate(-54.582 -0.219)" fill="#f4a00b"/>
            <path id="Trazado_716974" data-name="Trazado 716974" d="M494.211,244.672c11.023-11.933,13.434-29.517,15.146-45.882,2.871-27.441,5.223-55.737-2.436-82.188-3.935-13.59-10.4-26.238-16.818-38.785-5.867-11.465-11.833-23.075-20.384-32.589C451.357,24.8,423.354,16.566,396.4,14.149c-18.364-1.646-36.841-1.023-55.264-.4L217.224,17.961q9.521,14.733,19.044,29.467a79.226,79.226,0,0,1-40.83.74l8.6,36.939c.538,2.31,1.049,4.867-.045,6.959-1.256,2.4-4.12,3.274-6.693,3.926l-60.546,15.332a22.039,22.039,0,0,1,8.746,9.029c-12.145-.464-23.165,11.935-21.625,24.332.636,5.114,3.04,10.235,1.739,15.214-1.175,4.493-5.07,7.6-8.837,10.179a145.705,145.705,0,0,1-58.315,23.5c-8.59,1.421-17.407,2.089-25.527,5.3A45.572,45.572,0,0,0,6.423,228.633c-.562,2.012-.974,4.239-.13,6.144.887,2,2.93,3.143,4.857,4.1a137.952,137.952,0,0,0,37.672,12.318C46.558,259.736,37.6,265.8,29.078,264.565c18.946,17.623,38.582,35.679,62.7,44.359,34.065,12.262,71.5,4.026,106.674-4.305l-9.965,1.2,47.708,5.005-6.774,5.458c32.742,13.882,69.766,14.21,104.48,7s67.592-21.582,99.9-36.5c26.289-12.143,47.61-24.367,64.794-48.157" transform="translate(-0.534 -1.204)" fill="#ceb5b3"/>
            <path id="Trazado_716975" data-name="Trazado 716975" d="M497.477,247.922c9.38-10.523,13.284-23.933,15.251-37.633a410.541,410.541,0,0,0,4.1-46.741c.458-16.4-.68-33.1-5.262-48.925-4.5-15.555-12.153-30.053-19.57-44.37C485.119,56.97,477.432,43.85,465.934,34,455.442,25.019,443,18.771,429.863,14.646c-30.477-9.57-63.166-7.7-94.646-6.633L216.69,12.039c-3.887.132-6.939,4.526-4.639,8.085L231.094,49.59q1.606-3.946,3.211-7.893a75.779,75.779,0,0,1-37.972.741,5.437,5.437,0,0,0-6.61,6.609Q193,63.119,196.276,77.191c.546,2.346,1.1,4.689,1.638,7.036.242,1.06,1.338,3.658.815,4.6-1.175,2.123-8.2,2.65-10.311,3.185l-53.626,13.58c-4.555,1.154-5.167,7.485-1.283,9.821a18.283,18.283,0,0,1,6.818,7.1l4.639-8.085c-15.321-.032-28.562,14.342-27,29.706.428,4.2,2.65,8.77,2.024,13-.669,4.521-5.617,7.246-9.106,9.525A140.482,140.482,0,0,1,86.88,179.305,143.811,143.811,0,0,1,59.609,187.3c-9.027,1.7-18.394,2.174-27.106,5.279a51.142,51.142,0,0,0-31.412,32.79c-1.437,4.653-1.925,9.837,1.53,13.765,3.224,3.664,8.459,5.428,12.83,7.3a144.761,144.761,0,0,0,31.41,9.4l-3.752-6.609a13.365,13.365,0,0,1-14.564,9.426c-4.685-.489-7.021,6.178-3.8,9.173,22.6,21.012,46.549,42.554,77.593,49.332,32.3,7.053,65.489-.441,97-7.9,5.755-1.361,4.678-11.288-1.428-10.554l-9.964,1.2c-6.85.824-6.957,10.016,0,10.746l47.707,5.005q-1.9-4.586-3.8-9.173l-6.774,5.458c-3.531,2.846-.9,7.619,2.371,8.981,37.628,15.687,79.924,14.224,118.842,4.336,20.679-5.253,40.657-12.851,60.256-21.217,17.812-7.6,35.883-15.33,52.708-24.971a137.837,137.837,0,0,0,43.434-38.283c4.086-5.588-5.234-10.956-9.279-5.424-20.94,28.635-53.775,42.544-85.28,56.365-36.076,15.826-74.257,29.362-114.049,30.242-21.869.483-43.535-2.973-63.775-11.41l2.371,8.98,6.773-5.458c4.043-3.258.268-8.746-3.8-9.173l-47.707-5.005v10.746l9.964-1.2q-.714-5.277-1.428-10.554c-29.521,6.984-60.992,14.512-91.29,7.9-29.253-6.387-51.569-26.779-72.85-46.569l-3.8,9.173c11.364,1.185,21.663-6.655,24.926-17.316.794-2.592-.946-6.106-3.753-6.61a141.9,141.9,0,0,1-24.733-6.712,105.4,105.4,0,0,1-11.655-5.064c-1.8-.933-2.663-1.3-2.447-3.4a21.862,21.862,0,0,1,1.941-5.792c6.017-13.869,18.339-21.523,32.791-24.156,8.2-1.495,16.459-2.354,24.57-4.352a150.991,150.991,0,0,0,23.12-7.8,149.012,149.012,0,0,0,21.67-11.381c5.8-3.7,12.464-7.879,14.856-14.714,2.888-8.249-2.88-16-.751-24.1,1.884-7.169,8.394-12.823,15.888-12.807a5.425,5.425,0,0,0,4.639-8.085,29.388,29.388,0,0,0-10.673-10.957q-.643,4.911-1.284,9.82l32-8.1c10.153-2.571,20.884-4.43,30.775-7.871,3.6-1.253,6.788-3.361,8.213-7.035,1.692-4.363.24-8.981-.773-13.333Q203.975,62.9,200.085,46.19l-6.609,6.61a87.417,87.417,0,0,0,43.686-.741c3.223-.889,5.111-4.954,3.211-7.893L221.329,14.7l-4.639,8.085,98.773-3.354c31.162-1.059,63.462-4.165,94.352,1.4,12.694,2.286,25.232,6.067,36.491,12.46,12.071,6.854,21.384,16.487,28.608,28.291a319.808,319.808,0,0,1,20.728,40.5,130.232,130.232,0,0,1,10.32,45.419c.829,17.179-.773,34.379-2.585,51.447-1.523,14.329-3.529,30.194-13.5,41.379-4.589,5.148,2.986,12.774,7.6,7.6" transform="translate(0 -0.654)" fill="#ceb5b3"/>
            <path id="Trazado_716976" data-name="Trazado 716976" d="M452.834,246.618a73.648,73.648,0,0,0,40.311-.468c1.993-.6,4.1-1.38,5.27-3.1,1.726-2.542.725-5.972-.406-8.829a174.012,174.012,0,0,0-19.836-36.6l12.046-1.952a72.186,72.186,0,0,1-10.118-17.81c-.711-1.813-1.358-3.793-.858-5.676,1.19-4.493,7.466-4.975,11.9-3.586s9.381,3.64,13.443,1.379c4.544-2.529,4.66-9.506,1.573-13.691s-8.2-6.258-13.054-8.133c5.76-4.868,11.863-13.485,6.635-18.92-1.227-1.276-2.905-2.045-4.133-3.32-5.478-5.7,1.509-14.571,7.928-19.182-7.949-2.709-17.791-9.787-13.694-17.117.991-1.772,2.772-3.253,2.863-5.281.354-7.858-18.513-.639-18.88-8.5,6.714-1.55,7.748-12.867,1.426-15.608-6.588-2.857-17.015,2.219-19.946-4.335-1.418-3.171.481-7.125-1.029-10.253-2.852-5.906-11.708-1.728-18.255-2.128-12.133-.741-19.932-19.74-31.3-15.43-2.68,1.016-4.751,3.256-7.421,4.3-4.275,1.669-9.026-.025-13.438-1.284-40.4-11.536-85.069,14.421-124.829.832l7.475,14.837c.8,1.592,1.625,3.379,1.129,5.091-1.365,4.708-8.562,2.111-13.279,3.445-7.952,2.248-7.172,15.692-14.8,18.879-5.9,2.468-15.638-1.491-17.331,4.68-.555,2.025.373,4.117.975,6.129,4.491,15.014-9.673,29.514-24.371,34.95s-31.22,6.01-44.734,13.945A26.158,26.158,0,0,0,159.625,147c-5.635,1.189-12.481,3.641-13.086,9.368-.174,1.645.24,3.378-.345,4.927-.792,2.1-3.087,3.124-5.078,4.155-12.2,6.312-19.353,19.681-31.166,26.688-11.028,6.541-24.518,6.689-37.216,8.466S46.2,207.053,40.4,218.488l39.323,15.48a33.769,33.769,0,0,1-27.3,9.158,85.75,85.75,0,0,0,39.1,26.368,12.693,12.693,0,0,1-14.568,8.276c32.243,23.336,76.314,29.323,113.614,15.434-7.634,1.217-15.578-5.274-15.905-13,23.085-.6,42.975,20.45,65.983,18.483,11.927-1.02,23.607-8.252,35.163-5.127a17.979,17.979,0,0,1-9,7.2l21.032-3.55a11.533,11.533,0,0,1,5.71,0c6.6,2.312,4.611,13.6,10.551,17.288,5.309,3.3,11.543-1.952,17.1-4.822,6.367-3.29,13.839-3.421,21-3.479l32.44-.264c4.729-.038,9.756-.163,13.706-2.765,7.083-4.666,9.127-16.22,17.491-17.637,3.484-.59,7.2.922,10.529-.274,5.114-1.838,6.155-8.565,9.707-12.68,4.9-5.681,13.563-5.494,20.7-7.824s13.4-12.037,7.529-16.718" transform="translate(-3.713 -2.522)" fill="#ddc6c3"/>
            <path id="Trazado_716977" data-name="Trazado 716977" d="M450.836,251.326a79.984,79.984,0,0,0,28.97,2.323c7.453-.822,19.638-1.754,23.344-9.535,3.6-7.57-2.59-17.506-5.8-24.22a178.646,178.646,0,0,0-15.023-25.571q-1.628,4-3.256,8l12.046-1.952c3.235-.524,5.255-5.366,3.256-8a76.433,76.433,0,0,1-7.191-11.329,43.193,43.193,0,0,1-2.63-5.873c-.585-1.751-1.157-1.743.153-2.235,3.111-1.169,7.568,1.582,10.535,2.259,4.1.936,8.322.887,12-1.365,5.875-3.6,7.108-11.559,4.747-17.6-3-7.673-10.819-11.088-17.983-13.883q1.2,4.554,2.4,9.107c6-5.273,12.559-13.862,9.376-22.3a12.9,12.9,0,0,0-3.731-5.2c-1.122-.97-3.155-1.754-3.486-3.278-.742-3.4,4.891-8.08,7.169-9.788,3.819-2.865,3.342-8.273-1.3-9.958-3.151-1.144-11.482-4.7-10.438-9.113.257-1.083,1.536-2.075,2.1-3.057a10.585,10.585,0,0,0,1.506-4.974,8.711,8.711,0,0,0-1.782-5.5c-2.452-3.236-6.58-3.829-10.373-4.094-1.9-.133-3.858-.006-5.747-.267.347.047-1.778-.177-1.5-.262q-1.056-.278-.464-.163a2.05,2.05,0,0,1,.983,1.788q-2,2.626-4,5.254c7.555-2.32,11.318-10.671,8.941-18.1-2.89-9.038-11.817-9.211-19.763-9-.821.021-3.343.4-3.985-.18-.876-.792-.115-3.261-.128-4.381-.051-4.624-1.746-8.875-6.013-11.092-7.03-3.652-15.024,2.125-21.869-1.531-6.186-3.3-10.322-9.526-16.608-12.739a16.141,16.141,0,0,0-10.084-1.823c-5.3.874-8.963,5.973-14.441,5.208-4.894-.684-9.615-2.7-14.528-3.5a102.53,102.53,0,0,0-15.867-1.343c-10.335-.059-20.62,1.281-30.822,2.808-22.99,3.44-46.871,8.765-69.625,1.26-4.808-1.586-8.159,4.022-6.153,8q2.43,4.822,4.859,9.643c.78,1.549,1.5,3.9,2.616,5.193,1,1.157-.364,1.122.943.487,1.863-.9-.5-.614-.5-.613-1.764-.636-5.053.007-6.916.245a13.655,13.655,0,0,0-7.258,3.007c-3.569,2.978-5.07,7.236-6.966,11.321-2.122,4.571-3.614,5.672-8.647,5.709-4.572.033-9.66-.079-13.085,3.48-5,5.2-1.063,11-.786,16.953.566,12.151-12.46,21.545-22.633,25.092-14.811,5.164-30.736,6.133-44.608,13.983-2.3,1.3-2.867,3.75-2.5,6.153A31.53,31.53,0,0,0,154.37,149.2q1.629-4,3.256-8c-5.41,1.21-11.307,3.25-14.669,7.951-1.86,2.6-1.863,4.953-2.463,7.918-.4,1.966.349,1.491-1.666,2.611-1.13.628-2.288,1.191-3.388,1.873-11.21,6.945-17.994,19.228-29.458,25.713-12.351,6.987-27.509,5.672-41.007,8.552-11.944,2.547-23.809,8.24-29.834,19.378-1.813,3.351-.053,6.7,3.256,8l39.323,15.48q-1.2-4.552-2.4-9.106a29.277,29.277,0,0,1-23.445,7.563c-5.137-.523-6.589,6.091-3.853,9.3A92.864,92.864,0,0,0,89.525,274.2l-3.806-6.7a7.3,7.3,0,0,1-7.865,4.47,5.476,5.476,0,0,0-4.2,9.958c33.671,24.046,78.953,30.173,117.813,15.983,5.321-1.943,5.1-11.4-1.448-10.7-4.775.51-9.965-2.324-10.457-7.55l-5.449,5.449c17-.139,31.451,10.943,47.135,15.945a49.545,49.545,0,0,0,24.758,1.7c9.075-1.754,18.415-6.681,27.805-4.486q-1.628-4-3.256-8a12.894,12.894,0,0,1-5.746,4.7c-6.49,2.614-4.1,11.688,2.9,10.508l15.775-2.663c2.909-.491,7.24-2.6,8.852.6,2.979,5.911,2.786,12.555,9.62,15.838,8.521,4.093,15.541-3.14,22.936-6.079,8.873-3.526,20.044-2.085,29.38-2.161,9.641-.078,20.348,1.134,29.809-1.034,7.749-1.776,11.936-7.448,16.082-13.709,1.4-2.11,2.995-4.966,5.564-5.786,1.787-.571,3.826.051,5.651.115a15.786,15.786,0,0,0,7.193-1.168c3.351-1.506,5.608-4.309,7.394-7.441,1.747-3.064,2.843-6.43,6.08-8.249,7.41-4.164,16.314-2.564,23.044-8.6,6.123-5.495,9.26-15.189,2.518-21.487-5.122-4.783-12.844,2.906-7.706,7.705,1.673,1.562-.356,3.947-1.647,5.259-2.455,2.492-5.736,3.054-9.032,3.759-6.8,1.453-13.725,3.024-18.272,8.739-2.064,2.593-3.168,5.663-4.984,8.4-2.37,3.568-6.2,1.72-9.921,1.973-6.767.461-11.1,5.069-14.683,10.368-1.57,2.32-2.934,4.936-4.971,6.9-2.809,2.7-6.4,3.068-10.152,3.175-9.716.275-19.457.175-29.177.254-8.285.067-17.149-.394-25.067,2.492-3.659,1.333-6.812,3.461-10.231,5.262-2.811,1.481-5.252,2.656-6.749-.7-2.542-5.7-2.8-12.316-9.261-15.249-4.3-1.952-8.974-.71-13.414.04l-17.527,2.959q1.448,5.254,2.9,10.508a25.915,25.915,0,0,0,12.258-9.7c1.967-2.848-.009-7.245-3.256-8-9.574-2.238-18.476.558-27.683,3.061a42.314,42.314,0,0,1-26.136-.691c-16.33-5.54-30.9-16.067-48.775-15.921-2.739.022-5.727,2.486-5.449,5.449,1.007,10.693,10.23,19.637,21.354,18.447q-.723-5.352-1.448-10.7A119.13,119.13,0,0,1,79.155,272.519l-4.2,9.959a18.519,18.519,0,0,0,21.27-12.08c1.068-2.861-1.214-5.839-3.806-6.7a82.2,82.2,0,0,1-36.7-24.966q-1.929,4.65-3.854,9.3a39.809,39.809,0,0,0,31.151-10.755c3.274-3.043,1.179-7.7-2.4-9.106L41.3,212.688q1.629,4,3.256,8C50.2,210.244,62.641,206.84,73.633,205.31c13.3-1.851,27.321-2.1,39.1-9.376,10.469-6.467,16.96-17.424,27.064-24.235,4.542-3.063,10.1-4.661,11.377-10.695.554-2.628-.517-4.729,1.732-6.563,2.033-1.658,5.152-2.184,7.617-2.735,3.146-.7,5.35-5.238,3.256-8a24.993,24.993,0,0,1-4.975-11.814q-1.252,3.077-2.5,6.153c13.168-7.452,28.678-8.072,42.719-13.14,12.385-4.47,24.3-13.577,28.593-26.467a25.963,25.963,0,0,0,1.327-8.877,29.225,29.225,0,0,0-.565-4.637c-.129-.651-.292-1.286-.465-1.926.022.081-.962-3.723-1.258-2.828-.165.5.252-.05,1.117-.091,1.2-.056,2.406-.048,3.612-.056a29.877,29.877,0,0,0,8.167-.808c5.3-1.547,8.459-5.959,10.632-10.756,1.688-3.727,2.587-8.424,7.234-8.683,5.839-.325,12.987.076,14.93-7.014,1.059-3.865-.747-7.415-2.426-10.774-2.228-4.458-4.486-8.9-6.728-13.353l-6.153,8c37.1,12.238,74.49-6.8,112.025-3.262a75.335,75.335,0,0,1,13.545,2.645c4.857,1.38,9.861,2.738,14.873,1.288,3.394-.982,6.663-4.986,10.173-4.957,2.4.02,4.739,2.083,6.487,3.528,5.115,4.228,9.749,9.324,16.185,11.549a21.73,21.73,0,0,0,9.761.736c1.766-.205,7.767-1.793,8.8-.413.792,1.052-.178,6.22.22,7.822a11.5,11.5,0,0,0,2.822,5.2c2.864,2.929,6.961,3.6,10.884,3.587,2.442,0,8.429-1.408,10.211.729,1.112,1.333.459,4.438-1.2,4.947-2.065.634-4.289,2.876-4,5.254.625,5.15,3.793,8.254,8.888,9.167a53.384,53.384,0,0,0,7.1.558c.807.035,2.453.468,3.189.208.829-.293.488.7.046-.7-.647-2.05-1.285-.105-2.13,1.272a13.812,13.812,0,0,0-1.761,4.418,13.1,13.1,0,0,0,1.664,9.166c3.505,6.1,10.331,9.738,16.713,12.054l-1.3-9.959c-6.637,4.98-14.714,13.242-12.144,22.429a12.674,12.674,0,0,0,3.115,5.311c1.187,1.212,3.826,2.251,4.455,3.866,1.348,3.463-4.862,8.826-6.958,10.668-3.372,2.964-1.1,7.74,2.4,9.107,3.322,1.3,7.471,2.727,9.758,5.641.992,1.263,2.292,4.211,1,5.742-2.034,2.406-8.474-1.18-10.874-1.732a19.937,19.937,0,0,0-9.006-.113c-18.148,4.277-3.219,27.291,2.979,35.474l3.256-8-12.046,1.951c-3.328.539-5.139,5.322-3.256,8a180.116,180.116,0,0,1,11.774,19.121q2.256,4.254,4.273,8.629c1.3,2.821,3.918,6.91,4.116,10.106.129,2.09.72,1-.735,2.286-1.037.918-3.806,1.122-5.145,1.44a64.853,64.853,0,0,1-10.649,1.637,70.656,70.656,0,0,1-22.82-2.223c-6.79-1.777-9.687,8.73-2.9,10.508" transform="translate(-3.163 -1.976)" fill="#ddc6c3"/>
            <path id="Trazado_716978" data-name="Trazado 716978" d="M291.026,41.516c-7.851.694-15.871,3.088-21.559,8.542s-8.415,14.457-4.961,21.54c-14.658-5.214-32.321,9.125-30.232,24.541-13.847.615-24.153,17.5-18.369,30.1a152.345,152.345,0,0,0-48.1,17.773c-6.649,3.839-13.287,8.493-16.676,15.382-1.049,2.132-1.751,4.414-2.585,6.638a40.788,40.788,0,0,1-3.651,7.536c-6.3,9.949-17.5,15.471-28.147,20.508l-3.15,1.491L84.891,209.151c-5.969,2.825-12.568,6.368-14.334,12.731s6.219,14.106,11.129,9.69A23.658,23.658,0,0,1,59.659,246.53a22.173,22.173,0,0,0,13.6,11.025c4.253,1.174,8.772,1.043,13.052,2.113s8.631,3.87,9.461,8.2-4.116,9.167-7.908,6.912a89.122,89.122,0,0,0,39.8,7.382,5.2,5.2,0,0,1-.549,6.724,126.722,126.722,0,0,0,44.8-7.2c8.426-2.98,18.146-10.632,14.512-18.8a34.7,34.7,0,0,0,31.8,9.875c.71,9.095,11.721,15.7,20.077,12.039,2.544-1.113,4.777-2.968,7.473-3.635,7.134-1.768,14.3,5.292,21.408,3.444,2.865-.746,5.419-2.905,8.374-2.708,3.588.24,5.905,3.728,8.049,6.615,6.01,8.091,19.479,13.347,25.376,5.174a19.555,19.555,0,0,0,35.176,4.986c1.6-2.481,2.749-5.448,5.246-7.02,8.626-5.428,18.028,11.4,27.729,8.275,3.007-.967,5.054-3.669,7.508-5.658,4.087-3.314,9.438-4.708,13.66-7.849s7.043-9.543,3.682-13.592c8.1,3.9,18.82-5.333,16.154-13.925,5.444-2.813,12.23.522,18.142-1.1,12.126-3.316,13.355-24.329,25.868-25.545,5.7-.554,11.03,3.728,16.737,3.239,9.182-.786,12.69-13.825,7.931-21.716s-14.056-11.59-22.705-14.769c4.924-1.314,5.492-8.8,2.055-12.567s-8.9-4.723-13.938-5.47c7.691-1.694,12.218-11.643,8.442-18.553,10.086.911,18.564-11.662,13.938-20.671-1-1.951-2.484-3.755-2.721-5.935-.291-2.683,1.366-5.13,2.351-7.642,3.286-8.381-2.162-19.033-10.881-21.274,3.489-8.25-2.318-17.257-7.819-24.325l-6.685-8.591c-5.722-7.352-12.537-15.323-21.823-16.073-7.218-12.653-21.969-19.151-36.321-21.65S361.6,34.426,347.26,31.836c-5.967-1.078-12.652-2.58-17.68.808-3.344,2.253-5.459,6.438-9.362,7.449-3.112.806-6.283-.7-9.375-1.58a24.693,24.693,0,0,0-23.211,5.671" transform="translate(-5.483 -2.808)" fill="#ead9d6"/>
          </g>
        </g>
        <g id="Grupo_1003286" data-name="Grupo 1003286" transform="translate(231.118 48.071)">
          <g id="Grupo_1003285" data-name="Grupo 1003285" clip-path="url(#clip-path-4)">
            <path id="Trazado_716979" data-name="Trazado 716979" d="M302.922,135.4c-3.7-10.366-5.16-22.4-5.787-31.131a1.79,1.79,0,0,1,.978-1.7c.726.473,1.421.942,2.162,1.43,9.734,6.418,19.165,18.028,2.647,31.4" transform="translate(-258.425 -57.497)" fill="#feb51c"/>
            <path id="Trazado_716980" data-name="Trazado 716980" d="M338.444,116.4a2.288,2.288,0,0,1,.884,3.036c-5.29,11.2-29.649,30.133-29.012,29.461a43.254,43.254,0,0,1-7.294-13.529c16.517-13.374,7.086-24.983-2.647-31.4-.742-.489-1.437-.957-2.163-1.43a2.328,2.328,0,0,1,1.574-.311A123.239,123.239,0,0,1,338.444,116.4" transform="translate(-258.524 -57.463)" fill="#f4a00b"/>
            <path id="Trazado_716981" data-name="Trazado 716981" d="M852.632,243.807a36.6,36.6,0,0,1-9.444,6.159,18,18,0,0,1,1.084,8.237c-1.636,14.235-15.4,18.7-28.156,18.257,3.157,4.6,3.962,9.834.2,15.144-5.254,7.422-17.1,8.234-25.2,9.16-4.408.5-8.877.89-13.366,1.165-35.41,24.728-63.048,32.88-89.154,37.136-35.367-3.284-75.769-15.214-88.29-29.876-12.8,1.724-53.3,7.4-73.111-33.908-23.809-10.333-36.249-25.809-42.641-50.884-4.752,4.6-15.044,5.934-22.007-2.215-4.933.892-9.493,3.125-14.546,3.883-5.549.833-29.557-.011-41.7-12.863-22.424,8.158-43.652,3.812-63.933-6.651a137.968,137.968,0,0,1-15.148-13.9c-17.025-18.226-27.61-45.66-8.316-66.406a45.032,45.032,0,0,1,19.466-11.864c.037,0,.061.036.1.035,7.11-.245,13.849-.64,20.664,1.923,6.385,2.4,11.312,3.786,19.069,10.509-.172-.3,11.866-19.741,24.292-22.051,11.322-2.1,32.4,8.276,33.269,8.827,1.914,1.218,3.387-1.481,2.159-2.949a25.934,25.934,0,0,0-2-1.924c9.831-10.74,23.99-19.975,41.77-16.663.115.022,12.857-28.1,28.69-33.814,15.394-5.556,28.931-1.193,41.809,7.287A22.711,22.711,0,0,0,537.8,77.29c-.145.375.383.564.625.344C548.642,68.316,560.2,63.6,574.052,66.4a59.6,59.6,0,0,1,16.171,5.562c-9.343,13.655-24.9,38.12-9.041,53.59.939-10.873,9.305-23.187,20.433-31.142,12.3-8.793,35.1-14.3,50.181-3,7.4-7.011,22.814-13.928,35.054-12.864,14.012,1.218,24.479,21.1,24.506,21.109.269.115,16.782-6.3,27.751,6.429,9.385,10.89,6.274,26.106-2.194,34.423-10.887,10.694-31.725,13.661-44.4,10.047-2.543-.725-3.468,2.7-1.571,4,18.2,12.545,44.376,10.887,59.944-3.366,8.6,1.7,26.381,5.519,37.007,44.105,31.336.743,53.745,20.989,64.743,48.51" transform="translate(-259.476 -53.199)" fill="#f4eeed"/>
            <path id="Trazado_716982" data-name="Trazado 716982" d="M409.723,228.459c12.143,12.852,36.152,13.7,41.7,12.864,5.053-.759,9.613-2.991,14.546-3.884,6.962,8.15,17.255,6.813,22.008,2.215,6.391,25.075,18.83,40.551,42.64,50.884,19.807,41.313,60.307,35.633,73.111,33.908,12.521,14.663,52.924,26.594,88.29,29.876-4.979.812-9.908,1.5-14.818,2.111-14.745,1.847-45.216,4.91-74.764-12.1-27.752,2.307-63.821-11-86.276-33.913-9.215-9.4-16.309-20.667-23.705-31.553-5.485-8.071-12.028-16.6-16.881-25.558-17.237,3.345-48.242.106-64.916-11.475-27.931,3.989-43.051-2.73-64.867-20.028,20.281,10.462,41.509,14.808,63.933,6.65" transform="translate(-262.896 -68.456)" fill="#f4e8e6"/>
            <path id="Trazado_716983" data-name="Trazado 716983" d="M457.455,75.19c1.675-9.394,14.837-27.58,29.227-28.318C492.268,32,528.09,21,540.307,31.984c8.2-4.4,15.753-8.22,25.242-8.8,9.619-.585,25.885.872,25.461,13.894a2.092,2.092,0,0,0,.058.338l0,0c19.205-8.681,31.127,4.116,33.306,9.453-10.805,7.813-12.053,17.142-11.911,17.068,6.556-3.42,15.589-9.815,22.954-11.4,5.667-1.218,15.883-1.561,28.1,5.982,8.664-6.7,23.605-8.889,34.026-7.071,13.514,2.357,21.494,10.064,30.871,22.992,10.716,1.129,17.152,5.831,23.712,15.5,6.5,9.582,9.273,18.739,8.057,30.211a52.931,52.931,0,0,1,28.373,8.691c9.8,14.607,24.326,38.446,35.423,53.343,26.98,14.919,43.525,31.783,38.975,46.412a26.5,26.5,0,0,1-7.307,12.192c-11-27.521-33.407-47.767-64.743-48.51-10.627-38.585-28.411-42.407-37.007-44.1-15.568,14.253-41.739,15.911-59.944,3.365-1.9-1.307-.972-4.729,1.571-4,12.678,3.614,33.516.647,44.4-10.047,8.467-8.317,11.579-23.532,2.194-34.422-10.97-12.728-27.483-6.315-27.751-6.43-.027-.012-10.494-19.89-24.506-21.109-12.239-1.063-27.654,5.855-35.054,12.864-15.083-11.3-37.881-5.793-50.181,3-11.128,7.955-19.494,20.27-20.433,31.142-15.855-15.469-.3-39.935,9.041-53.59a59.6,59.6,0,0,0-16.171-5.562c-13.855-2.8-25.41,1.916-35.627,11.234-.241.22-.77.032-.624-.344a22.711,22.711,0,0,1,10.4-11.728C538.336,54.074,524.8,49.712,509.4,55.268,493.57,60.983,480.829,89.1,480.713,89.082c-17.779-3.313-31.938,5.924-41.769,16.663a25.909,25.909,0,0,1,2,1.924c1.228,1.467-.244,4.166-2.159,2.949-.865-.55-21.947-10.931-33.268-8.827-12.426,2.31-24.463,21.753-24.292,22.051-7.758-6.724-12.684-8.107-19.07-10.509-6.814-2.564-13.552-2.169-20.664-1.923-.039,0-.064-.029-.1-.035a53.966,53.966,0,0,1,28.536-1.224c11.574-22.217,39.984-32.942,66.8-37.764.071-.123.159-.247.231-.37,7.606-.22,14.956.37,20.5,3.173" transform="translate(-262.492 -50.192)" fill="#ddc6c3"/>
            <path id="Trazado_716984" data-name="Trazado 716984" d="M641.964,25.692c19.491-12.083,48.919-6.54,70.847,15.673,20.334,3.157,60.842,37.311,85.419,86.032a52.938,52.938,0,0,0-28.374-8.691c1.215-11.472-1.558-20.627-8.057-30.211-6.561-9.671-13-14.373-23.712-15.5C728.711,60.066,720.731,52.359,707.215,50c-10.42-1.818-25.361.376-34.026,7.071-12.22-7.543-22.436-7.2-28.1-5.982-7.364,1.582-16.4,7.978-22.953,11.4-.143.074,1.105-9.254,11.911-17.068-2.18-5.337-14.1-18.134-33.306-9.453l0,0a2.19,2.19,0,0,1-.057-.338c.424-13.022-15.843-14.479-25.461-13.894-9.49.577-17.045,4.4-25.242,8.8-12.217-10.979-48.038.012-53.624,14.887-14.392.738-27.552,18.925-29.227,28.318-5.541-2.8-12.892-3.393-20.5-3.173,26.624-45.311,120.74-89.287,195.334-44.867" transform="translate(-272.164 -48.735)" fill="#ceb5b3"/>
            <path id="Trazado_716985" data-name="Trazado 716985" d="M347.294,129.48c-3.443-3.282-9.878-1.858-11.572,2.581a6.428,6.428,0,0,0-.183,3.794c.107,3.561,4.931,6.526,8.307,5.81,5.313-1.126,7.376-8.44,3.448-12.185" transform="translate(-261.936 -59.805)" fill="#824030"/>
          </g>
        </g>
        <g id="Grupo_1003297" data-name="Grupo 1003297">
          <g id="Grupo_1003296" data-name="Grupo 1003296" clip-path="url(#clip-path-2)">
            <path id="Trazado_716987" data-name="Trazado 716987" d="M144.416,296.737l15.182-2.314c2.911-.443,4.52-4.1,3.806-6.7-.855-3.112-3.782-4.251-6.7-3.806l-15.182,2.314c-2.911.443-4.52,4.1-3.806,6.7.855,3.112,3.782,4.251,6.7,3.806" transform="translate(-12.64 -26.084)" fill="#ddc6c3"/>
            <path id="Trazado_716988" data-name="Trazado 716988" d="M110.555,276.252a28.466,28.466,0,0,0,16.882-.453,5.582,5.582,0,0,0,3.806-6.7c-.743-2.7-3.909-4.772-6.7-3.806a18.032,18.032,0,0,1-11.089.454c-6.772-1.863-9.661,8.648-2.9,10.508" transform="translate(-9.806 -24.358)" fill="#ddc6c3"/>
            <path id="Trazado_716989" data-name="Trazado 716989" d="M102.831,250.635a37.349,37.349,0,0,0,14.351,1.018c2.917-.38,5.449-2.232,5.449-5.449,0-2.649-2.51-5.831-5.449-5.449a29.288,29.288,0,0,1-11.454-.628c-6.789-1.784-9.685,8.724-2.9,10.508" transform="translate(-9.095 -22.049)" fill="#ddc6c3"/>
            <path id="Trazado_716990" data-name="Trazado 716990" d="M300.824,294.892c8.846,6.414,20.339,6.825,29.975,2,6.271-3.14.759-12.544-5.5-9.41-6.36,3.185-13.34,2.085-18.976-2-5.686-4.122-11.131,5.328-5.5,9.41" transform="translate(-27.428 -26.142)" fill="#ddc6c3"/>
            <path id="Trazado_716991" data-name="Trazado 716991" d="M348.788,312.911l12.817-3.6c6.742-1.892,3.878-12.409-2.9-10.509l-12.817,3.6c-6.742,1.892-3.878,12.408,2.9,10.508" transform="translate(-31.434 -27.44)" fill="#ddc6c3"/>
            <path id="Trazado_716992" data-name="Trazado 716992" d="M354.85,288.405c5.561,4.249,13.047,3.167,18.255-.945,2.311-1.824,1.909-5.8,0-7.705-2.283-2.283-5.389-1.83-7.706,0-1.445,1.141-3.454.46-5.048-.759-2.34-1.787-6.1-.364-7.456,1.955-1.639,2.8-.39,5.662,1.955,7.455" transform="translate(-32.363 -25.566)" fill="#ddc6c3"/>
            <path id="Trazado_716993" data-name="Trazado 716993" d="M393.369,304.226c6.74,2.32,13.865-.635,17.844-6.286,1.695-2.407.433-6.058-1.955-7.455-2.723-1.594-5.755-.459-7.455,1.954-1.166,1.656-3.457,1.994-5.538,1.279-2.782-.958-5.958,1.1-6.7,3.8a5.554,5.554,0,0,0,3.806,6.7" transform="translate(-35.783 -26.628)" fill="#ddc6c3"/>
            <path id="Trazado_716994" data-name="Trazado 716994" d="M366.744,66.024c2.2-2.722,5.532-3.69,8.637-1.8,6.008,3.651,11.491-5.768,5.5-9.41-6.933-4.214-16.659-2.905-21.842,3.507-1.849,2.287-2.236,5.47,0,7.705,1.912,1.912,5.846,2.3,7.705,0" transform="translate(-32.855 -4.813)" fill="#ddc6c3"/>
            <path id="Trazado_716995" data-name="Trazado 716995" d="M335.746,69.869c.331-.358.678-.689,1.04-1.017.642-.582-.245.132-.241.183-.009-.1.692-.446.766-.489.21-.123.422-.239.639-.348.144-.072.912-.45.18-.1-.713.345.031.018.2-.035.291-.09.583-.164.878-.235a5.5,5.5,0,0,0,3.806-6.7,5.564,5.564,0,0,0-6.7-3.806,16.731,16.731,0,0,0-8.275,4.841c-1.936,2.092-2.227,5.662,0,7.705,2.1,1.932,5.638,2.235,7.705,0" transform="translate(-30.004 -5.253)" fill="#ddc6c3"/>
            <path id="Trazado_716996" data-name="Trazado 716996" d="M310.4,74.317a8.881,8.881,0,0,1,1.835-6.685c1.886-2.257,2.212-5.494,0-7.705-1.939-1.939-5.809-2.268-7.705,0a20.213,20.213,0,0,0-5.027,14.39,5.577,5.577,0,0,0,5.449,5.449c2.8,0,5.645-2.5,5.449-5.449" transform="translate(-27.52 -5.362)" fill="#ddc6c3"/>
            <path id="Trazado_716997" data-name="Trazado 716997" d="M375.851,42.732a4.526,4.526,0,0,1,5.082.212c2.256,1.886,5.495,2.21,7.705,0,1.94-1.941,2.268-5.809,0-7.706a15.851,15.851,0,0,0-18.287-1.915c-6.1,3.455-.617,12.873,5.5,9.41" transform="translate(-33.791 -2.873)" fill="#ddc6c3"/>
            <path id="Trazado_716998" data-name="Trazado 716998" d="M378.064,204.1a31.5,31.5,0,0,0,19.167,8.052c7,.5,6.967-10.4,0-10.9a19.268,19.268,0,0,1-11.462-4.86c-5.223-4.649-12.957,3.031-7.705,7.705" transform="translate(-34.583 -17.917)" fill="#ddc6c3"/>
            <path id="Trazado_716999" data-name="Trazado 716999" d="M428.178,216.983a53.886,53.886,0,0,0,16.636,1.283c2.932-.245,5.449-2.329,5.449-5.449,0-2.758-2.5-5.695-5.449-5.449a44.12,44.12,0,0,1-13.74-.894c-6.825-1.573-9.738,8.931-2.9,10.508" transform="translate(-38.991 -18.961)" fill="#ddc6c3"/>
            <path id="Trazado_717000" data-name="Trazado 717000" d="M403.758,191.92a28.282,28.282,0,0,0,21.746,3.064c6.787-1.747,3.91-12.26-2.9-10.509a17.031,17.031,0,0,1-13.349-1.965c-6.042-3.592-11.529,5.825-5.5,9.41" transform="translate(-36.865 -16.699)" fill="#ddc6c3"/>
            <g id="Grupo_1003289" data-name="Grupo 1003289" transform="translate(278.885 104.688)" opacity="0.75" style="isolation: isolate">
              <g id="Grupo_1003288" data-name="Grupo 1003288">
                <g id="Grupo_1003287" data-name="Grupo 1003287" clip-path="url(#clip-path-6)">
                  <path id="Trazado_717001" data-name="Trazado 717001" d="M320.279,144.641,317.746,132.1l-9.107,5.3a19.447,19.447,0,0,0,8.474,4.648c4.224,1.087,7.512-2.663,6.7-6.7q-.813-4.056-1.625-8.112l-8,6.153,5.835,4.241c3.312,2.407,8.413-.812,8.2-4.7a25.887,25.887,0,0,0-2.631-10.173l-7.455,7.455a11.371,11.371,0,0,0,6.086,1.394c3.2-.22,6.6-3.353,5.254-6.9a10.26,10.26,0,0,1-.84-3.987l-9.3,3.853a22.533,22.533,0,0,0,6.005,3.511c3.162,1.28,7.154-1.988,6.9-5.254l-6.307,1.671c3.165,6.26,12.569.75,9.41-5.5-3.374-6.673-14.6-3.717-14,3.829l6.9-5.254-1.2-.708c-3.479-2.786-9.367-1.26-9.3,3.853a19.7,19.7,0,0,0,1.229,6.884l5.254-6.9-.587.094a5.5,5.5,0,0,0-7.455,7.456,11.745,11.745,0,0,1,1.143,4.672l8.2-4.7-5.835-4.241c-4.187-3.043-8.844,1.963-8,6.153q.812,4.055,1.625,8.112l6.7-6.7a7.687,7.687,0,0,1-3.665-1.845,5.5,5.5,0,0,0-9.107,5.3q1.267,6.271,2.534,12.543c1.388,6.869,11.893,3.961,10.508-2.9" transform="translate(-307.109 -115.282)" fill="#e25b4d"/>
                </g>
              </g>
            </g>
            <g id="Grupo_1003292" data-name="Grupo 1003292" transform="translate(310.779 146.76)" opacity="0.75" style="isolation: isolate">
              <g id="Grupo_1003291" data-name="Grupo 1003291">
                <g id="Grupo_1003290" data-name="Grupo 1003290" clip-path="url(#clip-path-7)">
                  <path id="Trazado_717002" data-name="Trazado 717002" d="M344.646,181.894a23.387,23.387,0,0,0,9.544,3.962c4.391.769,8.866-3.649,6.153-8l-3.437-5.52-8.558,6.6a33.376,33.376,0,0,0,12.893,6.617c5.568,1.413,8.68-5.056,5.3-9.106l-5.563-6.671-6.6,8.558,8.7,6.692c4.69,3.609,9.659-3.123,7.455-7.455l-5.094-10.005-8.557,6.6,9.83,9.669c3.949,3.884,10.369-.058,9.106-5.3a32.337,32.337,0,0,0-5.054-11.24l-7.456,7.456a29.541,29.541,0,0,1,8.954,6.613c2.736,2.945,8.194,1.53,9.106-2.4a14.023,14.023,0,0,0-.314-8.272l-6.7,6.7,6.454,2.373c3.782,1.39,8.056-2.94,6.7-6.7l-2-5.558-6.7,6.7a40.644,40.644,0,0,1,7.117,2.7c3.29,1.632,8.7-.262,8.2-4.7l-.338-2.974-5.449,5.449c4.731.59,7.95-2.478,9.639-6.55,2.685-6.47-7.854-9.293-10.508-2.9l.869-1.45c-2.708-.339-5.751,2.779-5.449,5.449l.338,2.974,8.2-4.7a56.156,56.156,0,0,0-9.72-3.795c-3.771-1.066-8.136,2.72-6.7,6.7l2,5.558,6.7-6.7-6.454-2.372c-3.784-1.391-8.053,2.939-6.7,6.7a2.75,2.75,0,0,1,.315,2.478l9.106-2.4a37.888,37.888,0,0,0-11.159-8.317c-4.432-2.169-10.875,2.614-7.455,7.455a24.183,24.183,0,0,1,3.957,8.637l9.106-5.3-9.83-9.669c-4.524-4.45-11.328,1.161-8.558,6.6l5.094,10.006,7.455-7.455-8.7-6.692c-5.229-4.023-10.261,4.171-6.6,8.558l5.562,6.67,5.3-9.107a20.73,20.73,0,0,1-8.084-3.814c-4.494-3.592-12.09.929-8.558,6.6q1.719,2.76,3.437,5.519l6.153-8a16.159,16.159,0,0,1-6.941-2.863c-5.755-4.035-11.206,5.409-5.5,9.41" transform="translate(-342.23 -161.612)" fill="#e25b4d"/>
                </g>
              </g>
            </g>
            <g id="Grupo_1003295" data-name="Grupo 1003295" transform="translate(298.781 123.112)" opacity="0.75" style="isolation: isolate">
              <g id="Grupo_1003294" data-name="Grupo 1003294">
                <g id="Grupo_1003293" data-name="Grupo 1003293" clip-path="url(#clip-path-8)">
                  <path id="Trazado_717003" data-name="Trazado 717003" d="M329.031,143.268a7.738,7.738,0,0,0,4.239,7.16,11.192,11.192,0,0,0,3.966,1.245,5.973,5.973,0,0,0,1.907.191c1.308-.461.076,2.772-.805-1.4.844,4,6.4,5.28,9.107,2.4,1.045-1.111,1.575-.971,2.936-.431,2.784,1.1,5.929-1.23,6.7-3.8a17.588,17.588,0,0,0,.259-9.144c-1.456-6.856-11.962-3.955-10.508,2.9a5.888,5.888,0,0,1-.259,3.35l6.7-3.806a12.5,12.5,0,0,0-13.539,3.233l9.107,2.4a8.046,8.046,0,0,0-5.493-5.856c-1.189-.417-4.3-.3-4.847-.981l1.4,2.4.022.135c.414-7.005-10.484-6.981-10.9,0" transform="translate(-329.018 -135.571)" fill="#e25b4d"/>
                </g>
              </g>
            </g>
          </g>
        </g>
      </g>
    </g>
  </g>
</svg>
