<svg xmlns="http://www.w3.org/2000/svg" xmlns:xlink="http://www.w3.org/1999/xlink" width="211" height="211" viewBox="0 0 211 211">
  <defs>
    <clipPath id="clip-path">
      <rect id="Rect치ngulo_353126" data-name="Rect치ngulo 353126" width="211" height="211" transform="translate(0 0)" fill="none"/>
    </clipPath>
  </defs>
  <g id="Grupo_1003037" data-name="Grupo 1003037" transform="translate(0)">
    <g id="Grupo_1003036" data-name="Grupo 1003036" transform="translate(0 0)" clip-path="url(#clip-path)">
      <circle id="Elipse_5693" data-name="Elipse 5693" cx="102.5" cy="102.5" r="102.5" transform="translate(3 3)" fill="none" stroke="#06d1d1" stroke-miterlimit="10" stroke-width="8"/>
      <rect id="Rect치ngulo_353125" data-name="Rect치ngulo 353125" width="77" height="41" transform="translate(67 85)" fill="#b20d0d"/>
      <path id="Trazado_715089" data-name="Trazado 715089" d="M21.4,149.7a3.7,3.7,0,1,1-3.7-3.7,3.7,3.7,0,0,1,3.7,3.7" transform="translate(-3.635 -37.909)" fill="#ffc403"/>
      <path id="Trazado_715090" data-name="Trazado 715090" d="M78.4,128.7a3.7,3.7,0,1,1-3.7-3.7,3.7,3.7,0,0,1,3.7,3.7" transform="translate(-18.435 -32.456)" fill="#ffc403"/>
      <path id="Trazado_715091" data-name="Trazado 715091" d="M60.4,96.7A3.7,3.7,0,1,1,56.7,93a3.7,3.7,0,0,1,3.7,3.7" transform="translate(-13.761 -24.148)" fill="#ffc403"/>
      <path id="Trazado_715092" data-name="Trazado 715092" d="M45.4,68.7A3.7,3.7,0,1,1,41.7,65a3.7,3.7,0,0,1,3.7,3.7" transform="translate(-9.867 -16.877)" fill="#ffc403"/>
      <path id="Trazado_715093" data-name="Trazado 715093" d="M101.4,82.7A3.7,3.7,0,1,1,97.7,79a3.7,3.7,0,0,1,3.7,3.7" transform="translate(-24.407 -20.512)" fill="#ffc403"/>
      <path id="Trazado_715094" data-name="Trazado 715094" d="M134.4,50.7a3.7,3.7,0,1,1-3.7-3.7,3.7,3.7,0,0,1,3.7,3.7" transform="translate(-32.975 -12.204)" fill="#ffc403"/>
      <path id="Trazado_715095" data-name="Trazado 715095" d="M166.4,92.7a3.7,3.7,0,1,1-3.7-3.7,3.7,3.7,0,0,1,3.7,3.7" transform="translate(-41.284 -23.109)" fill="#ffc403"/>
      <path id="Trazado_715096" data-name="Trazado 715096" d="M217.4,40.7a3.7,3.7,0,1,1-3.7-3.7,3.7,3.7,0,0,1,3.7,3.7" transform="translate(-54.526 -9.607)" fill="#ffc403"/>
      <path id="Trazado_715097" data-name="Trazado 715097" d="M202.4,68.7a3.7,3.7,0,1,1-3.7-3.7,3.7,3.7,0,0,1,3.7,3.7" transform="translate(-50.631 -16.877)" fill="#ffc403"/>
      <path id="Trazado_715098" data-name="Trazado 715098" d="M256.4,87.7a3.7,3.7,0,1,1-3.7-3.7,3.7,3.7,0,0,1,3.7,3.7" transform="translate(-64.652 -21.811)" fill="#ffc403"/>
      <path id="Trazado_715099" data-name="Trazado 715099" d="M222.4,141.7a3.7,3.7,0,1,1-3.7-3.7,3.7,3.7,0,0,1,3.7,3.7" transform="translate(-55.824 -35.832)" fill="#ffc403"/>
      <path id="Trazado_715100" data-name="Trazado 715100" d="M227.4,107.7a3.7,3.7,0,1,1-3.7-3.7,3.7,3.7,0,0,1,3.7,3.7" transform="translate(-57.122 -27.004)" fill="#ffc403"/>
      <path id="Trazado_715101" data-name="Trazado 715101" d="M266.4,139.7a3.7,3.7,0,1,1-3.7-3.7,3.7,3.7,0,0,1,3.7,3.7" transform="translate(-67.248 -35.312)" fill="#ffc403"/>
      <path id="Trazado_715102" data-name="Trazado 715102" d="M207.4,184.7a3.7,3.7,0,1,1-3.7-3.7,3.7,3.7,0,0,1,3.7,3.7" transform="translate(-51.929 -46.996)" fill="#ffc403"/>
      <path id="Trazado_715103" data-name="Trazado 715103" d="M256.4,197.7a3.7,3.7,0,1,1-3.7-3.7,3.7,3.7,0,0,1,3.7,3.7" transform="translate(-64.652 -50.372)" fill="#ffc403"/>
      <path id="Trazado_715104" data-name="Trazado 715104" d="M176.4,189.7a3.7,3.7,0,1,1-3.7-3.7,3.7,3.7,0,0,1,3.7,3.7" transform="translate(-43.88 -48.295)" fill="#ffc403"/>
      <path id="Trazado_715105" data-name="Trazado 715105" d="M222.4,236.7a3.7,3.7,0,1,1-3.7-3.7,3.7,3.7,0,0,1,3.7,3.7" transform="translate(-55.824 -60.498)" fill="#ffc403"/>
      <path id="Trazado_715106" data-name="Trazado 715106" d="M197.4,218.7a3.7,3.7,0,1,1-3.7-3.7,3.7,3.7,0,0,1,3.7,3.7" transform="translate(-49.333 -55.824)" fill="#ffc403"/>
      <path id="Trazado_715107" data-name="Trazado 715107" d="M171.4,264.7a3.7,3.7,0,1,1-3.7-3.7,3.7,3.7,0,0,1,3.7,3.7" transform="translate(-42.582 -67.768)" fill="#ffc403"/>
      <path id="Trazado_715108" data-name="Trazado 715108" d="M139.4,223.7a3.7,3.7,0,1,1-3.7-3.7,3.7,3.7,0,0,1,3.7,3.7" transform="translate(-34.273 -57.123)" fill="#ffc403"/>
      <path id="Trazado_715109" data-name="Trazado 715109" d="M106.4,257.7a3.7,3.7,0,1,1-3.7-3.7,3.7,3.7,0,0,1,3.7,3.7" transform="translate(-25.705 -65.95)" fill="#ffc403"/>
      <path id="Trazado_715110" data-name="Trazado 715110" d="M119.4,182.7a3.7,3.7,0,1,1-3.7-3.7,3.7,3.7,0,0,1,3.7,3.7" transform="translate(-29.08 -46.477)" fill="#ffc403"/>
      <path id="Trazado_715111" data-name="Trazado 715111" d="M60.4,228.7a3.7,3.7,0,1,1-3.7-3.7,3.7,3.7,0,0,1,3.7,3.7" transform="translate(-13.761 -58.421)" fill="#ffc403"/>
      <path id="Trazado_715112" data-name="Trazado 715112" d="M75.4,189.7a3.7,3.7,0,1,1-3.7-3.7,3.7,3.7,0,0,1,3.7,3.7" transform="translate(-17.656 -48.295)" fill="#ffc403"/>
      <path id="Trazado_715113" data-name="Trazado 715113" d="M31.4,187.7a3.7,3.7,0,1,1-3.7-3.7,3.7,3.7,0,0,1,3.7,3.7" transform="translate(-6.231 -47.775)" fill="#ffc403"/>
      <path id="Trazado_715114" data-name="Trazado 715114" d="M55.4,154.7a3.7,3.7,0,1,1-3.7-3.7,3.7,3.7,0,0,1,3.7,3.7" transform="translate(-12.463 -39.207)" fill="#ffc403"/>
      <path id="Trazado_715115" data-name="Trazado 715115" d="M157.4,16.7a3.7,3.7,0,1,1-3.7-3.7,3.7,3.7,0,0,1,3.7,3.7" transform="translate(-38.947 -3.376)" fill="#ffc403"/>
      <path id="Trazado_715116" data-name="Trazado 715116" d="M92.4,27.7A3.7,3.7,0,1,1,88.7,24a3.7,3.7,0,0,1,3.7,3.7" transform="translate(-22.07 -6.232)" fill="#ffc403"/>
    </g>
  </g>
</svg>
