<svg xmlns="http://www.w3.org/2000/svg" xmlns:xlink="http://www.w3.org/1999/xlink" width="189.604" height="561" viewBox="0 0 189.604 561">
  <defs>
    <clipPath id="clip-path">
      <rect id="Rectángulo_353183" data-name="Rectángulo 353183" width="189.603" height="561" fill="none"/>
    </clipPath>
  </defs>
  <g id="Grupo_1003039" data-name="Grupo 1003039" transform="translate(0 -0.001)">
    <g id="Grupo_1003038" data-name="Grupo 1003038" transform="translate(0 0.001)" clip-path="url(#clip-path)">
      <path id="Trazado_715117" data-name="Trazado 715117" d="M217.544,1943.316c0,3.524-34.284,6.38-76.575,6.38s-76.575-2.857-76.575-6.38,34.284-6.38,76.575-6.38,76.575,2.857,76.575,6.38" transform="translate(-46.168 -1388.697)" fill="#e2e2e2"/>
      <path id="Trazado_715118" data-name="Trazado 715118" d="M189.6,432.909A94.8,94.8,0,1,1,52.722,347.934V42.081a42.08,42.08,0,0,1,84.16,0V347.934A94.8,94.8,0,0,1,189.6,432.909" transform="translate(0 -0.001)" fill="#cadddc"/>
      <path id="Trazado_715119" data-name="Trazado 715119" d="M217.544,691.824a76.575,76.575,0,1,1-106.421-70.539V361.134h59.693V621.285a76.593,76.593,0,0,1,46.729,70.539" transform="translate(-46.168 -258.917)" fill="#cc3a48"/>
      <path id="Trazado_715120" data-name="Trazado 715120" d="M229.485,135.44V76.186a29.847,29.847,0,1,1,59.694,0V135.44Z" transform="translate(-164.53 -33.223)" fill="#e9f4f3"/>
      <path id="Trazado_715121" data-name="Trazado 715121" d="M394.539,361.134V621.285c-4.258-1.962-18.1-3.364-18.1-3.364V361.134Z" transform="translate(-269.891 -258.917)" fill="#af3144"/>
      <path id="Trazado_715122" data-name="Trazado 715122" d="M332.179,76.185v59.253h-18.1V74.783c0-9.928-5.326-25.534-24.619-25.534a29.848,29.848,0,0,1,42.717,26.936" transform="translate(-207.531 -33.221)" fill="#daeae8"/>
      <rect id="Rectángulo_353127" data-name="Rectángulo 353127" width="15.576" height="3.006" transform="translate(103.003 48.513)"/>
      <rect id="Rectángulo_353128" data-name="Rectángulo 353128" width="15.576" height="3.006" transform="translate(103.003 74.605)"/>
      <rect id="Rectángulo_353129" data-name="Rectángulo 353129" width="7.652" height="1.508" transform="translate(110.928 54.93)"/>
      <rect id="Rectángulo_353130" data-name="Rectángulo 353130" width="7.652" height="1.508" transform="translate(110.928 59.848)"/>
      <rect id="Rectángulo_353131" data-name="Rectángulo 353131" width="7.652" height="1.508" transform="translate(110.928 64.767)"/>
      <rect id="Rectángulo_353132" data-name="Rectángulo 353132" width="7.652" height="1.508" transform="translate(110.928 69.686)"/>
      <rect id="Rectángulo_353133" data-name="Rectángulo 353133" width="15.576" height="3.006" transform="translate(103.003 100.697)"/>
      <rect id="Rectángulo_353134" data-name="Rectángulo 353134" width="7.652" height="1.508" transform="translate(110.928 81.022)"/>
      <rect id="Rectángulo_353135" data-name="Rectángulo 353135" width="7.652" height="1.508" transform="translate(110.928 85.941)"/>
      <rect id="Rectángulo_353136" data-name="Rectángulo 353136" width="7.652" height="1.508" transform="translate(110.928 90.86)"/>
      <rect id="Rectángulo_353137" data-name="Rectángulo 353137" width="7.652" height="1.508" transform="translate(110.928 95.778)"/>
      <rect id="Rectángulo_353138" data-name="Rectángulo 353138" width="15.576" height="3.006" transform="translate(103.003 126.79)"/>
      <rect id="Rectángulo_353139" data-name="Rectángulo 353139" width="7.652" height="1.508" transform="translate(110.928 107.114)"/>
      <rect id="Rectángulo_353140" data-name="Rectángulo 353140" width="7.652" height="1.508" transform="translate(110.928 112.033)"/>
      <rect id="Rectángulo_353141" data-name="Rectángulo 353141" width="7.652" height="1.508" transform="translate(110.928 116.952)"/>
      <rect id="Rectángulo_353142" data-name="Rectángulo 353142" width="7.652" height="1.508" transform="translate(110.928 121.871)"/>
      <rect id="Rectángulo_353143" data-name="Rectángulo 353143" width="15.576" height="3.006" transform="translate(103.003 152.882)"/>
      <rect id="Rectángulo_353144" data-name="Rectángulo 353144" width="7.652" height="1.508" transform="translate(110.928 133.207)"/>
      <rect id="Rectángulo_353145" data-name="Rectángulo 353145" width="7.652" height="1.508" transform="translate(110.928 138.125)"/>
      <rect id="Rectángulo_353146" data-name="Rectángulo 353146" width="7.652" height="1.508" transform="translate(110.928 143.044)"/>
      <rect id="Rectángulo_353147" data-name="Rectángulo 353147" width="7.652" height="1.508" transform="translate(110.928 147.963)"/>
      <rect id="Rectángulo_353148" data-name="Rectángulo 353148" width="15.576" height="3.006" transform="translate(103.003 178.974)"/>
      <rect id="Rectángulo_353149" data-name="Rectángulo 353149" width="7.652" height="1.508" transform="translate(110.928 159.299)"/>
      <rect id="Rectángulo_353150" data-name="Rectángulo 353150" width="7.652" height="1.508" transform="translate(110.928 164.218)"/>
      <rect id="Rectángulo_353151" data-name="Rectángulo 353151" width="7.652" height="1.508" transform="translate(110.928 169.136)"/>
      <rect id="Rectángulo_353152" data-name="Rectángulo 353152" width="7.652" height="1.508" transform="translate(110.928 174.055)"/>
      <rect id="Rectángulo_353153" data-name="Rectángulo 353153" width="15.576" height="3.006" transform="translate(103.003 205.066)"/>
      <rect id="Rectángulo_353154" data-name="Rectángulo 353154" width="7.652" height="1.508" transform="translate(110.928 185.391)"/>
      <rect id="Rectángulo_353155" data-name="Rectángulo 353155" width="7.652" height="1.508" transform="translate(110.928 190.31)"/>
      <rect id="Rectángulo_353156" data-name="Rectángulo 353156" width="7.652" height="1.508" transform="translate(110.928 195.229)"/>
      <rect id="Rectángulo_353157" data-name="Rectángulo 353157" width="7.652" height="1.508" transform="translate(110.928 200.148)"/>
      <rect id="Rectángulo_353158" data-name="Rectángulo 353158" width="15.576" height="3.006" transform="translate(103.003 231.159)"/>
      <rect id="Rectángulo_353159" data-name="Rectángulo 353159" width="7.652" height="1.508" transform="translate(110.928 211.483)"/>
      <rect id="Rectángulo_353160" data-name="Rectángulo 353160" width="7.652" height="1.508" transform="translate(110.928 216.402)"/>
      <rect id="Rectángulo_353161" data-name="Rectángulo 353161" width="7.652" height="1.508" transform="translate(110.928 221.321)"/>
      <rect id="Rectángulo_353162" data-name="Rectángulo 353162" width="7.652" height="1.508" transform="translate(110.928 226.24)"/>
      <rect id="Rectángulo_353163" data-name="Rectángulo 353163" width="15.576" height="3.006" transform="translate(103.003 257.251)"/>
      <rect id="Rectángulo_353164" data-name="Rectángulo 353164" width="7.652" height="1.508" transform="translate(110.928 237.576)"/>
      <rect id="Rectángulo_353165" data-name="Rectángulo 353165" width="7.652" height="1.508" transform="translate(110.928 242.495)"/>
      <rect id="Rectángulo_353166" data-name="Rectángulo 353166" width="7.652" height="1.508" transform="translate(110.928 247.413)"/>
      <rect id="Rectángulo_353167" data-name="Rectángulo 353167" width="7.652" height="1.508" transform="translate(110.928 252.332)"/>
      <rect id="Rectángulo_353168" data-name="Rectángulo 353168" width="15.576" height="3.006" transform="translate(103.003 283.343)"/>
      <rect id="Rectángulo_353169" data-name="Rectángulo 353169" width="7.652" height="1.508" transform="translate(110.928 263.668)"/>
      <rect id="Rectángulo_353170" data-name="Rectángulo 353170" width="7.652" height="1.508" transform="translate(110.928 268.587)"/>
      <rect id="Rectángulo_353171" data-name="Rectángulo 353171" width="7.652" height="1.508" transform="translate(110.928 273.506)"/>
      <rect id="Rectángulo_353172" data-name="Rectángulo 353172" width="7.652" height="1.508" transform="translate(110.928 278.425)"/>
      <rect id="Rectángulo_353173" data-name="Rectángulo 353173" width="15.576" height="3.006" transform="translate(103.003 309.436)"/>
      <rect id="Rectángulo_353174" data-name="Rectángulo 353174" width="7.652" height="1.508" transform="translate(110.928 289.76)"/>
      <rect id="Rectángulo_353175" data-name="Rectángulo 353175" width="7.652" height="1.508" transform="translate(110.928 294.679)"/>
      <rect id="Rectángulo_353176" data-name="Rectángulo 353176" width="7.652" height="1.508" transform="translate(110.928 299.598)"/>
      <rect id="Rectángulo_353177" data-name="Rectángulo 353177" width="7.652" height="1.508" transform="translate(110.928 304.517)"/>
      <rect id="Rectángulo_353178" data-name="Rectángulo 353178" width="15.576" height="3.006" transform="translate(103.003 335.528)"/>
      <rect id="Rectángulo_353179" data-name="Rectángulo 353179" width="7.652" height="1.508" transform="translate(110.928 315.853)"/>
      <rect id="Rectángulo_353180" data-name="Rectángulo 353180" width="7.652" height="1.508" transform="translate(110.928 320.771)"/>
      <rect id="Rectángulo_353181" data-name="Rectángulo 353181" width="7.652" height="1.508" transform="translate(110.928 325.69)"/>
      <rect id="Rectángulo_353182" data-name="Rectángulo 353182" width="7.652" height="1.508" transform="translate(110.928 330.609)"/>
      <path id="Trazado_715123" data-name="Trazado 715123" d="M269.75,1355.76a76.577,76.577,0,0,1-132.541,52.268c14.62,6.78,34.76,9.7,61.163-.476,25.2-9.709,43.231-36.5,45.357-61.851,1.921-22.895-4.1-43.084-16.448-58.518a76.57,76.57,0,0,1,42.469,68.577" transform="translate(-98.373 -922.853)" fill="#af3144"/>
      <path id="Trazado_715124" data-name="Trazado 715124" d="M162.594,1362.236c-11.4,11.4-16.247,25.04-22.488,18.8s-2.06-20.545,9.341-31.946,25.7-15.582,31.944-9.341-7.4,11.088-18.8,22.488" transform="translate(-98.373 -958.463)" fill="#e56363"/>
      <path id="Trazado_715125" data-name="Trazado 715125" d="M123.077,1544.613a7.627,7.627,0,1,1-7.627-7.627,7.628,7.628,0,0,1,7.627,7.627" transform="translate(-77.304 -1101.95)" fill="#e56363"/>
      <path id="Trazado_715126" data-name="Trazado 715126" d="M271.8,166.8v49.276H255.816V166.8a7.992,7.992,0,0,1,15.984,0" transform="translate(-183.409 -113.861)" fill="#f8fffe"/>
      <path id="Trazado_715127" data-name="Trazado 715127" d="M271.8,361.134v206.23a7.992,7.992,0,0,1-15.984,0V361.134Z" transform="translate(-183.409 -258.917)" fill="#e56363"/>
    </g>
  </g>
</svg>
