<svg id="Grupo_1003047" data-name="Grupo 1003047" xmlns="http://www.w3.org/2000/svg" xmlns:xlink="http://www.w3.org/1999/xlink" width="400" height="462.65" viewBox="0 0 400 462.65">
  <defs>
    <clipPath id="clip-path">
      <rect id="Rectángulo_353189" data-name="Rectángulo 353189" width="400" height="462.65" fill="none"/>
    </clipPath>
  </defs>
  <g id="Grupo_1003046" data-name="Grupo 1003046" clip-path="url(#clip-path)">
    <path id="Trazado_715128" data-name="Trazado 715128" d="M87.256,384.054q-.019-6.264-.036-12.531c8.794-.98,7.776-7.568,7.776-13.587q0-159.736.022-319.473c.009-20.556,10-30.527,30.344-30.559q41.958-.068,83.917.007c27.358.085,54.715.329,82.073.5,9.408,15.013,10.66,31.434,8.353,48.467-1.278-1.667-2.441-3.437-3.851-4.983a24.408,24.408,0,0,0-42.1,21.323A24.862,24.862,0,0,0,276.165,92.4c9.117.533,16.112-3.795,21.928-10.414,3.86,2.978,2.251,7.224,2.254,10.907q.133,147.4.072,294.809c0,18.457,2.162,37.274-9.069,53.836a17.644,17.644,0,0,1-2.67.4c-55.975.043-111.952.2-167.926,0-14.626-.052-24.794-10.746-25.647-26.069-.4-7.2-.291-14.449-.056-21.664.186-5.731-2.018-9.208-7.8-10.15m61.366-186.2c1.177.007,2.365-.078,3.533.038,5.384.537,10.293-1.143,10.052-6.937-.215-5.134-4.8-7.693-10.211-7.445-1.466.067-2.929.277-4.391.421-6.848-.034-13.7-.264-20.54-.038-4.731.157-8.134,2.564-7.837,7.758.269,4.7,3.506,6.617,7.975,6.563,7.141-.087,14.281-.237,21.42-.36m-.11-61.488c1.177.022,2.365-.04,3.533.08,5.35.546,10.318-1.018,10.164-6.827-.137-5.149-4.672-7.765-10.1-7.559-1.468.056-2.932.242-4.4.369-6.541-.065-13.084-.215-19.625-.165-5.062.038-9.016,2.014-8.81,7.716.192,5.243,3.965,6.78,8.723,6.675,6.836-.154,13.675-.2,20.515-.289m-.04-30.737c1.177.027,2.361-.025,3.529.094,5.332.548,10.323-.971,10.206-6.776-.1-5.136-4.6-7.8-10.036-7.61-1.468.051-2.932.224-4.4.342-6.545-.074-13.091-.228-19.636-.2-5.062.024-9.036,1.962-8.859,7.669.161,5.223,3.858,6.836,8.664,6.722,6.841-.163,13.688-.17,20.531-.244m-.615-44.706q-9.378-.119-18.755-.239c-5.315-.071-9.915,1.334-9.8,7.622.1,5.854,4.484,6.937,9.475,6.8,6.548-.181,13.1-.154,19.654-.217,1.175.034,2.359-.007,3.525.112,5.306.55,10.41-.929,10.244-6.707-.165-5.673-5.115-8.031-10.826-7.671-1.173.074-2.343.2-3.515.3m.817,167.672c5.561-.391,13.894,1.875,13.668-6.6-.188-7.027-7.946-7.266-13.928-7.45a4.2,4.2,0,0,0-.87.154c-6.845-.011-13.7-.181-20.533.022-4.283.128-7.638,2.086-7.765,6.888-.136,5.259,3.153,7.416,8.018,7.387,7.136-.042,14.272-.259,21.409-.4m-1-75.427c-6.85-.051-13.7-.3-20.545-.085-4.724.146-8.159,2.535-7.9,7.723.235,4.672,3.4,6.673,7.91,6.617,7.145-.087,14.29-.206,21.433-.311,1.177.013,2.363-.061,3.529.056,5.364.539,10.3-1.078,10.106-6.876-.17-5.147-4.726-7.725-10.141-7.51-1.466.058-2.929.253-4.393.385m2.453,93.658c-7.9-2.517-16.013-1.2-24.026-1.164-4,.018-6.825,2.47-6.932,6.745-.116,4.7,2.65,7.29,7.2,7.333,7.456.072,14.914-.244,22.371-.4,1.8-.016,3.6-.078,5.4-.038,4.4.1,8.374-1.546,8.454-6.1.09-5.174-4.155-6.709-8.873-6.545-1.2.042-2.4.107-3.594.161m-.036,30.737c-7.931-2.3-16.038-.994-24.062-1.045-4.1-.027-6.792,2.513-6.863,6.753-.08,4.7,2.772,7.252,7.295,7.277,7.74.043,15.539,1.074,23.207-.9,1.2.109,2.388.239,3.583.322,4.672.325,9.15-.984,9.333-6.071.183-5.144-4.176-6.691-8.9-6.512-1.2.047-2.4.116-3.6.175m85.2-73.328c11.238-4.643,4.672-14.433,6.136-21.838.98-4.948-1.463-8.636-6.648-10q0-7.021,0-14.042c4.326-1.088,6.744-3.728,6.722-8.324-.127-25.866.656-51.781-.671-77.585-1.072-20.811-22.42-35.043-42.841-30.5-18.4,4.093-29.037,18.229-29.053,39.073q-.081,106.954.074,213.908c.009,5.145-1.253,8.763-5.1,12.527a59.343,59.343,0,1,0,82.942.107c-4.079-4-5.453-7.893-5.393-13.353.242-22.561.007-45.128.165-67.691.04-5.561-.716-10.22-6.809-12.113q.239-5.085.475-10.17" transform="translate(70.467 6.348)" fill="#d5e9ef"/>
    <path id="Trazado_715129" data-name="Trazado 715129" d="M137.6,390.4c5.778.942,7.984,4.419,7.8,10.15-.235,7.215-.345,14.462.056,21.664.853,15.322,11.021,26.016,25.647,26.069,55.975.2,111.95.042,167.927,0a17.651,17.651,0,0,0,2.668-.4c15.91-1.437,24.013-11.366,24.017-29.8q.046-186.768.005-373.536a70.976,70.976,0,0,0-.248-7.208c-1.291-12.7-10.5-21.4-23.774-22.579-27.358-.175-54.713-.419-82.071-.5q-41.958-.13-83.919-.007c-20.346.033-30.335,10-30.344,30.559q-.068,159.736-.02,319.473c0,6.019,1.016,12.608-7.776,13.588-6.942-2.276-6.028-8.06-6.042-13.462-.047-18.741-.146-18.378-18.025-22.771-42.665-10.484-71.464-36.894-83.615-78.889s-1.741-79.6,28.4-111.542c4.1-4.339,8.3-7.056,14.046-2.922,3.1,6.364-1.28,9.842-5,13.912-27.009,29.565-35.3,63.876-22.219,101.663,12.437,35.934,38.433,57.695,76.162,64.773,10.379,2.49,10.4,2.49,10.4-8.025q.011-89.3,0-178.6c0-10.553-.022-10.553-10.392-8.047-7.237.334-13.975,2.786-20.458,5.612-4.883,2.128-8.523,1.379-11.959-2.276-1.025-5.7,1.466-8.929,6.809-10.934,8.754-3.283,17.589-6.592,26.915-6.97,7.682-.311,9.24-3.54,9.1-10.589-.439-21.659-.253-43.331-.136-65C131.7,16.344,148.037.047,175.36.029q80.337-.057,160.674,0c27.358.022,43.8,16.4,43.81,43.745q.06,187.329,0,374.656c-.007,27.952-16.3,44.169-44.291,44.188q-80.337.054-160.672,0c-26.341-.025-42.931-16.326-43.34-42.45-.1-6.319.184-12.646-.081-18.956-.213-5.048,1.2-8.837,6.132-10.808" transform="translate(20.127 0)" fill="#063246"/>
    <path id="Trazado_715130" data-name="Trazado 715130" d="M82.555,77.432c3.439,3.656,7.078,4.4,11.959,2.274,6.483-2.824,13.221-5.277,20.458-5.612q-.005,97.338-.009,194.676C77.234,261.694,51.238,239.932,38.8,204c-13.077-37.789-4.789-72.1,22.221-101.665,3.715-4.068,8.1-7.548,5-13.91q8.266-5.5,16.535-10.992" transform="translate(26.436 59.863)" fill="#f8bd02"/>
    <path id="Trazado_715131" data-name="Trazado 715131" d="M54.853,87.843c-.275,3.124-1.443,5.122-3.751,6.27A6.887,6.887,0,0,1,42.787,93c-6.223-6.022-12.361-12.14-18.343-18.4-2.5-2.612-3.007-5.738-.595-8.931,2.368-3.135,5.99-4.133,8.685-2.079,8.074,6.151,15.033,13.579,21.525,21.391.678.815.633,2.231.794,2.862" transform="translate(18.003 50.508)" fill="#133b4b"/>
    <path id="Trazado_715132" data-name="Trazado 715132" d="M29.905,207.682c-6.319-.166-9.81-6.36-6.011-10.835A246.6,246.6,0,0,1,43.345,177.07c2.614-2.453,6.192-2.233,9.031.175,2.524,2.142,3.661,5.5,1.7,8.056-6.19,8.054-13.588,15.033-21.339,21.6-.812.687-2.247.636-2.828.785" transform="translate(18.032 141.655)" fill="#133b4b"/>
    <path id="Trazado_715133" data-name="Trazado 715133" d="M82.012,70.156c.183,5.183-1.743,8.089-5.753,8.92a6.343,6.343,0,0,1-7.713-4.61c-2.6-8.561-4.992-17.2-7.056-25.9-.965-4.07,1.416-7.015,5.272-8.179a6.1,6.1,0,0,1,7.969,4.059c2.82,8.792,5.069,17.768,7.281,25.711" transform="translate(49.506 32.362)" fill="#0f3848"/>
    <path id="Trazado_715134" data-name="Trazado 715134" d="M82.033,203.137c-2.231,8.036-4.475,17.013-7.29,25.808a6.1,6.1,0,0,1-7.955,4.08c-3.851-1.162-6.261-4.1-5.3-8.166,2.056-8.705,4.455-17.34,7.051-25.9a6.354,6.354,0,0,1,7.7-4.636c4,.821,5.946,3.726,5.789,8.814" transform="translate(49.508 156.868)" fill="#0f3848"/>
    <path id="Trazado_715135" data-name="Trazado 715135" d="M8.958,163.383c-5.12.007-7.962-1.231-8.741-5.2-.714-3.647.271-6.894,4.01-8,8.9-2.625,17.864-5.066,26.907-7.121,3.665-.833,6.438,1.417,7.309,5.113.852,3.619-.349,6.857-4.048,8-8.864,2.73-17.844,5.078-25.438,7.206" transform="translate(0 115.448)" fill="#063246"/>
    <path id="Trazado_715136" data-name="Trazado 715136" d="M29.65,122.078c-7.635-2.137-16.624-4.473-25.486-7.215-3.708-1.148-4.681-4.4-3.927-8.042.821-3.963,3.811-5.784,7.322-5,9.045,2.025,18.011,4.471,26.9,7.112,3.717,1.1,4.851,4.422,3.974,8.022-.9,3.69-3.605,5.328-8.781,5.12" transform="translate(0 82.121)" fill="#063246"/>
    <path id="Trazado_715137" data-name="Trazado 715137" d="M208.576,199.549c6.1,1.893,6.852,6.552,6.814,12.113-.157,22.563.078,45.129-.165,67.691-.06,5.462,1.314,9.358,5.393,13.355a59.338,59.338,0,1,1-82.942-.107c3.845-3.764,5.107-7.382,5.1-12.527q-.212-106.954-.074-213.91c.016-20.842,10.651-34.978,29.052-39.073,20.422-4.542,41.77,9.69,42.841,30.5,1.329,25.806.546,51.719.671,77.587.024,4.594-2.394,7.234-6.72,8.324-5.984-1.215-7.074-5.373-7.042-10.763.143-22.841.291-45.686-.022-68.522-.246-17.927-14.053-27.752-30.25-22.066l-2.35,1.266.09-.141L166.9,44.53l-.622.273c-7.81,4.919-9.5,12.495-9.488,21.039q.1,78.037.016,156.078c-.027,24.353-.248,48.706-.38,73.058l-3.314,3.437-2.16,1.828.083-.163c-23.935,17.387-22.941,55.086,1.878,71.189l-.094-.139q1.079.805,2.157,1.613l-.031-.018a3.932,3.932,0,0,0,3.545,2.074c19.7,10.831,44.2,5.133,57.523-13.379a45.173,45.173,0,0,0-6.825-60.385c-4.07-3.641-7.883-6.565-7.783-13.12.389-25.837.269-51.683.074-77.526-.043-5.543,1.528-9.318,7.1-10.84" transform="translate(96.702 21.203)" fill="#063245"/>
    <path id="Trazado_715138" data-name="Trazado 715138" d="M200.129,8.166c13.277,1.175,22.483,9.88,23.774,22.579a71.5,71.5,0,0,1,.248,7.208q.016,186.768-.005,373.536c0,18.43-8.107,28.357-24.016,29.8,11.231-16.562,9.07-35.379,9.069-53.836q-.005-147.4-.072-294.809c0-3.683,1.605-7.93-2.254-10.907,4.278-8.127,5.433-16.454,1.611-25.1,2.307-17.032,1.056-33.454-8.353-48.467" transform="translate(161.689 6.598)" fill="#bcd8e4"/>
    <path id="Trazado_715139" data-name="Trazado 715139" d="M161.916,35.761c16.2-5.686,30,4.138,30.25,22.066.313,22.838.165,45.683.022,68.522-.033,5.389,1.058,9.549,7.042,10.763q0,7.021,0,14.042c-5.1,1.226-7.277,4.455-7.024,9.685.215,4.424.15,8.868.023,13.3-.152,5.286,1.954,8.492,7.51,8.855q-.239,5.085-.479,10.17c-5.572,1.52-7.143,5.3-7.1,10.839.2,25.842.315,51.689-.074,77.526-.1,6.557,3.713,9.479,7.783,13.12A45.173,45.173,0,0,1,206.7,355.03c-13.321,18.511-37.825,24.212-57.523,13.38a3.414,3.414,0,0,0-3.545-2.075l.031.018q-1.079-.805-2.157-1.613l.094.137c.41-4.084-2.96-6.358-4.616-9.423-7.879-14.585-10.652-29.523-4.108-45.413,2.253-5.464,6.6-10.054,6.845-16.351l-.081.163q1.082-.914,2.159-1.828,1.657-1.717,3.314-3.437c7.581-.77,7.57-6.243,7.566-11.923-.042-56.5-.166-112.994.043-169.489.087-22.93-1.665-45.947,2.242-68.761,0,0,.622-.275.626-.268,1.332.627,1.9.005,2.068-1.262l-.089.143q1.177-.632,2.348-1.267m12.422,16.3c-9.649-1.694-11.638.1-11.641,11.079q-.049,111.475.132,222.953c.02,6.548-1.631,9.757-7.913,12.717-13.176,6.207-19.253,17.555-18.459,32.29a33.006,33.006,0,0,0,22.138,29.135c13.534,4.516,25.607,1.546,35.544-8.655,15.006-15.4,12.062-36.576-7-52.229q-.008-117.164-.025-234.333c0-11.842-1.152-12.97-12.775-12.957" transform="translate(106.015 27.59)" fill="#f1b805"/>
    <path id="Trazado_715140" data-name="Trazado 715140" d="M225.523,40.852c3.822,8.646,2.669,16.973-1.611,25.1C218.1,72.57,211.1,76.9,201.984,76.365a24.862,24.862,0,0,1-22.411-19.173,24.408,24.408,0,0,1,42.1-21.324c1.41,1.548,2.574,3.318,3.851,4.984M213.538,52.578c-.318-6.635-3.741-10.683-9.992-10.748-5.63-.061-9.725,3.171-10.048,9.38-.338,6.483,3.157,10.522,9.372,10.974,6.418.466,9.721-3.672,10.669-9.606" transform="translate(144.648 22.378)" fill="#063245"/>
    <path id="Trazado_715141" data-name="Trazado 715141" d="M135.393,169.733c-7.667,1.972-15.467.942-23.207.9-4.523-.025-7.373-2.58-7.295-7.275.071-4.241,2.759-6.782,6.863-6.754,8.024.051,16.13-1.253,24.062,1.045,2.931,4.137,2.8,8.165-.423,12.086" transform="translate(84.743 126.262)" fill="#0a354a"/>
    <path id="Trazado_715142" data-name="Trazado 715142" d="M134.469,153.241c-7.458.152-14.915.468-22.371.4-4.552-.043-7.318-2.634-7.2-7.331.107-4.278,2.927-6.729,6.932-6.747,8.015-.038,16.127-1.351,24.026,1.164q4.762,6.864-1.383,12.518" transform="translate(84.744 112.45)" fill="#0a354a"/>
    <path id="Trazado_715143" data-name="Trazado 715143" d="M134.275,102.251c-7.145.1-14.288.226-21.433.313-4.514.054-7.675-1.947-7.91-6.619-.26-5.187,3.175-7.577,7.9-7.723,6.841-.212,13.7.036,20.547.085,5.825,4.294,6.172,8.938.9,13.945" transform="translate(84.766 71.208)" fill="#0a354a"/>
    <path id="Trazado_715144" data-name="Trazado 715144" d="M134.363,136.2c-7.136.143-14.272.358-21.409.4-4.863.029-8.154-2.128-8.016-7.389.125-4.8,3.48-6.76,7.763-6.886,6.839-.2,13.688-.034,20.536-.023q8.914,6.273,1.126,13.9" transform="translate(84.778 98.746)" fill="#0a354a"/>
    <path id="Trazado_715145" data-name="Trazado 715145" d="M134.1,51.282c-6.552.063-13.106.036-19.654.217-4.992.137-9.372-.946-9.477-6.8-.112-6.288,4.489-7.693,9.8-7.622q9.38.122,18.757.239,8.548,6.647.571,13.966" transform="translate(84.801 29.954)" fill="#063246"/>
    <path id="Trazado_715146" data-name="Trazado 715146" d="M134.149,68.26c-6.843.074-13.69.081-20.531.244-4.805.116-8.5-1.5-8.664-6.722-.177-5.706,3.8-7.646,8.857-7.669,6.546-.031,13.093.123,19.638.2,5.791,4.372,5.972,9.025.7,13.95" transform="translate(84.791 43.716)" fill="#063246"/>
    <path id="Trazado_715147" data-name="Trazado 715147" d="M134.19,85.243c-6.839.09-13.679.136-20.515.289-4.758.1-8.532-1.43-8.721-6.675-.208-5.7,3.746-7.678,8.808-7.716,6.541-.051,13.084.1,19.627.165,5.823,4.326,6.057,8.975.8,13.937" transform="translate(84.789 57.469)" fill="#063246"/>
    <path id="Trazado_715148" data-name="Trazado 715148" d="M134.327,119.23c-7.139.123-14.279.275-21.42.36-4.469.054-7.705-1.862-7.975-6.561-.3-5.194,3.106-7.6,7.837-7.758,6.839-.228,13.691,0,20.542.034,5.879,4.238,6.266,8.875,1.016,13.925" transform="translate(84.763 84.97)" fill="#0a354a"/>
    <path id="Trazado_715149" data-name="Trazado 715149" d="M172.5,130.7c-5.554-.363-7.66-3.569-7.51-8.855.127-4.429.192-8.873-.022-13.3-.253-5.23,1.918-8.459,7.022-9.685,5.183,1.363,7.626,5.051,6.646,10-1.464,7.405,5.1,17.2-6.136,21.838" transform="translate(133.263 79.877)" fill="#063245"/>
    <path id="Trazado_715150" data-name="Trazado 715150" d="M121.558,102.353c5.274-5.006,4.927-9.651-.9-13.945,1.464-.13,2.925-.325,4.393-.385,5.415-.215,9.971,2.363,10.141,7.51.19,5.8-4.742,7.416-10.106,6.876-1.166-.117-2.352-.043-3.529-.056" transform="translate(97.484 71.106)" fill="#bad5e1"/>
    <path id="Trazado_715151" data-name="Trazado 715151" d="M121.331,51.324Q129.3,44,120.76,37.358c1.172-.1,2.341-.228,3.513-.3,5.711-.36,10.661,2,10.826,7.671.168,5.778-4.936,7.257-10.244,6.707-1.166-.121-2.349-.08-3.524-.112" transform="translate(97.565 29.911)" fill="#bad5e1"/>
    <path id="Trazado_715152" data-name="Trazado 715152" d="M121.48,85.334c5.256-4.963,5.022-9.611-.8-13.937,1.464-.127,2.929-.311,4.4-.367,5.429-.208,9.963,2.408,10.1,7.559.154,5.807-4.815,7.373-10.164,6.825-1.168-.119-2.356-.058-3.533-.08" transform="translate(97.5 57.378)" fill="#bad5e1"/>
    <path id="Trazado_715153" data-name="Trazado 715153" d="M121.413,68.327c5.272-4.925,5.091-9.578-.7-13.95,1.466-.118,2.931-.289,4.4-.342,5.438-.193,9.931,2.473,10.036,7.611.117,5.8-4.874,7.324-10.206,6.774-1.168-.119-2.352-.067-3.529-.094" transform="translate(97.527 43.649)" fill="#bad5e1"/>
    <path id="Trazado_715154" data-name="Trazado 715154" d="M121.637,119.364c5.25-5.05,4.863-9.687-1.016-13.925,1.461-.143,2.923-.353,4.39-.419,5.417-.248,10,2.312,10.211,7.447.24,5.793-4.668,7.472-10.052,6.937-1.168-.118-2.354-.033-3.533-.04" transform="translate(97.453 84.835)" fill="#bad5e1"/>
    <path id="Trazado_715155" data-name="Trazado 715155" d="M121.714,136.23q7.8-7.626-1.126-13.9a4.267,4.267,0,0,1,.866-.152c5.982.184,13.742.421,13.928,7.449.226,8.476-8.107,6.212-13.668,6.6" transform="translate(97.426 98.712)" fill="#bad5e1"/>
    <path id="Trazado_715156" data-name="Trazado 715156" d="M121.251,152.63q6.151-5.654,1.383-12.518c1.2-.054,2.4-.119,3.594-.161,4.719-.165,8.964,1.37,8.873,6.545-.08,4.551-4.052,6.2-8.454,6.1-1.8-.04-3.6.022-5.4.036" transform="translate(97.962 113.061)" fill="#bad5e1"/>
    <path id="Trazado_715157" data-name="Trazado 715157" d="M121.762,169.206c3.225-3.921,3.354-7.949.423-12.086,1.2-.058,2.4-.128,3.6-.175,4.72-.179,9.079,1.369,8.9,6.512-.181,5.089-4.661,6.4-9.333,6.071-1.2-.083-2.388-.213-3.583-.322" transform="translate(98.375 126.789)" fill="#bad5e1"/>
    <path id="Trazado_715158" data-name="Trazado 715158" d="M78.211,269.385q.005-97.338.009-194.676C88.59,72.2,88.612,72.2,88.612,82.757q.011,89.3,0,178.6c0,10.517-.02,10.517-10.4,8.025" transform="translate(63.189 59.251)" fill="#e3921f"/>
    <path id="Trazado_715159" data-name="Trazado 715159" d="M149.86,36.509c-3.909,22.816-2.155,45.831-2.242,68.763-.212,56.494-.085,112.992-.045,169.488.005,5.682.016,11.153-7.564,11.925.132-24.353.351-48.707.38-73.06q.087-78.037-.016-156.078c-.011-8.542,1.678-16.119,9.488-21.037" transform="translate(113.117 29.497)" fill="#ee971d"/>
    <path id="Trazado_715160" data-name="Trazado 715160" d="M144.785,177.707c-.248,6.3-4.594,10.887-6.845,16.351-6.545,15.89-3.773,30.829,4.108,45.413,1.656,3.066,5.026,5.339,4.616,9.425-24.819-16.1-25.814-53.8-1.878-71.189" transform="translate(102.95 143.574)" fill="#ee971d"/>
    <path id="Trazado_715161" data-name="Trazado 715161" d="M139.19,217.888a3.413,3.413,0,0,1,3.545,2.075,3.937,3.937,0,0,1-3.545-2.075" transform="translate(112.455 176.037)" fill="#ee971d"/>
    <path id="Trazado_715162" data-name="Trazado 715162" d="M147.872,35.664c-.17,1.267-.736,1.889-2.068,1.262q1.031-.637,2.068-1.262" transform="translate(117.799 28.814)" fill="#ee971d"/>
    <path id="Trazado_715163" data-name="Trazado 715163" d="M149.247,35.041q-1.171.635-2.347,1.267c.779-.423,1.564-.846,2.347-1.267" transform="translate(118.684 28.311)" fill="#ee971d"/>
    <path id="Trazado_715164" data-name="Trazado 715164" d="M138.014,217.007q1.079.805,2.157,1.613-1.077-.805-2.157-1.613" transform="translate(111.505 175.326)" fill="#ee971d"/>
    <path id="Trazado_715165" data-name="Trazado 715165" d="M139.141,176.786q-1.079.917-2.159,1.83l2.159-1.83" transform="translate(110.671 142.83)" fill="#ee971d"/>
    <path id="Trazado_715166" data-name="Trazado 715166" d="M184.828,291.595c19.063,15.651,22.006,36.827,7,52.229-9.936,10.2-22.01,13.169-35.544,8.653a33,33,0,0,1-22.136-29.133c-.8-14.736,5.281-26.085,18.457-32.291,6.283-2.96,7.933-6.169,7.913-12.717q-.353-111.475-.132-222.953c0-10.978,1.992-12.771,11.641-11.079,3.189,3.887,2.354,8.533,2.356,12.975.029,73.1.2,146.2-.217,219.3-.049,8.673,2.155,13.507,10.661,15.017m1.837,29.2a19.212,19.212,0,1,0-19.182,19.592,19.368,19.368,0,0,0,19.182-19.592" transform="translate(108.326 35.347)" fill="#0c333f"/>
    <path id="Trazado_715167" data-name="Trazado 715167" d="M167.869,291.347c-8.506-1.51-10.71-6.344-10.661-15.015.416-73.1.246-146.2.217-219.3,0-4.442.833-9.088-2.356-12.974,11.623-.013,12.773,1.114,12.777,12.957q.027,117.164.024,234.333" transform="translate(125.284 35.595)" fill="#e9951d"/>
    <path id="Trazado_715168" data-name="Trazado 715168" d="M207.086,46.264c-.947,5.934-4.25,10.072-10.669,9.606-6.216-.452-9.71-4.491-9.372-10.974.324-6.208,4.419-9.441,10.048-9.38,6.252.065,9.674,4.113,9.992,10.748" transform="translate(151.1 28.693)" fill="#f8404c"/>
    <path id="Trazado_715169" data-name="Trazado 715169" d="M180.333,205.76a19.212,19.212,0,1,1-38.417.029,19.213,19.213,0,1,1,38.417-.029" transform="translate(114.658 150.38)" fill="#f8404c"/>
  </g>
</svg>
